<?xml version="1.0" encoding="utf-8" standalone="no"?>
<!DOCTYPE svg PUBLIC "-//W3C//DTD SVG 1.1//EN"
  "http://www.w3.org/Graphics/SVG/1.1/DTD/svg11.dtd">
<svg height="576pt" version="1.1" viewBox="0 0 864 576" width="864pt" xmlns="http://www.w3.org/2000/svg" xmlns:xlink="http://www.w3.org/1999/xlink">
 <metadata>
  <rdf:RDF xmlns:cc="http://creativecommons.org/ns#" xmlns:dc="http://purl.org/dc/elements/1.1/" xmlns:rdf="http://www.w3.org/1999/02/22-rdf-syntax-ns#">
   <cc:Work>
    <dc:type rdf:resource="http://purl.org/dc/dcmitype/StillImage"/>
    <dc:date>2021-09-11T13:24:23.814982</dc:date>
    <dc:format>image/svg+xml</dc:format>
    <dc:creator>
     <cc:Agent>
      <dc:title>Matplotlib v3.4.3, https://matplotlib.org/</dc:title>
     </cc:Agent>
    </dc:creator>
   </cc:Work>
  </rdf:RDF>
 </metadata>
 <defs>
  <style type="text/css">*{stroke-linecap:butt;stroke-linejoin:round;}</style>
 </defs>
 <g id="figure_1">
  <g id="patch_1">
   <path d="M 0 576 
L 864 576 
L 864 0 
L 0 0 
z
" style="fill:#ffffff;"/>
  </g>
  <g id="axes_1">
   <g id="patch_2">
    <path d="M 108 512.64 
L 643.68 512.64 
L 643.68 69.12 
L 108 69.12 
z
" style="fill:#ffffff;"/>
   </g>
   <g id="matplotlib.axis_1">
    <g id="xtick_1">
     <g id="line2d_1">
      <defs>
       <path d="M 0 0 
L 0 3.5 
" id="md28cb884a3" style="stroke:#000000;stroke-width:0.8;"/>
      </defs>
      <g>
       <use style="stroke:#000000;stroke-width:0.8;" x="132.349091" xlink:href="#md28cb884a3" y="512.64"/>
      </g>
     </g>
     <g id="text_1">
      <!-- 0 -->
      <g transform="translate(127.895341 530.277812)scale(0.14 -0.14)">
       <defs>
        <path d="M 2034 4250 
Q 1547 4250 1301 3770 
Q 1056 3291 1056 2328 
Q 1056 1369 1301 889 
Q 1547 409 2034 409 
Q 2525 409 2770 889 
Q 3016 1369 3016 2328 
Q 3016 3291 2770 3770 
Q 2525 4250 2034 4250 
z
M 2034 4750 
Q 2819 4750 3233 4129 
Q 3647 3509 3647 2328 
Q 3647 1150 3233 529 
Q 2819 -91 2034 -91 
Q 1250 -91 836 529 
Q 422 1150 422 2328 
Q 422 3509 836 4129 
Q 1250 4750 2034 4750 
z
" id="DejaVuSans-30" transform="scale(0.015625)"/>
       </defs>
       <use xlink:href="#DejaVuSans-30"/>
      </g>
     </g>
    </g>
    <g id="xtick_2">
     <g id="line2d_2">
      <g>
       <use style="stroke:#000000;stroke-width:0.8;" x="229.842948" xlink:href="#md28cb884a3" y="512.64"/>
      </g>
     </g>
     <g id="text_2">
      <!-- 200 -->
      <g transform="translate(216.481698 530.277812)scale(0.14 -0.14)">
       <defs>
        <path d="M 1228 531 
L 3431 531 
L 3431 0 
L 469 0 
L 469 531 
Q 828 903 1448 1529 
Q 2069 2156 2228 2338 
Q 2531 2678 2651 2914 
Q 2772 3150 2772 3378 
Q 2772 3750 2511 3984 
Q 2250 4219 1831 4219 
Q 1534 4219 1204 4116 
Q 875 4013 500 3803 
L 500 4441 
Q 881 4594 1212 4672 
Q 1544 4750 1819 4750 
Q 2544 4750 2975 4387 
Q 3406 4025 3406 3419 
Q 3406 3131 3298 2873 
Q 3191 2616 2906 2266 
Q 2828 2175 2409 1742 
Q 1991 1309 1228 531 
z
" id="DejaVuSans-32" transform="scale(0.015625)"/>
       </defs>
       <use xlink:href="#DejaVuSans-32"/>
       <use x="63.623047" xlink:href="#DejaVuSans-30"/>
       <use x="127.246094" xlink:href="#DejaVuSans-30"/>
      </g>
     </g>
    </g>
    <g id="xtick_3">
     <g id="line2d_3">
      <g>
       <use style="stroke:#000000;stroke-width:0.8;" x="327.336806" xlink:href="#md28cb884a3" y="512.64"/>
      </g>
     </g>
     <g id="text_3">
      <!-- 400 -->
      <g transform="translate(313.975556 530.277812)scale(0.14 -0.14)">
       <defs>
        <path d="M 2419 4116 
L 825 1625 
L 2419 1625 
L 2419 4116 
z
M 2253 4666 
L 3047 4666 
L 3047 1625 
L 3713 1625 
L 3713 1100 
L 3047 1100 
L 3047 0 
L 2419 0 
L 2419 1100 
L 313 1100 
L 313 1709 
L 2253 4666 
z
" id="DejaVuSans-34" transform="scale(0.015625)"/>
       </defs>
       <use xlink:href="#DejaVuSans-34"/>
       <use x="63.623047" xlink:href="#DejaVuSans-30"/>
       <use x="127.246094" xlink:href="#DejaVuSans-30"/>
      </g>
     </g>
    </g>
    <g id="xtick_4">
     <g id="line2d_4">
      <g>
       <use style="stroke:#000000;stroke-width:0.8;" x="424.830663" xlink:href="#md28cb884a3" y="512.64"/>
      </g>
     </g>
     <g id="text_4">
      <!-- 600 -->
      <g transform="translate(411.469413 530.277812)scale(0.14 -0.14)">
       <defs>
        <path d="M 2113 2584 
Q 1688 2584 1439 2293 
Q 1191 2003 1191 1497 
Q 1191 994 1439 701 
Q 1688 409 2113 409 
Q 2538 409 2786 701 
Q 3034 994 3034 1497 
Q 3034 2003 2786 2293 
Q 2538 2584 2113 2584 
z
M 3366 4563 
L 3366 3988 
Q 3128 4100 2886 4159 
Q 2644 4219 2406 4219 
Q 1781 4219 1451 3797 
Q 1122 3375 1075 2522 
Q 1259 2794 1537 2939 
Q 1816 3084 2150 3084 
Q 2853 3084 3261 2657 
Q 3669 2231 3669 1497 
Q 3669 778 3244 343 
Q 2819 -91 2113 -91 
Q 1303 -91 875 529 
Q 447 1150 447 2328 
Q 447 3434 972 4092 
Q 1497 4750 2381 4750 
Q 2619 4750 2861 4703 
Q 3103 4656 3366 4563 
z
" id="DejaVuSans-36" transform="scale(0.015625)"/>
       </defs>
       <use xlink:href="#DejaVuSans-36"/>
       <use x="63.623047" xlink:href="#DejaVuSans-30"/>
       <use x="127.246094" xlink:href="#DejaVuSans-30"/>
      </g>
     </g>
    </g>
    <g id="xtick_5">
     <g id="line2d_5">
      <g>
       <use style="stroke:#000000;stroke-width:0.8;" x="522.324521" xlink:href="#md28cb884a3" y="512.64"/>
      </g>
     </g>
     <g id="text_5">
      <!-- 800 -->
      <g transform="translate(508.963271 530.277812)scale(0.14 -0.14)">
       <defs>
        <path d="M 2034 2216 
Q 1584 2216 1326 1975 
Q 1069 1734 1069 1313 
Q 1069 891 1326 650 
Q 1584 409 2034 409 
Q 2484 409 2743 651 
Q 3003 894 3003 1313 
Q 3003 1734 2745 1975 
Q 2488 2216 2034 2216 
z
M 1403 2484 
Q 997 2584 770 2862 
Q 544 3141 544 3541 
Q 544 4100 942 4425 
Q 1341 4750 2034 4750 
Q 2731 4750 3128 4425 
Q 3525 4100 3525 3541 
Q 3525 3141 3298 2862 
Q 3072 2584 2669 2484 
Q 3125 2378 3379 2068 
Q 3634 1759 3634 1313 
Q 3634 634 3220 271 
Q 2806 -91 2034 -91 
Q 1263 -91 848 271 
Q 434 634 434 1313 
Q 434 1759 690 2068 
Q 947 2378 1403 2484 
z
M 1172 3481 
Q 1172 3119 1398 2916 
Q 1625 2713 2034 2713 
Q 2441 2713 2670 2916 
Q 2900 3119 2900 3481 
Q 2900 3844 2670 4047 
Q 2441 4250 2034 4250 
Q 1625 4250 1398 4047 
Q 1172 3844 1172 3481 
z
" id="DejaVuSans-38" transform="scale(0.015625)"/>
       </defs>
       <use xlink:href="#DejaVuSans-38"/>
       <use x="63.623047" xlink:href="#DejaVuSans-30"/>
       <use x="127.246094" xlink:href="#DejaVuSans-30"/>
      </g>
     </g>
    </g>
    <g id="xtick_6">
     <g id="line2d_6">
      <g>
       <use style="stroke:#000000;stroke-width:0.8;" x="619.818378" xlink:href="#md28cb884a3" y="512.64"/>
      </g>
     </g>
     <g id="text_6">
      <!-- 1000 -->
      <g transform="translate(602.003378 530.277812)scale(0.14 -0.14)">
       <defs>
        <path d="M 794 531 
L 1825 531 
L 1825 4091 
L 703 3866 
L 703 4441 
L 1819 4666 
L 2450 4666 
L 2450 531 
L 3481 531 
L 3481 0 
L 794 0 
L 794 531 
z
" id="DejaVuSans-31" transform="scale(0.015625)"/>
       </defs>
       <use xlink:href="#DejaVuSans-31"/>
       <use x="63.623047" xlink:href="#DejaVuSans-30"/>
       <use x="127.246094" xlink:href="#DejaVuSans-30"/>
       <use x="190.869141" xlink:href="#DejaVuSans-30"/>
      </g>
     </g>
    </g>
    <g id="text_7">
     <!-- Episodes -->
     <g transform="translate(344.700938 547.827188)scale(0.14 -0.14)">
      <defs>
       <path d="M 628 4666 
L 3578 4666 
L 3578 4134 
L 1259 4134 
L 1259 2753 
L 3481 2753 
L 3481 2222 
L 1259 2222 
L 1259 531 
L 3634 531 
L 3634 0 
L 628 0 
L 628 4666 
z
" id="DejaVuSans-45" transform="scale(0.015625)"/>
       <path d="M 1159 525 
L 1159 -1331 
L 581 -1331 
L 581 3500 
L 1159 3500 
L 1159 2969 
Q 1341 3281 1617 3432 
Q 1894 3584 2278 3584 
Q 2916 3584 3314 3078 
Q 3713 2572 3713 1747 
Q 3713 922 3314 415 
Q 2916 -91 2278 -91 
Q 1894 -91 1617 61 
Q 1341 213 1159 525 
z
M 3116 1747 
Q 3116 2381 2855 2742 
Q 2594 3103 2138 3103 
Q 1681 3103 1420 2742 
Q 1159 2381 1159 1747 
Q 1159 1113 1420 752 
Q 1681 391 2138 391 
Q 2594 391 2855 752 
Q 3116 1113 3116 1747 
z
" id="DejaVuSans-70" transform="scale(0.015625)"/>
       <path d="M 603 3500 
L 1178 3500 
L 1178 0 
L 603 0 
L 603 3500 
z
M 603 4863 
L 1178 4863 
L 1178 4134 
L 603 4134 
L 603 4863 
z
" id="DejaVuSans-69" transform="scale(0.015625)"/>
       <path d="M 2834 3397 
L 2834 2853 
Q 2591 2978 2328 3040 
Q 2066 3103 1784 3103 
Q 1356 3103 1142 2972 
Q 928 2841 928 2578 
Q 928 2378 1081 2264 
Q 1234 2150 1697 2047 
L 1894 2003 
Q 2506 1872 2764 1633 
Q 3022 1394 3022 966 
Q 3022 478 2636 193 
Q 2250 -91 1575 -91 
Q 1294 -91 989 -36 
Q 684 19 347 128 
L 347 722 
Q 666 556 975 473 
Q 1284 391 1588 391 
Q 1994 391 2212 530 
Q 2431 669 2431 922 
Q 2431 1156 2273 1281 
Q 2116 1406 1581 1522 
L 1381 1569 
Q 847 1681 609 1914 
Q 372 2147 372 2553 
Q 372 3047 722 3315 
Q 1072 3584 1716 3584 
Q 2034 3584 2315 3537 
Q 2597 3491 2834 3397 
z
" id="DejaVuSans-73" transform="scale(0.015625)"/>
       <path d="M 1959 3097 
Q 1497 3097 1228 2736 
Q 959 2375 959 1747 
Q 959 1119 1226 758 
Q 1494 397 1959 397 
Q 2419 397 2687 759 
Q 2956 1122 2956 1747 
Q 2956 2369 2687 2733 
Q 2419 3097 1959 3097 
z
M 1959 3584 
Q 2709 3584 3137 3096 
Q 3566 2609 3566 1747 
Q 3566 888 3137 398 
Q 2709 -91 1959 -91 
Q 1206 -91 779 398 
Q 353 888 353 1747 
Q 353 2609 779 3096 
Q 1206 3584 1959 3584 
z
" id="DejaVuSans-6f" transform="scale(0.015625)"/>
       <path d="M 2906 2969 
L 2906 4863 
L 3481 4863 
L 3481 0 
L 2906 0 
L 2906 525 
Q 2725 213 2448 61 
Q 2172 -91 1784 -91 
Q 1150 -91 751 415 
Q 353 922 353 1747 
Q 353 2572 751 3078 
Q 1150 3584 1784 3584 
Q 2172 3584 2448 3432 
Q 2725 3281 2906 2969 
z
M 947 1747 
Q 947 1113 1208 752 
Q 1469 391 1925 391 
Q 2381 391 2643 752 
Q 2906 1113 2906 1747 
Q 2906 2381 2643 2742 
Q 2381 3103 1925 3103 
Q 1469 3103 1208 2742 
Q 947 2381 947 1747 
z
" id="DejaVuSans-64" transform="scale(0.015625)"/>
       <path d="M 3597 1894 
L 3597 1613 
L 953 1613 
Q 991 1019 1311 708 
Q 1631 397 2203 397 
Q 2534 397 2845 478 
Q 3156 559 3463 722 
L 3463 178 
Q 3153 47 2828 -22 
Q 2503 -91 2169 -91 
Q 1331 -91 842 396 
Q 353 884 353 1716 
Q 353 2575 817 3079 
Q 1281 3584 2069 3584 
Q 2775 3584 3186 3129 
Q 3597 2675 3597 1894 
z
M 3022 2063 
Q 3016 2534 2758 2815 
Q 2500 3097 2075 3097 
Q 1594 3097 1305 2825 
Q 1016 2553 972 2059 
L 3022 2063 
z
" id="DejaVuSans-65" transform="scale(0.015625)"/>
      </defs>
      <use xlink:href="#DejaVuSans-45"/>
      <use x="63.183594" xlink:href="#DejaVuSans-70"/>
      <use x="126.660156" xlink:href="#DejaVuSans-69"/>
      <use x="154.443359" xlink:href="#DejaVuSans-73"/>
      <use x="206.542969" xlink:href="#DejaVuSans-6f"/>
      <use x="267.724609" xlink:href="#DejaVuSans-64"/>
      <use x="331.201172" xlink:href="#DejaVuSans-65"/>
      <use x="392.724609" xlink:href="#DejaVuSans-73"/>
     </g>
    </g>
   </g>
   <g id="matplotlib.axis_2">
    <g id="ytick_1">
     <g id="line2d_7">
      <defs>
       <path d="M 0 0 
L -3.5 0 
" id="m480f278053" style="stroke:#000000;stroke-width:0.8;"/>
      </defs>
      <g>
       <use style="stroke:#000000;stroke-width:0.8;" x="108" xlink:href="#m480f278053" y="451.50184"/>
      </g>
     </g>
     <g id="text_8">
      <!-- 0.5 -->
      <g transform="translate(78.735625 456.820746)scale(0.14 -0.14)">
       <defs>
        <path d="M 684 794 
L 1344 794 
L 1344 0 
L 684 0 
L 684 794 
z
" id="DejaVuSans-2e" transform="scale(0.015625)"/>
        <path d="M 691 4666 
L 3169 4666 
L 3169 4134 
L 1269 4134 
L 1269 2991 
Q 1406 3038 1543 3061 
Q 1681 3084 1819 3084 
Q 2600 3084 3056 2656 
Q 3513 2228 3513 1497 
Q 3513 744 3044 326 
Q 2575 -91 1722 -91 
Q 1428 -91 1123 -41 
Q 819 9 494 109 
L 494 744 
Q 775 591 1075 516 
Q 1375 441 1709 441 
Q 2250 441 2565 725 
Q 2881 1009 2881 1497 
Q 2881 1984 2565 2268 
Q 2250 2553 1709 2553 
Q 1456 2553 1204 2497 
Q 953 2441 691 2322 
L 691 4666 
z
" id="DejaVuSans-35" transform="scale(0.015625)"/>
       </defs>
       <use xlink:href="#DejaVuSans-30"/>
       <use x="63.623047" xlink:href="#DejaVuSans-2e"/>
       <use x="95.410156" xlink:href="#DejaVuSans-35"/>
      </g>
     </g>
    </g>
    <g id="ytick_2">
     <g id="line2d_8">
      <g>
       <use style="stroke:#000000;stroke-width:0.8;" x="108" xlink:href="#m480f278053" y="363.460081"/>
      </g>
     </g>
     <g id="text_9">
      <!-- 1.0 -->
      <g transform="translate(78.735625 368.778987)scale(0.14 -0.14)">
       <use xlink:href="#DejaVuSans-31"/>
       <use x="63.623047" xlink:href="#DejaVuSans-2e"/>
       <use x="95.410156" xlink:href="#DejaVuSans-30"/>
      </g>
     </g>
    </g>
    <g id="ytick_3">
     <g id="line2d_9">
      <g>
       <use style="stroke:#000000;stroke-width:0.8;" x="108" xlink:href="#m480f278053" y="275.418321"/>
      </g>
     </g>
     <g id="text_10">
      <!-- 1.5 -->
      <g transform="translate(78.735625 280.737228)scale(0.14 -0.14)">
       <use xlink:href="#DejaVuSans-31"/>
       <use x="63.623047" xlink:href="#DejaVuSans-2e"/>
       <use x="95.410156" xlink:href="#DejaVuSans-35"/>
      </g>
     </g>
    </g>
    <g id="ytick_4">
     <g id="line2d_10">
      <g>
       <use style="stroke:#000000;stroke-width:0.8;" x="108" xlink:href="#m480f278053" y="187.376562"/>
      </g>
     </g>
     <g id="text_11">
      <!-- 2.0 -->
      <g transform="translate(78.735625 192.695468)scale(0.14 -0.14)">
       <use xlink:href="#DejaVuSans-32"/>
       <use x="63.623047" xlink:href="#DejaVuSans-2e"/>
       <use x="95.410156" xlink:href="#DejaVuSans-30"/>
      </g>
     </g>
    </g>
    <g id="ytick_5">
     <g id="line2d_11">
      <g>
       <use style="stroke:#000000;stroke-width:0.8;" x="108" xlink:href="#m480f278053" y="99.334802"/>
      </g>
     </g>
     <g id="text_12">
      <!-- 2.5 -->
      <g transform="translate(78.735625 104.653709)scale(0.14 -0.14)">
       <use xlink:href="#DejaVuSans-32"/>
       <use x="63.623047" xlink:href="#DejaVuSans-2e"/>
       <use x="95.410156" xlink:href="#DejaVuSans-35"/>
      </g>
     </g>
    </g>
    <g id="text_13">
     <!-- Reward -->
     <g transform="translate(71.824062 316.949531)rotate(-90)scale(0.14 -0.14)">
      <defs>
       <path d="M 2841 2188 
Q 3044 2119 3236 1894 
Q 3428 1669 3622 1275 
L 4263 0 
L 3584 0 
L 2988 1197 
Q 2756 1666 2539 1819 
Q 2322 1972 1947 1972 
L 1259 1972 
L 1259 0 
L 628 0 
L 628 4666 
L 2053 4666 
Q 2853 4666 3247 4331 
Q 3641 3997 3641 3322 
Q 3641 2881 3436 2590 
Q 3231 2300 2841 2188 
z
M 1259 4147 
L 1259 2491 
L 2053 2491 
Q 2509 2491 2742 2702 
Q 2975 2913 2975 3322 
Q 2975 3731 2742 3939 
Q 2509 4147 2053 4147 
L 1259 4147 
z
" id="DejaVuSans-52" transform="scale(0.015625)"/>
       <path d="M 269 3500 
L 844 3500 
L 1563 769 
L 2278 3500 
L 2956 3500 
L 3675 769 
L 4391 3500 
L 4966 3500 
L 4050 0 
L 3372 0 
L 2619 2869 
L 1863 0 
L 1184 0 
L 269 3500 
z
" id="DejaVuSans-77" transform="scale(0.015625)"/>
       <path d="M 2194 1759 
Q 1497 1759 1228 1600 
Q 959 1441 959 1056 
Q 959 750 1161 570 
Q 1363 391 1709 391 
Q 2188 391 2477 730 
Q 2766 1069 2766 1631 
L 2766 1759 
L 2194 1759 
z
M 3341 1997 
L 3341 0 
L 2766 0 
L 2766 531 
Q 2569 213 2275 61 
Q 1981 -91 1556 -91 
Q 1019 -91 701 211 
Q 384 513 384 1019 
Q 384 1609 779 1909 
Q 1175 2209 1959 2209 
L 2766 2209 
L 2766 2266 
Q 2766 2663 2505 2880 
Q 2244 3097 1772 3097 
Q 1472 3097 1187 3025 
Q 903 2953 641 2809 
L 641 3341 
Q 956 3463 1253 3523 
Q 1550 3584 1831 3584 
Q 2591 3584 2966 3190 
Q 3341 2797 3341 1997 
z
" id="DejaVuSans-61" transform="scale(0.015625)"/>
       <path d="M 2631 2963 
Q 2534 3019 2420 3045 
Q 2306 3072 2169 3072 
Q 1681 3072 1420 2755 
Q 1159 2438 1159 1844 
L 1159 0 
L 581 0 
L 581 3500 
L 1159 3500 
L 1159 2956 
Q 1341 3275 1631 3429 
Q 1922 3584 2338 3584 
Q 2397 3584 2469 3576 
Q 2541 3569 2628 3553 
L 2631 2963 
z
" id="DejaVuSans-72" transform="scale(0.015625)"/>
      </defs>
      <use xlink:href="#DejaVuSans-52"/>
      <use x="64.982422" xlink:href="#DejaVuSans-65"/>
      <use x="126.505859" xlink:href="#DejaVuSans-77"/>
      <use x="208.292969" xlink:href="#DejaVuSans-61"/>
      <use x="269.572266" xlink:href="#DejaVuSans-72"/>
      <use x="308.935547" xlink:href="#DejaVuSans-64"/>
     </g>
    </g>
   </g>
   <g id="line2d_12">
    <path clip-path="url(#p6c5bf7e366)" d="M 132.349091 349.245835 
L 133.324029 334.154757 
L 134.298968 344.746119 
L 134.786437 343.329537 
L 135.273907 346.407641 
L 136.248845 322.40452 
L 136.736314 320.11883 
L 137.223784 323.142184 
L 138.198722 334.456862 
L 138.686192 327.961375 
L 139.173661 329.057938 
L 139.66113 347.851798 
L 140.1486 348.28682 
L 140.636069 327.953503 
L 141.123538 326.544919 
L 141.611007 338.811799 
L 142.098477 358.706973 
L 142.585946 356.096771 
L 143.073415 361.75759 
L 143.560885 366.088863 
L 144.048354 361.94329 
L 144.535823 363.229801 
L 145.023292 369.140115 
L 145.510762 363.530087 
L 145.998231 355.777754 
L 146.4857 368.323953 
L 146.97317 389.397708 
L 147.460639 397.211312 
L 147.948108 390.117227 
L 148.435577 394.864376 
L 148.923047 401.646386 
L 149.410516 415.340078 
L 149.897985 414.128757 
L 150.385455 415.230737 
L 150.872924 400.019999 
L 151.360393 410.327982 
L 151.847862 415.325196 
L 152.335332 411.097876 
L 152.822801 414.459941 
L 153.31027 421.502842 
L 153.79774 409.79797 
L 154.285209 403.159706 
L 154.772678 386.688288 
L 155.260147 377.057842 
L 155.747617 387.934311 
L 156.235086 396.263728 
L 157.697494 432.988295 
L 158.184963 430.548778 
L 158.672432 437.798262 
L 159.159902 436.030028 
L 159.647371 435.841539 
L 160.13484 445.366999 
L 160.62231 439.926094 
L 161.109779 424.508621 
L 161.597248 431.137834 
L 162.084717 424.398976 
L 162.572187 411.725255 
L 163.059656 411.228125 
L 163.547125 409.387131 
L 164.034595 416.544254 
L 164.522064 416.850549 
L 165.009533 423.095308 
L 165.497002 411.187204 
L 165.984472 406.367477 
L 166.471941 405.412295 
L 166.95941 420.278706 
L 167.44688 422.556952 
L 167.934349 414.372214 
L 168.421818 420.664197 
L 168.909287 420.305201 
L 169.396757 420.335005 
L 169.884226 437.067665 
L 170.859165 456.601385 
L 171.346634 448.816114 
L 171.834103 450.548821 
L 172.321572 445.867451 
L 172.809042 427.386685 
L 173.296511 438.467238 
L 173.78398 443.266602 
L 174.27145 436.440185 
L 174.758919 446.481086 
L 175.246388 451.652157 
L 175.733857 464.485191 
L 176.221327 451.909629 
L 176.708796 451.089582 
L 177.196265 449.678719 
L 178.171204 457.38869 
L 178.658673 459.021226 
L 179.146143 472.428828 
L 179.633612 479.463365 
L 180.121081 483.214628 
L 180.60855 483.04054 
L 181.09602 482.422115 
L 181.583489 472.927803 
L 182.070958 446.143861 
L 182.558428 440.031955 
L 183.045897 424.550988 
L 183.533366 431.124462 
L 184.020835 450.039848 
L 184.508305 452.01446 
L 184.995774 461.182956 
L 185.483243 445.345797 
L 185.970713 438.890052 
L 186.458182 434.760973 
L 186.945651 424.547677 
L 187.43312 425.965969 
L 187.92059 434.859538 
L 188.408059 436.759528 
L 188.895528 431.108406 
L 189.382998 434.642264 
L 189.870467 443.992301 
L 190.357936 448.95707 
L 191.332875 472.672138 
L 191.820344 474.925429 
L 192.307813 489.012715 
L 192.795283 476.779229 
L 193.282752 485.971156 
L 193.770221 484.347852 
L 194.25769 476.857164 
L 194.74516 480.856288 
L 195.232629 490.176553 
L 195.720098 488.837831 
L 196.207568 467.054388 
L 196.695037 474.815094 
L 197.182506 458.433092 
L 197.669975 453.375545 
L 198.157445 453.647228 
L 198.644914 469.259831 
L 199.132383 467.891295 
L 199.619853 455.68069 
L 200.107322 460.586154 
L 200.594791 459.72564 
L 201.08226 471.396233 
L 201.56973 488.707712 
L 202.057199 474.263535 
L 202.544668 479.069815 
L 203.032138 463.336478 
L 203.519607 468.390151 
L 204.007076 467.23905 
L 204.494545 448.055328 
L 204.982015 455.752238 
L 205.469484 446.265817 
L 205.956953 457.245923 
L 206.444423 456.761791 
L 206.931892 469.455023 
L 207.419361 478.04356 
L 207.90683 483.563489 
L 208.3943 473.166153 
L 209.369238 478.289425 
L 209.856708 477.639593 
L 210.344177 467.376303 
L 210.831646 463.297876 
L 211.806585 492.48 
L 212.294054 476.148614 
L 212.781523 468.204084 
L 213.268993 451.031504 
L 213.756462 437.889345 
L 214.243931 442.442951 
L 214.7314 451.24823 
L 215.21887 449.203571 
L 215.706339 442.96589 
L 216.193808 442.065594 
L 216.681278 461.113715 
L 217.168747 459.699893 
L 217.656216 456.264422 
L 218.143686 453.836687 
L 219.118624 432.546202 
L 219.606093 434.161589 
L 220.093563 408.097062 
L 220.581032 391.084778 
L 221.068501 405.03066 
L 221.555971 401.126531 
L 222.04344 416.419818 
L 222.530909 408.393203 
L 223.505848 385.863525 
L 223.993317 384.049534 
L 224.968256 402.544207 
L 225.455725 398.528096 
L 225.943194 423.474627 
L 226.430663 424.375598 
L 226.918133 411.54205 
L 227.405602 412.520232 
L 227.893071 414.283845 
L 228.380541 411.713715 
L 228.86801 411.250003 
L 229.355479 410.376451 
L 229.842948 420.677669 
L 230.330418 420.741828 
L 230.817887 424.850113 
L 231.792826 420.607702 
L 232.280295 433.113207 
L 232.767764 415.972292 
L 233.255233 406.338977 
L 233.742703 390.406904 
L 234.717641 410.043061 
L 235.205111 399.135035 
L 235.69258 403.517767 
L 236.180049 401.63069 
L 236.667518 398.314122 
L 237.154988 388.877462 
L 238.129926 382.283821 
L 239.104865 367.556109 
L 240.079803 349.014399 
L 240.567273 342.505893 
L 241.054742 355.011705 
L 241.542211 372.424552 
L 242.029681 381.044015 
L 242.51715 391.821993 
L 243.004619 386.475991 
L 243.492088 386.41113 
L 243.979558 386.956713 
L 244.467027 385.319486 
L 244.954496 399.136794 
L 245.441966 398.946118 
L 245.929435 397.025172 
L 246.416904 398.701316 
L 246.904373 393.190715 
L 247.391843 390.398657 
L 247.879312 404.023285 
L 248.366781 385.397787 
L 248.854251 374.672765 
L 249.34172 380.413081 
L 250.316658 372.061869 
L 250.804128 360.328519 
L 251.291597 372.930647 
L 251.779066 381.673088 
L 252.266536 373.977645 
L 252.754005 377.350441 
L 253.241474 366.294559 
L 253.728943 385.262159 
L 254.703882 401.973267 
L 255.191351 405.903148 
L 255.678821 404.498493 
L 256.16629 402.132113 
L 256.653759 409.513766 
L 257.141229 414.594067 
L 257.628698 414.763855 
L 258.116167 414.079254 
L 259.578575 373.408319 
L 260.066044 385.224754 
L 260.553514 403.670729 
L 261.040983 394.644666 
L 261.528452 402.900177 
L 262.015921 398.293297 
L 262.503391 418.485232 
L 262.99086 410.303755 
L 263.478329 414.657085 
L 263.965799 437.349259 
L 264.453268 432.439652 
L 264.940737 441.723798 
L 265.428206 426.994613 
L 265.915676 430.388994 
L 266.403145 439.993104 
L 266.890614 433.210679 
L 267.378084 449.028342 
L 267.865553 449.123594 
L 268.353022 444.720764 
L 268.840491 453.853799 
L 269.327961 458.447122 
L 270.302899 441.71794 
L 270.790369 445.894502 
L 272.252776 423.458479 
L 272.740246 421.901889 
L 274.202654 403.56975 
L 274.690123 404.353983 
L 275.177592 416.357079 
L 275.665061 406.566886 
L 276.152531 402.877129 
L 276.64 398.032126 
L 277.127469 377.259817 
L 277.614939 372.783624 
L 278.102408 388.830682 
L 278.589877 399.28152 
L 280.052285 404.440658 
L 280.539754 386.443532 
L 281.027224 382.540302 
L 281.514693 358.978345 
L 282.002162 366.690116 
L 282.489631 380.757038 
L 282.977101 381.111772 
L 283.46457 380.044509 
L 283.952039 382.917349 
L 284.439509 383.174998 
L 284.926978 391.777688 
L 285.414447 383.112667 
L 285.901916 381.055436 
L 286.876855 394.566389 
L 287.364324 395.297147 
L 287.851794 405.675635 
L 288.339263 401.7391 
L 288.826732 400.841965 
L 289.314201 403.102144 
L 289.801671 382.572838 
L 290.28914 384.842801 
L 290.776609 384.002025 
L 291.264079 388.022338 
L 292.239017 392.369063 
L 292.726486 396.08333 
L 293.213956 409.372876 
L 293.701425 404.945545 
L 294.188894 409.130047 
L 294.676364 404.884543 
L 295.163833 399.149646 
L 295.651302 406.675201 
L 296.138771 418.662041 
L 296.626241 444.063947 
L 297.11371 444.351862 
L 297.601179 444.77375 
L 298.088649 442.197056 
L 298.576118 433.893548 
L 299.063587 420.096707 
L 299.551057 411.188833 
L 300.038526 433.754087 
L 300.525995 425.082005 
L 301.013464 426.695601 
L 301.500934 433.332126 
L 301.988403 424.090568 
L 302.475872 433.39287 
L 302.963342 412.924097 
L 303.450811 401.688844 
L 303.93828 386.041298 
L 304.425749 398.203306 
L 304.913219 407.123285 
L 305.400688 397.029784 
L 305.888157 398.871706 
L 306.375627 416.68092 
L 306.863096 422.034464 
L 307.350565 417.764892 
L 307.838034 411.035204 
L 308.325504 416.54981 
L 308.812973 407.185818 
L 309.300442 417.166527 
L 309.787912 415.926018 
L 310.275381 428.884176 
L 310.76285 424.950325 
L 311.250319 425.206817 
L 311.737789 434.444148 
L 312.225258 428.328563 
L 312.712727 424.000364 
L 313.200197 418.131312 
L 313.687666 428.025417 
L 314.175135 426.089385 
L 314.662604 435.293567 
L 315.150074 421.569307 
L 315.637543 418.60331 
L 316.125012 438.039805 
L 317.099951 429.055672 
L 317.58742 417.201487 
L 318.074889 436.888439 
L 318.562359 441.156266 
L 319.049828 438.111995 
L 319.537297 436.244974 
L 320.024767 423.037804 
L 320.512236 430.802775 
L 320.999705 422.688271 
L 321.487174 404.807277 
L 322.462113 427.782782 
L 322.949582 430.324886 
L 323.437052 439.399417 
L 323.924521 432.092712 
L 324.41199 420.324119 
L 324.899459 421.460095 
L 325.386929 416.428931 
L 325.874398 417.589439 
L 326.361867 409.245174 
L 326.849337 404.833374 
L 327.336806 411.335773 
L 327.824275 407.096307 
L 328.311744 404.554628 
L 328.799214 406.272161 
L 329.286683 406.573635 
L 330.261622 429.468444 
L 331.23656 442.801597 
L 331.724029 443.841774 
L 332.211499 432.229911 
L 332.698968 463.953689 
L 334.161376 439.189363 
L 334.648845 438.675202 
L 335.136314 429.631259 
L 335.623784 427.633902 
L 336.111253 443.581015 
L 337.086192 407.925823 
L 337.573661 428.740677 
L 338.06113 422.085684 
L 338.5486 410.471893 
L 339.036069 413.237236 
L 339.523538 424.625465 
L 340.011007 427.170703 
L 340.985946 441.893328 
L 341.473415 440.848102 
L 341.960885 437.171012 
L 342.448354 446.532107 
L 342.935823 461.527734 
L 343.423292 467.206987 
L 343.910762 462.958868 
L 344.398231 465.985073 
L 344.8857 467.49551 
L 345.37317 470.879466 
L 345.860639 449.409109 
L 346.348108 451.934746 
L 346.835577 444.169341 
L 347.323047 433.762637 
L 347.810516 432.724852 
L 348.297985 437.07108 
L 349.760393 386.87967 
L 350.247862 394.457401 
L 351.71027 359.603392 
L 352.19774 370.121089 
L 352.685209 361.841945 
L 353.172678 378.045437 
L 353.660147 385.98918 
L 354.147617 383.246123 
L 354.635086 394.042109 
L 355.122555 410.6765 
L 355.610025 395.059647 
L 356.097494 396.078234 
L 356.584963 412.3935 
L 357.072432 411.161253 
L 357.559902 416.064472 
L 358.047371 408.697152 
L 358.53484 411.406774 
L 359.02231 412.699061 
L 359.509779 409.943562 
L 359.997248 408.209992 
L 360.484717 421.447675 
L 360.972187 415.453418 
L 361.459656 419.391763 
L 361.947125 412.69345 
L 362.434595 437.086097 
L 362.922064 439.874986 
L 363.897002 451.847948 
L 364.871941 432.842786 
L 365.35941 425.979793 
L 365.84688 437.600113 
L 366.334349 437.581111 
L 366.821818 436.947018 
L 367.309287 447.905074 
L 368.284226 460.518156 
L 368.771695 450.103407 
L 369.746634 437.115967 
L 370.234103 426.813966 
L 370.721572 437.520887 
L 371.209042 436.320609 
L 371.696511 442.257372 
L 372.18398 441.782182 
L 372.67145 441.639444 
L 373.158919 424.674318 
L 373.646388 440.73112 
L 374.133857 437.940801 
L 374.621327 428.972733 
L 375.108796 443.144891 
L 375.596265 446.26124 
L 376.571204 419.141127 
L 377.058673 418.86752 
L 377.546143 427.177064 
L 378.033612 412.717978 
L 378.521081 384.982204 
L 379.00855 376.421823 
L 379.49602 372.495215 
L 379.983489 375.537479 
L 380.470958 363.753811 
L 380.958428 359.423744 
L 381.445897 349.844259 
L 381.933366 337.302319 
L 382.420835 332.218929 
L 382.908305 325.784061 
L 383.395774 321.996035 
L 383.883243 316.109146 
L 384.370713 307.824041 
L 384.858182 307.768642 
L 385.345651 301.111 
L 385.83312 301.716633 
L 386.32059 291.847371 
L 386.808059 274.707136 
L 387.295528 268.658037 
L 387.782998 266.046362 
L 388.270467 268.563013 
L 388.757936 264.260289 
L 389.245405 252.572175 
L 389.732875 255.767232 
L 390.220344 253.746469 
L 391.195283 242.608865 
L 391.682752 242.883659 
L 392.170221 242.916842 
L 393.14516 241.583176 
L 394.120098 216.390056 
L 394.607568 213.096399 
L 395.095037 201.294118 
L 395.582506 197.51209 
L 396.069975 201.582024 
L 396.557445 183.286111 
L 397.044914 191.112397 
L 397.532383 193.272486 
L 398.019853 193.157679 
L 398.507322 171.137308 
L 398.994791 170.466606 
L 399.48226 175.195546 
L 399.96973 176.400425 
L 400.457199 171.712648 
L 400.944668 177.012591 
L 401.432138 176.605043 
L 401.919607 178.149816 
L 402.407076 175.70868 
L 402.894545 177.466574 
L 403.382015 191.521423 
L 403.869484 184.163602 
L 404.356953 187.268834 
L 404.844423 185.501801 
L 405.331892 179.254501 
L 405.819361 182.65301 
L 406.7943 166.751478 
L 407.281769 158.978294 
L 407.769238 166.108385 
L 408.256708 169.122971 
L 408.744177 157.539977 
L 409.231646 158.489761 
L 409.719115 160.50939 
L 410.206585 159.170689 
L 411.181523 176.41736 
L 411.668993 161.830639 
L 412.156462 167.782379 
L 412.643931 168.709355 
L 413.1314 159.263193 
L 413.61887 143.258947 
L 414.106339 139.543742 
L 414.593808 151.783855 
L 415.081278 146.158757 
L 415.568747 149.115231 
L 416.056216 146.96636 
L 416.543686 156.953661 
L 417.031155 146.877617 
L 417.518624 150.009642 
L 418.006093 156.733073 
L 418.493563 153.720208 
L 418.981032 161.54208 
L 419.955971 150.088525 
L 420.44344 149.929301 
L 420.930909 139.446109 
L 421.418378 140.460197 
L 421.905848 151.459781 
L 422.393317 153.081208 
L 422.880786 160.146591 
L 423.368256 161.46243 
L 424.343194 167.480407 
L 424.830663 153.411416 
L 425.318133 154.615427 
L 426.293071 158.885684 
L 426.780541 164.080665 
L 427.26801 170.820905 
L 427.755479 162.689801 
L 428.730418 152.115145 
L 429.217887 150.435059 
L 429.705356 152.993873 
L 430.192826 145.483154 
L 430.680295 153.889407 
L 431.167764 158.556001 
L 431.655233 153.943954 
L 432.142703 160.702102 
L 432.630172 160.883241 
L 433.117641 148.578522 
L 433.605111 141.909488 
L 434.09258 141.984584 
L 434.580049 142.974923 
L 435.067518 137.017943 
L 435.554988 162.114643 
L 436.042457 161.445832 
L 436.529926 159.895715 
L 437.017396 154.889926 
L 437.992334 139.156522 
L 438.479803 138.934441 
L 438.967273 138.063949 
L 439.454742 145.296965 
L 439.942211 141.41426 
L 440.429681 143.09595 
L 440.91715 146.44908 
L 441.404619 152.509253 
L 442.379558 150.392134 
L 443.354496 163.843627 
L 443.841966 173.818172 
L 444.329435 170.382279 
L 444.816904 171.843087 
L 445.304373 175.591825 
L 445.791843 181.224966 
L 446.279312 177.984741 
L 446.766781 168.208749 
L 447.254251 169.844729 
L 447.74172 169.747035 
L 448.229189 169.403386 
L 448.716658 166.116657 
L 449.204128 164.401262 
L 449.691597 157.259681 
L 450.179066 160.412765 
L 451.154005 172.675542 
L 451.641474 168.074574 
L 452.128943 165.27503 
L 452.616413 172.497406 
L 454.078821 149.548933 
L 455.053759 134.429676 
L 455.541229 130.89474 
L 456.028698 130.018128 
L 456.516167 130.401569 
L 457.003636 137.461157 
L 457.491106 147.769016 
L 457.978575 140.578575 
L 458.466044 143.259407 
L 458.953514 140.034986 
L 459.928452 145.096284 
L 460.415921 142.807505 
L 460.903391 142.281535 
L 461.39086 149.258906 
L 461.878329 151.188898 
L 462.365799 157.276239 
L 462.853268 150.882498 
L 463.340737 150.316668 
L 463.828206 154.02202 
L 464.315676 156.610667 
L 464.803145 164.23219 
L 465.290614 162.897191 
L 465.778084 156.554317 
L 466.265553 156.466626 
L 466.753022 171.635981 
L 467.240491 161.395772 
L 467.727961 156.240695 
L 468.21543 158.429707 
L 468.702899 164.641018 
L 469.190369 158.617802 
L 469.677838 160.584812 
L 470.165307 158.681294 
L 472.602654 184.267511 
L 473.090123 183.42881 
L 473.577592 180.209177 
L 474.065061 161.815819 
L 474.552531 173.977606 
L 475.04 175.683983 
L 475.527469 169.132814 
L 476.014939 168.54467 
L 476.502408 164.316358 
L 476.989877 169.696657 
L 477.477346 166.85735 
L 477.964816 165.553452 
L 478.452285 168.718004 
L 478.939754 169.652766 
L 479.427224 178.181893 
L 479.914693 160.781026 
L 480.402162 169.452662 
L 481.377101 158.806367 
L 481.86457 163.956376 
L 482.352039 177.473341 
L 482.839509 185.145072 
L 483.326978 172.666453 
L 483.814447 172.301856 
L 484.301916 183.913003 
L 484.789386 180.156629 
L 485.276855 179.799318 
L 485.764324 182.602976 
L 486.251794 193.453382 
L 486.739263 192.744972 
L 487.226732 195.067319 
L 487.714201 206.270612 
L 488.201671 200.818445 
L 488.68914 200.455037 
L 489.176609 208.812484 
L 489.664079 214.564244 
L 490.151548 202.946433 
L 490.639017 210.721518 
L 491.126486 209.402613 
L 491.613956 215.411419 
L 492.101425 212.849522 
L 492.588894 215.950958 
L 493.076364 205.849582 
L 493.563833 205.334716 
L 494.051302 209.383209 
L 494.538771 195.210862 
L 495.026241 175.404487 
L 495.51371 168.855617 
L 496.976118 174.728769 
L 497.463587 161.812765 
L 497.951057 174.162664 
L 498.438526 172.365661 
L 498.925995 167.459785 
L 499.413464 167.264093 
L 499.900934 173.323073 
L 500.388403 171.645788 
L 500.875872 157.948104 
L 501.363342 157.798358 
L 501.850811 153.688784 
L 502.33828 163.320192 
L 502.825749 157.237509 
L 503.800688 163.395036 
L 504.288157 160.270858 
L 504.775627 158.318945 
L 505.263096 164.653162 
L 505.750565 160.902274 
L 506.725504 143.670805 
L 507.212973 126.715244 
L 507.700442 128.709539 
L 508.187912 131.289896 
L 508.675381 131.798802 
L 509.16285 137.25422 
L 510.137789 141.607668 
L 510.625258 143.019977 
L 511.112727 149.096142 
L 511.600197 157.20839 
L 512.087666 152.151512 
L 512.575135 145.462174 
L 513.062604 162.924884 
L 513.550074 150.973031 
L 514.037543 146.988437 
L 514.525012 147.454875 
L 515.012482 150.04199 
L 515.499951 148.821922 
L 515.98742 148.179538 
L 516.962359 170.377208 
L 517.449828 168.523927 
L 517.937297 173.693866 
L 518.424767 176.083003 
L 518.912236 174.651457 
L 519.399705 171.244901 
L 519.887174 173.033404 
L 520.374644 169.459335 
L 520.862113 173.269127 
L 521.349582 166.810471 
L 521.837052 179.584269 
L 522.324521 184.213752 
L 522.81199 182.550926 
L 523.299459 183.66465 
L 523.786929 188.59867 
L 524.761867 180.482237 
L 525.249337 184.066252 
L 525.736806 183.947695 
L 526.224275 187.166977 
L 526.711744 185.752954 
L 527.199214 178.476036 
L 527.686683 189.804576 
L 528.174152 185.848698 
L 528.661622 178.452738 
L 529.149091 189.112513 
L 529.63656 187.282887 
L 530.124029 191.877444 
L 530.611499 180.73073 
L 531.098968 181.654737 
L 531.586437 177.819198 
L 532.073907 171.049219 
L 532.561376 173.465737 
L 533.536314 155.111771 
L 534.023784 151.496445 
L 534.511253 151.112161 
L 534.998722 160.506398 
L 535.486192 161.416598 
L 535.973661 156.584846 
L 536.46113 147.857879 
L 536.9486 145.137127 
L 537.436069 150.292308 
L 537.923538 146.35479 
L 538.411007 140.065343 
L 538.898477 131.650061 
L 539.385946 121.215172 
L 539.873415 127.688316 
L 540.360885 121.066565 
L 541.335823 113.475097 
L 541.823292 126.215781 
L 542.310762 128.572724 
L 542.798231 134.06703 
L 543.2857 135.553008 
L 543.77317 135.883038 
L 544.260639 136.679254 
L 544.748108 143.705467 
L 545.235577 147.955334 
L 545.723047 157.299281 
L 546.697985 141.446157 
L 547.185455 144.070112 
L 547.672924 149.109517 
L 548.160393 150.353341 
L 548.647862 152.974178 
L 549.135332 149.570667 
L 549.622801 135.113644 
L 550.11027 143.051968 
L 550.59774 134.722787 
L 551.085209 134.753896 
L 551.572678 128.99546 
L 552.060147 133.998223 
L 552.547617 143.079979 
L 553.035086 129.46784 
L 553.522555 122.097545 
L 554.010025 119.82075 
L 554.497494 121.652618 
L 554.984963 131.609746 
L 555.472432 133.85546 
L 555.959902 129.894133 
L 556.447371 134.483288 
L 556.93484 137.322889 
L 557.42231 141.168378 
L 557.909779 140.11216 
L 558.397248 145.486774 
L 559.372187 138.823355 
L 560.347125 146.763594 
L 560.834595 142.229311 
L 561.322064 151.957914 
L 561.809533 154.911224 
L 562.297002 157.116504 
L 562.784472 150.869362 
L 564.24688 146.682236 
L 564.734349 150.158168 
L 565.221818 149.843205 
L 565.709287 152.965918 
L 566.196757 148.700281 
L 566.684226 137.668046 
L 567.171695 138.37086 
L 567.659165 137.727107 
L 568.146634 143.28359 
L 568.634103 129.966202 
L 569.609042 152.844558 
L 570.096511 141.52277 
L 570.58398 142.444873 
L 571.558919 154.901263 
L 572.533857 170.021687 
L 573.021327 163.014863 
L 573.508796 161.778521 
L 573.996265 157.717362 
L 574.483735 163.650828 
L 574.971204 160.333626 
L 575.946143 177.281319 
L 576.433612 165.927521 
L 576.921081 168.331134 
L 577.40855 163.331527 
L 577.89602 166.446789 
L 578.383489 157.359592 
L 578.870958 164.099272 
L 579.358428 160.368397 
L 579.845897 152.094843 
L 580.333366 158.360254 
L 580.820835 160.681254 
L 581.308305 172.558221 
L 581.795774 175.290209 
L 582.283243 163.510171 
L 582.770713 165.619553 
L 583.258182 163.615141 
L 583.745651 160.224369 
L 584.23312 160.557746 
L 584.72059 157.63737 
L 585.208059 148.52465 
L 585.695528 144.087996 
L 586.182998 145.829139 
L 586.670467 146.751204 
L 587.157936 140.50427 
L 587.645405 140.858023 
L 588.132875 136.287325 
L 588.620344 134.964809 
L 589.595283 133.169505 
L 590.570221 139.708397 
L 591.05769 138.403356 
L 591.54516 129.621719 
L 592.032629 134.347752 
L 592.520098 126.819947 
L 593.007568 132.100968 
L 593.495037 146.024327 
L 593.982506 143.318362 
L 594.469975 151.953209 
L 594.957445 156.003717 
L 595.444914 165.632596 
L 595.932383 172.936764 
L 596.419853 158.891562 
L 596.907322 160.390899 
L 597.394791 148.719144 
L 597.88226 144.785418 
L 598.36973 142.69656 
L 598.857199 143.758913 
L 599.344668 127.936161 
L 599.832138 129.480869 
L 600.319607 124.36977 
L 600.807076 132.81679 
L 601.294545 133.833248 
L 601.782015 127.248173 
L 602.269484 135.773079 
L 602.756953 128.131728 
L 603.244423 128.098001 
L 603.731892 127.52717 
L 604.219361 130.719325 
L 604.70683 140.936866 
L 605.1943 139.78531 
L 605.681769 140.339048 
L 606.169238 141.686979 
L 606.656708 147.104984 
L 607.144177 146.560731 
L 607.631646 163.666238 
L 608.119115 146.629545 
L 608.606585 144.277781 
L 609.094054 153.16545 
L 609.581523 156.369284 
L 610.068993 151.01697 
L 610.556462 139.463671 
L 611.043931 150.190993 
L 611.5314 150.331454 
L 612.01887 155.112707 
L 612.506339 165.775238 
L 612.993808 165.342518 
L 613.481278 169.192191 
L 613.968747 175.947061 
L 614.456216 175.538317 
L 614.943686 171.715534 
L 615.431155 168.920042 
L 615.918624 168.220037 
L 616.893563 178.27111 
L 617.381032 177.148088 
L 617.868501 170.949049 
L 618.355971 168.595377 
L 618.84344 161.111205 
L 619.330909 156.769809 
L 619.330909 156.769809 
" style="fill:none;stroke:#1f77b4;stroke-linecap:square;stroke-width:2;"/>
   </g>
   <g id="line2d_13">
    <path clip-path="url(#p6c5bf7e366)" d="M 132.349091 349.245835 
L 133.324029 334.154757 
L 134.298968 344.746119 
L 134.786437 343.329537 
L 135.273907 346.407641 
L 136.248845 322.40452 
L 136.736314 320.11883 
L 137.223784 323.142184 
L 138.198722 334.456862 
L 138.686192 327.961375 
L 139.173661 329.057938 
L 139.66113 347.851798 
L 140.1486 348.28682 
L 140.636069 327.953503 
L 141.123538 326.544919 
L 141.611007 338.811799 
L 142.098477 358.706973 
L 142.585946 356.096771 
L 143.073415 361.75759 
L 143.560885 366.088863 
L 144.048354 361.94329 
L 144.535823 363.229801 
L 145.023292 369.140115 
L 145.510762 363.530087 
L 145.998231 355.777754 
L 146.4857 368.323953 
L 146.97317 389.397708 
L 147.460639 397.211312 
L 147.948108 390.117227 
L 148.435577 394.864376 
L 148.923047 401.646386 
L 149.410516 415.340078 
L 149.897985 414.128757 
L 150.385455 415.230737 
L 150.872924 400.019999 
L 151.360393 410.327982 
L 151.847862 415.325196 
L 152.335332 411.097876 
L 152.822801 414.459941 
L 153.31027 421.502842 
L 153.79774 409.79797 
L 154.285209 403.159706 
L 154.772678 386.688288 
L 155.260147 377.057842 
L 155.747617 387.934311 
L 156.235086 396.263728 
L 157.697494 432.988295 
L 158.184963 430.548778 
L 158.672432 437.798262 
L 159.159902 436.030028 
L 159.647371 435.841539 
L 160.13484 445.366999 
L 160.62231 439.926094 
L 161.109779 424.508621 
L 161.597248 431.137834 
L 162.084717 424.398976 
L 162.572187 411.725255 
L 163.059656 411.228125 
L 163.547125 409.387131 
L 164.034595 416.544254 
L 164.522064 416.850549 
L 165.009533 423.095308 
L 165.497002 411.187204 
L 165.984472 406.367477 
L 166.471941 405.412295 
L 166.95941 420.278706 
L 167.44688 422.556952 
L 167.934349 414.372214 
L 168.421818 420.664197 
L 168.909287 420.305201 
L 169.396757 420.335005 
L 169.884226 437.067665 
L 170.859165 456.601385 
L 171.346634 448.816114 
L 171.834103 450.548821 
L 172.321572 445.867451 
L 172.809042 427.386685 
L 173.296511 438.467238 
L 173.78398 443.266602 
L 174.27145 436.440185 
L 174.758919 446.481086 
L 175.246388 451.652157 
L 175.733857 464.485191 
L 176.221327 451.909629 
L 176.708796 451.089582 
L 177.196265 449.678719 
L 178.171204 457.38869 
L 178.658673 459.021226 
L 179.146143 472.428828 
L 179.633612 479.463365 
L 180.121081 483.214628 
L 180.60855 483.04054 
L 181.09602 482.422115 
L 181.583489 472.927803 
L 182.070958 446.143861 
L 182.558428 440.031955 
L 183.045897 424.550988 
L 183.533366 431.124462 
L 184.020835 450.039848 
L 184.508305 452.01446 
L 184.995774 461.182956 
L 185.483243 445.345797 
L 185.970713 438.890052 
L 186.458182 434.760973 
L 186.945651 424.547677 
L 187.43312 425.965969 
L 187.92059 434.859538 
L 188.408059 436.759528 
L 188.895528 431.108406 
L 189.382998 434.642264 
L 189.870467 443.992301 
L 190.357936 448.95707 
L 191.332875 472.672138 
L 191.820344 474.925429 
L 192.307813 489.012715 
L 192.795283 476.779229 
L 193.282752 485.971156 
L 193.770221 484.347852 
L 194.25769 476.857164 
L 194.74516 480.856288 
L 195.232629 490.176553 
L 195.720098 488.837831 
L 196.207568 467.054388 
L 196.695037 474.815094 
L 197.182506 458.433092 
L 197.669975 453.375545 
L 198.157445 453.647228 
L 198.644914 469.259831 
L 199.132383 467.891295 
L 199.619853 455.68069 
L 200.107322 460.586154 
L 200.594791 459.72564 
L 201.08226 471.396233 
L 201.56973 488.707712 
L 202.057199 474.263535 
L 202.544668 479.069815 
L 203.032138 463.336478 
L 203.519607 468.390151 
L 204.007076 467.23905 
L 204.494545 448.055328 
L 204.982015 455.752238 
L 205.469484 446.265817 
L 205.956953 457.245923 
L 206.444423 456.761791 
L 206.931892 469.455023 
L 207.419361 478.04356 
L 207.90683 483.563489 
L 208.3943 473.166153 
L 209.369238 478.289425 
L 209.856708 477.639593 
L 210.344177 467.376303 
L 210.831646 463.297876 
L 211.806585 492.48 
L 212.294054 476.148614 
L 212.781523 468.204084 
L 213.268993 451.031504 
L 213.756462 437.889345 
L 214.243931 442.442951 
L 214.7314 451.24823 
L 215.21887 449.203571 
L 215.706339 442.96589 
L 216.193808 454.86494 
L 216.681278 473.411125 
L 217.168747 471.515052 
L 217.656216 467.616242 
L 218.143686 464.743337 
L 219.118624 442.614202 
L 219.606093 443.834765 
L 220.093563 417.390898 
L 220.581032 400.014149 
L 221.068501 413.60986 
L 221.555971 409.369292 
L 222.04344 424.339333 
L 222.530909 416.002149 
L 223.505848 392.887392 
L 223.993317 390.797956 
L 224.968256 408.773719 
L 225.455725 404.513314 
L 225.943194 429.22513 
L 226.430663 429.900591 
L 226.918133 416.850377 
L 227.405602 417.620389 
L 227.893071 419.183996 
L 228.380541 416.421703 
L 228.86801 415.773364 
L 229.355479 414.722425 
L 229.842948 424.853213 
L 230.330418 424.753626 
L 230.817887 428.704585 
L 231.792826 424.16579 
L 232.280295 436.531763 
L 232.767764 419.256786 
L 233.255233 409.494668 
L 233.742703 393.438842 
L 234.717641 412.841863 
L 235.205111 401.82408 
L 235.69258 406.101359 
L 236.180049 404.112965 
L 236.667518 400.699052 
L 237.154988 391.168866 
L 238.129926 384.399031 
L 239.104865 369.508672 
L 240.079803 350.816824 
L 240.567273 344.237634 
L 241.054742 356.675534 
L 241.542211 374.023133 
L 242.029681 382.579907 
L 242.51715 393.297654 
L 243.004619 387.893783 
L 243.492088 387.773323 
L 243.979558 388.265485 
L 244.467027 386.576935 
L 244.954496 400.344931 
L 245.441966 400.106876 
L 245.929435 398.140411 
L 246.416904 399.77282 
L 246.904373 394.2202 
L 247.391843 391.38777 
L 247.879312 404.973608 
L 248.366781 386.310843 
L 248.854251 375.550015 
L 249.34172 381.255929 
L 249.829189 405.687079 
L 250.316658 400.306521 
L 250.804128 387.465537 
L 251.291597 399.003468 
L 251.779066 406.723446 
L 252.266536 398.045636 
L 252.754005 400.474589 
L 253.241474 388.511878 
L 253.728943 406.608211 
L 254.216413 413.3396 
L 254.703882 409.04204 
L 255.191351 412.810111 
L 255.678821 411.134595 
L 256.16629 388.935421 
L 256.653759 396.834591 
L 257.141229 402.412115 
L 257.628698 403.059627 
L 258.116167 402.834015 
L 259.578575 363.434847 
L 260.066044 375.642398 
L 260.553514 394.464152 
L 261.040983 385.799131 
L 261.528452 414.197987 
L 262.015921 409.148055 
L 262.503391 428.914313 
L 262.99086 420.323853 
L 263.478329 424.284238 
L 263.965799 446.598877 
L 264.453268 441.32654 
L 264.940737 448.565035 
L 265.428206 433.567567 
L 265.915676 436.704185 
L 266.403145 446.06064 
L 266.890614 439.040273 
L 267.378084 434.816407 
L 267.865553 435.46899 
L 268.353022 431.601634 
L 268.840491 441.249145 
L 269.327961 446.336769 
L 270.790369 420.012663 
L 271.277838 417.17403 
L 272.252776 397.850506 
L 272.740246 397.29815 
L 273.227715 392.40261 
L 273.715184 395.552184 
L 274.202654 388.786767 
L 274.690123 390.150724 
L 275.177592 402.710811 
L 275.665061 392.587171 
L 276.152531 389.445638 
L 276.64 385.127361 
L 277.127469 397.358816 
L 277.614939 392.094426 
L 278.102408 381.282991 
L 278.589877 373.478307 
L 279.077346 376.127941 
L 279.564816 389.8986 
L 280.052285 392.192659 
L 281.027224 356.021779 
L 281.514693 333.499764 
L 282.002162 342.210695 
L 282.489631 357.237594 
L 282.977101 358.514659 
L 283.46457 358.333558 
L 283.952039 358.960837 
L 284.439509 360.157957 
L 284.926978 369.663277 
L 285.414447 361.865488 
L 285.901916 356.064585 
L 286.389386 363.599629 
L 286.876855 358.194496 
L 287.364324 360.351602 
L 287.851794 365.885332 
L 288.339263 363.509201 
L 288.826732 364.111277 
L 289.314201 358.080617 
L 289.801671 348.680706 
L 290.28914 352.279772 
L 290.776609 352.715978 
L 291.264079 336.231277 
L 291.751548 330.994764 
L 292.239017 335.44851 
L 292.726486 341.394956 
L 293.213956 331.012448 
L 293.701425 327.251596 
L 294.188894 324.608716 
L 294.676364 323.677774 
L 295.163833 314.531845 
L 295.651302 292.864587 
L 296.138771 284.504614 
L 296.626241 291.615994 
L 297.11371 294.074123 
L 297.601179 286.329576 
L 298.576118 301.28164 
L 299.551057 292.234042 
L 300.038526 283.674008 
L 300.525995 270.612393 
L 301.013464 266.490251 
L 301.500934 277.986342 
L 301.988403 280.900487 
L 302.475872 286.310128 
L 302.963342 258.536888 
L 303.450811 255.624724 
L 303.93828 245.705183 
L 304.425749 242.952769 
L 304.913219 240.973076 
L 305.400688 237.39527 
L 305.888157 246.906982 
L 306.375627 232.098084 
L 306.863096 239.763954 
L 307.350565 258.137192 
L 307.838034 270.361531 
L 308.325504 272.070626 
L 308.812973 268.372484 
L 309.300442 259.237173 
L 309.787912 258.355919 
L 310.275381 243.049027 
L 310.76285 248.978885 
L 311.250319 259.481243 
L 311.737789 250.384446 
L 312.225258 233.058758 
L 312.712727 234.138631 
L 313.200197 223.689872 
L 313.687666 205.904276 
L 314.175135 195.782429 
L 315.150074 184.95748 
L 315.637543 181.961817 
L 316.125012 189.495554 
L 316.612482 181.161823 
L 317.099951 186.867727 
L 317.58742 185.4932 
L 318.074889 191.574882 
L 318.562359 186.032632 
L 319.537297 169.896299 
L 320.024767 167.134175 
L 320.512236 167.46231 
L 320.999705 170.683839 
L 321.487174 162.685372 
L 321.974644 152.160798 
L 322.462113 151.564747 
L 322.949582 153.595324 
L 323.437052 157.817673 
L 323.924521 152.881734 
L 324.41199 152.062591 
L 324.899459 153.803531 
L 325.386929 154.916028 
L 325.874398 157.237654 
L 326.361867 155.767361 
L 326.849337 160.969268 
L 327.336806 170.96407 
L 327.824275 159.236181 
L 328.311744 154.140237 
L 328.799214 170.143006 
L 329.286683 160.765559 
L 329.774152 165.230009 
L 330.261622 177.457406 
L 330.749091 177.982826 
L 331.23656 168.845876 
L 331.724029 168.225927 
L 332.211499 161.070311 
L 332.698968 161.925017 
L 333.186437 160.33203 
L 333.673907 175.739828 
L 334.161376 178.470276 
L 334.648845 176.01549 
L 335.136314 174.540878 
L 336.111253 167.048965 
L 336.598722 158.9103 
L 337.086192 155.062803 
L 337.573661 157.122283 
L 338.06113 163.862678 
L 338.5486 162.37528 
L 339.036069 155.313354 
L 339.523538 154.436758 
L 340.011007 151.218205 
L 340.498477 152.426294 
L 340.985946 136.051143 
L 341.473415 146.999728 
L 341.960885 152.8881 
L 342.448354 154.994501 
L 342.935823 142.422293 
L 343.423292 144.006842 
L 343.910762 146.137527 
L 344.398231 152.012065 
L 344.8857 148.137219 
L 345.37317 140.6576 
L 345.860639 145.981607 
L 346.348108 148.458025 
L 346.835577 144.198169 
L 347.323047 157.946373 
L 347.810516 149.570949 
L 348.297985 151.049318 
L 348.785455 144.744205 
L 349.272924 136.48797 
L 349.760393 133.205184 
L 350.735332 138.845234 
L 351.222801 135.694561 
L 351.71027 134.147001 
L 352.19774 113.993572 
L 352.685209 115.758644 
L 353.172678 105.753215 
L 353.660147 116.552015 
L 354.147617 113.462995 
L 354.635086 120.509163 
L 355.122555 120.339021 
L 355.610025 116.107951 
L 356.097494 122.331683 
L 356.584963 122.303312 
L 357.072432 115.242807 
L 358.047371 89.28 
L 358.53484 90.149719 
L 359.509779 94.303699 
L 360.484717 116.434571 
L 360.972187 110.844143 
L 361.459656 114.618628 
L 361.947125 110.344357 
L 362.434595 110.462312 
L 362.922064 111.097464 
L 363.409533 108.504252 
L 363.897002 103.41951 
L 364.384472 105.038726 
L 364.871941 102.089157 
L 365.35941 108.196894 
L 365.84688 109.253099 
L 366.334349 101.948289 
L 366.821818 99.902469 
L 367.309287 99.788279 
L 367.796757 100.917848 
L 368.284226 95.997804 
L 368.771695 97.103765 
L 369.746634 116.127038 
L 370.234103 101.339093 
L 370.721572 112.20115 
L 371.209042 120.23379 
L 371.696511 120.241284 
L 372.18398 120.714226 
L 372.67145 132.057162 
L 373.158919 135.090666 
L 373.646388 134.832025 
L 374.133857 144.037749 
L 374.621327 136.339134 
L 375.108796 135.92578 
L 375.596265 139.564728 
L 376.083735 138.973543 
L 376.571204 136.027583 
L 377.058673 146.856468 
L 377.546143 165.833113 
L 378.033612 161.622809 
L 378.521081 143.733904 
L 379.00855 144.634241 
L 379.49602 149.797342 
L 379.983489 161.572856 
L 380.470958 158.179958 
L 380.958428 161.91161 
L 381.445897 160.077699 
L 381.933366 154.977585 
L 382.420835 157.044185 
L 382.908305 157.478914 
L 383.395774 160.29109 
L 383.883243 160.745572 
L 384.370713 158.553156 
L 384.858182 164.351517 
L 385.345651 163.318076 
L 385.83312 169.327353 
L 386.32059 164.649828 
L 386.808059 152.497732 
L 387.295528 151.241158 
L 387.782998 153.234066 
L 388.270467 160.174729 
L 388.757936 160.122526 
L 389.245405 152.518246 
L 389.732875 159.636986 
L 390.220344 161.386037 
L 390.707813 158.740431 
L 391.195283 157.35035 
L 392.170221 164.214153 
L 393.14516 168.932212 
L 394.120098 149.325479 
L 394.607568 148.661806 
L 395.095037 139.386371 
L 395.582506 138.032098 
L 396.069975 144.434581 
L 396.557445 128.379744 
L 397.044914 138.359222 
L 397.532383 142.588063 
L 398.019853 144.46088 
L 398.507322 124.350187 
L 398.994791 125.514274 
L 399.48226 132.006051 
L 399.96973 134.904635 
L 400.457199 131.844144 
L 400.944668 138.707558 
L 401.432138 139.802168 
L 401.919607 142.790191 
L 402.407076 141.735707 
L 402.894545 144.825874 
L 403.382015 160.160751 
L 403.869484 154.03276 
L 404.356953 158.319593 
L 404.844423 157.687826 
L 405.331892 152.531269 
L 405.819361 156.977748 
L 406.7943 143.050477 
L 407.281769 136.206744 
L 407.769238 144.229837 
L 408.256708 148.102405 
L 408.744177 137.343747 
L 409.231646 139.08554 
L 409.719115 141.866119 
L 410.206585 141.258526 
L 411.181523 159.882527 
L 411.668993 145.94423 
L 412.156462 152.518966 
L 412.643931 154.044508 
L 413.1314 145.173439 
L 413.61887 129.721731 
L 414.106339 126.537397 
L 414.593808 139.287563 
L 415.081278 134.152516 
L 415.568747 137.579823 
L 416.056216 135.883321 
L 416.543686 146.305251 
L 417.031155 136.646791 
L 417.518624 140.180025 
L 418.006093 147.288932 
L 418.493563 144.646425 
L 418.981032 152.824132 
L 419.955971 142.04093 
L 420.44344 142.197298 
L 420.930909 132.017322 
L 421.418378 133.322735 
L 421.905848 144.60222 
L 422.393317 146.49257 
L 422.880786 153.816331 
L 423.368256 155.380416 
L 424.343194 161.86606 
L 424.830663 148.01724 
L 425.318133 149.432787 
L 426.293071 154.101556 
L 426.780541 159.484149 
L 427.26801 166.404645 
L 427.755479 158.446727 
L 428.730418 148.198336 
L 429.217887 146.671851 
L 429.705356 149.378241 
L 430.192826 142.009312 
L 430.680295 150.551794 
L 431.167764 155.349275 
L 431.655233 150.862982 
L 432.142703 157.741952 
L 432.630172 158.039175 
L 433.117641 145.845989 
L 433.605111 139.284113 
L 434.09258 139.462165 
L 434.580049 140.551422 
L 435.067518 134.689481 
L 435.554988 159.877494 
L 436.042457 159.296414 
L 436.529926 157.830588 
L 437.017396 152.905784 
L 437.992334 137.324947 
L 438.479803 137.174693 
L 438.967273 136.373211 
L 439.454742 143.67253 
L 439.942211 139.853528 
L 440.429681 141.596424 
L 440.91715 145.008359 
L 441.404619 151.12503 
L 441.892088 150.238901 
L 442.379558 149.114349 
L 443.354496 162.664096 
L 443.841966 172.684897 
L 444.329435 169.293446 
L 444.816904 170.796954 
L 445.304373 174.586716 
L 445.791843 180.259273 
L 446.279312 177.056919 
L 446.766781 167.317311 
L 447.254251 168.98825 
L 447.74172 168.924143 
L 448.229189 168.612764 
L 448.716658 165.35704 
L 449.204128 163.671434 
L 449.691597 156.558474 
L 450.179066 159.739056 
L 451.154005 172.053638 
L 451.641474 167.477058 
L 452.128943 164.700945 
L 452.616413 171.945834 
L 454.078821 149.059741 
L 455.053759 133.978099 
L 455.541229 130.460872 
L 456.028698 129.601275 
L 456.516167 130.001063 
L 457.003636 137.076357 
L 457.491106 147.399307 
L 457.978575 140.223364 
L 458.466044 142.918126 
L 458.953514 139.707088 
L 459.928452 144.7936 
L 460.415921 142.51669 
L 460.903391 142.002125 
L 461.39086 148.990453 
L 461.878329 150.930973 
L 462.365799 157.028429 
L 462.853268 150.644406 
L 463.340737 150.087912 
L 463.828206 153.802235 
L 464.315676 156.399501 
L 464.803145 164.029305 
L 465.290614 162.702263 
L 465.778084 156.367032 
L 466.265553 156.286686 
L 466.753022 171.463098 
L 467.240491 161.229668 
L 467.727961 156.081106 
L 468.21543 158.276375 
L 468.702899 164.493699 
L 469.190369 158.476261 
L 469.677838 160.448822 
L 470.165307 158.550637 
L 472.602654 184.160541 
L 473.090123 183.326034 
L 473.577592 180.110432 
L 474.065061 161.720946 
L 474.552531 173.886454 
L 475.04 175.596406 
L 475.527469 169.048671 
L 476.014939 168.463827 
L 476.502408 164.238685 
L 476.989877 169.62203 
L 477.477346 166.785649 
L 477.964816 165.484563 
L 478.452285 168.651817 
L 478.939754 169.589174 
L 479.427224 178.120795 
L 479.914693 160.722324 
L 480.402162 169.396263 
L 481.377101 158.754304 
L 481.86457 163.906355 
L 482.352039 177.425282 
L 482.839509 185.098897 
L 483.326978 172.622089 
L 483.814447 172.259231 
L 484.301916 183.87205 
L 484.789386 180.117282 
L 485.276855 179.761514 
L 485.764324 182.566655 
L 486.251794 193.418485 
L 486.739263 192.711443 
L 487.226732 195.035105 
L 487.714201 206.239662 
L 488.201671 200.788708 
L 488.68914 200.426466 
L 489.176609 208.785034 
L 489.664079 214.537871 
L 490.151548 202.921094 
L 490.639017 210.697172 
L 491.126486 209.379222 
L 491.613956 215.388946 
L 492.101425 212.82793 
L 492.588894 215.930213 
L 493.076364 205.82965 
L 493.563833 205.315566 
L 494.051302 209.36481 
L 494.538771 195.193184 
L 495.026241 175.387502 
L 495.51371 168.839298 
L 496.976118 174.714296 
L 497.463587 161.79886 
L 497.951057 174.149304 
L 498.438526 172.352825 
L 498.925995 167.447452 
L 499.413464 167.252244 
L 499.900934 173.311688 
L 500.388403 171.63485 
L 500.875872 157.937594 
L 501.363342 157.788261 
L 501.850811 153.679083 
L 502.33828 163.310871 
L 502.825749 157.228554 
L 503.800688 163.386769 
L 504.288157 160.262916 
L 504.775627 158.311315 
L 505.263096 164.64583 
L 505.750565 160.89523 
L 506.725504 143.664303 
L 507.212973 126.708996 
L 507.700442 128.703536 
L 508.187912 131.284129 
L 508.675381 131.793261 
L 509.16285 137.248896 
L 510.137789 141.602754 
L 510.625258 143.015256 
L 511.112727 149.091605 
L 511.600197 157.204031 
L 512.087666 152.147325 
L 512.575135 145.458151 
L 513.062604 162.921018 
L 513.550074 150.969317 
L 514.037543 146.984869 
L 514.525012 147.451447 
L 515.012482 150.038696 
L 515.499951 148.818758 
L 515.98742 148.176497 
L 516.962359 170.374401 
L 517.449828 168.52123 
L 517.937297 173.691275 
L 518.424767 176.080514 
L 518.912236 174.649066 
L 519.399705 171.242603 
L 519.887174 173.031196 
L 520.374644 169.457214 
L 520.862113 173.267089 
L 521.349582 166.808513 
L 521.837052 179.582387 
L 522.324521 184.211944 
L 522.81199 182.549189 
L 523.299459 183.662981 
L 523.786929 188.597067 
L 524.761867 180.480758 
L 525.249337 184.064831 
L 525.736806 183.946329 
L 526.224275 187.165664 
L 526.711744 185.751693 
L 527.199214 178.474825 
L 527.686683 189.803412 
L 528.174152 185.84758 
L 528.661622 178.451664 
L 529.149091 189.11148 
L 529.63656 187.281895 
L 530.124029 191.876491 
L 530.611499 180.729814 
L 531.098968 181.653857 
L 531.586437 177.818353 
L 532.073907 171.048407 
L 532.561376 173.464957 
L 533.536314 155.111051 
L 534.023784 151.495753 
L 534.511253 151.111496 
L 534.998722 160.50576 
L 535.486192 161.415984 
L 535.973661 156.584257 
L 536.46113 147.857313 
L 536.9486 145.136582 
L 537.436069 150.291785 
L 537.923538 146.354287 
L 538.411007 140.06486 
L 538.898477 131.649597 
L 539.385946 121.214726 
L 539.873415 127.687888 
L 540.360885 121.066154 
L 541.335823 113.474717 
L 541.823292 126.215416 
L 542.310762 128.572374 
L 542.798231 134.066694 
L 543.2857 135.552684 
L 543.77317 135.882727 
L 544.260639 136.678955 
L 544.748108 143.705179 
L 545.235577 147.955058 
L 545.723047 157.299016 
L 546.697985 141.445912 
L 547.185455 144.069877 
L 547.672924 149.109291 
L 548.160393 150.353124 
L 548.647862 152.97397 
L 549.135332 149.570467 
L 549.622801 135.113451 
L 550.11027 143.051783 
L 550.59774 134.72261 
L 551.085209 134.753726 
L 551.572678 128.995296 
L 552.060147 133.998066 
L 552.547617 143.079828 
L 553.035086 129.467694 
L 553.522555 122.097405 
L 554.010025 119.820616 
L 554.497494 121.652489 
L 554.984963 131.609622 
L 555.472432 133.855341 
L 555.959902 129.894019 
L 556.447371 134.483178 
L 556.93484 137.322783 
L 557.42231 141.168276 
L 557.909779 140.112063 
L 558.397248 145.48668 
L 559.372187 138.823268 
L 560.347125 146.763514 
L 560.834595 142.229235 
L 561.322064 151.95784 
L 561.809533 154.911153 
L 562.297002 157.116436 
L 562.784472 150.869296 
L 564.24688 146.682179 
L 564.734349 150.158112 
L 565.221818 149.843152 
L 565.709287 152.965867 
L 566.196757 148.700231 
L 566.684226 137.667999 
L 567.171695 138.370815 
L 567.659165 137.727063 
L 568.146634 143.283548 
L 568.634103 129.966161 
L 569.609042 152.844521 
L 570.096511 141.522734 
L 570.58398 142.444839 
L 571.558919 154.901231 
L 572.533857 170.021658 
L 573.021327 163.014835 
L 573.508796 161.778494 
L 573.996265 157.717336 
L 574.483735 163.650803 
L 574.971204 160.333602 
L 575.946143 177.281297 
L 576.433612 165.927499 
L 576.921081 168.331113 
L 577.40855 163.331507 
L 577.89602 166.44677 
L 578.383489 157.359574 
L 578.870958 164.099254 
L 579.358428 160.36838 
L 579.845897 152.094827 
L 580.333366 158.360238 
L 580.820835 160.681239 
L 581.308305 172.558207 
L 581.795774 175.290195 
L 582.283243 163.510158 
L 582.770713 165.619541 
L 583.258182 163.615128 
L 583.745651 160.224357 
L 584.23312 160.557735 
L 584.72059 157.637359 
L 585.208059 148.52464 
L 585.695528 144.087986 
L 586.182998 145.829129 
L 586.670467 146.751195 
L 587.157936 140.504261 
L 587.645405 140.858015 
L 588.132875 136.287317 
L 588.620344 134.964801 
L 589.595283 133.169498 
L 590.570221 139.70839 
L 591.05769 138.40335 
L 591.54516 129.621713 
L 592.032629 134.347746 
L 592.520098 126.819941 
L 593.007568 132.100963 
L 593.495037 146.024322 
L 593.982506 143.318357 
L 594.469975 151.953204 
L 594.957445 156.003712 
L 595.444914 165.632591 
L 595.932383 172.93676 
L 596.419853 158.891558 
L 596.907322 160.390895 
L 597.394791 148.71914 
L 597.88226 144.785414 
L 598.36973 142.696556 
L 598.857199 143.758909 
L 599.344668 127.936158 
L 599.832138 129.480866 
L 600.319607 124.369767 
L 600.807076 132.816788 
L 601.294545 133.833246 
L 601.782015 127.24817 
L 602.269484 135.773077 
L 602.756953 128.131725 
L 603.244423 128.097998 
L 603.731892 127.527168 
L 604.219361 130.719323 
L 604.70683 140.936864 
L 605.1943 139.785308 
L 605.681769 140.339046 
L 606.169238 141.686977 
L 606.656708 147.104982 
L 607.144177 146.560729 
L 607.631646 163.666236 
L 608.119115 146.629543 
L 608.606585 144.277779 
L 609.094054 153.165449 
L 609.581523 156.369283 
L 610.068993 151.016969 
L 610.556462 139.463669 
L 611.043931 150.190992 
L 611.5314 150.331453 
L 612.01887 155.112706 
L 612.506339 165.775236 
L 612.993808 165.342517 
L 613.481278 169.19219 
L 613.968747 175.94706 
L 614.456216 175.538316 
L 614.943686 171.715533 
L 615.431155 168.920041 
L 615.918624 168.220037 
L 616.893563 178.271109 
L 617.381032 177.148087 
L 617.868501 170.949048 
L 618.355971 168.595376 
L 618.84344 161.111204 
L 619.330909 156.769808 
L 619.330909 156.769808 
" style="fill:none;stroke:#ff7f0e;stroke-linecap:square;stroke-width:2;"/>
   </g>
   <g id="patch_3">
    <path d="M 108 512.64 
L 108 69.12 
" style="fill:none;stroke:#000000;stroke-linecap:square;stroke-linejoin:miter;stroke-width:0.8;"/>
   </g>
   <g id="patch_4">
    <path d="M 643.68 512.64 
L 643.68 69.12 
" style="fill:none;stroke:#000000;stroke-linecap:square;stroke-linejoin:miter;stroke-width:0.8;"/>
   </g>
   <g id="patch_5">
    <path d="M 108 512.64 
L 643.68 512.64 
" style="fill:none;stroke:#000000;stroke-linecap:square;stroke-linejoin:miter;stroke-width:0.8;"/>
   </g>
   <g id="patch_6">
    <path d="M 108 69.12 
L 643.68 69.12 
" style="fill:none;stroke:#000000;stroke-linecap:square;stroke-linejoin:miter;stroke-width:0.8;"/>
   </g>
   <g id="text_14">
    <!-- Softmax Agent for Ten-Armed Gaussian Bandit -->
    <g transform="translate(180.698813 63.12)scale(0.168 -0.168)">
     <defs>
      <path d="M 3425 4513 
L 3425 3897 
Q 3066 4069 2747 4153 
Q 2428 4238 2131 4238 
Q 1616 4238 1336 4038 
Q 1056 3838 1056 3469 
Q 1056 3159 1242 3001 
Q 1428 2844 1947 2747 
L 2328 2669 
Q 3034 2534 3370 2195 
Q 3706 1856 3706 1288 
Q 3706 609 3251 259 
Q 2797 -91 1919 -91 
Q 1588 -91 1214 -16 
Q 841 59 441 206 
L 441 856 
Q 825 641 1194 531 
Q 1563 422 1919 422 
Q 2459 422 2753 634 
Q 3047 847 3047 1241 
Q 3047 1584 2836 1778 
Q 2625 1972 2144 2069 
L 1759 2144 
Q 1053 2284 737 2584 
Q 422 2884 422 3419 
Q 422 4038 858 4394 
Q 1294 4750 2059 4750 
Q 2388 4750 2728 4690 
Q 3069 4631 3425 4513 
z
" id="DejaVuSans-53" transform="scale(0.015625)"/>
      <path d="M 2375 4863 
L 2375 4384 
L 1825 4384 
Q 1516 4384 1395 4259 
Q 1275 4134 1275 3809 
L 1275 3500 
L 2222 3500 
L 2222 3053 
L 1275 3053 
L 1275 0 
L 697 0 
L 697 3053 
L 147 3053 
L 147 3500 
L 697 3500 
L 697 3744 
Q 697 4328 969 4595 
Q 1241 4863 1831 4863 
L 2375 4863 
z
" id="DejaVuSans-66" transform="scale(0.015625)"/>
      <path d="M 1172 4494 
L 1172 3500 
L 2356 3500 
L 2356 3053 
L 1172 3053 
L 1172 1153 
Q 1172 725 1289 603 
Q 1406 481 1766 481 
L 2356 481 
L 2356 0 
L 1766 0 
Q 1100 0 847 248 
Q 594 497 594 1153 
L 594 3053 
L 172 3053 
L 172 3500 
L 594 3500 
L 594 4494 
L 1172 4494 
z
" id="DejaVuSans-74" transform="scale(0.015625)"/>
      <path d="M 3328 2828 
Q 3544 3216 3844 3400 
Q 4144 3584 4550 3584 
Q 5097 3584 5394 3201 
Q 5691 2819 5691 2113 
L 5691 0 
L 5113 0 
L 5113 2094 
Q 5113 2597 4934 2840 
Q 4756 3084 4391 3084 
Q 3944 3084 3684 2787 
Q 3425 2491 3425 1978 
L 3425 0 
L 2847 0 
L 2847 2094 
Q 2847 2600 2669 2842 
Q 2491 3084 2119 3084 
Q 1678 3084 1418 2786 
Q 1159 2488 1159 1978 
L 1159 0 
L 581 0 
L 581 3500 
L 1159 3500 
L 1159 2956 
Q 1356 3278 1631 3431 
Q 1906 3584 2284 3584 
Q 2666 3584 2933 3390 
Q 3200 3197 3328 2828 
z
" id="DejaVuSans-6d" transform="scale(0.015625)"/>
      <path d="M 3513 3500 
L 2247 1797 
L 3578 0 
L 2900 0 
L 1881 1375 
L 863 0 
L 184 0 
L 1544 1831 
L 300 3500 
L 978 3500 
L 1906 2253 
L 2834 3500 
L 3513 3500 
z
" id="DejaVuSans-78" transform="scale(0.015625)"/>
      <path id="DejaVuSans-20" transform="scale(0.015625)"/>
      <path d="M 2188 4044 
L 1331 1722 
L 3047 1722 
L 2188 4044 
z
M 1831 4666 
L 2547 4666 
L 4325 0 
L 3669 0 
L 3244 1197 
L 1141 1197 
L 716 0 
L 50 0 
L 1831 4666 
z
" id="DejaVuSans-41" transform="scale(0.015625)"/>
      <path d="M 2906 1791 
Q 2906 2416 2648 2759 
Q 2391 3103 1925 3103 
Q 1463 3103 1205 2759 
Q 947 2416 947 1791 
Q 947 1169 1205 825 
Q 1463 481 1925 481 
Q 2391 481 2648 825 
Q 2906 1169 2906 1791 
z
M 3481 434 
Q 3481 -459 3084 -895 
Q 2688 -1331 1869 -1331 
Q 1566 -1331 1297 -1286 
Q 1028 -1241 775 -1147 
L 775 -588 
Q 1028 -725 1275 -790 
Q 1522 -856 1778 -856 
Q 2344 -856 2625 -561 
Q 2906 -266 2906 331 
L 2906 616 
Q 2728 306 2450 153 
Q 2172 0 1784 0 
Q 1141 0 747 490 
Q 353 981 353 1791 
Q 353 2603 747 3093 
Q 1141 3584 1784 3584 
Q 2172 3584 2450 3431 
Q 2728 3278 2906 2969 
L 2906 3500 
L 3481 3500 
L 3481 434 
z
" id="DejaVuSans-67" transform="scale(0.015625)"/>
      <path d="M 3513 2113 
L 3513 0 
L 2938 0 
L 2938 2094 
Q 2938 2591 2744 2837 
Q 2550 3084 2163 3084 
Q 1697 3084 1428 2787 
Q 1159 2491 1159 1978 
L 1159 0 
L 581 0 
L 581 3500 
L 1159 3500 
L 1159 2956 
Q 1366 3272 1645 3428 
Q 1925 3584 2291 3584 
Q 2894 3584 3203 3211 
Q 3513 2838 3513 2113 
z
" id="DejaVuSans-6e" transform="scale(0.015625)"/>
      <path d="M -19 4666 
L 3928 4666 
L 3928 4134 
L 2272 4134 
L 2272 0 
L 1638 0 
L 1638 4134 
L -19 4134 
L -19 4666 
z
" id="DejaVuSans-54" transform="scale(0.015625)"/>
      <path d="M 313 2009 
L 1997 2009 
L 1997 1497 
L 313 1497 
L 313 2009 
z
" id="DejaVuSans-2d" transform="scale(0.015625)"/>
      <path d="M 3809 666 
L 3809 1919 
L 2778 1919 
L 2778 2438 
L 4434 2438 
L 4434 434 
Q 4069 175 3628 42 
Q 3188 -91 2688 -91 
Q 1594 -91 976 548 
Q 359 1188 359 2328 
Q 359 3472 976 4111 
Q 1594 4750 2688 4750 
Q 3144 4750 3555 4637 
Q 3966 4525 4313 4306 
L 4313 3634 
Q 3963 3931 3569 4081 
Q 3175 4231 2741 4231 
Q 1884 4231 1454 3753 
Q 1025 3275 1025 2328 
Q 1025 1384 1454 906 
Q 1884 428 2741 428 
Q 3075 428 3337 486 
Q 3600 544 3809 666 
z
" id="DejaVuSans-47" transform="scale(0.015625)"/>
      <path d="M 544 1381 
L 544 3500 
L 1119 3500 
L 1119 1403 
Q 1119 906 1312 657 
Q 1506 409 1894 409 
Q 2359 409 2629 706 
Q 2900 1003 2900 1516 
L 2900 3500 
L 3475 3500 
L 3475 0 
L 2900 0 
L 2900 538 
Q 2691 219 2414 64 
Q 2138 -91 1772 -91 
Q 1169 -91 856 284 
Q 544 659 544 1381 
z
M 1991 3584 
L 1991 3584 
z
" id="DejaVuSans-75" transform="scale(0.015625)"/>
      <path d="M 1259 2228 
L 1259 519 
L 2272 519 
Q 2781 519 3026 730 
Q 3272 941 3272 1375 
Q 3272 1813 3026 2020 
Q 2781 2228 2272 2228 
L 1259 2228 
z
M 1259 4147 
L 1259 2741 
L 2194 2741 
Q 2656 2741 2882 2914 
Q 3109 3088 3109 3444 
Q 3109 3797 2882 3972 
Q 2656 4147 2194 4147 
L 1259 4147 
z
M 628 4666 
L 2241 4666 
Q 2963 4666 3353 4366 
Q 3744 4066 3744 3513 
Q 3744 3084 3544 2831 
Q 3344 2578 2956 2516 
Q 3422 2416 3680 2098 
Q 3938 1781 3938 1306 
Q 3938 681 3513 340 
Q 3088 0 2303 0 
L 628 0 
L 628 4666 
z
" id="DejaVuSans-42" transform="scale(0.015625)"/>
     </defs>
     <use xlink:href="#DejaVuSans-53"/>
     <use x="63.476562" xlink:href="#DejaVuSans-6f"/>
     <use x="124.658203" xlink:href="#DejaVuSans-66"/>
     <use x="158.113281" xlink:href="#DejaVuSans-74"/>
     <use x="197.322266" xlink:href="#DejaVuSans-6d"/>
     <use x="294.734375" xlink:href="#DejaVuSans-61"/>
     <use x="356.013672" xlink:href="#DejaVuSans-78"/>
     <use x="415.193359" xlink:href="#DejaVuSans-20"/>
     <use x="446.980469" xlink:href="#DejaVuSans-41"/>
     <use x="515.388672" xlink:href="#DejaVuSans-67"/>
     <use x="578.865234" xlink:href="#DejaVuSans-65"/>
     <use x="640.388672" xlink:href="#DejaVuSans-6e"/>
     <use x="703.767578" xlink:href="#DejaVuSans-74"/>
     <use x="742.976562" xlink:href="#DejaVuSans-20"/>
     <use x="774.763672" xlink:href="#DejaVuSans-66"/>
     <use x="809.96875" xlink:href="#DejaVuSans-6f"/>
     <use x="871.150391" xlink:href="#DejaVuSans-72"/>
     <use x="912.263672" xlink:href="#DejaVuSans-20"/>
     <use x="944.050781" xlink:href="#DejaVuSans-54"/>
     <use x="988.134766" xlink:href="#DejaVuSans-65"/>
     <use x="1049.658203" xlink:href="#DejaVuSans-6e"/>
     <use x="1113.037109" xlink:href="#DejaVuSans-2d"/>
     <use x="1146.871094" xlink:href="#DejaVuSans-41"/>
     <use x="1215.279297" xlink:href="#DejaVuSans-72"/>
     <use x="1254.642578" xlink:href="#DejaVuSans-6d"/>
     <use x="1352.054688" xlink:href="#DejaVuSans-65"/>
     <use x="1413.578125" xlink:href="#DejaVuSans-64"/>
     <use x="1477.054688" xlink:href="#DejaVuSans-20"/>
     <use x="1508.841797" xlink:href="#DejaVuSans-47"/>
     <use x="1586.332031" xlink:href="#DejaVuSans-61"/>
     <use x="1647.611328" xlink:href="#DejaVuSans-75"/>
     <use x="1710.990234" xlink:href="#DejaVuSans-73"/>
     <use x="1763.089844" xlink:href="#DejaVuSans-73"/>
     <use x="1815.189453" xlink:href="#DejaVuSans-69"/>
     <use x="1842.972656" xlink:href="#DejaVuSans-61"/>
     <use x="1904.251953" xlink:href="#DejaVuSans-6e"/>
     <use x="1967.630859" xlink:href="#DejaVuSans-20"/>
     <use x="1999.417969" xlink:href="#DejaVuSans-42"/>
     <use x="2068.021484" xlink:href="#DejaVuSans-61"/>
     <use x="2129.300781" xlink:href="#DejaVuSans-6e"/>
     <use x="2192.679688" xlink:href="#DejaVuSans-64"/>
     <use x="2256.15625" xlink:href="#DejaVuSans-69"/>
     <use x="2283.939453" xlink:href="#DejaVuSans-74"/>
    </g>
   </g>
   <g id="legend_1">
    <g id="patch_7">
     <path d="M 653.48 313.529375 
L 824.137813 313.529375 
Q 826.937813 313.529375 826.937813 310.729375 
L 826.937813 271.030625 
Q 826.937813 268.230625 824.137813 268.230625 
L 653.48 268.230625 
Q 650.68 268.230625 650.68 271.030625 
L 650.68 310.729375 
Q 650.68 313.529375 653.48 313.529375 
z
" style="fill:#ffffff;opacity:0.8;stroke:#cccccc;stroke-linejoin:miter;"/>
    </g>
    <g id="line2d_14">
     <path d="M 656.28 279.568438 
L 684.28 279.568438 
" style="fill:none;stroke:#1f77b4;stroke-linecap:square;stroke-width:2;"/>
    </g>
    <g id="line2d_15"/>
    <g id="text_15">
     <!-- Decay type = lin -->
     <g transform="translate(695.48 284.468437)scale(0.14 -0.14)">
      <defs>
       <path d="M 1259 4147 
L 1259 519 
L 2022 519 
Q 2988 519 3436 956 
Q 3884 1394 3884 2338 
Q 3884 3275 3436 3711 
Q 2988 4147 2022 4147 
L 1259 4147 
z
M 628 4666 
L 1925 4666 
Q 3281 4666 3915 4102 
Q 4550 3538 4550 2338 
Q 4550 1131 3912 565 
Q 3275 0 1925 0 
L 628 0 
L 628 4666 
z
" id="DejaVuSans-44" transform="scale(0.015625)"/>
       <path d="M 3122 3366 
L 3122 2828 
Q 2878 2963 2633 3030 
Q 2388 3097 2138 3097 
Q 1578 3097 1268 2742 
Q 959 2388 959 1747 
Q 959 1106 1268 751 
Q 1578 397 2138 397 
Q 2388 397 2633 464 
Q 2878 531 3122 666 
L 3122 134 
Q 2881 22 2623 -34 
Q 2366 -91 2075 -91 
Q 1284 -91 818 406 
Q 353 903 353 1747 
Q 353 2603 823 3093 
Q 1294 3584 2113 3584 
Q 2378 3584 2631 3529 
Q 2884 3475 3122 3366 
z
" id="DejaVuSans-63" transform="scale(0.015625)"/>
       <path d="M 2059 -325 
Q 1816 -950 1584 -1140 
Q 1353 -1331 966 -1331 
L 506 -1331 
L 506 -850 
L 844 -850 
Q 1081 -850 1212 -737 
Q 1344 -625 1503 -206 
L 1606 56 
L 191 3500 
L 800 3500 
L 1894 763 
L 2988 3500 
L 3597 3500 
L 2059 -325 
z
" id="DejaVuSans-79" transform="scale(0.015625)"/>
       <path d="M 678 2906 
L 4684 2906 
L 4684 2381 
L 678 2381 
L 678 2906 
z
M 678 1631 
L 4684 1631 
L 4684 1100 
L 678 1100 
L 678 1631 
z
" id="DejaVuSans-3d" transform="scale(0.015625)"/>
       <path d="M 603 4863 
L 1178 4863 
L 1178 0 
L 603 0 
L 603 4863 
z
" id="DejaVuSans-6c" transform="scale(0.015625)"/>
      </defs>
      <use xlink:href="#DejaVuSans-44"/>
      <use x="77.001953" xlink:href="#DejaVuSans-65"/>
      <use x="138.525391" xlink:href="#DejaVuSans-63"/>
      <use x="193.505859" xlink:href="#DejaVuSans-61"/>
      <use x="254.785156" xlink:href="#DejaVuSans-79"/>
      <use x="313.964844" xlink:href="#DejaVuSans-20"/>
      <use x="345.751953" xlink:href="#DejaVuSans-74"/>
      <use x="384.960938" xlink:href="#DejaVuSans-79"/>
      <use x="444.140625" xlink:href="#DejaVuSans-70"/>
      <use x="507.617188" xlink:href="#DejaVuSans-65"/>
      <use x="569.140625" xlink:href="#DejaVuSans-20"/>
      <use x="600.927734" xlink:href="#DejaVuSans-3d"/>
      <use x="684.716797" xlink:href="#DejaVuSans-20"/>
      <use x="716.503906" xlink:href="#DejaVuSans-6c"/>
      <use x="744.287109" xlink:href="#DejaVuSans-69"/>
      <use x="772.070312" xlink:href="#DejaVuSans-6e"/>
     </g>
    </g>
    <g id="line2d_16">
     <path d="M 656.28 300.117813 
L 684.28 300.117813 
" style="fill:none;stroke:#ff7f0e;stroke-linecap:square;stroke-width:2;"/>
    </g>
    <g id="line2d_17"/>
    <g id="text_16">
     <!-- Decay type = exp -->
     <g transform="translate(695.48 305.017812)scale(0.14 -0.14)">
      <use xlink:href="#DejaVuSans-44"/>
      <use x="77.001953" xlink:href="#DejaVuSans-65"/>
      <use x="138.525391" xlink:href="#DejaVuSans-63"/>
      <use x="193.505859" xlink:href="#DejaVuSans-61"/>
      <use x="254.785156" xlink:href="#DejaVuSans-79"/>
      <use x="313.964844" xlink:href="#DejaVuSans-20"/>
      <use x="345.751953" xlink:href="#DejaVuSans-74"/>
      <use x="384.960938" xlink:href="#DejaVuSans-79"/>
      <use x="444.140625" xlink:href="#DejaVuSans-70"/>
      <use x="507.617188" xlink:href="#DejaVuSans-65"/>
      <use x="569.140625" xlink:href="#DejaVuSans-20"/>
      <use x="600.927734" xlink:href="#DejaVuSans-3d"/>
      <use x="684.716797" xlink:href="#DejaVuSans-20"/>
      <use x="716.503906" xlink:href="#DejaVuSans-65"/>
      <use x="776.277344" xlink:href="#DejaVuSans-78"/>
      <use x="835.457031" xlink:href="#DejaVuSans-70"/>
     </g>
    </g>
   </g>
  </g>
 </g>
 <defs>
  <clipPath id="p6c5bf7e366">
   <rect height="443.52" width="535.68" x="108" y="69.12"/>
  </clipPath>
 </defs>
</svg>
