<?xml version="1.0" encoding="utf-8" standalone="no"?>
<!DOCTYPE svg PUBLIC "-//W3C//DTD SVG 1.1//EN"
  "http://www.w3.org/Graphics/SVG/1.1/DTD/svg11.dtd">
<svg height="576pt" version="1.1" viewBox="0 0 864 576" width="864pt" xmlns="http://www.w3.org/2000/svg" xmlns:xlink="http://www.w3.org/1999/xlink">
 <metadata>
  <rdf:RDF xmlns:cc="http://creativecommons.org/ns#" xmlns:dc="http://purl.org/dc/elements/1.1/" xmlns:rdf="http://www.w3.org/1999/02/22-rdf-syntax-ns#">
   <cc:Work>
    <dc:type rdf:resource="http://purl.org/dc/dcmitype/StillImage"/>
    <dc:date>2021-09-11T13:22:49.859038</dc:date>
    <dc:format>image/svg+xml</dc:format>
    <dc:creator>
     <cc:Agent>
      <dc:title>Matplotlib v3.4.3, https://matplotlib.org/</dc:title>
     </cc:Agent>
    </dc:creator>
   </cc:Work>
  </rdf:RDF>
 </metadata>
 <defs>
  <style type="text/css">*{stroke-linecap:butt;stroke-linejoin:round;}</style>
 </defs>
 <g id="figure_1">
  <g id="patch_1">
   <path d="M 0 576 
L 864 576 
L 864 0 
L 0 0 
z
" style="fill:#ffffff;"/>
  </g>
  <g id="axes_1">
   <g id="patch_2">
    <path d="M 108 512.64 
L 643.68 512.64 
L 643.68 69.12 
L 108 69.12 
z
" style="fill:#ffffff;"/>
   </g>
   <g id="matplotlib.axis_1">
    <g id="xtick_1">
     <g id="line2d_1">
      <defs>
       <path d="M 0 0 
L 0 3.5 
" id="m24d22de44a" style="stroke:#000000;stroke-width:0.8;"/>
      </defs>
      <g>
       <use style="stroke:#000000;stroke-width:0.8;" x="132.349091" xlink:href="#m24d22de44a" y="512.64"/>
      </g>
     </g>
     <g id="text_1">
      <!-- 0 -->
      <g transform="translate(127.895341 530.277812)scale(0.14 -0.14)">
       <defs>
        <path d="M 2034 4250 
Q 1547 4250 1301 3770 
Q 1056 3291 1056 2328 
Q 1056 1369 1301 889 
Q 1547 409 2034 409 
Q 2525 409 2770 889 
Q 3016 1369 3016 2328 
Q 3016 3291 2770 3770 
Q 2525 4250 2034 4250 
z
M 2034 4750 
Q 2819 4750 3233 4129 
Q 3647 3509 3647 2328 
Q 3647 1150 3233 529 
Q 2819 -91 2034 -91 
Q 1250 -91 836 529 
Q 422 1150 422 2328 
Q 422 3509 836 4129 
Q 1250 4750 2034 4750 
z
" id="DejaVuSans-30" transform="scale(0.015625)"/>
       </defs>
       <use xlink:href="#DejaVuSans-30"/>
      </g>
     </g>
    </g>
    <g id="xtick_2">
     <g id="line2d_2">
      <g>
       <use style="stroke:#000000;stroke-width:0.8;" x="229.842948" xlink:href="#m24d22de44a" y="512.64"/>
      </g>
     </g>
     <g id="text_2">
      <!-- 200 -->
      <g transform="translate(216.481698 530.277812)scale(0.14 -0.14)">
       <defs>
        <path d="M 1228 531 
L 3431 531 
L 3431 0 
L 469 0 
L 469 531 
Q 828 903 1448 1529 
Q 2069 2156 2228 2338 
Q 2531 2678 2651 2914 
Q 2772 3150 2772 3378 
Q 2772 3750 2511 3984 
Q 2250 4219 1831 4219 
Q 1534 4219 1204 4116 
Q 875 4013 500 3803 
L 500 4441 
Q 881 4594 1212 4672 
Q 1544 4750 1819 4750 
Q 2544 4750 2975 4387 
Q 3406 4025 3406 3419 
Q 3406 3131 3298 2873 
Q 3191 2616 2906 2266 
Q 2828 2175 2409 1742 
Q 1991 1309 1228 531 
z
" id="DejaVuSans-32" transform="scale(0.015625)"/>
       </defs>
       <use xlink:href="#DejaVuSans-32"/>
       <use x="63.623047" xlink:href="#DejaVuSans-30"/>
       <use x="127.246094" xlink:href="#DejaVuSans-30"/>
      </g>
     </g>
    </g>
    <g id="xtick_3">
     <g id="line2d_3">
      <g>
       <use style="stroke:#000000;stroke-width:0.8;" x="327.336806" xlink:href="#m24d22de44a" y="512.64"/>
      </g>
     </g>
     <g id="text_3">
      <!-- 400 -->
      <g transform="translate(313.975556 530.277812)scale(0.14 -0.14)">
       <defs>
        <path d="M 2419 4116 
L 825 1625 
L 2419 1625 
L 2419 4116 
z
M 2253 4666 
L 3047 4666 
L 3047 1625 
L 3713 1625 
L 3713 1100 
L 3047 1100 
L 3047 0 
L 2419 0 
L 2419 1100 
L 313 1100 
L 313 1709 
L 2253 4666 
z
" id="DejaVuSans-34" transform="scale(0.015625)"/>
       </defs>
       <use xlink:href="#DejaVuSans-34"/>
       <use x="63.623047" xlink:href="#DejaVuSans-30"/>
       <use x="127.246094" xlink:href="#DejaVuSans-30"/>
      </g>
     </g>
    </g>
    <g id="xtick_4">
     <g id="line2d_4">
      <g>
       <use style="stroke:#000000;stroke-width:0.8;" x="424.830663" xlink:href="#m24d22de44a" y="512.64"/>
      </g>
     </g>
     <g id="text_4">
      <!-- 600 -->
      <g transform="translate(411.469413 530.277812)scale(0.14 -0.14)">
       <defs>
        <path d="M 2113 2584 
Q 1688 2584 1439 2293 
Q 1191 2003 1191 1497 
Q 1191 994 1439 701 
Q 1688 409 2113 409 
Q 2538 409 2786 701 
Q 3034 994 3034 1497 
Q 3034 2003 2786 2293 
Q 2538 2584 2113 2584 
z
M 3366 4563 
L 3366 3988 
Q 3128 4100 2886 4159 
Q 2644 4219 2406 4219 
Q 1781 4219 1451 3797 
Q 1122 3375 1075 2522 
Q 1259 2794 1537 2939 
Q 1816 3084 2150 3084 
Q 2853 3084 3261 2657 
Q 3669 2231 3669 1497 
Q 3669 778 3244 343 
Q 2819 -91 2113 -91 
Q 1303 -91 875 529 
Q 447 1150 447 2328 
Q 447 3434 972 4092 
Q 1497 4750 2381 4750 
Q 2619 4750 2861 4703 
Q 3103 4656 3366 4563 
z
" id="DejaVuSans-36" transform="scale(0.015625)"/>
       </defs>
       <use xlink:href="#DejaVuSans-36"/>
       <use x="63.623047" xlink:href="#DejaVuSans-30"/>
       <use x="127.246094" xlink:href="#DejaVuSans-30"/>
      </g>
     </g>
    </g>
    <g id="xtick_5">
     <g id="line2d_5">
      <g>
       <use style="stroke:#000000;stroke-width:0.8;" x="522.324521" xlink:href="#m24d22de44a" y="512.64"/>
      </g>
     </g>
     <g id="text_5">
      <!-- 800 -->
      <g transform="translate(508.963271 530.277812)scale(0.14 -0.14)">
       <defs>
        <path d="M 2034 2216 
Q 1584 2216 1326 1975 
Q 1069 1734 1069 1313 
Q 1069 891 1326 650 
Q 1584 409 2034 409 
Q 2484 409 2743 651 
Q 3003 894 3003 1313 
Q 3003 1734 2745 1975 
Q 2488 2216 2034 2216 
z
M 1403 2484 
Q 997 2584 770 2862 
Q 544 3141 544 3541 
Q 544 4100 942 4425 
Q 1341 4750 2034 4750 
Q 2731 4750 3128 4425 
Q 3525 4100 3525 3541 
Q 3525 3141 3298 2862 
Q 3072 2584 2669 2484 
Q 3125 2378 3379 2068 
Q 3634 1759 3634 1313 
Q 3634 634 3220 271 
Q 2806 -91 2034 -91 
Q 1263 -91 848 271 
Q 434 634 434 1313 
Q 434 1759 690 2068 
Q 947 2378 1403 2484 
z
M 1172 3481 
Q 1172 3119 1398 2916 
Q 1625 2713 2034 2713 
Q 2441 2713 2670 2916 
Q 2900 3119 2900 3481 
Q 2900 3844 2670 4047 
Q 2441 4250 2034 4250 
Q 1625 4250 1398 4047 
Q 1172 3844 1172 3481 
z
" id="DejaVuSans-38" transform="scale(0.015625)"/>
       </defs>
       <use xlink:href="#DejaVuSans-38"/>
       <use x="63.623047" xlink:href="#DejaVuSans-30"/>
       <use x="127.246094" xlink:href="#DejaVuSans-30"/>
      </g>
     </g>
    </g>
    <g id="xtick_6">
     <g id="line2d_6">
      <g>
       <use style="stroke:#000000;stroke-width:0.8;" x="619.818378" xlink:href="#m24d22de44a" y="512.64"/>
      </g>
     </g>
     <g id="text_6">
      <!-- 1000 -->
      <g transform="translate(602.003378 530.277812)scale(0.14 -0.14)">
       <defs>
        <path d="M 794 531 
L 1825 531 
L 1825 4091 
L 703 3866 
L 703 4441 
L 1819 4666 
L 2450 4666 
L 2450 531 
L 3481 531 
L 3481 0 
L 794 0 
L 794 531 
z
" id="DejaVuSans-31" transform="scale(0.015625)"/>
       </defs>
       <use xlink:href="#DejaVuSans-31"/>
       <use x="63.623047" xlink:href="#DejaVuSans-30"/>
       <use x="127.246094" xlink:href="#DejaVuSans-30"/>
       <use x="190.869141" xlink:href="#DejaVuSans-30"/>
      </g>
     </g>
    </g>
    <g id="text_7">
     <!-- Episodes -->
     <g transform="translate(344.700938 547.827188)scale(0.14 -0.14)">
      <defs>
       <path d="M 628 4666 
L 3578 4666 
L 3578 4134 
L 1259 4134 
L 1259 2753 
L 3481 2753 
L 3481 2222 
L 1259 2222 
L 1259 531 
L 3634 531 
L 3634 0 
L 628 0 
L 628 4666 
z
" id="DejaVuSans-45" transform="scale(0.015625)"/>
       <path d="M 1159 525 
L 1159 -1331 
L 581 -1331 
L 581 3500 
L 1159 3500 
L 1159 2969 
Q 1341 3281 1617 3432 
Q 1894 3584 2278 3584 
Q 2916 3584 3314 3078 
Q 3713 2572 3713 1747 
Q 3713 922 3314 415 
Q 2916 -91 2278 -91 
Q 1894 -91 1617 61 
Q 1341 213 1159 525 
z
M 3116 1747 
Q 3116 2381 2855 2742 
Q 2594 3103 2138 3103 
Q 1681 3103 1420 2742 
Q 1159 2381 1159 1747 
Q 1159 1113 1420 752 
Q 1681 391 2138 391 
Q 2594 391 2855 752 
Q 3116 1113 3116 1747 
z
" id="DejaVuSans-70" transform="scale(0.015625)"/>
       <path d="M 603 3500 
L 1178 3500 
L 1178 0 
L 603 0 
L 603 3500 
z
M 603 4863 
L 1178 4863 
L 1178 4134 
L 603 4134 
L 603 4863 
z
" id="DejaVuSans-69" transform="scale(0.015625)"/>
       <path d="M 2834 3397 
L 2834 2853 
Q 2591 2978 2328 3040 
Q 2066 3103 1784 3103 
Q 1356 3103 1142 2972 
Q 928 2841 928 2578 
Q 928 2378 1081 2264 
Q 1234 2150 1697 2047 
L 1894 2003 
Q 2506 1872 2764 1633 
Q 3022 1394 3022 966 
Q 3022 478 2636 193 
Q 2250 -91 1575 -91 
Q 1294 -91 989 -36 
Q 684 19 347 128 
L 347 722 
Q 666 556 975 473 
Q 1284 391 1588 391 
Q 1994 391 2212 530 
Q 2431 669 2431 922 
Q 2431 1156 2273 1281 
Q 2116 1406 1581 1522 
L 1381 1569 
Q 847 1681 609 1914 
Q 372 2147 372 2553 
Q 372 3047 722 3315 
Q 1072 3584 1716 3584 
Q 2034 3584 2315 3537 
Q 2597 3491 2834 3397 
z
" id="DejaVuSans-73" transform="scale(0.015625)"/>
       <path d="M 1959 3097 
Q 1497 3097 1228 2736 
Q 959 2375 959 1747 
Q 959 1119 1226 758 
Q 1494 397 1959 397 
Q 2419 397 2687 759 
Q 2956 1122 2956 1747 
Q 2956 2369 2687 2733 
Q 2419 3097 1959 3097 
z
M 1959 3584 
Q 2709 3584 3137 3096 
Q 3566 2609 3566 1747 
Q 3566 888 3137 398 
Q 2709 -91 1959 -91 
Q 1206 -91 779 398 
Q 353 888 353 1747 
Q 353 2609 779 3096 
Q 1206 3584 1959 3584 
z
" id="DejaVuSans-6f" transform="scale(0.015625)"/>
       <path d="M 2906 2969 
L 2906 4863 
L 3481 4863 
L 3481 0 
L 2906 0 
L 2906 525 
Q 2725 213 2448 61 
Q 2172 -91 1784 -91 
Q 1150 -91 751 415 
Q 353 922 353 1747 
Q 353 2572 751 3078 
Q 1150 3584 1784 3584 
Q 2172 3584 2448 3432 
Q 2725 3281 2906 2969 
z
M 947 1747 
Q 947 1113 1208 752 
Q 1469 391 1925 391 
Q 2381 391 2643 752 
Q 2906 1113 2906 1747 
Q 2906 2381 2643 2742 
Q 2381 3103 1925 3103 
Q 1469 3103 1208 2742 
Q 947 2381 947 1747 
z
" id="DejaVuSans-64" transform="scale(0.015625)"/>
       <path d="M 3597 1894 
L 3597 1613 
L 953 1613 
Q 991 1019 1311 708 
Q 1631 397 2203 397 
Q 2534 397 2845 478 
Q 3156 559 3463 722 
L 3463 178 
Q 3153 47 2828 -22 
Q 2503 -91 2169 -91 
Q 1331 -91 842 396 
Q 353 884 353 1716 
Q 353 2575 817 3079 
Q 1281 3584 2069 3584 
Q 2775 3584 3186 3129 
Q 3597 2675 3597 1894 
z
M 3022 2063 
Q 3016 2534 2758 2815 
Q 2500 3097 2075 3097 
Q 1594 3097 1305 2825 
Q 1016 2553 972 2059 
L 3022 2063 
z
" id="DejaVuSans-65" transform="scale(0.015625)"/>
      </defs>
      <use xlink:href="#DejaVuSans-45"/>
      <use x="63.183594" xlink:href="#DejaVuSans-70"/>
      <use x="126.660156" xlink:href="#DejaVuSans-69"/>
      <use x="154.443359" xlink:href="#DejaVuSans-73"/>
      <use x="206.542969" xlink:href="#DejaVuSans-6f"/>
      <use x="267.724609" xlink:href="#DejaVuSans-64"/>
      <use x="331.201172" xlink:href="#DejaVuSans-65"/>
      <use x="392.724609" xlink:href="#DejaVuSans-73"/>
     </g>
    </g>
   </g>
   <g id="matplotlib.axis_2">
    <g id="ytick_1">
     <g id="line2d_7">
      <defs>
       <path d="M 0 0 
L -3.5 0 
" id="me2febcb81b" style="stroke:#000000;stroke-width:0.8;"/>
      </defs>
      <g>
       <use style="stroke:#000000;stroke-width:0.8;" x="108" xlink:href="#me2febcb81b" y="457.849602"/>
      </g>
     </g>
     <g id="text_8">
      <!-- −0.5 -->
      <g transform="translate(67.004063 463.168508)scale(0.14 -0.14)">
       <defs>
        <path d="M 678 2272 
L 4684 2272 
L 4684 1741 
L 678 1741 
L 678 2272 
z
" id="DejaVuSans-2212" transform="scale(0.015625)"/>
        <path d="M 684 794 
L 1344 794 
L 1344 0 
L 684 0 
L 684 794 
z
" id="DejaVuSans-2e" transform="scale(0.015625)"/>
        <path d="M 691 4666 
L 3169 4666 
L 3169 4134 
L 1269 4134 
L 1269 2991 
Q 1406 3038 1543 3061 
Q 1681 3084 1819 3084 
Q 2600 3084 3056 2656 
Q 3513 2228 3513 1497 
Q 3513 744 3044 326 
Q 2575 -91 1722 -91 
Q 1428 -91 1123 -41 
Q 819 9 494 109 
L 494 744 
Q 775 591 1075 516 
Q 1375 441 1709 441 
Q 2250 441 2565 725 
Q 2881 1009 2881 1497 
Q 2881 1984 2565 2268 
Q 2250 2553 1709 2553 
Q 1456 2553 1204 2497 
Q 953 2441 691 2322 
L 691 4666 
z
" id="DejaVuSans-35" transform="scale(0.015625)"/>
       </defs>
       <use xlink:href="#DejaVuSans-2212"/>
       <use x="83.789062" xlink:href="#DejaVuSans-30"/>
       <use x="147.412109" xlink:href="#DejaVuSans-2e"/>
       <use x="179.199219" xlink:href="#DejaVuSans-35"/>
      </g>
     </g>
    </g>
    <g id="ytick_2">
     <g id="line2d_8">
      <g>
       <use style="stroke:#000000;stroke-width:0.8;" x="108" xlink:href="#me2febcb81b" y="397.922452"/>
      </g>
     </g>
     <g id="text_9">
      <!-- 0.0 -->
      <g transform="translate(78.735625 403.241358)scale(0.14 -0.14)">
       <use xlink:href="#DejaVuSans-30"/>
       <use x="63.623047" xlink:href="#DejaVuSans-2e"/>
       <use x="95.410156" xlink:href="#DejaVuSans-30"/>
      </g>
     </g>
    </g>
    <g id="ytick_3">
     <g id="line2d_9">
      <g>
       <use style="stroke:#000000;stroke-width:0.8;" x="108" xlink:href="#me2febcb81b" y="337.995302"/>
      </g>
     </g>
     <g id="text_10">
      <!-- 0.5 -->
      <g transform="translate(78.735625 343.314208)scale(0.14 -0.14)">
       <use xlink:href="#DejaVuSans-30"/>
       <use x="63.623047" xlink:href="#DejaVuSans-2e"/>
       <use x="95.410156" xlink:href="#DejaVuSans-35"/>
      </g>
     </g>
    </g>
    <g id="ytick_4">
     <g id="line2d_10">
      <g>
       <use style="stroke:#000000;stroke-width:0.8;" x="108" xlink:href="#me2febcb81b" y="278.068152"/>
      </g>
     </g>
     <g id="text_11">
      <!-- 1.0 -->
      <g transform="translate(78.735625 283.387059)scale(0.14 -0.14)">
       <use xlink:href="#DejaVuSans-31"/>
       <use x="63.623047" xlink:href="#DejaVuSans-2e"/>
       <use x="95.410156" xlink:href="#DejaVuSans-30"/>
      </g>
     </g>
    </g>
    <g id="ytick_5">
     <g id="line2d_11">
      <g>
       <use style="stroke:#000000;stroke-width:0.8;" x="108" xlink:href="#me2febcb81b" y="218.141003"/>
      </g>
     </g>
     <g id="text_12">
      <!-- 1.5 -->
      <g transform="translate(78.735625 223.459909)scale(0.14 -0.14)">
       <use xlink:href="#DejaVuSans-31"/>
       <use x="63.623047" xlink:href="#DejaVuSans-2e"/>
       <use x="95.410156" xlink:href="#DejaVuSans-35"/>
      </g>
     </g>
    </g>
    <g id="ytick_6">
     <g id="line2d_12">
      <g>
       <use style="stroke:#000000;stroke-width:0.8;" x="108" xlink:href="#me2febcb81b" y="158.213853"/>
      </g>
     </g>
     <g id="text_13">
      <!-- 2.0 -->
      <g transform="translate(78.735625 163.532759)scale(0.14 -0.14)">
       <use xlink:href="#DejaVuSans-32"/>
       <use x="63.623047" xlink:href="#DejaVuSans-2e"/>
       <use x="95.410156" xlink:href="#DejaVuSans-30"/>
      </g>
     </g>
    </g>
    <g id="ytick_7">
     <g id="line2d_13">
      <g>
       <use style="stroke:#000000;stroke-width:0.8;" x="108" xlink:href="#me2febcb81b" y="98.286703"/>
      </g>
     </g>
     <g id="text_14">
      <!-- 2.5 -->
      <g transform="translate(78.735625 103.605609)scale(0.14 -0.14)">
       <use xlink:href="#DejaVuSans-32"/>
       <use x="63.623047" xlink:href="#DejaVuSans-2e"/>
       <use x="95.410156" xlink:href="#DejaVuSans-35"/>
      </g>
     </g>
    </g>
    <g id="text_15">
     <!-- Reward -->
     <g transform="translate(60.0925 316.949531)rotate(-90)scale(0.14 -0.14)">
      <defs>
       <path d="M 2841 2188 
Q 3044 2119 3236 1894 
Q 3428 1669 3622 1275 
L 4263 0 
L 3584 0 
L 2988 1197 
Q 2756 1666 2539 1819 
Q 2322 1972 1947 1972 
L 1259 1972 
L 1259 0 
L 628 0 
L 628 4666 
L 2053 4666 
Q 2853 4666 3247 4331 
Q 3641 3997 3641 3322 
Q 3641 2881 3436 2590 
Q 3231 2300 2841 2188 
z
M 1259 4147 
L 1259 2491 
L 2053 2491 
Q 2509 2491 2742 2702 
Q 2975 2913 2975 3322 
Q 2975 3731 2742 3939 
Q 2509 4147 2053 4147 
L 1259 4147 
z
" id="DejaVuSans-52" transform="scale(0.015625)"/>
       <path d="M 269 3500 
L 844 3500 
L 1563 769 
L 2278 3500 
L 2956 3500 
L 3675 769 
L 4391 3500 
L 4966 3500 
L 4050 0 
L 3372 0 
L 2619 2869 
L 1863 0 
L 1184 0 
L 269 3500 
z
" id="DejaVuSans-77" transform="scale(0.015625)"/>
       <path d="M 2194 1759 
Q 1497 1759 1228 1600 
Q 959 1441 959 1056 
Q 959 750 1161 570 
Q 1363 391 1709 391 
Q 2188 391 2477 730 
Q 2766 1069 2766 1631 
L 2766 1759 
L 2194 1759 
z
M 3341 1997 
L 3341 0 
L 2766 0 
L 2766 531 
Q 2569 213 2275 61 
Q 1981 -91 1556 -91 
Q 1019 -91 701 211 
Q 384 513 384 1019 
Q 384 1609 779 1909 
Q 1175 2209 1959 2209 
L 2766 2209 
L 2766 2266 
Q 2766 2663 2505 2880 
Q 2244 3097 1772 3097 
Q 1472 3097 1187 3025 
Q 903 2953 641 2809 
L 641 3341 
Q 956 3463 1253 3523 
Q 1550 3584 1831 3584 
Q 2591 3584 2966 3190 
Q 3341 2797 3341 1997 
z
" id="DejaVuSans-61" transform="scale(0.015625)"/>
       <path d="M 2631 2963 
Q 2534 3019 2420 3045 
Q 2306 3072 2169 3072 
Q 1681 3072 1420 2755 
Q 1159 2438 1159 1844 
L 1159 0 
L 581 0 
L 581 3500 
L 1159 3500 
L 1159 2956 
Q 1341 3275 1631 3429 
Q 1922 3584 2338 3584 
Q 2397 3584 2469 3576 
Q 2541 3569 2628 3553 
L 2631 2963 
z
" id="DejaVuSans-72" transform="scale(0.015625)"/>
      </defs>
      <use xlink:href="#DejaVuSans-52"/>
      <use x="64.982422" xlink:href="#DejaVuSans-65"/>
      <use x="126.505859" xlink:href="#DejaVuSans-77"/>
      <use x="208.292969" xlink:href="#DejaVuSans-61"/>
      <use x="269.572266" xlink:href="#DejaVuSans-72"/>
      <use x="308.935547" xlink:href="#DejaVuSans-64"/>
     </g>
    </g>
   </g>
   <g id="line2d_14">
    <path clip-path="url(#p84be33d861)" d="M 132.349091 492.48 
L 134.298968 471.19349 
L 134.786437 467.812776 
L 135.273907 463.002636 
L 135.761376 449.667166 
L 136.248845 455.782212 
L 136.736314 450.838449 
L 137.223784 447.529316 
L 137.711253 450.394834 
L 138.198722 455.147085 
L 138.686192 455.971603 
L 139.173661 438.460073 
L 139.66113 437.540144 
L 140.1486 428.07835 
L 140.636069 426.116191 
L 141.123538 420.932102 
L 141.611007 420.163224 
L 142.098477 428.050667 
L 142.585946 427.347357 
L 143.073415 425.966854 
L 143.560885 426.485566 
L 144.048354 425.76538 
L 144.535823 421.686531 
L 145.023292 409.778562 
L 145.510762 407.466608 
L 145.998231 410.879733 
L 146.4857 416.286006 
L 146.97317 414.984797 
L 147.948108 398.476766 
L 148.435577 396.279591 
L 148.923047 395.202156 
L 149.410516 392.32366 
L 149.897985 386.752927 
L 150.385455 377.378481 
L 150.872924 371.425474 
L 151.360393 374.463191 
L 151.847862 384.577198 
L 152.335332 367.1455 
L 152.822801 380.669103 
L 153.31027 374.790286 
L 153.79774 376.228498 
L 154.285209 380.492499 
L 154.772678 387.847909 
L 155.260147 387.724743 
L 155.747617 381.23994 
L 156.235086 388.33792 
L 156.722555 391.943469 
L 157.210025 398.292576 
L 157.697494 389.957562 
L 158.672432 383.021522 
L 159.159902 367.235083 
L 160.13484 356.485373 
L 161.597248 322.418768 
L 162.084717 336.821775 
L 162.572187 338.599325 
L 163.059656 328.895516 
L 163.547125 336.866346 
L 164.034595 334.39285 
L 164.522064 324.035242 
L 165.009533 335.009324 
L 165.497002 334.640647 
L 165.984472 339.874858 
L 166.471941 332.892926 
L 166.95941 331.227627 
L 167.934349 319.460923 
L 168.421818 324.114623 
L 168.909287 332.385614 
L 169.396757 329.201953 
L 169.884226 328.342321 
L 170.371695 338.239362 
L 170.859165 333.915398 
L 171.346634 338.107552 
L 172.321572 340.791065 
L 172.809042 340.94496 
L 173.296511 343.82913 
L 173.78398 337.172551 
L 174.27145 328.767008 
L 174.758919 328.464217 
L 175.246388 337.531208 
L 175.733857 334.108943 
L 176.221327 327.12022 
L 176.708796 335.707189 
L 177.196265 330.786389 
L 177.683735 314.369599 
L 178.171204 308.646004 
L 178.658673 323.461612 
L 179.146143 316.73213 
L 179.633612 311.876911 
L 180.121081 296.476609 
L 180.60855 286.970867 
L 181.09602 298.835045 
L 181.583489 285.177051 
L 182.070958 279.148216 
L 182.558428 277.489779 
L 183.045897 270.502518 
L 183.533366 287.666122 
L 184.020835 285.117545 
L 184.508305 277.763028 
L 184.995774 279.287149 
L 185.970713 280.745462 
L 186.458182 281.378006 
L 187.43312 268.236445 
L 187.92059 280.37264 
L 188.408059 281.030647 
L 188.895528 278.761227 
L 189.382998 298.459092 
L 189.870467 300.773485 
L 190.357936 291.214383 
L 190.845405 276.996525 
L 191.332875 278.600801 
L 191.820344 268.208845 
L 192.307813 274.253958 
L 192.795283 268.201615 
L 193.282752 279.556801 
L 193.770221 272.99717 
L 194.74516 254.701891 
L 195.232629 245.801204 
L 195.720098 240.568469 
L 196.207568 243.906428 
L 196.695037 249.922216 
L 197.669975 235.24525 
L 198.157445 237.785545 
L 198.644914 233.231466 
L 199.132383 230.301357 
L 200.107322 211.848909 
L 200.594791 208.774703 
L 201.08226 209.087457 
L 201.56973 210.860051 
L 202.057199 204.808125 
L 202.544668 204.501049 
L 203.032138 199.51111 
L 203.519607 198.770595 
L 204.007076 199.24026 
L 204.494545 205.949708 
L 204.982015 203.736901 
L 205.469484 211.542388 
L 205.956953 221.243669 
L 206.444423 220.42911 
L 206.931892 213.429007 
L 207.419361 232.095374 
L 208.3943 230.267074 
L 208.881769 226.757292 
L 209.369238 225.583415 
L 209.856708 209.519733 
L 210.344177 213.273357 
L 210.831646 209.026898 
L 211.319115 218.282917 
L 211.806585 214.116139 
L 212.294054 212.752575 
L 212.781523 218.947109 
L 213.268993 215.719612 
L 213.756462 218.865116 
L 214.243931 218.405064 
L 214.7314 223.332226 
L 215.21887 217.236467 
L 215.706339 224.727078 
L 216.193808 219.617228 
L 216.681278 213.287624 
L 217.168747 210.794329 
L 217.656216 198.252736 
L 218.143686 199.674637 
L 218.631155 205.91197 
L 219.118624 214.820167 
L 219.606093 218.103614 
L 220.093563 226.322895 
L 220.581032 246.539845 
L 222.04344 222.54813 
L 222.530909 213.230373 
L 223.018378 211.811284 
L 223.505848 224.605819 
L 223.993317 225.669806 
L 224.480786 227.399363 
L 224.968256 215.576775 
L 225.455725 219.579058 
L 225.943194 210.99856 
L 226.430663 219.304337 
L 226.918133 221.283931 
L 227.405602 217.63745 
L 227.893071 214.943697 
L 228.380541 210.556561 
L 228.86801 211.907831 
L 229.355479 216.863255 
L 229.842948 216.068446 
L 230.330418 213.525605 
L 230.817887 218.473644 
L 231.305356 214.016115 
L 231.792826 211.138264 
L 232.280295 210.767988 
L 233.255233 209.397676 
L 233.742703 207.972369 
L 234.230172 224.10677 
L 234.717641 225.959666 
L 235.205111 236.565053 
L 237.154988 254.703185 
L 237.642457 262.837329 
L 238.129926 254.850561 
L 238.617396 250.256149 
L 239.104865 253.731514 
L 239.592334 271.763221 
L 240.079803 269.934006 
L 241.054742 253.215828 
L 242.029681 242.257639 
L 242.51715 232.166275 
L 243.004619 228.113937 
L 243.492088 227.732304 
L 243.979558 229.155141 
L 244.467027 223.375962 
L 244.954496 233.494759 
L 245.441966 232.910698 
L 245.929435 242.73161 
L 246.416904 234.180419 
L 246.904373 228.97494 
L 247.391843 229.110507 
L 247.879312 230.651683 
L 248.366781 236.287037 
L 248.854251 231.250304 
L 249.34172 227.76127 
L 249.829189 230.095005 
L 250.316658 226.013075 
L 250.804128 236.611966 
L 251.291597 227.529126 
L 251.779066 237.485656 
L 252.266536 231.267023 
L 252.754005 233.571828 
L 253.241474 229.889575 
L 253.728943 231.245451 
L 254.216413 223.416227 
L 254.703882 220.823802 
L 255.191351 228.662818 
L 255.678821 231.80769 
L 256.16629 238.883189 
L 256.653759 238.666206 
L 257.141229 235.980835 
L 257.628698 234.45086 
L 258.603636 253.310306 
L 259.091106 256.095132 
L 259.578575 257.096037 
L 260.066044 255.733237 
L 260.553514 246.615632 
L 261.040983 241.502172 
L 261.528452 240.459152 
L 262.015921 238.873255 
L 262.503391 240.820657 
L 262.99086 241.369299 
L 263.478329 240.810393 
L 263.965799 231.742902 
L 264.453268 229.040266 
L 264.940737 234.905162 
L 265.915676 227.674177 
L 266.403145 225.103763 
L 266.890614 219.92363 
L 267.378084 216.621159 
L 267.865553 227.188352 
L 268.353022 228.454283 
L 268.840491 227.340539 
L 269.327961 219.922213 
L 269.81543 209.805888 
L 270.302899 209.830858 
L 270.790369 217.587631 
L 271.277838 208.17128 
L 271.765307 205.069216 
L 272.252776 207.091792 
L 272.740246 207.629497 
L 273.227715 216.616375 
L 273.715184 229.251984 
L 274.202654 222.169082 
L 274.690123 223.304769 
L 275.665061 234.818449 
L 276.152531 235.326804 
L 276.64 231.694075 
L 277.127469 229.937689 
L 277.614939 220.395009 
L 278.102408 225.310672 
L 278.589877 233.656802 
L 279.077346 233.585719 
L 279.564816 243.784749 
L 280.052285 245.542109 
L 280.539754 235.415748 
L 281.027224 220.945036 
L 281.514693 214.375044 
L 282.002162 215.772934 
L 282.489631 222.427597 
L 282.977101 227.003264 
L 283.46457 218.757055 
L 283.952039 220.495527 
L 284.439509 228.171708 
L 284.926978 228.524491 
L 285.414447 230.083628 
L 286.389386 217.192163 
L 286.876855 216.102278 
L 287.364324 226.190057 
L 287.851794 216.117702 
L 288.339263 212.387104 
L 288.826732 205.201381 
L 289.314201 206.844752 
L 289.801671 199.436361 
L 290.28914 202.992872 
L 290.776609 204.332682 
L 291.751548 189.915273 
L 292.239017 190.119829 
L 292.726486 205.395488 
L 293.213956 209.632004 
L 293.701425 209.117046 
L 294.188894 220.556597 
L 294.676364 239.469404 
L 295.163833 242.658244 
L 295.651302 241.060036 
L 296.138771 240.849873 
L 296.626241 246.530857 
L 297.11371 237.735552 
L 297.601179 245.423938 
L 299.063587 233.022977 
L 299.551057 230.145139 
L 300.038526 229.669512 
L 300.525995 220.057775 
L 301.013464 226.824649 
L 301.500934 231.449267 
L 301.988403 226.12132 
L 302.475872 224.092862 
L 302.963342 223.588904 
L 303.450811 218.297413 
L 303.93828 222.447803 
L 304.425749 215.263949 
L 304.913219 215.036174 
L 305.400688 206.209392 
L 305.888157 214.059773 
L 306.375627 208.029934 
L 306.863096 209.398588 
L 307.350565 206.447015 
L 307.838034 209.829975 
L 308.325504 211.840028 
L 308.812973 215.414528 
L 309.300442 214.204801 
L 310.275381 207.597137 
L 310.76285 205.949785 
L 311.250319 200.708636 
L 311.737789 213.878287 
L 312.225258 205.891213 
L 312.712727 211.314362 
L 313.200197 203.048461 
L 313.687666 203.245802 
L 314.175135 214.236916 
L 314.662604 215.482597 
L 315.150074 202.011547 
L 315.637543 198.948269 
L 316.125012 204.825641 
L 316.612482 202.72298 
L 317.099951 197.656554 
L 317.58742 193.978937 
L 318.074889 193.171339 
L 318.562359 194.807096 
L 319.049828 200.337202 
L 319.537297 198.503437 
L 320.024767 198.249298 
L 320.512236 195.157457 
L 320.999705 197.790532 
L 321.487174 197.635795 
L 321.974644 199.179687 
L 322.949582 190.711729 
L 323.437052 181.420543 
L 323.924521 179.57708 
L 324.41199 179.535901 
L 324.899459 182.80842 
L 325.386929 183.186768 
L 325.874398 186.321659 
L 326.361867 174.18589 
L 326.849337 173.526509 
L 327.336806 172.342388 
L 327.824275 175.608794 
L 328.311744 186.568689 
L 328.799214 189.950625 
L 329.286683 181.24762 
L 329.774152 189.298228 
L 330.261622 188.618508 
L 330.749091 178.131718 
L 331.23656 176.679727 
L 331.724029 179.842018 
L 332.211499 174.795323 
L 332.698968 178.413974 
L 333.186437 178.015905 
L 333.673907 169.956746 
L 334.161376 169.009243 
L 335.136314 158.337862 
L 335.623784 157.886983 
L 336.111253 159.898485 
L 336.598722 151.013145 
L 337.086192 149.972493 
L 337.573661 149.871284 
L 338.06113 155.143309 
L 338.5486 153.459282 
L 339.036069 153.430265 
L 339.523538 149.013578 
L 340.011007 153.267505 
L 340.985946 158.740118 
L 341.473415 157.665914 
L 341.960885 161.903881 
L 342.448354 159.795536 
L 342.935823 159.295199 
L 343.423292 158.492031 
L 343.910762 159.173774 
L 344.398231 152.39749 
L 344.8857 144.060189 
L 345.37317 140.999245 
L 345.860639 139.081032 
L 346.348108 135.888685 
L 346.835577 129.752772 
L 347.323047 129.360987 
L 347.810516 128.816313 
L 348.785455 134.762071 
L 349.272924 129.79362 
L 349.760393 123.406677 
L 350.247862 122.523611 
L 350.735332 123.308329 
L 351.222801 116.247174 
L 351.71027 113.841452 
L 352.19774 115.013507 
L 352.685209 121.463663 
L 353.660147 117.246489 
L 354.147617 118.029377 
L 354.635086 109.117067 
L 355.122555 121.433579 
L 355.610025 127.412022 
L 356.097494 143.139327 
L 356.584963 145.42088 
L 357.559902 135.364041 
L 358.047371 135.745431 
L 358.53484 145.289459 
L 359.02231 141.725637 
L 359.509779 143.997123 
L 359.997248 141.41738 
L 360.972187 148.759039 
L 361.459656 155.323437 
L 361.947125 156.936334 
L 362.434595 156.747559 
L 362.922064 159.794214 
L 363.409533 154.445163 
L 363.897002 153.146123 
L 364.384472 158.021514 
L 364.871941 147.432007 
L 365.35941 146.88579 
L 365.84688 147.915197 
L 366.334349 148.138543 
L 366.821818 138.396792 
L 367.309287 144.465541 
L 367.796757 139.789024 
L 368.284226 145.057381 
L 368.771695 146.168552 
L 369.259165 152.994015 
L 369.746634 146.964688 
L 370.234103 148.482067 
L 370.721572 150.470129 
L 371.209042 145.361462 
L 371.696511 144.827819 
L 372.18398 142.422078 
L 372.67145 143.553518 
L 373.158919 145.046555 
L 373.646388 148.859522 
L 374.133857 146.743513 
L 374.621327 150.866892 
L 375.108796 158.873287 
L 375.596265 157.097114 
L 376.083735 159.726002 
L 377.058673 172.308723 
L 377.546143 163.618039 
L 378.033612 165.71768 
L 378.521081 173.162642 
L 379.00855 165.264292 
L 379.49602 166.265352 
L 379.983489 164.616534 
L 380.958428 153.196291 
L 381.445897 152.345081 
L 381.933366 141.711077 
L 382.420835 138.091225 
L 382.908305 130.822862 
L 383.395774 135.681857 
L 383.883243 133.003762 
L 384.370713 131.760015 
L 384.858182 139.018026 
L 385.345651 142.342476 
L 386.32059 133.292507 
L 386.808059 132.169541 
L 387.295528 130.616449 
L 387.782998 121.18337 
L 388.270467 126.031665 
L 388.757936 121.680814 
L 389.245405 125.876085 
L 389.732875 125.487046 
L 390.220344 125.671561 
L 390.707813 130.268544 
L 391.195283 129.945667 
L 391.682752 132.552651 
L 392.65769 124.871222 
L 393.632629 119.596363 
L 394.120098 135.139624 
L 394.607568 123.124604 
L 395.095037 124.36864 
L 395.582506 128.857107 
L 396.069975 131.734353 
L 396.557445 129.595149 
L 397.532383 145.741886 
L 398.019853 146.648859 
L 398.507322 141.982825 
L 398.994791 150.20477 
L 399.48226 143.709992 
L 399.96973 135.403178 
L 400.457199 139.999765 
L 400.944668 140.30076 
L 401.432138 142.230539 
L 401.919607 147.015499 
L 403.382015 135.136543 
L 403.869484 134.220155 
L 404.844423 130.015534 
L 405.331892 117.597542 
L 405.819361 114.847886 
L 406.30683 109.748795 
L 406.7943 116.43884 
L 407.281769 115.169865 
L 407.769238 126.449694 
L 408.256708 125.846388 
L 408.744177 133.814655 
L 409.719115 121.505812 
L 410.206585 121.194743 
L 410.694054 118.923452 
L 411.181523 123.121614 
L 411.668993 129.432895 
L 412.156462 129.342506 
L 412.643931 122.619649 
L 413.1314 129.808309 
L 413.61887 122.438097 
L 414.106339 120.414909 
L 414.593808 124.817015 
L 415.081278 121.207165 
L 416.056216 135.121144 
L 416.543686 130.670966 
L 417.031155 135.320364 
L 417.518624 134.476135 
L 418.006093 132.615491 
L 418.493563 133.374466 
L 418.981032 123.46685 
L 419.468501 128.262378 
L 419.955971 131.924455 
L 420.44344 126.597768 
L 420.930909 116.630399 
L 421.418378 119.270994 
L 422.393317 129.466706 
L 422.880786 128.979796 
L 423.368256 127.690567 
L 423.855725 125.941409 
L 424.343194 126.497621 
L 424.830663 128.142837 
L 425.318133 125.797103 
L 425.805602 133.690646 
L 426.293071 125.517789 
L 426.780541 120.663329 
L 427.26801 117.701223 
L 427.755479 119.368078 
L 428.242948 116.657082 
L 428.730418 108.978982 
L 429.217887 106.554472 
L 430.192826 119.906628 
L 430.680295 118.469987 
L 431.167764 113.778809 
L 431.655233 113.079865 
L 432.142703 115.065034 
L 432.630172 121.892296 
L 433.117641 118.861157 
L 433.605111 121.100917 
L 434.09258 120.714086 
L 434.580049 125.406402 
L 435.067518 131.307421 
L 435.554988 141.854319 
L 436.529926 130.585308 
L 437.017396 137.056227 
L 437.504865 138.262058 
L 437.992334 140.438103 
L 438.479803 141.6651 
L 439.454742 133.125882 
L 439.942211 121.371448 
L 440.429681 126.682965 
L 440.91715 125.933501 
L 441.404619 132.481022 
L 441.892088 125.088411 
L 442.379558 126.336278 
L 442.867027 123.376748 
L 443.354496 116.379233 
L 443.841966 113.069031 
L 444.329435 115.909017 
L 444.816904 116.755926 
L 445.304373 114.244546 
L 445.791843 116.455526 
L 446.279312 120.036961 
L 446.766781 122.205627 
L 447.254251 121.531341 
L 447.74172 127.023346 
L 448.229189 127.734993 
L 448.716658 127.217004 
L 449.204128 130.434373 
L 449.691597 131.182282 
L 450.179066 129.779878 
L 450.666536 131.945883 
L 451.154005 131.57166 
L 451.641474 129.905153 
L 452.128943 126.969559 
L 452.616413 126.954327 
L 453.103882 123.727741 
L 453.591351 122.970022 
L 454.078821 121.994611 
L 454.56629 113.465041 
L 455.053759 111.250478 
L 456.028698 108.284841 
L 456.516167 108.786754 
L 457.003636 109.035033 
L 457.491106 112.319443 
L 457.978575 111.520713 
L 458.466044 115.128341 
L 458.953514 112.234711 
L 459.440983 108.076266 
L 459.928452 100.843449 
L 460.415921 95.395393 
L 460.903391 105.176398 
L 461.39086 103.085737 
L 461.878329 112.128516 
L 462.365799 114.468338 
L 462.853268 117.953607 
L 463.340737 111.995162 
L 464.315676 119.732325 
L 464.803145 117.204783 
L 465.290614 116.020541 
L 465.778084 119.002601 
L 466.265553 117.865006 
L 466.753022 112.845889 
L 467.240491 115.019476 
L 467.727961 117.782892 
L 468.21543 117.285323 
L 468.702899 106.647845 
L 469.190369 109.807823 
L 469.677838 106.738392 
L 470.165307 109.31238 
L 470.652776 109.969543 
L 471.140246 109.005804 
L 471.627715 103.335832 
L 472.115184 107.653078 
L 472.602654 98.593011 
L 473.090123 105.996867 
L 473.577592 105.581166 
L 474.065061 99.228381 
L 474.552531 97.29106 
L 475.04 94.644872 
L 475.527469 95.243813 
L 476.014939 94.980242 
L 476.502408 100.384623 
L 476.989877 109.969648 
L 477.477346 106.511265 
L 477.964816 108.99295 
L 478.452285 112.218218 
L 478.939754 117.079049 
L 479.427224 118.190896 
L 479.914693 122.758976 
L 480.402162 123.032766 
L 480.889631 123.857829 
L 481.377101 126.297093 
L 481.86457 121.194765 
L 482.839509 117.042244 
L 483.326978 118.300467 
L 483.814447 118.027503 
L 484.301916 126.093766 
L 484.789386 129.683506 
L 485.276855 130.163538 
L 485.764324 132.031043 
L 486.251794 138.281146 
L 486.739263 138.929334 
L 487.226732 141.433316 
L 487.714201 137.737776 
L 488.68914 123.441604 
L 489.176609 121.819502 
L 489.664079 121.256567 
L 490.151548 108.251579 
L 490.639017 109.332101 
L 491.126486 113.530183 
L 491.613956 115.537799 
L 492.101425 113.640171 
L 492.588894 117.418574 
L 493.076364 118.937956 
L 493.563833 131.250751 
L 494.051302 124.476223 
L 494.538771 129.27216 
L 495.026241 129.966705 
L 495.51371 131.049853 
L 496.001179 130.794705 
L 496.488649 124.73038 
L 496.976118 121.397694 
L 497.463587 123.031689 
L 498.438526 141.637922 
L 498.925995 139.333228 
L 499.413464 142.672017 
L 499.900934 135.914593 
L 500.388403 133.704324 
L 500.875872 128.799415 
L 501.363342 130.230161 
L 501.850811 127.998154 
L 502.33828 132.884085 
L 502.825749 136.084838 
L 503.313219 132.394959 
L 503.800688 132.627461 
L 504.288157 123.463824 
L 504.775627 119.3392 
L 505.263096 114.136332 
L 505.750565 115.244052 
L 506.238034 113.510197 
L 506.725504 106.625336 
L 507.212973 109.76576 
L 507.700442 104.52498 
L 508.187912 101.358742 
L 508.675381 108.781221 
L 509.16285 111.177086 
L 509.650319 108.40474 
L 510.137789 103.897722 
L 510.625258 106.436622 
L 511.112727 104.445397 
L 511.600197 106.416416 
L 512.087666 99.719327 
L 512.575135 103.892184 
L 513.062604 110.327228 
L 513.550074 106.559121 
L 514.037543 105.908472 
L 514.525012 110.853011 
L 515.012482 103.742185 
L 515.499951 107.988215 
L 515.98742 106.605695 
L 516.474889 115.889071 
L 516.962359 103.938798 
L 517.449828 111.827526 
L 517.937297 113.555026 
L 518.424767 118.224027 
L 518.912236 115.345558 
L 519.399705 118.133444 
L 519.887174 123.26238 
L 520.374644 119.57859 
L 520.862113 117.804356 
L 521.349582 118.67456 
L 521.837052 119.040601 
L 522.81199 109.889908 
L 523.299459 112.039664 
L 523.786929 116.344172 
L 524.274398 119.466752 
L 524.761867 128.712677 
L 525.249337 128.179315 
L 525.736806 117.598957 
L 527.199214 133.20328 
L 527.686683 136.145956 
L 528.174152 138.046666 
L 528.661622 131.871476 
L 529.149091 127.981289 
L 529.63656 126.256262 
L 530.124029 134.204684 
L 530.611499 130.36411 
L 531.098968 116.85521 
L 531.586437 115.922416 
L 532.073907 121.326316 
L 532.561376 122.077263 
L 533.048845 123.101447 
L 533.536314 125.319257 
L 534.023784 129.518166 
L 534.511253 130.706301 
L 534.998722 125.510926 
L 535.486192 130.098035 
L 535.973661 128.50114 
L 536.9486 131.142254 
L 537.436069 136.120967 
L 537.923538 139.054449 
L 538.411007 134.544603 
L 538.898477 141.221827 
L 539.873415 147.823795 
L 540.360885 146.718081 
L 540.848354 141.398781 
L 541.335823 138.697801 
L 541.823292 139.764333 
L 542.310762 144.886531 
L 542.798231 151.568206 
L 543.2857 148.275408 
L 543.77317 153.713549 
L 544.260639 150.70439 
L 544.748108 152.651556 
L 545.235577 155.601303 
L 545.723047 154.902063 
L 546.697985 162.038865 
L 547.185455 160.686968 
L 547.672924 160.614801 
L 548.160393 160.305065 
L 548.647862 154.858604 
L 549.135332 155.947728 
L 549.622801 162.462517 
L 550.59774 154.491532 
L 551.085209 150.699406 
L 551.572678 153.437083 
L 552.060147 149.519855 
L 552.547617 147.516661 
L 553.035086 144.017007 
L 553.522555 148.094714 
L 554.010025 157.043206 
L 554.497494 161.659773 
L 554.984963 162.456638 
L 555.472432 165.695507 
L 555.959902 166.815752 
L 556.447371 165.787028 
L 557.42231 157.644746 
L 558.397248 171.513879 
L 558.884717 169.992385 
L 559.372187 159.135988 
L 559.859656 154.806124 
L 560.347125 159.321703 
L 560.834595 166.35431 
L 561.322064 165.780814 
L 561.809533 171.082732 
L 562.297002 169.034477 
L 562.784472 165.417054 
L 563.271941 174.852409 
L 563.75941 169.592466 
L 564.24688 178.531121 
L 564.734349 176.339596 
L 565.221818 172.124396 
L 565.709287 175.854376 
L 566.196757 173.15764 
L 568.146634 155.166963 
L 568.634103 154.201023 
L 569.121572 152.17353 
L 569.609042 146.648903 
L 570.096511 151.14712 
L 570.58398 153.577215 
L 571.07145 147.532067 
L 571.558919 136.192106 
L 572.046388 135.942623 
L 572.533857 147.89642 
L 573.021327 147.896333 
L 573.508796 146.349157 
L 573.996265 143.548643 
L 574.483735 137.901159 
L 574.971204 134.177699 
L 575.458673 136.505331 
L 575.946143 137.810401 
L 576.921081 130.045699 
L 577.40855 131.673246 
L 577.89602 131.563637 
L 578.383489 121.491387 
L 578.870958 124.933946 
L 579.358428 122.871103 
L 579.845897 117.423697 
L 580.333366 113.835911 
L 580.820835 115.723165 
L 581.308305 118.397677 
L 581.795774 121.813248 
L 582.283243 126.868932 
L 582.770713 128.137373 
L 583.258182 120.312041 
L 583.745651 118.292869 
L 584.23312 118.989546 
L 584.72059 127.745777 
L 585.208059 121.381399 
L 585.695528 118.492334 
L 586.182998 116.946364 
L 586.670467 111.770928 
L 587.645405 125.010189 
L 588.132875 121.697102 
L 588.620344 125.624461 
L 589.107813 123.203308 
L 589.595283 130.39211 
L 590.082752 122.456565 
L 590.570221 120.989391 
L 591.05769 124.260661 
L 591.54516 120.135421 
L 592.032629 119.473504 
L 592.520098 121.431787 
L 593.007568 115.462724 
L 593.495037 119.230296 
L 593.982506 117.168776 
L 594.469975 112.120582 
L 594.957445 109.640911 
L 595.444914 102.963504 
L 595.932383 104.513722 
L 596.419853 105.388889 
L 596.907322 103.328518 
L 597.394791 112.702704 
L 597.88226 111.150324 
L 598.36973 115.816598 
L 598.857199 117.868662 
L 599.832138 121.261179 
L 600.319607 127.537018 
L 600.807076 130.144764 
L 601.294545 124.338758 
L 601.782015 120.918603 
L 602.269484 122.921497 
L 602.756953 121.605527 
L 603.731892 108.157347 
L 604.219361 105.748503 
L 604.70683 107.353996 
L 605.1943 102.350179 
L 605.681769 98.56644 
L 606.656708 103.957201 
L 607.144177 107.423395 
L 607.631646 105.026035 
L 608.119115 99.334813 
L 609.094054 92.252813 
L 609.581523 96.960378 
L 610.068993 97.024457 
L 610.556462 104.104682 
L 611.043931 105.4573 
L 611.5314 98.571493 
L 612.01887 98.4705 
L 612.506339 89.28 
L 612.993808 97.860974 
L 613.481278 94.897317 
L 613.968747 97.085659 
L 614.456216 91.366331 
L 614.943686 91.644275 
L 615.431155 94.390899 
L 615.918624 96.1652 
L 616.406093 98.848661 
L 617.381032 106.742281 
L 617.868501 106.264219 
L 618.355971 102.892637 
L 618.84344 101.318355 
L 619.330909 107.193963 
L 619.330909 107.193963 
" style="fill:none;stroke:#1f77b4;stroke-linecap:square;stroke-width:2;"/>
   </g>
   <g id="line2d_15">
    <path clip-path="url(#p84be33d861)" d="M 132.349091 492.48 
L 134.298968 471.19349 
L 134.786437 467.812776 
L 135.273907 463.002636 
L 135.761376 449.667166 
L 136.248845 455.782212 
L 136.736314 441.318889 
L 137.223784 438.383072 
L 137.711253 441.607267 
L 138.198722 446.704127 
L 138.686192 447.859742 
L 139.173661 438.609841 
L 139.66113 445.694859 
L 140.1486 448.29315 
L 140.636069 439.254122 
L 141.123538 420.400577 
L 141.611007 410.104779 
L 142.098477 419.286074 
L 143.073415 397.286338 
L 143.560885 397.268024 
L 144.048354 390.391793 
L 144.535823 377.414557 
L 145.023292 376.198684 
L 145.510762 370.771333 
L 145.998231 373.002187 
L 146.4857 372.437464 
L 146.97317 372.873787 
L 147.460639 370.724667 
L 147.948108 370.311982 
L 148.435577 359.041886 
L 148.923047 350.63674 
L 149.410516 348.898099 
L 150.872924 318.496099 
L 151.360393 318.04081 
L 151.847862 314.708258 
L 152.335332 306.11124 
L 153.31027 293.754549 
L 153.79774 284.255233 
L 154.285209 290.507061 
L 154.772678 288.927917 
L 155.260147 285.602484 
L 155.747617 284.949663 
L 156.235086 280.105133 
L 156.722555 273.884815 
L 157.210025 273.472715 
L 157.697494 277.493786 
L 158.184963 274.197837 
L 158.672432 273.780261 
L 159.159902 269.262991 
L 159.647371 272.374024 
L 160.13484 258.714123 
L 160.62231 253.180569 
L 161.109779 249.428331 
L 161.597248 258.041938 
L 162.084717 255.856885 
L 162.572187 251.060461 
L 163.059656 250.541362 
L 163.547125 249.622795 
L 164.034595 247.194902 
L 164.522064 234.973032 
L 165.009533 233.513585 
L 165.497002 226.795554 
L 165.984472 229.279097 
L 166.471941 229.001335 
L 167.44688 217.141884 
L 167.934349 216.185648 
L 168.421818 215.852515 
L 168.909287 210.35145 
L 169.396757 203.532614 
L 169.884226 207.902989 
L 170.371695 198.871549 
L 170.859165 199.464994 
L 171.834103 184.282039 
L 172.321572 184.046929 
L 172.809042 196.183053 
L 173.296511 203.471895 
L 173.78398 200.63156 
L 174.27145 194.431628 
L 175.246388 208.646255 
L 175.733857 205.217639 
L 176.221327 199.154274 
L 176.708796 199.486134 
L 177.196265 195.529617 
L 177.683735 192.638708 
L 178.171204 191.695416 
L 178.658673 189.076172 
L 179.146143 187.805546 
L 179.633612 187.054817 
L 180.121081 185.405109 
L 180.60855 176.253708 
L 181.583489 185.118707 
L 182.070958 187.452334 
L 182.558428 183.265239 
L 183.045897 182.107308 
L 183.533366 176.563044 
L 184.020835 168.648938 
L 184.508305 167.121069 
L 184.995774 169.388187 
L 185.483243 175.184326 
L 185.970713 173.379711 
L 186.458182 178.483324 
L 186.945651 175.918324 
L 187.43312 171.813537 
L 187.92059 185.65583 
L 188.408059 184.645438 
L 189.382998 177.868432 
L 189.870467 173.55981 
L 190.357936 175.067175 
L 190.845405 180.633463 
L 191.332875 180.186295 
L 191.820344 175.618654 
L 192.307813 176.559677 
L 192.795283 182.883706 
L 193.282752 180.82261 
L 193.770221 178.239769 
L 194.25769 172.991213 
L 194.74516 176.99136 
L 195.232629 172.253804 
L 195.720098 172.783607 
L 196.207568 168.093403 
L 196.695037 165.697917 
L 198.157445 170.613153 
L 198.644914 172.735467 
L 199.132383 177.188211 
L 199.619853 176.743468 
L 200.107322 180.328328 
L 201.08226 173.99537 
L 201.56973 164.509718 
L 202.057199 158.944276 
L 203.519607 148.941854 
L 204.007076 153.435665 
L 204.494545 148.035635 
L 204.982015 138.199667 
L 205.469484 151.110921 
L 205.956953 149.702012 
L 206.444423 150.585735 
L 206.931892 139.893021 
L 207.419361 146.337722 
L 207.90683 135.913698 
L 208.3943 130.244184 
L 208.881769 127.44557 
L 209.369238 123.276921 
L 209.856708 124.51557 
L 210.344177 126.639387 
L 210.831646 130.00579 
L 211.319115 126.278294 
L 211.806585 123.594277 
L 212.294054 125.097338 
L 212.781523 140.041702 
L 213.268993 135.495315 
L 213.756462 138.359474 
L 214.243931 136.465115 
L 214.7314 132.570259 
L 215.21887 130.489322 
L 215.706339 125.731227 
L 216.193808 127.885035 
L 216.681278 129.312687 
L 217.168747 124.778776 
L 217.656216 124.776848 
L 218.143686 123.262984 
L 218.631155 112.977552 
L 219.118624 108.330958 
L 219.606093 110.249933 
L 220.093563 120.846369 
L 220.581032 125.473634 
L 221.068501 124.917111 
L 221.555971 134.021579 
L 222.04344 135.126312 
L 222.530909 134.293006 
L 223.018378 144.487809 
L 223.505848 141.817961 
L 223.993317 143.462749 
L 224.480786 142.091869 
L 224.968256 140.151088 
L 225.455725 137.600386 
L 225.943194 132.468786 
L 226.430663 137.07518 
L 226.918133 137.798246 
L 227.405602 137.426561 
L 227.893071 142.04113 
L 228.380541 138.061065 
L 228.86801 139.150897 
L 229.355479 144.7973 
L 229.842948 148.4549 
L 230.330418 146.614612 
L 230.817887 140.701726 
L 231.792826 149.348397 
L 232.280295 147.866474 
L 232.767764 152.601016 
L 233.255233 147.475373 
L 234.230172 151.238096 
L 235.205111 163.038137 
L 236.180049 151.977244 
L 236.667518 153.187223 
L 237.154988 148.789841 
L 237.642457 149.430186 
L 238.129926 143.581088 
L 238.617396 142.186819 
L 239.104865 142.608086 
L 239.592334 146.865592 
L 240.079803 139.961983 
L 240.567273 140.747845 
L 241.054742 144.583076 
L 241.542211 143.449905 
L 242.029681 135.611098 
L 243.004619 133.695948 
L 243.492088 127.861906 
L 243.979558 128.795899 
L 244.467027 124.960819 
L 244.954496 127.450692 
L 245.441966 128.780241 
L 245.929435 127.961725 
L 246.416904 125.521047 
L 246.904373 138.435453 
L 247.391843 134.812521 
L 247.879312 132.176021 
L 248.366781 123.624956 
L 249.34172 114.721592 
L 249.829189 122.101787 
L 250.316658 127.526401 
L 250.804128 127.752872 
L 251.291597 128.288759 
L 251.779066 128.016982 
L 252.266536 127.240009 
L 252.754005 125.056991 
L 253.728943 131.33908 
L 254.216413 139.133742 
L 254.703882 139.662838 
L 255.191351 138.247333 
L 255.678821 129.509259 
L 256.16629 131.816461 
L 256.653759 129.915805 
L 257.141229 133.496662 
L 257.628698 135.119777 
L 258.116167 130.711767 
L 259.091106 136.058116 
L 259.578575 134.096673 
L 260.553514 141.914994 
L 261.040983 137.496602 
L 261.528452 137.715268 
L 262.015921 134.91289 
L 262.503391 128.59792 
L 262.99086 127.112385 
L 263.478329 123.232765 
L 263.965799 123.124712 
L 264.453268 117.497 
L 264.940737 119.82358 
L 265.428206 126.868765 
L 265.915676 126.523302 
L 266.403145 121.802225 
L 266.890614 124.493601 
L 267.378084 123.044524 
L 267.865553 129.081816 
L 268.353022 133.091276 
L 268.840491 130.331625 
L 269.327961 140.511523 
L 269.81543 140.081067 
L 270.302899 134.92937 
L 270.790369 137.48327 
L 271.277838 133.588758 
L 271.765307 126.858059 
L 272.252776 130.135884 
L 272.740246 127.715374 
L 273.227715 123.235581 
L 273.715184 124.697511 
L 274.202654 125.497489 
L 274.690123 123.117815 
L 275.665061 125.16573 
L 276.152531 133.971136 
L 276.64 129.126615 
L 277.127469 133.885894 
L 278.102408 127.1142 
L 278.589877 127.403626 
L 279.077346 125.126256 
L 279.564816 124.682187 
L 280.052285 133.821207 
L 280.539754 131.684982 
L 281.027224 127.576623 
L 281.514693 132.744843 
L 282.002162 133.134745 
L 282.489631 127.325255 
L 282.977101 130.742476 
L 283.46457 130.175281 
L 283.952039 134.696261 
L 284.439509 132.501243 
L 284.926978 131.6155 
L 285.414447 136.252033 
L 285.901916 136.412011 
L 286.389386 140.360655 
L 286.876855 145.867949 
L 287.851794 126.837044 
L 288.826732 130.128501 
L 289.314201 141.073716 
L 290.28914 124.503538 
L 290.776609 129.135521 
L 291.264079 122.624719 
L 291.751548 132.399523 
L 292.239017 132.073665 
L 292.726486 144.165894 
L 293.213956 136.789739 
L 293.701425 141.937449 
L 294.188894 143.442255 
L 294.676364 145.678683 
L 295.163833 145.340287 
L 295.651302 145.519687 
L 296.138771 150.791714 
L 296.626241 151.599303 
L 297.11371 149.277902 
L 297.601179 154.247846 
L 298.088649 157.442083 
L 298.576118 167.045577 
L 299.063587 159.984366 
L 299.551057 158.659101 
L 300.038526 160.84583 
L 300.525995 164.411916 
L 301.013464 160.404672 
L 301.500934 160.374611 
L 301.988403 162.635083 
L 302.475872 155.652147 
L 302.963342 150.499695 
L 303.450811 153.481502 
L 303.93828 148.377495 
L 304.425749 147.402382 
L 304.913219 141.299952 
L 305.400688 137.03201 
L 305.888157 139.208407 
L 306.375627 135.288843 
L 306.863096 138.197346 
L 307.350565 132.383852 
L 307.838034 129.096788 
L 308.325504 129.795654 
L 308.812973 133.631936 
L 309.300442 133.729432 
L 310.275381 136.717415 
L 310.76285 135.725119 
L 311.737789 121.092937 
L 312.712727 117.295142 
L 313.200197 124.7406 
L 313.687666 119.661734 
L 314.175135 123.193647 
L 314.662604 121.549507 
L 315.150074 115.270979 
L 315.637543 115.039068 
L 316.612482 104.0834 
L 317.099951 106.938752 
L 317.58742 106.534227 
L 318.074889 106.864189 
L 318.562359 106.633602 
L 319.049828 108.381609 
L 319.537297 107.014845 
L 320.024767 106.891804 
L 320.512236 109.499389 
L 320.999705 114.416398 
L 321.487174 123.099081 
L 321.974644 124.294261 
L 322.462113 126.950286 
L 322.949582 126.654485 
L 323.437052 131.973951 
L 323.924521 134.400257 
L 324.41199 138.423973 
L 324.899459 136.085788 
L 325.386929 134.627735 
L 325.874398 127.535921 
L 326.361867 127.80558 
L 326.849337 129.794657 
L 327.336806 135.017813 
L 327.824275 137.270302 
L 328.311744 142.205839 
L 328.799214 141.492802 
L 329.286683 137.641502 
L 329.774152 147.506295 
L 330.261622 154.379507 
L 331.23656 150.877644 
L 331.724029 147.146077 
L 332.211499 145.178401 
L 332.698968 145.55637 
L 333.186437 150.889841 
L 333.673907 150.486643 
L 334.161376 149.481496 
L 334.648845 153.957939 
L 335.136314 151.503506 
L 335.623784 159.014162 
L 336.111253 158.097083 
L 336.598722 152.720043 
L 337.086192 159.051967 
L 337.573661 155.260101 
L 338.5486 156.293751 
L 339.036069 151.394662 
L 339.523538 150.821924 
L 340.011007 149.975353 
L 340.498477 146.242376 
L 340.985946 148.620674 
L 341.473415 151.954926 
L 341.960885 156.256175 
L 342.448354 151.81975 
L 342.935823 152.984389 
L 343.423292 156.318804 
L 343.910762 160.996103 
L 344.398231 156.631831 
L 344.8857 154.684659 
L 345.37317 154.849979 
L 345.860639 155.160348 
L 346.348108 147.881598 
L 346.835577 153.879923 
L 347.323047 155.009555 
L 347.810516 148.396298 
L 348.297985 143.906173 
L 348.785455 135.845432 
L 349.760393 142.872663 
L 350.247862 144.425532 
L 350.735332 140.149375 
L 351.222801 148.829978 
L 351.71027 147.218387 
L 352.19774 145.188891 
L 352.685209 142.428532 
L 353.172678 143.099522 
L 353.660147 144.402249 
L 354.147617 151.866734 
L 354.635086 153.62431 
L 355.122555 156.902714 
L 355.610025 151.480519 
L 356.097494 156.41378 
L 356.584963 159.14922 
L 357.072432 153.277352 
L 357.559902 158.061347 
L 358.047371 152.329327 
L 358.53484 155.823857 
L 359.02231 152.150271 
L 359.509779 156.924137 
L 359.997248 160.268177 
L 360.484717 160.833968 
L 360.972187 164.270309 
L 361.459656 159.998714 
L 361.947125 166.185715 
L 362.922064 174.31774 
L 363.409533 167.218548 
L 363.897002 173.388639 
L 364.384472 171.71773 
L 364.871941 173.014593 
L 365.35941 172.681364 
L 366.334349 169.020293 
L 366.821818 165.987476 
L 367.309287 160.799496 
L 367.796757 153.345454 
L 368.284226 152.387501 
L 368.771695 144.36677 
L 369.259165 134.401538 
L 369.746634 129.476424 
L 370.234103 127.417076 
L 370.721572 123.172035 
L 371.209042 122.097976 
L 371.696511 129.946714 
L 372.18398 131.669391 
L 372.67145 128.788065 
L 373.646388 124.338565 
L 374.133857 126.97425 
L 374.621327 136.599691 
L 375.108796 139.135441 
L 375.596265 147.240662 
L 376.083735 144.270995 
L 376.571204 148.515085 
L 377.058673 145.503801 
L 378.033612 135.920744 
L 378.521081 137.670759 
L 379.00855 134.642107 
L 379.49602 137.869279 
L 379.983489 136.584354 
L 380.470958 138.315738 
L 380.958428 139.479058 
L 381.445897 138.232407 
L 381.933366 132.048817 
L 382.420835 139.188539 
L 382.908305 149.215038 
L 383.883243 139.182467 
L 384.370713 146.36777 
L 384.858182 150.829659 
L 385.345651 146.145427 
L 385.83312 144.172304 
L 386.32059 138.948677 
L 386.808059 138.656197 
L 387.295528 128.559012 
L 387.782998 125.454927 
L 388.270467 118.682106 
L 388.757936 124.017209 
L 389.245405 121.796551 
L 389.732875 120.992302 
L 390.220344 128.672577 
L 390.707813 132.40273 
L 391.682752 124.117063 
L 392.170221 123.353918 
L 392.65769 122.146537 
L 393.14516 113.045612 
L 393.632629 118.213034 
L 394.120098 114.168797 
L 394.607568 118.658656 
L 395.095037 118.552654 
L 395.582506 119.009106 
L 396.069975 123.867361 
L 396.557445 123.795511 
L 397.044914 126.643678 
L 398.019853 119.41661 
L 398.994791 114.561176 
L 399.48226 130.301895 
L 399.96973 118.47659 
L 400.457199 119.902901 
L 400.944668 124.566495 
L 401.432138 127.612 
L 401.919607 125.634457 
L 402.894545 142.085745 
L 403.382015 143.136096 
L 403.869484 138.607818 
L 404.356953 146.962116 
L 404.844423 140.594501 
L 405.331892 132.409863 
L 405.819361 137.123835 
L 406.30683 137.537612 
L 406.7943 139.575749 
L 407.281769 144.464819 
L 408.744177 132.874328 
L 409.231646 132.046655 
L 410.206585 128.009162 
L 410.694054 115.669852 
L 411.181523 112.995791 
L 411.668993 107.969331 
L 412.156462 114.729159 
L 412.643931 113.527231 
L 413.1314 124.871476 
L 413.61887 124.330062 
L 414.106339 132.357792 
L 415.081278 120.160972 
L 415.568747 119.902642 
L 416.056216 117.682022 
L 416.543686 121.928867 
L 417.031155 128.286922 
L 417.518624 128.241473 
L 418.006093 121.561794 
L 418.493563 128.791939 
L 418.981032 121.461584 
L 419.468501 119.476692 
L 419.955971 123.91559 
L 420.44344 120.34109 
L 421.418378 134.321664 
L 421.905848 129.902838 
L 422.393317 134.58236 
L 422.880786 133.767072 
L 423.368256 131.934234 
L 423.855725 132.719925 
L 424.343194 122.837978 
L 424.830663 127.658168 
L 425.318133 131.343939 
L 425.805602 126.040017 
L 426.293071 116.094521 
L 426.780541 118.756131 
L 427.755479 128.991432 
L 428.242948 128.523161 
L 428.730418 127.251838 
L 429.217887 125.519885 
L 429.705356 126.092628 
L 430.192826 127.753726 
L 430.680295 125.423251 
L 431.167764 133.331455 
L 431.655233 125.172684 
L 432.142703 120.331758 
L 432.630172 117.382655 
L 433.117641 119.062002 
L 433.605111 116.363009 
L 434.09258 108.696442 
L 434.580049 106.283012 
L 435.554988 119.656041 
L 436.042457 118.229227 
L 436.529926 113.54749 
L 437.017396 112.857618 
L 437.504865 114.851502 
L 437.992334 121.687139 
L 438.479803 118.664045 
L 438.967273 120.911534 
L 439.454742 120.532131 
L 439.942211 125.231582 
L 440.429681 131.139456 
L 440.91715 141.692942 
L 441.892088 130.436339 
L 442.379558 136.9131 
L 442.867027 138.124544 
L 443.354496 140.305981 
L 443.841966 141.53816 
L 444.816904 133.008702 
L 445.304373 121.258864 
L 445.791843 126.574796 
L 446.279312 125.829574 
L 446.766781 132.38117 
L 447.254251 124.992475 
L 447.74172 126.244104 
L 448.229189 123.288189 
L 448.716658 116.294147 
L 449.204128 112.987281 
L 449.691597 115.830473 
L 450.179066 116.680462 
L 450.666536 114.172042 
L 451.154005 116.385865 
L 451.641474 119.970032 
L 452.128943 122.141323 
L 452.616413 121.469558 
L 453.103882 126.963987 
L 453.591351 127.677961 
L 454.078821 127.162209 
L 454.56629 130.381727 
L 455.053759 131.1317 
L 455.541229 129.73128 
L 456.028698 131.89919 
L 456.516167 131.526799 
L 457.003636 129.862051 
L 457.491106 126.928147 
L 457.978575 126.914539 
L 458.466044 123.689513 
L 458.953514 122.933293 
L 459.440983 121.959323 
L 459.928452 113.431136 
L 460.415921 111.217903 
L 461.39086 108.254771 
L 461.878329 108.757863 
L 462.365799 109.007275 
L 462.853268 112.292774 
L 463.340737 111.49509 
L 463.828206 115.103723 
L 464.315676 112.211058 
L 464.803145 108.053541 
L 465.290614 100.821615 
L 465.778084 95.374415 
L 466.265553 105.156243 
L 466.753022 103.066372 
L 467.240491 112.10991 
L 467.727961 114.450462 
L 468.21543 117.936432 
L 468.702899 111.97866 
L 469.677838 119.717092 
L 470.165307 117.190148 
L 470.652776 116.00648 
L 471.140246 118.989091 
L 471.627715 117.852026 
L 472.115184 112.833418 
L 472.602654 115.007494 
L 473.090123 117.77138 
L 473.577592 117.274262 
L 474.065061 106.637219 
L 474.552531 109.797613 
L 475.04 106.728582 
L 475.527469 109.302955 
L 476.014939 109.960487 
L 476.502408 108.997103 
L 476.989877 103.327473 
L 477.477346 107.645046 
L 477.964816 98.585295 
L 478.452285 105.989454 
L 478.939754 105.574043 
L 479.427224 99.221537 
L 479.914693 97.284485 
L 480.402162 94.638554 
L 480.889631 95.237743 
L 481.377101 94.97441 
L 481.86457 100.37902 
L 482.352039 109.964265 
L 482.839509 106.506093 
L 483.326978 108.987981 
L 483.814447 112.213444 
L 484.301916 117.074462 
L 484.789386 118.186489 
L 485.276855 122.754742 
L 485.764324 123.028697 
L 486.251794 123.85392 
L 486.739263 126.293337 
L 487.226732 121.191157 
L 488.201671 117.038913 
L 488.68914 118.297267 
L 489.176609 118.024428 
L 489.664079 126.090812 
L 490.151548 129.680668 
L 490.639017 130.160811 
L 491.126486 132.028423 
L 491.613956 138.278628 
L 492.101425 138.926915 
L 492.588894 141.430993 
L 493.076364 137.735543 
L 494.051302 123.439543 
L 494.538771 121.817522 
L 495.026241 121.254665 
L 495.51371 108.249752 
L 496.001179 109.330345 
L 496.488649 113.528496 
L 496.976118 115.536178 
L 497.463587 113.638614 
L 497.951057 117.417077 
L 498.438526 118.936518 
L 498.925995 131.249369 
L 499.413464 124.474896 
L 499.900934 129.270885 
L 500.388403 129.96548 
L 500.875872 131.048676 
L 501.363342 130.793574 
L 501.850811 124.729293 
L 502.33828 121.39665 
L 502.825749 123.030686 
L 503.800688 141.636996 
L 504.288157 139.332338 
L 504.775627 142.671162 
L 505.263096 135.913771 
L 505.750565 133.703535 
L 506.238034 128.798657 
L 506.725504 130.229433 
L 507.212973 127.997454 
L 507.700442 132.883413 
L 508.187912 136.084192 
L 508.675381 132.394338 
L 509.16285 132.626864 
L 509.650319 123.463251 
L 510.137789 119.33865 
L 510.625258 114.135803 
L 511.112727 115.243544 
L 511.600197 113.509709 
L 512.087666 106.624867 
L 512.575135 109.765309 
L 513.062604 104.524547 
L 513.550074 101.358326 
L 514.037543 108.780821 
L 514.525012 111.176702 
L 515.012482 108.404371 
L 515.499951 103.897368 
L 515.98742 106.436281 
L 516.474889 104.44507 
L 516.962359 106.416102 
L 517.449828 99.719025 
L 517.937297 103.891894 
L 518.424767 110.326949 
L 518.912236 106.558853 
L 519.399705 105.908214 
L 519.887174 110.852764 
L 520.374644 103.741948 
L 520.862113 107.987987 
L 521.349582 106.605476 
L 521.837052 115.88886 
L 522.324521 103.938596 
L 522.81199 111.827331 
L 523.299459 113.554839 
L 523.786929 118.223847 
L 524.274398 115.345386 
L 524.761867 118.133278 
L 525.249337 123.26222 
L 525.736806 119.578437 
L 526.224275 117.804209 
L 526.711744 118.674419 
L 527.199214 119.040466 
L 528.174152 109.889783 
L 528.661622 112.039543 
L 529.149091 116.344056 
L 529.63656 119.466641 
L 530.124029 128.71257 
L 530.611499 128.179212 
L 531.098968 117.598859 
L 532.561376 133.203193 
L 533.048845 136.145872 
L 533.536314 138.046585 
L 534.023784 131.871398 
L 534.511253 127.981215 
L 534.998722 126.25619 
L 535.486192 134.204615 
L 535.973661 130.364044 
L 536.46113 116.855147 
L 536.9486 115.922355 
L 537.436069 121.326257 
L 537.923538 122.077206 
L 538.411007 123.101393 
L 538.898477 125.319205 
L 539.385946 129.518116 
L 539.873415 130.706253 
L 540.360885 125.51088 
L 540.848354 130.097991 
L 541.335823 128.501098 
L 542.310762 131.142215 
L 542.798231 136.120929 
L 543.2857 139.054413 
L 543.77317 134.544568 
L 544.260639 141.221794 
L 545.235577 147.823765 
L 545.723047 146.718051 
L 546.210516 141.398753 
L 546.697985 138.697774 
L 547.185455 139.764307 
L 547.672924 144.886506 
L 548.160393 151.568181 
L 548.647862 148.275385 
L 549.135332 153.713527 
L 549.622801 150.704369 
L 550.11027 152.651536 
L 550.59774 155.601283 
L 551.085209 154.902044 
L 552.060147 162.038847 
L 552.547617 160.686951 
L 553.035086 160.614785 
L 553.522555 160.305049 
L 554.010025 154.858589 
L 554.497494 155.947714 
L 554.984963 162.462503 
L 555.959902 154.491519 
L 556.447371 150.699394 
L 556.93484 153.437071 
L 557.42231 149.519844 
L 557.909779 147.51665 
L 558.397248 144.016997 
L 558.884717 148.094704 
L 559.372187 157.043196 
L 559.859656 161.659764 
L 560.347125 162.456629 
L 560.834595 165.695498 
L 561.322064 166.815743 
L 561.809533 165.78702 
L 562.784472 157.644738 
L 563.75941 171.513872 
L 564.24688 169.992379 
L 564.734349 159.135982 
L 565.221818 154.806118 
L 565.709287 159.321697 
L 566.196757 166.354304 
L 566.684226 165.780809 
L 567.171695 171.082727 
L 567.659165 169.034472 
L 568.146634 165.417049 
L 568.634103 174.852405 
L 569.121572 169.592462 
L 569.609042 178.531117 
L 570.096511 176.339592 
L 570.58398 172.124392 
L 571.07145 175.854372 
L 571.558919 173.157636 
L 573.508796 155.16696 
L 573.996265 154.20102 
L 574.483735 152.173527 
L 574.971204 146.648901 
L 575.458673 151.147117 
L 575.946143 153.577212 
L 576.433612 147.532064 
L 576.921081 136.192103 
L 577.40855 135.942621 
L 577.89602 147.896417 
L 578.383489 147.896331 
L 578.870958 146.349156 
L 579.358428 143.548641 
L 579.845897 137.901157 
L 580.333366 134.177697 
L 580.820835 136.505329 
L 581.308305 137.810399 
L 582.283243 130.045697 
L 582.770713 131.673244 
L 583.258182 131.563636 
L 583.745651 121.491386 
L 584.23312 124.933945 
L 584.72059 122.871101 
L 585.208059 117.423695 
L 585.695528 113.83591 
L 586.182998 115.723164 
L 586.670467 118.397676 
L 587.157936 121.813247 
L 587.645405 126.868931 
L 588.132875 128.137372 
L 588.620344 120.31204 
L 589.107813 118.292868 
L 589.595283 118.989545 
L 590.082752 127.745776 
L 590.570221 121.381399 
L 591.05769 118.492333 
L 591.54516 116.946364 
L 592.032629 111.770928 
L 593.007568 125.010188 
L 593.495037 121.697102 
L 593.982506 125.624461 
L 594.469975 123.203307 
L 594.957445 130.392109 
L 595.444914 122.456564 
L 595.932383 120.98939 
L 596.419853 124.260661 
L 596.907322 120.135421 
L 597.394791 119.473503 
L 597.88226 121.431786 
L 598.36973 115.462723 
L 598.857199 119.230295 
L 599.344668 117.168775 
L 599.832138 112.120582 
L 600.319607 109.640911 
L 600.807076 102.963504 
L 601.294545 104.513721 
L 601.782015 105.388889 
L 602.269484 103.328518 
L 602.756953 112.702704 
L 603.244423 111.150324 
L 603.731892 115.816597 
L 604.219361 117.868662 
L 605.1943 121.261179 
L 605.681769 127.537018 
L 606.169238 130.144764 
L 606.656708 124.338758 
L 607.144177 120.918603 
L 607.631646 122.921497 
L 608.119115 121.605527 
L 609.094054 108.157346 
L 609.581523 105.748503 
L 610.068993 107.353995 
L 610.556462 102.350179 
L 611.043931 98.56644 
L 612.01887 103.957201 
L 612.506339 107.423395 
L 612.993808 105.026035 
L 613.481278 99.334813 
L 614.456216 92.252813 
L 614.943686 96.960378 
L 615.431155 97.024457 
L 615.918624 104.104682 
L 616.406093 105.457299 
L 616.893563 98.571493 
L 617.381032 98.4705 
L 617.868501 89.28 
L 618.355971 97.860974 
L 618.84344 94.897317 
L 619.330909 97.085659 
L 619.330909 97.085659 
" style="fill:none;stroke:#ff7f0e;stroke-linecap:square;stroke-width:2;"/>
   </g>
   <g id="patch_3">
    <path d="M 108 512.64 
L 108 69.12 
" style="fill:none;stroke:#000000;stroke-linecap:square;stroke-linejoin:miter;stroke-width:0.8;"/>
   </g>
   <g id="patch_4">
    <path d="M 643.68 512.64 
L 643.68 69.12 
" style="fill:none;stroke:#000000;stroke-linecap:square;stroke-linejoin:miter;stroke-width:0.8;"/>
   </g>
   <g id="patch_5">
    <path d="M 108 512.64 
L 643.68 512.64 
" style="fill:none;stroke:#000000;stroke-linecap:square;stroke-linejoin:miter;stroke-width:0.8;"/>
   </g>
   <g id="patch_6">
    <path d="M 108 69.12 
L 643.68 69.12 
" style="fill:none;stroke:#000000;stroke-linecap:square;stroke-linejoin:miter;stroke-width:0.8;"/>
   </g>
   <g id="text_16">
    <!-- Decaying Epsilon Greedy Agent for Ten-Armed Gaussian Bandit -->
    <g transform="translate(110.31075 63.12)scale(0.168 -0.168)">
     <defs>
      <path d="M 1259 4147 
L 1259 519 
L 2022 519 
Q 2988 519 3436 956 
Q 3884 1394 3884 2338 
Q 3884 3275 3436 3711 
Q 2988 4147 2022 4147 
L 1259 4147 
z
M 628 4666 
L 1925 4666 
Q 3281 4666 3915 4102 
Q 4550 3538 4550 2338 
Q 4550 1131 3912 565 
Q 3275 0 1925 0 
L 628 0 
L 628 4666 
z
" id="DejaVuSans-44" transform="scale(0.015625)"/>
      <path d="M 3122 3366 
L 3122 2828 
Q 2878 2963 2633 3030 
Q 2388 3097 2138 3097 
Q 1578 3097 1268 2742 
Q 959 2388 959 1747 
Q 959 1106 1268 751 
Q 1578 397 2138 397 
Q 2388 397 2633 464 
Q 2878 531 3122 666 
L 3122 134 
Q 2881 22 2623 -34 
Q 2366 -91 2075 -91 
Q 1284 -91 818 406 
Q 353 903 353 1747 
Q 353 2603 823 3093 
Q 1294 3584 2113 3584 
Q 2378 3584 2631 3529 
Q 2884 3475 3122 3366 
z
" id="DejaVuSans-63" transform="scale(0.015625)"/>
      <path d="M 2059 -325 
Q 1816 -950 1584 -1140 
Q 1353 -1331 966 -1331 
L 506 -1331 
L 506 -850 
L 844 -850 
Q 1081 -850 1212 -737 
Q 1344 -625 1503 -206 
L 1606 56 
L 191 3500 
L 800 3500 
L 1894 763 
L 2988 3500 
L 3597 3500 
L 2059 -325 
z
" id="DejaVuSans-79" transform="scale(0.015625)"/>
      <path d="M 3513 2113 
L 3513 0 
L 2938 0 
L 2938 2094 
Q 2938 2591 2744 2837 
Q 2550 3084 2163 3084 
Q 1697 3084 1428 2787 
Q 1159 2491 1159 1978 
L 1159 0 
L 581 0 
L 581 3500 
L 1159 3500 
L 1159 2956 
Q 1366 3272 1645 3428 
Q 1925 3584 2291 3584 
Q 2894 3584 3203 3211 
Q 3513 2838 3513 2113 
z
" id="DejaVuSans-6e" transform="scale(0.015625)"/>
      <path d="M 2906 1791 
Q 2906 2416 2648 2759 
Q 2391 3103 1925 3103 
Q 1463 3103 1205 2759 
Q 947 2416 947 1791 
Q 947 1169 1205 825 
Q 1463 481 1925 481 
Q 2391 481 2648 825 
Q 2906 1169 2906 1791 
z
M 3481 434 
Q 3481 -459 3084 -895 
Q 2688 -1331 1869 -1331 
Q 1566 -1331 1297 -1286 
Q 1028 -1241 775 -1147 
L 775 -588 
Q 1028 -725 1275 -790 
Q 1522 -856 1778 -856 
Q 2344 -856 2625 -561 
Q 2906 -266 2906 331 
L 2906 616 
Q 2728 306 2450 153 
Q 2172 0 1784 0 
Q 1141 0 747 490 
Q 353 981 353 1791 
Q 353 2603 747 3093 
Q 1141 3584 1784 3584 
Q 2172 3584 2450 3431 
Q 2728 3278 2906 2969 
L 2906 3500 
L 3481 3500 
L 3481 434 
z
" id="DejaVuSans-67" transform="scale(0.015625)"/>
      <path id="DejaVuSans-20" transform="scale(0.015625)"/>
      <path d="M 603 4863 
L 1178 4863 
L 1178 0 
L 603 0 
L 603 4863 
z
" id="DejaVuSans-6c" transform="scale(0.015625)"/>
      <path d="M 3809 666 
L 3809 1919 
L 2778 1919 
L 2778 2438 
L 4434 2438 
L 4434 434 
Q 4069 175 3628 42 
Q 3188 -91 2688 -91 
Q 1594 -91 976 548 
Q 359 1188 359 2328 
Q 359 3472 976 4111 
Q 1594 4750 2688 4750 
Q 3144 4750 3555 4637 
Q 3966 4525 4313 4306 
L 4313 3634 
Q 3963 3931 3569 4081 
Q 3175 4231 2741 4231 
Q 1884 4231 1454 3753 
Q 1025 3275 1025 2328 
Q 1025 1384 1454 906 
Q 1884 428 2741 428 
Q 3075 428 3337 486 
Q 3600 544 3809 666 
z
" id="DejaVuSans-47" transform="scale(0.015625)"/>
      <path d="M 2188 4044 
L 1331 1722 
L 3047 1722 
L 2188 4044 
z
M 1831 4666 
L 2547 4666 
L 4325 0 
L 3669 0 
L 3244 1197 
L 1141 1197 
L 716 0 
L 50 0 
L 1831 4666 
z
" id="DejaVuSans-41" transform="scale(0.015625)"/>
      <path d="M 1172 4494 
L 1172 3500 
L 2356 3500 
L 2356 3053 
L 1172 3053 
L 1172 1153 
Q 1172 725 1289 603 
Q 1406 481 1766 481 
L 2356 481 
L 2356 0 
L 1766 0 
Q 1100 0 847 248 
Q 594 497 594 1153 
L 594 3053 
L 172 3053 
L 172 3500 
L 594 3500 
L 594 4494 
L 1172 4494 
z
" id="DejaVuSans-74" transform="scale(0.015625)"/>
      <path d="M 2375 4863 
L 2375 4384 
L 1825 4384 
Q 1516 4384 1395 4259 
Q 1275 4134 1275 3809 
L 1275 3500 
L 2222 3500 
L 2222 3053 
L 1275 3053 
L 1275 0 
L 697 0 
L 697 3053 
L 147 3053 
L 147 3500 
L 697 3500 
L 697 3744 
Q 697 4328 969 4595 
Q 1241 4863 1831 4863 
L 2375 4863 
z
" id="DejaVuSans-66" transform="scale(0.015625)"/>
      <path d="M -19 4666 
L 3928 4666 
L 3928 4134 
L 2272 4134 
L 2272 0 
L 1638 0 
L 1638 4134 
L -19 4134 
L -19 4666 
z
" id="DejaVuSans-54" transform="scale(0.015625)"/>
      <path d="M 313 2009 
L 1997 2009 
L 1997 1497 
L 313 1497 
L 313 2009 
z
" id="DejaVuSans-2d" transform="scale(0.015625)"/>
      <path d="M 3328 2828 
Q 3544 3216 3844 3400 
Q 4144 3584 4550 3584 
Q 5097 3584 5394 3201 
Q 5691 2819 5691 2113 
L 5691 0 
L 5113 0 
L 5113 2094 
Q 5113 2597 4934 2840 
Q 4756 3084 4391 3084 
Q 3944 3084 3684 2787 
Q 3425 2491 3425 1978 
L 3425 0 
L 2847 0 
L 2847 2094 
Q 2847 2600 2669 2842 
Q 2491 3084 2119 3084 
Q 1678 3084 1418 2786 
Q 1159 2488 1159 1978 
L 1159 0 
L 581 0 
L 581 3500 
L 1159 3500 
L 1159 2956 
Q 1356 3278 1631 3431 
Q 1906 3584 2284 3584 
Q 2666 3584 2933 3390 
Q 3200 3197 3328 2828 
z
" id="DejaVuSans-6d" transform="scale(0.015625)"/>
      <path d="M 544 1381 
L 544 3500 
L 1119 3500 
L 1119 1403 
Q 1119 906 1312 657 
Q 1506 409 1894 409 
Q 2359 409 2629 706 
Q 2900 1003 2900 1516 
L 2900 3500 
L 3475 3500 
L 3475 0 
L 2900 0 
L 2900 538 
Q 2691 219 2414 64 
Q 2138 -91 1772 -91 
Q 1169 -91 856 284 
Q 544 659 544 1381 
z
M 1991 3584 
L 1991 3584 
z
" id="DejaVuSans-75" transform="scale(0.015625)"/>
      <path d="M 1259 2228 
L 1259 519 
L 2272 519 
Q 2781 519 3026 730 
Q 3272 941 3272 1375 
Q 3272 1813 3026 2020 
Q 2781 2228 2272 2228 
L 1259 2228 
z
M 1259 4147 
L 1259 2741 
L 2194 2741 
Q 2656 2741 2882 2914 
Q 3109 3088 3109 3444 
Q 3109 3797 2882 3972 
Q 2656 4147 2194 4147 
L 1259 4147 
z
M 628 4666 
L 2241 4666 
Q 2963 4666 3353 4366 
Q 3744 4066 3744 3513 
Q 3744 3084 3544 2831 
Q 3344 2578 2956 2516 
Q 3422 2416 3680 2098 
Q 3938 1781 3938 1306 
Q 3938 681 3513 340 
Q 3088 0 2303 0 
L 628 0 
L 628 4666 
z
" id="DejaVuSans-42" transform="scale(0.015625)"/>
     </defs>
     <use xlink:href="#DejaVuSans-44"/>
     <use x="77.001953" xlink:href="#DejaVuSans-65"/>
     <use x="138.525391" xlink:href="#DejaVuSans-63"/>
     <use x="193.505859" xlink:href="#DejaVuSans-61"/>
     <use x="254.785156" xlink:href="#DejaVuSans-79"/>
     <use x="313.964844" xlink:href="#DejaVuSans-69"/>
     <use x="341.748047" xlink:href="#DejaVuSans-6e"/>
     <use x="405.126953" xlink:href="#DejaVuSans-67"/>
     <use x="468.603516" xlink:href="#DejaVuSans-20"/>
     <use x="500.390625" xlink:href="#DejaVuSans-45"/>
     <use x="563.574219" xlink:href="#DejaVuSans-70"/>
     <use x="627.050781" xlink:href="#DejaVuSans-73"/>
     <use x="679.150391" xlink:href="#DejaVuSans-69"/>
     <use x="706.933594" xlink:href="#DejaVuSans-6c"/>
     <use x="734.716797" xlink:href="#DejaVuSans-6f"/>
     <use x="795.898438" xlink:href="#DejaVuSans-6e"/>
     <use x="859.277344" xlink:href="#DejaVuSans-20"/>
     <use x="891.064453" xlink:href="#DejaVuSans-47"/>
     <use x="968.554688" xlink:href="#DejaVuSans-72"/>
     <use x="1007.417969" xlink:href="#DejaVuSans-65"/>
     <use x="1068.941406" xlink:href="#DejaVuSans-65"/>
     <use x="1130.464844" xlink:href="#DejaVuSans-64"/>
     <use x="1193.941406" xlink:href="#DejaVuSans-79"/>
     <use x="1253.121094" xlink:href="#DejaVuSans-20"/>
     <use x="1284.908203" xlink:href="#DejaVuSans-41"/>
     <use x="1353.316406" xlink:href="#DejaVuSans-67"/>
     <use x="1416.792969" xlink:href="#DejaVuSans-65"/>
     <use x="1478.316406" xlink:href="#DejaVuSans-6e"/>
     <use x="1541.695312" xlink:href="#DejaVuSans-74"/>
     <use x="1580.904297" xlink:href="#DejaVuSans-20"/>
     <use x="1612.691406" xlink:href="#DejaVuSans-66"/>
     <use x="1647.896484" xlink:href="#DejaVuSans-6f"/>
     <use x="1709.078125" xlink:href="#DejaVuSans-72"/>
     <use x="1750.191406" xlink:href="#DejaVuSans-20"/>
     <use x="1781.978516" xlink:href="#DejaVuSans-54"/>
     <use x="1826.0625" xlink:href="#DejaVuSans-65"/>
     <use x="1887.585938" xlink:href="#DejaVuSans-6e"/>
     <use x="1950.964844" xlink:href="#DejaVuSans-2d"/>
     <use x="1984.798828" xlink:href="#DejaVuSans-41"/>
     <use x="2053.207031" xlink:href="#DejaVuSans-72"/>
     <use x="2092.570312" xlink:href="#DejaVuSans-6d"/>
     <use x="2189.982422" xlink:href="#DejaVuSans-65"/>
     <use x="2251.505859" xlink:href="#DejaVuSans-64"/>
     <use x="2314.982422" xlink:href="#DejaVuSans-20"/>
     <use x="2346.769531" xlink:href="#DejaVuSans-47"/>
     <use x="2424.259766" xlink:href="#DejaVuSans-61"/>
     <use x="2485.539062" xlink:href="#DejaVuSans-75"/>
     <use x="2548.917969" xlink:href="#DejaVuSans-73"/>
     <use x="2601.017578" xlink:href="#DejaVuSans-73"/>
     <use x="2653.117188" xlink:href="#DejaVuSans-69"/>
     <use x="2680.900391" xlink:href="#DejaVuSans-61"/>
     <use x="2742.179688" xlink:href="#DejaVuSans-6e"/>
     <use x="2805.558594" xlink:href="#DejaVuSans-20"/>
     <use x="2837.345703" xlink:href="#DejaVuSans-42"/>
     <use x="2905.949219" xlink:href="#DejaVuSans-61"/>
     <use x="2967.228516" xlink:href="#DejaVuSans-6e"/>
     <use x="3030.607422" xlink:href="#DejaVuSans-64"/>
     <use x="3094.083984" xlink:href="#DejaVuSans-69"/>
     <use x="3121.867188" xlink:href="#DejaVuSans-74"/>
    </g>
   </g>
   <g id="legend_1">
    <g id="patch_7">
     <path d="M 653.48 313.529375 
L 824.137813 313.529375 
Q 826.937813 313.529375 826.937813 310.729375 
L 826.937813 271.030625 
Q 826.937813 268.230625 824.137813 268.230625 
L 653.48 268.230625 
Q 650.68 268.230625 650.68 271.030625 
L 650.68 310.729375 
Q 650.68 313.529375 653.48 313.529375 
z
" style="fill:#ffffff;opacity:0.8;stroke:#cccccc;stroke-linejoin:miter;"/>
    </g>
    <g id="line2d_16">
     <path d="M 656.28 279.568438 
L 684.28 279.568438 
" style="fill:none;stroke:#1f77b4;stroke-linecap:square;stroke-width:2;"/>
    </g>
    <g id="line2d_17"/>
    <g id="text_17">
     <!-- Decay type = lin -->
     <g transform="translate(695.48 284.468437)scale(0.14 -0.14)">
      <defs>
       <path d="M 678 2906 
L 4684 2906 
L 4684 2381 
L 678 2381 
L 678 2906 
z
M 678 1631 
L 4684 1631 
L 4684 1100 
L 678 1100 
L 678 1631 
z
" id="DejaVuSans-3d" transform="scale(0.015625)"/>
      </defs>
      <use xlink:href="#DejaVuSans-44"/>
      <use x="77.001953" xlink:href="#DejaVuSans-65"/>
      <use x="138.525391" xlink:href="#DejaVuSans-63"/>
      <use x="193.505859" xlink:href="#DejaVuSans-61"/>
      <use x="254.785156" xlink:href="#DejaVuSans-79"/>
      <use x="313.964844" xlink:href="#DejaVuSans-20"/>
      <use x="345.751953" xlink:href="#DejaVuSans-74"/>
      <use x="384.960938" xlink:href="#DejaVuSans-79"/>
      <use x="444.140625" xlink:href="#DejaVuSans-70"/>
      <use x="507.617188" xlink:href="#DejaVuSans-65"/>
      <use x="569.140625" xlink:href="#DejaVuSans-20"/>
      <use x="600.927734" xlink:href="#DejaVuSans-3d"/>
      <use x="684.716797" xlink:href="#DejaVuSans-20"/>
      <use x="716.503906" xlink:href="#DejaVuSans-6c"/>
      <use x="744.287109" xlink:href="#DejaVuSans-69"/>
      <use x="772.070312" xlink:href="#DejaVuSans-6e"/>
     </g>
    </g>
    <g id="line2d_18">
     <path d="M 656.28 300.117813 
L 684.28 300.117813 
" style="fill:none;stroke:#ff7f0e;stroke-linecap:square;stroke-width:2;"/>
    </g>
    <g id="line2d_19"/>
    <g id="text_18">
     <!-- Decay type = exp -->
     <g transform="translate(695.48 305.017812)scale(0.14 -0.14)">
      <defs>
       <path d="M 3513 3500 
L 2247 1797 
L 3578 0 
L 2900 0 
L 1881 1375 
L 863 0 
L 184 0 
L 1544 1831 
L 300 3500 
L 978 3500 
L 1906 2253 
L 2834 3500 
L 3513 3500 
z
" id="DejaVuSans-78" transform="scale(0.015625)"/>
      </defs>
      <use xlink:href="#DejaVuSans-44"/>
      <use x="77.001953" xlink:href="#DejaVuSans-65"/>
      <use x="138.525391" xlink:href="#DejaVuSans-63"/>
      <use x="193.505859" xlink:href="#DejaVuSans-61"/>
      <use x="254.785156" xlink:href="#DejaVuSans-79"/>
      <use x="313.964844" xlink:href="#DejaVuSans-20"/>
      <use x="345.751953" xlink:href="#DejaVuSans-74"/>
      <use x="384.960938" xlink:href="#DejaVuSans-79"/>
      <use x="444.140625" xlink:href="#DejaVuSans-70"/>
      <use x="507.617188" xlink:href="#DejaVuSans-65"/>
      <use x="569.140625" xlink:href="#DejaVuSans-20"/>
      <use x="600.927734" xlink:href="#DejaVuSans-3d"/>
      <use x="684.716797" xlink:href="#DejaVuSans-20"/>
      <use x="716.503906" xlink:href="#DejaVuSans-65"/>
      <use x="776.277344" xlink:href="#DejaVuSans-78"/>
      <use x="835.457031" xlink:href="#DejaVuSans-70"/>
     </g>
    </g>
   </g>
  </g>
 </g>
 <defs>
  <clipPath id="p84be33d861">
   <rect height="443.52" width="535.68" x="108" y="69.12"/>
  </clipPath>
 </defs>
</svg>
