<?xml version="1.0" encoding="utf-8" standalone="no"?>
<!DOCTYPE svg PUBLIC "-//W3C//DTD SVG 1.1//EN"
  "http://www.w3.org/Graphics/SVG/1.1/DTD/svg11.dtd">
<svg height="576pt" version="1.1" viewBox="0 0 864 576" width="864pt" xmlns="http://www.w3.org/2000/svg" xmlns:xlink="http://www.w3.org/1999/xlink">
 <metadata>
  <rdf:RDF xmlns:cc="http://creativecommons.org/ns#" xmlns:dc="http://purl.org/dc/elements/1.1/" xmlns:rdf="http://www.w3.org/1999/02/22-rdf-syntax-ns#">
   <cc:Work>
    <dc:type rdf:resource="http://purl.org/dc/dcmitype/StillImage"/>
    <dc:date>2021-09-11T13:21:27.002201</dc:date>
    <dc:format>image/svg+xml</dc:format>
    <dc:creator>
     <cc:Agent>
      <dc:title>Matplotlib v3.4.3, https://matplotlib.org/</dc:title>
     </cc:Agent>
    </dc:creator>
   </cc:Work>
  </rdf:RDF>
 </metadata>
 <defs>
  <style type="text/css">*{stroke-linecap:butt;stroke-linejoin:round;}</style>
 </defs>
 <g id="figure_1">
  <g id="patch_1">
   <path d="M 0 576 
L 864 576 
L 864 0 
L 0 0 
z
" style="fill:#ffffff;"/>
  </g>
  <g id="axes_1">
   <g id="patch_2">
    <path d="M 108 512.64 
L 710.64 512.64 
L 710.64 69.12 
L 108 69.12 
z
" style="fill:#ffffff;"/>
   </g>
   <g id="matplotlib.axis_1">
    <g id="xtick_1">
     <g id="line2d_1">
      <defs>
       <path d="M 0 0 
L 0 3.5 
" id="ma5b60fe4a0" style="stroke:#000000;stroke-width:0.8;"/>
      </defs>
      <g>
       <use style="stroke:#000000;stroke-width:0.8;" x="135.392727" xlink:href="#ma5b60fe4a0" y="512.64"/>
      </g>
     </g>
     <g id="text_1">
      <!-- 0 -->
      <g transform="translate(130.302727 531.7975)scale(0.16 -0.16)">
       <defs>
        <path d="M 2034 4250 
Q 1547 4250 1301 3770 
Q 1056 3291 1056 2328 
Q 1056 1369 1301 889 
Q 1547 409 2034 409 
Q 2525 409 2770 889 
Q 3016 1369 3016 2328 
Q 3016 3291 2770 3770 
Q 2525 4250 2034 4250 
z
M 2034 4750 
Q 2819 4750 3233 4129 
Q 3647 3509 3647 2328 
Q 3647 1150 3233 529 
Q 2819 -91 2034 -91 
Q 1250 -91 836 529 
Q 422 1150 422 2328 
Q 422 3509 836 4129 
Q 1250 4750 2034 4750 
z
" id="DejaVuSans-30" transform="scale(0.015625)"/>
       </defs>
       <use xlink:href="#DejaVuSans-30"/>
      </g>
     </g>
    </g>
    <g id="xtick_2">
     <g id="line2d_2">
      <g>
       <use style="stroke:#000000;stroke-width:0.8;" x="245.073317" xlink:href="#ma5b60fe4a0" y="512.64"/>
      </g>
     </g>
     <g id="text_2">
      <!-- 200 -->
      <g transform="translate(229.803317 531.7975)scale(0.16 -0.16)">
       <defs>
        <path d="M 1228 531 
L 3431 531 
L 3431 0 
L 469 0 
L 469 531 
Q 828 903 1448 1529 
Q 2069 2156 2228 2338 
Q 2531 2678 2651 2914 
Q 2772 3150 2772 3378 
Q 2772 3750 2511 3984 
Q 2250 4219 1831 4219 
Q 1534 4219 1204 4116 
Q 875 4013 500 3803 
L 500 4441 
Q 881 4594 1212 4672 
Q 1544 4750 1819 4750 
Q 2544 4750 2975 4387 
Q 3406 4025 3406 3419 
Q 3406 3131 3298 2873 
Q 3191 2616 2906 2266 
Q 2828 2175 2409 1742 
Q 1991 1309 1228 531 
z
" id="DejaVuSans-32" transform="scale(0.015625)"/>
       </defs>
       <use xlink:href="#DejaVuSans-32"/>
       <use x="63.623047" xlink:href="#DejaVuSans-30"/>
       <use x="127.246094" xlink:href="#DejaVuSans-30"/>
      </g>
     </g>
    </g>
    <g id="xtick_3">
     <g id="line2d_3">
      <g>
       <use style="stroke:#000000;stroke-width:0.8;" x="354.753907" xlink:href="#ma5b60fe4a0" y="512.64"/>
      </g>
     </g>
     <g id="text_3">
      <!-- 400 -->
      <g transform="translate(339.483907 531.7975)scale(0.16 -0.16)">
       <defs>
        <path d="M 2419 4116 
L 825 1625 
L 2419 1625 
L 2419 4116 
z
M 2253 4666 
L 3047 4666 
L 3047 1625 
L 3713 1625 
L 3713 1100 
L 3047 1100 
L 3047 0 
L 2419 0 
L 2419 1100 
L 313 1100 
L 313 1709 
L 2253 4666 
z
" id="DejaVuSans-34" transform="scale(0.015625)"/>
       </defs>
       <use xlink:href="#DejaVuSans-34"/>
       <use x="63.623047" xlink:href="#DejaVuSans-30"/>
       <use x="127.246094" xlink:href="#DejaVuSans-30"/>
      </g>
     </g>
    </g>
    <g id="xtick_4">
     <g id="line2d_4">
      <g>
       <use style="stroke:#000000;stroke-width:0.8;" x="464.434496" xlink:href="#ma5b60fe4a0" y="512.64"/>
      </g>
     </g>
     <g id="text_4">
      <!-- 600 -->
      <g transform="translate(449.164496 531.7975)scale(0.16 -0.16)">
       <defs>
        <path d="M 2113 2584 
Q 1688 2584 1439 2293 
Q 1191 2003 1191 1497 
Q 1191 994 1439 701 
Q 1688 409 2113 409 
Q 2538 409 2786 701 
Q 3034 994 3034 1497 
Q 3034 2003 2786 2293 
Q 2538 2584 2113 2584 
z
M 3366 4563 
L 3366 3988 
Q 3128 4100 2886 4159 
Q 2644 4219 2406 4219 
Q 1781 4219 1451 3797 
Q 1122 3375 1075 2522 
Q 1259 2794 1537 2939 
Q 1816 3084 2150 3084 
Q 2853 3084 3261 2657 
Q 3669 2231 3669 1497 
Q 3669 778 3244 343 
Q 2819 -91 2113 -91 
Q 1303 -91 875 529 
Q 447 1150 447 2328 
Q 447 3434 972 4092 
Q 1497 4750 2381 4750 
Q 2619 4750 2861 4703 
Q 3103 4656 3366 4563 
z
" id="DejaVuSans-36" transform="scale(0.015625)"/>
       </defs>
       <use xlink:href="#DejaVuSans-36"/>
       <use x="63.623047" xlink:href="#DejaVuSans-30"/>
       <use x="127.246094" xlink:href="#DejaVuSans-30"/>
      </g>
     </g>
    </g>
    <g id="xtick_5">
     <g id="line2d_5">
      <g>
       <use style="stroke:#000000;stroke-width:0.8;" x="574.115086" xlink:href="#ma5b60fe4a0" y="512.64"/>
      </g>
     </g>
     <g id="text_5">
      <!-- 800 -->
      <g transform="translate(558.845086 531.7975)scale(0.16 -0.16)">
       <defs>
        <path d="M 2034 2216 
Q 1584 2216 1326 1975 
Q 1069 1734 1069 1313 
Q 1069 891 1326 650 
Q 1584 409 2034 409 
Q 2484 409 2743 651 
Q 3003 894 3003 1313 
Q 3003 1734 2745 1975 
Q 2488 2216 2034 2216 
z
M 1403 2484 
Q 997 2584 770 2862 
Q 544 3141 544 3541 
Q 544 4100 942 4425 
Q 1341 4750 2034 4750 
Q 2731 4750 3128 4425 
Q 3525 4100 3525 3541 
Q 3525 3141 3298 2862 
Q 3072 2584 2669 2484 
Q 3125 2378 3379 2068 
Q 3634 1759 3634 1313 
Q 3634 634 3220 271 
Q 2806 -91 2034 -91 
Q 1263 -91 848 271 
Q 434 634 434 1313 
Q 434 1759 690 2068 
Q 947 2378 1403 2484 
z
M 1172 3481 
Q 1172 3119 1398 2916 
Q 1625 2713 2034 2713 
Q 2441 2713 2670 2916 
Q 2900 3119 2900 3481 
Q 2900 3844 2670 4047 
Q 2441 4250 2034 4250 
Q 1625 4250 1398 4047 
Q 1172 3844 1172 3481 
z
" id="DejaVuSans-38" transform="scale(0.015625)"/>
       </defs>
       <use xlink:href="#DejaVuSans-38"/>
       <use x="63.623047" xlink:href="#DejaVuSans-30"/>
       <use x="127.246094" xlink:href="#DejaVuSans-30"/>
      </g>
     </g>
    </g>
    <g id="xtick_6">
     <g id="line2d_6">
      <g>
       <use style="stroke:#000000;stroke-width:0.8;" x="683.795676" xlink:href="#ma5b60fe4a0" y="512.64"/>
      </g>
     </g>
     <g id="text_6">
      <!-- 1000 -->
      <g transform="translate(663.435676 531.7975)scale(0.16 -0.16)">
       <defs>
        <path d="M 794 531 
L 1825 531 
L 1825 4091 
L 703 3866 
L 703 4441 
L 1819 4666 
L 2450 4666 
L 2450 531 
L 3481 531 
L 3481 0 
L 794 0 
L 794 531 
z
" id="DejaVuSans-31" transform="scale(0.015625)"/>
       </defs>
       <use xlink:href="#DejaVuSans-31"/>
       <use x="63.623047" xlink:href="#DejaVuSans-30"/>
       <use x="127.246094" xlink:href="#DejaVuSans-30"/>
       <use x="190.869141" xlink:href="#DejaVuSans-30"/>
      </g>
     </g>
    </g>
    <g id="text_7">
     <!-- Episodes -->
     <g transform="translate(373.7325 551.2825)scale(0.16 -0.16)">
      <defs>
       <path d="M 628 4666 
L 3578 4666 
L 3578 4134 
L 1259 4134 
L 1259 2753 
L 3481 2753 
L 3481 2222 
L 1259 2222 
L 1259 531 
L 3634 531 
L 3634 0 
L 628 0 
L 628 4666 
z
" id="DejaVuSans-45" transform="scale(0.015625)"/>
       <path d="M 1159 525 
L 1159 -1331 
L 581 -1331 
L 581 3500 
L 1159 3500 
L 1159 2969 
Q 1341 3281 1617 3432 
Q 1894 3584 2278 3584 
Q 2916 3584 3314 3078 
Q 3713 2572 3713 1747 
Q 3713 922 3314 415 
Q 2916 -91 2278 -91 
Q 1894 -91 1617 61 
Q 1341 213 1159 525 
z
M 3116 1747 
Q 3116 2381 2855 2742 
Q 2594 3103 2138 3103 
Q 1681 3103 1420 2742 
Q 1159 2381 1159 1747 
Q 1159 1113 1420 752 
Q 1681 391 2138 391 
Q 2594 391 2855 752 
Q 3116 1113 3116 1747 
z
" id="DejaVuSans-70" transform="scale(0.015625)"/>
       <path d="M 603 3500 
L 1178 3500 
L 1178 0 
L 603 0 
L 603 3500 
z
M 603 4863 
L 1178 4863 
L 1178 4134 
L 603 4134 
L 603 4863 
z
" id="DejaVuSans-69" transform="scale(0.015625)"/>
       <path d="M 2834 3397 
L 2834 2853 
Q 2591 2978 2328 3040 
Q 2066 3103 1784 3103 
Q 1356 3103 1142 2972 
Q 928 2841 928 2578 
Q 928 2378 1081 2264 
Q 1234 2150 1697 2047 
L 1894 2003 
Q 2506 1872 2764 1633 
Q 3022 1394 3022 966 
Q 3022 478 2636 193 
Q 2250 -91 1575 -91 
Q 1294 -91 989 -36 
Q 684 19 347 128 
L 347 722 
Q 666 556 975 473 
Q 1284 391 1588 391 
Q 1994 391 2212 530 
Q 2431 669 2431 922 
Q 2431 1156 2273 1281 
Q 2116 1406 1581 1522 
L 1381 1569 
Q 847 1681 609 1914 
Q 372 2147 372 2553 
Q 372 3047 722 3315 
Q 1072 3584 1716 3584 
Q 2034 3584 2315 3537 
Q 2597 3491 2834 3397 
z
" id="DejaVuSans-73" transform="scale(0.015625)"/>
       <path d="M 1959 3097 
Q 1497 3097 1228 2736 
Q 959 2375 959 1747 
Q 959 1119 1226 758 
Q 1494 397 1959 397 
Q 2419 397 2687 759 
Q 2956 1122 2956 1747 
Q 2956 2369 2687 2733 
Q 2419 3097 1959 3097 
z
M 1959 3584 
Q 2709 3584 3137 3096 
Q 3566 2609 3566 1747 
Q 3566 888 3137 398 
Q 2709 -91 1959 -91 
Q 1206 -91 779 398 
Q 353 888 353 1747 
Q 353 2609 779 3096 
Q 1206 3584 1959 3584 
z
" id="DejaVuSans-6f" transform="scale(0.015625)"/>
       <path d="M 2906 2969 
L 2906 4863 
L 3481 4863 
L 3481 0 
L 2906 0 
L 2906 525 
Q 2725 213 2448 61 
Q 2172 -91 1784 -91 
Q 1150 -91 751 415 
Q 353 922 353 1747 
Q 353 2572 751 3078 
Q 1150 3584 1784 3584 
Q 2172 3584 2448 3432 
Q 2725 3281 2906 2969 
z
M 947 1747 
Q 947 1113 1208 752 
Q 1469 391 1925 391 
Q 2381 391 2643 752 
Q 2906 1113 2906 1747 
Q 2906 2381 2643 2742 
Q 2381 3103 1925 3103 
Q 1469 3103 1208 2742 
Q 947 2381 947 1747 
z
" id="DejaVuSans-64" transform="scale(0.015625)"/>
       <path d="M 3597 1894 
L 3597 1613 
L 953 1613 
Q 991 1019 1311 708 
Q 1631 397 2203 397 
Q 2534 397 2845 478 
Q 3156 559 3463 722 
L 3463 178 
Q 3153 47 2828 -22 
Q 2503 -91 2169 -91 
Q 1331 -91 842 396 
Q 353 884 353 1716 
Q 353 2575 817 3079 
Q 1281 3584 2069 3584 
Q 2775 3584 3186 3129 
Q 3597 2675 3597 1894 
z
M 3022 2063 
Q 3016 2534 2758 2815 
Q 2500 3097 2075 3097 
Q 1594 3097 1305 2825 
Q 1016 2553 972 2059 
L 3022 2063 
z
" id="DejaVuSans-65" transform="scale(0.015625)"/>
      </defs>
      <use xlink:href="#DejaVuSans-45"/>
      <use x="63.183594" xlink:href="#DejaVuSans-70"/>
      <use x="126.660156" xlink:href="#DejaVuSans-69"/>
      <use x="154.443359" xlink:href="#DejaVuSans-73"/>
      <use x="206.542969" xlink:href="#DejaVuSans-6f"/>
      <use x="267.724609" xlink:href="#DejaVuSans-64"/>
      <use x="331.201172" xlink:href="#DejaVuSans-65"/>
      <use x="392.724609" xlink:href="#DejaVuSans-73"/>
     </g>
    </g>
   </g>
   <g id="matplotlib.axis_2">
    <g id="ytick_1">
     <g id="line2d_7">
      <defs>
       <path d="M 0 0 
L -3.5 0 
" id="mbe9d383f88" style="stroke:#000000;stroke-width:0.8;"/>
      </defs>
      <g>
       <use style="stroke:#000000;stroke-width:0.8;" x="108" xlink:href="#mbe9d383f88" y="430.52969"/>
      </g>
     </g>
     <g id="text_8">
      <!-- −1 -->
      <g transform="translate(77.4125 436.60844)scale(0.16 -0.16)">
       <defs>
        <path d="M 678 2272 
L 4684 2272 
L 4684 1741 
L 678 1741 
L 678 2272 
z
" id="DejaVuSans-2212" transform="scale(0.015625)"/>
       </defs>
       <use xlink:href="#DejaVuSans-2212"/>
       <use x="83.789062" xlink:href="#DejaVuSans-31"/>
      </g>
     </g>
    </g>
    <g id="ytick_2">
     <g id="line2d_8">
      <g>
       <use style="stroke:#000000;stroke-width:0.8;" x="108" xlink:href="#mbe9d383f88" y="340.962566"/>
      </g>
     </g>
     <g id="text_9">
      <!-- 0 -->
      <g transform="translate(90.82 347.041316)scale(0.16 -0.16)">
       <use xlink:href="#DejaVuSans-30"/>
      </g>
     </g>
    </g>
    <g id="ytick_3">
     <g id="line2d_9">
      <g>
       <use style="stroke:#000000;stroke-width:0.8;" x="108" xlink:href="#mbe9d383f88" y="251.395442"/>
      </g>
     </g>
     <g id="text_10">
      <!-- 1 -->
      <g transform="translate(90.82 257.474192)scale(0.16 -0.16)">
       <use xlink:href="#DejaVuSans-31"/>
      </g>
     </g>
    </g>
    <g id="ytick_4">
     <g id="line2d_10">
      <g>
       <use style="stroke:#000000;stroke-width:0.8;" x="108" xlink:href="#mbe9d383f88" y="161.828318"/>
      </g>
     </g>
     <g id="text_11">
      <!-- 2 -->
      <g transform="translate(90.82 167.907068)scale(0.16 -0.16)">
       <use xlink:href="#DejaVuSans-32"/>
      </g>
     </g>
    </g>
    <g id="ytick_5">
     <g id="line2d_11">
      <g>
       <use style="stroke:#000000;stroke-width:0.8;" x="108" xlink:href="#mbe9d383f88" y="72.261194"/>
      </g>
     </g>
     <g id="text_12">
      <!-- 3 -->
      <g transform="translate(90.82 78.339944)scale(0.16 -0.16)">
       <defs>
        <path d="M 2597 2516 
Q 3050 2419 3304 2112 
Q 3559 1806 3559 1356 
Q 3559 666 3084 287 
Q 2609 -91 1734 -91 
Q 1441 -91 1130 -33 
Q 819 25 488 141 
L 488 750 
Q 750 597 1062 519 
Q 1375 441 1716 441 
Q 2309 441 2620 675 
Q 2931 909 2931 1356 
Q 2931 1769 2642 2001 
Q 2353 2234 1838 2234 
L 1294 2234 
L 1294 2753 
L 1863 2753 
Q 2328 2753 2575 2939 
Q 2822 3125 2822 3475 
Q 2822 3834 2567 4026 
Q 2313 4219 1838 4219 
Q 1578 4219 1281 4162 
Q 984 4106 628 3988 
L 628 4550 
Q 988 4650 1302 4700 
Q 1616 4750 1894 4750 
Q 2613 4750 3031 4423 
Q 3450 4097 3450 3541 
Q 3450 3153 3228 2886 
Q 3006 2619 2597 2516 
z
" id="DejaVuSans-33" transform="scale(0.015625)"/>
       </defs>
       <use xlink:href="#DejaVuSans-33"/>
      </g>
     </g>
    </g>
    <g id="text_13">
     <!-- Q function Estimates -->
     <g transform="translate(70.085 374.44375)rotate(-90)scale(0.16 -0.16)">
      <defs>
       <path d="M 2522 4238 
Q 1834 4238 1429 3725 
Q 1025 3213 1025 2328 
Q 1025 1447 1429 934 
Q 1834 422 2522 422 
Q 3209 422 3611 934 
Q 4013 1447 4013 2328 
Q 4013 3213 3611 3725 
Q 3209 4238 2522 4238 
z
M 3406 84 
L 4238 -825 
L 3475 -825 
L 2784 -78 
Q 2681 -84 2626 -87 
Q 2572 -91 2522 -91 
Q 1538 -91 948 567 
Q 359 1225 359 2328 
Q 359 3434 948 4092 
Q 1538 4750 2522 4750 
Q 3503 4750 4090 4092 
Q 4678 3434 4678 2328 
Q 4678 1516 4351 937 
Q 4025 359 3406 84 
z
" id="DejaVuSans-51" transform="scale(0.015625)"/>
       <path id="DejaVuSans-20" transform="scale(0.015625)"/>
       <path d="M 2375 4863 
L 2375 4384 
L 1825 4384 
Q 1516 4384 1395 4259 
Q 1275 4134 1275 3809 
L 1275 3500 
L 2222 3500 
L 2222 3053 
L 1275 3053 
L 1275 0 
L 697 0 
L 697 3053 
L 147 3053 
L 147 3500 
L 697 3500 
L 697 3744 
Q 697 4328 969 4595 
Q 1241 4863 1831 4863 
L 2375 4863 
z
" id="DejaVuSans-66" transform="scale(0.015625)"/>
       <path d="M 544 1381 
L 544 3500 
L 1119 3500 
L 1119 1403 
Q 1119 906 1312 657 
Q 1506 409 1894 409 
Q 2359 409 2629 706 
Q 2900 1003 2900 1516 
L 2900 3500 
L 3475 3500 
L 3475 0 
L 2900 0 
L 2900 538 
Q 2691 219 2414 64 
Q 2138 -91 1772 -91 
Q 1169 -91 856 284 
Q 544 659 544 1381 
z
M 1991 3584 
L 1991 3584 
z
" id="DejaVuSans-75" transform="scale(0.015625)"/>
       <path d="M 3513 2113 
L 3513 0 
L 2938 0 
L 2938 2094 
Q 2938 2591 2744 2837 
Q 2550 3084 2163 3084 
Q 1697 3084 1428 2787 
Q 1159 2491 1159 1978 
L 1159 0 
L 581 0 
L 581 3500 
L 1159 3500 
L 1159 2956 
Q 1366 3272 1645 3428 
Q 1925 3584 2291 3584 
Q 2894 3584 3203 3211 
Q 3513 2838 3513 2113 
z
" id="DejaVuSans-6e" transform="scale(0.015625)"/>
       <path d="M 3122 3366 
L 3122 2828 
Q 2878 2963 2633 3030 
Q 2388 3097 2138 3097 
Q 1578 3097 1268 2742 
Q 959 2388 959 1747 
Q 959 1106 1268 751 
Q 1578 397 2138 397 
Q 2388 397 2633 464 
Q 2878 531 3122 666 
L 3122 134 
Q 2881 22 2623 -34 
Q 2366 -91 2075 -91 
Q 1284 -91 818 406 
Q 353 903 353 1747 
Q 353 2603 823 3093 
Q 1294 3584 2113 3584 
Q 2378 3584 2631 3529 
Q 2884 3475 3122 3366 
z
" id="DejaVuSans-63" transform="scale(0.015625)"/>
       <path d="M 1172 4494 
L 1172 3500 
L 2356 3500 
L 2356 3053 
L 1172 3053 
L 1172 1153 
Q 1172 725 1289 603 
Q 1406 481 1766 481 
L 2356 481 
L 2356 0 
L 1766 0 
Q 1100 0 847 248 
Q 594 497 594 1153 
L 594 3053 
L 172 3053 
L 172 3500 
L 594 3500 
L 594 4494 
L 1172 4494 
z
" id="DejaVuSans-74" transform="scale(0.015625)"/>
       <path d="M 3328 2828 
Q 3544 3216 3844 3400 
Q 4144 3584 4550 3584 
Q 5097 3584 5394 3201 
Q 5691 2819 5691 2113 
L 5691 0 
L 5113 0 
L 5113 2094 
Q 5113 2597 4934 2840 
Q 4756 3084 4391 3084 
Q 3944 3084 3684 2787 
Q 3425 2491 3425 1978 
L 3425 0 
L 2847 0 
L 2847 2094 
Q 2847 2600 2669 2842 
Q 2491 3084 2119 3084 
Q 1678 3084 1418 2786 
Q 1159 2488 1159 1978 
L 1159 0 
L 581 0 
L 581 3500 
L 1159 3500 
L 1159 2956 
Q 1356 3278 1631 3431 
Q 1906 3584 2284 3584 
Q 2666 3584 2933 3390 
Q 3200 3197 3328 2828 
z
" id="DejaVuSans-6d" transform="scale(0.015625)"/>
       <path d="M 2194 1759 
Q 1497 1759 1228 1600 
Q 959 1441 959 1056 
Q 959 750 1161 570 
Q 1363 391 1709 391 
Q 2188 391 2477 730 
Q 2766 1069 2766 1631 
L 2766 1759 
L 2194 1759 
z
M 3341 1997 
L 3341 0 
L 2766 0 
L 2766 531 
Q 2569 213 2275 61 
Q 1981 -91 1556 -91 
Q 1019 -91 701 211 
Q 384 513 384 1019 
Q 384 1609 779 1909 
Q 1175 2209 1959 2209 
L 2766 2209 
L 2766 2266 
Q 2766 2663 2505 2880 
Q 2244 3097 1772 3097 
Q 1472 3097 1187 3025 
Q 903 2953 641 2809 
L 641 3341 
Q 956 3463 1253 3523 
Q 1550 3584 1831 3584 
Q 2591 3584 2966 3190 
Q 3341 2797 3341 1997 
z
" id="DejaVuSans-61" transform="scale(0.015625)"/>
      </defs>
      <use xlink:href="#DejaVuSans-51"/>
      <use x="78.710938" xlink:href="#DejaVuSans-20"/>
      <use x="110.498047" xlink:href="#DejaVuSans-66"/>
      <use x="145.703125" xlink:href="#DejaVuSans-75"/>
      <use x="209.082031" xlink:href="#DejaVuSans-6e"/>
      <use x="272.460938" xlink:href="#DejaVuSans-63"/>
      <use x="327.441406" xlink:href="#DejaVuSans-74"/>
      <use x="366.650391" xlink:href="#DejaVuSans-69"/>
      <use x="394.433594" xlink:href="#DejaVuSans-6f"/>
      <use x="455.615234" xlink:href="#DejaVuSans-6e"/>
      <use x="518.994141" xlink:href="#DejaVuSans-20"/>
      <use x="550.78125" xlink:href="#DejaVuSans-45"/>
      <use x="613.964844" xlink:href="#DejaVuSans-73"/>
      <use x="666.064453" xlink:href="#DejaVuSans-74"/>
      <use x="705.273438" xlink:href="#DejaVuSans-69"/>
      <use x="733.056641" xlink:href="#DejaVuSans-6d"/>
      <use x="830.46875" xlink:href="#DejaVuSans-61"/>
      <use x="891.748047" xlink:href="#DejaVuSans-74"/>
      <use x="930.957031" xlink:href="#DejaVuSans-65"/>
      <use x="992.480469" xlink:href="#DejaVuSans-73"/>
     </g>
    </g>
   </g>
   <g id="line2d_12">
    <path clip-path="url(#pfb6d5c833b)" d="M 135.392727 340.962566 
L 177.619754 340.962566 
L 178.168157 308.396935 
L 201.749484 308.396935 
L 202.297887 294.445887 
L 371.205995 294.445887 
L 371.754398 298.720789 
L 378.335233 298.720789 
L 378.883636 258.7409 
L 400.819754 258.7409 
L 401.368157 258.961165 
L 429.885111 258.961165 
L 430.433514 260.425698 
L 462.789287 260.425698 
L 463.33769 260.991222 
L 546.694939 260.991222 
L 547.243342 268.100251 
L 608.116069 268.100251 
L 608.664472 269.950567 
L 650.343096 269.950567 
L 650.891499 285.161042 
L 659.665946 285.161042 
L 660.214349 296.22639 
L 683.247273 296.22639 
L 683.247273 296.22639 
" style="fill:none;stroke:#1f77b4;stroke-linecap:square;stroke-width:2;"/>
   </g>
   <g id="line2d_13">
    <path clip-path="url(#pfb6d5c833b)" d="M 135.392727 305.121636 
L 683.247273 305.121636 
L 683.247273 305.121636 
" style="fill:none;stroke:#ff7f0e;stroke-dasharray:5.55,2.4;stroke-dashoffset:0;stroke-width:1.5;"/>
   </g>
   <g id="line2d_14">
    <path clip-path="url(#pfb6d5c833b)" d="M 135.392727 340.962566 
L 139.779951 340.962566 
L 140.328354 113.492055 
L 140.876757 133.573299 
L 141.42516 123.442324 
L 141.973563 89.28 
L 142.521966 140.570301 
L 143.070369 150.2357 
L 143.618771 150.2357 
L 144.167174 163.755597 
L 144.715577 154.957039 
L 145.26398 150.166244 
L 145.812383 151.48266 
L 146.360786 151.48266 
L 146.909189 153.842691 
L 147.457592 152.563456 
L 148.005995 152.179108 
L 148.554398 148.477776 
L 149.102801 157.383215 
L 149.651204 152.334964 
L 150.199607 143.246704 
L 151.296413 143.246704 
L 151.844816 140.291972 
L 152.393219 142.746796 
L 152.941622 143.004659 
L 153.490025 149.572457 
L 154.038428 158.437587 
L 154.58683 161.99247 
L 155.135233 161.99247 
L 155.683636 163.301364 
L 156.232039 159.598819 
L 156.780442 158.389463 
L 157.877248 150.682722 
L 158.425651 154.189948 
L 159.522457 152.690821 
L 160.07086 150.86407 
L 160.619263 150.702986 
L 161.167666 153.03536 
L 161.716069 151.239872 
L 162.264472 152.530912 
L 162.812875 150.290371 
L 163.361278 148.783799 
L 163.909681 152.457307 
L 164.458084 151.714583 
L 165.006486 151.605672 
L 165.554889 152.475968 
L 166.103292 154.524103 
L 166.651695 154.696494 
L 167.200098 153.546344 
L 167.748501 152.869592 
L 168.296904 154.392055 
L 168.845307 151.723049 
L 169.39371 152.67238 
L 169.942113 152.67238 
L 170.490516 154.743445 
L 171.038919 154.743445 
L 171.587322 155.136307 
L 172.135725 158.539621 
L 172.684128 158.419319 
L 173.232531 156.672267 
L 173.780934 155.941049 
L 174.329337 154.764959 
L 174.87774 156.618314 
L 175.426143 157.532521 
L 176.522948 155.600041 
L 177.071351 156.097047 
L 177.619754 155.289581 
L 178.168157 155.289581 
L 178.71656 153.910594 
L 179.264963 151.611744 
L 180.361769 148.256214 
L 180.910172 147.922553 
L 181.458575 147.293981 
L 182.555381 143.202517 
L 183.103784 144.477874 
L 183.652187 143.683336 
L 184.20059 143.279644 
L 184.748993 144.051176 
L 185.297396 145.94378 
L 185.845799 146.58372 
L 186.394201 147.838125 
L 186.942604 147.722445 
L 187.491007 147.31272 
L 188.03941 147.445291 
L 188.587813 145.089149 
L 189.136216 147.075335 
L 189.684619 147.150881 
L 190.781425 148.742287 
L 191.329828 148.566712 
L 191.878231 148.566712 
L 192.426634 148.747435 
L 192.975037 148.611138 
L 193.52344 148.188067 
L 194.071843 147.211132 
L 194.620246 147.544601 
L 195.168649 148.054626 
L 195.717052 146.691231 
L 196.265455 147.49373 
L 196.813857 148.960819 
L 197.36226 148.181898 
L 197.910663 145.974576 
L 198.459066 145.023936 
L 199.007469 145.950183 
L 199.555872 146.121496 
L 200.652678 145.526263 
L 201.201081 145.029993 
L 201.749484 145.577983 
L 202.297887 145.577983 
L 202.84629 145.811156 
L 203.394693 145.296019 
L 203.943096 145.739675 
L 204.491499 147.131436 
L 205.588305 146.91534 
L 206.136708 146.283458 
L 206.685111 147.201453 
L 207.233514 146.65614 
L 208.330319 146.65614 
L 208.878722 146.087876 
L 209.427125 145.795454 
L 209.975528 145.998401 
L 211.072334 145.154896 
L 212.16914 145.320891 
L 212.717543 146.197272 
L 213.265946 145.127588 
L 213.814349 144.505031 
L 214.362752 145.277307 
L 214.911155 145.686848 
L 217.104767 145.686848 
L 217.65317 144.969919 
L 218.201572 143.566899 
L 219.298378 143.458345 
L 219.846781 143.681984 
L 220.395184 142.210321 
L 220.943587 143.193054 
L 221.49199 141.762133 
L 222.040393 140.975383 
L 222.588796 140.577027 
L 223.137199 140.577027 
L 223.685602 140.163643 
L 224.234005 140.163643 
L 224.782408 139.977941 
L 225.879214 140.396227 
L 226.427617 141.024466 
L 226.97602 140.528863 
L 227.524423 140.690826 
L 228.072826 141.924785 
L 228.621229 141.397216 
L 229.718034 141.397216 
L 230.81484 142.197994 
L 231.363243 142.093674 
L 231.911646 141.694215 
L 232.460049 140.824041 
L 233.556855 141.835293 
L 234.105258 142.767415 
L 234.653661 143.041971 
L 235.202064 142.972436 
L 235.750467 143.105566 
L 236.29887 143.516188 
L 236.847273 143.568695 
L 237.395676 143.396829 
L 237.944079 143.396829 
L 238.492482 143.57845 
L 239.040885 142.878867 
L 239.589287 143.795043 
L 240.13769 143.74578 
L 240.686093 142.942208 
L 241.234496 142.692208 
L 241.782899 142.999218 
L 242.331302 143.045769 
L 242.879705 143.419751 
L 243.428108 143.570352 
L 243.976511 143.570352 
L 244.524914 143.118621 
L 245.073317 143.26171 
L 245.62172 143.203177 
L 246.170123 143.85802 
L 246.718526 144.309437 
L 247.266929 144.309437 
L 247.815332 144.033884 
L 248.363735 144.456056 
L 248.912138 144.475141 
L 250.008943 144.716606 
L 250.557346 144.716606 
L 251.105749 144.951772 
L 252.202555 146.352932 
L 253.299361 146.30293 
L 253.847764 145.827278 
L 255.492973 145.763119 
L 256.041376 144.447228 
L 256.589779 144.112884 
L 257.138182 144.183069 
L 258.234988 143.172525 
L 258.783391 143.16738 
L 259.331794 142.223626 
L 259.880197 142.31575 
L 260.977002 142.859681 
L 261.525405 141.479809 
L 262.073808 141.346158 
L 262.622211 141.346158 
L 263.170614 141.608714 
L 263.719017 141.289143 
L 265.364226 141.311576 
L 266.461032 140.908203 
L 267.009435 140.453092 
L 267.557838 140.256741 
L 268.654644 140.249526 
L 269.203047 140.561078 
L 269.75145 141.155812 
L 270.299853 141.106571 
L 270.848256 140.472291 
L 271.396658 140.680914 
L 271.945061 140.563395 
L 273.041867 140.579229 
L 273.59027 140.738965 
L 274.138673 140.094933 
L 274.687076 139.803991 
L 275.235479 139.803991 
L 275.783882 139.083826 
L 276.332285 139.235012 
L 276.880688 138.962914 
L 277.429091 138.854604 
L 277.977494 138.558209 
L 278.525897 138.6413 
L 279.0743 138.986862 
L 280.171106 137.975861 
L 280.719509 138.891721 
L 281.267912 139.276844 
L 281.816314 139.276844 
L 282.364717 138.747913 
L 282.91312 138.443325 
L 283.461523 137.964978 
L 284.009926 137.644183 
L 284.558329 138.023984 
L 285.655135 137.90582 
L 286.203538 138.517441 
L 286.751941 138.247495 
L 287.300344 137.439641 
L 287.848747 138.09247 
L 288.39715 138.09247 
L 288.945553 138.365463 
L 289.493956 137.813995 
L 290.042359 137.72785 
L 290.590762 137.335034 
L 291.139165 137.228245 
L 291.687568 136.706539 
L 292.235971 136.405168 
L 293.332776 137.075571 
L 293.881179 137.075283 
L 295.526388 136.785425 
L 296.074791 137.317768 
L 296.623194 137.175483 
L 297.171597 137.8291 
L 297.72 138.053943 
L 298.816806 138.112224 
L 299.365209 138.829087 
L 299.913612 139.149726 
L 300.462015 139.828852 
L 301.010418 139.713485 
L 302.107224 139.780299 
L 302.655627 139.671232 
L 303.204029 139.78352 
L 303.752432 140.033748 
L 304.849238 139.708585 
L 306.494447 138.789317 
L 307.591253 138.913619 
L 308.139656 138.597203 
L 309.784865 139.137314 
L 310.333268 139.549939 
L 311.430074 138.316853 
L 312.52688 138.545469 
L 313.075283 139.293229 
L 314.172088 138.229343 
L 314.720491 138.533465 
L 315.268894 138.105122 
L 315.817297 138.744138 
L 316.3657 138.735748 
L 316.914103 139.545399 
L 317.462506 139.545399 
L 318.010909 139.679935 
L 318.559312 139.679935 
L 319.656118 140.376976 
L 320.204521 140.376976 
L 320.752924 139.914389 
L 321.301327 139.792687 
L 321.84973 139.45912 
L 322.946536 140.216106 
L 323.494939 140.725153 
L 324.043342 140.747313 
L 324.591744 139.784516 
L 325.140147 139.673853 
L 325.68855 139.678082 
L 326.785356 138.482761 
L 327.882162 138.407767 
L 328.978968 137.399499 
L 330.075774 137.521275 
L 330.624177 137.715196 
L 331.17258 137.776816 
L 331.720983 137.606714 
L 332.269386 137.763859 
L 333.366192 137.824723 
L 333.914595 137.511282 
L 334.462998 137.477772 
L 335.0114 136.950094 
L 335.559803 137.144225 
L 336.108206 136.873011 
L 336.656609 136.291432 
L 337.205012 135.993202 
L 337.753415 136.035979 
L 338.850221 135.877617 
L 339.947027 135.2825 
L 340.49543 135.2825 
L 341.043833 135.424293 
L 341.592236 135.066732 
L 342.689042 136.228044 
L 343.237445 136.309 
L 343.785848 136.608206 
L 344.882654 135.937512 
L 345.431057 135.872442 
L 346.527862 136.141899 
L 347.624668 136.248401 
L 348.173071 136.434936 
L 348.721474 137.08353 
L 350.366683 137.530408 
L 350.915086 137.252438 
L 351.463489 137.35251 
L 352.011892 137.27047 
L 352.560295 137.596701 
L 353.108698 137.709757 
L 353.657101 138.220135 
L 354.205504 137.919762 
L 356.399115 138.221242 
L 357.495921 137.345418 
L 358.044324 137.440816 
L 358.592727 137.7621 
L 360.786339 137.821965 
L 361.334742 137.51746 
L 362.431548 137.317087 
L 362.979951 137.376633 
L 363.528354 137.691844 
L 364.62516 137.71923 
L 365.173563 137.995067 
L 365.721966 137.925229 
L 366.270369 138.357263 
L 366.818771 138.374798 
L 367.367174 138.164985 
L 367.915577 138.535937 
L 368.46398 138.408392 
L 369.560786 138.49381 
L 370.657592 137.689039 
L 372.302801 137.60566 
L 372.851204 137.7328 
L 374.496413 137.802129 
L 375.044816 138.149425 
L 375.593219 138.149425 
L 376.141622 138.307786 
L 376.690025 138.1338 
L 377.238428 137.77614 
L 377.78683 137.604892 
L 378.335233 137.922627 
L 378.883636 137.922627 
L 379.432039 137.651399 
L 380.528845 137.767705 
L 381.077248 137.802073 
L 381.625651 137.643508 
L 382.174054 137.910879 
L 382.722457 137.797046 
L 383.27086 137.489697 
L 383.819263 137.394983 
L 384.367666 137.151995 
L 386.561278 137.177624 
L 387.109681 136.931243 
L 388.206486 136.0304 
L 389.851695 136.01789 
L 390.948501 136.622699 
L 391.496904 136.421267 
L 393.142113 136.780826 
L 393.690516 137.156377 
L 394.238919 136.910216 
L 395.335725 136.969333 
L 396.432531 136.667441 
L 396.980934 137.263205 
L 397.529337 137.35776 
L 398.07774 137.573117 
L 398.626143 137.349662 
L 399.722948 137.422092 
L 401.91656 137.402704 
L 403.013366 137.100082 
L 403.561769 137.398172 
L 404.110172 137.245656 
L 404.658575 137.374237 
L 405.206978 137.138027 
L 405.755381 136.658824 
L 406.303784 136.643676 
L 407.40059 136.253895 
L 407.948993 136.246017 
L 409.045799 136.506739 
L 411.787813 136.008735 
L 412.336216 135.500364 
L 412.884619 135.722287 
L 413.433022 135.722287 
L 414.529828 136.090619 
L 415.078231 136.478098 
L 417.271843 136.693164 
L 417.820246 136.706347 
L 418.368649 136.95492 
L 418.917052 137.386381 
L 419.465455 137.324032 
L 420.013857 137.548076 
L 421.110663 137.474222 
L 422.755872 137.564286 
L 423.852678 137.041703 
L 424.401081 137.077376 
L 424.949484 137.333111 
L 425.497887 137.104654 
L 426.594693 137.263899 
L 427.143096 137.141555 
L 427.691499 137.253045 
L 428.239902 136.94754 
L 428.788305 137.115804 
L 429.336708 137.127707 
L 429.885111 137.279263 
L 430.433514 137.279263 
L 431.530319 136.997962 
L 432.627125 136.538275 
L 433.175528 136.980728 
L 434.272334 137.319337 
L 434.820737 137.244165 
L 435.36914 137.322034 
L 435.917543 137.811069 
L 437.014349 137.705524 
L 438.111155 137.808455 
L 439.207961 137.37202 
L 439.756364 137.298653 
L 440.85317 137.947883 
L 441.401572 138.012213 
L 441.949975 137.863538 
L 442.498378 138.2026 
L 443.595184 137.698324 
L 444.143587 137.887677 
L 445.240393 138.013959 
L 445.788796 138.218836 
L 447.434005 137.843454 
L 449.079214 137.685349 
L 449.627617 137.227371 
L 450.724423 136.908768 
L 451.272826 137.135255 
L 451.821229 137.075514 
L 452.369631 137.478496 
L 453.466437 137.457403 
L 454.01484 137.971707 
L 454.563243 138.229815 
L 455.111646 138.218773 
L 455.660049 138.36412 
L 456.208452 138.766939 
L 456.756855 138.810523 
L 457.305258 138.572459 
L 457.853661 138.502808 
L 458.402064 138.880511 
L 459.49887 138.287501 
L 460.047273 138.507042 
L 460.595676 138.326743 
L 461.144079 138.41377 
L 461.692482 138.257331 
L 463.33769 138.351584 
L 463.886093 138.569423 
L 464.434496 138.252882 
L 466.079705 138.424452 
L 467.176511 138.749038 
L 468.273317 138.47213 
L 469.370123 138.333018 
L 469.918526 138.40255 
L 470.466929 138.234996 
L 471.563735 138.560562 
L 472.112138 138.467275 
L 472.660541 138.63821 
L 473.208943 138.659937 
L 474.305749 138.238633 
L 475.402555 138.265268 
L 475.950958 138.128056 
L 476.499361 138.709046 
L 478.14457 138.779794 
L 478.692973 138.902051 
L 479.241376 138.79055 
L 479.789779 139.110948 
L 480.338182 139.256674 
L 480.886585 139.150823 
L 481.434988 139.190236 
L 481.983391 138.880795 
L 482.531794 138.803569 
L 483.080197 138.472283 
L 483.6286 138.69337 
L 485.273808 138.890975 
L 486.370614 138.638836 
L 486.919017 138.257667 
L 487.46742 138.426221 
L 488.015823 138.401233 
L 488.564226 138.615524 
L 489.112629 138.379503 
L 489.661032 138.418184 
L 490.209435 138.320574 
L 491.306241 137.966624 
L 492.403047 138.056437 
L 492.95145 137.962626 
L 498.983882 138.500198 
L 499.532285 138.500198 
L 500.629091 137.951931 
L 501.725897 138.081425 
L 502.2743 138.06292 
L 503.371106 138.365149 
L 503.919509 138.274613 
L 505.016314 138.447168 
L 506.661523 138.279828 
L 508.855135 138.280947 
L 509.403538 138.488847 
L 509.951941 138.342043 
L 510.500344 138.561902 
L 511.048747 138.915455 
L 512.145553 139.159801 
L 513.242359 138.77045 
L 513.790762 138.9961 
L 514.887568 138.847401 
L 515.435971 138.779561 
L 515.984373 138.841814 
L 516.532776 139.02238 
L 519.823194 138.807122 
L 522.565209 138.697508 
L 523.113612 138.741443 
L 523.662015 138.577993 
L 525.307224 138.504574 
L 526.404029 138.376985 
L 527.500835 138.664311 
L 528.049238 138.528281 
L 529.694447 138.459373 
L 530.24285 138.459373 
L 530.791253 138.244895 
L 531.339656 138.262337 
L 531.888059 138.517322 
L 532.984865 138.498741 
L 533.533268 138.583865 
L 534.081671 138.829764 
L 535.178477 138.940163 
L 535.72688 139.200946 
L 536.823686 139.180206 
L 537.920491 139.550479 
L 538.468894 139.378169 
L 539.017297 139.575196 
L 539.5657 139.600713 
L 540.114103 139.767437 
L 541.210909 139.772057 
L 541.759312 139.668255 
L 542.307715 139.373039 
L 542.856118 139.652771 
L 543.404521 139.421728 
L 543.952924 139.475254 
L 544.501327 139.331859 
L 547.243342 139.412466 
L 547.791744 139.674753 
L 548.88855 139.536227 
L 549.436953 139.815257 
L 549.985356 139.657002 
L 551.630565 139.657878 
L 552.178968 139.491864 
L 553.275774 139.592493 
L 553.824177 139.775469 
L 556.017789 139.981236 
L 556.566192 140.138779 
L 558.759803 139.830271 
L 559.308206 139.940966 
L 560.405012 139.839922 
L 560.953415 139.996073 
L 561.501818 139.945118 
L 563.147027 140.202182 
L 564.243833 140.10373 
L 565.889042 140.050693 
L 566.985848 140.468143 
L 568.082654 140.452258 
L 568.631057 140.663101 
L 573.566683 139.970336 
L 574.115086 140.098137 
L 575.760295 139.540718 
L 576.857101 138.985528 
L 577.953907 139.015229 
L 578.50231 139.287517 
L 579.599115 138.867097 
L 580.695921 139.050973 
L 581.244324 138.900056 
L 581.792727 138.887462 
L 582.34113 138.614935 
L 582.889533 138.747215 
L 585.631548 138.697123 
L 586.179951 138.600675 
L 586.728354 138.666503 
L 587.276757 138.857945 
L 587.82516 138.809816 
L 589.470369 139.267534 
L 590.567174 138.939597 
L 591.66398 138.729743 
L 592.212383 138.587181 
L 593.309189 138.767378 
L 593.857592 138.58432 
L 594.405995 138.58432 
L 594.954398 138.43904 
L 596.051204 138.452493 
L 596.599607 138.339254 
L 597.14801 138.537725 
L 597.696413 138.427449 
L 598.244816 138.630296 
L 598.793219 138.498925 
L 599.890025 138.568816 
L 600.438428 138.825255 
L 600.98683 138.632793 
L 602.083636 138.681786 
L 603.180442 138.44469 
L 604.825651 138.552629 
L 605.922457 138.785091 
L 609.761278 138.681302 
L 610.858084 138.666131 
L 611.954889 138.642325 
L 612.503292 138.471101 
L 613.600098 138.559817 
L 614.696904 138.472644 
L 616.342113 138.592271 
L 616.890516 138.678854 
L 617.987322 138.546425 
L 619.632531 138.843382 
L 620.729337 138.815798 
L 621.826143 138.812676 
L 625.664963 139.61258 
L 626.213366 139.682579 
L 628.406978 139.279664 
L 630.052187 139.344021 
L 632.245799 139.491105 
L 633.342604 139.324995 
L 633.891007 139.311896 
L 634.43941 139.631272 
L 634.987813 139.531677 
L 635.536216 139.75967 
L 636.633022 139.741256 
L 637.181425 139.598476 
L 638.278231 139.661341 
L 639.375037 139.767819 
L 639.92344 139.79639 
L 640.471843 140.101451 
L 641.020246 140.000659 
L 642.665455 140.205697 
L 648.697887 140.014135 
L 649.24629 139.892906 
L 649.794693 139.963144 
L 650.343096 140.168258 
L 654.730319 140.178567 
L 656.375528 140.505103 
L 656.923931 140.518898 
L 657.472334 140.647288 
L 663.504767 140.140043 
L 664.05317 140.288931 
L 665.698378 139.809936 
L 666.246781 139.77655 
L 667.343587 139.960833 
L 668.440393 139.722138 
L 668.988796 139.877681 
L 670.085602 139.957026 
L 670.634005 140.119837 
L 671.730811 140.193896 
L 672.827617 140.318496 
L 674.472826 140.258079 
L 676.118034 140.436169 
L 678.860049 140.134616 
L 680.505258 140.198686 
L 681.602064 140.285128 
L 683.247273 140.433428 
L 683.247273 140.433428 
" style="fill:none;stroke:#2ca02c;stroke-linecap:square;stroke-width:2;"/>
   </g>
   <g id="line2d_15">
    <path clip-path="url(#pfb6d5c833b)" d="M 135.392727 140.252207 
L 683.247273 140.252207 
L 683.247273 140.252207 
" style="fill:none;stroke:#d62728;stroke-dasharray:5.55,2.4;stroke-dashoffset:0;stroke-width:1.5;"/>
   </g>
   <g id="line2d_16">
    <path clip-path="url(#pfb6d5c833b)" d="M 135.392727 340.962566 
L 139.231548 340.962566 
L 139.779951 492.48 
L 207.233514 492.48 
L 207.781916 479.019717 
L 218.201572 479.019717 
L 218.749975 450.31665 
L 394.238919 450.31665 
L 394.787322 433.584816 
L 563.147027 433.584816 
L 563.69543 432.456673 
L 593.857592 432.456673 
L 594.405995 431.340874 
L 683.247273 431.340874 
L 683.247273 431.340874 
" style="fill:none;stroke:#9467bd;stroke-linecap:square;stroke-width:2;"/>
   </g>
   <g id="line2d_17">
    <path clip-path="url(#pfb6d5c833b)" d="M 135.392727 428.494535 
L 683.247273 428.494535 
L 683.247273 428.494535 
" style="fill:none;stroke:#8c564b;stroke-dasharray:5.55,2.4;stroke-dashoffset:0;stroke-width:1.5;"/>
   </g>
   <g id="line2d_18">
    <path clip-path="url(#pfb6d5c833b)" d="M 135.392727 340.962566 
L 207.781916 340.962566 
L 208.330319 204.336356 
L 301.558821 204.336356 
L 302.107224 273.621525 
L 318.010909 273.621525 
L 318.559312 287.107791 
L 583.437936 287.107791 
L 583.986339 325.371725 
L 683.247273 325.371725 
L 683.247273 325.371725 
" style="fill:none;stroke:#e377c2;stroke-linecap:square;stroke-width:2;"/>
   </g>
   <g id="line2d_19">
    <path clip-path="url(#pfb6d5c833b)" d="M 135.392727 354.519196 
L 683.247273 354.519196 
L 683.247273 354.519196 
" style="fill:none;stroke:#7f7f7f;stroke-dasharray:5.55,2.4;stroke-dashoffset:0;stroke-width:1.5;"/>
   </g>
   <g id="line2d_20">
    <path clip-path="url(#pfb6d5c833b)" d="M 135.392727 340.962566 
L 145.812383 340.962566 
L 146.360786 186.357151 
L 154.58683 186.357151 
L 155.135233 247.232714 
L 274.687076 247.232714 
L 275.235479 317.919355 
L 373.399607 317.919355 
L 373.94801 297.945198 
L 375.044816 297.945198 
L 375.593219 279.658169 
L 392.045307 279.658169 
L 392.59371 259.756691 
L 400.271351 259.756691 
L 400.819754 249.676676 
L 422.207469 249.676676 
L 422.755872 256.664851 
L 436.465946 256.664851 
L 437.014349 258.034653 
L 576.857101 258.034653 
L 577.405504 279.798319 
L 599.341622 279.798319 
L 599.890025 287.753071 
L 614.148501 287.753071 
L 614.696904 275.303834 
L 683.247273 275.303834 
L 683.247273 275.303834 
" style="fill:none;stroke:#bcbd22;stroke-linecap:square;stroke-width:2;"/>
   </g>
   <g id="line2d_21">
    <path clip-path="url(#pfb6d5c833b)" d="M 135.392727 304.186439 
L 683.247273 304.186439 
L 683.247273 304.186439 
" style="fill:none;stroke:#17becf;stroke-dasharray:5.55,2.4;stroke-dashoffset:0;stroke-width:1.5;"/>
   </g>
   <g id="patch_3">
    <path d="M 108 512.64 
L 108 69.12 
" style="fill:none;stroke:#000000;stroke-linecap:square;stroke-linejoin:miter;stroke-width:0.8;"/>
   </g>
   <g id="patch_4">
    <path d="M 710.64 512.64 
L 710.64 69.12 
" style="fill:none;stroke:#000000;stroke-linecap:square;stroke-linejoin:miter;stroke-width:0.8;"/>
   </g>
   <g id="patch_5">
    <path d="M 108 512.64 
L 710.64 512.64 
" style="fill:none;stroke:#000000;stroke-linecap:square;stroke-linejoin:miter;stroke-width:0.8;"/>
   </g>
   <g id="patch_6">
    <path d="M 108 69.12 
L 710.64 69.12 
" style="fill:none;stroke:#000000;stroke-linecap:square;stroke-linejoin:miter;stroke-width:0.8;"/>
   </g>
   <g id="text_14">
    <!-- Epsilon Greedy Agent for Ten-Armed Gaussian Bandit for epsilon=0.1 -->
    <g transform="translate(76.989 63.12)scale(0.192 -0.192)">
     <defs>
      <path d="M 603 4863 
L 1178 4863 
L 1178 0 
L 603 0 
L 603 4863 
z
" id="DejaVuSans-6c" transform="scale(0.015625)"/>
      <path d="M 3809 666 
L 3809 1919 
L 2778 1919 
L 2778 2438 
L 4434 2438 
L 4434 434 
Q 4069 175 3628 42 
Q 3188 -91 2688 -91 
Q 1594 -91 976 548 
Q 359 1188 359 2328 
Q 359 3472 976 4111 
Q 1594 4750 2688 4750 
Q 3144 4750 3555 4637 
Q 3966 4525 4313 4306 
L 4313 3634 
Q 3963 3931 3569 4081 
Q 3175 4231 2741 4231 
Q 1884 4231 1454 3753 
Q 1025 3275 1025 2328 
Q 1025 1384 1454 906 
Q 1884 428 2741 428 
Q 3075 428 3337 486 
Q 3600 544 3809 666 
z
" id="DejaVuSans-47" transform="scale(0.015625)"/>
      <path d="M 2631 2963 
Q 2534 3019 2420 3045 
Q 2306 3072 2169 3072 
Q 1681 3072 1420 2755 
Q 1159 2438 1159 1844 
L 1159 0 
L 581 0 
L 581 3500 
L 1159 3500 
L 1159 2956 
Q 1341 3275 1631 3429 
Q 1922 3584 2338 3584 
Q 2397 3584 2469 3576 
Q 2541 3569 2628 3553 
L 2631 2963 
z
" id="DejaVuSans-72" transform="scale(0.015625)"/>
      <path d="M 2059 -325 
Q 1816 -950 1584 -1140 
Q 1353 -1331 966 -1331 
L 506 -1331 
L 506 -850 
L 844 -850 
Q 1081 -850 1212 -737 
Q 1344 -625 1503 -206 
L 1606 56 
L 191 3500 
L 800 3500 
L 1894 763 
L 2988 3500 
L 3597 3500 
L 2059 -325 
z
" id="DejaVuSans-79" transform="scale(0.015625)"/>
      <path d="M 2188 4044 
L 1331 1722 
L 3047 1722 
L 2188 4044 
z
M 1831 4666 
L 2547 4666 
L 4325 0 
L 3669 0 
L 3244 1197 
L 1141 1197 
L 716 0 
L 50 0 
L 1831 4666 
z
" id="DejaVuSans-41" transform="scale(0.015625)"/>
      <path d="M 2906 1791 
Q 2906 2416 2648 2759 
Q 2391 3103 1925 3103 
Q 1463 3103 1205 2759 
Q 947 2416 947 1791 
Q 947 1169 1205 825 
Q 1463 481 1925 481 
Q 2391 481 2648 825 
Q 2906 1169 2906 1791 
z
M 3481 434 
Q 3481 -459 3084 -895 
Q 2688 -1331 1869 -1331 
Q 1566 -1331 1297 -1286 
Q 1028 -1241 775 -1147 
L 775 -588 
Q 1028 -725 1275 -790 
Q 1522 -856 1778 -856 
Q 2344 -856 2625 -561 
Q 2906 -266 2906 331 
L 2906 616 
Q 2728 306 2450 153 
Q 2172 0 1784 0 
Q 1141 0 747 490 
Q 353 981 353 1791 
Q 353 2603 747 3093 
Q 1141 3584 1784 3584 
Q 2172 3584 2450 3431 
Q 2728 3278 2906 2969 
L 2906 3500 
L 3481 3500 
L 3481 434 
z
" id="DejaVuSans-67" transform="scale(0.015625)"/>
      <path d="M -19 4666 
L 3928 4666 
L 3928 4134 
L 2272 4134 
L 2272 0 
L 1638 0 
L 1638 4134 
L -19 4134 
L -19 4666 
z
" id="DejaVuSans-54" transform="scale(0.015625)"/>
      <path d="M 313 2009 
L 1997 2009 
L 1997 1497 
L 313 1497 
L 313 2009 
z
" id="DejaVuSans-2d" transform="scale(0.015625)"/>
      <path d="M 1259 2228 
L 1259 519 
L 2272 519 
Q 2781 519 3026 730 
Q 3272 941 3272 1375 
Q 3272 1813 3026 2020 
Q 2781 2228 2272 2228 
L 1259 2228 
z
M 1259 4147 
L 1259 2741 
L 2194 2741 
Q 2656 2741 2882 2914 
Q 3109 3088 3109 3444 
Q 3109 3797 2882 3972 
Q 2656 4147 2194 4147 
L 1259 4147 
z
M 628 4666 
L 2241 4666 
Q 2963 4666 3353 4366 
Q 3744 4066 3744 3513 
Q 3744 3084 3544 2831 
Q 3344 2578 2956 2516 
Q 3422 2416 3680 2098 
Q 3938 1781 3938 1306 
Q 3938 681 3513 340 
Q 3088 0 2303 0 
L 628 0 
L 628 4666 
z
" id="DejaVuSans-42" transform="scale(0.015625)"/>
      <path d="M 678 2906 
L 4684 2906 
L 4684 2381 
L 678 2381 
L 678 2906 
z
M 678 1631 
L 4684 1631 
L 4684 1100 
L 678 1100 
L 678 1631 
z
" id="DejaVuSans-3d" transform="scale(0.015625)"/>
      <path d="M 684 794 
L 1344 794 
L 1344 0 
L 684 0 
L 684 794 
z
" id="DejaVuSans-2e" transform="scale(0.015625)"/>
     </defs>
     <use xlink:href="#DejaVuSans-45"/>
     <use x="63.183594" xlink:href="#DejaVuSans-70"/>
     <use x="126.660156" xlink:href="#DejaVuSans-73"/>
     <use x="178.759766" xlink:href="#DejaVuSans-69"/>
     <use x="206.542969" xlink:href="#DejaVuSans-6c"/>
     <use x="234.326172" xlink:href="#DejaVuSans-6f"/>
     <use x="295.507812" xlink:href="#DejaVuSans-6e"/>
     <use x="358.886719" xlink:href="#DejaVuSans-20"/>
     <use x="390.673828" xlink:href="#DejaVuSans-47"/>
     <use x="468.164062" xlink:href="#DejaVuSans-72"/>
     <use x="507.027344" xlink:href="#DejaVuSans-65"/>
     <use x="568.550781" xlink:href="#DejaVuSans-65"/>
     <use x="630.074219" xlink:href="#DejaVuSans-64"/>
     <use x="693.550781" xlink:href="#DejaVuSans-79"/>
     <use x="752.730469" xlink:href="#DejaVuSans-20"/>
     <use x="784.517578" xlink:href="#DejaVuSans-41"/>
     <use x="852.925781" xlink:href="#DejaVuSans-67"/>
     <use x="916.402344" xlink:href="#DejaVuSans-65"/>
     <use x="977.925781" xlink:href="#DejaVuSans-6e"/>
     <use x="1041.304688" xlink:href="#DejaVuSans-74"/>
     <use x="1080.513672" xlink:href="#DejaVuSans-20"/>
     <use x="1112.300781" xlink:href="#DejaVuSans-66"/>
     <use x="1147.505859" xlink:href="#DejaVuSans-6f"/>
     <use x="1208.6875" xlink:href="#DejaVuSans-72"/>
     <use x="1249.800781" xlink:href="#DejaVuSans-20"/>
     <use x="1281.587891" xlink:href="#DejaVuSans-54"/>
     <use x="1325.671875" xlink:href="#DejaVuSans-65"/>
     <use x="1387.195312" xlink:href="#DejaVuSans-6e"/>
     <use x="1450.574219" xlink:href="#DejaVuSans-2d"/>
     <use x="1484.408203" xlink:href="#DejaVuSans-41"/>
     <use x="1552.816406" xlink:href="#DejaVuSans-72"/>
     <use x="1592.179688" xlink:href="#DejaVuSans-6d"/>
     <use x="1689.591797" xlink:href="#DejaVuSans-65"/>
     <use x="1751.115234" xlink:href="#DejaVuSans-64"/>
     <use x="1814.591797" xlink:href="#DejaVuSans-20"/>
     <use x="1846.378906" xlink:href="#DejaVuSans-47"/>
     <use x="1923.869141" xlink:href="#DejaVuSans-61"/>
     <use x="1985.148438" xlink:href="#DejaVuSans-75"/>
     <use x="2048.527344" xlink:href="#DejaVuSans-73"/>
     <use x="2100.626953" xlink:href="#DejaVuSans-73"/>
     <use x="2152.726562" xlink:href="#DejaVuSans-69"/>
     <use x="2180.509766" xlink:href="#DejaVuSans-61"/>
     <use x="2241.789062" xlink:href="#DejaVuSans-6e"/>
     <use x="2305.167969" xlink:href="#DejaVuSans-20"/>
     <use x="2336.955078" xlink:href="#DejaVuSans-42"/>
     <use x="2405.558594" xlink:href="#DejaVuSans-61"/>
     <use x="2466.837891" xlink:href="#DejaVuSans-6e"/>
     <use x="2530.216797" xlink:href="#DejaVuSans-64"/>
     <use x="2593.693359" xlink:href="#DejaVuSans-69"/>
     <use x="2621.476562" xlink:href="#DejaVuSans-74"/>
     <use x="2660.685547" xlink:href="#DejaVuSans-20"/>
     <use x="2692.472656" xlink:href="#DejaVuSans-66"/>
     <use x="2727.677734" xlink:href="#DejaVuSans-6f"/>
     <use x="2788.859375" xlink:href="#DejaVuSans-72"/>
     <use x="2829.972656" xlink:href="#DejaVuSans-20"/>
     <use x="2861.759766" xlink:href="#DejaVuSans-65"/>
     <use x="2923.283203" xlink:href="#DejaVuSans-70"/>
     <use x="2986.759766" xlink:href="#DejaVuSans-73"/>
     <use x="3038.859375" xlink:href="#DejaVuSans-69"/>
     <use x="3066.642578" xlink:href="#DejaVuSans-6c"/>
     <use x="3094.425781" xlink:href="#DejaVuSans-6f"/>
     <use x="3155.607422" xlink:href="#DejaVuSans-6e"/>
     <use x="3218.986328" xlink:href="#DejaVuSans-3d"/>
     <use x="3302.775391" xlink:href="#DejaVuSans-30"/>
     <use x="3366.398438" xlink:href="#DejaVuSans-2e"/>
     <use x="3398.185547" xlink:href="#DejaVuSans-31"/>
    </g>
   </g>
   <g id="legend_1">
    <g id="patch_7">
     <path d="M 721.84 410.705 
L 839.5125 410.705 
Q 842.7125 410.705 842.7125 407.505 
L 842.7125 174.255 
Q 842.7125 171.055 839.5125 171.055 
L 721.84 171.055 
Q 718.64 171.055 718.64 174.255 
L 718.64 407.505 
Q 718.64 410.705 721.84 410.705 
z
" style="fill:#ffffff;opacity:0.8;stroke:#cccccc;stroke-linejoin:miter;"/>
    </g>
    <g id="line2d_22">
     <path d="M 725.04 184.0125 
L 757.04 184.0125 
" style="fill:none;stroke:#1f77b4;stroke-linecap:square;stroke-width:2;"/>
    </g>
    <g id="line2d_23"/>
    <g id="text_15">
     <!-- Q(a=1) -->
     <g transform="translate(769.84 189.6125)scale(0.16 -0.16)">
      <defs>
       <path d="M 1984 4856 
Q 1566 4138 1362 3434 
Q 1159 2731 1159 2009 
Q 1159 1288 1364 580 
Q 1569 -128 1984 -844 
L 1484 -844 
Q 1016 -109 783 600 
Q 550 1309 550 2009 
Q 550 2706 781 3412 
Q 1013 4119 1484 4856 
L 1984 4856 
z
" id="DejaVuSans-28" transform="scale(0.015625)"/>
       <path d="M 513 4856 
L 1013 4856 
Q 1481 4119 1714 3412 
Q 1947 2706 1947 2009 
Q 1947 1309 1714 600 
Q 1481 -109 1013 -844 
L 513 -844 
Q 928 -128 1133 580 
Q 1338 1288 1338 2009 
Q 1338 2731 1133 3434 
Q 928 4138 513 4856 
z
" id="DejaVuSans-29" transform="scale(0.015625)"/>
      </defs>
      <use xlink:href="#DejaVuSans-51"/>
      <use x="78.710938" xlink:href="#DejaVuSans-28"/>
      <use x="117.724609" xlink:href="#DejaVuSans-61"/>
      <use x="179.003906" xlink:href="#DejaVuSans-3d"/>
      <use x="262.792969" xlink:href="#DejaVuSans-31"/>
      <use x="326.416016" xlink:href="#DejaVuSans-29"/>
     </g>
    </g>
    <g id="line2d_24">
     <path d="M 725.04 207.4975 
L 757.04 207.4975 
" style="fill:none;stroke:#ff7f0e;stroke-dasharray:5.55,2.4;stroke-dashoffset:0;stroke-width:1.5;"/>
    </g>
    <g id="line2d_25"/>
    <g id="text_16">
     <!-- Q*(a=1) -->
     <g transform="translate(769.84 213.0975)scale(0.16 -0.16)">
      <defs>
       <path d="M 3009 3897 
L 1888 3291 
L 3009 2681 
L 2828 2375 
L 1778 3009 
L 1778 1831 
L 1422 1831 
L 1422 3009 
L 372 2375 
L 191 2681 
L 1313 3291 
L 191 3897 
L 372 4206 
L 1422 3572 
L 1422 4750 
L 1778 4750 
L 1778 3572 
L 2828 4206 
L 3009 3897 
z
" id="DejaVuSans-2a" transform="scale(0.015625)"/>
      </defs>
      <use xlink:href="#DejaVuSans-51"/>
      <use x="78.710938" xlink:href="#DejaVuSans-2a"/>
      <use x="128.710938" xlink:href="#DejaVuSans-28"/>
      <use x="167.724609" xlink:href="#DejaVuSans-61"/>
      <use x="229.003906" xlink:href="#DejaVuSans-3d"/>
      <use x="312.792969" xlink:href="#DejaVuSans-31"/>
      <use x="376.416016" xlink:href="#DejaVuSans-29"/>
     </g>
    </g>
    <g id="line2d_26">
     <path d="M 725.04 230.9825 
L 757.04 230.9825 
" style="fill:none;stroke:#2ca02c;stroke-linecap:square;stroke-width:2;"/>
    </g>
    <g id="line2d_27"/>
    <g id="text_17">
     <!-- Q(a=3) -->
     <g transform="translate(769.84 236.5825)scale(0.16 -0.16)">
      <use xlink:href="#DejaVuSans-51"/>
      <use x="78.710938" xlink:href="#DejaVuSans-28"/>
      <use x="117.724609" xlink:href="#DejaVuSans-61"/>
      <use x="179.003906" xlink:href="#DejaVuSans-3d"/>
      <use x="262.792969" xlink:href="#DejaVuSans-33"/>
      <use x="326.416016" xlink:href="#DejaVuSans-29"/>
     </g>
    </g>
    <g id="line2d_28">
     <path d="M 725.04 254.4675 
L 757.04 254.4675 
" style="fill:none;stroke:#d62728;stroke-dasharray:5.55,2.4;stroke-dashoffset:0;stroke-width:1.5;"/>
    </g>
    <g id="line2d_29"/>
    <g id="text_18">
     <!-- Q*(a=3) -->
     <g transform="translate(769.84 260.0675)scale(0.16 -0.16)">
      <use xlink:href="#DejaVuSans-51"/>
      <use x="78.710938" xlink:href="#DejaVuSans-2a"/>
      <use x="128.710938" xlink:href="#DejaVuSans-28"/>
      <use x="167.724609" xlink:href="#DejaVuSans-61"/>
      <use x="229.003906" xlink:href="#DejaVuSans-3d"/>
      <use x="312.792969" xlink:href="#DejaVuSans-33"/>
      <use x="376.416016" xlink:href="#DejaVuSans-29"/>
     </g>
    </g>
    <g id="line2d_30">
     <path d="M 725.04 277.9525 
L 757.04 277.9525 
" style="fill:none;stroke:#9467bd;stroke-linecap:square;stroke-width:2;"/>
    </g>
    <g id="line2d_31"/>
    <g id="text_19">
     <!-- Q(a=5) -->
     <g transform="translate(769.84 283.5525)scale(0.16 -0.16)">
      <defs>
       <path d="M 691 4666 
L 3169 4666 
L 3169 4134 
L 1269 4134 
L 1269 2991 
Q 1406 3038 1543 3061 
Q 1681 3084 1819 3084 
Q 2600 3084 3056 2656 
Q 3513 2228 3513 1497 
Q 3513 744 3044 326 
Q 2575 -91 1722 -91 
Q 1428 -91 1123 -41 
Q 819 9 494 109 
L 494 744 
Q 775 591 1075 516 
Q 1375 441 1709 441 
Q 2250 441 2565 725 
Q 2881 1009 2881 1497 
Q 2881 1984 2565 2268 
Q 2250 2553 1709 2553 
Q 1456 2553 1204 2497 
Q 953 2441 691 2322 
L 691 4666 
z
" id="DejaVuSans-35" transform="scale(0.015625)"/>
      </defs>
      <use xlink:href="#DejaVuSans-51"/>
      <use x="78.710938" xlink:href="#DejaVuSans-28"/>
      <use x="117.724609" xlink:href="#DejaVuSans-61"/>
      <use x="179.003906" xlink:href="#DejaVuSans-3d"/>
      <use x="262.792969" xlink:href="#DejaVuSans-35"/>
      <use x="326.416016" xlink:href="#DejaVuSans-29"/>
     </g>
    </g>
    <g id="line2d_32">
     <path d="M 725.04 301.4375 
L 757.04 301.4375 
" style="fill:none;stroke:#8c564b;stroke-dasharray:5.55,2.4;stroke-dashoffset:0;stroke-width:1.5;"/>
    </g>
    <g id="line2d_33"/>
    <g id="text_20">
     <!-- Q*(a=5) -->
     <g transform="translate(769.84 307.0375)scale(0.16 -0.16)">
      <use xlink:href="#DejaVuSans-51"/>
      <use x="78.710938" xlink:href="#DejaVuSans-2a"/>
      <use x="128.710938" xlink:href="#DejaVuSans-28"/>
      <use x="167.724609" xlink:href="#DejaVuSans-61"/>
      <use x="229.003906" xlink:href="#DejaVuSans-3d"/>
      <use x="312.792969" xlink:href="#DejaVuSans-35"/>
      <use x="376.416016" xlink:href="#DejaVuSans-29"/>
     </g>
    </g>
    <g id="line2d_34">
     <path d="M 725.04 324.9225 
L 757.04 324.9225 
" style="fill:none;stroke:#e377c2;stroke-linecap:square;stroke-width:2;"/>
    </g>
    <g id="line2d_35"/>
    <g id="text_21">
     <!-- Q(a=7) -->
     <g transform="translate(769.84 330.5225)scale(0.16 -0.16)">
      <defs>
       <path d="M 525 4666 
L 3525 4666 
L 3525 4397 
L 1831 0 
L 1172 0 
L 2766 4134 
L 525 4134 
L 525 4666 
z
" id="DejaVuSans-37" transform="scale(0.015625)"/>
      </defs>
      <use xlink:href="#DejaVuSans-51"/>
      <use x="78.710938" xlink:href="#DejaVuSans-28"/>
      <use x="117.724609" xlink:href="#DejaVuSans-61"/>
      <use x="179.003906" xlink:href="#DejaVuSans-3d"/>
      <use x="262.792969" xlink:href="#DejaVuSans-37"/>
      <use x="326.416016" xlink:href="#DejaVuSans-29"/>
     </g>
    </g>
    <g id="line2d_36">
     <path d="M 725.04 348.4075 
L 757.04 348.4075 
" style="fill:none;stroke:#7f7f7f;stroke-dasharray:5.55,2.4;stroke-dashoffset:0;stroke-width:1.5;"/>
    </g>
    <g id="line2d_37"/>
    <g id="text_22">
     <!-- Q*(a=7) -->
     <g transform="translate(769.84 354.0075)scale(0.16 -0.16)">
      <use xlink:href="#DejaVuSans-51"/>
      <use x="78.710938" xlink:href="#DejaVuSans-2a"/>
      <use x="128.710938" xlink:href="#DejaVuSans-28"/>
      <use x="167.724609" xlink:href="#DejaVuSans-61"/>
      <use x="229.003906" xlink:href="#DejaVuSans-3d"/>
      <use x="312.792969" xlink:href="#DejaVuSans-37"/>
      <use x="376.416016" xlink:href="#DejaVuSans-29"/>
     </g>
    </g>
    <g id="line2d_38">
     <path d="M 725.04 371.8925 
L 757.04 371.8925 
" style="fill:none;stroke:#bcbd22;stroke-linecap:square;stroke-width:2;"/>
    </g>
    <g id="line2d_39"/>
    <g id="text_23">
     <!-- Q(a=9) -->
     <g transform="translate(769.84 377.4925)scale(0.16 -0.16)">
      <defs>
       <path d="M 703 97 
L 703 672 
Q 941 559 1184 500 
Q 1428 441 1663 441 
Q 2288 441 2617 861 
Q 2947 1281 2994 2138 
Q 2813 1869 2534 1725 
Q 2256 1581 1919 1581 
Q 1219 1581 811 2004 
Q 403 2428 403 3163 
Q 403 3881 828 4315 
Q 1253 4750 1959 4750 
Q 2769 4750 3195 4129 
Q 3622 3509 3622 2328 
Q 3622 1225 3098 567 
Q 2575 -91 1691 -91 
Q 1453 -91 1209 -44 
Q 966 3 703 97 
z
M 1959 2075 
Q 2384 2075 2632 2365 
Q 2881 2656 2881 3163 
Q 2881 3666 2632 3958 
Q 2384 4250 1959 4250 
Q 1534 4250 1286 3958 
Q 1038 3666 1038 3163 
Q 1038 2656 1286 2365 
Q 1534 2075 1959 2075 
z
" id="DejaVuSans-39" transform="scale(0.015625)"/>
      </defs>
      <use xlink:href="#DejaVuSans-51"/>
      <use x="78.710938" xlink:href="#DejaVuSans-28"/>
      <use x="117.724609" xlink:href="#DejaVuSans-61"/>
      <use x="179.003906" xlink:href="#DejaVuSans-3d"/>
      <use x="262.792969" xlink:href="#DejaVuSans-39"/>
      <use x="326.416016" xlink:href="#DejaVuSans-29"/>
     </g>
    </g>
    <g id="line2d_40">
     <path d="M 725.04 395.3775 
L 757.04 395.3775 
" style="fill:none;stroke:#17becf;stroke-dasharray:5.55,2.4;stroke-dashoffset:0;stroke-width:1.5;"/>
    </g>
    <g id="line2d_41"/>
    <g id="text_24">
     <!-- Q*(a=9) -->
     <g transform="translate(769.84 400.9775)scale(0.16 -0.16)">
      <use xlink:href="#DejaVuSans-51"/>
      <use x="78.710938" xlink:href="#DejaVuSans-2a"/>
      <use x="128.710938" xlink:href="#DejaVuSans-28"/>
      <use x="167.724609" xlink:href="#DejaVuSans-61"/>
      <use x="229.003906" xlink:href="#DejaVuSans-3d"/>
      <use x="312.792969" xlink:href="#DejaVuSans-39"/>
      <use x="376.416016" xlink:href="#DejaVuSans-29"/>
     </g>
    </g>
   </g>
  </g>
 </g>
 <defs>
  <clipPath id="pfb6d5c833b">
   <rect height="443.52" width="602.64" x="108" y="69.12"/>
  </clipPath>
 </defs>
</svg>
