<?xml version="1.0" encoding="utf-8" standalone="no"?>
<!DOCTYPE svg PUBLIC "-//W3C//DTD SVG 1.1//EN"
  "http://www.w3.org/Graphics/SVG/1.1/DTD/svg11.dtd">
<svg height="576pt" version="1.1" viewBox="0 0 864 576" width="864pt" xmlns="http://www.w3.org/2000/svg" xmlns:xlink="http://www.w3.org/1999/xlink">
 <metadata>
  <rdf:RDF xmlns:cc="http://creativecommons.org/ns#" xmlns:dc="http://purl.org/dc/elements/1.1/" xmlns:rdf="http://www.w3.org/1999/02/22-rdf-syntax-ns#">
   <cc:Work>
    <dc:type rdf:resource="http://purl.org/dc/dcmitype/StillImage"/>
    <dc:date>2021-09-11T13:27:32.548089</dc:date>
    <dc:format>image/svg+xml</dc:format>
    <dc:creator>
     <cc:Agent>
      <dc:title>Matplotlib v3.4.3, https://matplotlib.org/</dc:title>
     </cc:Agent>
    </dc:creator>
   </cc:Work>
  </rdf:RDF>
 </metadata>
 <defs>
  <style type="text/css">*{stroke-linecap:butt;stroke-linejoin:round;}</style>
 </defs>
 <g id="figure_1">
  <g id="patch_1">
   <path d="M 0 576 
L 864 576 
L 864 0 
L 0 0 
z
" style="fill:#ffffff;"/>
  </g>
  <g id="axes_1">
   <g id="patch_2">
    <path d="M 108 512.64 
L 777.6 512.64 
L 777.6 69.12 
L 108 69.12 
z
" style="fill:#ffffff;"/>
   </g>
   <g id="matplotlib.axis_1">
    <g id="xtick_1">
     <g id="line2d_1">
      <defs>
       <path d="M 0 0 
L 0 3.5 
" id="m40f97fbc5b" style="stroke:#000000;stroke-width:0.8;"/>
      </defs>
      <g>
       <use style="stroke:#000000;stroke-width:0.8;" x="138.436364" xlink:href="#m40f97fbc5b" y="512.64"/>
      </g>
     </g>
     <g id="text_1">
      <!-- 0 -->
      <g transform="translate(133.982614 530.277812)scale(0.14 -0.14)">
       <defs>
        <path d="M 2034 4250 
Q 1547 4250 1301 3770 
Q 1056 3291 1056 2328 
Q 1056 1369 1301 889 
Q 1547 409 2034 409 
Q 2525 409 2770 889 
Q 3016 1369 3016 2328 
Q 3016 3291 2770 3770 
Q 2525 4250 2034 4250 
z
M 2034 4750 
Q 2819 4750 3233 4129 
Q 3647 3509 3647 2328 
Q 3647 1150 3233 529 
Q 2819 -91 2034 -91 
Q 1250 -91 836 529 
Q 422 1150 422 2328 
Q 422 3509 836 4129 
Q 1250 4750 2034 4750 
z
" id="DejaVuSans-30" transform="scale(0.015625)"/>
       </defs>
       <use xlink:href="#DejaVuSans-30"/>
      </g>
     </g>
    </g>
    <g id="xtick_2">
     <g id="line2d_2">
      <g>
       <use style="stroke:#000000;stroke-width:0.8;" x="260.303686" xlink:href="#m40f97fbc5b" y="512.64"/>
      </g>
     </g>
     <g id="text_2">
      <!-- 200 -->
      <g transform="translate(246.942436 530.277812)scale(0.14 -0.14)">
       <defs>
        <path d="M 1228 531 
L 3431 531 
L 3431 0 
L 469 0 
L 469 531 
Q 828 903 1448 1529 
Q 2069 2156 2228 2338 
Q 2531 2678 2651 2914 
Q 2772 3150 2772 3378 
Q 2772 3750 2511 3984 
Q 2250 4219 1831 4219 
Q 1534 4219 1204 4116 
Q 875 4013 500 3803 
L 500 4441 
Q 881 4594 1212 4672 
Q 1544 4750 1819 4750 
Q 2544 4750 2975 4387 
Q 3406 4025 3406 3419 
Q 3406 3131 3298 2873 
Q 3191 2616 2906 2266 
Q 2828 2175 2409 1742 
Q 1991 1309 1228 531 
z
" id="DejaVuSans-32" transform="scale(0.015625)"/>
       </defs>
       <use xlink:href="#DejaVuSans-32"/>
       <use x="63.623047" xlink:href="#DejaVuSans-30"/>
       <use x="127.246094" xlink:href="#DejaVuSans-30"/>
      </g>
     </g>
    </g>
    <g id="xtick_3">
     <g id="line2d_3">
      <g>
       <use style="stroke:#000000;stroke-width:0.8;" x="382.171007" xlink:href="#m40f97fbc5b" y="512.64"/>
      </g>
     </g>
     <g id="text_3">
      <!-- 400 -->
      <g transform="translate(368.809757 530.277812)scale(0.14 -0.14)">
       <defs>
        <path d="M 2419 4116 
L 825 1625 
L 2419 1625 
L 2419 4116 
z
M 2253 4666 
L 3047 4666 
L 3047 1625 
L 3713 1625 
L 3713 1100 
L 3047 1100 
L 3047 0 
L 2419 0 
L 2419 1100 
L 313 1100 
L 313 1709 
L 2253 4666 
z
" id="DejaVuSans-34" transform="scale(0.015625)"/>
       </defs>
       <use xlink:href="#DejaVuSans-34"/>
       <use x="63.623047" xlink:href="#DejaVuSans-30"/>
       <use x="127.246094" xlink:href="#DejaVuSans-30"/>
      </g>
     </g>
    </g>
    <g id="xtick_4">
     <g id="line2d_4">
      <g>
       <use style="stroke:#000000;stroke-width:0.8;" x="504.038329" xlink:href="#m40f97fbc5b" y="512.64"/>
      </g>
     </g>
     <g id="text_4">
      <!-- 600 -->
      <g transform="translate(490.677079 530.277812)scale(0.14 -0.14)">
       <defs>
        <path d="M 2113 2584 
Q 1688 2584 1439 2293 
Q 1191 2003 1191 1497 
Q 1191 994 1439 701 
Q 1688 409 2113 409 
Q 2538 409 2786 701 
Q 3034 994 3034 1497 
Q 3034 2003 2786 2293 
Q 2538 2584 2113 2584 
z
M 3366 4563 
L 3366 3988 
Q 3128 4100 2886 4159 
Q 2644 4219 2406 4219 
Q 1781 4219 1451 3797 
Q 1122 3375 1075 2522 
Q 1259 2794 1537 2939 
Q 1816 3084 2150 3084 
Q 2853 3084 3261 2657 
Q 3669 2231 3669 1497 
Q 3669 778 3244 343 
Q 2819 -91 2113 -91 
Q 1303 -91 875 529 
Q 447 1150 447 2328 
Q 447 3434 972 4092 
Q 1497 4750 2381 4750 
Q 2619 4750 2861 4703 
Q 3103 4656 3366 4563 
z
" id="DejaVuSans-36" transform="scale(0.015625)"/>
       </defs>
       <use xlink:href="#DejaVuSans-36"/>
       <use x="63.623047" xlink:href="#DejaVuSans-30"/>
       <use x="127.246094" xlink:href="#DejaVuSans-30"/>
      </g>
     </g>
    </g>
    <g id="xtick_5">
     <g id="line2d_5">
      <g>
       <use style="stroke:#000000;stroke-width:0.8;" x="625.905651" xlink:href="#m40f97fbc5b" y="512.64"/>
      </g>
     </g>
     <g id="text_5">
      <!-- 800 -->
      <g transform="translate(612.544401 530.277812)scale(0.14 -0.14)">
       <defs>
        <path d="M 2034 2216 
Q 1584 2216 1326 1975 
Q 1069 1734 1069 1313 
Q 1069 891 1326 650 
Q 1584 409 2034 409 
Q 2484 409 2743 651 
Q 3003 894 3003 1313 
Q 3003 1734 2745 1975 
Q 2488 2216 2034 2216 
z
M 1403 2484 
Q 997 2584 770 2862 
Q 544 3141 544 3541 
Q 544 4100 942 4425 
Q 1341 4750 2034 4750 
Q 2731 4750 3128 4425 
Q 3525 4100 3525 3541 
Q 3525 3141 3298 2862 
Q 3072 2584 2669 2484 
Q 3125 2378 3379 2068 
Q 3634 1759 3634 1313 
Q 3634 634 3220 271 
Q 2806 -91 2034 -91 
Q 1263 -91 848 271 
Q 434 634 434 1313 
Q 434 1759 690 2068 
Q 947 2378 1403 2484 
z
M 1172 3481 
Q 1172 3119 1398 2916 
Q 1625 2713 2034 2713 
Q 2441 2713 2670 2916 
Q 2900 3119 2900 3481 
Q 2900 3844 2670 4047 
Q 2441 4250 2034 4250 
Q 1625 4250 1398 4047 
Q 1172 3844 1172 3481 
z
" id="DejaVuSans-38" transform="scale(0.015625)"/>
       </defs>
       <use xlink:href="#DejaVuSans-38"/>
       <use x="63.623047" xlink:href="#DejaVuSans-30"/>
       <use x="127.246094" xlink:href="#DejaVuSans-30"/>
      </g>
     </g>
    </g>
    <g id="xtick_6">
     <g id="line2d_6">
      <g>
       <use style="stroke:#000000;stroke-width:0.8;" x="747.772973" xlink:href="#m40f97fbc5b" y="512.64"/>
      </g>
     </g>
     <g id="text_6">
      <!-- 1000 -->
      <g transform="translate(729.957973 530.277812)scale(0.14 -0.14)">
       <defs>
        <path d="M 794 531 
L 1825 531 
L 1825 4091 
L 703 3866 
L 703 4441 
L 1819 4666 
L 2450 4666 
L 2450 531 
L 3481 531 
L 3481 0 
L 794 0 
L 794 531 
z
" id="DejaVuSans-31" transform="scale(0.015625)"/>
       </defs>
       <use xlink:href="#DejaVuSans-31"/>
       <use x="63.623047" xlink:href="#DejaVuSans-30"/>
       <use x="127.246094" xlink:href="#DejaVuSans-30"/>
       <use x="190.869141" xlink:href="#DejaVuSans-30"/>
      </g>
     </g>
    </g>
    <g id="text_7">
     <!-- Time Steps -->
     <g transform="translate(403.8625 547.827188)scale(0.14 -0.14)">
      <defs>
       <path d="M -19 4666 
L 3928 4666 
L 3928 4134 
L 2272 4134 
L 2272 0 
L 1638 0 
L 1638 4134 
L -19 4134 
L -19 4666 
z
" id="DejaVuSans-54" transform="scale(0.015625)"/>
       <path d="M 603 3500 
L 1178 3500 
L 1178 0 
L 603 0 
L 603 3500 
z
M 603 4863 
L 1178 4863 
L 1178 4134 
L 603 4134 
L 603 4863 
z
" id="DejaVuSans-69" transform="scale(0.015625)"/>
       <path d="M 3328 2828 
Q 3544 3216 3844 3400 
Q 4144 3584 4550 3584 
Q 5097 3584 5394 3201 
Q 5691 2819 5691 2113 
L 5691 0 
L 5113 0 
L 5113 2094 
Q 5113 2597 4934 2840 
Q 4756 3084 4391 3084 
Q 3944 3084 3684 2787 
Q 3425 2491 3425 1978 
L 3425 0 
L 2847 0 
L 2847 2094 
Q 2847 2600 2669 2842 
Q 2491 3084 2119 3084 
Q 1678 3084 1418 2786 
Q 1159 2488 1159 1978 
L 1159 0 
L 581 0 
L 581 3500 
L 1159 3500 
L 1159 2956 
Q 1356 3278 1631 3431 
Q 1906 3584 2284 3584 
Q 2666 3584 2933 3390 
Q 3200 3197 3328 2828 
z
" id="DejaVuSans-6d" transform="scale(0.015625)"/>
       <path d="M 3597 1894 
L 3597 1613 
L 953 1613 
Q 991 1019 1311 708 
Q 1631 397 2203 397 
Q 2534 397 2845 478 
Q 3156 559 3463 722 
L 3463 178 
Q 3153 47 2828 -22 
Q 2503 -91 2169 -91 
Q 1331 -91 842 396 
Q 353 884 353 1716 
Q 353 2575 817 3079 
Q 1281 3584 2069 3584 
Q 2775 3584 3186 3129 
Q 3597 2675 3597 1894 
z
M 3022 2063 
Q 3016 2534 2758 2815 
Q 2500 3097 2075 3097 
Q 1594 3097 1305 2825 
Q 1016 2553 972 2059 
L 3022 2063 
z
" id="DejaVuSans-65" transform="scale(0.015625)"/>
       <path id="DejaVuSans-20" transform="scale(0.015625)"/>
       <path d="M 3425 4513 
L 3425 3897 
Q 3066 4069 2747 4153 
Q 2428 4238 2131 4238 
Q 1616 4238 1336 4038 
Q 1056 3838 1056 3469 
Q 1056 3159 1242 3001 
Q 1428 2844 1947 2747 
L 2328 2669 
Q 3034 2534 3370 2195 
Q 3706 1856 3706 1288 
Q 3706 609 3251 259 
Q 2797 -91 1919 -91 
Q 1588 -91 1214 -16 
Q 841 59 441 206 
L 441 856 
Q 825 641 1194 531 
Q 1563 422 1919 422 
Q 2459 422 2753 634 
Q 3047 847 3047 1241 
Q 3047 1584 2836 1778 
Q 2625 1972 2144 2069 
L 1759 2144 
Q 1053 2284 737 2584 
Q 422 2884 422 3419 
Q 422 4038 858 4394 
Q 1294 4750 2059 4750 
Q 2388 4750 2728 4690 
Q 3069 4631 3425 4513 
z
" id="DejaVuSans-53" transform="scale(0.015625)"/>
       <path d="M 1172 4494 
L 1172 3500 
L 2356 3500 
L 2356 3053 
L 1172 3053 
L 1172 1153 
Q 1172 725 1289 603 
Q 1406 481 1766 481 
L 2356 481 
L 2356 0 
L 1766 0 
Q 1100 0 847 248 
Q 594 497 594 1153 
L 594 3053 
L 172 3053 
L 172 3500 
L 594 3500 
L 594 4494 
L 1172 4494 
z
" id="DejaVuSans-74" transform="scale(0.015625)"/>
       <path d="M 1159 525 
L 1159 -1331 
L 581 -1331 
L 581 3500 
L 1159 3500 
L 1159 2969 
Q 1341 3281 1617 3432 
Q 1894 3584 2278 3584 
Q 2916 3584 3314 3078 
Q 3713 2572 3713 1747 
Q 3713 922 3314 415 
Q 2916 -91 2278 -91 
Q 1894 -91 1617 61 
Q 1341 213 1159 525 
z
M 3116 1747 
Q 3116 2381 2855 2742 
Q 2594 3103 2138 3103 
Q 1681 3103 1420 2742 
Q 1159 2381 1159 1747 
Q 1159 1113 1420 752 
Q 1681 391 2138 391 
Q 2594 391 2855 752 
Q 3116 1113 3116 1747 
z
" id="DejaVuSans-70" transform="scale(0.015625)"/>
       <path d="M 2834 3397 
L 2834 2853 
Q 2591 2978 2328 3040 
Q 2066 3103 1784 3103 
Q 1356 3103 1142 2972 
Q 928 2841 928 2578 
Q 928 2378 1081 2264 
Q 1234 2150 1697 2047 
L 1894 2003 
Q 2506 1872 2764 1633 
Q 3022 1394 3022 966 
Q 3022 478 2636 193 
Q 2250 -91 1575 -91 
Q 1294 -91 989 -36 
Q 684 19 347 128 
L 347 722 
Q 666 556 975 473 
Q 1284 391 1588 391 
Q 1994 391 2212 530 
Q 2431 669 2431 922 
Q 2431 1156 2273 1281 
Q 2116 1406 1581 1522 
L 1381 1569 
Q 847 1681 609 1914 
Q 372 2147 372 2553 
Q 372 3047 722 3315 
Q 1072 3584 1716 3584 
Q 2034 3584 2315 3537 
Q 2597 3491 2834 3397 
z
" id="DejaVuSans-73" transform="scale(0.015625)"/>
      </defs>
      <use xlink:href="#DejaVuSans-54"/>
      <use x="57.958984" xlink:href="#DejaVuSans-69"/>
      <use x="85.742188" xlink:href="#DejaVuSans-6d"/>
      <use x="183.154297" xlink:href="#DejaVuSans-65"/>
      <use x="244.677734" xlink:href="#DejaVuSans-20"/>
      <use x="276.464844" xlink:href="#DejaVuSans-53"/>
      <use x="339.941406" xlink:href="#DejaVuSans-74"/>
      <use x="379.150391" xlink:href="#DejaVuSans-65"/>
      <use x="440.673828" xlink:href="#DejaVuSans-70"/>
      <use x="504.150391" xlink:href="#DejaVuSans-73"/>
     </g>
    </g>
   </g>
   <g id="matplotlib.axis_2">
    <g id="ytick_1">
     <g id="line2d_7">
      <defs>
       <path d="M 0 0 
L -3.5 0 
" id="md46c8d1712" style="stroke:#000000;stroke-width:0.8;"/>
      </defs>
      <g>
       <use style="stroke:#000000;stroke-width:0.8;" x="108" xlink:href="#md46c8d1712" y="492.830701"/>
      </g>
     </g>
     <g id="text_8">
      <!-- 0 -->
      <g transform="translate(92.0925 498.149608)scale(0.14 -0.14)">
       <use xlink:href="#DejaVuSans-30"/>
      </g>
     </g>
    </g>
    <g id="ytick_2">
     <g id="line2d_8">
      <g>
       <use style="stroke:#000000;stroke-width:0.8;" x="108" xlink:href="#md46c8d1712" y="442.8227"/>
      </g>
     </g>
     <g id="text_9">
      <!-- 200 -->
      <g transform="translate(74.2775 448.141606)scale(0.14 -0.14)">
       <use xlink:href="#DejaVuSans-32"/>
       <use x="63.623047" xlink:href="#DejaVuSans-30"/>
       <use x="127.246094" xlink:href="#DejaVuSans-30"/>
      </g>
     </g>
    </g>
    <g id="ytick_3">
     <g id="line2d_9">
      <g>
       <use style="stroke:#000000;stroke-width:0.8;" x="108" xlink:href="#md46c8d1712" y="392.814699"/>
      </g>
     </g>
     <g id="text_10">
      <!-- 400 -->
      <g transform="translate(74.2775 398.133605)scale(0.14 -0.14)">
       <use xlink:href="#DejaVuSans-34"/>
       <use x="63.623047" xlink:href="#DejaVuSans-30"/>
       <use x="127.246094" xlink:href="#DejaVuSans-30"/>
      </g>
     </g>
    </g>
    <g id="ytick_4">
     <g id="line2d_10">
      <g>
       <use style="stroke:#000000;stroke-width:0.8;" x="108" xlink:href="#md46c8d1712" y="342.806697"/>
      </g>
     </g>
     <g id="text_11">
      <!-- 600 -->
      <g transform="translate(74.2775 348.125603)scale(0.14 -0.14)">
       <use xlink:href="#DejaVuSans-36"/>
       <use x="63.623047" xlink:href="#DejaVuSans-30"/>
       <use x="127.246094" xlink:href="#DejaVuSans-30"/>
      </g>
     </g>
    </g>
    <g id="ytick_5">
     <g id="line2d_11">
      <g>
       <use style="stroke:#000000;stroke-width:0.8;" x="108" xlink:href="#md46c8d1712" y="292.798696"/>
      </g>
     </g>
     <g id="text_12">
      <!-- 800 -->
      <g transform="translate(74.2775 298.117602)scale(0.14 -0.14)">
       <use xlink:href="#DejaVuSans-38"/>
       <use x="63.623047" xlink:href="#DejaVuSans-30"/>
       <use x="127.246094" xlink:href="#DejaVuSans-30"/>
      </g>
     </g>
    </g>
    <g id="ytick_6">
     <g id="line2d_12">
      <g>
       <use style="stroke:#000000;stroke-width:0.8;" x="108" xlink:href="#md46c8d1712" y="242.790694"/>
      </g>
     </g>
     <g id="text_13">
      <!-- 1000 -->
      <g transform="translate(65.37 248.109601)scale(0.14 -0.14)">
       <use xlink:href="#DejaVuSans-31"/>
       <use x="63.623047" xlink:href="#DejaVuSans-30"/>
       <use x="127.246094" xlink:href="#DejaVuSans-30"/>
       <use x="190.869141" xlink:href="#DejaVuSans-30"/>
      </g>
     </g>
    </g>
    <g id="ytick_7">
     <g id="line2d_13">
      <g>
       <use style="stroke:#000000;stroke-width:0.8;" x="108" xlink:href="#md46c8d1712" y="192.782693"/>
      </g>
     </g>
     <g id="text_14">
      <!-- 1200 -->
      <g transform="translate(65.37 198.101599)scale(0.14 -0.14)">
       <use xlink:href="#DejaVuSans-31"/>
       <use x="63.623047" xlink:href="#DejaVuSans-32"/>
       <use x="127.246094" xlink:href="#DejaVuSans-30"/>
       <use x="190.869141" xlink:href="#DejaVuSans-30"/>
      </g>
     </g>
    </g>
    <g id="ytick_8">
     <g id="line2d_14">
      <g>
       <use style="stroke:#000000;stroke-width:0.8;" x="108" xlink:href="#md46c8d1712" y="142.774692"/>
      </g>
     </g>
     <g id="text_15">
      <!-- 1400 -->
      <g transform="translate(65.37 148.093598)scale(0.14 -0.14)">
       <use xlink:href="#DejaVuSans-31"/>
       <use x="63.623047" xlink:href="#DejaVuSans-34"/>
       <use x="127.246094" xlink:href="#DejaVuSans-30"/>
       <use x="190.869141" xlink:href="#DejaVuSans-30"/>
      </g>
     </g>
    </g>
    <g id="ytick_9">
     <g id="line2d_15">
      <g>
       <use style="stroke:#000000;stroke-width:0.8;" x="108" xlink:href="#md46c8d1712" y="92.76669"/>
      </g>
     </g>
     <g id="text_16">
      <!-- 1600 -->
      <g transform="translate(65.37 98.085596)scale(0.14 -0.14)">
       <use xlink:href="#DejaVuSans-31"/>
       <use x="63.623047" xlink:href="#DejaVuSans-36"/>
       <use x="127.246094" xlink:href="#DejaVuSans-30"/>
       <use x="190.869141" xlink:href="#DejaVuSans-30"/>
      </g>
     </g>
    </g>
    <g id="text_17">
     <!-- Average regret -->
     <g transform="translate(58.458438 343.093437)rotate(-90)scale(0.14 -0.14)">
      <defs>
       <path d="M 2188 4044 
L 1331 1722 
L 3047 1722 
L 2188 4044 
z
M 1831 4666 
L 2547 4666 
L 4325 0 
L 3669 0 
L 3244 1197 
L 1141 1197 
L 716 0 
L 50 0 
L 1831 4666 
z
" id="DejaVuSans-41" transform="scale(0.015625)"/>
       <path d="M 191 3500 
L 800 3500 
L 1894 563 
L 2988 3500 
L 3597 3500 
L 2284 0 
L 1503 0 
L 191 3500 
z
" id="DejaVuSans-76" transform="scale(0.015625)"/>
       <path d="M 2631 2963 
Q 2534 3019 2420 3045 
Q 2306 3072 2169 3072 
Q 1681 3072 1420 2755 
Q 1159 2438 1159 1844 
L 1159 0 
L 581 0 
L 581 3500 
L 1159 3500 
L 1159 2956 
Q 1341 3275 1631 3429 
Q 1922 3584 2338 3584 
Q 2397 3584 2469 3576 
Q 2541 3569 2628 3553 
L 2631 2963 
z
" id="DejaVuSans-72" transform="scale(0.015625)"/>
       <path d="M 2194 1759 
Q 1497 1759 1228 1600 
Q 959 1441 959 1056 
Q 959 750 1161 570 
Q 1363 391 1709 391 
Q 2188 391 2477 730 
Q 2766 1069 2766 1631 
L 2766 1759 
L 2194 1759 
z
M 3341 1997 
L 3341 0 
L 2766 0 
L 2766 531 
Q 2569 213 2275 61 
Q 1981 -91 1556 -91 
Q 1019 -91 701 211 
Q 384 513 384 1019 
Q 384 1609 779 1909 
Q 1175 2209 1959 2209 
L 2766 2209 
L 2766 2266 
Q 2766 2663 2505 2880 
Q 2244 3097 1772 3097 
Q 1472 3097 1187 3025 
Q 903 2953 641 2809 
L 641 3341 
Q 956 3463 1253 3523 
Q 1550 3584 1831 3584 
Q 2591 3584 2966 3190 
Q 3341 2797 3341 1997 
z
" id="DejaVuSans-61" transform="scale(0.015625)"/>
       <path d="M 2906 1791 
Q 2906 2416 2648 2759 
Q 2391 3103 1925 3103 
Q 1463 3103 1205 2759 
Q 947 2416 947 1791 
Q 947 1169 1205 825 
Q 1463 481 1925 481 
Q 2391 481 2648 825 
Q 2906 1169 2906 1791 
z
M 3481 434 
Q 3481 -459 3084 -895 
Q 2688 -1331 1869 -1331 
Q 1566 -1331 1297 -1286 
Q 1028 -1241 775 -1147 
L 775 -588 
Q 1028 -725 1275 -790 
Q 1522 -856 1778 -856 
Q 2344 -856 2625 -561 
Q 2906 -266 2906 331 
L 2906 616 
Q 2728 306 2450 153 
Q 2172 0 1784 0 
Q 1141 0 747 490 
Q 353 981 353 1791 
Q 353 2603 747 3093 
Q 1141 3584 1784 3584 
Q 2172 3584 2450 3431 
Q 2728 3278 2906 2969 
L 2906 3500 
L 3481 3500 
L 3481 434 
z
" id="DejaVuSans-67" transform="scale(0.015625)"/>
      </defs>
      <use xlink:href="#DejaVuSans-41"/>
      <use x="62.533203" xlink:href="#DejaVuSans-76"/>
      <use x="121.712891" xlink:href="#DejaVuSans-65"/>
      <use x="183.236328" xlink:href="#DejaVuSans-72"/>
      <use x="224.349609" xlink:href="#DejaVuSans-61"/>
      <use x="285.628906" xlink:href="#DejaVuSans-67"/>
      <use x="349.105469" xlink:href="#DejaVuSans-65"/>
      <use x="410.628906" xlink:href="#DejaVuSans-20"/>
      <use x="442.416016" xlink:href="#DejaVuSans-72"/>
      <use x="481.279297" xlink:href="#DejaVuSans-65"/>
      <use x="542.802734" xlink:href="#DejaVuSans-67"/>
      <use x="606.279297" xlink:href="#DejaVuSans-72"/>
      <use x="645.142578" xlink:href="#DejaVuSans-65"/>
      <use x="706.666016" xlink:href="#DejaVuSans-74"/>
     </g>
    </g>
   </g>
   <g id="line2d_16">
    <path clip-path="url(#p206c093c71)" d="M 138.436364 492.48 
L 141.483047 491.074648 
L 144.52973 489.967198 
L 149.404423 488.528094 
L 157.935135 486.311754 
L 186.573956 479.536348 
L 239.586241 467.501533 
L 747.163636 354.712749 
L 747.163636 354.712749 
" style="fill:none;stroke:#1f77b4;stroke-linecap:square;stroke-width:2;"/>
   </g>
   <g id="line2d_17">
    <path clip-path="url(#p206c093c71)" d="M 138.436364 492.360078 
L 140.264373 491.142983 
L 142.092383 489.866411 
L 156.716462 480.267231 
L 157.935135 479.461402 
L 158.544472 479.015412 
L 159.153808 478.709301 
L 160.372482 477.902228 
L 162.200491 476.862427 
L 170.731204 471.050224 
L 173.16855 469.543272 
L 176.215233 467.56061 
L 179.261916 465.478596 
L 182.3086 463.485267 
L 188.401966 459.15123 
L 190.229975 457.925359 
L 193.276658 456.021071 
L 195.104668 454.93573 
L 199.979361 451.583925 
L 202.416708 449.999247 
L 204.854054 448.395922 
L 207.2914 446.670173 
L 212.77543 443.03926 
L 215.212776 441.39553 
L 216.43145 440.550632 
L 218.259459 439.347298 
L 225.571499 434.320732 
L 240.195577 425.147007 
L 242.632924 423.654395 
L 244.460934 422.437133 
L 247.507617 420.521874 
L 250.5543 418.489177 
L 252.38231 417.138311 
L 256.647666 414.243587 
L 259.085012 412.546968 
L 273.709091 402.88989 
L 274.927764 402.10785 
L 276.146437 401.279733 
L 277.974447 400.17486 
L 282.239803 397.45751 
L 285.895823 395.056206 
L 286.50516 394.738502 
L 288.942506 393.039584 
L 290.161179 392.240256 
L 293.207862 390.097022 
L 294.426536 389.33085 
L 296.863882 387.83969 
L 298.691892 386.641819 
L 307.831941 380.599477 
L 310.269287 378.992399 
L 312.706634 377.482188 
L 314.534644 376.261206 
L 316.362654 375.134714 
L 324.284029 369.836782 
L 325.502703 369.016284 
L 327.330713 367.752848 
L 330.377396 365.740134 
L 331.596069 364.920821 
L 339.517445 359.59934 
L 342.564128 357.681181 
L 345.001474 356.073632 
L 347.438821 354.387692 
L 349.26683 353.250309 
L 355.360197 349.08441 
L 360.844226 345.425294 
L 362.062899 344.64356 
L 365.718919 342.271475 
L 379.124324 333.513871 
L 382.780344 330.900132 
L 384.608354 329.718513 
L 385.827027 328.800095 
L 393.139066 323.873663 
L 394.967076 322.635753 
L 397.404423 320.837436 
L 408.981818 313.262157 
L 413.247174 310.455319 
L 414.465848 309.598992 
L 416.293857 308.44218 
L 418.121867 307.208634 
L 420.559214 305.642584 
L 426.65258 301.380138 
L 428.48059 300.154722 
L 430.917936 298.573408 
L 433.355283 296.895982 
L 461.384767 278.341711 
L 462.60344 277.63638 
L 465.040786 275.926248 
L 469.915479 272.622501 
L 472.962162 270.479419 
L 478.446192 266.988399 
L 480.883538 265.317168 
L 483.320885 263.63608 
L 485.758231 261.974532 
L 489.414251 259.433696 
L 491.24226 258.322437 
L 507.085012 247.786356 
L 509.522359 246.136602 
L 515.615725 241.878974 
L 526.583784 234.503733 
L 530.84914 231.565236 
L 534.50516 229.282802 
L 538.161179 226.756448 
L 539.379853 226.020043 
L 540.598526 225.25834 
L 545.473219 222.113038 
L 547.910565 220.52473 
L 550.957248 218.680805 
L 561.925307 211.373885 
L 564.362654 209.715171 
L 567.409337 207.782303 
L 569.237346 206.56696 
L 570.45602 205.835128 
L 572.893366 204.136161 
L 575.940049 202.131334 
L 588.126781 193.948917 
L 600.92285 185.656467 
L 602.141523 184.775961 
L 603.969533 183.534877 
L 623.468305 170.379738 
L 624.686978 169.650947 
L 627.124324 168.058111 
L 628.342998 167.352413 
L 633.827027 163.542515 
L 635.0457 162.75706 
L 636.87371 161.515434 
L 638.092383 160.831515 
L 646.013759 155.65367 
L 647.232432 154.951771 
L 648.451106 154.182636 
L 652.716462 151.159183 
L 655.153808 149.427892 
L 665.512531 142.498849 
L 667.340541 141.350079 
L 672.82457 137.69151 
L 675.261916 136.226304 
L 697.198034 121.900805 
L 700.244717 119.887212 
L 704.510074 117.029279 
L 709.384767 113.807016 
L 711.822113 111.976245 
L 714.868796 109.913119 
L 716.696806 108.885568 
L 718.524816 107.695226 
L 720.352826 106.500089 
L 723.399509 104.648911 
L 727.664865 101.878381 
L 730.711548 99.901431 
L 733.148894 98.268152 
L 735.586241 96.758664 
L 744.116953 91.255605 
L 745.335627 90.401926 
L 747.163636 89.28 
L 747.163636 89.28 
" style="fill:none;stroke:#ff7f0e;stroke-linecap:square;stroke-width:2;"/>
   </g>
   <g id="line2d_18">
    <path clip-path="url(#p206c093c71)" d="M 138.436364 492.470936 
L 140.264373 491.644012 
L 144.52973 490.264286 
L 148.185749 489.191434 
L 156.107125 487.349782 
L 159.153808 486.671176 
L 164.028501 485.746571 
L 167.075184 485.202536 
L 174.387224 483.97713 
L 178.043243 483.363932 
L 181.089926 482.844428 
L 189.011302 481.624478 
L 190.839312 481.292617 
L 192.667322 481.03062 
L 195.714005 480.624604 
L 200.588698 479.845313 
L 202.416708 479.55802 
L 223.134152 476.493706 
L 224.962162 476.202693 
L 227.399509 475.863498 
L 237.148894 474.527457 
L 238.367568 474.424254 
L 239.586241 474.17301 
L 243.24226 473.684083 
L 245.679607 473.363457 
L 248.116953 473.074417 
L 254.819656 472.333546 
L 257.257002 471.988203 
L 259.694349 471.70948 
L 262.131695 471.320239 
L 264.569042 470.967557 
L 274.318428 469.617863 
L 289.551843 467.435558 
L 309.659951 465.330359 
L 327.330713 463.440414 
L 330.986732 463.123629 
L 346.829484 461.448084 
L 348.657494 461.290162 
L 351.704177 460.994708 
L 368.156265 459.277985 
L 369.984275 459.054302 
L 371.812285 458.861541 
L 374.249631 458.50763 
L 377.905651 458.14248 
L 379.733661 457.918714 
L 384.608354 457.477931 
L 390.092383 457.038197 
L 399.232432 456.183505 
L 402.279115 455.943511 
L 415.684521 454.733165 
L 418.731204 454.457508 
L 421.16855 454.168097 
L 427.871253 453.581465 
L 429.699263 453.389744 
L 432.136609 453.202988 
L 443.714005 452.215285 
L 445.542015 451.97543 
L 447.979361 451.771336 
L 449.198034 451.614152 
L 490.632924 448.01057 
L 493.679607 447.753719 
L 507.085012 446.775326 
L 509.522359 446.534274 
L 516.834398 445.890248 
L 518.662408 445.754653 
L 529.02113 444.882999 
L 533.895823 444.553575 
L 537.551843 444.101589 
L 541.207862 443.938679 
L 546.691892 443.596182 
L 547.910565 443.420678 
L 558.878624 442.53147 
L 566.8 441.991032 
L 588.736118 440.301252 
L 592.392138 440.129199 
L 595.438821 439.865527 
L 597.876167 439.677398 
L 603.360197 439.330787 
L 605.188206 439.184934 
L 607.625553 439.05143 
L 613.109582 438.661194 
L 619.812285 438.108373 
L 625.905651 437.793431 
L 632.608354 437.314487 
L 639.920393 436.887931 
L 645.404423 436.577866 
L 648.451106 436.427586 
L 667.340541 435.157989 
L 670.387224 434.947526 
L 676.48059 434.511914 
L 678.3086 434.310927 
L 689.885995 433.519783 
L 692.323342 433.355667 
L 695.370025 433.214271 
L 700.244717 432.828317 
L 702.682064 432.651397 
L 703.900737 432.461233 
L 706.338084 432.303008 
L 710.60344 431.907936 
L 717.306143 431.450709 
L 720.352826 431.145428 
L 721.571499 431.065158 
L 722.790172 430.882775 
L 725.836855 430.624615 
L 727.055528 430.481982 
L 730.711548 430.178455 
L 732.539558 430.054443 
L 735.586241 429.795196 
L 745.335627 429.297988 
L 747.163636 429.190234 
L 747.163636 429.190234 
" style="fill:none;stroke:#2ca02c;stroke-linecap:square;stroke-width:2;"/>
   </g>
   <g id="line2d_19">
    <path clip-path="url(#p206c093c71)" d="M 138.436364 492.436152 
L 139.655037 491.656594 
L 142.70172 489.677608 
L 145.139066 488.227608 
L 146.967076 487.316813 
L 148.185749 486.583606 
L 150.013759 485.731754 
L 151.232432 485.176169 
L 154.279115 484.035041 
L 161.591155 481.816844 
L 170.121867 479.708023 
L 177.433907 478.429443 
L 182.3086 477.788817 
L 184.745946 477.45354 
L 200.588698 476.090728 
L 209.11941 475.642795 
L 215.212776 475.319383 
L 220.696806 475.048342 
L 229.227518 474.672365 
L 243.851597 474.12908 
L 251.772973 473.83314 
L 263.959705 473.501607 
L 322.45602 472.048859 
L 528.411794 467.208645 
L 747.163636 462.187663 
L 747.163636 462.187663 
" style="fill:none;stroke:#d62728;stroke-linecap:square;stroke-width:2;"/>
   </g>
   <g id="line2d_20">
    <path clip-path="url(#p206c093c71)" d="M 138.436364 492.41555 
L 144.52973 488.29704 
L 146.35774 487.165012 
L 176.215233 467.409361 
L 177.433907 466.516825 
L 179.871253 464.911919 
L 192.667322 456.652895 
L 193.885995 455.804701 
L 196.323342 454.361106 
L 198.151351 453.067227 
L 199.979361 451.887261 
L 207.2914 447.482916 
L 208.510074 446.799533 
L 210.94742 445.226994 
L 213.384767 443.832842 
L 218.259459 440.757991 
L 219.478133 439.941083 
L 221.306143 438.932572 
L 223.743489 437.371303 
L 226.180835 435.879019 
L 229.227518 434.082675 
L 231.055528 433.129086 
L 232.274201 432.387719 
L 238.367568 429.120108 
L 239.586241 428.517254 
L 243.851597 426.160535 
L 245.07027 425.556581 
L 245.679607 425.176966 
L 246.89828 424.659311 
L 249.944963 423.130547 
L 252.991646 421.728703 
L 257.257002 419.767923 
L 268.225061 415.114386 
L 271.881081 413.679242 
L 273.099754 413.257369 
L 276.755774 412.065162 
L 279.19312 411.286254 
L 281.02113 410.726709 
L 285.286486 409.725123 
L 299.301229 407.142938 
L 312.706634 405.73047 
L 315.753317 405.51379 
L 333.424079 404.822575 
L 351.704177 404.515803 
L 496.116953 403.941649 
L 663.075184 403.520902 
L 747.163636 403.342919 
L 747.163636 403.342919 
" style="fill:none;stroke:#9467bd;stroke-linecap:square;stroke-width:2;"/>
   </g>
   <g id="line2d_21">
    <path clip-path="url(#p206c093c71)" d="M 138.436364 492.48 
L 139.655037 491.71356 
L 141.483047 490.338222 
L 143.311057 489.181456 
L 143.920393 488.779206 
L 156.716462 486.756315 
L 159.763145 486.415523 
L 162.809828 486.03294 
L 166.465848 485.738021 
L 168.903194 485.576872 
L 179.261916 485.026265 
L 183.527273 484.788119 
L 188.401966 484.572504 
L 217.650123 483.65164 
L 242.023587 483.029336 
L 245.679607 482.939443 
L 273.099754 482.402715 
L 301.738575 481.868198 
L 306.003931 481.799613 
L 322.45602 481.45601 
L 330.986732 481.304353 
L 340.126781 481.164293 
L 426.65258 480.041988 
L 610.672236 478.73945 
L 643.576413 478.574338 
L 653.325799 478.539192 
L 747.163636 478.08982 
L 747.163636 478.08982 
" style="fill:none;stroke:#8c564b;stroke-linecap:square;stroke-width:2;"/>
   </g>
   <g id="patch_3">
    <path d="M 108 512.64 
L 108 69.12 
" style="fill:none;stroke:#000000;stroke-linecap:square;stroke-linejoin:miter;stroke-width:0.8;"/>
   </g>
   <g id="patch_4">
    <path d="M 777.6 512.64 
L 777.6 69.12 
" style="fill:none;stroke:#000000;stroke-linecap:square;stroke-linejoin:miter;stroke-width:0.8;"/>
   </g>
   <g id="patch_5">
    <path d="M 108 512.64 
L 777.6 512.64 
" style="fill:none;stroke:#000000;stroke-linecap:square;stroke-linejoin:miter;stroke-width:0.8;"/>
   </g>
   <g id="patch_6">
    <path d="M 108 69.12 
L 777.6 69.12 
" style="fill:none;stroke:#000000;stroke-linecap:square;stroke-linejoin:miter;stroke-width:0.8;"/>
   </g>
   <g id="text_18">
    <!-- Average Regret for 50 Ten Armed Gaussian Bandit Environments -->
    <g transform="translate(171.355312 63.12)scale(0.168 -0.168)">
     <defs>
      <path d="M 2841 2188 
Q 3044 2119 3236 1894 
Q 3428 1669 3622 1275 
L 4263 0 
L 3584 0 
L 2988 1197 
Q 2756 1666 2539 1819 
Q 2322 1972 1947 1972 
L 1259 1972 
L 1259 0 
L 628 0 
L 628 4666 
L 2053 4666 
Q 2853 4666 3247 4331 
Q 3641 3997 3641 3322 
Q 3641 2881 3436 2590 
Q 3231 2300 2841 2188 
z
M 1259 4147 
L 1259 2491 
L 2053 2491 
Q 2509 2491 2742 2702 
Q 2975 2913 2975 3322 
Q 2975 3731 2742 3939 
Q 2509 4147 2053 4147 
L 1259 4147 
z
" id="DejaVuSans-52" transform="scale(0.015625)"/>
      <path d="M 2375 4863 
L 2375 4384 
L 1825 4384 
Q 1516 4384 1395 4259 
Q 1275 4134 1275 3809 
L 1275 3500 
L 2222 3500 
L 2222 3053 
L 1275 3053 
L 1275 0 
L 697 0 
L 697 3053 
L 147 3053 
L 147 3500 
L 697 3500 
L 697 3744 
Q 697 4328 969 4595 
Q 1241 4863 1831 4863 
L 2375 4863 
z
" id="DejaVuSans-66" transform="scale(0.015625)"/>
      <path d="M 1959 3097 
Q 1497 3097 1228 2736 
Q 959 2375 959 1747 
Q 959 1119 1226 758 
Q 1494 397 1959 397 
Q 2419 397 2687 759 
Q 2956 1122 2956 1747 
Q 2956 2369 2687 2733 
Q 2419 3097 1959 3097 
z
M 1959 3584 
Q 2709 3584 3137 3096 
Q 3566 2609 3566 1747 
Q 3566 888 3137 398 
Q 2709 -91 1959 -91 
Q 1206 -91 779 398 
Q 353 888 353 1747 
Q 353 2609 779 3096 
Q 1206 3584 1959 3584 
z
" id="DejaVuSans-6f" transform="scale(0.015625)"/>
      <path d="M 691 4666 
L 3169 4666 
L 3169 4134 
L 1269 4134 
L 1269 2991 
Q 1406 3038 1543 3061 
Q 1681 3084 1819 3084 
Q 2600 3084 3056 2656 
Q 3513 2228 3513 1497 
Q 3513 744 3044 326 
Q 2575 -91 1722 -91 
Q 1428 -91 1123 -41 
Q 819 9 494 109 
L 494 744 
Q 775 591 1075 516 
Q 1375 441 1709 441 
Q 2250 441 2565 725 
Q 2881 1009 2881 1497 
Q 2881 1984 2565 2268 
Q 2250 2553 1709 2553 
Q 1456 2553 1204 2497 
Q 953 2441 691 2322 
L 691 4666 
z
" id="DejaVuSans-35" transform="scale(0.015625)"/>
      <path d="M 3513 2113 
L 3513 0 
L 2938 0 
L 2938 2094 
Q 2938 2591 2744 2837 
Q 2550 3084 2163 3084 
Q 1697 3084 1428 2787 
Q 1159 2491 1159 1978 
L 1159 0 
L 581 0 
L 581 3500 
L 1159 3500 
L 1159 2956 
Q 1366 3272 1645 3428 
Q 1925 3584 2291 3584 
Q 2894 3584 3203 3211 
Q 3513 2838 3513 2113 
z
" id="DejaVuSans-6e" transform="scale(0.015625)"/>
      <path d="M 2906 2969 
L 2906 4863 
L 3481 4863 
L 3481 0 
L 2906 0 
L 2906 525 
Q 2725 213 2448 61 
Q 2172 -91 1784 -91 
Q 1150 -91 751 415 
Q 353 922 353 1747 
Q 353 2572 751 3078 
Q 1150 3584 1784 3584 
Q 2172 3584 2448 3432 
Q 2725 3281 2906 2969 
z
M 947 1747 
Q 947 1113 1208 752 
Q 1469 391 1925 391 
Q 2381 391 2643 752 
Q 2906 1113 2906 1747 
Q 2906 2381 2643 2742 
Q 2381 3103 1925 3103 
Q 1469 3103 1208 2742 
Q 947 2381 947 1747 
z
" id="DejaVuSans-64" transform="scale(0.015625)"/>
      <path d="M 3809 666 
L 3809 1919 
L 2778 1919 
L 2778 2438 
L 4434 2438 
L 4434 434 
Q 4069 175 3628 42 
Q 3188 -91 2688 -91 
Q 1594 -91 976 548 
Q 359 1188 359 2328 
Q 359 3472 976 4111 
Q 1594 4750 2688 4750 
Q 3144 4750 3555 4637 
Q 3966 4525 4313 4306 
L 4313 3634 
Q 3963 3931 3569 4081 
Q 3175 4231 2741 4231 
Q 1884 4231 1454 3753 
Q 1025 3275 1025 2328 
Q 1025 1384 1454 906 
Q 1884 428 2741 428 
Q 3075 428 3337 486 
Q 3600 544 3809 666 
z
" id="DejaVuSans-47" transform="scale(0.015625)"/>
      <path d="M 544 1381 
L 544 3500 
L 1119 3500 
L 1119 1403 
Q 1119 906 1312 657 
Q 1506 409 1894 409 
Q 2359 409 2629 706 
Q 2900 1003 2900 1516 
L 2900 3500 
L 3475 3500 
L 3475 0 
L 2900 0 
L 2900 538 
Q 2691 219 2414 64 
Q 2138 -91 1772 -91 
Q 1169 -91 856 284 
Q 544 659 544 1381 
z
M 1991 3584 
L 1991 3584 
z
" id="DejaVuSans-75" transform="scale(0.015625)"/>
      <path d="M 1259 2228 
L 1259 519 
L 2272 519 
Q 2781 519 3026 730 
Q 3272 941 3272 1375 
Q 3272 1813 3026 2020 
Q 2781 2228 2272 2228 
L 1259 2228 
z
M 1259 4147 
L 1259 2741 
L 2194 2741 
Q 2656 2741 2882 2914 
Q 3109 3088 3109 3444 
Q 3109 3797 2882 3972 
Q 2656 4147 2194 4147 
L 1259 4147 
z
M 628 4666 
L 2241 4666 
Q 2963 4666 3353 4366 
Q 3744 4066 3744 3513 
Q 3744 3084 3544 2831 
Q 3344 2578 2956 2516 
Q 3422 2416 3680 2098 
Q 3938 1781 3938 1306 
Q 3938 681 3513 340 
Q 3088 0 2303 0 
L 628 0 
L 628 4666 
z
" id="DejaVuSans-42" transform="scale(0.015625)"/>
      <path d="M 628 4666 
L 3578 4666 
L 3578 4134 
L 1259 4134 
L 1259 2753 
L 3481 2753 
L 3481 2222 
L 1259 2222 
L 1259 531 
L 3634 531 
L 3634 0 
L 628 0 
L 628 4666 
z
" id="DejaVuSans-45" transform="scale(0.015625)"/>
     </defs>
     <use xlink:href="#DejaVuSans-41"/>
     <use x="62.533203" xlink:href="#DejaVuSans-76"/>
     <use x="121.712891" xlink:href="#DejaVuSans-65"/>
     <use x="183.236328" xlink:href="#DejaVuSans-72"/>
     <use x="224.349609" xlink:href="#DejaVuSans-61"/>
     <use x="285.628906" xlink:href="#DejaVuSans-67"/>
     <use x="349.105469" xlink:href="#DejaVuSans-65"/>
     <use x="410.628906" xlink:href="#DejaVuSans-20"/>
     <use x="442.416016" xlink:href="#DejaVuSans-52"/>
     <use x="507.398438" xlink:href="#DejaVuSans-65"/>
     <use x="568.921875" xlink:href="#DejaVuSans-67"/>
     <use x="632.398438" xlink:href="#DejaVuSans-72"/>
     <use x="671.261719" xlink:href="#DejaVuSans-65"/>
     <use x="732.785156" xlink:href="#DejaVuSans-74"/>
     <use x="771.994141" xlink:href="#DejaVuSans-20"/>
     <use x="803.78125" xlink:href="#DejaVuSans-66"/>
     <use x="838.986328" xlink:href="#DejaVuSans-6f"/>
     <use x="900.167969" xlink:href="#DejaVuSans-72"/>
     <use x="941.28125" xlink:href="#DejaVuSans-20"/>
     <use x="973.068359" xlink:href="#DejaVuSans-35"/>
     <use x="1036.691406" xlink:href="#DejaVuSans-30"/>
     <use x="1100.314453" xlink:href="#DejaVuSans-20"/>
     <use x="1132.101562" xlink:href="#DejaVuSans-54"/>
     <use x="1176.185547" xlink:href="#DejaVuSans-65"/>
     <use x="1237.708984" xlink:href="#DejaVuSans-6e"/>
     <use x="1301.087891" xlink:href="#DejaVuSans-20"/>
     <use x="1332.875" xlink:href="#DejaVuSans-41"/>
     <use x="1401.283203" xlink:href="#DejaVuSans-72"/>
     <use x="1440.646484" xlink:href="#DejaVuSans-6d"/>
     <use x="1538.058594" xlink:href="#DejaVuSans-65"/>
     <use x="1599.582031" xlink:href="#DejaVuSans-64"/>
     <use x="1663.058594" xlink:href="#DejaVuSans-20"/>
     <use x="1694.845703" xlink:href="#DejaVuSans-47"/>
     <use x="1772.335938" xlink:href="#DejaVuSans-61"/>
     <use x="1833.615234" xlink:href="#DejaVuSans-75"/>
     <use x="1896.994141" xlink:href="#DejaVuSans-73"/>
     <use x="1949.09375" xlink:href="#DejaVuSans-73"/>
     <use x="2001.193359" xlink:href="#DejaVuSans-69"/>
     <use x="2028.976562" xlink:href="#DejaVuSans-61"/>
     <use x="2090.255859" xlink:href="#DejaVuSans-6e"/>
     <use x="2153.634766" xlink:href="#DejaVuSans-20"/>
     <use x="2185.421875" xlink:href="#DejaVuSans-42"/>
     <use x="2254.025391" xlink:href="#DejaVuSans-61"/>
     <use x="2315.304688" xlink:href="#DejaVuSans-6e"/>
     <use x="2378.683594" xlink:href="#DejaVuSans-64"/>
     <use x="2442.160156" xlink:href="#DejaVuSans-69"/>
     <use x="2469.943359" xlink:href="#DejaVuSans-74"/>
     <use x="2509.152344" xlink:href="#DejaVuSans-20"/>
     <use x="2540.939453" xlink:href="#DejaVuSans-45"/>
     <use x="2604.123047" xlink:href="#DejaVuSans-6e"/>
     <use x="2667.501953" xlink:href="#DejaVuSans-76"/>
     <use x="2726.681641" xlink:href="#DejaVuSans-69"/>
     <use x="2754.464844" xlink:href="#DejaVuSans-72"/>
     <use x="2793.328125" xlink:href="#DejaVuSans-6f"/>
     <use x="2854.509766" xlink:href="#DejaVuSans-6e"/>
     <use x="2917.888672" xlink:href="#DejaVuSans-6d"/>
     <use x="3015.300781" xlink:href="#DejaVuSans-65"/>
     <use x="3076.824219" xlink:href="#DejaVuSans-6e"/>
     <use x="3140.203125" xlink:href="#DejaVuSans-74"/>
     <use x="3179.412109" xlink:href="#DejaVuSans-73"/>
    </g>
   </g>
   <g id="legend_1">
    <g id="patch_7">
     <path d="M 117.8 203.61625 
L 282.901563 203.61625 
Q 285.701563 203.61625 285.701563 200.81625 
L 285.701563 78.92 
Q 285.701563 76.12 282.901563 76.12 
L 117.8 76.12 
Q 115 76.12 115 78.92 
L 115 200.81625 
Q 115 203.61625 117.8 203.61625 
z
" style="fill:#ffffff;opacity:0.8;stroke:#cccccc;stroke-linejoin:miter;"/>
    </g>
    <g id="line2d_22">
     <path d="M 120.6 87.457813 
L 148.6 87.457813 
" style="fill:none;stroke:#1f77b4;stroke-linecap:square;stroke-width:2;"/>
    </g>
    <g id="line2d_23"/>
    <g id="text_19">
     <!-- Pure Exploitation -->
     <g transform="translate(159.8 92.357813)scale(0.14 -0.14)">
      <defs>
       <path d="M 1259 4147 
L 1259 2394 
L 2053 2394 
Q 2494 2394 2734 2622 
Q 2975 2850 2975 3272 
Q 2975 3691 2734 3919 
Q 2494 4147 2053 4147 
L 1259 4147 
z
M 628 4666 
L 2053 4666 
Q 2838 4666 3239 4311 
Q 3641 3956 3641 3272 
Q 3641 2581 3239 2228 
Q 2838 1875 2053 1875 
L 1259 1875 
L 1259 0 
L 628 0 
L 628 4666 
z
" id="DejaVuSans-50" transform="scale(0.015625)"/>
       <path d="M 3513 3500 
L 2247 1797 
L 3578 0 
L 2900 0 
L 1881 1375 
L 863 0 
L 184 0 
L 1544 1831 
L 300 3500 
L 978 3500 
L 1906 2253 
L 2834 3500 
L 3513 3500 
z
" id="DejaVuSans-78" transform="scale(0.015625)"/>
       <path d="M 603 4863 
L 1178 4863 
L 1178 0 
L 603 0 
L 603 4863 
z
" id="DejaVuSans-6c" transform="scale(0.015625)"/>
      </defs>
      <use xlink:href="#DejaVuSans-50"/>
      <use x="58.552734" xlink:href="#DejaVuSans-75"/>
      <use x="121.931641" xlink:href="#DejaVuSans-72"/>
      <use x="160.794922" xlink:href="#DejaVuSans-65"/>
      <use x="222.318359" xlink:href="#DejaVuSans-20"/>
      <use x="254.105469" xlink:href="#DejaVuSans-45"/>
      <use x="317.289062" xlink:href="#DejaVuSans-78"/>
      <use x="376.46875" xlink:href="#DejaVuSans-70"/>
      <use x="439.945312" xlink:href="#DejaVuSans-6c"/>
      <use x="467.728516" xlink:href="#DejaVuSans-6f"/>
      <use x="528.910156" xlink:href="#DejaVuSans-69"/>
      <use x="556.693359" xlink:href="#DejaVuSans-74"/>
      <use x="595.902344" xlink:href="#DejaVuSans-61"/>
      <use x="657.181641" xlink:href="#DejaVuSans-74"/>
      <use x="696.390625" xlink:href="#DejaVuSans-69"/>
      <use x="724.173828" xlink:href="#DejaVuSans-6f"/>
      <use x="785.355469" xlink:href="#DejaVuSans-6e"/>
     </g>
    </g>
    <g id="line2d_24">
     <path d="M 120.6 108.007188 
L 148.6 108.007188 
" style="fill:none;stroke:#ff7f0e;stroke-linecap:square;stroke-width:2;"/>
    </g>
    <g id="line2d_25"/>
    <g id="text_20">
     <!-- Pure Exploration -->
     <g transform="translate(159.8 112.907188)scale(0.14 -0.14)">
      <use xlink:href="#DejaVuSans-50"/>
      <use x="58.552734" xlink:href="#DejaVuSans-75"/>
      <use x="121.931641" xlink:href="#DejaVuSans-72"/>
      <use x="160.794922" xlink:href="#DejaVuSans-65"/>
      <use x="222.318359" xlink:href="#DejaVuSans-20"/>
      <use x="254.105469" xlink:href="#DejaVuSans-45"/>
      <use x="317.289062" xlink:href="#DejaVuSans-78"/>
      <use x="376.46875" xlink:href="#DejaVuSans-70"/>
      <use x="439.945312" xlink:href="#DejaVuSans-6c"/>
      <use x="467.728516" xlink:href="#DejaVuSans-6f"/>
      <use x="528.910156" xlink:href="#DejaVuSans-72"/>
      <use x="570.023438" xlink:href="#DejaVuSans-61"/>
      <use x="631.302734" xlink:href="#DejaVuSans-74"/>
      <use x="670.511719" xlink:href="#DejaVuSans-69"/>
      <use x="698.294922" xlink:href="#DejaVuSans-6f"/>
      <use x="759.476562" xlink:href="#DejaVuSans-6e"/>
     </g>
    </g>
    <g id="line2d_26">
     <path d="M 120.6 128.556563 
L 148.6 128.556563 
" style="fill:none;stroke:#2ca02c;stroke-linecap:square;stroke-width:2;"/>
    </g>
    <g id="line2d_27"/>
    <g id="text_21">
     <!-- Epsilon Greedy -->
     <g transform="translate(159.8 133.456563)scale(0.14 -0.14)">
      <defs>
       <path d="M 2059 -325 
Q 1816 -950 1584 -1140 
Q 1353 -1331 966 -1331 
L 506 -1331 
L 506 -850 
L 844 -850 
Q 1081 -850 1212 -737 
Q 1344 -625 1503 -206 
L 1606 56 
L 191 3500 
L 800 3500 
L 1894 763 
L 2988 3500 
L 3597 3500 
L 2059 -325 
z
" id="DejaVuSans-79" transform="scale(0.015625)"/>
      </defs>
      <use xlink:href="#DejaVuSans-45"/>
      <use x="63.183594" xlink:href="#DejaVuSans-70"/>
      <use x="126.660156" xlink:href="#DejaVuSans-73"/>
      <use x="178.759766" xlink:href="#DejaVuSans-69"/>
      <use x="206.542969" xlink:href="#DejaVuSans-6c"/>
      <use x="234.326172" xlink:href="#DejaVuSans-6f"/>
      <use x="295.507812" xlink:href="#DejaVuSans-6e"/>
      <use x="358.886719" xlink:href="#DejaVuSans-20"/>
      <use x="390.673828" xlink:href="#DejaVuSans-47"/>
      <use x="468.164062" xlink:href="#DejaVuSans-72"/>
      <use x="507.027344" xlink:href="#DejaVuSans-65"/>
      <use x="568.550781" xlink:href="#DejaVuSans-65"/>
      <use x="630.074219" xlink:href="#DejaVuSans-64"/>
      <use x="693.550781" xlink:href="#DejaVuSans-79"/>
     </g>
    </g>
    <g id="line2d_28">
     <path d="M 120.6 149.105938 
L 148.6 149.105938 
" style="fill:none;stroke:#d62728;stroke-linecap:square;stroke-width:2;"/>
    </g>
    <g id="line2d_29"/>
    <g id="text_22">
     <!-- Deacying Epsilon -->
     <g transform="translate(159.8 154.005938)scale(0.14 -0.14)">
      <defs>
       <path d="M 1259 4147 
L 1259 519 
L 2022 519 
Q 2988 519 3436 956 
Q 3884 1394 3884 2338 
Q 3884 3275 3436 3711 
Q 2988 4147 2022 4147 
L 1259 4147 
z
M 628 4666 
L 1925 4666 
Q 3281 4666 3915 4102 
Q 4550 3538 4550 2338 
Q 4550 1131 3912 565 
Q 3275 0 1925 0 
L 628 0 
L 628 4666 
z
" id="DejaVuSans-44" transform="scale(0.015625)"/>
       <path d="M 3122 3366 
L 3122 2828 
Q 2878 2963 2633 3030 
Q 2388 3097 2138 3097 
Q 1578 3097 1268 2742 
Q 959 2388 959 1747 
Q 959 1106 1268 751 
Q 1578 397 2138 397 
Q 2388 397 2633 464 
Q 2878 531 3122 666 
L 3122 134 
Q 2881 22 2623 -34 
Q 2366 -91 2075 -91 
Q 1284 -91 818 406 
Q 353 903 353 1747 
Q 353 2603 823 3093 
Q 1294 3584 2113 3584 
Q 2378 3584 2631 3529 
Q 2884 3475 3122 3366 
z
" id="DejaVuSans-63" transform="scale(0.015625)"/>
      </defs>
      <use xlink:href="#DejaVuSans-44"/>
      <use x="77.001953" xlink:href="#DejaVuSans-65"/>
      <use x="138.525391" xlink:href="#DejaVuSans-61"/>
      <use x="199.804688" xlink:href="#DejaVuSans-63"/>
      <use x="254.785156" xlink:href="#DejaVuSans-79"/>
      <use x="313.964844" xlink:href="#DejaVuSans-69"/>
      <use x="341.748047" xlink:href="#DejaVuSans-6e"/>
      <use x="405.126953" xlink:href="#DejaVuSans-67"/>
      <use x="468.603516" xlink:href="#DejaVuSans-20"/>
      <use x="500.390625" xlink:href="#DejaVuSans-45"/>
      <use x="563.574219" xlink:href="#DejaVuSans-70"/>
      <use x="627.050781" xlink:href="#DejaVuSans-73"/>
      <use x="679.150391" xlink:href="#DejaVuSans-69"/>
      <use x="706.933594" xlink:href="#DejaVuSans-6c"/>
      <use x="734.716797" xlink:href="#DejaVuSans-6f"/>
      <use x="795.898438" xlink:href="#DejaVuSans-6e"/>
     </g>
    </g>
    <g id="line2d_30">
     <path d="M 120.6 169.655313 
L 148.6 169.655313 
" style="fill:none;stroke:#9467bd;stroke-linecap:square;stroke-width:2;"/>
    </g>
    <g id="line2d_31"/>
    <g id="text_23">
     <!-- Softmax -->
     <g transform="translate(159.8 174.555313)scale(0.14 -0.14)">
      <use xlink:href="#DejaVuSans-53"/>
      <use x="63.476562" xlink:href="#DejaVuSans-6f"/>
      <use x="124.658203" xlink:href="#DejaVuSans-66"/>
      <use x="158.113281" xlink:href="#DejaVuSans-74"/>
      <use x="197.322266" xlink:href="#DejaVuSans-6d"/>
      <use x="294.734375" xlink:href="#DejaVuSans-61"/>
      <use x="356.013672" xlink:href="#DejaVuSans-78"/>
     </g>
    </g>
    <g id="line2d_32">
     <path d="M 120.6 190.204688 
L 148.6 190.204688 
" style="fill:none;stroke:#8c564b;stroke-linecap:square;stroke-width:2;"/>
    </g>
    <g id="line2d_33"/>
    <g id="text_24">
     <!-- UCB -->
     <g transform="translate(159.8 195.104688)scale(0.14 -0.14)">
      <defs>
       <path d="M 556 4666 
L 1191 4666 
L 1191 1831 
Q 1191 1081 1462 751 
Q 1734 422 2344 422 
Q 2950 422 3222 751 
Q 3494 1081 3494 1831 
L 3494 4666 
L 4128 4666 
L 4128 1753 
Q 4128 841 3676 375 
Q 3225 -91 2344 -91 
Q 1459 -91 1007 375 
Q 556 841 556 1753 
L 556 4666 
z
" id="DejaVuSans-55" transform="scale(0.015625)"/>
       <path d="M 4122 4306 
L 4122 3641 
Q 3803 3938 3442 4084 
Q 3081 4231 2675 4231 
Q 1875 4231 1450 3742 
Q 1025 3253 1025 2328 
Q 1025 1406 1450 917 
Q 1875 428 2675 428 
Q 3081 428 3442 575 
Q 3803 722 4122 1019 
L 4122 359 
Q 3791 134 3420 21 
Q 3050 -91 2638 -91 
Q 1578 -91 968 557 
Q 359 1206 359 2328 
Q 359 3453 968 4101 
Q 1578 4750 2638 4750 
Q 3056 4750 3426 4639 
Q 3797 4528 4122 4306 
z
" id="DejaVuSans-43" transform="scale(0.015625)"/>
      </defs>
      <use xlink:href="#DejaVuSans-55"/>
      <use x="73.193359" xlink:href="#DejaVuSans-43"/>
      <use x="143.017578" xlink:href="#DejaVuSans-42"/>
     </g>
    </g>
   </g>
  </g>
 </g>
 <defs>
  <clipPath id="p206c093c71">
   <rect height="443.52" width="669.6" x="108" y="69.12"/>
  </clipPath>
 </defs>
</svg>
