<?xml version="1.0" encoding="utf-8" standalone="no"?>
<!DOCTYPE svg PUBLIC "-//W3C//DTD SVG 1.1//EN"
  "http://www.w3.org/Graphics/SVG/1.1/DTD/svg11.dtd">
<svg height="576pt" version="1.1" viewBox="0 0 864 576" width="864pt" xmlns="http://www.w3.org/2000/svg" xmlns:xlink="http://www.w3.org/1999/xlink">
 <metadata>
  <rdf:RDF xmlns:cc="http://creativecommons.org/ns#" xmlns:dc="http://purl.org/dc/elements/1.1/" xmlns:rdf="http://www.w3.org/1999/02/22-rdf-syntax-ns#">
   <cc:Work>
    <dc:type rdf:resource="http://purl.org/dc/dcmitype/StillImage"/>
    <dc:date>2021-09-09T20:18:32.214300</dc:date>
    <dc:format>image/svg+xml</dc:format>
    <dc:creator>
     <cc:Agent>
      <dc:title>Matplotlib v3.4.3, https://matplotlib.org/</dc:title>
     </cc:Agent>
    </dc:creator>
   </cc:Work>
  </rdf:RDF>
 </metadata>
 <defs>
  <style type="text/css">*{stroke-linecap:butt;stroke-linejoin:round;}</style>
 </defs>
 <g id="figure_1">
  <g id="patch_1">
   <path d="M 0 576 
L 864 576 
L 864 0 
L 0 0 
z
" style="fill:#ffffff;"/>
  </g>
  <g id="axes_1">
   <g id="patch_2">
    <path d="M 108 512.64 
L 777.6 512.64 
L 777.6 69.12 
L 108 69.12 
z
" style="fill:#ffffff;"/>
   </g>
   <g id="matplotlib.axis_1">
    <g id="xtick_1">
     <g id="line2d_1">
      <defs>
       <path d="M 0 0 
L 0 3.5 
" id="m7223cdf582" style="stroke:#000000;stroke-width:0.8;"/>
      </defs>
      <g>
       <use style="stroke:#000000;stroke-width:0.8;" x="138.436364" xlink:href="#m7223cdf582" y="512.64"/>
      </g>
     </g>
     <g id="text_1">
      <!-- 0 -->
      <g transform="translate(135.255114 527.238438)scale(0.1 -0.1)">
       <defs>
        <path d="M 2034 4250 
Q 1547 4250 1301 3770 
Q 1056 3291 1056 2328 
Q 1056 1369 1301 889 
Q 1547 409 2034 409 
Q 2525 409 2770 889 
Q 3016 1369 3016 2328 
Q 3016 3291 2770 3770 
Q 2525 4250 2034 4250 
z
M 2034 4750 
Q 2819 4750 3233 4129 
Q 3647 3509 3647 2328 
Q 3647 1150 3233 529 
Q 2819 -91 2034 -91 
Q 1250 -91 836 529 
Q 422 1150 422 2328 
Q 422 3509 836 4129 
Q 1250 4750 2034 4750 
z
" id="DejaVuSans-30" transform="scale(0.015625)"/>
       </defs>
       <use xlink:href="#DejaVuSans-30"/>
      </g>
     </g>
    </g>
    <g id="xtick_2">
     <g id="line2d_2">
      <g>
       <use style="stroke:#000000;stroke-width:0.8;" x="260.303686" xlink:href="#m7223cdf582" y="512.64"/>
      </g>
     </g>
     <g id="text_2">
      <!-- 200 -->
      <g transform="translate(250.759936 527.238438)scale(0.1 -0.1)">
       <defs>
        <path d="M 1228 531 
L 3431 531 
L 3431 0 
L 469 0 
L 469 531 
Q 828 903 1448 1529 
Q 2069 2156 2228 2338 
Q 2531 2678 2651 2914 
Q 2772 3150 2772 3378 
Q 2772 3750 2511 3984 
Q 2250 4219 1831 4219 
Q 1534 4219 1204 4116 
Q 875 4013 500 3803 
L 500 4441 
Q 881 4594 1212 4672 
Q 1544 4750 1819 4750 
Q 2544 4750 2975 4387 
Q 3406 4025 3406 3419 
Q 3406 3131 3298 2873 
Q 3191 2616 2906 2266 
Q 2828 2175 2409 1742 
Q 1991 1309 1228 531 
z
" id="DejaVuSans-32" transform="scale(0.015625)"/>
       </defs>
       <use xlink:href="#DejaVuSans-32"/>
       <use x="63.623047" xlink:href="#DejaVuSans-30"/>
       <use x="127.246094" xlink:href="#DejaVuSans-30"/>
      </g>
     </g>
    </g>
    <g id="xtick_3">
     <g id="line2d_3">
      <g>
       <use style="stroke:#000000;stroke-width:0.8;" x="382.171007" xlink:href="#m7223cdf582" y="512.64"/>
      </g>
     </g>
     <g id="text_3">
      <!-- 400 -->
      <g transform="translate(372.627257 527.238438)scale(0.1 -0.1)">
       <defs>
        <path d="M 2419 4116 
L 825 1625 
L 2419 1625 
L 2419 4116 
z
M 2253 4666 
L 3047 4666 
L 3047 1625 
L 3713 1625 
L 3713 1100 
L 3047 1100 
L 3047 0 
L 2419 0 
L 2419 1100 
L 313 1100 
L 313 1709 
L 2253 4666 
z
" id="DejaVuSans-34" transform="scale(0.015625)"/>
       </defs>
       <use xlink:href="#DejaVuSans-34"/>
       <use x="63.623047" xlink:href="#DejaVuSans-30"/>
       <use x="127.246094" xlink:href="#DejaVuSans-30"/>
      </g>
     </g>
    </g>
    <g id="xtick_4">
     <g id="line2d_4">
      <g>
       <use style="stroke:#000000;stroke-width:0.8;" x="504.038329" xlink:href="#m7223cdf582" y="512.64"/>
      </g>
     </g>
     <g id="text_4">
      <!-- 600 -->
      <g transform="translate(494.494579 527.238438)scale(0.1 -0.1)">
       <defs>
        <path d="M 2113 2584 
Q 1688 2584 1439 2293 
Q 1191 2003 1191 1497 
Q 1191 994 1439 701 
Q 1688 409 2113 409 
Q 2538 409 2786 701 
Q 3034 994 3034 1497 
Q 3034 2003 2786 2293 
Q 2538 2584 2113 2584 
z
M 3366 4563 
L 3366 3988 
Q 3128 4100 2886 4159 
Q 2644 4219 2406 4219 
Q 1781 4219 1451 3797 
Q 1122 3375 1075 2522 
Q 1259 2794 1537 2939 
Q 1816 3084 2150 3084 
Q 2853 3084 3261 2657 
Q 3669 2231 3669 1497 
Q 3669 778 3244 343 
Q 2819 -91 2113 -91 
Q 1303 -91 875 529 
Q 447 1150 447 2328 
Q 447 3434 972 4092 
Q 1497 4750 2381 4750 
Q 2619 4750 2861 4703 
Q 3103 4656 3366 4563 
z
" id="DejaVuSans-36" transform="scale(0.015625)"/>
       </defs>
       <use xlink:href="#DejaVuSans-36"/>
       <use x="63.623047" xlink:href="#DejaVuSans-30"/>
       <use x="127.246094" xlink:href="#DejaVuSans-30"/>
      </g>
     </g>
    </g>
    <g id="xtick_5">
     <g id="line2d_5">
      <g>
       <use style="stroke:#000000;stroke-width:0.8;" x="625.905651" xlink:href="#m7223cdf582" y="512.64"/>
      </g>
     </g>
     <g id="text_5">
      <!-- 800 -->
      <g transform="translate(616.361901 527.238438)scale(0.1 -0.1)">
       <defs>
        <path d="M 2034 2216 
Q 1584 2216 1326 1975 
Q 1069 1734 1069 1313 
Q 1069 891 1326 650 
Q 1584 409 2034 409 
Q 2484 409 2743 651 
Q 3003 894 3003 1313 
Q 3003 1734 2745 1975 
Q 2488 2216 2034 2216 
z
M 1403 2484 
Q 997 2584 770 2862 
Q 544 3141 544 3541 
Q 544 4100 942 4425 
Q 1341 4750 2034 4750 
Q 2731 4750 3128 4425 
Q 3525 4100 3525 3541 
Q 3525 3141 3298 2862 
Q 3072 2584 2669 2484 
Q 3125 2378 3379 2068 
Q 3634 1759 3634 1313 
Q 3634 634 3220 271 
Q 2806 -91 2034 -91 
Q 1263 -91 848 271 
Q 434 634 434 1313 
Q 434 1759 690 2068 
Q 947 2378 1403 2484 
z
M 1172 3481 
Q 1172 3119 1398 2916 
Q 1625 2713 2034 2713 
Q 2441 2713 2670 2916 
Q 2900 3119 2900 3481 
Q 2900 3844 2670 4047 
Q 2441 4250 2034 4250 
Q 1625 4250 1398 4047 
Q 1172 3844 1172 3481 
z
" id="DejaVuSans-38" transform="scale(0.015625)"/>
       </defs>
       <use xlink:href="#DejaVuSans-38"/>
       <use x="63.623047" xlink:href="#DejaVuSans-30"/>
       <use x="127.246094" xlink:href="#DejaVuSans-30"/>
      </g>
     </g>
    </g>
    <g id="xtick_6">
     <g id="line2d_6">
      <g>
       <use style="stroke:#000000;stroke-width:0.8;" x="747.772973" xlink:href="#m7223cdf582" y="512.64"/>
      </g>
     </g>
     <g id="text_6">
      <!-- 1000 -->
      <g transform="translate(735.047973 527.238438)scale(0.1 -0.1)">
       <defs>
        <path d="M 794 531 
L 1825 531 
L 1825 4091 
L 703 3866 
L 703 4441 
L 1819 4666 
L 2450 4666 
L 2450 531 
L 3481 531 
L 3481 0 
L 794 0 
L 794 531 
z
" id="DejaVuSans-31" transform="scale(0.015625)"/>
       </defs>
       <use xlink:href="#DejaVuSans-31"/>
       <use x="63.623047" xlink:href="#DejaVuSans-30"/>
       <use x="127.246094" xlink:href="#DejaVuSans-30"/>
       <use x="190.869141" xlink:href="#DejaVuSans-30"/>
      </g>
     </g>
    </g>
    <g id="text_7">
     <!-- Time Steps -->
     <g transform="translate(414.9875 540.916563)scale(0.1 -0.1)">
      <defs>
       <path d="M -19 4666 
L 3928 4666 
L 3928 4134 
L 2272 4134 
L 2272 0 
L 1638 0 
L 1638 4134 
L -19 4134 
L -19 4666 
z
" id="DejaVuSans-54" transform="scale(0.015625)"/>
       <path d="M 603 3500 
L 1178 3500 
L 1178 0 
L 603 0 
L 603 3500 
z
M 603 4863 
L 1178 4863 
L 1178 4134 
L 603 4134 
L 603 4863 
z
" id="DejaVuSans-69" transform="scale(0.015625)"/>
       <path d="M 3328 2828 
Q 3544 3216 3844 3400 
Q 4144 3584 4550 3584 
Q 5097 3584 5394 3201 
Q 5691 2819 5691 2113 
L 5691 0 
L 5113 0 
L 5113 2094 
Q 5113 2597 4934 2840 
Q 4756 3084 4391 3084 
Q 3944 3084 3684 2787 
Q 3425 2491 3425 1978 
L 3425 0 
L 2847 0 
L 2847 2094 
Q 2847 2600 2669 2842 
Q 2491 3084 2119 3084 
Q 1678 3084 1418 2786 
Q 1159 2488 1159 1978 
L 1159 0 
L 581 0 
L 581 3500 
L 1159 3500 
L 1159 2956 
Q 1356 3278 1631 3431 
Q 1906 3584 2284 3584 
Q 2666 3584 2933 3390 
Q 3200 3197 3328 2828 
z
" id="DejaVuSans-6d" transform="scale(0.015625)"/>
       <path d="M 3597 1894 
L 3597 1613 
L 953 1613 
Q 991 1019 1311 708 
Q 1631 397 2203 397 
Q 2534 397 2845 478 
Q 3156 559 3463 722 
L 3463 178 
Q 3153 47 2828 -22 
Q 2503 -91 2169 -91 
Q 1331 -91 842 396 
Q 353 884 353 1716 
Q 353 2575 817 3079 
Q 1281 3584 2069 3584 
Q 2775 3584 3186 3129 
Q 3597 2675 3597 1894 
z
M 3022 2063 
Q 3016 2534 2758 2815 
Q 2500 3097 2075 3097 
Q 1594 3097 1305 2825 
Q 1016 2553 972 2059 
L 3022 2063 
z
" id="DejaVuSans-65" transform="scale(0.015625)"/>
       <path id="DejaVuSans-20" transform="scale(0.015625)"/>
       <path d="M 3425 4513 
L 3425 3897 
Q 3066 4069 2747 4153 
Q 2428 4238 2131 4238 
Q 1616 4238 1336 4038 
Q 1056 3838 1056 3469 
Q 1056 3159 1242 3001 
Q 1428 2844 1947 2747 
L 2328 2669 
Q 3034 2534 3370 2195 
Q 3706 1856 3706 1288 
Q 3706 609 3251 259 
Q 2797 -91 1919 -91 
Q 1588 -91 1214 -16 
Q 841 59 441 206 
L 441 856 
Q 825 641 1194 531 
Q 1563 422 1919 422 
Q 2459 422 2753 634 
Q 3047 847 3047 1241 
Q 3047 1584 2836 1778 
Q 2625 1972 2144 2069 
L 1759 2144 
Q 1053 2284 737 2584 
Q 422 2884 422 3419 
Q 422 4038 858 4394 
Q 1294 4750 2059 4750 
Q 2388 4750 2728 4690 
Q 3069 4631 3425 4513 
z
" id="DejaVuSans-53" transform="scale(0.015625)"/>
       <path d="M 1172 4494 
L 1172 3500 
L 2356 3500 
L 2356 3053 
L 1172 3053 
L 1172 1153 
Q 1172 725 1289 603 
Q 1406 481 1766 481 
L 2356 481 
L 2356 0 
L 1766 0 
Q 1100 0 847 248 
Q 594 497 594 1153 
L 594 3053 
L 172 3053 
L 172 3500 
L 594 3500 
L 594 4494 
L 1172 4494 
z
" id="DejaVuSans-74" transform="scale(0.015625)"/>
       <path d="M 1159 525 
L 1159 -1331 
L 581 -1331 
L 581 3500 
L 1159 3500 
L 1159 2969 
Q 1341 3281 1617 3432 
Q 1894 3584 2278 3584 
Q 2916 3584 3314 3078 
Q 3713 2572 3713 1747 
Q 3713 922 3314 415 
Q 2916 -91 2278 -91 
Q 1894 -91 1617 61 
Q 1341 213 1159 525 
z
M 3116 1747 
Q 3116 2381 2855 2742 
Q 2594 3103 2138 3103 
Q 1681 3103 1420 2742 
Q 1159 2381 1159 1747 
Q 1159 1113 1420 752 
Q 1681 391 2138 391 
Q 2594 391 2855 752 
Q 3116 1113 3116 1747 
z
" id="DejaVuSans-70" transform="scale(0.015625)"/>
       <path d="M 2834 3397 
L 2834 2853 
Q 2591 2978 2328 3040 
Q 2066 3103 1784 3103 
Q 1356 3103 1142 2972 
Q 928 2841 928 2578 
Q 928 2378 1081 2264 
Q 1234 2150 1697 2047 
L 1894 2003 
Q 2506 1872 2764 1633 
Q 3022 1394 3022 966 
Q 3022 478 2636 193 
Q 2250 -91 1575 -91 
Q 1294 -91 989 -36 
Q 684 19 347 128 
L 347 722 
Q 666 556 975 473 
Q 1284 391 1588 391 
Q 1994 391 2212 530 
Q 2431 669 2431 922 
Q 2431 1156 2273 1281 
Q 2116 1406 1581 1522 
L 1381 1569 
Q 847 1681 609 1914 
Q 372 2147 372 2553 
Q 372 3047 722 3315 
Q 1072 3584 1716 3584 
Q 2034 3584 2315 3537 
Q 2597 3491 2834 3397 
z
" id="DejaVuSans-73" transform="scale(0.015625)"/>
      </defs>
      <use xlink:href="#DejaVuSans-54"/>
      <use x="57.958984" xlink:href="#DejaVuSans-69"/>
      <use x="85.742188" xlink:href="#DejaVuSans-6d"/>
      <use x="183.154297" xlink:href="#DejaVuSans-65"/>
      <use x="244.677734" xlink:href="#DejaVuSans-20"/>
      <use x="276.464844" xlink:href="#DejaVuSans-53"/>
      <use x="339.941406" xlink:href="#DejaVuSans-74"/>
      <use x="379.150391" xlink:href="#DejaVuSans-65"/>
      <use x="440.673828" xlink:href="#DejaVuSans-70"/>
      <use x="504.150391" xlink:href="#DejaVuSans-73"/>
     </g>
    </g>
   </g>
   <g id="matplotlib.axis_2">
    <g id="ytick_1">
     <g id="line2d_7">
      <defs>
       <path d="M 0 0 
L -3.5 0 
" id="m6e67d06f19" style="stroke:#000000;stroke-width:0.8;"/>
      </defs>
      <g>
       <use style="stroke:#000000;stroke-width:0.8;" x="108" xlink:href="#m6e67d06f19" y="496.606418"/>
      </g>
     </g>
     <g id="text_8">
      <!-- 0 -->
      <g transform="translate(94.6375 500.405637)scale(0.1 -0.1)">
       <use xlink:href="#DejaVuSans-30"/>
      </g>
     </g>
    </g>
    <g id="ytick_2">
     <g id="line2d_8">
      <g>
       <use style="stroke:#000000;stroke-width:0.8;" x="108" xlink:href="#m6e67d06f19" y="447.130419"/>
      </g>
     </g>
     <g id="text_9">
      <!-- 10 -->
      <g transform="translate(88.275 450.929638)scale(0.1 -0.1)">
       <use xlink:href="#DejaVuSans-31"/>
       <use x="63.623047" xlink:href="#DejaVuSans-30"/>
      </g>
     </g>
    </g>
    <g id="ytick_3">
     <g id="line2d_9">
      <g>
       <use style="stroke:#000000;stroke-width:0.8;" x="108" xlink:href="#m6e67d06f19" y="397.654421"/>
      </g>
     </g>
     <g id="text_10">
      <!-- 20 -->
      <g transform="translate(88.275 401.453639)scale(0.1 -0.1)">
       <use xlink:href="#DejaVuSans-32"/>
       <use x="63.623047" xlink:href="#DejaVuSans-30"/>
      </g>
     </g>
    </g>
    <g id="ytick_4">
     <g id="line2d_10">
      <g>
       <use style="stroke:#000000;stroke-width:0.8;" x="108" xlink:href="#m6e67d06f19" y="348.178422"/>
      </g>
     </g>
     <g id="text_11">
      <!-- 30 -->
      <g transform="translate(88.275 351.977641)scale(0.1 -0.1)">
       <defs>
        <path d="M 2597 2516 
Q 3050 2419 3304 2112 
Q 3559 1806 3559 1356 
Q 3559 666 3084 287 
Q 2609 -91 1734 -91 
Q 1441 -91 1130 -33 
Q 819 25 488 141 
L 488 750 
Q 750 597 1062 519 
Q 1375 441 1716 441 
Q 2309 441 2620 675 
Q 2931 909 2931 1356 
Q 2931 1769 2642 2001 
Q 2353 2234 1838 2234 
L 1294 2234 
L 1294 2753 
L 1863 2753 
Q 2328 2753 2575 2939 
Q 2822 3125 2822 3475 
Q 2822 3834 2567 4026 
Q 2313 4219 1838 4219 
Q 1578 4219 1281 4162 
Q 984 4106 628 3988 
L 628 4550 
Q 988 4650 1302 4700 
Q 1616 4750 1894 4750 
Q 2613 4750 3031 4423 
Q 3450 4097 3450 3541 
Q 3450 3153 3228 2886 
Q 3006 2619 2597 2516 
z
" id="DejaVuSans-33" transform="scale(0.015625)"/>
       </defs>
       <use xlink:href="#DejaVuSans-33"/>
       <use x="63.623047" xlink:href="#DejaVuSans-30"/>
      </g>
     </g>
    </g>
    <g id="ytick_5">
     <g id="line2d_11">
      <g>
       <use style="stroke:#000000;stroke-width:0.8;" x="108" xlink:href="#m6e67d06f19" y="298.702424"/>
      </g>
     </g>
     <g id="text_12">
      <!-- 40 -->
      <g transform="translate(88.275 302.501642)scale(0.1 -0.1)">
       <use xlink:href="#DejaVuSans-34"/>
       <use x="63.623047" xlink:href="#DejaVuSans-30"/>
      </g>
     </g>
    </g>
    <g id="ytick_6">
     <g id="line2d_12">
      <g>
       <use style="stroke:#000000;stroke-width:0.8;" x="108" xlink:href="#m6e67d06f19" y="249.226425"/>
      </g>
     </g>
     <g id="text_13">
      <!-- 50 -->
      <g transform="translate(88.275 253.025644)scale(0.1 -0.1)">
       <defs>
        <path d="M 691 4666 
L 3169 4666 
L 3169 4134 
L 1269 4134 
L 1269 2991 
Q 1406 3038 1543 3061 
Q 1681 3084 1819 3084 
Q 2600 3084 3056 2656 
Q 3513 2228 3513 1497 
Q 3513 744 3044 326 
Q 2575 -91 1722 -91 
Q 1428 -91 1123 -41 
Q 819 9 494 109 
L 494 744 
Q 775 591 1075 516 
Q 1375 441 1709 441 
Q 2250 441 2565 725 
Q 2881 1009 2881 1497 
Q 2881 1984 2565 2268 
Q 2250 2553 1709 2553 
Q 1456 2553 1204 2497 
Q 953 2441 691 2322 
L 691 4666 
z
" id="DejaVuSans-35" transform="scale(0.015625)"/>
       </defs>
       <use xlink:href="#DejaVuSans-35"/>
       <use x="63.623047" xlink:href="#DejaVuSans-30"/>
      </g>
     </g>
    </g>
    <g id="ytick_7">
     <g id="line2d_13">
      <g>
       <use style="stroke:#000000;stroke-width:0.8;" x="108" xlink:href="#m6e67d06f19" y="199.750426"/>
      </g>
     </g>
     <g id="text_14">
      <!-- 60 -->
      <g transform="translate(88.275 203.549645)scale(0.1 -0.1)">
       <use xlink:href="#DejaVuSans-36"/>
       <use x="63.623047" xlink:href="#DejaVuSans-30"/>
      </g>
     </g>
    </g>
    <g id="ytick_8">
     <g id="line2d_14">
      <g>
       <use style="stroke:#000000;stroke-width:0.8;" x="108" xlink:href="#m6e67d06f19" y="150.274428"/>
      </g>
     </g>
     <g id="text_15">
      <!-- 70 -->
      <g transform="translate(88.275 154.073646)scale(0.1 -0.1)">
       <defs>
        <path d="M 525 4666 
L 3525 4666 
L 3525 4397 
L 1831 0 
L 1172 0 
L 2766 4134 
L 525 4134 
L 525 4666 
z
" id="DejaVuSans-37" transform="scale(0.015625)"/>
       </defs>
       <use xlink:href="#DejaVuSans-37"/>
       <use x="63.623047" xlink:href="#DejaVuSans-30"/>
      </g>
     </g>
    </g>
    <g id="ytick_9">
     <g id="line2d_15">
      <g>
       <use style="stroke:#000000;stroke-width:0.8;" x="108" xlink:href="#m6e67d06f19" y="100.798429"/>
      </g>
     </g>
     <g id="text_16">
      <!-- 80 -->
      <g transform="translate(88.275 104.597648)scale(0.1 -0.1)">
       <use xlink:href="#DejaVuSans-38"/>
       <use x="63.623047" xlink:href="#DejaVuSans-30"/>
      </g>
     </g>
    </g>
    <g id="text_17">
     <!-- Average Optimal Action -->
     <g transform="translate(82.195312 350.033125)rotate(-90)scale(0.1 -0.1)">
      <defs>
       <path d="M 2188 4044 
L 1331 1722 
L 3047 1722 
L 2188 4044 
z
M 1831 4666 
L 2547 4666 
L 4325 0 
L 3669 0 
L 3244 1197 
L 1141 1197 
L 716 0 
L 50 0 
L 1831 4666 
z
" id="DejaVuSans-41" transform="scale(0.015625)"/>
       <path d="M 191 3500 
L 800 3500 
L 1894 563 
L 2988 3500 
L 3597 3500 
L 2284 0 
L 1503 0 
L 191 3500 
z
" id="DejaVuSans-76" transform="scale(0.015625)"/>
       <path d="M 2631 2963 
Q 2534 3019 2420 3045 
Q 2306 3072 2169 3072 
Q 1681 3072 1420 2755 
Q 1159 2438 1159 1844 
L 1159 0 
L 581 0 
L 581 3500 
L 1159 3500 
L 1159 2956 
Q 1341 3275 1631 3429 
Q 1922 3584 2338 3584 
Q 2397 3584 2469 3576 
Q 2541 3569 2628 3553 
L 2631 2963 
z
" id="DejaVuSans-72" transform="scale(0.015625)"/>
       <path d="M 2194 1759 
Q 1497 1759 1228 1600 
Q 959 1441 959 1056 
Q 959 750 1161 570 
Q 1363 391 1709 391 
Q 2188 391 2477 730 
Q 2766 1069 2766 1631 
L 2766 1759 
L 2194 1759 
z
M 3341 1997 
L 3341 0 
L 2766 0 
L 2766 531 
Q 2569 213 2275 61 
Q 1981 -91 1556 -91 
Q 1019 -91 701 211 
Q 384 513 384 1019 
Q 384 1609 779 1909 
Q 1175 2209 1959 2209 
L 2766 2209 
L 2766 2266 
Q 2766 2663 2505 2880 
Q 2244 3097 1772 3097 
Q 1472 3097 1187 3025 
Q 903 2953 641 2809 
L 641 3341 
Q 956 3463 1253 3523 
Q 1550 3584 1831 3584 
Q 2591 3584 2966 3190 
Q 3341 2797 3341 1997 
z
" id="DejaVuSans-61" transform="scale(0.015625)"/>
       <path d="M 2906 1791 
Q 2906 2416 2648 2759 
Q 2391 3103 1925 3103 
Q 1463 3103 1205 2759 
Q 947 2416 947 1791 
Q 947 1169 1205 825 
Q 1463 481 1925 481 
Q 2391 481 2648 825 
Q 2906 1169 2906 1791 
z
M 3481 434 
Q 3481 -459 3084 -895 
Q 2688 -1331 1869 -1331 
Q 1566 -1331 1297 -1286 
Q 1028 -1241 775 -1147 
L 775 -588 
Q 1028 -725 1275 -790 
Q 1522 -856 1778 -856 
Q 2344 -856 2625 -561 
Q 2906 -266 2906 331 
L 2906 616 
Q 2728 306 2450 153 
Q 2172 0 1784 0 
Q 1141 0 747 490 
Q 353 981 353 1791 
Q 353 2603 747 3093 
Q 1141 3584 1784 3584 
Q 2172 3584 2450 3431 
Q 2728 3278 2906 2969 
L 2906 3500 
L 3481 3500 
L 3481 434 
z
" id="DejaVuSans-67" transform="scale(0.015625)"/>
       <path d="M 2522 4238 
Q 1834 4238 1429 3725 
Q 1025 3213 1025 2328 
Q 1025 1447 1429 934 
Q 1834 422 2522 422 
Q 3209 422 3611 934 
Q 4013 1447 4013 2328 
Q 4013 3213 3611 3725 
Q 3209 4238 2522 4238 
z
M 2522 4750 
Q 3503 4750 4090 4092 
Q 4678 3434 4678 2328 
Q 4678 1225 4090 567 
Q 3503 -91 2522 -91 
Q 1538 -91 948 565 
Q 359 1222 359 2328 
Q 359 3434 948 4092 
Q 1538 4750 2522 4750 
z
" id="DejaVuSans-4f" transform="scale(0.015625)"/>
       <path d="M 603 4863 
L 1178 4863 
L 1178 0 
L 603 0 
L 603 4863 
z
" id="DejaVuSans-6c" transform="scale(0.015625)"/>
       <path d="M 3122 3366 
L 3122 2828 
Q 2878 2963 2633 3030 
Q 2388 3097 2138 3097 
Q 1578 3097 1268 2742 
Q 959 2388 959 1747 
Q 959 1106 1268 751 
Q 1578 397 2138 397 
Q 2388 397 2633 464 
Q 2878 531 3122 666 
L 3122 134 
Q 2881 22 2623 -34 
Q 2366 -91 2075 -91 
Q 1284 -91 818 406 
Q 353 903 353 1747 
Q 353 2603 823 3093 
Q 1294 3584 2113 3584 
Q 2378 3584 2631 3529 
Q 2884 3475 3122 3366 
z
" id="DejaVuSans-63" transform="scale(0.015625)"/>
       <path d="M 1959 3097 
Q 1497 3097 1228 2736 
Q 959 2375 959 1747 
Q 959 1119 1226 758 
Q 1494 397 1959 397 
Q 2419 397 2687 759 
Q 2956 1122 2956 1747 
Q 2956 2369 2687 2733 
Q 2419 3097 1959 3097 
z
M 1959 3584 
Q 2709 3584 3137 3096 
Q 3566 2609 3566 1747 
Q 3566 888 3137 398 
Q 2709 -91 1959 -91 
Q 1206 -91 779 398 
Q 353 888 353 1747 
Q 353 2609 779 3096 
Q 1206 3584 1959 3584 
z
" id="DejaVuSans-6f" transform="scale(0.015625)"/>
       <path d="M 3513 2113 
L 3513 0 
L 2938 0 
L 2938 2094 
Q 2938 2591 2744 2837 
Q 2550 3084 2163 3084 
Q 1697 3084 1428 2787 
Q 1159 2491 1159 1978 
L 1159 0 
L 581 0 
L 581 3500 
L 1159 3500 
L 1159 2956 
Q 1366 3272 1645 3428 
Q 1925 3584 2291 3584 
Q 2894 3584 3203 3211 
Q 3513 2838 3513 2113 
z
" id="DejaVuSans-6e" transform="scale(0.015625)"/>
      </defs>
      <use xlink:href="#DejaVuSans-41"/>
      <use x="62.533203" xlink:href="#DejaVuSans-76"/>
      <use x="121.712891" xlink:href="#DejaVuSans-65"/>
      <use x="183.236328" xlink:href="#DejaVuSans-72"/>
      <use x="224.349609" xlink:href="#DejaVuSans-61"/>
      <use x="285.628906" xlink:href="#DejaVuSans-67"/>
      <use x="349.105469" xlink:href="#DejaVuSans-65"/>
      <use x="410.628906" xlink:href="#DejaVuSans-20"/>
      <use x="442.416016" xlink:href="#DejaVuSans-4f"/>
      <use x="521.126953" xlink:href="#DejaVuSans-70"/>
      <use x="584.603516" xlink:href="#DejaVuSans-74"/>
      <use x="623.8125" xlink:href="#DejaVuSans-69"/>
      <use x="651.595703" xlink:href="#DejaVuSans-6d"/>
      <use x="749.007812" xlink:href="#DejaVuSans-61"/>
      <use x="810.287109" xlink:href="#DejaVuSans-6c"/>
      <use x="838.070312" xlink:href="#DejaVuSans-20"/>
      <use x="869.857422" xlink:href="#DejaVuSans-41"/>
      <use x="936.515625" xlink:href="#DejaVuSans-63"/>
      <use x="991.496094" xlink:href="#DejaVuSans-74"/>
      <use x="1030.705078" xlink:href="#DejaVuSans-69"/>
      <use x="1058.488281" xlink:href="#DejaVuSans-6f"/>
      <use x="1119.669922" xlink:href="#DejaVuSans-6e"/>
     </g>
    </g>
   </g>
   <g id="line2d_16">
    <path clip-path="url(#pa26f4b2729)" d="M 138.436364 417.44482 
L 141.483047 419.40285 
L 142.70172 419.71262 
L 143.920393 419.701322 
L 144.52973 419.471724 
L 145.139066 419.101202 
L 146.35774 417.708274 
L 148.795086 414.151121 
L 150.623096 410.981463 
L 154.279115 403.915323 
L 156.716462 398.609468 
L 165.247174 379.294507 
L 168.293857 373.050219 
L 171.340541 367.317932 
L 174.387224 362.111788 
L 177.433907 357.400109 
L 180.48059 353.059126 
L 183.527273 349.073729 
L 186.573956 345.434761 
L 189.620639 342.124729 
L 192.667322 339.121584 
L 195.714005 336.401213 
L 198.760688 333.939048 
L 202.416708 331.291566 
L 206.072727 328.942246 
L 209.728747 326.855171 
L 213.384767 324.997986 
L 217.650123 323.083617 
L 221.915479 321.403236 
L 229.836855 318.612357 
L 237.148894 316.280282 
L 244.460934 314.199183 
L 251.772973 312.357633 
L 259.694349 310.606481 
L 268.225061 308.967203 
L 277.365111 307.450471 
L 287.114496 306.058561 
L 298.082555 304.718953 
L 310.269287 303.45484 
L 324.284029 302.229869 
L 340.126781 301.072434 
L 358.40688 299.964544 
L 379.733661 298.902684 
L 404.716462 297.891564 
L 433.964619 296.939304 
L 468.696806 296.039934 
L 510.131695 295.197507 
L 560.097297 294.410944 
L 621.640295 293.673544 
L 697.807371 292.992236 
L 747.163636 292.644214 
L 747.163636 292.644214 
" style="fill:none;stroke:#1f77b4;stroke-linecap:square;stroke-width:1.5;"/>
   </g>
   <g id="line2d_17">
    <path clip-path="url(#pa26f4b2729)" d="M 138.436364 466.920819 
L 139.0457 467.502889 
L 139.655037 467.350714 
L 140.87371 468.746204 
L 141.483047 469.709412 
L 142.092383 470.098973 
L 142.70172 470.653422 
L 143.311057 471.369372 
L 143.920393 472.281451 
L 145.139066 473.618923 
L 145.748403 474.460694 
L 146.967076 475.348658 
L 150.013759 477.879399 
L 150.623096 478.151831 
L 151.232432 478.663878 
L 151.841769 478.996332 
L 152.451106 479.104853 
L 153.669779 479.853872 
L 154.279115 480.338369 
L 156.107125 481.304153 
L 156.716462 481.340947 
L 157.325799 481.794076 
L 157.935135 482.022182 
L 158.544472 482.400089 
L 161.591155 483.170495 
L 162.200491 483.076519 
L 162.809828 483.219056 
L 163.419165 483.503831 
L 164.028501 483.64766 
L 167.075184 485.343211 
L 168.293857 485.717752 
L 169.512531 486.266721 
L 170.121867 486.342726 
L 171.340541 486.733558 
L 172.559214 486.793261 
L 173.777887 487.085773 
L 174.387224 487.038747 
L 176.215233 487.740383 
L 176.82457 487.869794 
L 177.433907 488.164647 
L 178.043243 488.195842 
L 179.261916 488.543661 
L 180.48059 488.502542 
L 181.089926 488.56893 
L 181.699263 488.792503 
L 182.3086 488.694937 
L 183.527273 489.036947 
L 184.745946 489.210299 
L 185.355283 489.087421 
L 185.964619 489.171068 
L 186.573956 489.108557 
L 187.792629 489.517062 
L 190.839312 489.684964 
L 191.448649 489.749142 
L 192.057985 489.577686 
L 192.667322 489.642053 
L 194.495332 489.330624 
L 196.932678 489.547962 
L 198.760688 489.949309 
L 199.370025 489.97985 
L 199.979361 489.83645 
L 200.588698 489.917334 
L 201.807371 489.78526 
L 202.416708 489.88802 
L 203.026044 489.734426 
L 204.244717 489.836713 
L 204.854054 489.925807 
L 205.463391 489.89763 
L 206.682064 490.040061 
L 207.900737 490.147429 
L 209.728747 490.268495 
L 210.94742 490.318762 
L 211.556757 490.228601 
L 212.77543 490.379782 
L 213.994103 490.462913 
L 215.822113 490.740239 
L 216.43145 490.825896 
L 218.259459 490.444876 
L 221.915479 490.453193 
L 223.134152 490.786051 
L 223.743489 490.733585 
L 225.571499 491.039668 
L 228.008845 490.794339 
L 229.227518 490.796795 
L 230.446192 490.785256 
L 231.055528 490.688896 
L 231.664865 490.472434 
L 232.883538 490.785286 
L 234.102211 490.585904 
L 234.711548 490.580388 
L 235.320885 490.450484 
L 235.930221 490.470152 
L 236.539558 490.37544 
L 238.367568 490.493867 
L 239.586241 490.494069 
L 240.195577 490.535126 
L 241.414251 490.376519 
L 242.023587 490.52325 
L 243.851597 490.588153 
L 244.460934 490.73325 
L 246.288943 490.604681 
L 246.89828 490.794518 
L 247.507617 490.662414 
L 250.5543 490.974063 
L 251.772973 491.313774 
L 256.038329 491.429458 
L 258.475676 491.482844 
L 259.694349 491.677498 
L 262.741032 491.890154 
L 263.350369 491.698361 
L 263.959705 491.753986 
L 265.178378 491.63563 
L 269.443735 491.494812 
L 270.662408 491.187862 
L 272.490418 491.223182 
L 274.927764 490.728362 
L 275.537101 490.824946 
L 278.583784 490.176673 
L 279.802457 490.427485 
L 280.411794 490.275116 
L 281.02113 490.361578 
L 281.630467 490.32366 
L 282.84914 490.521671 
L 283.458477 490.513497 
L 284.67715 490.863736 
L 288.33317 491.025822 
L 288.942506 490.917646 
L 291.989189 491.330041 
L 294.426536 491.25635 
L 295.035872 491.418026 
L 296.863882 491.03365 
L 297.473219 491.025582 
L 298.691892 491.272755 
L 300.519902 491.55411 
L 301.129238 491.517674 
L 301.738575 491.637892 
L 302.347912 491.55248 
L 302.957248 491.591732 
L 304.175921 491.480635 
L 304.785258 491.588175 
L 305.394595 491.515453 
L 306.613268 491.713193 
L 307.831941 491.790625 
L 309.659951 491.921127 
L 310.878624 492.047413 
L 312.097297 492.166409 
L 312.706634 492.036309 
L 314.534644 492.179836 
L 315.14398 492.10273 
L 315.753317 492.138479 
L 316.362654 491.922997 
L 318.190663 492.186356 
L 318.8 492.070943 
L 320.018673 492.178048 
L 320.62801 492.043859 
L 321.237346 492.075815 
L 321.846683 491.959238 
L 322.45602 492.110744 
L 323.674693 491.966549 
L 324.893366 491.987505 
L 325.502703 491.910361 
L 326.721376 492.03383 
L 327.330713 492.08463 
L 329.158722 491.893057 
L 329.768059 492.034778 
L 332.205405 491.86132 
L 332.814742 491.916437 
L 334.033415 491.866765 
L 334.642752 491.898857 
L 335.252088 491.815188 
L 336.470762 491.983182 
L 337.080098 491.88324 
L 337.689435 491.665036 
L 340.126781 491.773489 
L 340.736118 491.52253 
L 342.564128 491.657296 
L 345.001474 491.465157 
L 345.610811 491.625808 
L 347.438821 491.498398 
L 348.657494 491.683044 
L 350.485504 491.689925 
L 353.532187 491.479504 
L 354.75086 491.333641 
L 355.969533 491.277328 
L 356.57887 491.453885 
L 357.188206 491.453298 
L 357.797543 491.622059 
L 359.016216 491.53321 
L 359.625553 491.661799 
L 360.234889 491.531447 
L 360.844226 491.539623 
L 361.453563 491.285775 
L 362.062899 491.372109 
L 363.281572 491.235925 
L 363.890909 491.125427 
L 364.500246 490.857395 
L 365.109582 490.820681 
L 365.718919 490.92099 
L 366.328256 490.828337 
L 366.937592 490.873289 
L 367.546929 491.056946 
L 368.156265 490.981997 
L 368.765602 491.041815 
L 369.374939 490.964914 
L 373.030958 491.315949 
L 374.249631 490.927643 
L 376.077641 490.864898 
L 376.686978 490.966317 
L 380.342998 490.937871 
L 381.561671 491.217682 
L 383.999017 491.295706 
L 384.608354 491.179159 
L 386.436364 491.424178 
L 387.0457 491.281102 
L 387.655037 491.371631 
L 388.264373 491.29367 
L 388.87371 491.371095 
L 389.483047 491.250367 
L 396.185749 491.386589 
L 397.404423 491.615994 
L 398.623096 491.375991 
L 399.841769 491.403288 
L 401.060442 491.350406 
L 404.107125 491.219044 
L 404.716462 491.231861 
L 405.935135 491.083699 
L 406.544472 491.029259 
L 408.372482 491.294034 
L 412.637838 491.390665 
L 413.247174 491.338509 
L 413.856511 491.466285 
L 415.075184 491.326745 
L 415.684521 491.45465 
L 416.293857 491.402793 
L 417.512531 491.513512 
L 419.340541 491.303321 
L 419.949877 491.295052 
L 421.777887 491.66385 
L 422.99656 491.660305 
L 424.215233 491.74131 
L 425.433907 491.524918 
L 426.043243 491.600313 
L 426.65258 491.544482 
L 427.871253 491.686325 
L 429.089926 491.61597 
L 429.699263 491.687726 
L 431.527273 491.576163 
L 432.745946 491.614322 
L 433.355283 491.72768 
L 435.183292 491.685798 
L 438.229975 492.098956 
L 440.057985 491.946562 
L 441.885995 492.211676 
L 442.495332 492.12558 
L 443.714005 492.209797 
L 444.323342 492.214034 
L 445.542015 492.030028 
L 446.151351 492.054582 
L 446.760688 491.8879 
L 447.370025 491.865166 
L 447.979361 492.007643 
L 450.416708 492.027514 
L 452.244717 492.294614 
L 458.338084 492.168808 
L 460.166093 492.23742 
L 460.77543 491.987759 
L 461.384767 491.973763 
L 461.994103 491.757906 
L 463.212776 491.896119 
L 463.822113 491.888626 
L 464.43145 491.994001 
L 466.259459 491.849836 
L 466.868796 491.951573 
L 467.478133 491.773325 
L 468.087469 491.848306 
L 468.696806 491.788349 
L 469.306143 491.932354 
L 473.571499 491.70514 
L 474.180835 491.609826 
L 476.008845 491.653114 
L 483.320885 491.45326 
L 484.539558 491.224963 
L 489.414251 491.722567 
L 491.24226 491.522776 
L 491.851597 491.530449 
L 492.460934 491.394799 
L 493.679607 491.490919 
L 496.116953 491.756799 
L 496.72629 491.678839 
L 497.944963 491.822474 
L 498.5543 491.64563 
L 499.772973 491.704358 
L 504.647666 491.628341 
L 505.257002 491.754059 
L 505.866339 491.452222 
L 508.303686 491.721445 
L 512.569042 491.987389 
L 513.787715 491.721968 
L 514.397052 491.80991 
L 516.225061 491.730867 
L 519.881081 491.914827 
L 521.709091 491.731129 
L 522.927764 491.952792 
L 524.755774 492.299512 
L 525.974447 492.402746 
L 526.583784 492.325522 
L 529.630467 492.48 
L 531.458477 492.238529 
L 532.067813 492.207099 
L 532.67715 492.305365 
L 533.286486 492.157139 
L 533.895823 492.285652 
L 534.50516 492.176129 
L 536.33317 492.287038 
L 536.942506 492.228929 
L 537.551843 492.32133 
L 542.426536 492.083493 
L 543.035872 491.989522 
L 547.301229 492.158097 
L 550.347912 491.943634 
L 553.394595 492.046684 
L 555.222604 491.797574 
L 558.878624 491.875306 
L 560.097297 492.05424 
L 561.315971 491.791982 
L 564.362654 491.939508 
L 567.409337 491.706976 
L 569.237346 491.700506 
L 569.846683 491.496638 
L 570.45602 491.616133 
L 571.674693 491.70799 
L 572.284029 491.814638 
L 574.112039 491.562976 
L 574.721376 491.614632 
L 575.330713 491.401263 
L 576.549386 491.515236 
L 577.158722 491.518982 
L 577.768059 491.365378 
L 578.986732 491.58547 
L 580.205405 491.627988 
L 580.814742 491.497624 
L 585.080098 491.610895 
L 586.298771 491.224164 
L 589.345455 491.333798 
L 591.782801 491.172396 
L 593.001474 491.360165 
L 599.09484 491.132486 
L 599.704177 491.267288 
L 601.532187 491.3054 
L 602.75086 491.407477 
L 607.625553 491.172944 
L 610.062899 491.03059 
L 611.281572 491.265732 
L 616.765602 491.180242 
L 618.593612 491.215133 
L 619.812285 491.481137 
L 624.077641 491.375257 
L 625.296314 491.424048 
L 626.514988 491.561484 
L 628.342998 491.387724 
L 630.780344 491.704077 
L 631.389681 491.8168 
L 632.608354 491.719913 
L 633.827027 491.80137 
L 636.264373 491.70578 
L 636.87371 491.741132 
L 637.483047 491.586471 
L 639.920393 491.468377 
L 640.52973 491.586145 
L 642.967076 491.303943 
L 643.576413 491.442222 
L 646.623096 491.122889 
L 647.841769 491.231208 
L 649.669779 491.197661 
L 650.279115 491.078937 
L 650.888452 491.097069 
L 652.716462 491.502944 
L 655.153808 491.425388 
L 658.200491 491.226141 
L 658.809828 491.033654 
L 659.419165 491.08945 
L 660.028501 490.932697 
L 660.637838 491.039867 
L 661.247174 491.030033 
L 662.465848 491.162952 
L 666.121867 491.478955 
L 666.731204 491.248621 
L 667.949877 491.045634 
L 669.777887 491.192243 
L 670.387224 491.172801 
L 670.99656 491.272352 
L 671.605897 491.210873 
L 672.82457 491.347917 
L 673.433907 491.121498 
L 677.089926 491.086528 
L 678.3086 491.293013 
L 678.917936 491.151353 
L 681.355283 491.463233 
L 681.964619 491.439399 
L 682.573956 491.254848 
L 684.401966 491.484677 
L 686.839312 491.620415 
L 687.448649 491.41198 
L 692.323342 491.359869 
L 693.542015 491.524636 
L 694.760688 491.578499 
L 695.370025 491.579741 
L 696.588698 491.728528 
L 697.807371 491.84637 
L 699.026044 491.953882 
L 700.244717 491.802056 
L 700.854054 491.667509 
L 702.072727 491.766736 
L 703.2914 491.690765 
L 703.900737 491.759895 
L 708.166093 491.518932 
L 711.822113 491.88124 
L 712.43145 491.912639 
L 713.040786 491.749357 
L 714.259459 491.771584 
L 714.868796 491.734585 
L 715.478133 491.449584 
L 716.087469 491.338595 
L 717.915479 491.43617 
L 719.743489 491.239376 
L 720.352826 491.328888 
L 721.571499 491.163741 
L 723.399509 491.083446 
L 724.008845 491.215324 
L 724.618182 491.155147 
L 725.836855 491.317177 
L 727.664865 491.175565 
L 728.883538 491.212386 
L 730.102211 491.190633 
L 732.539558 491.36568 
L 734.976904 491.101546 
L 736.195577 491.170575 
L 737.414251 491.150283 
L 738.023587 491.285852 
L 738.632924 491.212715 
L 743.507617 491.634854 
L 744.116953 491.585679 
L 744.72629 491.739325 
L 745.335627 491.776841 
L 747.163636 491.556995 
L 747.163636 491.556995 
" style="fill:none;stroke:#ff7f0e;stroke-linecap:square;stroke-width:1.5;"/>
   </g>
   <g id="line2d_18">
    <path clip-path="url(#pa26f4b2729)" d="M 138.436364 417.44482 
L 139.0457 417.638844 
L 140.264373 417.623925 
L 140.87371 417.384073 
L 142.092383 416.157573 
L 142.70172 416.01403 
L 143.311057 414.776649 
L 143.920393 413.872361 
L 144.52973 412.601377 
L 145.139066 412.079896 
L 145.748403 410.827647 
L 146.35774 410.144744 
L 146.967076 408.852963 
L 148.185749 407.255244 
L 148.795086 405.520577 
L 149.404423 404.619818 
L 150.013759 402.755672 
L 150.623096 401.446917 
L 153.060442 394.287259 
L 154.279115 390.498081 
L 156.107125 386.148991 
L 157.325799 383.518143 
L 157.935135 381.344418 
L 158.544472 380.91119 
L 159.763145 376.635233 
L 160.372482 375.603182 
L 160.981818 373.690337 
L 161.591155 372.291872 
L 162.200491 370.046289 
L 163.419165 366.68466 
L 164.637838 363.058692 
L 165.856511 360.315615 
L 167.684521 355.671823 
L 169.512531 353.647248 
L 170.121867 353.110632 
L 170.731204 351.48 
L 172.559214 347.89419 
L 173.16855 346.694362 
L 173.777887 344.568973 
L 174.99656 341.930681 
L 175.605897 340.986514 
L 176.215233 339.802595 
L 176.82457 338.275708 
L 180.48059 332.348786 
L 181.089926 330.603015 
L 182.3086 328.647496 
L 182.917936 328.05525 
L 183.527273 327.307728 
L 184.745946 324.493705 
L 185.964619 322.122981 
L 186.573956 321.655632 
L 188.401966 318.275071 
L 189.011302 317.780073 
L 189.620639 317.926721 
L 190.229975 316.78478 
L 190.839312 316.316525 
L 191.448649 315.153946 
L 193.276658 313.754341 
L 193.885995 312.716972 
L 194.495332 312.713986 
L 195.104668 311.846645 
L 195.714005 310.587769 
L 196.323342 309.826599 
L 196.932678 309.750401 
L 197.542015 308.493537 
L 198.151351 307.968463 
L 198.760688 307.217042 
L 199.370025 307.301919 
L 199.979361 306.858161 
L 200.588698 306.037258 
L 201.198034 306.395119 
L 203.635381 303.413878 
L 204.244717 303.019071 
L 204.854054 302.447633 
L 205.463391 302.898565 
L 206.072727 303.489316 
L 206.682064 303.600356 
L 207.900737 302.121954 
L 208.510074 301.004357 
L 209.11941 300.572471 
L 210.338084 298.906416 
L 210.94742 298.759366 
L 212.166093 297.221007 
L 213.384767 295.465241 
L 213.994103 295.387301 
L 214.60344 294.40244 
L 215.212776 294.323573 
L 215.822113 293.346309 
L 216.43145 293.312695 
L 217.040786 292.939002 
L 217.650123 293.067266 
L 218.259459 293.541071 
L 219.478133 292.905296 
L 220.087469 293.049276 
L 221.306143 292.24127 
L 221.915479 292.607126 
L 222.524816 292.527903 
L 223.134152 292.099274 
L 223.743489 291.86009 
L 224.352826 291.879739 
L 224.962162 291.105267 
L 225.571499 290.707943 
L 226.180835 291.048214 
L 226.790172 291.048042 
L 227.399509 290.181432 
L 228.618182 289.626605 
L 229.227518 289.571189 
L 229.836855 288.875639 
L 230.446192 288.661062 
L 231.664865 285.95316 
L 232.274201 285.849781 
L 232.883538 285.45085 
L 233.492875 285.352611 
L 234.102211 285.092671 
L 234.711548 285.497037 
L 235.930221 285.431551 
L 236.539558 284.423743 
L 237.148894 283.857641 
L 237.758231 282.51375 
L 238.367568 281.551728 
L 238.976904 282.264044 
L 239.586241 281.953672 
L 240.195577 281.03289 
L 242.023587 281.413191 
L 242.632924 281.470777 
L 243.24226 281.119212 
L 243.851597 281.186536 
L 244.460934 280.445421 
L 245.07027 279.412965 
L 245.679607 279.051313 
L 246.89828 276.633326 
L 248.116953 276.059078 
L 249.335627 275.025672 
L 250.5543 274.71387 
L 251.772973 273.489717 
L 252.38231 272.946904 
L 252.991646 271.975625 
L 254.819656 270.413958 
L 255.428993 270.493879 
L 256.038329 271.080033 
L 256.647666 270.553367 
L 257.257002 270.574283 
L 258.475676 269.48197 
L 259.085012 268.730534 
L 259.694349 269.455768 
L 260.303686 271.127814 
L 260.913022 272.095831 
L 261.522359 270.780359 
L 262.131695 270.437286 
L 262.741032 269.866709 
L 263.350369 270.272288 
L 263.959705 269.22013 
L 264.569042 269.919224 
L 265.787715 270.013774 
L 266.397052 269.617896 
L 267.006388 269.859734 
L 267.615725 269.584377 
L 268.225061 269.618332 
L 268.834398 269.461183 
L 270.053071 267.738707 
L 270.662408 267.664227 
L 271.271744 266.73032 
L 271.881081 267.001663 
L 272.490418 266.304595 
L 273.099754 266.290348 
L 273.709091 265.725581 
L 274.318428 265.381717 
L 274.927764 265.796766 
L 275.537101 265.806285 
L 276.146437 264.884291 
L 276.755774 264.673622 
L 277.974447 264.388943 
L 278.583784 263.832971 
L 279.19312 263.459206 
L 279.802457 263.600542 
L 280.411794 262.852778 
L 281.02113 262.675084 
L 281.630467 262.085203 
L 282.239803 262.140904 
L 282.84914 261.820325 
L 283.458477 262.053832 
L 284.067813 262.462707 
L 284.67715 262.214143 
L 285.286486 261.331205 
L 285.895823 260.129918 
L 286.50516 261.965407 
L 288.942506 260.889052 
L 289.551843 260.098192 
L 290.161179 259.769636 
L 290.770516 259.932836 
L 291.379853 259.666964 
L 291.989189 258.79893 
L 292.598526 258.298263 
L 293.817199 256.606299 
L 294.426536 256.5162 
L 295.035872 256.749227 
L 295.645209 257.113445 
L 296.254545 256.735496 
L 296.863882 256.039595 
L 297.473219 256.779556 
L 298.082555 256.924519 
L 298.691892 256.615284 
L 299.301229 255.39714 
L 299.910565 255.435245 
L 300.519902 254.534844 
L 301.738575 253.541683 
L 302.347912 253.389704 
L 302.957248 253.949551 
L 303.566585 253.493269 
L 304.175921 252.78296 
L 304.785258 251.788085 
L 305.394595 251.013131 
L 306.003931 251.200356 
L 307.831941 250.808765 
L 309.050614 250.350797 
L 309.659951 250.963082 
L 310.269287 251.0938 
L 310.878624 250.280001 
L 311.487961 249.813875 
L 312.097297 250.360697 
L 312.706634 249.895719 
L 313.315971 249.710481 
L 313.925307 249.667329 
L 314.534644 249.162973 
L 315.14398 248.36003 
L 315.753317 248.605306 
L 316.362654 248.379353 
L 317.581327 248.636843 
L 318.190663 249.909318 
L 318.8 249.676102 
L 319.409337 250.622075 
L 320.018673 251.059216 
L 320.62801 251.819056 
L 321.237346 251.794735 
L 323.065356 250.433076 
L 323.674693 249.772514 
L 324.893366 249.680374 
L 325.502703 250.715843 
L 326.112039 250.600923 
L 326.721376 249.62447 
L 327.940049 247.147282 
L 329.768059 244.563549 
L 330.377396 244.80535 
L 330.986732 244.299337 
L 331.596069 243.467527 
L 332.205405 243.452509 
L 332.814742 243.718954 
L 333.424079 243.257967 
L 334.033415 243.459486 
L 334.642752 243.196677 
L 335.252088 243.094195 
L 335.861425 244.520308 
L 336.470762 244.427515 
L 337.689435 243.357649 
L 338.298771 243.191494 
L 338.908108 243.577497 
L 340.736118 243.877338 
L 341.345455 244.376399 
L 341.954791 244.13569 
L 342.564128 244.281046 
L 343.173464 243.361507 
L 343.782801 244.31249 
L 344.392138 244.398738 
L 345.001474 244.05963 
L 345.610811 243.896962 
L 346.220147 243.071169 
L 346.829484 242.514962 
L 347.438821 241.618527 
L 348.048157 241.094667 
L 348.657494 241.215049 
L 349.26683 240.536178 
L 350.485504 240.397399 
L 351.09484 239.234687 
L 352.313514 239.017773 
L 352.92285 239.891903 
L 353.532187 240.397177 
L 354.141523 240.698606 
L 354.75086 240.116323 
L 355.360197 239.917055 
L 355.969533 239.956949 
L 358.40688 237.891269 
L 359.016216 237.96698 
L 359.625553 237.169761 
L 360.234889 238.054008 
L 360.844226 238.276913 
L 361.453563 237.793814 
L 362.062899 237.597867 
L 362.672236 237.153704 
L 363.281572 237.365999 
L 363.890909 237.024687 
L 364.500246 237.006653 
L 365.109582 235.861888 
L 365.718919 236.044631 
L 366.328256 236.42911 
L 366.937592 236.546015 
L 367.546929 236.212639 
L 368.156265 235.400749 
L 369.374939 236.532095 
L 369.984275 235.692626 
L 370.593612 235.461491 
L 371.202948 235.353872 
L 372.421622 235.79517 
L 373.030958 236.725013 
L 373.640295 236.451203 
L 374.858968 235.453577 
L 375.468305 235.942944 
L 376.077641 235.801902 
L 376.686978 235.469107 
L 377.296314 234.940246 
L 377.905651 236.700085 
L 378.514988 237.221769 
L 379.124324 236.332415 
L 379.733661 235.774599 
L 380.342998 236.107123 
L 381.561671 235.685439 
L 382.171007 236.680953 
L 382.780344 236.850525 
L 383.389681 235.570867 
L 383.999017 235.383113 
L 384.608354 234.147678 
L 385.21769 233.644633 
L 385.827027 233.479589 
L 386.436364 233.460829 
L 387.0457 232.277373 
L 387.655037 232.77168 
L 389.483047 231.259932 
L 390.092383 231.048747 
L 390.70172 230.977087 
L 391.311057 230.786061 
L 391.920393 230.99833 
L 392.52973 230.42926 
L 393.139066 230.473661 
L 393.748403 230.014433 
L 394.35774 230.536491 
L 394.967076 230.531956 
L 395.576413 230.053228 
L 397.404423 230.102264 
L 398.013759 229.491794 
L 398.623096 230.243035 
L 399.232432 230.446568 
L 400.451106 230.197793 
L 401.060442 229.175346 
L 401.669779 229.071754 
L 402.279115 228.253615 
L 402.888452 228.434686 
L 403.497789 228.028946 
L 404.107125 228.099221 
L 404.716462 227.751194 
L 405.325799 227.996705 
L 405.935135 227.895284 
L 407.153808 228.277918 
L 407.763145 228.713133 
L 408.372482 228.46006 
L 408.981818 228.852372 
L 409.591155 228.508094 
L 410.200491 228.296203 
L 410.809828 227.394171 
L 411.419165 227.589189 
L 412.028501 228.052248 
L 413.247174 226.796802 
L 413.856511 226.322942 
L 414.465848 225.385159 
L 415.075184 224.920583 
L 415.684521 225.201479 
L 416.293857 224.727304 
L 417.512531 225.30761 
L 418.121867 225.853338 
L 418.731204 225.68323 
L 419.340541 226.916426 
L 419.949877 227.065521 
L 420.559214 228.249028 
L 422.387224 227.433482 
L 422.99656 228.10735 
L 423.605897 228.152836 
L 424.215233 227.950514 
L 425.433907 228.535996 
L 426.043243 228.570471 
L 427.261916 230.152167 
L 428.48059 229.676937 
L 429.089926 230.006016 
L 430.917936 226.76132 
L 431.527273 227.039302 
L 432.136609 227.069018 
L 432.745946 227.428825 
L 433.355283 227.498737 
L 433.964619 226.353878 
L 435.183292 226.471874 
L 435.792629 226.342907 
L 437.011302 225.200547 
L 437.620639 224.062113 
L 438.229975 223.366099 
L 439.448649 222.891237 
L 440.057985 222.957002 
L 440.667322 222.389702 
L 441.276658 222.828104 
L 442.495332 223.004611 
L 443.104668 222.417991 
L 443.714005 222.470583 
L 444.323342 223.47663 
L 444.932678 223.029709 
L 445.542015 223.444609 
L 446.151351 222.523094 
L 446.760688 222.251536 
L 447.370025 222.151345 
L 447.979361 223.533308 
L 448.588698 225.465347 
L 449.198034 225.068985 
L 449.807371 224.999228 
L 450.416708 223.982604 
L 451.026044 224.809487 
L 451.635381 225.18306 
L 452.244717 224.520355 
L 452.854054 224.120923 
L 453.463391 224.188522 
L 454.072727 223.373721 
L 454.682064 223.324154 
L 455.900737 222.446581 
L 457.11941 222.980445 
L 458.338084 222.934584 
L 458.94742 222.228629 
L 459.556757 220.947325 
L 460.166093 220.280389 
L 460.77543 220.747062 
L 461.384767 220.517062 
L 461.994103 219.860966 
L 462.60344 219.747942 
L 463.212776 220.569688 
L 463.822113 220.382826 
L 464.43145 219.822757 
L 465.040786 219.443165 
L 465.650123 219.842254 
L 466.259459 219.150811 
L 467.478133 217.226112 
L 468.696806 218.071679 
L 469.306143 217.786185 
L 469.915479 218.156888 
L 470.524816 218.379598 
L 471.743489 219.129025 
L 472.352826 218.372614 
L 473.571499 218.382199 
L 474.180835 218.594946 
L 474.790172 219.045348 
L 475.399509 218.070145 
L 476.618182 217.993786 
L 477.227518 216.686885 
L 477.836855 215.725764 
L 478.446192 216.182896 
L 479.055528 216.286169 
L 480.274201 218.852013 
L 480.883538 217.795526 
L 481.492875 219.228326 
L 482.102211 218.346356 
L 483.320885 219.53352 
L 483.930221 218.575986 
L 484.539558 218.07915 
L 485.148894 218.396531 
L 485.758231 217.235809 
L 486.367568 216.833002 
L 486.976904 217.047546 
L 487.586241 216.615982 
L 488.804914 215.423905 
L 489.414251 215.096427 
L 490.023587 213.878313 
L 490.632924 214.107074 
L 491.24226 212.812131 
L 491.851597 211.891824 
L 492.460934 211.35435 
L 493.07027 210.493276 
L 493.679607 211.590288 
L 494.288943 211.326305 
L 494.89828 211.471636 
L 495.507617 211.38879 
L 496.116953 210.962081 
L 496.72629 212.24062 
L 497.944963 210.897188 
L 498.5543 210.519709 
L 499.163636 210.90816 
L 499.772973 210.415727 
L 500.38231 209.535736 
L 500.991646 209.739929 
L 502.210319 209.909063 
L 502.819656 210.424766 
L 503.428993 209.839951 
L 504.038329 209.736126 
L 504.647666 209.20014 
L 505.257002 209.01876 
L 505.866339 208.514597 
L 506.475676 209.374171 
L 507.085012 209.172222 
L 507.694349 209.982864 
L 508.303686 209.961341 
L 508.913022 209.047978 
L 509.522359 208.543416 
L 510.131695 207.689242 
L 510.741032 207.227009 
L 511.350369 207.192718 
L 511.959705 207.730046 
L 512.569042 207.232876 
L 513.178378 206.409032 
L 514.397052 206.349865 
L 515.006388 206.185724 
L 515.615725 206.418418 
L 516.225061 206.17255 
L 516.834398 207.087339 
L 517.443735 208.881243 
L 518.053071 208.300543 
L 518.662408 208.308588 
L 519.271744 208.074015 
L 519.881081 208.94021 
L 520.490418 208.841202 
L 521.099754 209.756804 
L 522.318428 209.714489 
L 522.927764 209.242694 
L 524.146437 208.669839 
L 524.755774 208.279114 
L 525.365111 207.673755 
L 525.974447 207.420299 
L 526.583784 208.207633 
L 527.19312 207.851687 
L 527.802457 208.293108 
L 529.02113 207.599644 
L 529.630467 207.316575 
L 530.239803 206.04131 
L 530.84914 205.727829 
L 531.458477 205.959558 
L 532.067813 205.638093 
L 532.67715 206.111438 
L 533.286486 205.577379 
L 533.895823 205.316633 
L 534.50516 206.476484 
L 535.114496 207.203665 
L 535.723833 206.703393 
L 536.33317 208.166852 
L 537.551843 208.126539 
L 538.161179 206.7804 
L 538.770516 206.162667 
L 539.379853 205.328253 
L 539.989189 205.330584 
L 541.207862 203.526571 
L 541.817199 203.01034 
L 542.426536 202.82815 
L 543.035872 203.155022 
L 543.645209 203.113568 
L 544.254545 202.545345 
L 545.473219 201.716674 
L 546.082555 202.884791 
L 546.691892 203.032525 
L 547.301229 204.508551 
L 547.910565 204.153593 
L 548.519902 204.245183 
L 549.129238 204.529976 
L 549.738575 204.106041 
L 550.957248 204.042113 
L 551.566585 204.953371 
L 552.175921 203.997778 
L 552.785258 204.075668 
L 554.003931 203.684013 
L 554.613268 203.629603 
L 555.831941 202.35111 
L 556.441278 203.64033 
L 557.050614 203.163472 
L 557.659951 203.254345 
L 558.269287 202.919539 
L 558.878624 203.031121 
L 559.487961 202.864334 
L 560.097297 201.597118 
L 560.706634 200.788304 
L 561.315971 200.400314 
L 561.925307 199.675675 
L 562.534644 199.195357 
L 563.14398 199.759167 
L 563.753317 199.888728 
L 564.362654 200.820161 
L 564.97199 199.827191 
L 565.581327 199.320051 
L 566.190663 199.97337 
L 567.409337 199.647365 
L 568.018673 201.186556 
L 569.846683 200.533699 
L 570.45602 200.482214 
L 571.065356 200.251579 
L 571.674693 200.231381 
L 572.284029 199.306351 
L 572.893366 200.174861 
L 573.502703 200.8046 
L 574.112039 200.517207 
L 574.721376 200.097467 
L 575.940049 199.607871 
L 576.549386 198.374944 
L 577.158722 198.732434 
L 579.596069 198.026861 
L 580.205405 198.349408 
L 580.814742 198.471604 
L 581.424079 197.399723 
L 582.033415 197.838435 
L 582.642752 198.988783 
L 583.252088 198.713416 
L 583.861425 199.177118 
L 585.080098 198.820475 
L 585.689435 198.150012 
L 586.298771 197.999242 
L 587.517445 198.218809 
L 588.126781 198.603382 
L 588.736118 198.538767 
L 589.345455 198.206615 
L 589.954791 199.168765 
L 590.564128 198.802484 
L 591.173464 198.719697 
L 591.782801 197.78401 
L 592.392138 197.242122 
L 593.001474 198.405408 
L 593.610811 198.167119 
L 594.220147 197.697134 
L 594.829484 198.858496 
L 595.438821 198.799433 
L 596.048157 198.197378 
L 596.657494 197.959903 
L 597.876167 198.848954 
L 598.485504 198.380255 
L 599.09484 197.76913 
L 599.704177 197.453662 
L 600.313514 197.690974 
L 600.92285 197.560353 
L 601.532187 197.799214 
L 602.75086 196.484781 
L 603.360197 197.504236 
L 603.969533 198.052399 
L 604.57887 198.035908 
L 605.188206 197.754053 
L 605.797543 198.841871 
L 606.40688 198.149849 
L 607.016216 196.808592 
L 607.625553 197.045254 
L 608.234889 196.820595 
L 608.844226 195.833597 
L 609.453563 195.426185 
L 610.672236 197.238205 
L 611.281572 197.489545 
L 611.890909 197.584192 
L 612.500246 197.257185 
L 613.109582 197.52759 
L 613.718919 198.188136 
L 614.937592 197.798928 
L 615.546929 197.364661 
L 616.156265 197.91053 
L 616.765602 197.199183 
L 617.374939 197.931349 
L 617.984275 198.201141 
L 618.593612 199.032581 
L 619.812285 197.897 
L 620.421622 196.843759 
L 621.030958 196.850091 
L 621.640295 196.280104 
L 622.249631 196.677334 
L 622.858968 196.636486 
L 623.468305 195.926516 
L 624.077641 195.635422 
L 624.686978 194.657908 
L 625.296314 194.925038 
L 625.905651 194.619642 
L 626.514988 194.689726 
L 627.124324 195.488861 
L 627.733661 194.735576 
L 628.952334 195.26849 
L 629.561671 194.628728 
L 630.780344 194.046524 
L 631.389681 193.418898 
L 631.999017 193.156656 
L 633.21769 192.042496 
L 633.827027 192.336187 
L 634.436364 191.983212 
L 635.0457 192.442362 
L 635.655037 192.322382 
L 636.264373 192.001247 
L 636.87371 191.455128 
L 637.483047 191.344118 
L 638.092383 191.861892 
L 638.70172 191.308762 
L 639.311057 191.449792 
L 640.52973 191.066297 
L 641.139066 190.477136 
L 641.748403 190.405356 
L 642.35774 190.791513 
L 642.967076 189.560697 
L 643.576413 190.915451 
L 644.795086 190.442646 
L 645.404423 189.629075 
L 646.013759 189.946427 
L 646.623096 189.419103 
L 647.232432 189.268176 
L 647.841769 188.07235 
L 648.451106 187.335147 
L 649.669779 186.487124 
L 650.279115 185.384931 
L 650.888452 185.260215 
L 652.107125 186.146628 
L 652.716462 186.425699 
L 653.325799 186.195077 
L 653.935135 185.720578 
L 654.544472 185.507487 
L 655.153808 185.782654 
L 655.763145 185.352531 
L 656.372482 186.419199 
L 656.981818 185.884883 
L 658.200491 186.21531 
L 658.809828 185.78347 
L 659.419165 186.942731 
L 660.028501 186.846396 
L 660.637838 187.358316 
L 661.247174 186.173736 
L 662.465848 186.543974 
L 663.075184 187.754687 
L 663.684521 187.547936 
L 664.293857 187.222974 
L 664.903194 187.899523 
L 665.512531 188.075693 
L 666.121867 187.179166 
L 666.731204 187.016321 
L 667.340541 187.656806 
L 667.949877 187.663625 
L 668.559214 186.869224 
L 669.16855 187.899924 
L 669.777887 187.203176 
L 670.387224 186.736651 
L 670.99656 187.519293 
L 672.215233 186.348273 
L 672.82457 186.537953 
L 674.043243 187.348703 
L 675.261916 188.24836 
L 675.871253 189.174043 
L 676.48059 189.214364 
L 677.089926 189.622719 
L 677.699263 190.301503 
L 678.3086 190.127383 
L 680.136609 189.909619 
L 680.745946 190.251981 
L 681.964619 188.879627 
L 683.183292 189.182914 
L 683.792629 188.000963 
L 684.401966 187.564935 
L 685.011302 187.622773 
L 685.620639 186.983865 
L 686.229975 187.252549 
L 686.839312 188.211677 
L 687.448649 187.748696 
L 688.057985 186.852378 
L 688.667322 187.147419 
L 689.885995 188.107279 
L 690.495332 188.179248 
L 691.714005 187.556049 
L 692.323342 187.644933 
L 692.932678 186.676941 
L 694.151351 186.181787 
L 694.760688 186.811539 
L 695.979361 185.188535 
L 696.588698 186.212381 
L 697.198034 185.826851 
L 697.807371 186.295602 
L 698.416708 185.917659 
L 699.026044 184.969447 
L 699.635381 186.050776 
L 700.244717 185.761473 
L 700.854054 185.147598 
L 701.463391 185.069178 
L 702.072727 185.367497 
L 702.682064 185.361393 
L 703.2914 186.316225 
L 703.900737 186.90613 
L 704.510074 185.57641 
L 705.11941 185.467447 
L 705.728747 184.940033 
L 706.338084 185.506276 
L 706.94742 186.32246 
L 707.556757 186.449379 
L 708.166093 186.810132 
L 708.77543 187.448876 
L 709.384767 187.727751 
L 709.994103 188.452141 
L 710.60344 188.088981 
L 711.212776 187.990821 
L 711.822113 187.719553 
L 712.43145 188.22921 
L 713.040786 188.219395 
L 713.650123 187.893445 
L 714.259459 187.196334 
L 714.868796 187.90009 
L 715.478133 187.810164 
L 716.087469 187.087281 
L 716.696806 186.026785 
L 717.306143 186.431538 
L 717.915479 185.996365 
L 718.524816 187.284553 
L 719.134152 186.810208 
L 719.743489 187.158792 
L 720.352826 187.285641 
L 720.962162 186.080349 
L 721.571499 187.196881 
L 722.180835 187.450441 
L 722.790172 187.261795 
L 723.399509 187.782234 
L 724.008845 187.235473 
L 724.618182 187.481258 
L 725.836855 188.576428 
L 726.446192 189.875076 
L 727.055528 189.031188 
L 728.274201 191.501463 
L 728.883538 191.334492 
L 729.492875 191.381187 
L 730.102211 190.264196 
L 730.711548 190.61108 
L 731.930221 189.443983 
L 732.539558 190.149529 
L 733.148894 190.444613 
L 733.758231 191.082132 
L 734.976904 189.852274 
L 735.586241 189.719085 
L 736.195577 188.872459 
L 736.804914 189.594325 
L 738.023587 188.939134 
L 738.632924 187.782189 
L 739.24226 187.526155 
L 739.851597 186.536615 
L 740.460934 185.767068 
L 741.07027 185.286914 
L 741.679607 184.606565 
L 742.288943 184.423174 
L 742.89828 183.756545 
L 744.116953 183.83303 
L 745.335627 183.33833 
L 745.944963 182.467081 
L 746.5543 182.098025 
L 747.163636 181.53378 
L 747.163636 181.53378 
" style="fill:none;stroke:#2ca02c;stroke-linecap:square;stroke-width:1.5;"/>
   </g>
   <g id="line2d_19">
    <path clip-path="url(#pa26f4b2729)" d="M 138.436364 447.130419 
L 139.0457 447.518466 
L 139.655037 449.055437 
L 140.264373 449.950064 
L 141.483047 452.090447 
L 142.092383 453.004642 
L 142.70172 454.229457 
L 143.311057 455.158321 
L 143.920393 455.697204 
L 144.52973 456.666501 
L 146.35774 457.99464 
L 146.967076 458.706863 
L 147.576413 460.023349 
L 148.185749 460.385144 
L 148.795086 460.404305 
L 149.404423 460.619007 
L 150.013759 460.458688 
L 150.623096 460.434928 
L 151.232432 460.53053 
L 151.841769 460.005036 
L 152.451106 460.049882 
L 153.669779 459.235535 
L 154.279115 459.321337 
L 154.888452 458.427497 
L 155.497789 458.037998 
L 156.107125 457.235138 
L 156.716462 456.651109 
L 157.325799 455.065102 
L 157.935135 454.601071 
L 158.544472 453.828752 
L 159.153808 453.366505 
L 160.981818 449.777501 
L 163.419165 443.440463 
L 164.028501 441.500543 
L 164.637838 439.939833 
L 165.247174 437.488241 
L 166.465848 434.078514 
L 167.684521 430.071389 
L 168.293857 429.157139 
L 168.903194 427.343472 
L 169.512531 426.104571 
L 170.121867 424.293323 
L 170.731204 423.126497 
L 171.340541 422.240479 
L 171.949877 420.770472 
L 173.777887 415.380032 
L 176.215233 409.035024 
L 177.433907 404.773489 
L 178.65258 401.299201 
L 179.261916 399.039129 
L 179.871253 397.263923 
L 180.48059 396.009768 
L 181.089926 394.276131 
L 181.699263 391.875528 
L 182.3086 390.257599 
L 182.917936 388.282314 
L 184.136609 383.577276 
L 184.745946 381.967345 
L 188.401966 370.627308 
L 190.839312 363.359787 
L 192.667322 357.170503 
L 193.276658 356.382919 
L 198.151351 342.152605 
L 198.760688 341.228651 
L 199.370025 339.003858 
L 199.979361 337.217973 
L 201.807371 330.711472 
L 203.635381 325.4889 
L 206.682064 316.464732 
L 207.900737 314.417733 
L 209.11941 311.276518 
L 209.728747 310.102689 
L 212.166093 303.353718 
L 213.384767 301.249779 
L 214.60344 298.630092 
L 215.212776 297.673505 
L 215.822113 296.334469 
L 217.040786 294.684787 
L 218.868796 290.279356 
L 219.478133 289.439739 
L 220.087469 288.032338 
L 220.696806 287.141114 
L 221.915479 284.978252 
L 222.524816 284.179228 
L 226.180835 276.975419 
L 226.790172 276.070615 
L 227.399509 275.442906 
L 228.618182 273.093578 
L 229.227518 272.242981 
L 229.836855 271.111655 
L 230.446192 270.567422 
L 231.664865 268.370886 
L 232.883538 266.841507 
L 234.711548 263.750081 
L 236.539558 261.668537 
L 239.586241 256.992884 
L 240.195577 256.106247 
L 240.804914 255.818081 
L 243.851597 251.59253 
L 244.460934 251.096172 
L 245.07027 250.297466 
L 245.679607 249.82357 
L 248.116953 246.773369 
L 248.72629 246.37065 
L 249.944963 244.923081 
L 250.5543 244.538086 
L 252.38231 242.265262 
L 255.428993 238.572188 
L 256.038329 237.869866 
L 256.647666 237.491367 
L 264.569042 228.584819 
L 265.178378 228.252433 
L 267.615725 225.729937 
L 271.881081 222.156138 
L 272.490418 221.667286 
L 273.099754 221.510481 
L 277.365111 218.194283 
L 279.19312 216.848727 
L 279.802457 216.716142 
L 281.02113 215.831556 
L 281.630467 215.651452 
L 283.458477 214.204497 
L 288.33317 210.98182 
L 293.207862 208.015335 
L 298.691892 204.945178 
L 299.301229 204.928896 
L 304.785258 202.049102 
L 307.831941 200.554306 
L 308.441278 200.612864 
L 313.925307 198.01622 
L 320.018673 195.382871 
L 326.721376 192.743654 
L 334.033415 190.123252 
L 341.954791 187.541373 
L 350.485504 185.013756 
L 359.625553 182.552914 
L 369.374939 180.168653 
L 379.733661 177.868417 
L 393.748403 175.008364 
L 407.153808 172.676831 
L 418.731204 170.671371 
L 427.261916 168.9227 
L 437.620639 167.034202 
L 449.807371 165.049413 
L 463.822113 163.001601 
L 479.664865 160.921171 
L 496.72629 158.905905 
L 515.615725 156.900974 
L 536.33317 154.931788 
L 558.878624 153.018786 
L 583.252088 151.177269 
L 610.062899 149.379305 
L 639.311057 147.644713 
L 671.605897 145.957341 
L 706.94742 144.336773 
L 745.944963 142.7732 
L 747.163636 142.727652 
L 747.163636 142.727652 
" style="fill:none;stroke:#d62728;stroke-linecap:square;stroke-width:1.5;"/>
   </g>
   <g id="line2d_20">
    <path clip-path="url(#pa26f4b2729)" d="M 138.436364 447.130419 
L 139.655037 449.226634 
L 140.264373 450.405583 
L 140.87371 451.208458 
L 141.483047 452.730072 
L 142.092383 453.563748 
L 144.52973 457.887741 
L 145.139066 458.82405 
L 145.748403 460.126613 
L 148.185749 464.030711 
L 149.404423 465.609282 
L 153.060442 470.689427 
L 154.279115 471.892557 
L 157.935135 475.633366 
L 160.981818 478.718623 
L 162.200491 479.738529 
L 162.809828 479.888929 
L 164.028501 480.71725 
L 166.465848 482.267374 
L 167.075184 482.789268 
L 169.512531 484.169205 
L 170.731204 484.883039 
L 171.340541 485.131117 
L 171.949877 485.227729 
L 173.16855 485.605379 
L 173.777887 485.806595 
L 174.387224 485.861473 
L 174.99656 486.155615 
L 176.82457 486.581988 
L 177.433907 486.849734 
L 178.043243 486.86194 
L 178.65258 486.995032 
L 179.871253 487.533883 
L 181.089926 487.903125 
L 181.699263 488.201314 
L 183.527273 488.584603 
L 184.136609 488.485608 
L 185.355283 488.740648 
L 186.573956 489.068996 
L 187.792629 489.479895 
L 188.401966 489.488201 
L 189.620639 489.783569 
L 191.448649 489.57503 
L 192.057985 489.676367 
L 192.667322 489.948134 
L 193.885995 490.068465 
L 194.495332 489.961843 
L 195.714005 490.122965 
L 196.323342 489.884075 
L 198.151351 490.254452 
L 198.760688 490.325047 
L 200.588698 490.24597 
L 201.198034 490.379731 
L 201.807371 490.398478 
L 202.416708 490.557728 
L 204.244717 490.633767 
L 205.463391 490.623974 
L 206.072727 490.55715 
L 207.2914 490.771082 
L 207.900737 490.726599 
L 209.11941 491.018563 
L 209.728747 490.9779 
L 210.338084 491.104061 
L 210.94742 491.116115 
L 212.166093 490.947275 
L 213.384767 490.901806 
L 214.60344 491.102758 
L 215.822113 491.252035 
L 216.43145 491.389816 
L 217.040786 491.39141 
L 217.650123 491.533714 
L 218.259459 491.544499 
L 218.868796 491.670065 
L 219.478133 491.655144 
L 220.696806 491.387197 
L 222.524816 491.495423 
L 223.743489 491.613141 
L 224.962162 491.793147 
L 225.571499 491.860638 
L 226.180835 491.787157 
L 229.227518 492.014992 
L 231.055528 491.903837 
L 234.711548 491.607521 
L 237.148894 491.441597 
L 240.804914 491.34169 
L 242.632924 491.393838 
L 243.851597 491.359258 
L 245.679607 491.409266 
L 246.89828 491.392203 
L 247.507617 491.514761 
L 249.335627 491.365577 
L 257.866339 491.654048 
L 258.475676 491.519007 
L 259.085012 491.537164 
L 259.694349 491.699094 
L 260.303686 491.729369 
L 261.522359 491.562942 
L 262.131695 491.667518 
L 262.741032 491.539405 
L 263.959705 491.745579 
L 264.569042 491.633971 
L 266.397052 491.828064 
L 267.006388 491.795801 
L 269.443735 492.135528 
L 270.053071 491.926387 
L 270.662408 491.997775 
L 271.881081 491.929757 
L 273.099754 492.030703 
L 274.318428 491.984734 
L 274.927764 492.084917 
L 275.537101 491.98064 
L 276.755774 492.020496 
L 277.365111 491.902099 
L 280.411794 492.152927 
L 281.630467 491.981767 
L 282.84914 492.002259 
L 285.286486 492.132149 
L 286.50516 491.842227 
L 287.723833 491.934071 
L 288.33317 492.037178 
L 288.942506 491.864305 
L 290.161179 491.801754 
L 298.691892 473.179711 
L 307.222604 454.30855 
L 313.315971 441.013474 
L 315.753317 436.081637 
L 322.45602 423.100021 
L 326.721376 415.275516 
L 329.768059 410.121697 
L 340.126781 392.068744 
L 343.782801 386.121383 
L 348.657494 378.380741 
L 353.532187 371.030351 
L 359.625553 362.286418 
L 365.109582 354.609969 
L 371.202948 346.501909 
L 376.686978 339.589277 
L 377.296314 339.013751 
L 385.21769 329.55288 
L 387.655037 326.861983 
L 388.264373 326.367609 
L 394.967076 319.178637 
L 397.404423 316.82591 
L 403.497789 310.769963 
L 406.544472 307.950151 
L 410.809828 304.500418 
L 413.247174 302.330363 
L 414.465848 301.305143 
L 417.512531 298.546185 
L 418.731204 297.563788 
L 424.82457 292.308309 
L 438.839312 280.702897 
L 440.667322 279.306092 
L 446.760688 274.67029 
L 453.463391 269.796497 
L 460.77543 264.756099 
L 468.696806 259.584938 
L 469.306143 259.198695 
L 469.915479 259.036893 
L 471.134152 258.256523 
L 471.743489 258.092177 
L 474.790172 256.225955 
L 476.008845 255.977526 
L 476.618182 255.577379 
L 478.446192 255.121573 
L 480.883538 253.567612 
L 482.102211 253.287786 
L 483.320885 252.979676 
L 483.930221 252.773736 
L 484.539558 252.342056 
L 485.148894 252.226001 
L 488.195577 250.190819 
L 490.632924 248.646486 
L 493.07027 247.414145 
L 494.89828 246.838573 
L 495.507617 246.430464 
L 496.116953 246.344106 
L 497.335627 245.619876 
L 498.5543 244.90412 
L 499.163636 244.823649 
L 500.991646 243.887591 
L 502.210319 243.714045 
L 502.819656 243.391227 
L 504.038329 243.194146 
L 505.866339 242.113791 
L 508.913022 240.17592 
L 510.131695 239.489374 
L 511.350369 238.904965 
L 512.569042 238.58899 
L 513.178378 238.197293 
L 515.006388 237.707283 
L 518.662408 235.394818 
L 519.881081 234.756046 
L 522.318428 233.415931 
L 523.537101 232.8131 
L 529.02113 229.802847 
L 529.630467 229.821051 
L 533.286486 227.895738 
L 534.50516 227.380354 
L 540.598526 224.397821 
L 541.817199 223.935938 
L 544.863882 222.527152 
L 545.473219 222.488927 
L 549.129238 220.821304 
L 549.738575 220.788885 
L 550.347912 220.62817 
L 551.566585 220.070038 
L 552.175921 220.033306 
L 555.831941 218.372034 
L 556.441278 218.342745 
L 563.14398 215.420478 
L 569.237346 212.949659 
L 569.846683 212.839793 
L 577.768059 209.796837 
L 586.908108 206.522084 
L 596.048157 203.442258 
L 596.657494 203.495369 
L 606.40688 200.280166 
L 611.281572 198.752036 
L 611.890909 198.715874 
L 617.374939 197.013326 
L 617.984275 197.086192 
L 618.593612 196.892136 
L 619.202948 196.957071 
L 623.468305 195.57547 
L 624.077641 195.641939 
L 625.905651 195.044379 
L 626.514988 195.107 
L 627.124324 194.902498 
L 628.342998 195.006083 
L 628.952334 194.787719 
L 629.561671 194.731331 
L 630.780344 194.294631 
L 631.999017 194.374665 
L 634.436364 193.474103 
L 635.0457 193.514321 
L 636.264373 193.065778 
L 637.483047 193.135402 
L 638.092383 192.901366 
L 638.70172 192.928726 
L 639.311057 192.691264 
L 639.920393 192.715204 
L 640.52973 192.474639 
L 641.139066 192.495472 
L 642.35774 192.012358 
L 643.576413 192.049096 
L 644.185749 191.800559 
L 644.795086 191.813354 
L 646.013759 191.316242 
L 648.451106 191.33881 
L 650.888452 190.306235 
L 651.497789 190.315707 
L 652.107125 190.062705 
L 655.763145 190.027504 
L 656.372482 190.003876 
L 657.591155 189.443884 
L 658.200491 189.426845 
L 659.419165 188.879349 
L 661.856511 188.731534 
L 664.293857 188.601534 
L 664.903194 188.306166 
L 665.512531 188.270126 
L 666.121867 187.97736 
L 667.949877 187.864823 
L 668.559214 187.567751 
L 669.777887 187.487157 
L 670.387224 187.189755 
L 675.261916 186.783415 
L 681.355283 186.040253 
L 689.276658 184.82825 
L 700.854054 182.801592 
L 747.163636 174.390439 
L 747.163636 174.390439 
" style="fill:none;stroke:#9467bd;stroke-linecap:square;stroke-width:1.5;"/>
   </g>
   <g id="line2d_21">
    <path clip-path="url(#pa26f4b2729)" d="M 138.436364 417.44482 
L 139.655037 422.082363 
L 142.092383 432.02725 
L 143.311057 436.354466 
L 143.920393 438.600873 
L 144.52973 439.182304 
L 145.139066 439.235297 
L 145.748403 439.067314 
L 146.35774 438.357961 
L 148.795086 433.237877 
L 149.404423 430.862118 
L 150.623096 427.251804 
L 153.060442 416.385443 
L 154.888452 406.376418 
L 162.809828 364.060937 
L 165.247174 351.156137 
L 166.465848 344.605567 
L 169.512531 328.907254 
L 173.777887 308.291572 
L 175.605897 300.051371 
L 177.433907 291.451657 
L 179.261916 284.124423 
L 180.48059 280.141543 
L 183.527273 270.050965 
L 184.745946 266.145749 
L 185.964619 262.329948 
L 187.183292 258.646056 
L 188.401966 255.084468 
L 189.620639 252.159778 
L 191.448649 246.968035 
L 193.276658 242.539278 
L 193.885995 240.831759 
L 194.495332 239.508632 
L 195.714005 236.575684 
L 196.932678 234.106263 
L 198.151351 232.333075 
L 201.198034 226.452794 
L 201.807371 225.826951 
L 202.416708 224.690857 
L 203.026044 223.828852 
L 203.635381 222.755251 
L 204.244717 222.166387 
L 204.854054 221.050973 
L 206.072727 218.320806 
L 210.94742 209.611455 
L 215.212776 202.692888 
L 215.822113 202.122755 
L 217.040786 199.93346 
L 217.650123 199.162037 
L 218.868796 197.062089 
L 219.478133 196.246626 
L 221.915479 192.296491 
L 222.524816 191.689873 
L 223.134152 191.299173 
L 226.790172 187.54612 
L 229.836855 183.009833 
L 230.446192 182.471551 
L 231.055528 182.160014 
L 232.274201 180.444143 
L 234.102211 178.537095 
L 235.930221 176.092623 
L 236.539558 175.547238 
L 237.148894 174.777548 
L 237.758231 174.249646 
L 238.976904 172.75752 
L 239.586241 172.375412 
L 240.195577 171.647295 
L 240.804914 171.275259 
L 242.023587 171.699 
L 242.632924 170.946808 
L 243.851597 171.216428 
L 244.460934 170.679002 
L 245.07027 169.918509 
L 247.507617 167.741243 
L 248.116953 167.026255 
L 248.72629 166.66995 
L 250.5543 164.607977 
L 251.772973 163.730409 
L 252.991646 162.41249 
L 253.600983 162.079453 
L 254.819656 160.83973 
L 255.428993 160.471648 
L 256.038329 160.465805 
L 256.647666 160.173603 
L 258.475676 158.382906 
L 259.694349 157.907953 
L 260.303686 157.330595 
L 261.522359 156.818937 
L 265.178378 153.36985 
L 265.787715 152.869653 
L 267.006388 152.542929 
L 270.662408 149.686528 
L 275.537101 146.129803 
L 276.146437 145.911128 
L 277.365111 145.142619 
L 279.19312 144.937961 
L 280.411794 144.667111 
L 281.02113 144.870493 
L 281.630467 144.71574 
L 282.239803 144.306631 
L 282.84914 144.276529 
L 285.286486 142.688797 
L 285.895823 142.636551 
L 288.33317 141.139105 
L 288.942506 141.038894 
L 290.161179 140.323215 
L 291.379853 140.228971 
L 296.254545 137.495342 
L 297.473219 136.834549 
L 298.691892 136.888977 
L 299.910565 137.489213 
L 300.519902 137.144738 
L 302.347912 137.171725 
L 303.566585 137.062916 
L 304.175921 136.701157 
L 304.785258 136.688194 
L 306.003931 135.977644 
L 306.613268 135.98635 
L 307.831941 135.294035 
L 308.441278 135.310518 
L 311.487961 133.630965 
L 316.97199 133.009606 
L 317.581327 132.685628 
L 318.190663 132.611089 
L 318.8 132.292495 
L 319.409337 132.222877 
L 320.018673 132.510288 
L 321.846683 132.243592 
L 322.45602 132.430726 
L 323.674693 132.223476 
L 326.112039 130.906549 
L 329.768059 130.358484 
L 333.424079 128.326441 
L 334.642752 128.31387 
L 336.470762 127.471528 
L 338.908108 126.393966 
L 339.517445 126.690353 
L 340.126781 126.687178 
L 340.736118 126.964258 
L 345.001474 125.214212 
L 346.220147 125.381093 
L 347.438821 124.915056 
L 348.048157 124.975979 
L 349.26683 125.502775 
L 351.704177 126.288831 
L 352.92285 126.611335 
L 353.532187 126.239232 
L 354.141523 126.452697 
L 354.75086 126.415675 
L 355.969533 125.785562 
L 357.797543 125.328892 
L 361.453563 123.627945 
L 363.890909 122.609416 
L 364.500246 122.74402 
L 368.765602 121.088417 
L 370.593612 120.444142 
L 374.249631 120.480247 
L 375.468305 120.452367 
L 376.686978 119.925617 
L 377.905651 119.484431 
L 378.514988 119.630892 
L 380.342998 118.925242 
L 380.952334 119.094543 
L 382.171007 118.663171 
L 382.780344 118.75027 
L 386.436364 117.155704 
L 393.139066 115.289818 
L 396.795086 114.369157 
L 397.404423 114.610333 
L 404.107125 113.114112 
L 404.716462 113.33459 
L 405.325799 113.197434 
L 407.153808 113.794577 
L 410.809828 112.841697 
L 411.419165 113.06081 
L 416.903194 111.719327 
L 424.82457 110.042563 
L 425.433907 109.931621 
L 428.48059 110.77503 
L 429.089926 110.621652 
L 431.527273 111.151028 
L 432.745946 111.311293 
L 437.011302 110.073156 
L 437.620639 110.204753 
L 438.229975 110.036592 
L 440.057985 110.339835 
L 441.276658 109.921538 
L 452.244717 106.938177 
L 454.072727 106.498505 
L 454.682064 106.673467 
L 458.94742 105.673756 
L 459.556757 105.906626 
L 460.166093 105.762054 
L 460.77543 105.985468 
L 462.60344 105.5936 
L 471.743489 104.37672 
L 473.571499 104.154997 
L 476.008845 105.196851 
L 479.055528 106.240848 
L 480.274201 106.589297 
L 480.883538 107.052142 
L 482.711548 107.453917 
L 485.148894 106.599342 
L 485.758231 106.703496 
L 486.976904 107.567145 
L 488.195577 107.686331 
L 488.804914 108.1081 
L 492.460934 108.274274 
L 495.507617 106.913777 
L 496.116953 106.921439 
L 496.72629 106.629932 
L 497.944963 106.922395 
L 499.163636 106.976448 
L 501.600983 106.036726 
L 503.428993 106.260605 
L 507.085012 104.983622 
L 511.959705 103.557374 
L 516.834398 102.464009 
L 523.537101 101.028965 
L 529.02113 99.876319 
L 537.551843 99.058157 
L 538.161179 99.315997 
L 539.379853 99.204062 
L 541.207862 99.914183 
L 543.035872 99.661827 
L 543.645209 99.882944 
L 545.473219 99.617803 
L 546.082555 99.834959 
L 551.566585 99.059487 
L 553.394595 99.722745 
L 559.487961 98.770833 
L 566.8 97.876727 
L 569.846683 97.560971 
L 570.45602 97.807077 
L 575.330713 97.279806 
L 575.940049 97.896508 
L 578.986732 99.202311 
L 580.205405 99.655005 
L 584.470762 98.635207 
L 589.954791 97.548931 
L 590.564128 97.759926 
L 596.048157 96.896234 
L 596.657494 96.812207 
L 597.876167 97.385938 
L 603.360197 96.529654 
L 610.062899 95.716572 
L 617.984275 94.974414 
L 618.593612 95.299203 
L 628.342998 94.390685 
L 640.52973 93.593941 
L 656.372482 92.772837 
L 656.981818 93.067526 
L 658.200491 92.986669 
L 660.028501 93.794088 
L 667.340541 93.032866 
L 668.559214 92.925908 
L 669.16855 93.198144 
L 670.99656 92.923149 
L 672.82457 92.718926 
L 678.3086 92.307066 
L 680.136609 93.108715 
L 683.792629 92.691883 
L 684.401966 93.008922 
L 691.104668 92.275765 
L 692.932678 92.109409 
L 693.542015 92.440368 
L 699.635381 91.676972 
L 702.682064 91.291567 
L 708.77543 90.882067 
L 715.478133 90.153368 
L 716.087469 90.41871 
L 716.696806 90.349481 
L 717.306143 90.605005 
L 719.134152 90.481349 
L 723.399509 90.221353 
L 724.618182 90.13409 
L 742.89828 89.570924 
L 745.944963 89.297366 
L 747.163636 89.28 
L 747.163636 89.28 
" style="fill:none;stroke:#8c564b;stroke-linecap:square;stroke-width:1.5;"/>
   </g>
   <g id="patch_3">
    <path d="M 108 512.64 
L 108 69.12 
" style="fill:none;stroke:#000000;stroke-linecap:square;stroke-linejoin:miter;stroke-width:0.8;"/>
   </g>
   <g id="patch_4">
    <path d="M 777.6 512.64 
L 777.6 69.12 
" style="fill:none;stroke:#000000;stroke-linecap:square;stroke-linejoin:miter;stroke-width:0.8;"/>
   </g>
   <g id="patch_5">
    <path d="M 108 512.64 
L 777.6 512.64 
" style="fill:none;stroke:#000000;stroke-linecap:square;stroke-linejoin:miter;stroke-width:0.8;"/>
   </g>
   <g id="patch_6">
    <path d="M 108 69.12 
L 777.6 69.12 
" style="fill:none;stroke:#000000;stroke-linecap:square;stroke-linejoin:miter;stroke-width:0.8;"/>
   </g>
   <g id="text_18">
    <!-- Percent Optimal Action for 50 Ten Arm Gaussian Bandit Environments -->
    <g transform="translate(233.82 63.12)scale(0.12 -0.12)">
     <defs>
      <path d="M 1259 4147 
L 1259 2394 
L 2053 2394 
Q 2494 2394 2734 2622 
Q 2975 2850 2975 3272 
Q 2975 3691 2734 3919 
Q 2494 4147 2053 4147 
L 1259 4147 
z
M 628 4666 
L 2053 4666 
Q 2838 4666 3239 4311 
Q 3641 3956 3641 3272 
Q 3641 2581 3239 2228 
Q 2838 1875 2053 1875 
L 1259 1875 
L 1259 0 
L 628 0 
L 628 4666 
z
" id="DejaVuSans-50" transform="scale(0.015625)"/>
      <path d="M 2375 4863 
L 2375 4384 
L 1825 4384 
Q 1516 4384 1395 4259 
Q 1275 4134 1275 3809 
L 1275 3500 
L 2222 3500 
L 2222 3053 
L 1275 3053 
L 1275 0 
L 697 0 
L 697 3053 
L 147 3053 
L 147 3500 
L 697 3500 
L 697 3744 
Q 697 4328 969 4595 
Q 1241 4863 1831 4863 
L 2375 4863 
z
" id="DejaVuSans-66" transform="scale(0.015625)"/>
      <path d="M 3809 666 
L 3809 1919 
L 2778 1919 
L 2778 2438 
L 4434 2438 
L 4434 434 
Q 4069 175 3628 42 
Q 3188 -91 2688 -91 
Q 1594 -91 976 548 
Q 359 1188 359 2328 
Q 359 3472 976 4111 
Q 1594 4750 2688 4750 
Q 3144 4750 3555 4637 
Q 3966 4525 4313 4306 
L 4313 3634 
Q 3963 3931 3569 4081 
Q 3175 4231 2741 4231 
Q 1884 4231 1454 3753 
Q 1025 3275 1025 2328 
Q 1025 1384 1454 906 
Q 1884 428 2741 428 
Q 3075 428 3337 486 
Q 3600 544 3809 666 
z
" id="DejaVuSans-47" transform="scale(0.015625)"/>
      <path d="M 544 1381 
L 544 3500 
L 1119 3500 
L 1119 1403 
Q 1119 906 1312 657 
Q 1506 409 1894 409 
Q 2359 409 2629 706 
Q 2900 1003 2900 1516 
L 2900 3500 
L 3475 3500 
L 3475 0 
L 2900 0 
L 2900 538 
Q 2691 219 2414 64 
Q 2138 -91 1772 -91 
Q 1169 -91 856 284 
Q 544 659 544 1381 
z
M 1991 3584 
L 1991 3584 
z
" id="DejaVuSans-75" transform="scale(0.015625)"/>
      <path d="M 1259 2228 
L 1259 519 
L 2272 519 
Q 2781 519 3026 730 
Q 3272 941 3272 1375 
Q 3272 1813 3026 2020 
Q 2781 2228 2272 2228 
L 1259 2228 
z
M 1259 4147 
L 1259 2741 
L 2194 2741 
Q 2656 2741 2882 2914 
Q 3109 3088 3109 3444 
Q 3109 3797 2882 3972 
Q 2656 4147 2194 4147 
L 1259 4147 
z
M 628 4666 
L 2241 4666 
Q 2963 4666 3353 4366 
Q 3744 4066 3744 3513 
Q 3744 3084 3544 2831 
Q 3344 2578 2956 2516 
Q 3422 2416 3680 2098 
Q 3938 1781 3938 1306 
Q 3938 681 3513 340 
Q 3088 0 2303 0 
L 628 0 
L 628 4666 
z
" id="DejaVuSans-42" transform="scale(0.015625)"/>
      <path d="M 2906 2969 
L 2906 4863 
L 3481 4863 
L 3481 0 
L 2906 0 
L 2906 525 
Q 2725 213 2448 61 
Q 2172 -91 1784 -91 
Q 1150 -91 751 415 
Q 353 922 353 1747 
Q 353 2572 751 3078 
Q 1150 3584 1784 3584 
Q 2172 3584 2448 3432 
Q 2725 3281 2906 2969 
z
M 947 1747 
Q 947 1113 1208 752 
Q 1469 391 1925 391 
Q 2381 391 2643 752 
Q 2906 1113 2906 1747 
Q 2906 2381 2643 2742 
Q 2381 3103 1925 3103 
Q 1469 3103 1208 2742 
Q 947 2381 947 1747 
z
" id="DejaVuSans-64" transform="scale(0.015625)"/>
      <path d="M 628 4666 
L 3578 4666 
L 3578 4134 
L 1259 4134 
L 1259 2753 
L 3481 2753 
L 3481 2222 
L 1259 2222 
L 1259 531 
L 3634 531 
L 3634 0 
L 628 0 
L 628 4666 
z
" id="DejaVuSans-45" transform="scale(0.015625)"/>
     </defs>
     <use xlink:href="#DejaVuSans-50"/>
     <use x="56.677734" xlink:href="#DejaVuSans-65"/>
     <use x="118.201172" xlink:href="#DejaVuSans-72"/>
     <use x="157.064453" xlink:href="#DejaVuSans-63"/>
     <use x="212.044922" xlink:href="#DejaVuSans-65"/>
     <use x="273.568359" xlink:href="#DejaVuSans-6e"/>
     <use x="336.947266" xlink:href="#DejaVuSans-74"/>
     <use x="376.15625" xlink:href="#DejaVuSans-20"/>
     <use x="407.943359" xlink:href="#DejaVuSans-4f"/>
     <use x="486.654297" xlink:href="#DejaVuSans-70"/>
     <use x="550.130859" xlink:href="#DejaVuSans-74"/>
     <use x="589.339844" xlink:href="#DejaVuSans-69"/>
     <use x="617.123047" xlink:href="#DejaVuSans-6d"/>
     <use x="714.535156" xlink:href="#DejaVuSans-61"/>
     <use x="775.814453" xlink:href="#DejaVuSans-6c"/>
     <use x="803.597656" xlink:href="#DejaVuSans-20"/>
     <use x="835.384766" xlink:href="#DejaVuSans-41"/>
     <use x="902.042969" xlink:href="#DejaVuSans-63"/>
     <use x="957.023438" xlink:href="#DejaVuSans-74"/>
     <use x="996.232422" xlink:href="#DejaVuSans-69"/>
     <use x="1024.015625" xlink:href="#DejaVuSans-6f"/>
     <use x="1085.197266" xlink:href="#DejaVuSans-6e"/>
     <use x="1148.576172" xlink:href="#DejaVuSans-20"/>
     <use x="1180.363281" xlink:href="#DejaVuSans-66"/>
     <use x="1215.568359" xlink:href="#DejaVuSans-6f"/>
     <use x="1276.75" xlink:href="#DejaVuSans-72"/>
     <use x="1317.863281" xlink:href="#DejaVuSans-20"/>
     <use x="1349.650391" xlink:href="#DejaVuSans-35"/>
     <use x="1413.273438" xlink:href="#DejaVuSans-30"/>
     <use x="1476.896484" xlink:href="#DejaVuSans-20"/>
     <use x="1508.683594" xlink:href="#DejaVuSans-54"/>
     <use x="1552.767578" xlink:href="#DejaVuSans-65"/>
     <use x="1614.291016" xlink:href="#DejaVuSans-6e"/>
     <use x="1677.669922" xlink:href="#DejaVuSans-20"/>
     <use x="1709.457031" xlink:href="#DejaVuSans-41"/>
     <use x="1777.865234" xlink:href="#DejaVuSans-72"/>
     <use x="1817.228516" xlink:href="#DejaVuSans-6d"/>
     <use x="1914.640625" xlink:href="#DejaVuSans-20"/>
     <use x="1946.427734" xlink:href="#DejaVuSans-47"/>
     <use x="2023.917969" xlink:href="#DejaVuSans-61"/>
     <use x="2085.197266" xlink:href="#DejaVuSans-75"/>
     <use x="2148.576172" xlink:href="#DejaVuSans-73"/>
     <use x="2200.675781" xlink:href="#DejaVuSans-73"/>
     <use x="2252.775391" xlink:href="#DejaVuSans-69"/>
     <use x="2280.558594" xlink:href="#DejaVuSans-61"/>
     <use x="2341.837891" xlink:href="#DejaVuSans-6e"/>
     <use x="2405.216797" xlink:href="#DejaVuSans-20"/>
     <use x="2437.003906" xlink:href="#DejaVuSans-42"/>
     <use x="2505.607422" xlink:href="#DejaVuSans-61"/>
     <use x="2566.886719" xlink:href="#DejaVuSans-6e"/>
     <use x="2630.265625" xlink:href="#DejaVuSans-64"/>
     <use x="2693.742188" xlink:href="#DejaVuSans-69"/>
     <use x="2721.525391" xlink:href="#DejaVuSans-74"/>
     <use x="2760.734375" xlink:href="#DejaVuSans-20"/>
     <use x="2792.521484" xlink:href="#DejaVuSans-45"/>
     <use x="2855.705078" xlink:href="#DejaVuSans-6e"/>
     <use x="2919.083984" xlink:href="#DejaVuSans-76"/>
     <use x="2978.263672" xlink:href="#DejaVuSans-69"/>
     <use x="3006.046875" xlink:href="#DejaVuSans-72"/>
     <use x="3044.910156" xlink:href="#DejaVuSans-6f"/>
     <use x="3106.091797" xlink:href="#DejaVuSans-6e"/>
     <use x="3169.470703" xlink:href="#DejaVuSans-6d"/>
     <use x="3266.882812" xlink:href="#DejaVuSans-65"/>
     <use x="3328.40625" xlink:href="#DejaVuSans-6e"/>
     <use x="3391.785156" xlink:href="#DejaVuSans-74"/>
     <use x="3430.994141" xlink:href="#DejaVuSans-73"/>
    </g>
   </g>
   <g id="legend_1">
    <g id="patch_7">
     <path d="M 115 165.18875 
L 232.929688 165.18875 
Q 234.929688 165.18875 234.929688 163.18875 
L 234.929688 76.12 
Q 234.929688 74.12 232.929688 74.12 
L 115 74.12 
Q 113 74.12 113 76.12 
L 113 163.18875 
Q 113 165.18875 115 165.18875 
z
" style="fill:#ffffff;opacity:0.8;stroke:#cccccc;stroke-linejoin:miter;"/>
    </g>
    <g id="line2d_22">
     <path d="M 117 82.218438 
L 137 82.218438 
" style="fill:none;stroke:#1f77b4;stroke-linecap:square;stroke-width:1.5;"/>
    </g>
    <g id="line2d_23"/>
    <g id="text_19">
     <!-- Pure Exploitation -->
     <g transform="translate(145 85.718438)scale(0.1 -0.1)">
      <defs>
       <path d="M 3513 3500 
L 2247 1797 
L 3578 0 
L 2900 0 
L 1881 1375 
L 863 0 
L 184 0 
L 1544 1831 
L 300 3500 
L 978 3500 
L 1906 2253 
L 2834 3500 
L 3513 3500 
z
" id="DejaVuSans-78" transform="scale(0.015625)"/>
      </defs>
      <use xlink:href="#DejaVuSans-50"/>
      <use x="58.552734" xlink:href="#DejaVuSans-75"/>
      <use x="121.931641" xlink:href="#DejaVuSans-72"/>
      <use x="160.794922" xlink:href="#DejaVuSans-65"/>
      <use x="222.318359" xlink:href="#DejaVuSans-20"/>
      <use x="254.105469" xlink:href="#DejaVuSans-45"/>
      <use x="317.289062" xlink:href="#DejaVuSans-78"/>
      <use x="376.46875" xlink:href="#DejaVuSans-70"/>
      <use x="439.945312" xlink:href="#DejaVuSans-6c"/>
      <use x="467.728516" xlink:href="#DejaVuSans-6f"/>
      <use x="528.910156" xlink:href="#DejaVuSans-69"/>
      <use x="556.693359" xlink:href="#DejaVuSans-74"/>
      <use x="595.902344" xlink:href="#DejaVuSans-61"/>
      <use x="657.181641" xlink:href="#DejaVuSans-74"/>
      <use x="696.390625" xlink:href="#DejaVuSans-69"/>
      <use x="724.173828" xlink:href="#DejaVuSans-6f"/>
      <use x="785.355469" xlink:href="#DejaVuSans-6e"/>
     </g>
    </g>
    <g id="line2d_24">
     <path d="M 117 96.896563 
L 137 96.896563 
" style="fill:none;stroke:#ff7f0e;stroke-linecap:square;stroke-width:1.5;"/>
    </g>
    <g id="line2d_25"/>
    <g id="text_20">
     <!-- Pure Exploration -->
     <g transform="translate(145 100.396563)scale(0.1 -0.1)">
      <use xlink:href="#DejaVuSans-50"/>
      <use x="58.552734" xlink:href="#DejaVuSans-75"/>
      <use x="121.931641" xlink:href="#DejaVuSans-72"/>
      <use x="160.794922" xlink:href="#DejaVuSans-65"/>
      <use x="222.318359" xlink:href="#DejaVuSans-20"/>
      <use x="254.105469" xlink:href="#DejaVuSans-45"/>
      <use x="317.289062" xlink:href="#DejaVuSans-78"/>
      <use x="376.46875" xlink:href="#DejaVuSans-70"/>
      <use x="439.945312" xlink:href="#DejaVuSans-6c"/>
      <use x="467.728516" xlink:href="#DejaVuSans-6f"/>
      <use x="528.910156" xlink:href="#DejaVuSans-72"/>
      <use x="570.023438" xlink:href="#DejaVuSans-61"/>
      <use x="631.302734" xlink:href="#DejaVuSans-74"/>
      <use x="670.511719" xlink:href="#DejaVuSans-69"/>
      <use x="698.294922" xlink:href="#DejaVuSans-6f"/>
      <use x="759.476562" xlink:href="#DejaVuSans-6e"/>
     </g>
    </g>
    <g id="line2d_26">
     <path d="M 117 111.574688 
L 137 111.574688 
" style="fill:none;stroke:#2ca02c;stroke-linecap:square;stroke-width:1.5;"/>
    </g>
    <g id="line2d_27"/>
    <g id="text_21">
     <!-- Epsilon Greedy -->
     <g transform="translate(145 115.074688)scale(0.1 -0.1)">
      <defs>
       <path d="M 2059 -325 
Q 1816 -950 1584 -1140 
Q 1353 -1331 966 -1331 
L 506 -1331 
L 506 -850 
L 844 -850 
Q 1081 -850 1212 -737 
Q 1344 -625 1503 -206 
L 1606 56 
L 191 3500 
L 800 3500 
L 1894 763 
L 2988 3500 
L 3597 3500 
L 2059 -325 
z
" id="DejaVuSans-79" transform="scale(0.015625)"/>
      </defs>
      <use xlink:href="#DejaVuSans-45"/>
      <use x="63.183594" xlink:href="#DejaVuSans-70"/>
      <use x="126.660156" xlink:href="#DejaVuSans-73"/>
      <use x="178.759766" xlink:href="#DejaVuSans-69"/>
      <use x="206.542969" xlink:href="#DejaVuSans-6c"/>
      <use x="234.326172" xlink:href="#DejaVuSans-6f"/>
      <use x="295.507812" xlink:href="#DejaVuSans-6e"/>
      <use x="358.886719" xlink:href="#DejaVuSans-20"/>
      <use x="390.673828" xlink:href="#DejaVuSans-47"/>
      <use x="468.164062" xlink:href="#DejaVuSans-72"/>
      <use x="507.027344" xlink:href="#DejaVuSans-65"/>
      <use x="568.550781" xlink:href="#DejaVuSans-65"/>
      <use x="630.074219" xlink:href="#DejaVuSans-64"/>
      <use x="693.550781" xlink:href="#DejaVuSans-79"/>
     </g>
    </g>
    <g id="line2d_28">
     <path d="M 117 126.252813 
L 137 126.252813 
" style="fill:none;stroke:#d62728;stroke-linecap:square;stroke-width:1.5;"/>
    </g>
    <g id="line2d_29"/>
    <g id="text_22">
     <!-- Deacying Epsilon -->
     <g transform="translate(145 129.752813)scale(0.1 -0.1)">
      <defs>
       <path d="M 1259 4147 
L 1259 519 
L 2022 519 
Q 2988 519 3436 956 
Q 3884 1394 3884 2338 
Q 3884 3275 3436 3711 
Q 2988 4147 2022 4147 
L 1259 4147 
z
M 628 4666 
L 1925 4666 
Q 3281 4666 3915 4102 
Q 4550 3538 4550 2338 
Q 4550 1131 3912 565 
Q 3275 0 1925 0 
L 628 0 
L 628 4666 
z
" id="DejaVuSans-44" transform="scale(0.015625)"/>
      </defs>
      <use xlink:href="#DejaVuSans-44"/>
      <use x="77.001953" xlink:href="#DejaVuSans-65"/>
      <use x="138.525391" xlink:href="#DejaVuSans-61"/>
      <use x="199.804688" xlink:href="#DejaVuSans-63"/>
      <use x="254.785156" xlink:href="#DejaVuSans-79"/>
      <use x="313.964844" xlink:href="#DejaVuSans-69"/>
      <use x="341.748047" xlink:href="#DejaVuSans-6e"/>
      <use x="405.126953" xlink:href="#DejaVuSans-67"/>
      <use x="468.603516" xlink:href="#DejaVuSans-20"/>
      <use x="500.390625" xlink:href="#DejaVuSans-45"/>
      <use x="563.574219" xlink:href="#DejaVuSans-70"/>
      <use x="627.050781" xlink:href="#DejaVuSans-73"/>
      <use x="679.150391" xlink:href="#DejaVuSans-69"/>
      <use x="706.933594" xlink:href="#DejaVuSans-6c"/>
      <use x="734.716797" xlink:href="#DejaVuSans-6f"/>
      <use x="795.898438" xlink:href="#DejaVuSans-6e"/>
     </g>
    </g>
    <g id="line2d_30">
     <path d="M 117 140.930938 
L 137 140.930938 
" style="fill:none;stroke:#9467bd;stroke-linecap:square;stroke-width:1.5;"/>
    </g>
    <g id="line2d_31"/>
    <g id="text_23">
     <!-- Softmax -->
     <g transform="translate(145 144.430938)scale(0.1 -0.1)">
      <use xlink:href="#DejaVuSans-53"/>
      <use x="63.476562" xlink:href="#DejaVuSans-6f"/>
      <use x="124.658203" xlink:href="#DejaVuSans-66"/>
      <use x="158.113281" xlink:href="#DejaVuSans-74"/>
      <use x="197.322266" xlink:href="#DejaVuSans-6d"/>
      <use x="294.734375" xlink:href="#DejaVuSans-61"/>
      <use x="356.013672" xlink:href="#DejaVuSans-78"/>
     </g>
    </g>
    <g id="line2d_32">
     <path d="M 117 155.609063 
L 137 155.609063 
" style="fill:none;stroke:#8c564b;stroke-linecap:square;stroke-width:1.5;"/>
    </g>
    <g id="line2d_33"/>
    <g id="text_24">
     <!-- UCB -->
     <g transform="translate(145 159.109063)scale(0.1 -0.1)">
      <defs>
       <path d="M 556 4666 
L 1191 4666 
L 1191 1831 
Q 1191 1081 1462 751 
Q 1734 422 2344 422 
Q 2950 422 3222 751 
Q 3494 1081 3494 1831 
L 3494 4666 
L 4128 4666 
L 4128 1753 
Q 4128 841 3676 375 
Q 3225 -91 2344 -91 
Q 1459 -91 1007 375 
Q 556 841 556 1753 
L 556 4666 
z
" id="DejaVuSans-55" transform="scale(0.015625)"/>
       <path d="M 4122 4306 
L 4122 3641 
Q 3803 3938 3442 4084 
Q 3081 4231 2675 4231 
Q 1875 4231 1450 3742 
Q 1025 3253 1025 2328 
Q 1025 1406 1450 917 
Q 1875 428 2675 428 
Q 3081 428 3442 575 
Q 3803 722 4122 1019 
L 4122 359 
Q 3791 134 3420 21 
Q 3050 -91 2638 -91 
Q 1578 -91 968 557 
Q 359 1206 359 2328 
Q 359 3453 968 4101 
Q 1578 4750 2638 4750 
Q 3056 4750 3426 4639 
Q 3797 4528 4122 4306 
z
" id="DejaVuSans-43" transform="scale(0.015625)"/>
      </defs>
      <use xlink:href="#DejaVuSans-55"/>
      <use x="73.193359" xlink:href="#DejaVuSans-43"/>
      <use x="143.017578" xlink:href="#DejaVuSans-42"/>
     </g>
    </g>
   </g>
  </g>
 </g>
 <defs>
  <clipPath id="pa26f4b2729">
   <rect height="443.52" width="669.6" x="108" y="69.12"/>
  </clipPath>
 </defs>
</svg>
