<?xml version="1.0" encoding="utf-8" standalone="no"?>
<!DOCTYPE svg PUBLIC "-//W3C//DTD SVG 1.1//EN"
  "http://www.w3.org/Graphics/SVG/1.1/DTD/svg11.dtd">
<svg height="576pt" version="1.1" viewBox="0 0 864 576" width="864pt" xmlns="http://www.w3.org/2000/svg" xmlns:xlink="http://www.w3.org/1999/xlink">
 <metadata>
  <rdf:RDF xmlns:cc="http://creativecommons.org/ns#" xmlns:dc="http://purl.org/dc/elements/1.1/" xmlns:rdf="http://www.w3.org/1999/02/22-rdf-syntax-ns#">
   <cc:Work>
    <dc:type rdf:resource="http://purl.org/dc/dcmitype/StillImage"/>
    <dc:date>2021-09-10T14:56:14.923215</dc:date>
    <dc:format>image/svg+xml</dc:format>
    <dc:creator>
     <cc:Agent>
      <dc:title>Matplotlib v3.4.3, https://matplotlib.org/</dc:title>
     </cc:Agent>
    </dc:creator>
   </cc:Work>
  </rdf:RDF>
 </metadata>
 <defs>
  <style type="text/css">*{stroke-linecap:butt;stroke-linejoin:round;}</style>
 </defs>
 <g id="figure_1">
  <g id="patch_1">
   <path d="M 0 576 
L 864 576 
L 864 0 
L 0 0 
z
" style="fill:#ffffff;"/>
  </g>
  <g id="axes_1">
   <g id="patch_2">
    <path d="M 108 512.64 
L 777.6 512.64 
L 777.6 69.12 
L 108 69.12 
z
" style="fill:#ffffff;"/>
   </g>
   <g id="matplotlib.axis_1">
    <g id="xtick_1">
     <g id="line2d_1">
      <defs>
       <path d="M 0 0 
L 0 3.5 
" id="m8d6428d1f1" style="stroke:#000000;stroke-width:0.8;"/>
      </defs>
      <g>
       <use style="stroke:#000000;stroke-width:0.8;" x="138.436364" xlink:href="#m8d6428d1f1" y="512.64"/>
      </g>
     </g>
     <g id="text_1">
      <!-- $\mathdefault{10^{0}}$ -->
      <g transform="translate(129.636364 527.238438)scale(0.1 -0.1)">
       <defs>
        <path d="M 794 531 
L 1825 531 
L 1825 4091 
L 703 3866 
L 703 4441 
L 1819 4666 
L 2450 4666 
L 2450 531 
L 3481 531 
L 3481 0 
L 794 0 
L 794 531 
z
" id="DejaVuSans-31" transform="scale(0.015625)"/>
        <path d="M 2034 4250 
Q 1547 4250 1301 3770 
Q 1056 3291 1056 2328 
Q 1056 1369 1301 889 
Q 1547 409 2034 409 
Q 2525 409 2770 889 
Q 3016 1369 3016 2328 
Q 3016 3291 2770 3770 
Q 2525 4250 2034 4250 
z
M 2034 4750 
Q 2819 4750 3233 4129 
Q 3647 3509 3647 2328 
Q 3647 1150 3233 529 
Q 2819 -91 2034 -91 
Q 1250 -91 836 529 
Q 422 1150 422 2328 
Q 422 3509 836 4129 
Q 1250 4750 2034 4750 
z
" id="DejaVuSans-30" transform="scale(0.015625)"/>
       </defs>
       <use transform="translate(0 0.765625)" xlink:href="#DejaVuSans-31"/>
       <use transform="translate(63.623047 0.765625)" xlink:href="#DejaVuSans-30"/>
       <use transform="translate(128.203125 39.046875)scale(0.7)" xlink:href="#DejaVuSans-30"/>
      </g>
     </g>
    </g>
    <g id="xtick_2">
     <g id="line2d_2">
      <g>
       <use style="stroke:#000000;stroke-width:0.8;" x="364.049628" xlink:href="#m8d6428d1f1" y="512.64"/>
      </g>
     </g>
     <g id="text_2">
      <!-- $\mathdefault{10^{1}}$ -->
      <g transform="translate(355.249628 527.238438)scale(0.1 -0.1)">
       <use transform="translate(0 0.684375)" xlink:href="#DejaVuSans-31"/>
       <use transform="translate(63.623047 0.684375)" xlink:href="#DejaVuSans-30"/>
       <use transform="translate(128.203125 38.965625)scale(0.7)" xlink:href="#DejaVuSans-31"/>
      </g>
     </g>
    </g>
    <g id="xtick_3">
     <g id="line2d_3">
      <g>
       <use style="stroke:#000000;stroke-width:0.8;" x="589.662893" xlink:href="#m8d6428d1f1" y="512.64"/>
      </g>
     </g>
     <g id="text_3">
      <!-- $\mathdefault{10^{2}}$ -->
      <g transform="translate(580.862893 527.238438)scale(0.1 -0.1)">
       <defs>
        <path d="M 1228 531 
L 3431 531 
L 3431 0 
L 469 0 
L 469 531 
Q 828 903 1448 1529 
Q 2069 2156 2228 2338 
Q 2531 2678 2651 2914 
Q 2772 3150 2772 3378 
Q 2772 3750 2511 3984 
Q 2250 4219 1831 4219 
Q 1534 4219 1204 4116 
Q 875 4013 500 3803 
L 500 4441 
Q 881 4594 1212 4672 
Q 1544 4750 1819 4750 
Q 2544 4750 2975 4387 
Q 3406 4025 3406 3419 
Q 3406 3131 3298 2873 
Q 3191 2616 2906 2266 
Q 2828 2175 2409 1742 
Q 1991 1309 1228 531 
z
" id="DejaVuSans-32" transform="scale(0.015625)"/>
       </defs>
       <use transform="translate(0 0.765625)" xlink:href="#DejaVuSans-31"/>
       <use transform="translate(63.623047 0.765625)" xlink:href="#DejaVuSans-30"/>
       <use transform="translate(128.203125 39.046875)scale(0.7)" xlink:href="#DejaVuSans-32"/>
      </g>
     </g>
    </g>
    <g id="xtick_4">
     <g id="line2d_4">
      <defs>
       <path d="M 0 0 
L 0 2 
" id="mbd857e4193" style="stroke:#000000;stroke-width:0.6;"/>
      </defs>
      <g>
       <use style="stroke:#000000;stroke-width:0.6;" x="116.572179" xlink:href="#mbd857e4193" y="512.64"/>
      </g>
     </g>
    </g>
    <g id="xtick_5">
     <g id="line2d_5">
      <g>
       <use style="stroke:#000000;stroke-width:0.6;" x="128.112867" xlink:href="#mbd857e4193" y="512.64"/>
      </g>
     </g>
    </g>
    <g id="xtick_6">
     <g id="line2d_6">
      <g>
       <use style="stroke:#000000;stroke-width:0.6;" x="206.352724" xlink:href="#mbd857e4193" y="512.64"/>
      </g>
     </g>
    </g>
    <g id="xtick_7">
     <g id="line2d_7">
      <g>
       <use style="stroke:#000000;stroke-width:0.6;" x="246.081248" xlink:href="#mbd857e4193" y="512.64"/>
      </g>
     </g>
    </g>
    <g id="xtick_8">
     <g id="line2d_8">
      <g>
       <use style="stroke:#000000;stroke-width:0.6;" x="274.269084" xlink:href="#mbd857e4193" y="512.64"/>
      </g>
     </g>
    </g>
    <g id="xtick_9">
     <g id="line2d_9">
      <g>
       <use style="stroke:#000000;stroke-width:0.6;" x="296.133268" xlink:href="#mbd857e4193" y="512.64"/>
      </g>
     </g>
    </g>
    <g id="xtick_10">
     <g id="line2d_10">
      <g>
       <use style="stroke:#000000;stroke-width:0.6;" x="313.997608" xlink:href="#mbd857e4193" y="512.64"/>
      </g>
     </g>
    </g>
    <g id="xtick_11">
     <g id="line2d_11">
      <g>
       <use style="stroke:#000000;stroke-width:0.6;" x="329.101691" xlink:href="#mbd857e4193" y="512.64"/>
      </g>
     </g>
    </g>
    <g id="xtick_12">
     <g id="line2d_12">
      <g>
       <use style="stroke:#000000;stroke-width:0.6;" x="342.185444" xlink:href="#mbd857e4193" y="512.64"/>
      </g>
     </g>
    </g>
    <g id="xtick_13">
     <g id="line2d_13">
      <g>
       <use style="stroke:#000000;stroke-width:0.6;" x="353.726132" xlink:href="#mbd857e4193" y="512.64"/>
      </g>
     </g>
    </g>
    <g id="xtick_14">
     <g id="line2d_14">
      <g>
       <use style="stroke:#000000;stroke-width:0.6;" x="431.965988" xlink:href="#mbd857e4193" y="512.64"/>
      </g>
     </g>
    </g>
    <g id="xtick_15">
     <g id="line2d_15">
      <g>
       <use style="stroke:#000000;stroke-width:0.6;" x="471.694512" xlink:href="#mbd857e4193" y="512.64"/>
      </g>
     </g>
    </g>
    <g id="xtick_16">
     <g id="line2d_16">
      <g>
       <use style="stroke:#000000;stroke-width:0.6;" x="499.882349" xlink:href="#mbd857e4193" y="512.64"/>
      </g>
     </g>
    </g>
    <g id="xtick_17">
     <g id="line2d_17">
      <g>
       <use style="stroke:#000000;stroke-width:0.6;" x="521.746533" xlink:href="#mbd857e4193" y="512.64"/>
      </g>
     </g>
    </g>
    <g id="xtick_18">
     <g id="line2d_18">
      <g>
       <use style="stroke:#000000;stroke-width:0.6;" x="539.610872" xlink:href="#mbd857e4193" y="512.64"/>
      </g>
     </g>
    </g>
    <g id="xtick_19">
     <g id="line2d_19">
      <g>
       <use style="stroke:#000000;stroke-width:0.6;" x="554.714956" xlink:href="#mbd857e4193" y="512.64"/>
      </g>
     </g>
    </g>
    <g id="xtick_20">
     <g id="line2d_20">
      <g>
       <use style="stroke:#000000;stroke-width:0.6;" x="567.798709" xlink:href="#mbd857e4193" y="512.64"/>
      </g>
     </g>
    </g>
    <g id="xtick_21">
     <g id="line2d_21">
      <g>
       <use style="stroke:#000000;stroke-width:0.6;" x="579.339396" xlink:href="#mbd857e4193" y="512.64"/>
      </g>
     </g>
    </g>
    <g id="xtick_22">
     <g id="line2d_22">
      <g>
       <use style="stroke:#000000;stroke-width:0.6;" x="657.579253" xlink:href="#mbd857e4193" y="512.64"/>
      </g>
     </g>
    </g>
    <g id="xtick_23">
     <g id="line2d_23">
      <g>
       <use style="stroke:#000000;stroke-width:0.6;" x="697.307777" xlink:href="#mbd857e4193" y="512.64"/>
      </g>
     </g>
    </g>
    <g id="xtick_24">
     <g id="line2d_24">
      <g>
       <use style="stroke:#000000;stroke-width:0.6;" x="725.495613" xlink:href="#mbd857e4193" y="512.64"/>
      </g>
     </g>
    </g>
    <g id="xtick_25">
     <g id="line2d_25">
      <g>
       <use style="stroke:#000000;stroke-width:0.6;" x="747.359798" xlink:href="#mbd857e4193" y="512.64"/>
      </g>
     </g>
    </g>
    <g id="xtick_26">
     <g id="line2d_26">
      <g>
       <use style="stroke:#000000;stroke-width:0.6;" x="765.224137" xlink:href="#mbd857e4193" y="512.64"/>
      </g>
     </g>
    </g>
    <g id="text_4">
     <!-- Episodes (log scale) -->
     <g transform="translate(392.971875 540.916563)scale(0.1 -0.1)">
      <defs>
       <path d="M 628 4666 
L 3578 4666 
L 3578 4134 
L 1259 4134 
L 1259 2753 
L 3481 2753 
L 3481 2222 
L 1259 2222 
L 1259 531 
L 3634 531 
L 3634 0 
L 628 0 
L 628 4666 
z
" id="DejaVuSans-45" transform="scale(0.015625)"/>
       <path d="M 1159 525 
L 1159 -1331 
L 581 -1331 
L 581 3500 
L 1159 3500 
L 1159 2969 
Q 1341 3281 1617 3432 
Q 1894 3584 2278 3584 
Q 2916 3584 3314 3078 
Q 3713 2572 3713 1747 
Q 3713 922 3314 415 
Q 2916 -91 2278 -91 
Q 1894 -91 1617 61 
Q 1341 213 1159 525 
z
M 3116 1747 
Q 3116 2381 2855 2742 
Q 2594 3103 2138 3103 
Q 1681 3103 1420 2742 
Q 1159 2381 1159 1747 
Q 1159 1113 1420 752 
Q 1681 391 2138 391 
Q 2594 391 2855 752 
Q 3116 1113 3116 1747 
z
" id="DejaVuSans-70" transform="scale(0.015625)"/>
       <path d="M 603 3500 
L 1178 3500 
L 1178 0 
L 603 0 
L 603 3500 
z
M 603 4863 
L 1178 4863 
L 1178 4134 
L 603 4134 
L 603 4863 
z
" id="DejaVuSans-69" transform="scale(0.015625)"/>
       <path d="M 2834 3397 
L 2834 2853 
Q 2591 2978 2328 3040 
Q 2066 3103 1784 3103 
Q 1356 3103 1142 2972 
Q 928 2841 928 2578 
Q 928 2378 1081 2264 
Q 1234 2150 1697 2047 
L 1894 2003 
Q 2506 1872 2764 1633 
Q 3022 1394 3022 966 
Q 3022 478 2636 193 
Q 2250 -91 1575 -91 
Q 1294 -91 989 -36 
Q 684 19 347 128 
L 347 722 
Q 666 556 975 473 
Q 1284 391 1588 391 
Q 1994 391 2212 530 
Q 2431 669 2431 922 
Q 2431 1156 2273 1281 
Q 2116 1406 1581 1522 
L 1381 1569 
Q 847 1681 609 1914 
Q 372 2147 372 2553 
Q 372 3047 722 3315 
Q 1072 3584 1716 3584 
Q 2034 3584 2315 3537 
Q 2597 3491 2834 3397 
z
" id="DejaVuSans-73" transform="scale(0.015625)"/>
       <path d="M 1959 3097 
Q 1497 3097 1228 2736 
Q 959 2375 959 1747 
Q 959 1119 1226 758 
Q 1494 397 1959 397 
Q 2419 397 2687 759 
Q 2956 1122 2956 1747 
Q 2956 2369 2687 2733 
Q 2419 3097 1959 3097 
z
M 1959 3584 
Q 2709 3584 3137 3096 
Q 3566 2609 3566 1747 
Q 3566 888 3137 398 
Q 2709 -91 1959 -91 
Q 1206 -91 779 398 
Q 353 888 353 1747 
Q 353 2609 779 3096 
Q 1206 3584 1959 3584 
z
" id="DejaVuSans-6f" transform="scale(0.015625)"/>
       <path d="M 2906 2969 
L 2906 4863 
L 3481 4863 
L 3481 0 
L 2906 0 
L 2906 525 
Q 2725 213 2448 61 
Q 2172 -91 1784 -91 
Q 1150 -91 751 415 
Q 353 922 353 1747 
Q 353 2572 751 3078 
Q 1150 3584 1784 3584 
Q 2172 3584 2448 3432 
Q 2725 3281 2906 2969 
z
M 947 1747 
Q 947 1113 1208 752 
Q 1469 391 1925 391 
Q 2381 391 2643 752 
Q 2906 1113 2906 1747 
Q 2906 2381 2643 2742 
Q 2381 3103 1925 3103 
Q 1469 3103 1208 2742 
Q 947 2381 947 1747 
z
" id="DejaVuSans-64" transform="scale(0.015625)"/>
       <path d="M 3597 1894 
L 3597 1613 
L 953 1613 
Q 991 1019 1311 708 
Q 1631 397 2203 397 
Q 2534 397 2845 478 
Q 3156 559 3463 722 
L 3463 178 
Q 3153 47 2828 -22 
Q 2503 -91 2169 -91 
Q 1331 -91 842 396 
Q 353 884 353 1716 
Q 353 2575 817 3079 
Q 1281 3584 2069 3584 
Q 2775 3584 3186 3129 
Q 3597 2675 3597 1894 
z
M 3022 2063 
Q 3016 2534 2758 2815 
Q 2500 3097 2075 3097 
Q 1594 3097 1305 2825 
Q 1016 2553 972 2059 
L 3022 2063 
z
" id="DejaVuSans-65" transform="scale(0.015625)"/>
       <path id="DejaVuSans-20" transform="scale(0.015625)"/>
       <path d="M 1984 4856 
Q 1566 4138 1362 3434 
Q 1159 2731 1159 2009 
Q 1159 1288 1364 580 
Q 1569 -128 1984 -844 
L 1484 -844 
Q 1016 -109 783 600 
Q 550 1309 550 2009 
Q 550 2706 781 3412 
Q 1013 4119 1484 4856 
L 1984 4856 
z
" id="DejaVuSans-28" transform="scale(0.015625)"/>
       <path d="M 603 4863 
L 1178 4863 
L 1178 0 
L 603 0 
L 603 4863 
z
" id="DejaVuSans-6c" transform="scale(0.015625)"/>
       <path d="M 2906 1791 
Q 2906 2416 2648 2759 
Q 2391 3103 1925 3103 
Q 1463 3103 1205 2759 
Q 947 2416 947 1791 
Q 947 1169 1205 825 
Q 1463 481 1925 481 
Q 2391 481 2648 825 
Q 2906 1169 2906 1791 
z
M 3481 434 
Q 3481 -459 3084 -895 
Q 2688 -1331 1869 -1331 
Q 1566 -1331 1297 -1286 
Q 1028 -1241 775 -1147 
L 775 -588 
Q 1028 -725 1275 -790 
Q 1522 -856 1778 -856 
Q 2344 -856 2625 -561 
Q 2906 -266 2906 331 
L 2906 616 
Q 2728 306 2450 153 
Q 2172 0 1784 0 
Q 1141 0 747 490 
Q 353 981 353 1791 
Q 353 2603 747 3093 
Q 1141 3584 1784 3584 
Q 2172 3584 2450 3431 
Q 2728 3278 2906 2969 
L 2906 3500 
L 3481 3500 
L 3481 434 
z
" id="DejaVuSans-67" transform="scale(0.015625)"/>
       <path d="M 3122 3366 
L 3122 2828 
Q 2878 2963 2633 3030 
Q 2388 3097 2138 3097 
Q 1578 3097 1268 2742 
Q 959 2388 959 1747 
Q 959 1106 1268 751 
Q 1578 397 2138 397 
Q 2388 397 2633 464 
Q 2878 531 3122 666 
L 3122 134 
Q 2881 22 2623 -34 
Q 2366 -91 2075 -91 
Q 1284 -91 818 406 
Q 353 903 353 1747 
Q 353 2603 823 3093 
Q 1294 3584 2113 3584 
Q 2378 3584 2631 3529 
Q 2884 3475 3122 3366 
z
" id="DejaVuSans-63" transform="scale(0.015625)"/>
       <path d="M 2194 1759 
Q 1497 1759 1228 1600 
Q 959 1441 959 1056 
Q 959 750 1161 570 
Q 1363 391 1709 391 
Q 2188 391 2477 730 
Q 2766 1069 2766 1631 
L 2766 1759 
L 2194 1759 
z
M 3341 1997 
L 3341 0 
L 2766 0 
L 2766 531 
Q 2569 213 2275 61 
Q 1981 -91 1556 -91 
Q 1019 -91 701 211 
Q 384 513 384 1019 
Q 384 1609 779 1909 
Q 1175 2209 1959 2209 
L 2766 2209 
L 2766 2266 
Q 2766 2663 2505 2880 
Q 2244 3097 1772 3097 
Q 1472 3097 1187 3025 
Q 903 2953 641 2809 
L 641 3341 
Q 956 3463 1253 3523 
Q 1550 3584 1831 3584 
Q 2591 3584 2966 3190 
Q 3341 2797 3341 1997 
z
" id="DejaVuSans-61" transform="scale(0.015625)"/>
       <path d="M 513 4856 
L 1013 4856 
Q 1481 4119 1714 3412 
Q 1947 2706 1947 2009 
Q 1947 1309 1714 600 
Q 1481 -109 1013 -844 
L 513 -844 
Q 928 -128 1133 580 
Q 1338 1288 1338 2009 
Q 1338 2731 1133 3434 
Q 928 4138 513 4856 
z
" id="DejaVuSans-29" transform="scale(0.015625)"/>
      </defs>
      <use xlink:href="#DejaVuSans-45"/>
      <use x="63.183594" xlink:href="#DejaVuSans-70"/>
      <use x="126.660156" xlink:href="#DejaVuSans-69"/>
      <use x="154.443359" xlink:href="#DejaVuSans-73"/>
      <use x="206.542969" xlink:href="#DejaVuSans-6f"/>
      <use x="267.724609" xlink:href="#DejaVuSans-64"/>
      <use x="331.201172" xlink:href="#DejaVuSans-65"/>
      <use x="392.724609" xlink:href="#DejaVuSans-73"/>
      <use x="444.824219" xlink:href="#DejaVuSans-20"/>
      <use x="476.611328" xlink:href="#DejaVuSans-28"/>
      <use x="515.625" xlink:href="#DejaVuSans-6c"/>
      <use x="543.408203" xlink:href="#DejaVuSans-6f"/>
      <use x="604.589844" xlink:href="#DejaVuSans-67"/>
      <use x="668.066406" xlink:href="#DejaVuSans-20"/>
      <use x="699.853516" xlink:href="#DejaVuSans-73"/>
      <use x="751.953125" xlink:href="#DejaVuSans-63"/>
      <use x="806.933594" xlink:href="#DejaVuSans-61"/>
      <use x="868.212891" xlink:href="#DejaVuSans-6c"/>
      <use x="895.996094" xlink:href="#DejaVuSans-65"/>
      <use x="957.519531" xlink:href="#DejaVuSans-29"/>
     </g>
    </g>
   </g>
   <g id="matplotlib.axis_2">
    <g id="ytick_1">
     <g id="line2d_27">
      <defs>
       <path d="M 0 0 
L -3.5 0 
" id="mb674d5ac0a" style="stroke:#000000;stroke-width:0.8;"/>
      </defs>
      <g>
       <use style="stroke:#000000;stroke-width:0.8;" x="108" xlink:href="#mb674d5ac0a" y="492.48"/>
      </g>
     </g>
     <g id="text_5">
      <!-- 0.0 -->
      <g transform="translate(85.096875 496.279219)scale(0.1 -0.1)">
       <defs>
        <path d="M 684 794 
L 1344 794 
L 1344 0 
L 684 0 
L 684 794 
z
" id="DejaVuSans-2e" transform="scale(0.015625)"/>
       </defs>
       <use xlink:href="#DejaVuSans-30"/>
       <use x="63.623047" xlink:href="#DejaVuSans-2e"/>
       <use x="95.410156" xlink:href="#DejaVuSans-30"/>
      </g>
     </g>
    </g>
    <g id="ytick_2">
     <g id="line2d_28">
      <g>
       <use style="stroke:#000000;stroke-width:0.8;" x="108" xlink:href="#mb674d5ac0a" y="409.562416"/>
      </g>
     </g>
     <g id="text_6">
      <!-- 0.2 -->
      <g transform="translate(85.096875 413.361635)scale(0.1 -0.1)">
       <use xlink:href="#DejaVuSans-30"/>
       <use x="63.623047" xlink:href="#DejaVuSans-2e"/>
       <use x="95.410156" xlink:href="#DejaVuSans-32"/>
      </g>
     </g>
    </g>
    <g id="ytick_3">
     <g id="line2d_29">
      <g>
       <use style="stroke:#000000;stroke-width:0.8;" x="108" xlink:href="#mb674d5ac0a" y="326.644832"/>
      </g>
     </g>
     <g id="text_7">
      <!-- 0.4 -->
      <g transform="translate(85.096875 330.444051)scale(0.1 -0.1)">
       <defs>
        <path d="M 2419 4116 
L 825 1625 
L 2419 1625 
L 2419 4116 
z
M 2253 4666 
L 3047 4666 
L 3047 1625 
L 3713 1625 
L 3713 1100 
L 3047 1100 
L 3047 0 
L 2419 0 
L 2419 1100 
L 313 1100 
L 313 1709 
L 2253 4666 
z
" id="DejaVuSans-34" transform="scale(0.015625)"/>
       </defs>
       <use xlink:href="#DejaVuSans-30"/>
       <use x="63.623047" xlink:href="#DejaVuSans-2e"/>
       <use x="95.410156" xlink:href="#DejaVuSans-34"/>
      </g>
     </g>
    </g>
    <g id="ytick_4">
     <g id="line2d_30">
      <g>
       <use style="stroke:#000000;stroke-width:0.8;" x="108" xlink:href="#mb674d5ac0a" y="243.727248"/>
      </g>
     </g>
     <g id="text_8">
      <!-- 0.6 -->
      <g transform="translate(85.096875 247.526467)scale(0.1 -0.1)">
       <defs>
        <path d="M 2113 2584 
Q 1688 2584 1439 2293 
Q 1191 2003 1191 1497 
Q 1191 994 1439 701 
Q 1688 409 2113 409 
Q 2538 409 2786 701 
Q 3034 994 3034 1497 
Q 3034 2003 2786 2293 
Q 2538 2584 2113 2584 
z
M 3366 4563 
L 3366 3988 
Q 3128 4100 2886 4159 
Q 2644 4219 2406 4219 
Q 1781 4219 1451 3797 
Q 1122 3375 1075 2522 
Q 1259 2794 1537 2939 
Q 1816 3084 2150 3084 
Q 2853 3084 3261 2657 
Q 3669 2231 3669 1497 
Q 3669 778 3244 343 
Q 2819 -91 2113 -91 
Q 1303 -91 875 529 
Q 447 1150 447 2328 
Q 447 3434 972 4092 
Q 1497 4750 2381 4750 
Q 2619 4750 2861 4703 
Q 3103 4656 3366 4563 
z
" id="DejaVuSans-36" transform="scale(0.015625)"/>
       </defs>
       <use xlink:href="#DejaVuSans-30"/>
       <use x="63.623047" xlink:href="#DejaVuSans-2e"/>
       <use x="95.410156" xlink:href="#DejaVuSans-36"/>
      </g>
     </g>
    </g>
    <g id="ytick_5">
     <g id="line2d_31">
      <g>
       <use style="stroke:#000000;stroke-width:0.8;" x="108" xlink:href="#mb674d5ac0a" y="160.809664"/>
      </g>
     </g>
     <g id="text_9">
      <!-- 0.8 -->
      <g transform="translate(85.096875 164.608883)scale(0.1 -0.1)">
       <defs>
        <path d="M 2034 2216 
Q 1584 2216 1326 1975 
Q 1069 1734 1069 1313 
Q 1069 891 1326 650 
Q 1584 409 2034 409 
Q 2484 409 2743 651 
Q 3003 894 3003 1313 
Q 3003 1734 2745 1975 
Q 2488 2216 2034 2216 
z
M 1403 2484 
Q 997 2584 770 2862 
Q 544 3141 544 3541 
Q 544 4100 942 4425 
Q 1341 4750 2034 4750 
Q 2731 4750 3128 4425 
Q 3525 4100 3525 3541 
Q 3525 3141 3298 2862 
Q 3072 2584 2669 2484 
Q 3125 2378 3379 2068 
Q 3634 1759 3634 1313 
Q 3634 634 3220 271 
Q 2806 -91 2034 -91 
Q 1263 -91 848 271 
Q 434 634 434 1313 
Q 434 1759 690 2068 
Q 947 2378 1403 2484 
z
M 1172 3481 
Q 1172 3119 1398 2916 
Q 1625 2713 2034 2713 
Q 2441 2713 2670 2916 
Q 2900 3119 2900 3481 
Q 2900 3844 2670 4047 
Q 2441 4250 2034 4250 
Q 1625 4250 1398 4047 
Q 1172 3844 1172 3481 
z
" id="DejaVuSans-38" transform="scale(0.015625)"/>
       </defs>
       <use xlink:href="#DejaVuSans-30"/>
       <use x="63.623047" xlink:href="#DejaVuSans-2e"/>
       <use x="95.410156" xlink:href="#DejaVuSans-38"/>
      </g>
     </g>
    </g>
    <g id="ytick_6">
     <g id="line2d_32">
      <g>
       <use style="stroke:#000000;stroke-width:0.8;" x="108" xlink:href="#mb674d5ac0a" y="77.89208"/>
      </g>
     </g>
     <g id="text_10">
      <!-- 1.0 -->
      <g transform="translate(85.096875 81.691299)scale(0.1 -0.1)">
       <use xlink:href="#DejaVuSans-31"/>
       <use x="63.623047" xlink:href="#DejaVuSans-2e"/>
       <use x="95.410156" xlink:href="#DejaVuSans-30"/>
      </g>
     </g>
    </g>
    <g id="text_11">
     <!-- State-Value Function -->
     <g transform="translate(79.017187 342.210469)rotate(-90)scale(0.1 -0.1)">
      <defs>
       <path d="M 3425 4513 
L 3425 3897 
Q 3066 4069 2747 4153 
Q 2428 4238 2131 4238 
Q 1616 4238 1336 4038 
Q 1056 3838 1056 3469 
Q 1056 3159 1242 3001 
Q 1428 2844 1947 2747 
L 2328 2669 
Q 3034 2534 3370 2195 
Q 3706 1856 3706 1288 
Q 3706 609 3251 259 
Q 2797 -91 1919 -91 
Q 1588 -91 1214 -16 
Q 841 59 441 206 
L 441 856 
Q 825 641 1194 531 
Q 1563 422 1919 422 
Q 2459 422 2753 634 
Q 3047 847 3047 1241 
Q 3047 1584 2836 1778 
Q 2625 1972 2144 2069 
L 1759 2144 
Q 1053 2284 737 2584 
Q 422 2884 422 3419 
Q 422 4038 858 4394 
Q 1294 4750 2059 4750 
Q 2388 4750 2728 4690 
Q 3069 4631 3425 4513 
z
" id="DejaVuSans-53" transform="scale(0.015625)"/>
       <path d="M 1172 4494 
L 1172 3500 
L 2356 3500 
L 2356 3053 
L 1172 3053 
L 1172 1153 
Q 1172 725 1289 603 
Q 1406 481 1766 481 
L 2356 481 
L 2356 0 
L 1766 0 
Q 1100 0 847 248 
Q 594 497 594 1153 
L 594 3053 
L 172 3053 
L 172 3500 
L 594 3500 
L 594 4494 
L 1172 4494 
z
" id="DejaVuSans-74" transform="scale(0.015625)"/>
       <path d="M 313 2009 
L 1997 2009 
L 1997 1497 
L 313 1497 
L 313 2009 
z
" id="DejaVuSans-2d" transform="scale(0.015625)"/>
       <path d="M 1831 0 
L 50 4666 
L 709 4666 
L 2188 738 
L 3669 4666 
L 4325 4666 
L 2547 0 
L 1831 0 
z
" id="DejaVuSans-56" transform="scale(0.015625)"/>
       <path d="M 544 1381 
L 544 3500 
L 1119 3500 
L 1119 1403 
Q 1119 906 1312 657 
Q 1506 409 1894 409 
Q 2359 409 2629 706 
Q 2900 1003 2900 1516 
L 2900 3500 
L 3475 3500 
L 3475 0 
L 2900 0 
L 2900 538 
Q 2691 219 2414 64 
Q 2138 -91 1772 -91 
Q 1169 -91 856 284 
Q 544 659 544 1381 
z
M 1991 3584 
L 1991 3584 
z
" id="DejaVuSans-75" transform="scale(0.015625)"/>
       <path d="M 628 4666 
L 3309 4666 
L 3309 4134 
L 1259 4134 
L 1259 2759 
L 3109 2759 
L 3109 2228 
L 1259 2228 
L 1259 0 
L 628 0 
L 628 4666 
z
" id="DejaVuSans-46" transform="scale(0.015625)"/>
       <path d="M 3513 2113 
L 3513 0 
L 2938 0 
L 2938 2094 
Q 2938 2591 2744 2837 
Q 2550 3084 2163 3084 
Q 1697 3084 1428 2787 
Q 1159 2491 1159 1978 
L 1159 0 
L 581 0 
L 581 3500 
L 1159 3500 
L 1159 2956 
Q 1366 3272 1645 3428 
Q 1925 3584 2291 3584 
Q 2894 3584 3203 3211 
Q 3513 2838 3513 2113 
z
" id="DejaVuSans-6e" transform="scale(0.015625)"/>
      </defs>
      <use xlink:href="#DejaVuSans-53"/>
      <use x="63.476562" xlink:href="#DejaVuSans-74"/>
      <use x="102.685547" xlink:href="#DejaVuSans-61"/>
      <use x="163.964844" xlink:href="#DejaVuSans-74"/>
      <use x="203.173828" xlink:href="#DejaVuSans-65"/>
      <use x="264.697266" xlink:href="#DejaVuSans-2d"/>
      <use x="294.90625" xlink:href="#DejaVuSans-56"/>
      <use x="355.564453" xlink:href="#DejaVuSans-61"/>
      <use x="416.84375" xlink:href="#DejaVuSans-6c"/>
      <use x="444.626953" xlink:href="#DejaVuSans-75"/>
      <use x="508.005859" xlink:href="#DejaVuSans-65"/>
      <use x="569.529297" xlink:href="#DejaVuSans-20"/>
      <use x="601.316406" xlink:href="#DejaVuSans-46"/>
      <use x="653.335938" xlink:href="#DejaVuSans-75"/>
      <use x="716.714844" xlink:href="#DejaVuSans-6e"/>
      <use x="780.09375" xlink:href="#DejaVuSans-63"/>
      <use x="835.074219" xlink:href="#DejaVuSans-74"/>
      <use x="874.283203" xlink:href="#DejaVuSans-69"/>
      <use x="902.066406" xlink:href="#DejaVuSans-6f"/>
      <use x="963.248047" xlink:href="#DejaVuSans-6e"/>
     </g>
    </g>
   </g>
   <g id="line2d_33">
    <path clip-path="url(#p87050a1f0d)" d="M -1 492.48 
L 296.133268 492.48 
L 313.997608 489.515957 
L 329.101691 490.844218 
L 342.185444 491.565871 
L 364.049628 491.565871 
L 373.388367 491.95066 
L 381.913968 492.170018 
L 403.778152 492.170018 
L 410.101804 487.738043 
L 416.041962 487.738043 
L 421.642492 455.202505 
L 426.940138 448.965194 
L 436.746575 448.965194 
L 441.304727 464.385667 
L 445.660226 474.186962 
L 449.830328 474.186962 
L 453.830173 471.037215 
L 461.371016 471.037215 
L 464.934412 452.875322 
L 471.694512 452.875322 
L 474.907344 465.066459 
L 478.018164 473.373895 
L 481.033251 447.227462 
L 483.958322 447.227462 
L 486.798596 460.311962 
L 489.558852 430.003902 
L 492.243474 447.511894 
L 494.856498 447.511894 
L 497.401644 439.903703 
L 499.882349 427.95074 
L 502.301795 420.734535 
L 504.662936 425.56373 
L 509.221087 425.56373 
L 511.423036 414.310277 
L 513.576587 405.099453 
L 515.68382 405.099453 
L 517.746688 395.849745 
L 519.767019 418.292957 
L 521.746533 435.256012 
L 523.686846 435.141816 
L 525.58948 418.520856 
L 531.085272 418.520856 
L 532.850772 422.05408 
L 537.964067 422.05408 
L 539.610872 415.29324 
L 541.230456 415.29324 
L 542.823704 429.920677 
L 547.453665 429.920677 
L 548.949611 441.056799 
L 550.423062 438.618001 
L 553.30511 438.618001 
L 554.714956 447.624186 
L 556.104804 455.008009 
L 557.475212 455.008009 
L 558.826717 436.322644 
L 560.159835 430.639928 
L 561.475057 430.639928 
L 562.772859 440.053471 
L 564.053695 440.053471 
L 565.318004 441.128398 
L 566.566207 443.59755 
L 567.798709 430.661364 
L 570.218155 418.176612 
L 571.405837 418.176612 
L 572.579296 428.156478 
L 574.884875 428.156478 
L 576.017634 419.698866 
L 577.137448 428.881164 
L 578.244607 436.780414 
L 579.339396 436.780414 
L 580.422088 415.405211 
L 581.492947 407.653369 
L 583.60018 407.653369 
L 584.637043 398.912731 
L 585.663048 398.912731 
L 586.678421 409.166738 
L 587.683379 402.758691 
L 588.678135 412.288265 
L 589.662893 412.288265 
L 590.637852 385.709272 
L 591.603206 385.709272 
L 593.50584 405.802362 
L 594.44348 405.802362 
L 595.372232 408.345158 
L 596.292263 402.478735 
L 597.203736 410.78228 
L 598.106808 410.78228 
L 599.001632 418.087498 
L 599.888358 418.48096 
L 600.767132 407.753602 
L 601.638094 414.982204 
L 602.501382 414.982204 
L 603.357131 421.390361 
L 604.205471 421.390361 
L 605.046528 427.08752 
L 605.880427 427.08752 
L 607.527233 436.778515 
L 608.340371 415.952579 
L 609.146816 415.952579 
L 609.946679 421.535916 
L 610.740065 422.618598 
L 612.30782 432.07791 
L 613.08239 436.217384 
L 613.850884 435.493403 
L 614.613399 431.373935 
L 615.370025 431.630172 
L 616.865971 431.630172 
L 617.605466 427.891837 
L 618.339422 428.2007 
L 620.508867 428.2007 
L 621.22147 431.909297 
L 621.928929 426.780787 
L 622.631316 430.454515 
L 623.328704 431.066368 
L 624.021164 431.066368 
L 624.708764 423.038337 
L 625.391572 423.038337 
L 626.069655 420.701654 
L 628.736013 420.701654 
L 630.689219 430.369671 
L 631.970055 430.369671 
L 632.604249 433.116125 
L 633.234364 430.81284 
L 633.860453 430.81284 
L 634.482567 430.998154 
L 635.100756 433.551867 
L 636.325554 433.493561 
L 637.535231 428.796425 
L 638.134515 431.242519 
L 640.495656 431.242519 
L 641.077157 426.158802 
L 642.229906 426.056741 
L 643.933994 426.056741 
L 645.053808 430.250787 
L 645.608951 430.250787 
L 646.160967 425.593348 
L 646.709891 425.593348 
L 647.255756 423.546296 
L 648.338448 423.546296 
L 648.87534 420.226618 
L 649.409307 418.57771 
L 649.940379 418.57771 
L 650.468588 416.930056 
L 650.993965 413.121269 
L 652.036343 417.222013 
L 652.553403 417.222013 
L 653.067749 419.116578 
L 653.579408 419.116578 
L 654.08841 420.906544 
L 654.594781 419.559669 
L 655.098549 421.284006 
L 655.59974 421.284006 
L 656.09838 420.432664 
L 657.579253 425.128167 
L 658.554212 425.128167 
L 659.038078 424.214101 
L 659.9987 424.214101 
L 660.475501 425.573111 
L 660.949994 425.573111 
L 661.422201 423.155839 
L 661.892142 423.155839 
L 662.825317 425.704532 
L 663.288592 424.575691 
L 663.749688 425.78725 
L 664.665419 425.799187 
L 665.120096 421.380359 
L 665.572672 421.555671 
L 666.023168 422.72588 
L 667.362358 422.72588 
L 667.804718 422.859727 
L 669.119941 422.859727 
L 670.417743 425.810654 
L 670.846551 425.810654 
L 671.273491 426.722337 
L 671.698579 424.92149 
L 672.121831 424.92149 
L 672.543262 425.802965 
L 673.380725 425.8159 
L 674.62365 428.237273 
L 675.443593 428.237273 
L 675.851005 427.443641 
L 677.063177 427.359568 
L 677.863039 428.749539 
L 679.050721 428.749539 
L 679.443438 427.286883 
L 680.22418 428.604583 
L 680.61223 428.604583 
L 680.99875 426.421931 
L 682.149243 426.421931 
L 682.529759 422.878743 
L 682.908802 422.878743 
L 683.286385 423.585733 
L 683.662518 422.894129 
L 684.037213 422.894129 
L 684.410481 423.600962 
L 684.782332 423.600962 
L 685.152777 422.909871 
L 685.521826 421.536019 
L 685.889491 422.256648 
L 686.255782 422.256648 
L 686.620708 421.566534 
L 687.707402 421.604454 
L 688.425227 421.604454 
L 688.782177 420.252982 
L 689.137831 420.252982 
L 689.492198 419.02164 
L 690.547676 419.02164 
L 690.896991 418.431625 
L 691.245064 417.114584 
L 691.591906 417.114584 
L 691.937524 417.880125 
L 692.281927 417.880125 
L 692.967123 419.387955 
L 693.307932 419.387955 
L 693.64756 417.438174 
L 694.323305 417.438174 
L 694.659438 416.894862 
L 694.994421 417.662634 
L 695.660972 417.763004 
L 695.992555 416.590379 
L 696.323019 417.361243 
L 696.652373 417.495511 
L 697.633843 419.757392 
L 697.958827 418.460158 
L 698.282736 418.460158 
L 698.605579 417.810203 
L 698.927361 414.657804 
L 699.24809 415.448299 
L 699.886415 415.448299 
L 700.520609 417.005282 
L 700.836173 417.005282 
L 701.150724 417.151451 
L 701.776813 417.151451 
L 702.088364 416.499047 
L 702.398927 417.27084 
L 702.708509 417.27084 
L 703.324754 418.790986 
L 703.631429 418.207607 
L 703.937147 418.962045 
L 704.545737 418.962045 
L 705.150569 420.448007 
L 705.451591 420.513115 
L 705.751691 419.845961 
L 706.646516 419.924846 
L 706.942984 417.964179 
L 707.238558 417.964179 
L 707.827043 419.470311 
L 708.412016 419.470311 
L 708.703198 418.934305 
L 708.993517 418.934305 
L 709.282978 419.681361 
L 709.571587 419.681361 
L 709.859348 420.420829 
L 710.432347 420.499522 
L 710.717595 418.074208 
L 711.002015 418.074208 
L 711.56839 419.578116 
L 712.411861 419.800416 
L 712.970168 421.269434 
L 713.525311 421.269434 
L 714.352174 419.539153 
L 714.626251 420.280065 
L 714.899564 419.179929 
L 715.172117 419.2981 
L 715.714958 420.77727 
L 715.985255 420.77727 
L 716.254808 421.505606 
L 716.523622 420.837803 
L 717.059047 420.905953 
L 717.325667 421.632982 
L 717.591563 420.979123 
L 717.856739 421.705408 
L 718.1212 421.705408 
L 718.384948 422.424316 
L 718.910326 422.424316 
L 719.171962 423.135922 
L 719.952703 423.125772 
L 720.211574 423.830252 
L 720.727273 423.822631 
L 720.984109 424.520033 
L 721.240273 424.512994 
L 721.495768 423.815778 
L 722.00477 425.203636 
L 722.258283 425.203636 
L 722.511141 425.88701 
L 722.763349 425.161003 
L 723.5161 425.165151 
L 724.01474 426.525735 
L 724.263112 426.525735 
L 724.510855 425.838964 
L 724.757974 423.260993 
L 725.495613 423.260993 
L 725.984306 424.660065 
L 726.227741 424.660065 
L 726.470573 423.990902 
L 726.954438 424.03719 
L 727.195478 424.732412 
L 727.435926 424.060372 
L 727.675786 424.060372 
L 727.91506 422.733183 
L 728.153751 423.441651 
L 728.391862 423.441651 
L 728.629395 422.221325 
L 729.338561 422.221325 
L 729.808502 423.641411 
L 730.04263 421.902091 
L 730.2762 422.01608 
L 730.509215 422.731832 
L 730.741677 422.828513 
L 730.973588 423.536012 
L 731.435771 423.536012 
L 731.666048 422.321653 
L 732.353648 422.430955 
L 732.58178 423.142493 
L 733.263005 423.329632 
L 733.489032 422.832857 
L 733.714539 421.661671 
L 733.939528 422.381024 
L 734.164001 422.381024 
L 734.387961 422.516005 
L 735.056787 422.516005 
L 735.278718 423.226679 
L 735.500148 423.226679 
L 735.721079 421.587037 
L 736.161451 421.712492 
L 736.599852 423.142862 
L 736.81832 423.142862 
L 737.253798 424.544321 
L 737.68735 424.602389 
L 737.903409 423.356509 
L 738.548742 425.441595 
L 738.762911 424.262026 
L 739.402626 424.262026 
L 739.614939 423.637891 
L 740.249133 425.714489 
L 740.879248 425.766379 
L 741.088389 425.215256 
L 741.297085 425.898512 
L 741.505337 425.898512 
L 741.920518 427.244273 
L 742.333948 427.244273 
L 742.54001 425.292894 
L 743.155609 425.30238 
L 743.563871 423.359331 
L 743.970438 423.359331 
L 744.577144 425.444331 
L 744.778547 423.034258 
L 744.979537 423.034258 
L 745.180115 423.739668 
L 745.380284 423.118406 
L 745.779399 424.520359 
L 746.176895 424.520359 
L 746.37504 425.210673 
L 746.572785 424.660283 
L 746.770131 425.349176 
L 746.967081 425.425267 
L 747.163636 424.923813 
L 747.163636 424.923813 
" style="fill:none;stroke:#1f77b4;stroke-linecap:square;stroke-width:1.5;"/>
   </g>
   <g id="line2d_34">
    <path clip-path="url(#p87050a1f0d)" d="M -1 430.953406 
L 747.163636 430.953406 
L 747.163636 430.953406 
" style="fill:none;stroke:#000000;stroke-dasharray:5.55,2.4;stroke-dashoffset:0;stroke-width:1.5;"/>
   </g>
   <g id="line2d_35">
    <path clip-path="url(#p87050a1f0d)" d="M -1 492.48 
L 274.269084 492.48 
L 296.133268 480.407111 
L 313.997608 474.117601 
L 329.101691 481.031266 
L 342.185444 481.031266 
L 353.726132 472.676905 
L 373.388367 472.676905 
L 381.913968 480.666137 
L 403.778152 480.666137 
L 410.101804 347.746499 
L 416.041962 347.746499 
L 421.642492 354.792354 
L 426.940138 413.475869 
L 441.304727 413.475869 
L 445.660226 410.156675 
L 449.830328 410.156675 
L 453.830173 441.518056 
L 457.67312 441.518056 
L 461.371016 397.571745 
L 464.934412 387.508255 
L 468.37275 387.508255 
L 471.694512 313.181187 
L 474.907344 346.851645 
L 478.018164 346.851645 
L 481.033251 352.438467 
L 486.798596 352.438467 
L 489.558852 282.470396 
L 492.243474 323.989535 
L 494.856498 307.778916 
L 497.401644 331.879227 
L 499.882349 351.367156 
L 502.301795 367.425807 
L 504.662936 373.715679 
L 506.968515 373.715679 
L 509.221087 363.372764 
L 511.423036 362.496696 
L 513.576587 351.843781 
L 515.68382 351.843781 
L 517.746688 345.577676 
L 519.767019 357.478231 
L 521.746533 359.423609 
L 523.686846 336.906477 
L 525.58948 342.022811 
L 531.085272 342.022811 
L 532.850772 357.434756 
L 534.585022 357.434756 
L 536.28911 341.155372 
L 537.964067 341.155372 
L 539.610872 342.113953 
L 541.230456 342.113953 
L 542.823704 356.12822 
L 544.391459 356.12822 
L 545.934524 343.290843 
L 548.949611 343.290843 
L 550.423062 361.125006 
L 551.874682 361.125006 
L 553.30511 342.184015 
L 554.714956 358.398661 
L 556.104804 358.398661 
L 557.475212 345.643497 
L 558.826717 370.94594 
L 560.159835 386.036141 
L 564.053695 386.036141 
L 565.318004 392.941809 
L 566.566207 405.221838 
L 567.798709 384.110388 
L 569.015899 360.320444 
L 570.218155 354.966146 
L 571.405837 354.966146 
L 572.579296 363.555893 
L 573.738867 363.555893 
L 574.884875 350.855021 
L 576.017634 347.232053 
L 577.137448 336.928384 
L 578.244607 336.75302 
L 579.339396 336.75302 
L 580.422088 327.817394 
L 581.492947 336.09022 
L 583.60018 336.09022 
L 584.637043 341.989189 
L 585.663048 341.989189 
L 586.678421 348.329961 
L 587.683379 341.442381 
L 588.678135 341.719103 
L 589.662893 341.719103 
L 590.637852 339.299115 
L 592.559141 339.299115 
L 593.50584 344.998186 
L 594.44348 337.277564 
L 595.372232 337.551396 
L 596.292263 332.269355 
L 599.001632 332.269355 
L 599.888358 346.250367 
L 600.767132 341.438958 
L 601.638094 342.68176 
L 602.501382 337.876176 
L 603.357131 344.31602 
L 605.880427 344.31602 
L 606.70729 342.584296 
L 607.527233 342.584296 
L 608.340371 355.201987 
L 609.946679 355.201987 
L 610.740065 364.179577 
L 612.30782 364.179577 
L 613.08239 361.309774 
L 613.850884 367.731567 
L 614.613399 368.271322 
L 615.370025 372.812932 
L 616.120853 372.812932 
L 616.865971 366.383136 
L 617.605466 362.068266 
L 618.339422 363.478435 
L 620.508867 363.478435 
L 621.22147 367.249676 
L 621.928929 379.84116 
L 622.631316 372.164104 
L 623.328704 375.238386 
L 624.021164 375.238386 
L 624.708764 374.126385 
L 625.391572 374.126385 
L 626.069655 373.265854 
L 628.736013 373.265854 
L 630.042467 377.886847 
L 630.689219 376.670379 
L 631.970055 376.670379 
L 632.604249 379.072371 
L 633.234364 369.788097 
L 633.860453 369.788097 
L 634.482567 366.697503 
L 635.715069 371.937259 
L 636.325554 371.937259 
L 636.93226 365.818364 
L 637.535231 358.228296 
L 638.134515 358.228296 
L 638.730156 355.887469 
L 640.495656 355.887469 
L 641.077157 359.169827 
L 641.655227 355.509357 
L 642.229906 355.509357 
L 642.801235 349.5541 
L 644.495501 349.5541 
L 645.053808 352.078345 
L 645.608951 352.078345 
L 646.160967 355.182405 
L 646.709891 353.415353 
L 647.255756 354.838081 
L 648.338448 354.838081 
L 648.87534 360.302904 
L 649.409307 356.69557 
L 649.940379 356.69557 
L 650.468588 354.940129 
L 650.993965 361.00145 
L 651.516541 361.00145 
L 652.036343 362.429696 
L 653.579408 362.429696 
L 654.594781 361.869504 
L 655.59974 361.869504 
L 656.09838 365.822976 
L 656.594495 365.404672 
L 658.554212 365.404672 
L 659.038078 366.019739 
L 659.519566 366.019739 
L 659.9987 364.55333 
L 660.949994 364.55333 
L 661.422201 356.196322 
L 662.825317 356.144979 
L 663.749688 358.480838 
L 664.665419 356.128499 
L 665.120096 358.366318 
L 666.023168 360.454126 
L 666.471601 359.314214 
L 667.362358 359.314214 
L 667.804718 357.083185 
L 668.683492 357.083185 
L 669.119941 356.094738 
L 669.987049 358.043992 
L 671.273491 358.043992 
L 671.698579 356.17967 
L 672.121831 356.17967 
L 672.543262 357.085399 
L 672.962888 357.085399 
L 673.380725 358.818585 
L 673.796788 358.818585 
L 674.211091 357.923855 
L 674.62365 358.770611 
L 675.034479 358.770611 
L 675.443593 357.954425 
L 675.851005 356.365649 
L 676.256731 356.365649 
L 676.660783 355.681812 
L 677.063177 355.803725 
L 677.463924 356.58456 
L 677.863039 356.58456 
L 678.260535 355.197207 
L 678.656425 355.197207 
L 679.050721 353.86499 
L 679.443438 353.406715 
L 679.834586 353.488932 
L 680.22418 354.251832 
L 680.61223 354.251832 
L 680.99875 354.482986 
L 681.383751 353.806099 
L 682.149243 353.806099 
L 682.529759 353.395493 
L 684.037213 353.434958 
L 684.410481 354.147572 
L 685.152777 352.815237 
L 685.889491 352.921177 
L 686.255782 352.921177 
L 686.620708 352.248616 
L 686.98428 352.998778 
L 688.425227 352.998778 
L 688.782177 352.338384 
L 689.137831 352.338384 
L 689.492198 353.071614 
L 689.845289 350.468723 
L 690.547676 350.468723 
L 690.896991 351.848816 
L 691.245064 351.235689 
L 692.967123 351.235689 
L 693.307932 349.957176 
L 693.64756 350.346558 
L 693.986015 349.727386 
L 694.323305 349.727386 
L 694.659438 351.144729 
L 694.994421 351.198606 
L 695.328263 350.569441 
L 695.660972 350.712261 
L 695.992555 352.779266 
L 696.652373 354.085735 
L 697.307777 354.085735 
L 697.633843 354.752691 
L 697.958827 353.004334 
L 698.282736 352.401242 
L 699.886415 352.606468 
L 700.204025 353.252622 
L 700.836173 353.252622 
L 701.150724 351.446835 
L 701.464269 350.833088 
L 701.776813 350.833088 
L 702.088364 349.668902 
L 702.708509 349.668902 
L 703.017116 350.363223 
L 703.324754 350.453595 
L 703.631429 351.829445 
L 703.937147 352.511239 
L 704.241914 351.891651 
L 704.545737 351.891651 
L 704.84862 352.580401 
L 705.150569 352.052993 
L 705.451591 353.443197 
L 705.751691 352.2223 
L 706.050875 352.2223 
L 706.349148 352.989753 
L 706.646516 352.989753 
L 706.942984 353.190349 
L 707.238558 353.190349 
L 707.533242 353.855872 
L 708.412016 353.855872 
L 708.703198 354.591629 
L 708.993517 353.321663 
L 709.282978 353.321663 
L 709.571587 352.688422 
L 710.146266 354.097656 
L 710.432347 354.097656 
L 710.717595 356.719382 
L 711.002015 356.064737 
L 711.285612 356.702169 
L 711.56839 356.020289 
L 712.13151 356.039366 
L 712.411861 356.710445 
L 712.691412 356.103349 
L 712.970168 356.103349 
L 713.248133 354.863842 
L 713.525311 354.240233 
L 713.801708 356.26392 
L 714.077328 355.610112 
L 714.352174 356.908274 
L 714.626251 357.55187 
L 714.899564 355.510906 
L 715.172117 356.15872 
L 715.443913 355.52458 
L 715.714958 356.187282 
L 715.985255 354.302264 
L 716.254808 354.381252 
L 716.523622 353.769907 
L 716.7917 354.533158 
L 717.059047 354.533158 
L 717.325667 355.214624 
L 717.591563 354.652756 
L 717.856739 352.356011 
L 718.647989 352.356011 
L 718.910326 351.154093 
L 719.171962 350.715417 
L 719.432901 351.450835 
L 719.693147 351.450835 
L 719.952703 352.316404 
L 720.211574 352.316404 
L 720.469763 353.042632 
L 720.984109 353.042632 
L 721.240273 354.494002 
L 721.495768 353.866568 
L 721.7506 354.584066 
L 722.00477 354.672217 
L 722.258283 354.042115 
L 722.511141 354.042115 
L 722.763349 355.48635 
L 723.265825 355.48635 
L 723.5161 356.901333 
L 723.765737 356.294275 
L 724.01474 357.007559 
L 724.263112 357.007559 
L 724.510855 357.757189 
L 724.757974 358.024853 
L 725.495613 358.024853 
L 725.740264 358.694534 
L 725.984306 358.694534 
L 726.227741 357.43229 
L 726.470573 356.79563 
L 726.712804 355.749932 
L 726.954438 357.136643 
L 727.195478 357.219257 
L 727.435926 356.001103 
L 727.675786 356.001103 
L 727.91506 356.124719 
L 728.153751 356.808393 
L 728.391862 356.808393 
L 728.629395 358.837699 
L 729.338561 358.837699 
L 730.04263 360.618388 
L 730.509215 360.564387 
L 730.741677 361.196735 
L 731.435771 361.196735 
L 731.666048 361.775629 
L 731.895784 361.775629 
L 732.124983 361.065442 
L 732.353648 361.623369 
L 732.58178 360.224201 
L 732.809381 360.846007 
L 733.036456 360.846007 
L 733.263005 362.114829 
L 733.489032 362.677096 
L 733.714539 362.482148 
L 733.939528 363.09047 
L 734.164001 363.09047 
L 734.387961 364.297171 
L 734.611411 364.297171 
L 734.834352 362.900689 
L 735.278718 362.900689 
L 735.721079 361.176151 
L 735.941512 361.745799 
L 736.161451 361.745799 
L 736.380897 362.362111 
L 736.599852 362.362111 
L 736.81832 361.697997 
L 737.036301 360.366349 
L 737.470814 360.365581 
L 737.68735 361.01797 
L 737.903409 360.300878 
L 738.118993 360.300878 
L 738.334103 360.955461 
L 738.548742 360.955461 
L 738.762911 362.873908 
L 738.976614 362.873908 
L 739.189851 362.203941 
L 739.402626 360.856848 
L 739.614939 360.831166 
L 739.826793 360.143463 
L 740.249133 361.461695 
L 740.459622 362.767521 
L 740.66966 362.767521 
L 740.879248 362.078658 
L 741.088389 364.001174 
L 741.297085 364.001174 
L 741.505337 361.212378 
L 742.333948 361.212378 
L 742.54001 359.969297 
L 742.74564 359.969297 
L 742.950839 357.698745 
L 743.155609 357.698745 
L 743.359953 356.573047 
L 743.563871 357.997458 
L 743.970438 357.997458 
L 744.173091 358.668406 
L 744.375326 358.715632 
L 744.577144 359.393334 
L 744.778547 363.263671 
L 744.979537 359.970087 
L 745.180115 360.617729 
L 745.380284 360.623489 
L 745.580045 361.26534 
L 746.37504 361.26534 
L 746.572785 363.195719 
L 746.967081 364.436333 
L 747.163636 365.631063 
L 747.163636 365.631063 
" style="fill:none;stroke:#ff7f0e;stroke-linecap:square;stroke-width:1.5;"/>
   </g>
   <g id="line2d_36">
    <path clip-path="url(#p87050a1f0d)" d="M -1 367.811058 
L 747.163636 367.811058 
L 747.163636 367.811058 
" style="fill:none;stroke:#000000;stroke-dasharray:5.55,2.4;stroke-dashoffset:0;stroke-width:1.5;"/>
   </g>
   <g id="line2d_37">
    <path clip-path="url(#p87050a1f0d)" d="M -1 492.48 
L 206.352724 492.48 
L 246.081248 467.918156 
L 274.269084 467.918156 
L 296.133268 459.684484 
L 313.997608 451.079456 
L 329.101691 461.485703 
L 342.185444 461.485703 
L 353.726132 409.661168 
L 364.049628 385.703563 
L 373.388367 385.703563 
L 381.913968 421.827355 
L 389.75676 421.827355 
L 397.018052 268.023185 
L 403.778152 251.04659 
L 410.101804 277.646497 
L 416.041962 277.646497 
L 421.642492 256.705754 
L 426.940138 293.647032 
L 441.304727 293.647032 
L 445.660226 340.680199 
L 453.830173 340.680199 
L 457.67312 305.544874 
L 461.371016 257.065147 
L 464.934412 301.717767 
L 468.37275 268.15615 
L 471.694512 245.028868 
L 474.907344 243.101206 
L 478.018164 243.101206 
L 481.033251 250.262418 
L 483.958322 227.851093 
L 486.798596 227.851093 
L 489.558852 259.188114 
L 492.243474 259.188114 
L 494.856498 253.217754 
L 497.401644 283.457252 
L 499.882349 301.246377 
L 502.301795 311.504217 
L 504.662936 335.582988 
L 506.968515 335.582988 
L 509.221087 324.229354 
L 511.423036 262.477639 
L 513.576587 259.762011 
L 515.68382 259.762011 
L 517.746688 265.248798 
L 519.767019 265.248798 
L 521.746533 299.590955 
L 523.686846 273.346346 
L 525.58948 271.021947 
L 529.287376 271.021947 
L 531.085272 260.713827 
L 532.850772 274.563867 
L 534.585022 274.563867 
L 536.28911 241.25282 
L 537.964067 241.25282 
L 539.610872 285.79192 
L 544.391459 285.79192 
L 545.934524 267.461704 
L 548.949611 267.461704 
L 550.423062 292.822599 
L 551.874682 292.822599 
L 553.30511 280.61127 
L 554.714956 277.541179 
L 556.104804 277.541179 
L 557.475212 264.521377 
L 560.159835 264.521377 
L 561.475057 251.892676 
L 565.318004 251.892676 
L 566.566207 262.138583 
L 567.798709 291.383097 
L 569.015899 279.134802 
L 570.218155 302.113631 
L 571.405837 302.113631 
L 572.579296 298.432672 
L 573.738867 263.69968 
L 574.884875 252.225962 
L 576.017634 244.03283 
L 577.137448 264.593946 
L 578.244607 276.546237 
L 579.339396 268.475603 
L 580.422088 275.752862 
L 581.492947 278.008984 
L 583.60018 278.008984 
L 584.637043 282.389048 
L 586.678421 282.389048 
L 587.683379 272.551392 
L 588.678135 264.6257 
L 589.662893 264.6257 
L 590.637852 268.944168 
L 592.559141 268.944168 
L 593.50584 257.742982 
L 594.44348 258.904539 
L 595.372232 268.405499 
L 596.292263 273.658133 
L 599.001632 273.658133 
L 599.888358 278.958671 
L 600.767132 276.130894 
L 601.638094 282.687533 
L 602.501382 274.78414 
L 603.357131 280.12895 
L 605.880427 280.12895 
L 606.70729 284.837228 
L 607.527233 284.837228 
L 608.340371 294.217389 
L 609.946679 294.217389 
L 610.740065 298.696262 
L 612.30782 298.696262 
L 613.08239 306.707745 
L 613.850884 310.242441 
L 614.613399 305.169186 
L 615.370025 313.067344 
L 616.120853 313.067344 
L 616.865971 314.336281 
L 617.605466 317.059604 
L 618.339422 305.158141 
L 620.508867 305.158141 
L 621.22147 308.597361 
L 621.928929 307.692008 
L 622.631316 314.581594 
L 623.328704 317.81729 
L 624.708764 308.667329 
L 625.391572 308.667329 
L 626.069655 304.894184 
L 626.743078 297.595602 
L 628.736013 297.595602 
L 629.391417 291.849055 
L 630.689219 299.530202 
L 632.604249 299.530202 
L 633.234364 302.292454 
L 633.860453 298.868815 
L 634.482567 298.600212 
L 635.715069 298.600212 
L 636.325554 295.356226 
L 636.93226 294.910736 
L 637.535231 291.779346 
L 638.134515 291.779346 
L 638.730156 286.939032 
L 639.322197 284.628588 
L 640.495656 284.628588 
L 641.077157 289.455571 
L 641.655227 291.489703 
L 642.229906 291.489703 
L 642.801235 289.280754 
L 644.495501 289.280754 
L 645.053808 291.245013 
L 645.608951 289.228998 
L 646.160967 293.104903 
L 646.709891 290.890576 
L 647.255756 298.033687 
L 647.798598 292.121825 
L 648.87534 292.121825 
L 649.409307 293.922836 
L 649.940379 290.188996 
L 650.993965 286.305039 
L 651.516541 286.305039 
L 652.036343 288.279399 
L 653.579408 288.279399 
L 654.08841 290.077798 
L 655.098549 289.988653 
L 655.59974 288.205067 
L 656.09838 288.205067 
L 656.594495 289.946804 
L 659.519566 289.928488 
L 659.9987 286.834723 
L 660.475501 286.834723 
L 660.949994 285.336159 
L 661.422201 280.922042 
L 661.892142 280.922042 
L 662.35984 283.736594 
L 662.825317 283.736594 
L 663.288592 285.296865 
L 663.749688 285.399579 
L 664.208623 284.3724 
L 664.665419 288.188447 
L 665.120096 287.017502 
L 665.572672 287.017502 
L 666.023168 288.234008 
L 666.471601 287.083415 
L 666.917992 284.870739 
L 667.362358 284.870739 
L 667.804718 288.239522 
L 668.24509 288.239522 
L 669.119941 286.044543 
L 671.273491 286.044543 
L 672.121831 284.168299 
L 672.543262 285.125657 
L 672.962888 284.213633 
L 673.796788 284.213633 
L 674.211091 286.031742 
L 674.62365 286.915402 
L 675.034479 286.053026 
L 675.851005 286.065153 
L 676.256731 284.451411 
L 677.063177 287.637946 
L 677.863039 287.637946 
L 678.260535 286.165853 
L 678.656425 286.165853 
L 679.050721 286.872292 
L 679.443438 284.791506 
L 679.834586 284.914367 
L 680.22418 285.625046 
L 680.61223 284.967827 
L 680.99875 285.778267 
L 681.383751 285.113097 
L 682.149243 285.113097 
L 682.529759 284.961005 
L 682.908802 284.331525 
L 684.037213 284.416307 
L 684.410481 283.893792 
L 685.152777 284.225908 
L 685.521826 283.80399 
L 685.889491 284.630877 
L 686.255782 284.630877 
L 686.620708 284.018267 
L 687.346508 284.089265 
L 689.137831 284.130739 
L 689.845289 285.619214 
L 691.937524 285.593293 
L 692.281927 284.888269 
L 693.307932 284.844488 
L 693.64756 288.112977 
L 693.986015 286.634124 
L 694.323305 285.936818 
L 694.659438 287.262491 
L 694.994421 286.53507 
L 695.328263 286.498795 
L 695.660972 287.757105 
L 696.323019 289.079637 
L 697.633843 289.079637 
L 697.958827 291.622868 
L 698.927361 287.133899 
L 699.886415 287.133899 
L 700.204025 287.813158 
L 700.836173 287.813158 
L 701.150724 289.019419 
L 701.776813 287.635268 
L 702.088364 288.244532 
L 702.398927 288.244532 
L 702.708509 287.537856 
L 703.017116 287.537856 
L 703.324754 288.830281 
L 703.631429 288.830281 
L 703.937147 289.484495 
L 704.241914 288.758506 
L 704.545737 288.758506 
L 704.84862 289.414074 
L 705.150569 290.700542 
L 705.751691 290.59377 
L 706.050875 289.842216 
L 706.349148 291.132219 
L 706.646516 290.376072 
L 706.942984 290.825062 
L 707.238558 290.825062 
L 707.533242 289.241362 
L 708.412016 289.241362 
L 708.993517 288.945351 
L 709.282978 288.945351 
L 709.571587 288.199527 
L 709.859348 288.199527 
L 710.146266 288.876106 
L 710.432347 288.876106 
L 710.717595 289.552931 
L 711.002015 288.699861 
L 711.285612 288.699861 
L 711.56839 289.32235 
L 711.850354 290.678434 
L 712.13151 290.678434 
L 712.411861 292.020701 
L 712.691412 291.785876 
L 712.970168 291.785876 
L 713.248133 290.796231 
L 713.525311 290.700715 
L 714.077328 289.137024 
L 714.626251 289.137024 
L 714.899564 288.97062 
L 715.172117 288.97062 
L 715.443913 291.018895 
L 715.714958 291.018895 
L 716.254808 292.193095 
L 716.523622 291.460558 
L 717.059047 291.369878 
L 717.325667 291.369878 
L 717.591563 291.918336 
L 717.856739 293.481544 
L 718.1212 290.55556 
L 718.910326 290.453508 
L 719.171962 291.594613 
L 719.432901 291.594613 
L 719.693147 290.1443 
L 719.952703 290.775304 
L 721.240273 290.706959 
L 721.495768 289.992992 
L 722.763349 289.910279 
L 723.014909 289.206826 
L 723.265825 289.206826 
L 723.5161 288.471405 
L 723.765737 290.556544 
L 724.01474 291.238122 
L 724.263112 291.238122 
L 724.510855 291.920464 
L 724.757974 294.367501 
L 725.004472 293.634091 
L 725.495613 293.634091 
L 725.740264 294.301812 
L 725.984306 294.301812 
L 726.227741 292.757584 
L 726.470573 292.02904 
L 726.712804 293.807281 
L 726.954438 294.450366 
L 727.195478 295.738617 
L 727.435926 293.518473 
L 727.91506 292.017127 
L 728.391862 292.017127 
L 728.629395 292.642244 
L 728.866354 292.642244 
L 729.102742 290.490996 
L 729.808502 290.490996 
L 730.2762 291.92995 
L 731.435771 291.92995 
L 731.666048 289.833107 
L 731.895784 289.833107 
L 732.124983 289.14146 
L 732.809381 293.439021 
L 733.036456 292.720611 
L 733.263005 292.720611 
L 733.489032 291.316831 
L 734.164001 291.357701 
L 734.387961 292.099485 
L 734.611411 292.099485 
L 734.834352 292.848197 
L 735.056787 292.127183 
L 735.278718 292.127183 
L 735.500148 290.700907 
L 735.941512 293.59703 
L 736.161451 293.59703 
L 736.380897 294.302545 
L 736.81832 294.268085 
L 737.036301 293.474279 
L 737.253798 294.160539 
L 737.470814 292.780228 
L 738.118993 292.819028 
L 738.334103 293.517915 
L 738.548742 293.517915 
L 738.762911 294.231623 
L 738.976614 294.231623 
L 739.614939 292.207308 
L 739.826793 292.243964 
L 740.249133 293.64974 
L 740.459622 293.64974 
L 740.879248 292.261684 
L 741.297085 292.297577 
L 741.505337 292.544273 
L 742.333948 292.544273 
L 742.54001 294.556608 
L 742.74564 294.556608 
L 742.950839 295.499595 
L 743.155609 295.499595 
L 743.359953 295.375656 
L 743.563871 296.018667 
L 743.970438 294.6316 
L 744.173091 294.6316 
L 744.375326 293.937056 
L 744.778547 293.937056 
L 745.180115 296.059425 
L 745.380284 295.376244 
L 745.580045 296.0524 
L 746.37504 296.0524 
L 747.163636 298.773989 
L 747.163636 298.773989 
" style="fill:none;stroke:#2ca02c;stroke-linecap:square;stroke-width:1.5;"/>
   </g>
   <g id="line2d_38">
    <path clip-path="url(#p87050a1f0d)" d="M -1 302.150144 
L 747.163636 302.150144 
L 747.163636 302.150144 
" style="fill:none;stroke:#000000;stroke-dasharray:5.55,2.4;stroke-dashoffset:0;stroke-width:1.5;"/>
   </g>
   <g id="line2d_39">
    <path clip-path="url(#p87050a1f0d)" d="M -1 492.48 
L 138.436364 492.48 
L 206.352724 393.031076 
L 246.081248 418.29144 
L 274.269084 418.29144 
L 296.133268 440.258097 
L 313.997608 302.733046 
L 329.101691 369.396257 
L 342.185444 369.396257 
L 353.726132 308.708164 
L 364.049628 265.11072 
L 373.388367 265.11072 
L 381.913968 315.526841 
L 389.75676 208.689236 
L 397.018052 222.386526 
L 403.778152 196.313076 
L 410.101804 169.34188 
L 416.041962 169.34188 
L 421.642492 185.013636 
L 426.940138 212.516158 
L 431.965988 212.516158 
L 436.746575 171.889578 
L 441.304727 171.889578 
L 445.660226 206.379627 
L 449.830328 177.807573 
L 453.830173 177.807573 
L 457.67312 199.739755 
L 461.371016 173.64891 
L 464.934412 193.053087 
L 468.37275 170.673118 
L 471.694512 177.086959 
L 474.907344 199.432902 
L 478.018164 199.432902 
L 481.033251 180.264987 
L 483.958322 200.842021 
L 486.798596 200.842021 
L 489.558852 186.947209 
L 492.243474 186.947209 
L 494.856498 196.171155 
L 497.401644 216.868131 
L 499.882349 241.360824 
L 506.968515 241.360824 
L 509.221087 194.816508 
L 511.423036 203.350862 
L 513.576587 192.279697 
L 515.68382 192.279697 
L 517.746688 188.88565 
L 519.767019 188.88565 
L 521.746533 206.865847 
L 523.686846 237.177514 
L 525.58948 233.440039 
L 527.455872 219.541637 
L 529.287376 219.541637 
L 531.085272 201.85098 
L 532.850772 201.85098 
L 534.585022 189.489529 
L 536.28911 172.015083 
L 537.964067 168.800869 
L 539.610872 183.926985 
L 544.391459 183.926985 
L 545.934524 179.472292 
L 547.453665 169.156223 
L 551.874682 169.156223 
L 553.30511 159.008729 
L 554.714956 194.217464 
L 556.104804 194.217464 
L 557.475212 179.720562 
L 560.159835 179.720562 
L 561.475057 167.560651 
L 562.772859 167.560651 
L 564.053695 149.786845 
L 565.318004 149.786845 
L 566.566207 176.194299 
L 567.798709 191.075812 
L 569.015899 189.566974 
L 571.405837 189.566974 
L 572.579296 205.692921 
L 573.738867 210.353998 
L 574.884875 185.220894 
L 576.017634 176.014263 
L 577.137448 176.014263 
L 578.244607 197.802397 
L 579.339396 199.507022 
L 580.422088 203.086255 
L 581.492947 199.222586 
L 582.552228 193.472469 
L 583.60018 183.011712 
L 584.637043 198.719697 
L 585.663048 188.162026 
L 586.678421 188.162026 
L 587.683379 183.353202 
L 588.678135 199.153294 
L 589.662893 187.499 
L 590.637852 205.053847 
L 591.603206 199.020733 
L 592.559141 199.020733 
L 593.50584 216.176671 
L 594.44348 213.819823 
L 595.372232 220.936616 
L 596.292263 223.546522 
L 597.203736 223.546522 
L 598.106808 218.209845 
L 599.001632 218.209845 
L 599.888358 218.860838 
L 600.767132 224.021847 
L 601.638094 223.283644 
L 602.501382 224.52445 
L 603.357131 225.371595 
L 605.880427 225.371595 
L 606.70729 225.633177 
L 607.527233 225.633177 
L 608.340371 230.594064 
L 609.146816 226.222989 
L 609.946679 226.222989 
L 610.740065 231.24915 
L 613.850884 231.24915 
L 614.613399 223.033809 
L 616.120853 223.033809 
L 616.865971 215.363485 
L 617.605466 205.845421 
L 618.339422 225.908354 
L 619.791042 218.473721 
L 620.508867 215.09834 
L 621.22147 220.40242 
L 621.928929 230.082834 
L 622.631316 234.293749 
L 623.328704 234.293749 
L 624.021164 230.278749 
L 625.391572 230.389586 
L 626.743078 223.490497 
L 628.736013 223.490497 
L 629.391417 226.904623 
L 630.689219 226.932367 
L 631.33173 223.907831 
L 631.970055 218.455333 
L 632.604249 218.455333 
L 633.234364 215.8941 
L 633.860453 216.959718 
L 634.482567 218.279776 
L 635.715069 218.279776 
L 636.325554 213.251911 
L 636.93226 212.653964 
L 637.535231 222.973316 
L 638.134515 222.973316 
L 638.730156 222.171698 
L 640.495656 215.746214 
L 641.077157 218.347516 
L 641.655227 221.572423 
L 642.229906 221.572423 
L 642.801235 226.542184 
L 643.369252 224.235378 
L 645.053808 224.235378 
L 645.608951 221.987033 
L 647.255756 221.956351 
L 647.798598 226.174462 
L 648.338448 223.924114 
L 648.87534 223.924114 
L 649.940379 219.506325 
L 650.468588 212.073402 
L 650.993965 211.451767 
L 651.516541 211.451767 
L 652.036343 213.449603 
L 653.067749 213.449603 
L 653.579408 211.983045 
L 654.08841 211.983045 
L 654.594781 210.553898 
L 655.098549 210.553898 
L 655.59974 209.162664 
L 657.579253 209.162664 
L 658.067946 207.871624 
L 658.554212 207.871624 
L 659.038078 211.277104 
L 659.519566 209.94354 
L 659.9987 205.895369 
L 660.475501 205.895369 
L 660.949994 205.32582 
L 661.422201 209.693778 
L 662.825317 209.693778 
L 663.288592 213.715536 
L 663.749688 215.007987 
L 664.208623 215.417496 
L 664.665419 216.647884 
L 665.120096 214.620123 
L 666.023168 214.620123 
L 666.471601 212.74316 
L 666.917992 213.309764 
L 667.804718 213.309764 
L 668.24509 212.439381 
L 668.683492 210.744695 
L 669.119941 211.384211 
L 670.417743 211.384211 
L 670.846551 210.597853 
L 671.273491 210.597853 
L 671.698579 211.865139 
L 672.121831 210.321023 
L 672.543262 211.311731 
L 672.962888 210.569388 
L 674.211091 210.569388 
L 674.62365 211.5048 
L 675.034479 210.814237 
L 675.443593 211.025966 
L 675.851005 210.34295 
L 676.256731 211.393469 
L 676.660783 213.204031 
L 677.063177 214.035838 
L 677.863039 214.035838 
L 678.260535 214.92668 
L 678.656425 214.92668 
L 679.050721 214.261467 
L 679.834586 218.180515 
L 680.22418 218.180515 
L 680.61223 217.490161 
L 680.99875 217.544661 
L 681.767245 216.185989 
L 682.149243 216.185989 
L 682.529759 220.268164 
L 682.908802 219.536995 
L 684.037213 219.486806 
L 684.410481 220.822368 
L 685.152777 220.560477 
L 685.521826 221.069336 
L 685.889491 222.373458 
L 686.255782 221.612355 
L 686.620708 218.666128 
L 686.98428 219.344735 
L 687.707402 217.913297 
L 688.066972 217.913297 
L 688.425227 215.804261 
L 689.137831 214.428378 
L 689.845289 216.022406 
L 690.197112 214.645581 
L 690.547676 213.972055 
L 690.896991 213.972055 
L 691.591906 212.632491 
L 692.967123 212.728166 
L 693.64756 214.298944 
L 694.323305 214.523004 
L 694.659438 215.269385 
L 694.994421 215.377459 
L 695.328263 214.118669 
L 695.660972 215.629348 
L 697.633843 215.629348 
L 697.958827 214.950761 
L 698.605579 215.13727 
L 698.927361 218.146081 
L 700.520609 218.130799 
L 700.836173 217.394543 
L 701.150724 218.876754 
L 701.464269 218.853285 
L 701.776813 218.104584 
L 702.088364 215.908472 
L 702.398927 215.908472 
L 702.708509 215.192571 
L 703.937147 215.240346 
L 704.241914 214.532453 
L 705.451591 214.532453 
L 706.050875 213.105797 
L 706.349148 213.905847 
L 706.646516 213.185693 
L 706.942984 214.043899 
L 707.238558 211.9112 
L 707.533242 214.407092 
L 708.119966 214.407092 
L 708.412016 212.98374 
L 708.703198 213.163411 
L 708.993517 212.723315 
L 709.282978 212.723315 
L 709.571587 212.046072 
L 710.146266 212.046072 
L 710.432347 211.369104 
L 710.717595 211.369104 
L 711.002015 209.572697 
L 711.285612 209.572697 
L 711.56839 210.389354 
L 712.13151 210.389354 
L 712.411861 211.225405 
L 712.691412 212.88202 
L 712.970168 212.88202 
L 713.248133 213.827397 
L 713.525311 213.134839 
L 713.801708 214.720726 
L 714.077328 213.31922 
L 714.626251 213.31922 
L 714.899564 217.923463 
L 715.172117 217.923463 
L 715.443913 218.665811 
L 715.714958 218.665811 
L 716.254808 217.325193 
L 716.7917 214.724978 
L 717.059047 214.073478 
L 717.325667 214.073478 
L 717.591563 213.421522 
L 717.856739 215.96061 
L 718.1212 217.083411 
L 718.384948 217.083411 
L 718.647989 215.777132 
L 718.910326 215.130208 
L 719.171962 215.908431 
L 719.432901 215.908431 
L 719.693147 216.800091 
L 720.469763 216.800091 
L 720.727273 216.128394 
L 720.984109 216.128394 
L 721.240273 217.670681 
L 721.495768 216.990452 
L 721.7506 216.990452 
L 722.00477 217.745383 
L 722.258283 217.151858 
L 722.763349 217.151858 
L 723.014909 216.576594 
L 723.265825 215.268751 
L 723.5161 216.148104 
L 723.765737 216.148104 
L 724.01474 216.924435 
L 724.510855 216.924435 
L 724.757974 218.645503 
L 725.25035 218.758955 
L 725.495613 218.082941 
L 725.984306 218.082941 
L 726.227741 218.292541 
L 726.470573 217.614228 
L 726.712804 219.176187 
L 727.435926 221.602052 
L 727.91506 219.010709 
L 728.153751 219.010709 
L 728.391862 217.701605 
L 728.629395 218.469533 
L 728.866354 217.813239 
L 729.102742 218.671642 
L 729.338561 217.998549 
L 729.808502 217.998549 
L 730.04263 219.511823 
L 731.435771 219.511823 
L 731.666048 219.007493 
L 731.895784 219.007493 
L 732.124983 218.317637 
L 732.353648 219.0577 
L 732.58178 218.446211 
L 732.809381 219.98851 
L 733.036456 219.29657 
L 733.263005 219.29657 
L 733.489032 220.200427 
L 733.714539 218.842062 
L 733.939528 218.842062 
L 734.164001 218.169562 
L 735.056787 218.442943 
L 735.278718 218.442943 
L 735.500148 217.823643 
L 735.721079 218.736506 
L 736.81832 218.838962 
L 737.036301 222.053204 
L 737.253798 222.053204 
L 737.470814 222.840573 
L 738.118993 222.860553 
L 738.334103 223.591452 
L 738.762911 223.644959 
L 738.976614 222.941342 
L 739.189851 223.029278 
L 739.826793 221.111365 
L 740.038191 221.111365 
L 740.249133 221.86132 
L 740.66966 221.94007 
L 740.879248 221.268537 
L 741.088389 222.003028 
L 742.127451 222.103671 
L 742.54001 220.850022 
L 742.74564 220.850022 
L 742.950839 223.933048 
L 744.173091 223.993403 
L 744.375326 224.710968 
L 744.778547 224.710968 
L 745.180115 226.138618 
L 745.380284 225.387836 
L 746.37504 225.376003 
L 746.572785 226.113866 
L 747.163636 226.101374 
L 747.163636 226.101374 
" style="fill:none;stroke:#d62728;stroke-linecap:square;stroke-width:1.5;"/>
   </g>
   <g id="line2d_40">
    <path clip-path="url(#p87050a1f0d)" d="M -1 231.898597 
L 747.163636 231.898597 
L 747.163636 231.898597 
" style="fill:none;stroke:#000000;stroke-dasharray:5.55,2.4;stroke-dashoffset:0;stroke-width:1.5;"/>
   </g>
   <g id="line2d_41">
    <path clip-path="url(#p87050a1f0d)" d="M -1 285.18604 
L 138.436364 285.18604 
L 206.352724 184.732582 
L 246.081248 184.732582 
L 274.269084 134.553536 
L 296.133268 134.553536 
L 313.997608 108.761688 
L 329.101691 196.53534 
L 342.185444 196.53534 
L 353.726132 145.006525 
L 364.049628 116.310139 
L 381.913968 116.310139 
L 389.75676 130.114309 
L 397.018052 153.049525 
L 403.778152 123.332604 
L 410.101804 105.644583 
L 416.041962 95.009468 
L 421.642492 105.940088 
L 426.940138 105.940088 
L 431.965988 95.684645 
L 436.746575 89.28 
L 441.304727 89.28 
L 445.660226 119.45914 
L 449.830328 105.182757 
L 453.830173 105.182757 
L 457.67312 112.924907 
L 461.371016 118.852372 
L 464.934412 118.852372 
L 468.37275 105.843114 
L 471.694512 113.161301 
L 474.907344 132.417195 
L 478.018164 132.417195 
L 481.033251 142.624203 
L 483.958322 132.068055 
L 486.798596 132.068055 
L 489.558852 116.646611 
L 492.243474 116.646611 
L 494.856498 105.954855 
L 497.401644 131.710622 
L 504.662936 131.710622 
L 506.968515 117.980352 
L 509.221087 125.994502 
L 511.423036 139.912325 
L 513.576587 134.371992 
L 515.68382 120.837011 
L 517.746688 110.705373 
L 521.746533 110.705373 
L 523.686846 157.808233 
L 525.58948 166.474545 
L 527.455872 147.148806 
L 529.287376 132.273893 
L 531.085272 120.775152 
L 532.850772 120.775152 
L 534.585022 125.670639 
L 536.28911 146.783657 
L 537.964067 137.626819 
L 539.610872 137.626819 
L 541.230456 126.128131 
L 542.823704 126.128131 
L 544.391459 117.128985 
L 545.934524 118.681578 
L 547.453665 111.306168 
L 550.423062 111.306168 
L 551.874682 105.541428 
L 553.30511 100.845308 
L 556.104804 100.845308 
L 557.475212 97.125587 
L 560.159835 97.125587 
L 561.475057 94.151611 
L 562.772859 94.151611 
L 564.053695 100.169126 
L 567.798709 100.169126 
L 569.015899 97.033232 
L 570.218155 97.033232 
L 571.405837 94.421792 
L 572.579296 119.397272 
L 573.738867 123.980646 
L 574.884875 140.431537 
L 576.017634 137.179528 
L 578.244607 137.179528 
L 579.339396 129.930103 
L 580.422088 132.572265 
L 581.492947 146.476555 
L 582.552228 138.474915 
L 583.60018 136.817002 
L 584.637043 141.850629 
L 585.663048 140.065574 
L 586.678421 140.065574 
L 587.683379 133.357791 
L 589.662893 133.390262 
L 590.637852 142.017108 
L 591.603206 135.518538 
L 592.559141 135.518538 
L 593.50584 147.05213 
L 594.44348 151.824039 
L 595.372232 162.986027 
L 596.292263 155.011416 
L 597.203736 155.011416 
L 598.106808 153.888415 
L 599.001632 153.888415 
L 599.888358 164.753304 
L 600.767132 157.225689 
L 601.638094 167.978168 
L 602.501382 175.358398 
L 603.357131 179.334083 
L 604.205471 171.076257 
L 605.046528 171.076257 
L 605.880427 163.724378 
L 606.70729 168.371508 
L 608.340371 168.371508 
L 609.146816 161.666142 
L 613.850884 161.666142 
L 614.613399 160.308342 
L 615.370025 160.308342 
L 616.120853 155.002887 
L 616.865971 154.073369 
L 617.605466 155.993403 
L 618.339422 159.057832 
L 619.06792 154.149894 
L 620.508867 152.861629 
L 621.22147 152.861629 
L 621.928929 156.852434 
L 623.328704 156.852434 
L 624.708764 148.588753 
L 625.391572 144.875434 
L 626.069655 153.709017 
L 626.743078 153.511437 
L 628.076195 146.177788 
L 628.736013 142.861031 
L 630.042467 157.288867 
L 630.689219 157.288867 
L 631.33173 153.66641 
L 631.970055 156.258024 
L 632.604249 156.258024 
L 633.860453 149.634278 
L 634.482567 155.360393 
L 635.715069 155.360393 
L 636.325554 159.044034 
L 636.93226 157.921373 
L 637.535231 157.325251 
L 638.134515 157.325251 
L 638.730156 161.290247 
L 640.495656 152.452171 
L 641.077157 152.452171 
L 641.655227 157.119536 
L 642.229906 154.392127 
L 642.801235 154.017728 
L 643.933994 149.060822 
L 645.053808 149.060822 
L 645.608951 146.830393 
L 646.160967 146.830393 
L 646.709891 144.736434 
L 647.255756 144.736434 
L 647.798598 145.052248 
L 648.338448 143.10585 
L 648.87534 143.10585 
L 649.409307 141.274095 
L 649.940379 141.753158 
L 650.468588 145.93557 
L 650.993965 151.133461 
L 651.516541 151.133461 
L 652.036343 152.7732 
L 652.553403 150.858392 
L 653.067749 150.858392 
L 653.579408 149.050038 
L 654.08841 149.050038 
L 654.594781 147.340839 
L 655.098549 147.340839 
L 655.59974 145.724092 
L 657.579253 145.724092 
L 658.554212 142.857175 
L 659.038078 142.857175 
L 659.519566 141.522761 
L 659.9987 146.871848 
L 660.475501 146.871848 
L 660.949994 146.718734 
L 661.422201 153.058059 
L 661.892142 151.630308 
L 663.749688 151.630308 
L 664.208623 152.6229 
L 664.665419 152.6229 
L 665.120096 152.451149 
L 666.023168 152.451149 
L 666.471601 152.26279 
L 666.917992 153.071905 
L 667.362358 151.888368 
L 667.804718 151.888368 
L 669.119941 151.361289 
L 670.417743 151.361289 
L 670.846551 150.340775 
L 671.273491 150.340775 
L 671.698579 149.365443 
L 672.121831 149.262096 
L 672.543262 150.095582 
L 672.962888 149.168128 
L 674.211091 149.168128 
L 674.62365 149.942989 
L 676.256731 146.656284 
L 676.660783 147.411564 
L 677.863039 147.411564 
L 679.050721 145.281629 
L 679.443438 146.759847 
L 680.22418 146.759847 
L 680.61223 146.060308 
L 680.99875 146.845188 
L 681.383751 146.144782 
L 681.767245 146.190228 
L 682.908802 144.130039 
L 683.286385 144.130039 
L 683.662518 144.242837 
L 684.037213 143.568865 
L 684.410481 143.568865 
L 685.521826 143.959699 
L 685.889491 143.959699 
L 686.255782 143.288603 
L 686.620708 144.999348 
L 686.98428 144.999348 
L 687.346508 144.317692 
L 687.707402 144.417618 
L 688.066972 143.741871 
L 688.425227 144.590645 
L 689.137831 143.242518 
L 689.492198 144.724275 
L 689.845289 144.045413 
L 690.896991 144.182366 
L 691.245064 143.509008 
L 692.281927 143.627607 
L 693.64756 143.682786 
L 693.986015 143.745698 
L 694.323305 143.076776 
L 694.659438 143.076776 
L 694.994421 144.578635 
L 695.328263 145.352951 
L 697.633843 145.352951 
L 698.927361 142.65344 
L 699.24809 142.65344 
L 699.886415 141.344468 
L 700.204025 142.144976 
L 700.520609 142.144976 
L 700.836173 141.492314 
L 701.150724 142.29131 
L 701.776813 140.989657 
L 702.088364 141.924364 
L 702.398927 141.924364 
L 702.708509 141.273943 
L 703.017116 141.273943 
L 703.324754 142.045761 
L 703.937147 142.045761 
L 704.545737 140.749071 
L 705.451591 140.749071 
L 706.050875 139.478591 
L 706.349148 139.478591 
L 706.942984 138.233789 
L 707.238558 139.946092 
L 707.533242 140.714807 
L 707.827043 140.714807 
L 708.119966 140.076672 
L 708.412016 140.213176 
L 708.703198 141.735181 
L 708.993517 142.551236 
L 709.282978 142.551236 
L 709.571587 141.894446 
L 710.146266 141.894446 
L 710.432347 141.244329 
L 710.717595 141.244329 
L 711.002015 142.738978 
L 711.850354 142.738978 
L 712.13151 142.080281 
L 712.411861 142.802799 
L 712.970168 142.802799 
L 713.525311 141.490808 
L 713.801708 141.490808 
L 714.352174 141.601961 
L 715.172117 141.601961 
L 715.443913 142.405102 
L 715.714958 142.405102 
L 715.985255 141.749797 
L 716.254808 144.880113 
L 716.523622 144.948761 
L 716.7917 147.133045 
L 717.059047 146.429715 
L 717.325667 146.429715 
L 717.591563 145.73353 
L 717.856739 147.175645 
L 718.1212 147.930259 
L 718.384948 147.930259 
L 718.647989 148.650902 
L 718.910326 147.932154 
L 719.432901 147.932154 
L 719.693147 147.220707 
L 720.469763 147.220707 
L 720.727273 146.516487 
L 720.984109 146.516487 
L 721.240273 147.251656 
L 721.495768 146.547121 
L 722.00477 146.547121 
L 722.258283 147.322394 
L 722.763349 147.322394 
L 723.014909 148.070146 
L 723.265825 148.06726 
L 723.5161 148.771519 
L 723.765737 148.771519 
L 724.01474 149.48398 
L 724.263112 148.75677 
L 724.510855 148.75677 
L 724.757974 149.470576 
L 725.25035 148.023814 
L 726.227741 148.070277 
L 726.470573 147.357427 
L 727.435926 147.409811 
L 727.675786 147.469721 
L 727.91506 149.734313 
L 728.153751 149.734313 
L 728.391862 150.438697 
L 728.629395 150.438697 
L 729.338561 148.250354 
L 730.973588 148.250354 
L 731.435771 146.828255 
L 731.666048 148.360496 
L 732.124983 146.936171 
L 732.353648 146.936171 
L 732.58178 148.42835 
L 732.809381 148.42835 
L 733.036456 147.711863 
L 733.263005 147.711863 
L 733.489032 149.193304 
L 733.939528 149.203535 
L 734.164001 148.479173 
L 734.387961 149.208165 
L 735.056787 147.05694 
L 735.500148 147.100325 
L 735.721079 148.595045 
L 735.941512 148.595045 
L 736.161451 147.876864 
L 736.81832 147.905963 
L 737.036301 150.146484 
L 737.68735 150.162723 
L 737.903409 149.428619 
L 738.548742 149.428619 
L 738.762911 150.960514 
L 738.976614 150.218306 
L 739.189851 150.992932 
L 739.402626 151.002029 
L 739.614939 150.259399 
L 739.826793 152.469013 
L 740.038191 152.469013 
L 740.249133 153.193827 
L 740.459622 153.193827 
L 740.879248 151.67181 
L 741.297085 151.67181 
L 741.505337 152.398654 
L 741.920518 152.398654 
L 742.127451 151.641838 
L 742.54001 151.609314 
L 742.74564 150.860515 
L 742.950839 150.860515 
L 743.359953 149.385659 
L 743.563871 149.385659 
L 743.767365 148.659448 
L 744.173091 148.724907 
L 744.375326 149.516671 
L 744.778547 149.516671 
L 744.979537 148.789129 
L 745.180115 148.789129 
L 745.380284 148.068977 
L 745.580045 148.873944 
L 745.779399 148.873944 
L 746.176895 147.439242 
L 746.967081 147.439242 
L 747.163636 148.257768 
L 747.163636 148.257768 
" style="fill:none;stroke:#9467bd;stroke-linecap:square;stroke-width:1.5;"/>
   </g>
   <g id="line2d_42">
    <path clip-path="url(#p87050a1f0d)" d="M -1 156.382778 
L 747.163636 156.382778 
L 747.163636 156.382778 
" style="fill:none;stroke:#000000;stroke-dasharray:5.55,2.4;stroke-dashoffset:0;stroke-width:1.5;"/>
   </g>
   <g id="patch_3">
    <path d="M 108 512.64 
L 108 69.12 
" style="fill:none;stroke:#000000;stroke-linecap:square;stroke-linejoin:miter;stroke-width:0.8;"/>
   </g>
   <g id="patch_4">
    <path d="M 777.6 512.64 
L 777.6 69.12 
" style="fill:none;stroke:#000000;stroke-linecap:square;stroke-linejoin:miter;stroke-width:0.8;"/>
   </g>
   <g id="patch_5">
    <path d="M 108 512.64 
L 777.6 512.64 
" style="fill:none;stroke:#000000;stroke-linecap:square;stroke-linejoin:miter;stroke-width:0.8;"/>
   </g>
   <g id="patch_6">
    <path d="M 108 69.12 
L 777.6 69.12 
" style="fill:none;stroke:#000000;stroke-linecap:square;stroke-linejoin:miter;stroke-width:0.8;"/>
   </g>
   <g id="text_12">
    <!-- TD estimates through time vs true values -->
    <g transform="translate(317.914688 63.12)scale(0.12 -0.12)">
     <defs>
      <path d="M -19 4666 
L 3928 4666 
L 3928 4134 
L 2272 4134 
L 2272 0 
L 1638 0 
L 1638 4134 
L -19 4134 
L -19 4666 
z
" id="DejaVuSans-54" transform="scale(0.015625)"/>
      <path d="M 1259 4147 
L 1259 519 
L 2022 519 
Q 2988 519 3436 956 
Q 3884 1394 3884 2338 
Q 3884 3275 3436 3711 
Q 2988 4147 2022 4147 
L 1259 4147 
z
M 628 4666 
L 1925 4666 
Q 3281 4666 3915 4102 
Q 4550 3538 4550 2338 
Q 4550 1131 3912 565 
Q 3275 0 1925 0 
L 628 0 
L 628 4666 
z
" id="DejaVuSans-44" transform="scale(0.015625)"/>
      <path d="M 3328 2828 
Q 3544 3216 3844 3400 
Q 4144 3584 4550 3584 
Q 5097 3584 5394 3201 
Q 5691 2819 5691 2113 
L 5691 0 
L 5113 0 
L 5113 2094 
Q 5113 2597 4934 2840 
Q 4756 3084 4391 3084 
Q 3944 3084 3684 2787 
Q 3425 2491 3425 1978 
L 3425 0 
L 2847 0 
L 2847 2094 
Q 2847 2600 2669 2842 
Q 2491 3084 2119 3084 
Q 1678 3084 1418 2786 
Q 1159 2488 1159 1978 
L 1159 0 
L 581 0 
L 581 3500 
L 1159 3500 
L 1159 2956 
Q 1356 3278 1631 3431 
Q 1906 3584 2284 3584 
Q 2666 3584 2933 3390 
Q 3200 3197 3328 2828 
z
" id="DejaVuSans-6d" transform="scale(0.015625)"/>
      <path d="M 3513 2113 
L 3513 0 
L 2938 0 
L 2938 2094 
Q 2938 2591 2744 2837 
Q 2550 3084 2163 3084 
Q 1697 3084 1428 2787 
Q 1159 2491 1159 1978 
L 1159 0 
L 581 0 
L 581 4863 
L 1159 4863 
L 1159 2956 
Q 1366 3272 1645 3428 
Q 1925 3584 2291 3584 
Q 2894 3584 3203 3211 
Q 3513 2838 3513 2113 
z
" id="DejaVuSans-68" transform="scale(0.015625)"/>
      <path d="M 2631 2963 
Q 2534 3019 2420 3045 
Q 2306 3072 2169 3072 
Q 1681 3072 1420 2755 
Q 1159 2438 1159 1844 
L 1159 0 
L 581 0 
L 581 3500 
L 1159 3500 
L 1159 2956 
Q 1341 3275 1631 3429 
Q 1922 3584 2338 3584 
Q 2397 3584 2469 3576 
Q 2541 3569 2628 3553 
L 2631 2963 
z
" id="DejaVuSans-72" transform="scale(0.015625)"/>
      <path d="M 191 3500 
L 800 3500 
L 1894 563 
L 2988 3500 
L 3597 3500 
L 2284 0 
L 1503 0 
L 191 3500 
z
" id="DejaVuSans-76" transform="scale(0.015625)"/>
     </defs>
     <use xlink:href="#DejaVuSans-54"/>
     <use x="61.083984" xlink:href="#DejaVuSans-44"/>
     <use x="138.085938" xlink:href="#DejaVuSans-20"/>
     <use x="169.873047" xlink:href="#DejaVuSans-65"/>
     <use x="231.396484" xlink:href="#DejaVuSans-73"/>
     <use x="283.496094" xlink:href="#DejaVuSans-74"/>
     <use x="322.705078" xlink:href="#DejaVuSans-69"/>
     <use x="350.488281" xlink:href="#DejaVuSans-6d"/>
     <use x="447.900391" xlink:href="#DejaVuSans-61"/>
     <use x="509.179688" xlink:href="#DejaVuSans-74"/>
     <use x="548.388672" xlink:href="#DejaVuSans-65"/>
     <use x="609.912109" xlink:href="#DejaVuSans-73"/>
     <use x="662.011719" xlink:href="#DejaVuSans-20"/>
     <use x="693.798828" xlink:href="#DejaVuSans-74"/>
     <use x="733.007812" xlink:href="#DejaVuSans-68"/>
     <use x="796.386719" xlink:href="#DejaVuSans-72"/>
     <use x="835.25" xlink:href="#DejaVuSans-6f"/>
     <use x="896.431641" xlink:href="#DejaVuSans-75"/>
     <use x="959.810547" xlink:href="#DejaVuSans-67"/>
     <use x="1023.287109" xlink:href="#DejaVuSans-68"/>
     <use x="1086.666016" xlink:href="#DejaVuSans-20"/>
     <use x="1118.453125" xlink:href="#DejaVuSans-74"/>
     <use x="1157.662109" xlink:href="#DejaVuSans-69"/>
     <use x="1185.445312" xlink:href="#DejaVuSans-6d"/>
     <use x="1282.857422" xlink:href="#DejaVuSans-65"/>
     <use x="1344.380859" xlink:href="#DejaVuSans-20"/>
     <use x="1376.167969" xlink:href="#DejaVuSans-76"/>
     <use x="1435.347656" xlink:href="#DejaVuSans-73"/>
     <use x="1487.447266" xlink:href="#DejaVuSans-20"/>
     <use x="1519.234375" xlink:href="#DejaVuSans-74"/>
     <use x="1558.443359" xlink:href="#DejaVuSans-72"/>
     <use x="1599.556641" xlink:href="#DejaVuSans-75"/>
     <use x="1662.935547" xlink:href="#DejaVuSans-65"/>
     <use x="1724.458984" xlink:href="#DejaVuSans-20"/>
     <use x="1756.246094" xlink:href="#DejaVuSans-76"/>
     <use x="1815.425781" xlink:href="#DejaVuSans-61"/>
     <use x="1876.705078" xlink:href="#DejaVuSans-6c"/>
     <use x="1904.488281" xlink:href="#DejaVuSans-75"/>
     <use x="1967.867188" xlink:href="#DejaVuSans-65"/>
     <use x="2029.390625" xlink:href="#DejaVuSans-73"/>
    </g>
   </g>
   <g id="legend_1">
    <g id="patch_7">
     <path d="M 784.6 329.075312 
L 837.60625 329.075312 
Q 839.60625 329.075312 839.60625 327.075312 
L 839.60625 254.684687 
Q 839.60625 252.684687 837.60625 252.684687 
L 784.6 252.684687 
Q 782.6 252.684687 782.6 254.684687 
L 782.6 327.075312 
Q 782.6 329.075312 784.6 329.075312 
z
" style="fill:#ffffff;opacity:0.8;stroke:#cccccc;stroke-linejoin:miter;"/>
    </g>
    <g id="line2d_43">
     <path d="M 786.6 260.783125 
L 806.6 260.783125 
" style="fill:none;stroke:#1f77b4;stroke-linecap:square;stroke-width:1.5;"/>
    </g>
    <g id="line2d_44"/>
    <g id="text_13">
     <!-- V(1) -->
     <g transform="translate(814.6 264.283125)scale(0.1 -0.1)">
      <use xlink:href="#DejaVuSans-56"/>
      <use x="68.408203" xlink:href="#DejaVuSans-28"/>
      <use x="107.421875" xlink:href="#DejaVuSans-31"/>
      <use x="171.044922" xlink:href="#DejaVuSans-29"/>
     </g>
    </g>
    <g id="line2d_45">
     <path d="M 786.6 275.46125 
L 806.6 275.46125 
" style="fill:none;stroke:#ff7f0e;stroke-linecap:square;stroke-width:1.5;"/>
    </g>
    <g id="line2d_46"/>
    <g id="text_14">
     <!-- V(2) -->
     <g transform="translate(814.6 278.96125)scale(0.1 -0.1)">
      <use xlink:href="#DejaVuSans-56"/>
      <use x="68.408203" xlink:href="#DejaVuSans-28"/>
      <use x="107.421875" xlink:href="#DejaVuSans-32"/>
      <use x="171.044922" xlink:href="#DejaVuSans-29"/>
     </g>
    </g>
    <g id="line2d_47">
     <path d="M 786.6 290.139375 
L 806.6 290.139375 
" style="fill:none;stroke:#2ca02c;stroke-linecap:square;stroke-width:1.5;"/>
    </g>
    <g id="line2d_48"/>
    <g id="text_15">
     <!-- V(3) -->
     <g transform="translate(814.6 293.639375)scale(0.1 -0.1)">
      <defs>
       <path d="M 2597 2516 
Q 3050 2419 3304 2112 
Q 3559 1806 3559 1356 
Q 3559 666 3084 287 
Q 2609 -91 1734 -91 
Q 1441 -91 1130 -33 
Q 819 25 488 141 
L 488 750 
Q 750 597 1062 519 
Q 1375 441 1716 441 
Q 2309 441 2620 675 
Q 2931 909 2931 1356 
Q 2931 1769 2642 2001 
Q 2353 2234 1838 2234 
L 1294 2234 
L 1294 2753 
L 1863 2753 
Q 2328 2753 2575 2939 
Q 2822 3125 2822 3475 
Q 2822 3834 2567 4026 
Q 2313 4219 1838 4219 
Q 1578 4219 1281 4162 
Q 984 4106 628 3988 
L 628 4550 
Q 988 4650 1302 4700 
Q 1616 4750 1894 4750 
Q 2613 4750 3031 4423 
Q 3450 4097 3450 3541 
Q 3450 3153 3228 2886 
Q 3006 2619 2597 2516 
z
" id="DejaVuSans-33" transform="scale(0.015625)"/>
      </defs>
      <use xlink:href="#DejaVuSans-56"/>
      <use x="68.408203" xlink:href="#DejaVuSans-28"/>
      <use x="107.421875" xlink:href="#DejaVuSans-33"/>
      <use x="171.044922" xlink:href="#DejaVuSans-29"/>
     </g>
    </g>
    <g id="line2d_49">
     <path d="M 786.6 304.8175 
L 806.6 304.8175 
" style="fill:none;stroke:#d62728;stroke-linecap:square;stroke-width:1.5;"/>
    </g>
    <g id="line2d_50"/>
    <g id="text_16">
     <!-- V(4) -->
     <g transform="translate(814.6 308.3175)scale(0.1 -0.1)">
      <use xlink:href="#DejaVuSans-56"/>
      <use x="68.408203" xlink:href="#DejaVuSans-28"/>
      <use x="107.421875" xlink:href="#DejaVuSans-34"/>
      <use x="171.044922" xlink:href="#DejaVuSans-29"/>
     </g>
    </g>
    <g id="line2d_51">
     <path d="M 786.6 319.495625 
L 806.6 319.495625 
" style="fill:none;stroke:#9467bd;stroke-linecap:square;stroke-width:1.5;"/>
    </g>
    <g id="line2d_52"/>
    <g id="text_17">
     <!-- V(5) -->
     <g transform="translate(814.6 322.995625)scale(0.1 -0.1)">
      <defs>
       <path d="M 691 4666 
L 3169 4666 
L 3169 4134 
L 1269 4134 
L 1269 2991 
Q 1406 3038 1543 3061 
Q 1681 3084 1819 3084 
Q 2600 3084 3056 2656 
Q 3513 2228 3513 1497 
Q 3513 744 3044 326 
Q 2575 -91 1722 -91 
Q 1428 -91 1123 -41 
Q 819 9 494 109 
L 494 744 
Q 775 591 1075 516 
Q 1375 441 1709 441 
Q 2250 441 2565 725 
Q 2881 1009 2881 1497 
Q 2881 1984 2565 2268 
Q 2250 2553 1709 2553 
Q 1456 2553 1204 2497 
Q 953 2441 691 2322 
L 691 4666 
z
" id="DejaVuSans-35" transform="scale(0.015625)"/>
      </defs>
      <use xlink:href="#DejaVuSans-56"/>
      <use x="68.408203" xlink:href="#DejaVuSans-28"/>
      <use x="107.421875" xlink:href="#DejaVuSans-35"/>
      <use x="171.044922" xlink:href="#DejaVuSans-29"/>
     </g>
    </g>
   </g>
  </g>
 </g>
 <defs>
  <clipPath id="p87050a1f0d">
   <rect height="443.52" width="669.6" x="108" y="69.12"/>
  </clipPath>
 </defs>
</svg>
