<?xml version="1.0" encoding="utf-8" standalone="no"?>
<!DOCTYPE svg PUBLIC "-//W3C//DTD SVG 1.1//EN"
  "http://www.w3.org/Graphics/SVG/1.1/DTD/svg11.dtd">
<svg height="576pt" version="1.1" viewBox="0 0 864 576" width="864pt" xmlns="http://www.w3.org/2000/svg" xmlns:xlink="http://www.w3.org/1999/xlink">
 <metadata>
  <rdf:RDF xmlns:cc="http://creativecommons.org/ns#" xmlns:dc="http://purl.org/dc/elements/1.1/" xmlns:rdf="http://www.w3.org/1999/02/22-rdf-syntax-ns#">
   <cc:Work>
    <dc:type rdf:resource="http://purl.org/dc/dcmitype/StillImage"/>
    <dc:date>2021-09-11T10:25:53.368674</dc:date>
    <dc:format>image/svg+xml</dc:format>
    <dc:creator>
     <cc:Agent>
      <dc:title>Matplotlib v3.4.3, https://matplotlib.org/</dc:title>
     </cc:Agent>
    </dc:creator>
   </cc:Work>
  </rdf:RDF>
 </metadata>
 <defs>
  <style type="text/css">*{stroke-linecap:butt;stroke-linejoin:round;}</style>
 </defs>
 <g id="figure_1">
  <g id="patch_1">
   <path d="M 0 576 
L 864 576 
L 864 0 
L 0 0 
z
" style="fill:#ffffff;"/>
  </g>
  <g id="axes_1">
   <g id="patch_2">
    <path d="M 108 512.64 
L 710.64 512.64 
L 710.64 69.12 
L 108 69.12 
z
" style="fill:#ffffff;"/>
   </g>
   <g id="matplotlib.axis_1">
    <g id="xtick_1">
     <g id="line2d_1">
      <defs>
       <path d="M 0 0 
L 0 3.5 
" id="m8813a795c7" style="stroke:#000000;stroke-width:0.8;"/>
      </defs>
      <g>
       <use style="stroke:#000000;stroke-width:0.8;" x="135.392727" xlink:href="#m8813a795c7" y="512.64"/>
      </g>
     </g>
     <g id="text_1">
      <!-- $\mathdefault{10^{0}}$ -->
      <g transform="translate(123.072727 530.277812)scale(0.14 -0.14)">
       <defs>
        <path d="M 794 531 
L 1825 531 
L 1825 4091 
L 703 3866 
L 703 4441 
L 1819 4666 
L 2450 4666 
L 2450 531 
L 3481 531 
L 3481 0 
L 794 0 
L 794 531 
z
" id="DejaVuSans-31" transform="scale(0.015625)"/>
        <path d="M 2034 4250 
Q 1547 4250 1301 3770 
Q 1056 3291 1056 2328 
Q 1056 1369 1301 889 
Q 1547 409 2034 409 
Q 2525 409 2770 889 
Q 3016 1369 3016 2328 
Q 3016 3291 2770 3770 
Q 2525 4250 2034 4250 
z
M 2034 4750 
Q 2819 4750 3233 4129 
Q 3647 3509 3647 2328 
Q 3647 1150 3233 529 
Q 2819 -91 2034 -91 
Q 1250 -91 836 529 
Q 422 1150 422 2328 
Q 422 3509 836 4129 
Q 1250 4750 2034 4750 
z
" id="DejaVuSans-30" transform="scale(0.015625)"/>
       </defs>
       <use transform="translate(0 0.765625)" xlink:href="#DejaVuSans-31"/>
       <use transform="translate(63.623047 0.765625)" xlink:href="#DejaVuSans-30"/>
       <use transform="translate(128.203125 39.046875)scale(0.7)" xlink:href="#DejaVuSans-30"/>
      </g>
     </g>
    </g>
    <g id="xtick_2">
     <g id="line2d_2">
      <g>
       <use style="stroke:#000000;stroke-width:0.8;" x="338.444666" xlink:href="#m8813a795c7" y="512.64"/>
      </g>
     </g>
     <g id="text_2">
      <!-- $\mathdefault{10^{1}}$ -->
      <g transform="translate(326.124666 530.277812)scale(0.14 -0.14)">
       <use transform="translate(0 0.684375)" xlink:href="#DejaVuSans-31"/>
       <use transform="translate(63.623047 0.684375)" xlink:href="#DejaVuSans-30"/>
       <use transform="translate(128.203125 38.965625)scale(0.7)" xlink:href="#DejaVuSans-31"/>
      </g>
     </g>
    </g>
    <g id="xtick_3">
     <g id="line2d_3">
      <g>
       <use style="stroke:#000000;stroke-width:0.8;" x="541.496604" xlink:href="#m8813a795c7" y="512.64"/>
      </g>
     </g>
     <g id="text_3">
      <!-- $\mathdefault{10^{2}}$ -->
      <g transform="translate(529.176604 530.277812)scale(0.14 -0.14)">
       <defs>
        <path d="M 1228 531 
L 3431 531 
L 3431 0 
L 469 0 
L 469 531 
Q 828 903 1448 1529 
Q 2069 2156 2228 2338 
Q 2531 2678 2651 2914 
Q 2772 3150 2772 3378 
Q 2772 3750 2511 3984 
Q 2250 4219 1831 4219 
Q 1534 4219 1204 4116 
Q 875 4013 500 3803 
L 500 4441 
Q 881 4594 1212 4672 
Q 1544 4750 1819 4750 
Q 2544 4750 2975 4387 
Q 3406 4025 3406 3419 
Q 3406 3131 3298 2873 
Q 3191 2616 2906 2266 
Q 2828 2175 2409 1742 
Q 1991 1309 1228 531 
z
" id="DejaVuSans-32" transform="scale(0.015625)"/>
       </defs>
       <use transform="translate(0 0.765625)" xlink:href="#DejaVuSans-31"/>
       <use transform="translate(63.623047 0.765625)" xlink:href="#DejaVuSans-30"/>
       <use transform="translate(128.203125 39.046875)scale(0.7)" xlink:href="#DejaVuSans-32"/>
      </g>
     </g>
    </g>
    <g id="xtick_4">
     <g id="line2d_4">
      <defs>
       <path d="M 0 0 
L 0 2 
" id="mb6f6f72b29" style="stroke:#000000;stroke-width:0.6;"/>
      </defs>
      <g>
       <use style="stroke:#000000;stroke-width:0.6;" x="115.714961" xlink:href="#mb6f6f72b29" y="512.64"/>
      </g>
     </g>
    </g>
    <g id="xtick_5">
     <g id="line2d_5">
      <g>
       <use style="stroke:#000000;stroke-width:0.6;" x="126.10158" xlink:href="#mb6f6f72b29" y="512.64"/>
      </g>
     </g>
    </g>
    <g id="xtick_6">
     <g id="line2d_6">
      <g>
       <use style="stroke:#000000;stroke-width:0.6;" x="196.517451" xlink:href="#mb6f6f72b29" y="512.64"/>
      </g>
     </g>
    </g>
    <g id="xtick_7">
     <g id="line2d_7">
      <g>
       <use style="stroke:#000000;stroke-width:0.6;" x="232.273123" xlink:href="#mb6f6f72b29" y="512.64"/>
      </g>
     </g>
    </g>
    <g id="xtick_8">
     <g id="line2d_8">
      <g>
       <use style="stroke:#000000;stroke-width:0.6;" x="257.642175" xlink:href="#mb6f6f72b29" y="512.64"/>
      </g>
     </g>
    </g>
    <g id="xtick_9">
     <g id="line2d_9">
      <g>
       <use style="stroke:#000000;stroke-width:0.6;" x="277.319941" xlink:href="#mb6f6f72b29" y="512.64"/>
      </g>
     </g>
    </g>
    <g id="xtick_10">
     <g id="line2d_10">
      <g>
       <use style="stroke:#000000;stroke-width:0.6;" x="293.397847" xlink:href="#mb6f6f72b29" y="512.64"/>
      </g>
     </g>
    </g>
    <g id="xtick_11">
     <g id="line2d_11">
      <g>
       <use style="stroke:#000000;stroke-width:0.6;" x="306.991522" xlink:href="#mb6f6f72b29" y="512.64"/>
      </g>
     </g>
    </g>
    <g id="xtick_12">
     <g id="line2d_12">
      <g>
       <use style="stroke:#000000;stroke-width:0.6;" x="318.7669" xlink:href="#mb6f6f72b29" y="512.64"/>
      </g>
     </g>
    </g>
    <g id="xtick_13">
     <g id="line2d_13">
      <g>
       <use style="stroke:#000000;stroke-width:0.6;" x="329.153518" xlink:href="#mb6f6f72b29" y="512.64"/>
      </g>
     </g>
    </g>
    <g id="xtick_14">
     <g id="line2d_14">
      <g>
       <use style="stroke:#000000;stroke-width:0.6;" x="399.56939" xlink:href="#mb6f6f72b29" y="512.64"/>
      </g>
     </g>
    </g>
    <g id="xtick_15">
     <g id="line2d_15">
      <g>
       <use style="stroke:#000000;stroke-width:0.6;" x="435.325061" xlink:href="#mb6f6f72b29" y="512.64"/>
      </g>
     </g>
    </g>
    <g id="xtick_16">
     <g id="line2d_16">
      <g>
       <use style="stroke:#000000;stroke-width:0.6;" x="460.694114" xlink:href="#mb6f6f72b29" y="512.64"/>
      </g>
     </g>
    </g>
    <g id="xtick_17">
     <g id="line2d_17">
      <g>
       <use style="stroke:#000000;stroke-width:0.6;" x="480.37188" xlink:href="#mb6f6f72b29" y="512.64"/>
      </g>
     </g>
    </g>
    <g id="xtick_18">
     <g id="line2d_18">
      <g>
       <use style="stroke:#000000;stroke-width:0.6;" x="496.449785" xlink:href="#mb6f6f72b29" y="512.64"/>
      </g>
     </g>
    </g>
    <g id="xtick_19">
     <g id="line2d_19">
      <g>
       <use style="stroke:#000000;stroke-width:0.6;" x="510.043461" xlink:href="#mb6f6f72b29" y="512.64"/>
      </g>
     </g>
    </g>
    <g id="xtick_20">
     <g id="line2d_20">
      <g>
       <use style="stroke:#000000;stroke-width:0.6;" x="521.818838" xlink:href="#mb6f6f72b29" y="512.64"/>
      </g>
     </g>
    </g>
    <g id="xtick_21">
     <g id="line2d_21">
      <g>
       <use style="stroke:#000000;stroke-width:0.6;" x="532.205457" xlink:href="#mb6f6f72b29" y="512.64"/>
      </g>
     </g>
    </g>
    <g id="xtick_22">
     <g id="line2d_22">
      <g>
       <use style="stroke:#000000;stroke-width:0.6;" x="602.621328" xlink:href="#mb6f6f72b29" y="512.64"/>
      </g>
     </g>
    </g>
    <g id="xtick_23">
     <g id="line2d_23">
      <g>
       <use style="stroke:#000000;stroke-width:0.6;" x="638.376999" xlink:href="#mb6f6f72b29" y="512.64"/>
      </g>
     </g>
    </g>
    <g id="xtick_24">
     <g id="line2d_24">
      <g>
       <use style="stroke:#000000;stroke-width:0.6;" x="663.746052" xlink:href="#mb6f6f72b29" y="512.64"/>
      </g>
     </g>
    </g>
    <g id="xtick_25">
     <g id="line2d_25">
      <g>
       <use style="stroke:#000000;stroke-width:0.6;" x="683.423818" xlink:href="#mb6f6f72b29" y="512.64"/>
      </g>
     </g>
    </g>
    <g id="xtick_26">
     <g id="line2d_26">
      <g>
       <use style="stroke:#000000;stroke-width:0.6;" x="699.501723" xlink:href="#mb6f6f72b29" y="512.64"/>
      </g>
     </g>
    </g>
    <g id="text_4">
     <!-- Episodes (log scale) -->
     <g transform="translate(339.560625 547.827188)scale(0.14 -0.14)">
      <defs>
       <path d="M 628 4666 
L 3578 4666 
L 3578 4134 
L 1259 4134 
L 1259 2753 
L 3481 2753 
L 3481 2222 
L 1259 2222 
L 1259 531 
L 3634 531 
L 3634 0 
L 628 0 
L 628 4666 
z
" id="DejaVuSans-45" transform="scale(0.015625)"/>
       <path d="M 1159 525 
L 1159 -1331 
L 581 -1331 
L 581 3500 
L 1159 3500 
L 1159 2969 
Q 1341 3281 1617 3432 
Q 1894 3584 2278 3584 
Q 2916 3584 3314 3078 
Q 3713 2572 3713 1747 
Q 3713 922 3314 415 
Q 2916 -91 2278 -91 
Q 1894 -91 1617 61 
Q 1341 213 1159 525 
z
M 3116 1747 
Q 3116 2381 2855 2742 
Q 2594 3103 2138 3103 
Q 1681 3103 1420 2742 
Q 1159 2381 1159 1747 
Q 1159 1113 1420 752 
Q 1681 391 2138 391 
Q 2594 391 2855 752 
Q 3116 1113 3116 1747 
z
" id="DejaVuSans-70" transform="scale(0.015625)"/>
       <path d="M 603 3500 
L 1178 3500 
L 1178 0 
L 603 0 
L 603 3500 
z
M 603 4863 
L 1178 4863 
L 1178 4134 
L 603 4134 
L 603 4863 
z
" id="DejaVuSans-69" transform="scale(0.015625)"/>
       <path d="M 2834 3397 
L 2834 2853 
Q 2591 2978 2328 3040 
Q 2066 3103 1784 3103 
Q 1356 3103 1142 2972 
Q 928 2841 928 2578 
Q 928 2378 1081 2264 
Q 1234 2150 1697 2047 
L 1894 2003 
Q 2506 1872 2764 1633 
Q 3022 1394 3022 966 
Q 3022 478 2636 193 
Q 2250 -91 1575 -91 
Q 1294 -91 989 -36 
Q 684 19 347 128 
L 347 722 
Q 666 556 975 473 
Q 1284 391 1588 391 
Q 1994 391 2212 530 
Q 2431 669 2431 922 
Q 2431 1156 2273 1281 
Q 2116 1406 1581 1522 
L 1381 1569 
Q 847 1681 609 1914 
Q 372 2147 372 2553 
Q 372 3047 722 3315 
Q 1072 3584 1716 3584 
Q 2034 3584 2315 3537 
Q 2597 3491 2834 3397 
z
" id="DejaVuSans-73" transform="scale(0.015625)"/>
       <path d="M 1959 3097 
Q 1497 3097 1228 2736 
Q 959 2375 959 1747 
Q 959 1119 1226 758 
Q 1494 397 1959 397 
Q 2419 397 2687 759 
Q 2956 1122 2956 1747 
Q 2956 2369 2687 2733 
Q 2419 3097 1959 3097 
z
M 1959 3584 
Q 2709 3584 3137 3096 
Q 3566 2609 3566 1747 
Q 3566 888 3137 398 
Q 2709 -91 1959 -91 
Q 1206 -91 779 398 
Q 353 888 353 1747 
Q 353 2609 779 3096 
Q 1206 3584 1959 3584 
z
" id="DejaVuSans-6f" transform="scale(0.015625)"/>
       <path d="M 2906 2969 
L 2906 4863 
L 3481 4863 
L 3481 0 
L 2906 0 
L 2906 525 
Q 2725 213 2448 61 
Q 2172 -91 1784 -91 
Q 1150 -91 751 415 
Q 353 922 353 1747 
Q 353 2572 751 3078 
Q 1150 3584 1784 3584 
Q 2172 3584 2448 3432 
Q 2725 3281 2906 2969 
z
M 947 1747 
Q 947 1113 1208 752 
Q 1469 391 1925 391 
Q 2381 391 2643 752 
Q 2906 1113 2906 1747 
Q 2906 2381 2643 2742 
Q 2381 3103 1925 3103 
Q 1469 3103 1208 2742 
Q 947 2381 947 1747 
z
" id="DejaVuSans-64" transform="scale(0.015625)"/>
       <path d="M 3597 1894 
L 3597 1613 
L 953 1613 
Q 991 1019 1311 708 
Q 1631 397 2203 397 
Q 2534 397 2845 478 
Q 3156 559 3463 722 
L 3463 178 
Q 3153 47 2828 -22 
Q 2503 -91 2169 -91 
Q 1331 -91 842 396 
Q 353 884 353 1716 
Q 353 2575 817 3079 
Q 1281 3584 2069 3584 
Q 2775 3584 3186 3129 
Q 3597 2675 3597 1894 
z
M 3022 2063 
Q 3016 2534 2758 2815 
Q 2500 3097 2075 3097 
Q 1594 3097 1305 2825 
Q 1016 2553 972 2059 
L 3022 2063 
z
" id="DejaVuSans-65" transform="scale(0.015625)"/>
       <path id="DejaVuSans-20" transform="scale(0.015625)"/>
       <path d="M 1984 4856 
Q 1566 4138 1362 3434 
Q 1159 2731 1159 2009 
Q 1159 1288 1364 580 
Q 1569 -128 1984 -844 
L 1484 -844 
Q 1016 -109 783 600 
Q 550 1309 550 2009 
Q 550 2706 781 3412 
Q 1013 4119 1484 4856 
L 1984 4856 
z
" id="DejaVuSans-28" transform="scale(0.015625)"/>
       <path d="M 603 4863 
L 1178 4863 
L 1178 0 
L 603 0 
L 603 4863 
z
" id="DejaVuSans-6c" transform="scale(0.015625)"/>
       <path d="M 2906 1791 
Q 2906 2416 2648 2759 
Q 2391 3103 1925 3103 
Q 1463 3103 1205 2759 
Q 947 2416 947 1791 
Q 947 1169 1205 825 
Q 1463 481 1925 481 
Q 2391 481 2648 825 
Q 2906 1169 2906 1791 
z
M 3481 434 
Q 3481 -459 3084 -895 
Q 2688 -1331 1869 -1331 
Q 1566 -1331 1297 -1286 
Q 1028 -1241 775 -1147 
L 775 -588 
Q 1028 -725 1275 -790 
Q 1522 -856 1778 -856 
Q 2344 -856 2625 -561 
Q 2906 -266 2906 331 
L 2906 616 
Q 2728 306 2450 153 
Q 2172 0 1784 0 
Q 1141 0 747 490 
Q 353 981 353 1791 
Q 353 2603 747 3093 
Q 1141 3584 1784 3584 
Q 2172 3584 2450 3431 
Q 2728 3278 2906 2969 
L 2906 3500 
L 3481 3500 
L 3481 434 
z
" id="DejaVuSans-67" transform="scale(0.015625)"/>
       <path d="M 3122 3366 
L 3122 2828 
Q 2878 2963 2633 3030 
Q 2388 3097 2138 3097 
Q 1578 3097 1268 2742 
Q 959 2388 959 1747 
Q 959 1106 1268 751 
Q 1578 397 2138 397 
Q 2388 397 2633 464 
Q 2878 531 3122 666 
L 3122 134 
Q 2881 22 2623 -34 
Q 2366 -91 2075 -91 
Q 1284 -91 818 406 
Q 353 903 353 1747 
Q 353 2603 823 3093 
Q 1294 3584 2113 3584 
Q 2378 3584 2631 3529 
Q 2884 3475 3122 3366 
z
" id="DejaVuSans-63" transform="scale(0.015625)"/>
       <path d="M 2194 1759 
Q 1497 1759 1228 1600 
Q 959 1441 959 1056 
Q 959 750 1161 570 
Q 1363 391 1709 391 
Q 2188 391 2477 730 
Q 2766 1069 2766 1631 
L 2766 1759 
L 2194 1759 
z
M 3341 1997 
L 3341 0 
L 2766 0 
L 2766 531 
Q 2569 213 2275 61 
Q 1981 -91 1556 -91 
Q 1019 -91 701 211 
Q 384 513 384 1019 
Q 384 1609 779 1909 
Q 1175 2209 1959 2209 
L 2766 2209 
L 2766 2266 
Q 2766 2663 2505 2880 
Q 2244 3097 1772 3097 
Q 1472 3097 1187 3025 
Q 903 2953 641 2809 
L 641 3341 
Q 956 3463 1253 3523 
Q 1550 3584 1831 3584 
Q 2591 3584 2966 3190 
Q 3341 2797 3341 1997 
z
" id="DejaVuSans-61" transform="scale(0.015625)"/>
       <path d="M 513 4856 
L 1013 4856 
Q 1481 4119 1714 3412 
Q 1947 2706 1947 2009 
Q 1947 1309 1714 600 
Q 1481 -109 1013 -844 
L 513 -844 
Q 928 -128 1133 580 
Q 1338 1288 1338 2009 
Q 1338 2731 1133 3434 
Q 928 4138 513 4856 
z
" id="DejaVuSans-29" transform="scale(0.015625)"/>
      </defs>
      <use xlink:href="#DejaVuSans-45"/>
      <use x="63.183594" xlink:href="#DejaVuSans-70"/>
      <use x="126.660156" xlink:href="#DejaVuSans-69"/>
      <use x="154.443359" xlink:href="#DejaVuSans-73"/>
      <use x="206.542969" xlink:href="#DejaVuSans-6f"/>
      <use x="267.724609" xlink:href="#DejaVuSans-64"/>
      <use x="331.201172" xlink:href="#DejaVuSans-65"/>
      <use x="392.724609" xlink:href="#DejaVuSans-73"/>
      <use x="444.824219" xlink:href="#DejaVuSans-20"/>
      <use x="476.611328" xlink:href="#DejaVuSans-28"/>
      <use x="515.625" xlink:href="#DejaVuSans-6c"/>
      <use x="543.408203" xlink:href="#DejaVuSans-6f"/>
      <use x="604.589844" xlink:href="#DejaVuSans-67"/>
      <use x="668.066406" xlink:href="#DejaVuSans-20"/>
      <use x="699.853516" xlink:href="#DejaVuSans-73"/>
      <use x="751.953125" xlink:href="#DejaVuSans-63"/>
      <use x="806.933594" xlink:href="#DejaVuSans-61"/>
      <use x="868.212891" xlink:href="#DejaVuSans-6c"/>
      <use x="895.996094" xlink:href="#DejaVuSans-65"/>
      <use x="957.519531" xlink:href="#DejaVuSans-29"/>
     </g>
    </g>
   </g>
   <g id="matplotlib.axis_2">
    <g id="ytick_1">
     <g id="line2d_27">
      <defs>
       <path d="M 0 0 
L -3.5 0 
" id="m5123774cbd" style="stroke:#000000;stroke-width:0.8;"/>
      </defs>
      <g>
       <use style="stroke:#000000;stroke-width:0.8;" x="108" xlink:href="#m5123774cbd" y="492.48"/>
      </g>
     </g>
     <g id="text_5">
      <!-- 0.0 -->
      <g transform="translate(78.735625 497.798906)scale(0.14 -0.14)">
       <defs>
        <path d="M 684 794 
L 1344 794 
L 1344 0 
L 684 0 
L 684 794 
z
" id="DejaVuSans-2e" transform="scale(0.015625)"/>
       </defs>
       <use xlink:href="#DejaVuSans-30"/>
       <use x="63.623047" xlink:href="#DejaVuSans-2e"/>
       <use x="95.410156" xlink:href="#DejaVuSans-30"/>
      </g>
     </g>
    </g>
    <g id="ytick_2">
     <g id="line2d_28">
      <g>
       <use style="stroke:#000000;stroke-width:0.8;" x="108" xlink:href="#m5123774cbd" y="398.569706"/>
      </g>
     </g>
     <g id="text_6">
      <!-- 0.2 -->
      <g transform="translate(78.735625 403.888612)scale(0.14 -0.14)">
       <use xlink:href="#DejaVuSans-30"/>
       <use x="63.623047" xlink:href="#DejaVuSans-2e"/>
       <use x="95.410156" xlink:href="#DejaVuSans-32"/>
      </g>
     </g>
    </g>
    <g id="ytick_3">
     <g id="line2d_29">
      <g>
       <use style="stroke:#000000;stroke-width:0.8;" x="108" xlink:href="#m5123774cbd" y="304.659412"/>
      </g>
     </g>
     <g id="text_7">
      <!-- 0.4 -->
      <g transform="translate(78.735625 309.978318)scale(0.14 -0.14)">
       <defs>
        <path d="M 2419 4116 
L 825 1625 
L 2419 1625 
L 2419 4116 
z
M 2253 4666 
L 3047 4666 
L 3047 1625 
L 3713 1625 
L 3713 1100 
L 3047 1100 
L 3047 0 
L 2419 0 
L 2419 1100 
L 313 1100 
L 313 1709 
L 2253 4666 
z
" id="DejaVuSans-34" transform="scale(0.015625)"/>
       </defs>
       <use xlink:href="#DejaVuSans-30"/>
       <use x="63.623047" xlink:href="#DejaVuSans-2e"/>
       <use x="95.410156" xlink:href="#DejaVuSans-34"/>
      </g>
     </g>
    </g>
    <g id="ytick_4">
     <g id="line2d_30">
      <g>
       <use style="stroke:#000000;stroke-width:0.8;" x="108" xlink:href="#m5123774cbd" y="210.749117"/>
      </g>
     </g>
     <g id="text_8">
      <!-- 0.6 -->
      <g transform="translate(78.735625 216.068024)scale(0.14 -0.14)">
       <defs>
        <path d="M 2113 2584 
Q 1688 2584 1439 2293 
Q 1191 2003 1191 1497 
Q 1191 994 1439 701 
Q 1688 409 2113 409 
Q 2538 409 2786 701 
Q 3034 994 3034 1497 
Q 3034 2003 2786 2293 
Q 2538 2584 2113 2584 
z
M 3366 4563 
L 3366 3988 
Q 3128 4100 2886 4159 
Q 2644 4219 2406 4219 
Q 1781 4219 1451 3797 
Q 1122 3375 1075 2522 
Q 1259 2794 1537 2939 
Q 1816 3084 2150 3084 
Q 2853 3084 3261 2657 
Q 3669 2231 3669 1497 
Q 3669 778 3244 343 
Q 2819 -91 2113 -91 
Q 1303 -91 875 529 
Q 447 1150 447 2328 
Q 447 3434 972 4092 
Q 1497 4750 2381 4750 
Q 2619 4750 2861 4703 
Q 3103 4656 3366 4563 
z
" id="DejaVuSans-36" transform="scale(0.015625)"/>
       </defs>
       <use xlink:href="#DejaVuSans-30"/>
       <use x="63.623047" xlink:href="#DejaVuSans-2e"/>
       <use x="95.410156" xlink:href="#DejaVuSans-36"/>
      </g>
     </g>
    </g>
    <g id="ytick_5">
     <g id="line2d_31">
      <g>
       <use style="stroke:#000000;stroke-width:0.8;" x="108" xlink:href="#m5123774cbd" y="116.838823"/>
      </g>
     </g>
     <g id="text_9">
      <!-- 0.8 -->
      <g transform="translate(78.735625 122.157729)scale(0.14 -0.14)">
       <defs>
        <path d="M 2034 2216 
Q 1584 2216 1326 1975 
Q 1069 1734 1069 1313 
Q 1069 891 1326 650 
Q 1584 409 2034 409 
Q 2484 409 2743 651 
Q 3003 894 3003 1313 
Q 3003 1734 2745 1975 
Q 2488 2216 2034 2216 
z
M 1403 2484 
Q 997 2584 770 2862 
Q 544 3141 544 3541 
Q 544 4100 942 4425 
Q 1341 4750 2034 4750 
Q 2731 4750 3128 4425 
Q 3525 4100 3525 3541 
Q 3525 3141 3298 2862 
Q 3072 2584 2669 2484 
Q 3125 2378 3379 2068 
Q 3634 1759 3634 1313 
Q 3634 634 3220 271 
Q 2806 -91 2034 -91 
Q 1263 -91 848 271 
Q 434 634 434 1313 
Q 434 1759 690 2068 
Q 947 2378 1403 2484 
z
M 1172 3481 
Q 1172 3119 1398 2916 
Q 1625 2713 2034 2713 
Q 2441 2713 2670 2916 
Q 2900 3119 2900 3481 
Q 2900 3844 2670 4047 
Q 2441 4250 2034 4250 
Q 1625 4250 1398 4047 
Q 1172 3844 1172 3481 
z
" id="DejaVuSans-38" transform="scale(0.015625)"/>
       </defs>
       <use xlink:href="#DejaVuSans-30"/>
       <use x="63.623047" xlink:href="#DejaVuSans-2e"/>
       <use x="95.410156" xlink:href="#DejaVuSans-38"/>
      </g>
     </g>
    </g>
    <g id="text_10">
     <!-- State-Value Function -->
     <g transform="translate(71.824062 362.742656)rotate(-90)scale(0.14 -0.14)">
      <defs>
       <path d="M 3425 4513 
L 3425 3897 
Q 3066 4069 2747 4153 
Q 2428 4238 2131 4238 
Q 1616 4238 1336 4038 
Q 1056 3838 1056 3469 
Q 1056 3159 1242 3001 
Q 1428 2844 1947 2747 
L 2328 2669 
Q 3034 2534 3370 2195 
Q 3706 1856 3706 1288 
Q 3706 609 3251 259 
Q 2797 -91 1919 -91 
Q 1588 -91 1214 -16 
Q 841 59 441 206 
L 441 856 
Q 825 641 1194 531 
Q 1563 422 1919 422 
Q 2459 422 2753 634 
Q 3047 847 3047 1241 
Q 3047 1584 2836 1778 
Q 2625 1972 2144 2069 
L 1759 2144 
Q 1053 2284 737 2584 
Q 422 2884 422 3419 
Q 422 4038 858 4394 
Q 1294 4750 2059 4750 
Q 2388 4750 2728 4690 
Q 3069 4631 3425 4513 
z
" id="DejaVuSans-53" transform="scale(0.015625)"/>
       <path d="M 1172 4494 
L 1172 3500 
L 2356 3500 
L 2356 3053 
L 1172 3053 
L 1172 1153 
Q 1172 725 1289 603 
Q 1406 481 1766 481 
L 2356 481 
L 2356 0 
L 1766 0 
Q 1100 0 847 248 
Q 594 497 594 1153 
L 594 3053 
L 172 3053 
L 172 3500 
L 594 3500 
L 594 4494 
L 1172 4494 
z
" id="DejaVuSans-74" transform="scale(0.015625)"/>
       <path d="M 313 2009 
L 1997 2009 
L 1997 1497 
L 313 1497 
L 313 2009 
z
" id="DejaVuSans-2d" transform="scale(0.015625)"/>
       <path d="M 1831 0 
L 50 4666 
L 709 4666 
L 2188 738 
L 3669 4666 
L 4325 4666 
L 2547 0 
L 1831 0 
z
" id="DejaVuSans-56" transform="scale(0.015625)"/>
       <path d="M 544 1381 
L 544 3500 
L 1119 3500 
L 1119 1403 
Q 1119 906 1312 657 
Q 1506 409 1894 409 
Q 2359 409 2629 706 
Q 2900 1003 2900 1516 
L 2900 3500 
L 3475 3500 
L 3475 0 
L 2900 0 
L 2900 538 
Q 2691 219 2414 64 
Q 2138 -91 1772 -91 
Q 1169 -91 856 284 
Q 544 659 544 1381 
z
M 1991 3584 
L 1991 3584 
z
" id="DejaVuSans-75" transform="scale(0.015625)"/>
       <path d="M 628 4666 
L 3309 4666 
L 3309 4134 
L 1259 4134 
L 1259 2759 
L 3109 2759 
L 3109 2228 
L 1259 2228 
L 1259 0 
L 628 0 
L 628 4666 
z
" id="DejaVuSans-46" transform="scale(0.015625)"/>
       <path d="M 3513 2113 
L 3513 0 
L 2938 0 
L 2938 2094 
Q 2938 2591 2744 2837 
Q 2550 3084 2163 3084 
Q 1697 3084 1428 2787 
Q 1159 2491 1159 1978 
L 1159 0 
L 581 0 
L 581 3500 
L 1159 3500 
L 1159 2956 
Q 1366 3272 1645 3428 
Q 1925 3584 2291 3584 
Q 2894 3584 3203 3211 
Q 3513 2838 3513 2113 
z
" id="DejaVuSans-6e" transform="scale(0.015625)"/>
      </defs>
      <use xlink:href="#DejaVuSans-53"/>
      <use x="63.476562" xlink:href="#DejaVuSans-74"/>
      <use x="102.685547" xlink:href="#DejaVuSans-61"/>
      <use x="163.964844" xlink:href="#DejaVuSans-74"/>
      <use x="203.173828" xlink:href="#DejaVuSans-65"/>
      <use x="264.697266" xlink:href="#DejaVuSans-2d"/>
      <use x="294.90625" xlink:href="#DejaVuSans-56"/>
      <use x="355.564453" xlink:href="#DejaVuSans-61"/>
      <use x="416.84375" xlink:href="#DejaVuSans-6c"/>
      <use x="444.626953" xlink:href="#DejaVuSans-75"/>
      <use x="508.005859" xlink:href="#DejaVuSans-65"/>
      <use x="569.529297" xlink:href="#DejaVuSans-20"/>
      <use x="601.316406" xlink:href="#DejaVuSans-46"/>
      <use x="653.335938" xlink:href="#DejaVuSans-75"/>
      <use x="716.714844" xlink:href="#DejaVuSans-6e"/>
      <use x="780.09375" xlink:href="#DejaVuSans-63"/>
      <use x="835.074219" xlink:href="#DejaVuSans-74"/>
      <use x="874.283203" xlink:href="#DejaVuSans-69"/>
      <use x="902.066406" xlink:href="#DejaVuSans-6f"/>
      <use x="963.248047" xlink:href="#DejaVuSans-6e"/>
     </g>
    </g>
   </g>
   <g id="line2d_32">
    <path clip-path="url(#p9329146635)" d="M -1 492.48 
L 232.273123 492.477716 
L 257.642175 490.32028 
L 277.319941 489.288605 
L 293.397847 488.792972 
L 306.991522 488.1258 
L 318.7669 489.370541 
L 329.153518 488.200411 
L 338.444666 488.82731 
L 346.849531 487.759147 
L 354.522571 483.805251 
L 361.581084 478.953736 
L 368.116246 481.19092 
L 374.200337 480.015328 
L 379.891624 481.628947 
L 385.237766 481.615796 
L 395.046125 475.211095 
L 399.56939 471.794533 
L 403.871918 471.799299 
L 407.974255 471.528458 
L 411.894204 473.258141 
L 415.647295 474.172469 
L 419.247156 475.682962 
L 422.705808 475.325054 
L 426.033914 472.262664 
L 429.240971 468.792807 
L 432.335475 469.567113 
L 435.325061 463.703184 
L 438.21661 466.725501 
L 441.016348 466.714957 
L 443.729926 468.119122 
L 446.36249 465.17582 
L 448.918737 466.344037 
L 451.402967 466.745088 
L 453.819127 466.004482 
L 456.170849 468.286758 
L 458.46148 467.037918 
L 460.694114 466.183671 
L 462.871615 459.531373 
L 464.996642 459.781478 
L 467.071663 460.349286 
L 469.098979 458.646108 
L 471.080733 459.697742 
L 473.018928 459.454839 
L 474.915438 459.987511 
L 478.590317 458.945192 
L 480.37188 455.378094 
L 482.118161 458.844538 
L 483.830532 457.973085 
L 485.510285 459.512903 
L 487.158638 458.642794 
L 488.776745 459.535757 
L 490.365695 460.17691 
L 491.92652 456.964579 
L 493.460199 457.488552 
L 496.449785 450.168555 
L 497.907411 450.728902 
L 499.341334 451.051774 
L 500.752313 450.807242 
L 502.141072 451.785038 
L 503.508298 451.494012 
L 504.85465 451.708055 
L 506.180755 447.616057 
L 508.774599 443.536818 
L 510.043461 445.244411 
L 511.294323 446.152693 
L 512.527691 446.707797 
L 513.744046 446.292868 
L 514.943851 446.92698 
L 517.295573 446.125884 
L 518.448326 444.47897 
L 519.586204 444.309495 
L 520.709586 444.46985 
L 521.818838 445.468328 
L 522.91431 446.629888 
L 523.99634 447.058981 
L 526.121366 442.972938 
L 527.16498 444.046796 
L 528.196387 444.58876 
L 529.215871 442.399581 
L 530.223703 439.155595 
L 531.220147 441.214442 
L 532.205457 441.2952 
L 533.179879 441.816364 
L 534.143652 442.17579 
L 535.097005 441.595136 
L 536.040162 439.650407 
L 536.973339 441.437831 
L 537.896743 441.43725 
L 538.810579 439.730649 
L 539.715041 437.449567 
L 540.610322 436.003547 
L 541.496604 435.989719 
L 542.374067 436.23083 
L 543.242885 434.58351 
L 544.103227 434.169564 
L 544.955256 436.596965 
L 545.799132 435.923507 
L 546.635009 436.490081 
L 547.463037 437.478505 
L 548.283362 437.046641 
L 549.096127 438.010999 
L 550.699523 436.798 
L 551.490419 436.473182 
L 552.274285 436.446124 
L 553.051244 437.644278 
L 553.821418 437.589968 
L 554.584923 437.028223 
L 555.341875 437.617765 
L 556.092385 438.391806 
L 556.836561 437.132997 
L 557.574509 436.408646 
L 558.306334 436.387398 
L 559.032135 435.623444 
L 559.752011 435.918731 
L 560.466058 436.456872 
L 561.17437 436.325495 
L 561.877038 437.156388 
L 563.265796 436.222001 
L 563.952059 436.371657 
L 564.633022 435.897369 
L 565.308768 436.296274 
L 566.64492 436.581334 
L 567.961128 435.736137 
L 568.611938 435.853674 
L 569.25798 435.6371 
L 569.899323 435.974284 
L 570.536036 435.731796 
L 571.168185 435.670422 
L 572.419047 434.987118 
L 573.037887 434.443329 
L 573.652415 434.05347 
L 574.86877 434.474574 
L 575.470713 435.106808 
L 576.068575 434.322407 
L 576.662411 433.950456 
L 577.83822 434.155941 
L 578.998557 435.285349 
L 579.57305 434.906761 
L 580.143824 434.215097 
L 580.710928 433.886636 
L 581.274408 433.87096 
L 581.83431 434.193587 
L 582.39068 434.272442 
L 583.492999 435.15687 
L 584.039034 434.695748 
L 584.581708 433.950597 
L 585.121064 433.785938 
L 585.65714 433.914049 
L 586.189978 433.492467 
L 586.719615 433.356887 
L 587.24609 433.799442 
L 587.769441 433.590357 
L 588.289704 433.626159 
L 588.806916 432.867222 
L 589.321111 432.350796 
L 589.832326 432.285349 
L 590.340595 431.62306 
L 590.845951 431.638406 
L 591.348427 431.285905 
L 591.848056 431.708329 
L 593.330181 431.925978 
L 593.818738 431.689777 
L 594.787806 431.878356 
L 595.268376 431.724295 
L 595.746341 431.956039 
L 596.22173 431.559243 
L 596.694569 431.614555 
L 597.164887 430.900862 
L 597.632709 431.328091 
L 598.098063 431.595723 
L 598.560974 431.727675 
L 599.021467 431.266368 
L 600.388694 431.672632 
L 600.839766 431.647765 
L 601.288542 431.457731 
L 602.621328 431.617944 
L 603.061151 431.252867 
L 603.498791 431.047021 
L 604.367609 431.010256 
L 604.79883 430.722449 
L 605.227951 430.668648 
L 605.654995 430.444747 
L 606.07998 430.501991 
L 607.759733 429.900105 
L 608.174719 429.494135 
L 608.587761 429.671793 
L 608.998877 429.460837 
L 609.408086 429.563101 
L 609.815405 429.477098 
L 610.220851 429.60158 
L 611.026193 429.306783 
L 611.426123 429.399043 
L 612.220581 429.025464 
L 612.615143 429.153182 
L 613.007947 428.912079 
L 613.399009 428.980757 
L 614.175968 428.854242 
L 614.946142 428.790476 
L 615.328721 429.012905 
L 615.709648 429.009912 
L 616.466599 429.159389 
L 621.234481 428.133373 
L 621.590782 428.268389 
L 622.299094 428.070048 
L 623.001762 428.084326 
L 623.698875 427.948599 
L 624.39052 427.768902 
L 625.417922 427.584952 
L 626.096266 427.605662 
L 626.433492 427.626601 
L 626.769433 427.865441 
L 627.437499 427.940969 
L 628.100542 427.70355 
L 629.085852 427.98419 
L 629.411858 427.899567 
L 629.736662 427.974081 
L 631.024048 427.743343 
L 631.342979 427.865096 
L 631.977401 427.794925 
L 632.292909 427.797424 
L 632.607292 427.660752 
L 633.853734 427.610572 
L 634.47041 427.469825 
L 635.690974 427.82363 
L 635.993494 427.766785 
L 636.294979 427.552502 
L 636.894875 427.551224 
L 637.787135 427.672716 
L 639.545021 427.461065 
L 640.410995 427.805352 
L 640.983623 427.522623 
L 641.552556 427.326396 
L 641.835652 427.461289 
L 643.237658 427.472899 
L 644.343432 427.759129 
L 644.617723 427.584002 
L 644.891163 427.589507 
L 645.163758 427.26451 
L 645.435512 427.139862 
L 645.976522 427.317702 
L 647.048686 427.419785 
L 647.579918 427.218865 
L 648.370814 427.252821 
L 648.632878 427.104678 
L 649.15468 427.342149 
L 649.93164 426.985297 
L 650.189112 427.128739 
L 650.701814 426.945237 
L 651.211551 427.112642 
L 651.970675 427.198507 
L 652.473151 427.148972 
L 652.723319 427.309099 
L 652.97278 427.222969 
L 653.221537 427.271944 
L 653.716956 427.616306 
L 653.963626 427.475149 
L 654.209608 427.532514 
L 654.454905 427.425686 
L 654.699522 427.456197 
L 654.943462 427.221345 
L 656.871065 427.098874 
L 657.10908 426.889818 
L 658.054765 426.728144 
L 658.289611 426.469787 
L 658.523832 426.502083 
L 659.454546 426.164554 
L 660.604293 426.64679 
L 661.060027 426.400344 
L 662.413266 426.026688 
L 662.85977 425.82833 
L 663.966238 425.838261 
L 664.185875 425.692162 
L 664.404967 425.772143 
L 665.058994 425.518697 
L 665.27593 425.548419 
L 665.492334 425.352476 
L 665.923554 425.270136 
L 666.138376 425.033097 
L 666.779719 425.294147 
L 666.992468 425.380479 
L 667.204705 425.265944 
L 667.416432 425.289024 
L 667.838367 425.554438 
L 668.467509 425.488899 
L 669.299443 425.711271 
L 670.736705 425.975153 
L 670.940129 425.962943 
L 671.143085 426.064962 
L 671.345575 425.87934 
L 672.948971 425.910667 
L 673.345305 426.016474 
L 673.739867 426.001022 
L 674.328419 425.824934 
L 674.523733 426.014805 
L 674.718615 425.889484 
L 675.107093 426.037525 
L 675.878952 425.985341 
L 676.070866 426.035075 
L 676.644114 425.645234 
L 677.967377 425.807739 
L 678.154804 425.930386 
L 678.341833 425.867517 
L 678.714706 426.095349 
L 678.900553 425.991073 
L 679.086009 426.182377 
L 679.640049 426.334796 
L 680.190629 426.533223 
L 680.555782 426.498528 
L 680.737793 426.270898 
L 680.919429 426.383932 
L 681.281583 426.352307 
L 681.82204 426.433964 
L 682.359205 426.559899 
L 682.537536 426.377 
L 682.715506 426.389186 
L 682.893118 426.57225 
L 683.070373 426.525995 
L 683.247273 426.363466 
L 683.247273 426.363466 
" style="fill:none;stroke:#1f77b4;stroke-linecap:square;stroke-width:2;"/>
   </g>
   <g id="line2d_33">
    <path clip-path="url(#p9329146635)" d="M -1 422.796584 
L 683.247273 422.796584 
L 683.247273 422.796584 
" style="fill:none;stroke:#000000;stroke-dasharray:7.4,3.2;stroke-dashoffset:0;stroke-width:2;"/>
   </g>
   <g id="line2d_34">
    <path clip-path="url(#p9329146635)" d="M -1 492.48 
L 135.392727 492.48 
L 196.517451 492.084921 
L 232.273123 488.347288 
L 257.642175 485.469059 
L 277.319941 481.535956 
L 293.397847 479.093342 
L 306.991522 473.150654 
L 318.7669 470.792236 
L 329.153518 463.287559 
L 338.444666 459.991023 
L 346.849531 459.874773 
L 354.522571 447.897569 
L 361.581084 439.288688 
L 368.116246 442.032888 
L 374.200337 437.618123 
L 379.891624 434.791575 
L 385.237766 429.02632 
L 390.278242 429.80482 
L 395.046125 425.804395 
L 399.56939 419.289939 
L 407.974255 412.113546 
L 411.894204 406.923554 
L 415.647295 413.884241 
L 419.247156 415.688779 
L 422.705808 415.539707 
L 426.033914 414.439155 
L 429.240971 413.921478 
L 432.335475 409.944988 
L 435.325061 401.859811 
L 438.21661 398.536362 
L 441.016348 404.245694 
L 443.729926 398.692964 
L 446.36249 397.384441 
L 448.918737 398.503991 
L 451.402967 400.835707 
L 453.819127 399.783558 
L 456.170849 400.316587 
L 458.46148 397.907582 
L 460.694114 392.035488 
L 462.871615 394.726069 
L 464.996642 394.531654 
L 467.071663 394.830867 
L 469.098979 389.76305 
L 471.080733 385.115676 
L 473.018928 386.945936 
L 474.915438 389.980754 
L 476.772019 394.819989 
L 478.590317 391.882249 
L 480.37188 390.744863 
L 482.118161 395.237795 
L 483.830532 395.681377 
L 485.510285 401.236975 
L 487.158638 403.268302 
L 488.776745 402.246932 
L 490.365695 398.055985 
L 491.92652 389.027652 
L 493.460199 389.038198 
L 494.967661 381.539782 
L 496.449785 380.802395 
L 497.907411 382.229195 
L 499.341334 379.52987 
L 500.752313 379.839223 
L 502.141072 382.109419 
L 503.508298 381.97002 
L 504.85465 378.637165 
L 506.180755 379.227641 
L 507.487214 380.225776 
L 508.774599 379.709277 
L 510.043461 380.630286 
L 511.294323 379.566281 
L 512.527691 380.180096 
L 513.744046 380.403471 
L 514.943851 379.183562 
L 516.127551 377.431968 
L 517.295573 378.696154 
L 518.448326 374.992249 
L 519.586204 376.712805 
L 520.709586 376.082044 
L 521.818838 374.034052 
L 522.91431 373.286863 
L 523.99634 371.086693 
L 525.065254 370.823875 
L 526.121366 371.768386 
L 527.16498 373.991855 
L 528.196387 374.731837 
L 529.215871 372.202424 
L 530.223703 371.416712 
L 531.220147 372.197773 
L 532.205457 371.785286 
L 533.179879 371.572227 
L 534.143652 372.670282 
L 535.097005 374.14826 
L 536.040162 371.375891 
L 536.973339 370.324852 
L 537.896743 368.934897 
L 538.810579 368.635625 
L 539.715041 368.204462 
L 540.610322 368.136786 
L 541.496604 367.508292 
L 542.374067 367.237837 
L 543.242885 367.486879 
L 544.103227 367.454426 
L 544.955256 367.678407 
L 545.799132 366.157964 
L 546.635009 364.919696 
L 547.463037 364.735027 
L 548.283362 365.74752 
L 549.096127 365.253859 
L 549.901469 365.31601 
L 550.699523 365.535885 
L 553.051244 367.395428 
L 553.821418 367.617314 
L 554.584923 368.051967 
L 555.341875 368.877895 
L 556.092385 368.617718 
L 556.836561 367.691417 
L 557.574509 365.851438 
L 558.306334 366.56566 
L 559.032135 366.696732 
L 559.752011 365.947745 
L 560.466058 366.906192 
L 561.17437 366.394648 
L 561.877038 368.813622 
L 562.574151 367.436663 
L 563.265796 367.170314 
L 563.952059 368.470805 
L 564.633022 368.078801 
L 565.308768 368.466503 
L 565.979374 368.481111 
L 566.64492 367.483469 
L 567.305479 368.649797 
L 567.961128 367.924127 
L 568.611938 368.194253 
L 571.795834 364.723258 
L 572.419047 365.80522 
L 573.037887 365.866735 
L 573.652415 365.105848 
L 574.86877 365.079021 
L 575.470713 365.883547 
L 576.068575 365.065281 
L 577.252275 364.142564 
L 578.420297 365.493466 
L 578.998557 365.366995 
L 579.57305 365.00241 
L 580.710928 363.183672 
L 581.274408 362.814586 
L 581.83431 362.980308 
L 582.39068 363.438363 
L 582.943562 363.555531 
L 583.492999 363.092559 
L 584.581708 363.081037 
L 585.121064 362.211411 
L 585.65714 362.165015 
L 586.189978 362.765973 
L 586.719615 362.83327 
L 587.24609 362.785554 
L 587.769441 362.568162 
L 588.289704 362.596342 
L 590.340595 360.85289 
L 591.348427 359.93609 
L 591.848056 360.170744 
L 592.344871 360.247777 
L 592.838902 359.533019 
L 593.330181 359.596274 
L 593.818738 359.334017 
L 594.787806 359.747319 
L 595.268376 359.825642 
L 595.746341 360.115926 
L 596.22173 360.103653 
L 596.694569 359.898872 
L 597.632709 360.060421 
L 598.098063 359.964367 
L 598.560974 359.219482 
L 599.021467 358.952895 
L 599.935303 359.08727 
L 600.839766 359.9319 
L 601.288542 359.895511 
L 602.1793 360.421889 
L 603.061151 359.92417 
L 603.498791 360.680746 
L 603.93427 360.433031 
L 604.367609 360.886752 
L 605.227951 360.179163 
L 605.654995 360.038752 
L 606.07998 360.131712 
L 606.502928 359.863721 
L 606.923856 359.336341 
L 607.342785 359.218346 
L 607.759733 358.711459 
L 608.998877 358.517218 
L 609.408086 358.537284 
L 609.815405 358.013422 
L 611.426123 358.345827 
L 611.824247 358.588252 
L 612.615143 358.423605 
L 613.007947 358.590692 
L 613.788344 358.258442 
L 614.175968 358.135778 
L 614.561896 358.250237 
L 614.946142 358.148739 
L 615.328721 358.223356 
L 616.088936 358.058361 
L 616.466599 358.358119 
L 616.842652 358.292945 
L 617.217109 358.480646 
L 617.961285 358.265413 
L 618.331031 358.430879 
L 618.699233 358.456832 
L 619.065905 358.225944 
L 620.876735 358.14716 
L 621.234481 357.880285 
L 622.299094 358.167348 
L 622.651128 357.893371 
L 623.698875 357.94644 
L 624.045375 357.689521 
L 624.734319 357.962612 
L 625.076783 358.308991 
L 625.417922 358.305248 
L 625.757746 358.557397 
L 626.096266 358.541848 
L 626.769433 358.806976 
L 627.437499 358.846526 
L 627.769644 358.706141 
L 628.100542 358.91159 
L 630.060275 358.660432 
L 630.382704 358.314 
L 631.024048 358.139681 
L 631.66076 357.942196 
L 631.977401 357.750705 
L 632.607292 357.923581 
L 632.920558 358.168557 
L 634.162611 357.967271 
L 634.47041 358.047352 
L 634.777139 357.985386 
L 635.387414 358.041793 
L 635.993494 357.941569 
L 636.595437 357.452026 
L 637.193299 357.539204 
L 637.787135 357.715728 
L 638.376999 357.455604 
L 640.123281 357.135572 
L 642.959034 356.944091 
L 643.237658 357.102212 
L 643.792279 356.981671 
L 644.068286 356.773597 
L 644.891163 356.785362 
L 645.435512 356.872944 
L 645.706432 356.724821 
L 645.976522 356.737871 
L 646.514233 356.524501 
L 646.781864 356.705917 
L 647.314702 356.616638 
L 647.844339 356.449479 
L 648.370814 356.753592 
L 648.894165 356.557874 
L 649.15468 356.605387 
L 649.414428 356.374584 
L 649.673413 355.981284 
L 650.189112 355.933082 
L 650.445836 355.711898 
L 651.211551 355.874989 
L 651.465319 355.611993 
L 651.718359 355.652236 
L 652.723319 355.352851 
L 652.97278 355.06826 
L 653.716956 355.211363 
L 653.963626 355.407523 
L 654.209608 355.4581 
L 654.699522 355.705004 
L 654.943462 355.848332 
L 655.429327 355.60329 
L 655.91253 355.232427 
L 656.153143 355.451954 
L 657.10908 355.299401 
L 657.58319 355.705739 
L 658.054765 355.585998 
L 658.289611 355.620851 
L 658.990417 355.319892 
L 659.454546 355.54098 
L 659.685698 355.349445 
L 660.146192 355.450731 
L 660.37554 355.193041 
L 661.287014 355.414102 
L 661.513418 355.50058 
L 661.96449 355.334161 
L 662.189163 355.255669 
L 662.6368 354.72492 
L 663.525315 354.680857 
L 663.746052 354.47812 
L 663.966238 354.680718 
L 664.185875 354.431583 
L 664.623515 354.496543 
L 664.841524 354.324508 
L 665.058994 354.434203 
L 665.492334 354.255918 
L 665.923554 353.917889 
L 666.352675 354.110369 
L 666.566456 353.879401 
L 666.779719 353.96417 
L 667.204705 353.854438 
L 667.627652 353.738421 
L 667.838367 354.046434 
L 668.04858 354.084105 
L 668.467509 354.293492 
L 669.299443 353.769015 
L 670.123602 354.222404 
L 670.328443 354.209073 
L 670.53281 354.331013 
L 670.736705 354.099994 
L 672.150917 353.952767 
L 672.550847 353.593783 
L 672.750133 353.47549 
L 673.345305 353.653793 
L 673.739867 353.62285 
L 673.936488 353.789533 
L 674.132671 353.705672 
L 674.523733 354.050924 
L 674.913068 354.281581 
L 675.300692 353.984428 
L 675.68662 354.335458 
L 675.878952 354.312719 
L 676.070866 354.441502 
L 676.262363 354.760987 
L 676.453445 354.459034 
L 676.834372 354.322852 
L 677.02422 354.431879 
L 677.21366 354.332863 
L 677.402694 354.104835 
L 677.591323 354.070509 
L 677.967377 354.351914 
L 678.154804 354.400265 
L 678.714706 354.161658 
L 679.086009 354.506409 
L 679.271076 354.434282 
L 679.455755 354.543096 
L 680.007484 354.388472 
L 680.190629 354.418814 
L 680.737793 354.122602 
L 680.919429 354.310782 
L 681.100692 354.063805 
L 681.281583 354.253198 
L 681.82204 354.213148 
L 682.001459 354.399372 
L 682.180514 354.268635 
L 683.247273 354.528131 
L 683.247273 354.528131 
" style="fill:none;stroke:#ff7f0e;stroke-linecap:square;stroke-width:2;"/>
   </g>
   <g id="line2d_35">
    <path clip-path="url(#p9329146635)" d="M -1 351.283205 
L 683.247273 351.283205 
L 683.247273 351.283205 
" style="fill:none;stroke:#000000;stroke-dasharray:7.4,3.2;stroke-dashoffset:0;stroke-width:2;"/>
   </g>
   <g id="line2d_36">
    <path clip-path="url(#p9329146635)" d="M -1 492.48 
L 135.392727 492.48 
L 196.517451 485.81889 
L 232.273123 474.10456 
L 257.642175 464.520629 
L 277.319941 445.659525 
L 293.397847 427.911295 
L 306.991522 415.26185 
L 318.7669 406.130628 
L 329.153518 389.625127 
L 338.444666 383.805058 
L 346.849531 373.964266 
L 354.522571 360.289341 
L 361.581084 352.910131 
L 368.116246 342.172727 
L 374.200337 332.421692 
L 379.891624 329.088646 
L 385.237766 326.511169 
L 390.278242 320.483316 
L 395.046125 323.170612 
L 399.56939 323.062284 
L 403.871918 323.220788 
L 407.974255 328.673005 
L 415.647295 317.25531 
L 419.247156 319.574228 
L 422.705808 320.279206 
L 426.033914 323.193147 
L 429.240971 320.792492 
L 432.335475 321.605034 
L 435.325061 314.776083 
L 438.21661 311.825349 
L 441.016348 313.804611 
L 443.729926 312.897265 
L 446.36249 313.682272 
L 448.918737 307.882792 
L 451.402967 309.077984 
L 456.170849 299.134279 
L 458.46148 300.363888 
L 460.694114 300.030212 
L 462.871615 302.977979 
L 464.996642 299.918091 
L 467.071663 301.168447 
L 469.098979 299.784072 
L 471.080733 297.22082 
L 473.018928 297.189621 
L 474.915438 297.787979 
L 476.772019 300.938199 
L 478.590317 299.817066 
L 480.37188 299.518078 
L 482.118161 301.59769 
L 483.830532 297.571012 
L 485.510285 302.246834 
L 487.158638 300.784972 
L 488.776745 303.157662 
L 490.365695 298.325768 
L 491.92652 293.205847 
L 493.460199 293.068066 
L 494.967661 291.324635 
L 496.449785 286.495994 
L 497.907411 288.106412 
L 499.341334 285.96316 
L 500.752313 285.242323 
L 502.141072 290.608712 
L 503.508298 294.335777 
L 504.85465 292.383217 
L 506.180755 290.067326 
L 507.487214 292.244945 
L 508.774599 293.294885 
L 510.043461 293.495967 
L 511.294323 293.355876 
L 512.527691 292.847009 
L 513.744046 296.672972 
L 514.943851 293.766863 
L 516.127551 292.477439 
L 517.295573 292.551694 
L 518.448326 291.489812 
L 519.586204 290.730408 
L 520.709586 290.860187 
L 521.818838 292.022747 
L 522.91431 292.035887 
L 523.99634 289.150992 
L 525.065254 288.903226 
L 526.121366 287.552725 
L 527.16498 288.017252 
L 529.215871 285.818123 
L 530.223703 284.412157 
L 531.220147 284.404006 
L 532.205457 285.433521 
L 533.179879 287.247084 
L 534.143652 288.40018 
L 535.097005 288.086915 
L 536.040162 286.201085 
L 536.973339 285.735793 
L 537.896743 286.198395 
L 538.810579 285.784187 
L 539.715041 287.625408 
L 540.610322 287.539736 
L 541.496604 286.114837 
L 542.374067 286.714326 
L 543.242885 284.685601 
L 544.103227 284.40376 
L 544.955256 284.455334 
L 545.799132 281.695065 
L 546.635009 283.251864 
L 547.463037 287.186486 
L 548.283362 287.065245 
L 549.096127 286.219721 
L 549.901469 287.453181 
L 550.699523 287.810889 
L 551.490419 286.845888 
L 552.274285 285.582048 
L 553.051244 286.183747 
L 553.821418 286.04331 
L 554.584923 287.393688 
L 555.341875 285.802507 
L 556.092385 285.555495 
L 556.836561 286.819009 
L 557.574509 286.857502 
L 558.306334 287.550601 
L 559.032135 286.413529 
L 559.752011 287.052566 
L 560.466058 289.044134 
L 561.17437 289.075565 
L 561.877038 289.87579 
L 562.574151 290.413237 
L 563.265796 288.491457 
L 563.952059 288.442627 
L 564.633022 286.985701 
L 565.979374 286.994647 
L 566.64492 286.971326 
L 567.961128 287.162454 
L 568.611938 285.315105 
L 569.899323 285.17821 
L 570.536036 285.92795 
L 571.168185 284.966947 
L 571.795834 283.673899 
L 572.419047 284.044579 
L 573.037887 283.045925 
L 573.652415 283.377395 
L 574.262689 283.175186 
L 574.86877 283.164694 
L 575.470713 283.653242 
L 576.068575 284.297861 
L 576.662411 284.560959 
L 577.83822 283.13537 
L 578.420297 282.373262 
L 578.998557 282.200664 
L 579.57305 280.768171 
L 580.710928 281.809953 
L 581.274408 281.475094 
L 581.83431 281.596844 
L 582.39068 281.38189 
L 582.943562 280.921374 
L 583.492999 281.818228 
L 584.581708 282.538061 
L 585.121064 283.532427 
L 586.189978 283.718993 
L 586.719615 283.636294 
L 588.289704 284.408733 
L 588.806916 285.263577 
L 589.321111 285.2083 
L 590.340595 284.659994 
L 590.845951 284.67664 
L 591.848056 285.068444 
L 592.344871 285.612247 
L 592.838902 285.37111 
L 593.330181 285.606728 
L 594.787806 284.415408 
L 595.746341 284.037417 
L 596.22173 284.318075 
L 596.694569 284.295858 
L 597.164887 284.541313 
L 597.632709 284.488185 
L 598.098063 284.597931 
L 598.560974 284.283552 
L 599.021467 284.812824 
L 599.935303 284.667976 
L 600.839766 284.84555 
L 601.288542 284.996973 
L 602.621328 284.03874 
L 603.061151 284.227055 
L 603.93427 284.91337 
L 605.227951 284.145104 
L 605.654995 284.272161 
L 606.923856 283.055943 
L 608.174719 282.402642 
L 608.587761 282.522355 
L 608.998877 283.015192 
L 609.408086 282.573725 
L 610.220851 282.729936 
L 610.624441 282.958086 
L 611.026193 282.897375 
L 611.426123 282.661899 
L 611.824247 282.629591 
L 612.220581 282.753358 
L 613.399009 282.006975 
L 614.175968 281.614136 
L 614.561896 281.765825 
L 614.946142 281.783566 
L 615.709648 281.454829 
L 616.088936 281.056015 
L 616.466599 281.00364 
L 616.842652 281.087849 
L 617.217109 281.329822 
L 618.331031 281.172482 
L 618.699233 281.241697 
L 619.065905 281.119797 
L 619.431058 280.856925 
L 620.517532 280.736515 
L 621.590782 280.544689 
L 621.945649 280.878192 
L 622.651128 280.682721 
L 623.001762 280.928243 
L 623.351007 280.98909 
L 623.698875 281.196038 
L 624.734319 281.162429 
L 625.757746 281.015133 
L 626.433492 281.187104 
L 629.085852 281.373482 
L 629.411858 281.14425 
L 631.342979 281.045254 
L 632.920558 281.444214 
L 633.232715 281.039572 
L 633.543771 280.874497 
L 633.853734 280.463578 
L 634.162611 280.407639 
L 634.47041 280.512413 
L 634.777139 280.467982 
L 635.387414 280.594601 
L 635.690974 280.555145 
L 635.993494 280.392808 
L 636.595437 280.742974 
L 636.894875 280.36173 
L 637.490717 280.099348 
L 638.376999 280.16766 
L 638.962944 279.905256 
L 640.697774 279.855537 
L 641.268548 279.796081 
L 641.835652 279.759123 
L 642.117842 280.027682 
L 642.679528 279.98501 
L 642.959034 279.667251 
L 643.237658 279.529234 
L 644.617723 279.624944 
L 644.891163 279.258721 
L 645.163758 279.322963 
L 645.976522 279.845178 
L 646.245788 279.702574 
L 646.514233 279.81808 
L 646.781864 280.117781 
L 647.844339 280.347574 
L 648.894165 279.747354 
L 649.414428 280.14937 
L 650.189112 279.934367 
L 650.445836 279.987879 
L 650.701814 279.827453 
L 650.957051 279.94703 
L 651.211551 279.722998 
L 651.465319 279.784507 
L 651.718359 279.673839 
L 652.723319 280.000609 
L 652.97278 280.002099 
L 653.221537 279.689524 
L 653.716956 279.709173 
L 653.963626 279.996444 
L 654.209608 279.808918 
L 654.454905 279.789119 
L 654.699522 279.645954 
L 655.186729 279.588705 
L 655.429327 279.734629 
L 655.67126 279.631066 
L 655.91253 279.854836 
L 656.632407 279.721754 
L 656.871065 279.624652 
L 657.346454 279.819164 
L 657.58319 279.674336 
L 658.757433 279.593811 
L 658.990417 279.825462 
L 659.222787 279.859669 
L 659.454546 279.605106 
L 659.685698 279.66038 
L 659.916245 279.458552 
L 660.146192 279.638988 
L 660.37554 279.551525 
L 660.604293 279.82849 
L 660.832454 279.637838 
L 661.287014 279.733001 
L 661.513418 279.611624 
L 661.739242 279.291225 
L 662.413266 279.195754 
L 662.85977 279.154874 
L 663.082177 279.043595 
L 663.304024 279.278117 
L 663.525315 279.296994 
L 664.185875 279.678614 
L 664.623515 279.751252 
L 665.058994 280.009909 
L 665.27593 279.98078 
L 665.492334 280.22552 
L 666.138376 279.829732 
L 666.566456 279.971269 
L 666.779719 279.903696 
L 666.992468 280.001778 
L 667.204705 279.935251 
L 667.416432 279.549066 
L 667.627652 279.70916 
L 668.467509 279.48812 
L 668.676229 279.533528 
L 668.884457 279.459779 
L 669.092194 279.247269 
L 669.299443 279.211555 
L 669.506206 279.319122 
L 669.712485 278.953548 
L 670.328443 279.583025 
L 670.736705 279.54816 
L 670.940129 279.159308 
L 671.143085 279.039917 
L 671.345575 279.076216 
L 671.749165 278.812633 
L 672.150917 278.846951 
L 673.147361 278.431183 
L 673.345305 278.163325 
L 673.542807 278.479105 
L 673.936488 278.612892 
L 674.132671 278.412198 
L 674.328419 278.496802 
L 674.523733 278.82994 
L 674.718615 278.909889 
L 675.493867 279.906353 
L 675.68662 279.980474 
L 676.070866 279.710101 
L 676.262363 279.60466 
L 676.644114 279.951889 
L 676.834372 279.810486 
L 677.21366 279.777772 
L 677.77955 279.034392 
L 677.967377 279.137602 
L 678.341833 278.627043 
L 678.528467 278.831132 
L 678.714706 278.785559 
L 678.900553 278.931783 
L 679.455755 278.632908 
L 679.823958 278.999688 
L 680.007484 278.838207 
L 680.190629 278.873258 
L 680.373394 279.203529 
L 681.100692 279.03032 
L 681.281583 278.793013 
L 682.001459 279.49189 
L 682.180514 279.247941 
L 682.537536 279.243143 
L 682.715506 278.978832 
L 683.070373 279.074155 
L 683.247273 278.776961 
L 683.247273 278.776961 
" style="fill:none;stroke:#2ca02c;stroke-linecap:square;stroke-width:2;"/>
   </g>
   <g id="line2d_37">
    <path clip-path="url(#p9329146635)" d="M -1 276.917367 
L 683.247273 276.917367 
L 683.247273 276.917367 
" style="fill:none;stroke:#000000;stroke-dasharray:7.4,3.2;stroke-dashoffset:0;stroke-width:2;"/>
   </g>
   <g id="line2d_38">
    <path clip-path="url(#p9329146635)" d="M -1 443.889989 
L 135.392727 443.857328 
L 196.517451 426.657302 
L 232.273123 384.86867 
L 257.642175 368.857229 
L 277.319941 337.200365 
L 293.397847 314.468971 
L 306.991522 299.36408 
L 329.153518 258.106863 
L 338.444666 256.788281 
L 346.849531 241.475586 
L 354.522571 237.857232 
L 361.581084 224.19612 
L 368.116246 213.724192 
L 374.200337 216.590127 
L 379.891624 212.314307 
L 385.237766 197.901664 
L 390.278242 203.148784 
L 395.046125 208.366416 
L 399.56939 209.386676 
L 403.871918 216.005894 
L 407.974255 216.153656 
L 411.894204 210.684187 
L 415.647295 211.42634 
L 419.247156 205.348838 
L 422.705808 210.065362 
L 426.033914 212.814475 
L 429.240971 208.120772 
L 432.335475 211.771491 
L 435.325061 207.124294 
L 438.21661 205.736972 
L 441.016348 206.741755 
L 443.729926 205.153928 
L 446.36249 204.699398 
L 448.918737 198.859423 
L 453.819127 195.03892 
L 456.170849 198.761481 
L 458.46148 198.833684 
L 460.694114 198.346235 
L 462.871615 199.43071 
L 467.071663 195.966679 
L 469.098979 200.743881 
L 471.080733 197.139239 
L 473.018928 197.105671 
L 474.915438 193.07555 
L 476.772019 194.193936 
L 478.590317 194.528494 
L 480.37188 192.502075 
L 482.118161 193.436748 
L 483.830532 191.976357 
L 485.510285 196.331704 
L 487.158638 196.703214 
L 488.776745 194.71669 
L 490.365695 191.372381 
L 491.92652 192.803105 
L 493.460199 193.928109 
L 494.967661 184.502641 
L 496.449785 184.189254 
L 497.907411 186.594773 
L 499.341334 189.736318 
L 500.752313 191.880172 
L 502.141072 194.731341 
L 503.508298 196.755648 
L 504.85465 196.596653 
L 506.180755 191.789595 
L 507.487214 193.25814 
L 508.774599 190.264872 
L 510.043461 190.630023 
L 511.294323 193.937163 
L 512.527691 196.805824 
L 513.744046 194.276793 
L 514.943851 197.117008 
L 517.295573 194.006414 
L 518.448326 194.097443 
L 519.586204 193.038269 
L 520.709586 193.802101 
L 521.818838 195.468722 
L 522.91431 194.799567 
L 525.065254 195.666748 
L 526.121366 193.774071 
L 527.16498 195.935513 
L 528.196387 196.23373 
L 529.215871 199.068621 
L 530.223703 196.15476 
L 531.220147 197.525685 
L 532.205457 197.734031 
L 533.179879 196.689932 
L 534.143652 198.060665 
L 535.097005 197.113945 
L 536.040162 196.367845 
L 536.973339 194.479057 
L 537.896743 196.339052 
L 538.810579 196.703854 
L 539.715041 197.349785 
L 540.610322 197.059606 
L 541.496604 197.767369 
L 542.374067 199.179479 
L 543.242885 195.018642 
L 544.103227 195.848418 
L 545.799132 196.585139 
L 546.635009 195.89108 
L 547.463037 197.158284 
L 548.283362 196.456535 
L 549.096127 196.991466 
L 549.901469 198.414623 
L 550.699523 197.310723 
L 552.274285 199.027226 
L 553.051244 199.891354 
L 554.584923 198.233369 
L 555.341875 197.416507 
L 556.092385 197.345333 
L 556.836561 194.529044 
L 557.574509 196.024898 
L 559.032135 194.462304 
L 559.752011 196.050697 
L 561.877038 199.424012 
L 562.574151 200.114728 
L 563.265796 199.573199 
L 563.952059 200.01727 
L 564.633022 199.195943 
L 565.308768 200.148549 
L 565.979374 201.426392 
L 566.64492 200.618823 
L 567.305479 200.780374 
L 567.961128 200.191929 
L 568.611938 200.555819 
L 569.25798 201.777124 
L 569.899323 201.794324 
L 570.536036 201.496672 
L 571.168185 201.389825 
L 571.795834 202.392355 
L 572.419047 202.429122 
L 573.037887 201.206759 
L 573.652415 201.664184 
L 574.262689 200.917029 
L 574.86877 200.353391 
L 575.470713 199.608343 
L 576.068575 199.620827 
L 576.662411 199.264734 
L 577.252275 198.637818 
L 577.83822 198.232479 
L 578.420297 197.614723 
L 578.998557 197.447013 
L 579.57305 196.920567 
L 580.710928 196.661157 
L 581.274408 197.44151 
L 581.83431 197.803862 
L 582.943562 199.109727 
L 583.492999 200.133797 
L 584.039034 200.390457 
L 585.121064 202.279673 
L 585.65714 202.345531 
L 586.189978 202.956848 
L 586.719615 202.275508 
L 587.24609 202.55159 
L 587.769441 202.331597 
L 588.289704 203.166958 
L 589.321111 201.335534 
L 589.832326 201.121567 
L 590.340595 200.044998 
L 590.845951 199.731734 
L 591.848056 200.528333 
L 592.344871 200.358386 
L 592.838902 199.912425 
L 593.330181 199.756199 
L 593.818738 201.971653 
L 594.304603 201.951782 
L 594.787806 202.527824 
L 595.746341 201.741637 
L 596.22173 201.795266 
L 597.164887 201.344067 
L 597.632709 201.479825 
L 598.098063 202.040327 
L 598.560974 201.907746 
L 599.021467 202.071997 
L 599.479569 201.998256 
L 599.935303 202.37187 
L 600.388694 202.036101 
L 600.839766 202.015192 
L 601.288542 201.274735 
L 601.735046 201.562383 
L 602.1793 201.509988 
L 602.621328 201.662608 
L 603.498791 201.054917 
L 603.93427 200.886114 
L 604.79883 201.362671 
L 606.07998 200.213682 
L 607.342785 200.687275 
L 608.174719 200.33395 
L 608.587761 200.607762 
L 609.408086 200.29929 
L 609.815405 200.465341 
L 610.220851 200.227584 
L 611.026193 200.171722 
L 611.426123 199.858944 
L 611.824247 199.702976 
L 612.220581 199.98411 
L 612.615143 199.623335 
L 613.007947 199.589689 
L 613.399009 199.822362 
L 614.175968 199.423851 
L 614.946142 199.692289 
L 615.328721 200.020629 
L 616.088936 199.612748 
L 616.466599 199.511324 
L 616.842652 199.556389 
L 617.217109 199.714739 
L 617.589982 199.63573 
L 617.961285 199.719829 
L 618.331031 199.583829 
L 619.794705 199.557668 
L 621.234481 199.278969 
L 622.299094 199.171776 
L 622.651128 199.451564 
L 623.001762 199.321479 
L 624.045375 199.298335 
L 625.076783 199.159854 
L 625.417922 199.401018 
L 626.096266 199.179351 
L 626.433492 199.082701 
L 626.769433 199.227638 
L 627.769644 199.266991 
L 628.430204 199.518799 
L 629.085852 199.376904 
L 631.024048 199.098112 
L 631.66076 198.557433 
L 631.977401 198.698579 
L 632.607292 198.556668 
L 633.232715 198.571189 
L 633.543771 198.239944 
L 633.853734 198.33858 
L 634.777139 198.318361 
L 635.082804 198.545943 
L 635.690974 198.403675 
L 635.993494 198.178312 
L 636.294979 198.321434 
L 636.894875 198.116295 
L 637.193299 198.42824 
L 637.490717 198.427266 
L 637.787135 198.658864 
L 638.082561 198.473088 
L 638.376999 198.619627 
L 638.670458 198.367844 
L 638.962944 198.318675 
L 639.545021 198.061399 
L 640.410995 197.920626 
L 640.697774 198.279298 
L 641.268548 197.981404 
L 641.552556 198.28093 
L 641.835652 198.192999 
L 642.117842 198.295047 
L 642.679528 198.12507 
L 643.792279 198.404196 
L 644.617723 198.559073 
L 644.891163 198.725402 
L 645.163758 198.681846 
L 645.435512 198.988742 
L 645.706432 198.623929 
L 646.514233 198.567403 
L 646.781864 198.72382 
L 647.048686 198.712287 
L 647.314702 199.072817 
L 648.10797 198.820672 
L 648.370814 199.014059 
L 648.632878 198.912452 
L 648.894165 199.009398 
L 649.15468 198.955453 
L 649.414428 199.111562 
L 650.445836 199.060637 
L 650.701814 199.245555 
L 650.957051 198.906701 
L 651.465319 198.786032 
L 651.970675 198.25839 
L 652.222271 198.424453 
L 652.723319 198.31904 
L 652.97278 198.452827 
L 653.221537 198.282135 
L 653.469595 198.334794 
L 654.209608 198.215059 
L 654.454905 198.28129 
L 654.699522 198.102796 
L 654.943462 198.502897 
L 655.429327 198.631455 
L 656.3931 198.080927 
L 657.346454 198.000605 
L 657.58319 197.760662 
L 657.819293 197.946076 
L 658.054765 197.76404 
L 658.289611 198.000613 
L 658.523832 197.835486 
L 658.757433 198.302417 
L 659.222787 198.161776 
L 659.916245 197.842083 
L 660.146192 197.545158 
L 660.37554 197.874264 
L 660.604293 197.724941 
L 660.832454 197.758098 
L 661.287014 197.640636 
L 661.739242 197.516608 
L 662.413266 197.702673 
L 662.6368 198.242584 
L 663.082177 198.003958 
L 663.525315 198.0715 
L 663.746052 198.353095 
L 663.966238 198.338053 
L 664.185875 198.551225 
L 664.404967 198.224928 
L 664.623515 198.264577 
L 665.058994 198.172727 
L 665.27593 198.461613 
L 665.708207 198.48593 
L 666.138376 198.296266 
L 666.352675 198.590518 
L 666.566456 198.600722 
L 666.779719 198.962318 
L 666.992468 198.952437 
L 667.204705 198.72058 
L 667.416432 198.664942 
L 668.04858 198.887969 
L 668.258293 198.635081 
L 668.676229 198.726398 
L 668.884457 198.512005 
L 669.299443 198.593522 
L 670.736705 198.408256 
L 671.345575 198.638114 
L 671.547601 198.640857 
L 672.150917 198.386206 
L 672.351109 198.470028 
L 672.550847 198.364764 
L 672.948971 198.459168 
L 673.345305 198.120536 
L 673.542807 198.041954 
L 673.739867 198.14494 
L 674.132671 198.175853 
L 674.913068 198.237293 
L 675.107093 197.880251 
L 675.300692 197.862433 
L 675.878952 198.418032 
L 676.453445 198.244976 
L 676.644114 198.287778 
L 677.02422 197.77542 
L 677.402694 198.447735 
L 677.591323 198.328518 
L 677.967377 198.52852 
L 678.341833 198.166837 
L 678.528467 198.109014 
L 678.900553 198.327165 
L 679.271076 198.326552 
L 679.640049 198.05163 
L 680.007484 197.932376 
L 680.190629 198.117778 
L 680.373394 197.955022 
L 680.737793 198.650159 
L 680.919429 198.891191 
L 681.281583 198.852777 
L 681.82204 198.982036 
L 682.001459 198.982304 
L 682.359205 199.298213 
L 682.537536 199.050765 
L 683.247273 199.010345 
L 683.247273 199.010345 
" style="fill:none;stroke:#d62728;stroke-linecap:square;stroke-width:2;"/>
   </g>
   <g id="line2d_39">
    <path clip-path="url(#p9329146635)" d="M -1 197.352295 
L 683.247273 197.352295 
L 683.247273 197.352295 
" style="fill:none;stroke:#000000;stroke-dasharray:7.4,3.2;stroke-dashoffset:0;stroke-width:2;"/>
   </g>
   <g id="line2d_40">
    <path clip-path="url(#p9329146635)" d="M -1 295.737978 
L 135.392727 295.70517 
L 196.517451 249.541821 
L 232.273123 192.541623 
L 257.642175 176.603473 
L 277.319941 160.576225 
L 293.397847 142.22782 
L 306.991522 137.304739 
L 318.7669 135.369923 
L 329.153518 134.307466 
L 338.444666 126.173651 
L 346.849531 121.397683 
L 354.522571 120.376935 
L 361.581084 111.033157 
L 368.116246 107.494966 
L 374.200337 104.927064 
L 379.891624 107.661067 
L 385.237766 105.73073 
L 390.278242 104.417825 
L 395.046125 103.042331 
L 399.56939 101.883715 
L 403.871918 98.711722 
L 407.974255 100.629571 
L 411.894204 99.622177 
L 415.647295 101.164946 
L 419.247156 97.330359 
L 422.705808 102.72378 
L 426.033914 102.06371 
L 429.240971 102.870338 
L 432.335475 100.949523 
L 435.325061 99.532401 
L 438.21661 103.388544 
L 441.016348 112.299331 
L 443.729926 109.036312 
L 446.36249 103.711853 
L 448.918737 100.68277 
L 451.402967 96.34647 
L 453.819127 95.179496 
L 456.170849 95.366034 
L 458.46148 97.288847 
L 462.871615 100.696794 
L 464.996642 96.152651 
L 467.071663 96.13496 
L 469.098979 96.540563 
L 471.080733 92.33089 
L 473.018928 93.426739 
L 474.915438 91.597481 
L 476.772019 91.941173 
L 478.590317 91.231861 
L 480.37188 93.679777 
L 482.118161 94.124927 
L 483.830532 94.399841 
L 485.510285 93.999429 
L 487.158638 96.837262 
L 488.776745 93.873151 
L 490.365695 92.977369 
L 491.92652 95.395126 
L 493.460199 92.276453 
L 494.967661 93.293461 
L 496.449785 90.438705 
L 497.907411 89.28 
L 499.341334 93.948016 
L 500.752313 96.673336 
L 502.141072 97.075904 
L 503.508298 96.292865 
L 504.85465 96.22766 
L 506.180755 98.770287 
L 507.487214 100.890419 
L 510.043461 96.94735 
L 511.294323 96.467579 
L 512.527691 98.09295 
L 513.744046 98.896797 
L 514.943851 99.407063 
L 516.127551 99.738672 
L 517.295573 97.813884 
L 518.448326 100.223205 
L 519.586204 100.715428 
L 520.709586 99.782816 
L 522.91431 98.728651 
L 523.99634 99.480444 
L 525.065254 99.831415 
L 526.121366 100.522072 
L 527.16498 102.998299 
L 528.196387 104.486 
L 529.215871 104.537427 
L 530.223703 103.962309 
L 531.220147 104.369139 
L 532.205457 104.261317 
L 533.179879 105.576754 
L 534.143652 104.762044 
L 535.097005 105.18497 
L 536.040162 101.416483 
L 536.973339 100.928219 
L 538.810579 100.357715 
L 539.715041 101.16107 
L 540.610322 100.664359 
L 541.496604 99.025282 
L 542.374067 99.308318 
L 544.103227 101.560578 
L 546.635009 103.384263 
L 547.463037 102.733656 
L 548.283362 103.118422 
L 549.096127 102.148954 
L 549.901469 102.830608 
L 550.699523 102.699297 
L 551.490419 105.89326 
L 552.274285 104.922081 
L 553.051244 104.817411 
L 553.821418 105.784679 
L 554.584923 106.345211 
L 555.341875 107.644729 
L 556.836561 105.758411 
L 557.574509 106.5291 
L 558.306334 105.201856 
L 559.032135 105.020643 
L 559.752011 103.863674 
L 560.466058 104.829729 
L 561.17437 105.208915 
L 561.877038 106.088863 
L 562.574151 105.489629 
L 563.265796 105.717432 
L 563.952059 105.163762 
L 564.633022 105.93501 
L 565.308768 104.985564 
L 565.979374 106.787335 
L 566.64492 107.321204 
L 567.305479 108.559774 
L 567.961128 108.139707 
L 568.611938 108.587955 
L 569.25798 109.499061 
L 570.536036 107.58494 
L 571.168185 107.849546 
L 572.419047 107.754503 
L 573.037887 108.899269 
L 574.86877 108.825687 
L 575.470713 109.743643 
L 576.068575 110.059604 
L 577.252275 108.025272 
L 577.83822 108.197135 
L 578.420297 109.204423 
L 579.57305 109.28234 
L 580.143824 108.475186 
L 580.710928 108.557834 
L 581.274408 107.760737 
L 581.83431 107.600957 
L 582.39068 107.153348 
L 582.943562 107.42542 
L 583.492999 108.136706 
L 584.039034 108.437062 
L 584.581708 108.94571 
L 585.121064 109.186613 
L 585.65714 109.196568 
L 586.189978 108.683571 
L 586.719615 108.581796 
L 587.24609 108.882824 
L 587.769441 108.425211 
L 588.289704 108.373962 
L 588.806916 109.564467 
L 589.321111 109.455065 
L 590.340595 108.465826 
L 590.845951 108.339006 
L 591.348427 107.930249 
L 591.848056 108.472531 
L 592.344871 107.867525 
L 593.330181 107.623134 
L 593.818738 108.015065 
L 594.304603 107.845253 
L 594.787806 107.976861 
L 595.268376 107.905308 
L 595.746341 108.228953 
L 596.694569 109.125961 
L 597.164887 108.567938 
L 597.632709 108.226393 
L 598.560974 108.916672 
L 599.021467 108.597064 
L 599.479569 108.814106 
L 599.935303 108.82868 
L 600.388694 108.272529 
L 600.839766 108.175224 
L 601.288542 107.610056 
L 601.735046 107.886539 
L 602.1793 108.013827 
L 602.621328 107.893544 
L 603.061151 108.544681 
L 603.498791 108.372636 
L 603.93427 108.755505 
L 604.367609 108.622099 
L 604.79883 108.678727 
L 605.654995 109.186315 
L 606.502928 109.177244 
L 606.923856 108.891686 
L 607.759733 108.806342 
L 608.174719 109.157213 
L 608.998877 108.934472 
L 609.815405 109.252586 
L 610.220851 109.200361 
L 610.624441 109.342741 
L 611.026193 108.912243 
L 611.426123 108.889824 
L 611.824247 108.65185 
L 613.007947 108.570674 
L 613.399009 108.353451 
L 613.788344 108.64038 
L 614.175968 108.733364 
L 614.946142 108.680512 
L 615.328721 109.018154 
L 615.709648 109.099369 
L 616.088936 109.403183 
L 616.466599 109.559322 
L 616.842652 109.557296 
L 617.217109 109.340377 
L 617.589982 109.544276 
L 618.331031 109.428937 
L 618.699233 109.476994 
L 619.065905 109.652059 
L 619.431058 109.656021 
L 620.156859 109.377043 
L 620.876735 109.595953 
L 621.234481 109.322355 
L 621.590782 109.37917 
L 621.945649 109.26114 
L 623.001762 109.526185 
L 623.351007 109.465693 
L 623.698875 109.653747 
L 624.39052 109.592362 
L 624.734319 109.476817 
L 626.096266 109.918709 
L 626.433492 109.713528 
L 626.769433 109.915089 
L 627.104098 109.828131 
L 627.437499 109.896102 
L 628.430204 109.630766 
L 629.085852 109.670541 
L 629.411858 109.940034 
L 629.736662 109.906426 
L 630.382704 110.094264 
L 630.703959 110.411686 
L 631.977401 110.457836 
L 632.607292 110.640348 
L 634.162611 110.626443 
L 634.47041 110.793042 
L 635.387414 110.370973 
L 635.690974 110.534011 
L 636.294979 110.499266 
L 637.193299 111.019022 
L 637.490717 111.103616 
L 637.787135 110.948321 
L 638.082561 110.924494 
L 638.376999 111.188355 
L 638.670458 111.619709 
L 638.962944 111.518869 
L 639.545021 111.580642 
L 640.123281 111.41834 
L 640.410995 111.083847 
L 642.399132 110.964925 
L 642.959034 110.77327 
L 643.792279 111.203319 
L 644.068286 111.399591 
L 644.617723 111.436718 
L 645.163758 111.174985 
L 645.435512 111.16487 
L 645.706432 111.369979 
L 647.314702 111.207606 
L 647.579918 111.162494 
L 647.844339 110.960036 
L 648.370814 111.254103 
L 648.894165 110.990195 
L 649.414428 110.800956 
L 650.189112 110.76929 
L 651.718359 110.350947 
L 651.970675 110.21924 
L 652.222271 110.409329 
L 652.723319 110.167753 
L 652.97278 110.312091 
L 653.221537 110.767473 
L 653.469595 110.887509 
L 653.716956 110.848642 
L 653.963626 111.050526 
L 654.454905 111.030242 
L 655.186729 111.284079 
L 655.429327 111.152718 
L 656.632407 111.732859 
L 656.871065 111.516366 
L 657.10908 111.513969 
L 657.346454 111.650541 
L 657.819293 111.633365 
L 658.054765 111.777938 
L 658.523832 111.625402 
L 658.757433 111.612897 
L 659.454546 111.223813 
L 659.685698 111.418457 
L 660.146192 111.367477 
L 660.604293 111.46123 
L 660.832454 111.592884 
L 661.060027 111.446895 
L 661.287014 111.555233 
L 661.739242 111.370296 
L 662.6368 111.60752 
L 663.082177 111.705182 
L 663.525315 111.6742 
L 663.746052 111.919768 
L 664.404967 112.036863 
L 664.623515 112.008617 
L 664.841524 111.843442 
L 665.27593 111.952284 
L 665.492334 111.786369 
L 666.138376 111.955604 
L 666.352675 111.857973 
L 666.566456 111.596057 
L 667.204705 111.961837 
L 667.416432 111.769882 
L 667.838367 111.863659 
L 668.04858 111.745778 
L 668.258293 111.852599 
L 668.676229 111.849395 
L 669.092194 111.82289 
L 669.506206 111.819072 
L 669.712485 111.533523 
L 670.123602 111.41183 
L 670.328443 111.525845 
L 670.736705 111.234177 
L 670.940129 111.178639 
L 671.143085 110.952897 
L 671.547601 110.935575 
L 671.95027 110.730951 
L 672.351109 110.401853 
L 672.750133 110.411428 
L 673.345305 110.365959 
L 673.542807 110.579735 
L 673.936488 110.618609 
L 674.718615 111.423575 
L 675.68662 111.418307 
L 675.878952 111.159197 
L 676.070866 111.287344 
L 676.834372 111.182721 
L 677.21366 111.348488 
L 678.528467 111.733582 
L 678.714706 111.598055 
L 679.640049 112.068738 
L 680.007484 111.794907 
L 680.373394 111.842022 
L 681.100692 112.065753 
L 681.462104 112.073357 
L 681.82204 111.77629 
L 682.180514 111.620557 
L 682.359205 111.788174 
L 682.537536 111.652325 
L 682.715506 111.809773 
L 682.893118 111.734286 
L 683.247273 111.854945 
L 683.247273 111.854945 
" style="fill:none;stroke:#9467bd;stroke-linecap:square;stroke-width:2;"/>
   </g>
   <g id="line2d_41">
    <path clip-path="url(#p9329146635)" d="M -1 111.825047 
L 683.247273 111.825047 
L 683.247273 111.825047 
" style="fill:none;stroke:#000000;stroke-dasharray:7.4,3.2;stroke-dashoffset:0;stroke-width:2;"/>
   </g>
   <g id="patch_3">
    <path d="M 108 512.64 
L 108 69.12 
" style="fill:none;stroke:#000000;stroke-linecap:square;stroke-linejoin:miter;stroke-width:0.8;"/>
   </g>
   <g id="patch_4">
    <path d="M 710.64 512.64 
L 710.64 69.12 
" style="fill:none;stroke:#000000;stroke-linecap:square;stroke-linejoin:miter;stroke-width:0.8;"/>
   </g>
   <g id="patch_5">
    <path d="M 108 512.64 
L 710.64 512.64 
" style="fill:none;stroke:#000000;stroke-linecap:square;stroke-linejoin:miter;stroke-width:0.8;"/>
   </g>
   <g id="patch_6">
    <path d="M 108 69.12 
L 710.64 69.12 
" style="fill:none;stroke:#000000;stroke-linecap:square;stroke-linejoin:miter;stroke-width:0.8;"/>
   </g>
   <g id="text_11">
    <!-- TD estimates through time vs true values averaged over 50 environments -->
    <g transform="translate(96.788812 63.12)scale(0.168 -0.168)">
     <defs>
      <path d="M -19 4666 
L 3928 4666 
L 3928 4134 
L 2272 4134 
L 2272 0 
L 1638 0 
L 1638 4134 
L -19 4134 
L -19 4666 
z
" id="DejaVuSans-54" transform="scale(0.015625)"/>
      <path d="M 1259 4147 
L 1259 519 
L 2022 519 
Q 2988 519 3436 956 
Q 3884 1394 3884 2338 
Q 3884 3275 3436 3711 
Q 2988 4147 2022 4147 
L 1259 4147 
z
M 628 4666 
L 1925 4666 
Q 3281 4666 3915 4102 
Q 4550 3538 4550 2338 
Q 4550 1131 3912 565 
Q 3275 0 1925 0 
L 628 0 
L 628 4666 
z
" id="DejaVuSans-44" transform="scale(0.015625)"/>
      <path d="M 3328 2828 
Q 3544 3216 3844 3400 
Q 4144 3584 4550 3584 
Q 5097 3584 5394 3201 
Q 5691 2819 5691 2113 
L 5691 0 
L 5113 0 
L 5113 2094 
Q 5113 2597 4934 2840 
Q 4756 3084 4391 3084 
Q 3944 3084 3684 2787 
Q 3425 2491 3425 1978 
L 3425 0 
L 2847 0 
L 2847 2094 
Q 2847 2600 2669 2842 
Q 2491 3084 2119 3084 
Q 1678 3084 1418 2786 
Q 1159 2488 1159 1978 
L 1159 0 
L 581 0 
L 581 3500 
L 1159 3500 
L 1159 2956 
Q 1356 3278 1631 3431 
Q 1906 3584 2284 3584 
Q 2666 3584 2933 3390 
Q 3200 3197 3328 2828 
z
" id="DejaVuSans-6d" transform="scale(0.015625)"/>
      <path d="M 3513 2113 
L 3513 0 
L 2938 0 
L 2938 2094 
Q 2938 2591 2744 2837 
Q 2550 3084 2163 3084 
Q 1697 3084 1428 2787 
Q 1159 2491 1159 1978 
L 1159 0 
L 581 0 
L 581 4863 
L 1159 4863 
L 1159 2956 
Q 1366 3272 1645 3428 
Q 1925 3584 2291 3584 
Q 2894 3584 3203 3211 
Q 3513 2838 3513 2113 
z
" id="DejaVuSans-68" transform="scale(0.015625)"/>
      <path d="M 2631 2963 
Q 2534 3019 2420 3045 
Q 2306 3072 2169 3072 
Q 1681 3072 1420 2755 
Q 1159 2438 1159 1844 
L 1159 0 
L 581 0 
L 581 3500 
L 1159 3500 
L 1159 2956 
Q 1341 3275 1631 3429 
Q 1922 3584 2338 3584 
Q 2397 3584 2469 3576 
Q 2541 3569 2628 3553 
L 2631 2963 
z
" id="DejaVuSans-72" transform="scale(0.015625)"/>
      <path d="M 191 3500 
L 800 3500 
L 1894 563 
L 2988 3500 
L 3597 3500 
L 2284 0 
L 1503 0 
L 191 3500 
z
" id="DejaVuSans-76" transform="scale(0.015625)"/>
      <path d="M 691 4666 
L 3169 4666 
L 3169 4134 
L 1269 4134 
L 1269 2991 
Q 1406 3038 1543 3061 
Q 1681 3084 1819 3084 
Q 2600 3084 3056 2656 
Q 3513 2228 3513 1497 
Q 3513 744 3044 326 
Q 2575 -91 1722 -91 
Q 1428 -91 1123 -41 
Q 819 9 494 109 
L 494 744 
Q 775 591 1075 516 
Q 1375 441 1709 441 
Q 2250 441 2565 725 
Q 2881 1009 2881 1497 
Q 2881 1984 2565 2268 
Q 2250 2553 1709 2553 
Q 1456 2553 1204 2497 
Q 953 2441 691 2322 
L 691 4666 
z
" id="DejaVuSans-35" transform="scale(0.015625)"/>
     </defs>
     <use xlink:href="#DejaVuSans-54"/>
     <use x="61.083984" xlink:href="#DejaVuSans-44"/>
     <use x="138.085938" xlink:href="#DejaVuSans-20"/>
     <use x="169.873047" xlink:href="#DejaVuSans-65"/>
     <use x="231.396484" xlink:href="#DejaVuSans-73"/>
     <use x="283.496094" xlink:href="#DejaVuSans-74"/>
     <use x="322.705078" xlink:href="#DejaVuSans-69"/>
     <use x="350.488281" xlink:href="#DejaVuSans-6d"/>
     <use x="447.900391" xlink:href="#DejaVuSans-61"/>
     <use x="509.179688" xlink:href="#DejaVuSans-74"/>
     <use x="548.388672" xlink:href="#DejaVuSans-65"/>
     <use x="609.912109" xlink:href="#DejaVuSans-73"/>
     <use x="662.011719" xlink:href="#DejaVuSans-20"/>
     <use x="693.798828" xlink:href="#DejaVuSans-74"/>
     <use x="733.007812" xlink:href="#DejaVuSans-68"/>
     <use x="796.386719" xlink:href="#DejaVuSans-72"/>
     <use x="835.25" xlink:href="#DejaVuSans-6f"/>
     <use x="896.431641" xlink:href="#DejaVuSans-75"/>
     <use x="959.810547" xlink:href="#DejaVuSans-67"/>
     <use x="1023.287109" xlink:href="#DejaVuSans-68"/>
     <use x="1086.666016" xlink:href="#DejaVuSans-20"/>
     <use x="1118.453125" xlink:href="#DejaVuSans-74"/>
     <use x="1157.662109" xlink:href="#DejaVuSans-69"/>
     <use x="1185.445312" xlink:href="#DejaVuSans-6d"/>
     <use x="1282.857422" xlink:href="#DejaVuSans-65"/>
     <use x="1344.380859" xlink:href="#DejaVuSans-20"/>
     <use x="1376.167969" xlink:href="#DejaVuSans-76"/>
     <use x="1435.347656" xlink:href="#DejaVuSans-73"/>
     <use x="1487.447266" xlink:href="#DejaVuSans-20"/>
     <use x="1519.234375" xlink:href="#DejaVuSans-74"/>
     <use x="1558.443359" xlink:href="#DejaVuSans-72"/>
     <use x="1599.556641" xlink:href="#DejaVuSans-75"/>
     <use x="1662.935547" xlink:href="#DejaVuSans-65"/>
     <use x="1724.458984" xlink:href="#DejaVuSans-20"/>
     <use x="1756.246094" xlink:href="#DejaVuSans-76"/>
     <use x="1815.425781" xlink:href="#DejaVuSans-61"/>
     <use x="1876.705078" xlink:href="#DejaVuSans-6c"/>
     <use x="1904.488281" xlink:href="#DejaVuSans-75"/>
     <use x="1967.867188" xlink:href="#DejaVuSans-65"/>
     <use x="2029.390625" xlink:href="#DejaVuSans-73"/>
     <use x="2081.490234" xlink:href="#DejaVuSans-20"/>
     <use x="2113.277344" xlink:href="#DejaVuSans-61"/>
     <use x="2174.556641" xlink:href="#DejaVuSans-76"/>
     <use x="2233.736328" xlink:href="#DejaVuSans-65"/>
     <use x="2295.259766" xlink:href="#DejaVuSans-72"/>
     <use x="2336.373047" xlink:href="#DejaVuSans-61"/>
     <use x="2397.652344" xlink:href="#DejaVuSans-67"/>
     <use x="2461.128906" xlink:href="#DejaVuSans-65"/>
     <use x="2522.652344" xlink:href="#DejaVuSans-64"/>
     <use x="2586.128906" xlink:href="#DejaVuSans-20"/>
     <use x="2617.916016" xlink:href="#DejaVuSans-6f"/>
     <use x="2679.097656" xlink:href="#DejaVuSans-76"/>
     <use x="2738.277344" xlink:href="#DejaVuSans-65"/>
     <use x="2799.800781" xlink:href="#DejaVuSans-72"/>
     <use x="2840.914062" xlink:href="#DejaVuSans-20"/>
     <use x="2872.701172" xlink:href="#DejaVuSans-35"/>
     <use x="2936.324219" xlink:href="#DejaVuSans-30"/>
     <use x="2999.947266" xlink:href="#DejaVuSans-20"/>
     <use x="3031.734375" xlink:href="#DejaVuSans-65"/>
     <use x="3093.257812" xlink:href="#DejaVuSans-6e"/>
     <use x="3156.636719" xlink:href="#DejaVuSans-76"/>
     <use x="3215.816406" xlink:href="#DejaVuSans-69"/>
     <use x="3243.599609" xlink:href="#DejaVuSans-72"/>
     <use x="3282.462891" xlink:href="#DejaVuSans-6f"/>
     <use x="3343.644531" xlink:href="#DejaVuSans-6e"/>
     <use x="3407.023438" xlink:href="#DejaVuSans-6d"/>
     <use x="3504.435547" xlink:href="#DejaVuSans-65"/>
     <use x="3565.958984" xlink:href="#DejaVuSans-6e"/>
     <use x="3629.337891" xlink:href="#DejaVuSans-74"/>
     <use x="3668.546875" xlink:href="#DejaVuSans-73"/>
    </g>
   </g>
   <g id="legend_1">
    <g id="patch_7">
     <path d="M 720.44 395.726875 
L 820.673438 395.726875 
Q 823.473438 395.726875 823.473438 392.926875 
L 823.473438 188.833125 
Q 823.473438 186.033125 820.673438 186.033125 
L 720.44 186.033125 
Q 717.64 186.033125 717.64 188.833125 
L 717.64 392.926875 
Q 717.64 395.726875 720.44 395.726875 
z
" style="fill:#ffffff;opacity:0.8;stroke:#cccccc;stroke-linejoin:miter;"/>
    </g>
    <g id="line2d_42">
     <path d="M 723.24 197.370937 
L 751.24 197.370937 
" style="fill:none;stroke:#1f77b4;stroke-linecap:square;stroke-width:2;"/>
    </g>
    <g id="line2d_43"/>
    <g id="text_12">
     <!-- V(s=1) -->
     <g transform="translate(762.44 202.270938)scale(0.14 -0.14)">
      <defs>
       <path d="M 678 2906 
L 4684 2906 
L 4684 2381 
L 678 2381 
L 678 2906 
z
M 678 1631 
L 4684 1631 
L 4684 1100 
L 678 1100 
L 678 1631 
z
" id="DejaVuSans-3d" transform="scale(0.015625)"/>
      </defs>
      <use xlink:href="#DejaVuSans-56"/>
      <use x="68.408203" xlink:href="#DejaVuSans-28"/>
      <use x="107.421875" xlink:href="#DejaVuSans-73"/>
      <use x="159.521484" xlink:href="#DejaVuSans-3d"/>
      <use x="243.310547" xlink:href="#DejaVuSans-31"/>
      <use x="306.933594" xlink:href="#DejaVuSans-29"/>
     </g>
    </g>
    <g id="line2d_44">
     <path d="M 723.24 217.920312 
L 751.24 217.920312 
" style="fill:none;stroke:#000000;stroke-dasharray:7.4,3.2;stroke-dashoffset:0;stroke-width:2;"/>
    </g>
    <g id="line2d_45"/>
    <g id="text_13">
     <!-- V*(s=1) -->
     <g transform="translate(762.44 222.820312)scale(0.14 -0.14)">
      <defs>
       <path d="M 3009 3897 
L 1888 3291 
L 3009 2681 
L 2828 2375 
L 1778 3009 
L 1778 1831 
L 1422 1831 
L 1422 3009 
L 372 2375 
L 191 2681 
L 1313 3291 
L 191 3897 
L 372 4206 
L 1422 3572 
L 1422 4750 
L 1778 4750 
L 1778 3572 
L 2828 4206 
L 3009 3897 
z
" id="DejaVuSans-2a" transform="scale(0.015625)"/>
      </defs>
      <use xlink:href="#DejaVuSans-56"/>
      <use x="68.408203" xlink:href="#DejaVuSans-2a"/>
      <use x="118.408203" xlink:href="#DejaVuSans-28"/>
      <use x="157.421875" xlink:href="#DejaVuSans-73"/>
      <use x="209.521484" xlink:href="#DejaVuSans-3d"/>
      <use x="293.310547" xlink:href="#DejaVuSans-31"/>
      <use x="356.933594" xlink:href="#DejaVuSans-29"/>
     </g>
    </g>
    <g id="line2d_46">
     <path d="M 723.24 238.469688 
L 751.24 238.469688 
" style="fill:none;stroke:#ff7f0e;stroke-linecap:square;stroke-width:2;"/>
    </g>
    <g id="line2d_47"/>
    <g id="text_14">
     <!-- V(s=2) -->
     <g transform="translate(762.44 243.369688)scale(0.14 -0.14)">
      <use xlink:href="#DejaVuSans-56"/>
      <use x="68.408203" xlink:href="#DejaVuSans-28"/>
      <use x="107.421875" xlink:href="#DejaVuSans-73"/>
      <use x="159.521484" xlink:href="#DejaVuSans-3d"/>
      <use x="243.310547" xlink:href="#DejaVuSans-32"/>
      <use x="306.933594" xlink:href="#DejaVuSans-29"/>
     </g>
    </g>
    <g id="line2d_48">
     <path d="M 723.24 259.019063 
L 751.24 259.019063 
" style="fill:none;stroke:#000000;stroke-dasharray:7.4,3.2;stroke-dashoffset:0;stroke-width:2;"/>
    </g>
    <g id="line2d_49"/>
    <g id="text_15">
     <!-- V*(s=2) -->
     <g transform="translate(762.44 263.919062)scale(0.14 -0.14)">
      <use xlink:href="#DejaVuSans-56"/>
      <use x="68.408203" xlink:href="#DejaVuSans-2a"/>
      <use x="118.408203" xlink:href="#DejaVuSans-28"/>
      <use x="157.421875" xlink:href="#DejaVuSans-73"/>
      <use x="209.521484" xlink:href="#DejaVuSans-3d"/>
      <use x="293.310547" xlink:href="#DejaVuSans-32"/>
      <use x="356.933594" xlink:href="#DejaVuSans-29"/>
     </g>
    </g>
    <g id="line2d_50">
     <path d="M 723.24 279.568438 
L 751.24 279.568438 
" style="fill:none;stroke:#2ca02c;stroke-linecap:square;stroke-width:2;"/>
    </g>
    <g id="line2d_51"/>
    <g id="text_16">
     <!-- V(s=3) -->
     <g transform="translate(762.44 284.468437)scale(0.14 -0.14)">
      <defs>
       <path d="M 2597 2516 
Q 3050 2419 3304 2112 
Q 3559 1806 3559 1356 
Q 3559 666 3084 287 
Q 2609 -91 1734 -91 
Q 1441 -91 1130 -33 
Q 819 25 488 141 
L 488 750 
Q 750 597 1062 519 
Q 1375 441 1716 441 
Q 2309 441 2620 675 
Q 2931 909 2931 1356 
Q 2931 1769 2642 2001 
Q 2353 2234 1838 2234 
L 1294 2234 
L 1294 2753 
L 1863 2753 
Q 2328 2753 2575 2939 
Q 2822 3125 2822 3475 
Q 2822 3834 2567 4026 
Q 2313 4219 1838 4219 
Q 1578 4219 1281 4162 
Q 984 4106 628 3988 
L 628 4550 
Q 988 4650 1302 4700 
Q 1616 4750 1894 4750 
Q 2613 4750 3031 4423 
Q 3450 4097 3450 3541 
Q 3450 3153 3228 2886 
Q 3006 2619 2597 2516 
z
" id="DejaVuSans-33" transform="scale(0.015625)"/>
      </defs>
      <use xlink:href="#DejaVuSans-56"/>
      <use x="68.408203" xlink:href="#DejaVuSans-28"/>
      <use x="107.421875" xlink:href="#DejaVuSans-73"/>
      <use x="159.521484" xlink:href="#DejaVuSans-3d"/>
      <use x="243.310547" xlink:href="#DejaVuSans-33"/>
      <use x="306.933594" xlink:href="#DejaVuSans-29"/>
     </g>
    </g>
    <g id="line2d_52">
     <path d="M 723.24 300.117813 
L 751.24 300.117813 
" style="fill:none;stroke:#000000;stroke-dasharray:7.4,3.2;stroke-dashoffset:0;stroke-width:2;"/>
    </g>
    <g id="line2d_53"/>
    <g id="text_17">
     <!-- V*(s=3) -->
     <g transform="translate(762.44 305.017812)scale(0.14 -0.14)">
      <use xlink:href="#DejaVuSans-56"/>
      <use x="68.408203" xlink:href="#DejaVuSans-2a"/>
      <use x="118.408203" xlink:href="#DejaVuSans-28"/>
      <use x="157.421875" xlink:href="#DejaVuSans-73"/>
      <use x="209.521484" xlink:href="#DejaVuSans-3d"/>
      <use x="293.310547" xlink:href="#DejaVuSans-33"/>
      <use x="356.933594" xlink:href="#DejaVuSans-29"/>
     </g>
    </g>
    <g id="line2d_54">
     <path d="M 723.24 320.667188 
L 751.24 320.667188 
" style="fill:none;stroke:#d62728;stroke-linecap:square;stroke-width:2;"/>
    </g>
    <g id="line2d_55"/>
    <g id="text_18">
     <!-- V(s=4) -->
     <g transform="translate(762.44 325.567188)scale(0.14 -0.14)">
      <use xlink:href="#DejaVuSans-56"/>
      <use x="68.408203" xlink:href="#DejaVuSans-28"/>
      <use x="107.421875" xlink:href="#DejaVuSans-73"/>
      <use x="159.521484" xlink:href="#DejaVuSans-3d"/>
      <use x="243.310547" xlink:href="#DejaVuSans-34"/>
      <use x="306.933594" xlink:href="#DejaVuSans-29"/>
     </g>
    </g>
    <g id="line2d_56">
     <path d="M 723.24 341.216563 
L 751.24 341.216563 
" style="fill:none;stroke:#000000;stroke-dasharray:7.4,3.2;stroke-dashoffset:0;stroke-width:2;"/>
    </g>
    <g id="line2d_57"/>
    <g id="text_19">
     <!-- V*(s=4) -->
     <g transform="translate(762.44 346.116562)scale(0.14 -0.14)">
      <use xlink:href="#DejaVuSans-56"/>
      <use x="68.408203" xlink:href="#DejaVuSans-2a"/>
      <use x="118.408203" xlink:href="#DejaVuSans-28"/>
      <use x="157.421875" xlink:href="#DejaVuSans-73"/>
      <use x="209.521484" xlink:href="#DejaVuSans-3d"/>
      <use x="293.310547" xlink:href="#DejaVuSans-34"/>
      <use x="356.933594" xlink:href="#DejaVuSans-29"/>
     </g>
    </g>
    <g id="line2d_58">
     <path d="M 723.24 361.765938 
L 751.24 361.765938 
" style="fill:none;stroke:#9467bd;stroke-linecap:square;stroke-width:2;"/>
    </g>
    <g id="line2d_59"/>
    <g id="text_20">
     <!-- V(s=5) -->
     <g transform="translate(762.44 366.665938)scale(0.14 -0.14)">
      <use xlink:href="#DejaVuSans-56"/>
      <use x="68.408203" xlink:href="#DejaVuSans-28"/>
      <use x="107.421875" xlink:href="#DejaVuSans-73"/>
      <use x="159.521484" xlink:href="#DejaVuSans-3d"/>
      <use x="243.310547" xlink:href="#DejaVuSans-35"/>
      <use x="306.933594" xlink:href="#DejaVuSans-29"/>
     </g>
    </g>
    <g id="line2d_60">
     <path d="M 723.24 382.315313 
L 751.24 382.315313 
" style="fill:none;stroke:#000000;stroke-dasharray:7.4,3.2;stroke-dashoffset:0;stroke-width:2;"/>
    </g>
    <g id="line2d_61"/>
    <g id="text_21">
     <!-- V*(s=5) -->
     <g transform="translate(762.44 387.215312)scale(0.14 -0.14)">
      <use xlink:href="#DejaVuSans-56"/>
      <use x="68.408203" xlink:href="#DejaVuSans-2a"/>
      <use x="118.408203" xlink:href="#DejaVuSans-28"/>
      <use x="157.421875" xlink:href="#DejaVuSans-73"/>
      <use x="209.521484" xlink:href="#DejaVuSans-3d"/>
      <use x="293.310547" xlink:href="#DejaVuSans-35"/>
      <use x="356.933594" xlink:href="#DejaVuSans-29"/>
     </g>
    </g>
   </g>
  </g>
 </g>
 <defs>
  <clipPath id="p9329146635">
   <rect height="443.52" width="602.64" x="108" y="69.12"/>
  </clipPath>
 </defs>
</svg>
