<?xml version="1.0" encoding="utf-8" standalone="no"?>
<!DOCTYPE svg PUBLIC "-//W3C//DTD SVG 1.1//EN"
  "http://www.w3.org/Graphics/SVG/1.1/DTD/svg11.dtd">
<svg height="576pt" version="1.1" viewBox="0 0 864 576" width="864pt" xmlns="http://www.w3.org/2000/svg" xmlns:xlink="http://www.w3.org/1999/xlink">
 <metadata>
  <rdf:RDF xmlns:cc="http://creativecommons.org/ns#" xmlns:dc="http://purl.org/dc/elements/1.1/" xmlns:rdf="http://www.w3.org/1999/02/22-rdf-syntax-ns#">
   <cc:Work>
    <dc:type rdf:resource="http://purl.org/dc/dcmitype/StillImage"/>
    <dc:date>2021-09-11T09:43:01.853666</dc:date>
    <dc:format>image/svg+xml</dc:format>
    <dc:creator>
     <cc:Agent>
      <dc:title>Matplotlib v3.4.3, https://matplotlib.org/</dc:title>
     </cc:Agent>
    </dc:creator>
   </cc:Work>
  </rdf:RDF>
 </metadata>
 <defs>
  <style type="text/css">*{stroke-linecap:butt;stroke-linejoin:round;}</style>
 </defs>
 <g id="figure_1">
  <g id="patch_1">
   <path d="M 0 576 
L 864 576 
L 864 0 
L 0 0 
z
" style="fill:#ffffff;"/>
  </g>
  <g id="axes_1">
   <g id="patch_2">
    <path d="M 108 512.64 
L 710.64 512.64 
L 710.64 69.12 
L 108 69.12 
z
" style="fill:#ffffff;"/>
   </g>
   <g id="matplotlib.axis_1">
    <g id="xtick_1">
     <g id="line2d_1">
      <defs>
       <path d="M 0 0 
L 0 3.5 
" id="mba89aa7243" style="stroke:#000000;stroke-width:0.8;"/>
      </defs>
      <g>
       <use style="stroke:#000000;stroke-width:0.8;" x="135.392727" xlink:href="#mba89aa7243" y="512.64"/>
      </g>
     </g>
     <g id="text_1">
      <!-- 0 -->
      <g transform="translate(130.938977 530.277812)scale(0.14 -0.14)">
       <defs>
        <path d="M 2034 4250 
Q 1547 4250 1301 3770 
Q 1056 3291 1056 2328 
Q 1056 1369 1301 889 
Q 1547 409 2034 409 
Q 2525 409 2770 889 
Q 3016 1369 3016 2328 
Q 3016 3291 2770 3770 
Q 2525 4250 2034 4250 
z
M 2034 4750 
Q 2819 4750 3233 4129 
Q 3647 3509 3647 2328 
Q 3647 1150 3233 529 
Q 2819 -91 2034 -91 
Q 1250 -91 836 529 
Q 422 1150 422 2328 
Q 422 3509 836 4129 
Q 1250 4750 2034 4750 
z
" id="DejaVuSans-30" transform="scale(0.015625)"/>
       </defs>
       <use xlink:href="#DejaVuSans-30"/>
      </g>
     </g>
    </g>
    <g id="xtick_2">
     <g id="line2d_2">
      <g>
       <use style="stroke:#000000;stroke-width:0.8;" x="245.183217" xlink:href="#mba89aa7243" y="512.64"/>
      </g>
     </g>
     <g id="text_2">
      <!-- 100 -->
      <g transform="translate(231.821967 530.277812)scale(0.14 -0.14)">
       <defs>
        <path d="M 794 531 
L 1825 531 
L 1825 4091 
L 703 3866 
L 703 4441 
L 1819 4666 
L 2450 4666 
L 2450 531 
L 3481 531 
L 3481 0 
L 794 0 
L 794 531 
z
" id="DejaVuSans-31" transform="scale(0.015625)"/>
       </defs>
       <use xlink:href="#DejaVuSans-31"/>
       <use x="63.623047" xlink:href="#DejaVuSans-30"/>
       <use x="127.246094" xlink:href="#DejaVuSans-30"/>
      </g>
     </g>
    </g>
    <g id="xtick_3">
     <g id="line2d_3">
      <g>
       <use style="stroke:#000000;stroke-width:0.8;" x="354.973707" xlink:href="#mba89aa7243" y="512.64"/>
      </g>
     </g>
     <g id="text_3">
      <!-- 200 -->
      <g transform="translate(341.612457 530.277812)scale(0.14 -0.14)">
       <defs>
        <path d="M 1228 531 
L 3431 531 
L 3431 0 
L 469 0 
L 469 531 
Q 828 903 1448 1529 
Q 2069 2156 2228 2338 
Q 2531 2678 2651 2914 
Q 2772 3150 2772 3378 
Q 2772 3750 2511 3984 
Q 2250 4219 1831 4219 
Q 1534 4219 1204 4116 
Q 875 4013 500 3803 
L 500 4441 
Q 881 4594 1212 4672 
Q 1544 4750 1819 4750 
Q 2544 4750 2975 4387 
Q 3406 4025 3406 3419 
Q 3406 3131 3298 2873 
Q 3191 2616 2906 2266 
Q 2828 2175 2409 1742 
Q 1991 1309 1228 531 
z
" id="DejaVuSans-32" transform="scale(0.015625)"/>
       </defs>
       <use xlink:href="#DejaVuSans-32"/>
       <use x="63.623047" xlink:href="#DejaVuSans-30"/>
       <use x="127.246094" xlink:href="#DejaVuSans-30"/>
      </g>
     </g>
    </g>
    <g id="xtick_4">
     <g id="line2d_4">
      <g>
       <use style="stroke:#000000;stroke-width:0.8;" x="464.764197" xlink:href="#mba89aa7243" y="512.64"/>
      </g>
     </g>
     <g id="text_4">
      <!-- 300 -->
      <g transform="translate(451.402947 530.277812)scale(0.14 -0.14)">
       <defs>
        <path d="M 2597 2516 
Q 3050 2419 3304 2112 
Q 3559 1806 3559 1356 
Q 3559 666 3084 287 
Q 2609 -91 1734 -91 
Q 1441 -91 1130 -33 
Q 819 25 488 141 
L 488 750 
Q 750 597 1062 519 
Q 1375 441 1716 441 
Q 2309 441 2620 675 
Q 2931 909 2931 1356 
Q 2931 1769 2642 2001 
Q 2353 2234 1838 2234 
L 1294 2234 
L 1294 2753 
L 1863 2753 
Q 2328 2753 2575 2939 
Q 2822 3125 2822 3475 
Q 2822 3834 2567 4026 
Q 2313 4219 1838 4219 
Q 1578 4219 1281 4162 
Q 984 4106 628 3988 
L 628 4550 
Q 988 4650 1302 4700 
Q 1616 4750 1894 4750 
Q 2613 4750 3031 4423 
Q 3450 4097 3450 3541 
Q 3450 3153 3228 2886 
Q 3006 2619 2597 2516 
z
" id="DejaVuSans-33" transform="scale(0.015625)"/>
       </defs>
       <use xlink:href="#DejaVuSans-33"/>
       <use x="63.623047" xlink:href="#DejaVuSans-30"/>
       <use x="127.246094" xlink:href="#DejaVuSans-30"/>
      </g>
     </g>
    </g>
    <g id="xtick_5">
     <g id="line2d_5">
      <g>
       <use style="stroke:#000000;stroke-width:0.8;" x="574.554688" xlink:href="#mba89aa7243" y="512.64"/>
      </g>
     </g>
     <g id="text_5">
      <!-- 400 -->
      <g transform="translate(561.193438 530.277812)scale(0.14 -0.14)">
       <defs>
        <path d="M 2419 4116 
L 825 1625 
L 2419 1625 
L 2419 4116 
z
M 2253 4666 
L 3047 4666 
L 3047 1625 
L 3713 1625 
L 3713 1100 
L 3047 1100 
L 3047 0 
L 2419 0 
L 2419 1100 
L 313 1100 
L 313 1709 
L 2253 4666 
z
" id="DejaVuSans-34" transform="scale(0.015625)"/>
       </defs>
       <use xlink:href="#DejaVuSans-34"/>
       <use x="63.623047" xlink:href="#DejaVuSans-30"/>
       <use x="127.246094" xlink:href="#DejaVuSans-30"/>
      </g>
     </g>
    </g>
    <g id="xtick_6">
     <g id="line2d_6">
      <g>
       <use style="stroke:#000000;stroke-width:0.8;" x="684.345178" xlink:href="#mba89aa7243" y="512.64"/>
      </g>
     </g>
     <g id="text_6">
      <!-- 500 -->
      <g transform="translate(670.983928 530.277812)scale(0.14 -0.14)">
       <defs>
        <path d="M 691 4666 
L 3169 4666 
L 3169 4134 
L 1269 4134 
L 1269 2991 
Q 1406 3038 1543 3061 
Q 1681 3084 1819 3084 
Q 2600 3084 3056 2656 
Q 3513 2228 3513 1497 
Q 3513 744 3044 326 
Q 2575 -91 1722 -91 
Q 1428 -91 1123 -41 
Q 819 9 494 109 
L 494 744 
Q 775 591 1075 516 
Q 1375 441 1709 441 
Q 2250 441 2565 725 
Q 2881 1009 2881 1497 
Q 2881 1984 2565 2268 
Q 2250 2553 1709 2553 
Q 1456 2553 1204 2497 
Q 953 2441 691 2322 
L 691 4666 
z
" id="DejaVuSans-35" transform="scale(0.015625)"/>
       </defs>
       <use xlink:href="#DejaVuSans-35"/>
       <use x="63.623047" xlink:href="#DejaVuSans-30"/>
       <use x="127.246094" xlink:href="#DejaVuSans-30"/>
      </g>
     </g>
    </g>
    <g id="text_7">
     <!-- Time Steps -->
     <g transform="translate(370.3825 547.827188)scale(0.14 -0.14)">
      <defs>
       <path d="M -19 4666 
L 3928 4666 
L 3928 4134 
L 2272 4134 
L 2272 0 
L 1638 0 
L 1638 4134 
L -19 4134 
L -19 4666 
z
" id="DejaVuSans-54" transform="scale(0.015625)"/>
       <path d="M 603 3500 
L 1178 3500 
L 1178 0 
L 603 0 
L 603 3500 
z
M 603 4863 
L 1178 4863 
L 1178 4134 
L 603 4134 
L 603 4863 
z
" id="DejaVuSans-69" transform="scale(0.015625)"/>
       <path d="M 3328 2828 
Q 3544 3216 3844 3400 
Q 4144 3584 4550 3584 
Q 5097 3584 5394 3201 
Q 5691 2819 5691 2113 
L 5691 0 
L 5113 0 
L 5113 2094 
Q 5113 2597 4934 2840 
Q 4756 3084 4391 3084 
Q 3944 3084 3684 2787 
Q 3425 2491 3425 1978 
L 3425 0 
L 2847 0 
L 2847 2094 
Q 2847 2600 2669 2842 
Q 2491 3084 2119 3084 
Q 1678 3084 1418 2786 
Q 1159 2488 1159 1978 
L 1159 0 
L 581 0 
L 581 3500 
L 1159 3500 
L 1159 2956 
Q 1356 3278 1631 3431 
Q 1906 3584 2284 3584 
Q 2666 3584 2933 3390 
Q 3200 3197 3328 2828 
z
" id="DejaVuSans-6d" transform="scale(0.015625)"/>
       <path d="M 3597 1894 
L 3597 1613 
L 953 1613 
Q 991 1019 1311 708 
Q 1631 397 2203 397 
Q 2534 397 2845 478 
Q 3156 559 3463 722 
L 3463 178 
Q 3153 47 2828 -22 
Q 2503 -91 2169 -91 
Q 1331 -91 842 396 
Q 353 884 353 1716 
Q 353 2575 817 3079 
Q 1281 3584 2069 3584 
Q 2775 3584 3186 3129 
Q 3597 2675 3597 1894 
z
M 3022 2063 
Q 3016 2534 2758 2815 
Q 2500 3097 2075 3097 
Q 1594 3097 1305 2825 
Q 1016 2553 972 2059 
L 3022 2063 
z
" id="DejaVuSans-65" transform="scale(0.015625)"/>
       <path id="DejaVuSans-20" transform="scale(0.015625)"/>
       <path d="M 3425 4513 
L 3425 3897 
Q 3066 4069 2747 4153 
Q 2428 4238 2131 4238 
Q 1616 4238 1336 4038 
Q 1056 3838 1056 3469 
Q 1056 3159 1242 3001 
Q 1428 2844 1947 2747 
L 2328 2669 
Q 3034 2534 3370 2195 
Q 3706 1856 3706 1288 
Q 3706 609 3251 259 
Q 2797 -91 1919 -91 
Q 1588 -91 1214 -16 
Q 841 59 441 206 
L 441 856 
Q 825 641 1194 531 
Q 1563 422 1919 422 
Q 2459 422 2753 634 
Q 3047 847 3047 1241 
Q 3047 1584 2836 1778 
Q 2625 1972 2144 2069 
L 1759 2144 
Q 1053 2284 737 2584 
Q 422 2884 422 3419 
Q 422 4038 858 4394 
Q 1294 4750 2059 4750 
Q 2388 4750 2728 4690 
Q 3069 4631 3425 4513 
z
" id="DejaVuSans-53" transform="scale(0.015625)"/>
       <path d="M 1172 4494 
L 1172 3500 
L 2356 3500 
L 2356 3053 
L 1172 3053 
L 1172 1153 
Q 1172 725 1289 603 
Q 1406 481 1766 481 
L 2356 481 
L 2356 0 
L 1766 0 
Q 1100 0 847 248 
Q 594 497 594 1153 
L 594 3053 
L 172 3053 
L 172 3500 
L 594 3500 
L 594 4494 
L 1172 4494 
z
" id="DejaVuSans-74" transform="scale(0.015625)"/>
       <path d="M 1159 525 
L 1159 -1331 
L 581 -1331 
L 581 3500 
L 1159 3500 
L 1159 2969 
Q 1341 3281 1617 3432 
Q 1894 3584 2278 3584 
Q 2916 3584 3314 3078 
Q 3713 2572 3713 1747 
Q 3713 922 3314 415 
Q 2916 -91 2278 -91 
Q 1894 -91 1617 61 
Q 1341 213 1159 525 
z
M 3116 1747 
Q 3116 2381 2855 2742 
Q 2594 3103 2138 3103 
Q 1681 3103 1420 2742 
Q 1159 2381 1159 1747 
Q 1159 1113 1420 752 
Q 1681 391 2138 391 
Q 2594 391 2855 752 
Q 3116 1113 3116 1747 
z
" id="DejaVuSans-70" transform="scale(0.015625)"/>
       <path d="M 2834 3397 
L 2834 2853 
Q 2591 2978 2328 3040 
Q 2066 3103 1784 3103 
Q 1356 3103 1142 2972 
Q 928 2841 928 2578 
Q 928 2378 1081 2264 
Q 1234 2150 1697 2047 
L 1894 2003 
Q 2506 1872 2764 1633 
Q 3022 1394 3022 966 
Q 3022 478 2636 193 
Q 2250 -91 1575 -91 
Q 1294 -91 989 -36 
Q 684 19 347 128 
L 347 722 
Q 666 556 975 473 
Q 1284 391 1588 391 
Q 1994 391 2212 530 
Q 2431 669 2431 922 
Q 2431 1156 2273 1281 
Q 2116 1406 1581 1522 
L 1381 1569 
Q 847 1681 609 1914 
Q 372 2147 372 2553 
Q 372 3047 722 3315 
Q 1072 3584 1716 3584 
Q 2034 3584 2315 3537 
Q 2597 3491 2834 3397 
z
" id="DejaVuSans-73" transform="scale(0.015625)"/>
      </defs>
      <use xlink:href="#DejaVuSans-54"/>
      <use x="57.958984" xlink:href="#DejaVuSans-69"/>
      <use x="85.742188" xlink:href="#DejaVuSans-6d"/>
      <use x="183.154297" xlink:href="#DejaVuSans-65"/>
      <use x="244.677734" xlink:href="#DejaVuSans-20"/>
      <use x="276.464844" xlink:href="#DejaVuSans-53"/>
      <use x="339.941406" xlink:href="#DejaVuSans-74"/>
      <use x="379.150391" xlink:href="#DejaVuSans-65"/>
      <use x="440.673828" xlink:href="#DejaVuSans-70"/>
      <use x="504.150391" xlink:href="#DejaVuSans-73"/>
     </g>
    </g>
   </g>
   <g id="matplotlib.axis_2">
    <g id="ytick_1">
     <g id="line2d_7">
      <defs>
       <path d="M 0 0 
L -3.5 0 
" id="m223ca3b32e" style="stroke:#000000;stroke-width:0.8;"/>
      </defs>
      <g>
       <use style="stroke:#000000;stroke-width:0.8;" x="108" xlink:href="#m223ca3b32e" y="492.48"/>
      </g>
     </g>
     <g id="text_8">
      <!-- 0.0 -->
      <g transform="translate(78.735625 497.798906)scale(0.14 -0.14)">
       <defs>
        <path d="M 684 794 
L 1344 794 
L 1344 0 
L 684 0 
L 684 794 
z
" id="DejaVuSans-2e" transform="scale(0.015625)"/>
       </defs>
       <use xlink:href="#DejaVuSans-30"/>
       <use x="63.623047" xlink:href="#DejaVuSans-2e"/>
       <use x="95.410156" xlink:href="#DejaVuSans-30"/>
      </g>
     </g>
    </g>
    <g id="ytick_2">
     <g id="line2d_8">
      <g>
       <use style="stroke:#000000;stroke-width:0.8;" x="108" xlink:href="#m223ca3b32e" y="407.63559"/>
      </g>
     </g>
     <g id="text_9">
      <!-- 0.2 -->
      <g transform="translate(78.735625 412.954496)scale(0.14 -0.14)">
       <use xlink:href="#DejaVuSans-30"/>
       <use x="63.623047" xlink:href="#DejaVuSans-2e"/>
       <use x="95.410156" xlink:href="#DejaVuSans-32"/>
      </g>
     </g>
    </g>
    <g id="ytick_3">
     <g id="line2d_9">
      <g>
       <use style="stroke:#000000;stroke-width:0.8;" x="108" xlink:href="#m223ca3b32e" y="322.79118"/>
      </g>
     </g>
     <g id="text_10">
      <!-- 0.4 -->
      <g transform="translate(78.735625 328.110086)scale(0.14 -0.14)">
       <use xlink:href="#DejaVuSans-30"/>
       <use x="63.623047" xlink:href="#DejaVuSans-2e"/>
       <use x="95.410156" xlink:href="#DejaVuSans-34"/>
      </g>
     </g>
    </g>
    <g id="ytick_4">
     <g id="line2d_10">
      <g>
       <use style="stroke:#000000;stroke-width:0.8;" x="108" xlink:href="#m223ca3b32e" y="237.94677"/>
      </g>
     </g>
     <g id="text_11">
      <!-- 0.6 -->
      <g transform="translate(78.735625 243.265676)scale(0.14 -0.14)">
       <defs>
        <path d="M 2113 2584 
Q 1688 2584 1439 2293 
Q 1191 2003 1191 1497 
Q 1191 994 1439 701 
Q 1688 409 2113 409 
Q 2538 409 2786 701 
Q 3034 994 3034 1497 
Q 3034 2003 2786 2293 
Q 2538 2584 2113 2584 
z
M 3366 4563 
L 3366 3988 
Q 3128 4100 2886 4159 
Q 2644 4219 2406 4219 
Q 1781 4219 1451 3797 
Q 1122 3375 1075 2522 
Q 1259 2794 1537 2939 
Q 1816 3084 2150 3084 
Q 2853 3084 3261 2657 
Q 3669 2231 3669 1497 
Q 3669 778 3244 343 
Q 2819 -91 2113 -91 
Q 1303 -91 875 529 
Q 447 1150 447 2328 
Q 447 3434 972 4092 
Q 1497 4750 2381 4750 
Q 2619 4750 2861 4703 
Q 3103 4656 3366 4563 
z
" id="DejaVuSans-36" transform="scale(0.015625)"/>
       </defs>
       <use xlink:href="#DejaVuSans-30"/>
       <use x="63.623047" xlink:href="#DejaVuSans-2e"/>
       <use x="95.410156" xlink:href="#DejaVuSans-36"/>
      </g>
     </g>
    </g>
    <g id="ytick_5">
     <g id="line2d_11">
      <g>
       <use style="stroke:#000000;stroke-width:0.8;" x="108" xlink:href="#m223ca3b32e" y="153.10236"/>
      </g>
     </g>
     <g id="text_12">
      <!-- 0.8 -->
      <g transform="translate(78.735625 158.421266)scale(0.14 -0.14)">
       <defs>
        <path d="M 2034 2216 
Q 1584 2216 1326 1975 
Q 1069 1734 1069 1313 
Q 1069 891 1326 650 
Q 1584 409 2034 409 
Q 2484 409 2743 651 
Q 3003 894 3003 1313 
Q 3003 1734 2745 1975 
Q 2488 2216 2034 2216 
z
M 1403 2484 
Q 997 2584 770 2862 
Q 544 3141 544 3541 
Q 544 4100 942 4425 
Q 1341 4750 2034 4750 
Q 2731 4750 3128 4425 
Q 3525 4100 3525 3541 
Q 3525 3141 3298 2862 
Q 3072 2584 2669 2484 
Q 3125 2378 3379 2068 
Q 3634 1759 3634 1313 
Q 3634 634 3220 271 
Q 2806 -91 2034 -91 
Q 1263 -91 848 271 
Q 434 634 434 1313 
Q 434 1759 690 2068 
Q 947 2378 1403 2484 
z
M 1172 3481 
Q 1172 3119 1398 2916 
Q 1625 2713 2034 2713 
Q 2441 2713 2670 2916 
Q 2900 3119 2900 3481 
Q 2900 3844 2670 4047 
Q 2441 4250 2034 4250 
Q 1625 4250 1398 4047 
Q 1172 3844 1172 3481 
z
" id="DejaVuSans-38" transform="scale(0.015625)"/>
       </defs>
       <use xlink:href="#DejaVuSans-30"/>
       <use x="63.623047" xlink:href="#DejaVuSans-2e"/>
       <use x="95.410156" xlink:href="#DejaVuSans-38"/>
      </g>
     </g>
    </g>
    <g id="text_13">
     <!-- State-value estimates -->
     <g transform="translate(71.824062 367.545313)rotate(-90)scale(0.14 -0.14)">
      <defs>
       <path d="M 2194 1759 
Q 1497 1759 1228 1600 
Q 959 1441 959 1056 
Q 959 750 1161 570 
Q 1363 391 1709 391 
Q 2188 391 2477 730 
Q 2766 1069 2766 1631 
L 2766 1759 
L 2194 1759 
z
M 3341 1997 
L 3341 0 
L 2766 0 
L 2766 531 
Q 2569 213 2275 61 
Q 1981 -91 1556 -91 
Q 1019 -91 701 211 
Q 384 513 384 1019 
Q 384 1609 779 1909 
Q 1175 2209 1959 2209 
L 2766 2209 
L 2766 2266 
Q 2766 2663 2505 2880 
Q 2244 3097 1772 3097 
Q 1472 3097 1187 3025 
Q 903 2953 641 2809 
L 641 3341 
Q 956 3463 1253 3523 
Q 1550 3584 1831 3584 
Q 2591 3584 2966 3190 
Q 3341 2797 3341 1997 
z
" id="DejaVuSans-61" transform="scale(0.015625)"/>
       <path d="M 313 2009 
L 1997 2009 
L 1997 1497 
L 313 1497 
L 313 2009 
z
" id="DejaVuSans-2d" transform="scale(0.015625)"/>
       <path d="M 191 3500 
L 800 3500 
L 1894 563 
L 2988 3500 
L 3597 3500 
L 2284 0 
L 1503 0 
L 191 3500 
z
" id="DejaVuSans-76" transform="scale(0.015625)"/>
       <path d="M 603 4863 
L 1178 4863 
L 1178 0 
L 603 0 
L 603 4863 
z
" id="DejaVuSans-6c" transform="scale(0.015625)"/>
       <path d="M 544 1381 
L 544 3500 
L 1119 3500 
L 1119 1403 
Q 1119 906 1312 657 
Q 1506 409 1894 409 
Q 2359 409 2629 706 
Q 2900 1003 2900 1516 
L 2900 3500 
L 3475 3500 
L 3475 0 
L 2900 0 
L 2900 538 
Q 2691 219 2414 64 
Q 2138 -91 1772 -91 
Q 1169 -91 856 284 
Q 544 659 544 1381 
z
M 1991 3584 
L 1991 3584 
z
" id="DejaVuSans-75" transform="scale(0.015625)"/>
      </defs>
      <use xlink:href="#DejaVuSans-53"/>
      <use x="63.476562" xlink:href="#DejaVuSans-74"/>
      <use x="102.685547" xlink:href="#DejaVuSans-61"/>
      <use x="163.964844" xlink:href="#DejaVuSans-74"/>
      <use x="203.173828" xlink:href="#DejaVuSans-65"/>
      <use x="264.697266" xlink:href="#DejaVuSans-2d"/>
      <use x="298.15625" xlink:href="#DejaVuSans-76"/>
      <use x="357.335938" xlink:href="#DejaVuSans-61"/>
      <use x="418.615234" xlink:href="#DejaVuSans-6c"/>
      <use x="446.398438" xlink:href="#DejaVuSans-75"/>
      <use x="509.777344" xlink:href="#DejaVuSans-65"/>
      <use x="571.300781" xlink:href="#DejaVuSans-20"/>
      <use x="603.087891" xlink:href="#DejaVuSans-65"/>
      <use x="664.611328" xlink:href="#DejaVuSans-73"/>
      <use x="716.710938" xlink:href="#DejaVuSans-74"/>
      <use x="755.919922" xlink:href="#DejaVuSans-69"/>
      <use x="783.703125" xlink:href="#DejaVuSans-6d"/>
      <use x="881.115234" xlink:href="#DejaVuSans-61"/>
      <use x="942.394531" xlink:href="#DejaVuSans-74"/>
      <use x="981.603516" xlink:href="#DejaVuSans-65"/>
      <use x="1043.126953" xlink:href="#DejaVuSans-73"/>
     </g>
    </g>
   </g>
   <g id="line2d_12">
    <path clip-path="url(#p07e0fadfc5)" d="M 135.392727 492.48 
L 683.247273 492.48 
L 683.247273 492.48 
" style="fill:none;stroke:#1f77b4;stroke-linecap:square;stroke-width:2;"/>
   </g>
   <g id="line2d_13">
    <path clip-path="url(#p07e0fadfc5)" d="M 135.392727 492.48 
L 683.247273 492.48 
L 683.247273 492.48 
" style="fill:none;stroke:#000000;stroke-dasharray:7.4,3.2;stroke-dashoffset:0;stroke-width:2;"/>
   </g>
   <g id="line2d_14">
    <path clip-path="url(#p07e0fadfc5)" d="M 135.392727 492.48 
L 140.882252 492.48 
L 141.980157 491.92856 
L 143.078062 491.724495 
L 147.469681 491.696819 
L 151.861301 491.95399 
L 152.959206 491.16742 
L 154.057111 490.523862 
L 156.25292 477.400607 
L 157.350825 472.046679 
L 158.44873 467.666193 
L 159.546635 466.951033 
L 160.64454 468.189367 
L 161.742445 469.20255 
L 163.938255 469.644329 
L 165.03616 469.806984 
L 166.134064 466.561168 
L 167.231969 463.9055 
L 168.329874 461.732681 
L 169.427779 462.222998 
L 170.525684 464.16971 
L 171.623589 460.898106 
L 172.721494 458.22134 
L 173.819399 458.465541 
L 174.917304 453.026732 
L 176.015209 451.834041 
L 177.113113 450.858203 
L 178.211018 448.644338 
L 179.308923 444.609225 
L 180.406828 439.965243 
L 181.504733 437.064061 
L 182.602638 434.690366 
L 183.700543 432.748252 
L 184.798448 429.065621 
L 185.896353 424.338948 
L 186.994258 420.47167 
L 188.092163 415.586687 
L 189.190067 415.765291 
L 190.287972 419.067284 
L 191.385877 421.747668 
L 192.483782 420.848493 
L 193.581687 420.112804 
L 195.777497 419.018391 
L 197.973307 419.480918 
L 200.169116 419.790543 
L 201.267021 418.646732 
L 202.364926 417.710887 
L 203.462831 419.666532 
L 204.560736 421.266605 
L 205.658641 422.575756 
L 206.756546 423.646879 
L 207.854451 426.595053 
L 208.952356 428.553473 
L 210.050261 430.155817 
L 211.148165 431.466826 
L 212.24607 434.215009 
L 213.343975 437.837233 
L 214.44188 440.800871 
L 215.539785 439.749379 
L 216.63769 437.831837 
L 217.735595 436.262939 
L 221.02931 437.62633 
L 222.127214 438.505475 
L 223.225119 436.818085 
L 224.323024 434.246755 
L 225.420929 431.010974 
L 226.518834 428.363517 
L 228.714644 427.800946 
L 229.812549 427.593817 
L 230.910454 425.850866 
L 232.008359 426.133121 
L 233.106263 427.833658 
L 234.204168 429.225007 
L 235.302073 426.386671 
L 236.399978 422.622218 
L 237.497883 419.542211 
L 238.595788 417.022205 
L 239.693693 413.334246 
L 240.791598 410.316825 
L 241.889503 409.755714 
L 242.987408 408.10445 
L 245.183217 408.871502 
L 246.281122 404.209074 
L 247.379027 400.394361 
L 248.476932 399.255034 
L 249.574837 400.079239 
L 250.672742 400.753589 
L 251.770647 401.778399 
L 252.868552 401.525472 
L 253.966457 402.86335 
L 255.064361 403.957977 
L 256.162266 406.212668 
L 257.260171 408.130616 
L 258.358076 407.704093 
L 259.455981 408.699953 
L 260.553886 409.514747 
L 261.651791 411.373592 
L 262.749696 412.894464 
L 263.847601 415.198732 
L 264.945506 417.084043 
L 266.04341 419.571505 
L 267.141315 422.46471 
L 268.23922 420.957353 
L 269.337125 419.724061 
L 270.43503 419.753746 
L 271.532935 419.979459 
L 272.63084 421.083178 
L 273.728745 422.827017 
L 274.82665 425.023916 
L 275.924555 426.686687 
L 278.120364 427.814449 
L 280.316174 428.608401 
L 281.414079 428.205227 
L 283.609889 427.709941 
L 285.805699 427.378386 
L 286.903604 427.946273 
L 288.001508 427.456783 
L 291.295223 428.367692 
L 292.393128 427.105323 
L 293.491033 426.072476 
L 294.588938 424.792695 
L 295.686843 423.745601 
L 296.784748 422.888888 
L 298.980557 421.614439 
L 300.078462 421.783761 
L 301.176367 422.520873 
L 302.274272 423.685507 
L 303.372177 424.638389 
L 304.470082 425.418021 
L 305.567987 426.56686 
L 307.763797 427.496767 
L 308.861702 427.873618 
L 309.959606 428.657052 
L 312.155416 429.802768 
L 313.253321 429.797603 
L 314.351226 429.346504 
L 318.742846 429.607534 
L 319.840751 429.646071 
L 320.938655 428.731811 
L 322.03656 427.964792 
L 324.23237 426.823772 
L 326.42818 426.059949 
L 327.526085 426.178323 
L 329.721895 427.046551 
L 333.015609 425.305442 
L 335.211419 424.194362 
L 339.603039 420.008406 
L 340.700944 418.420904 
L 341.798849 417.511579 
L 343.994658 416.837728 
L 346.190468 417.027494 
L 347.288373 417.430374 
L 348.386278 417.509425 
L 350.582088 418.210298 
L 351.679993 418.30996 
L 352.777898 418.693926 
L 353.875803 419.299093 
L 354.973707 420.074359 
L 357.169517 421.227647 
L 359.365327 421.690491 
L 360.463232 421.860901 
L 362.659042 422.574104 
L 364.854852 422.233869 
L 365.952756 422.349777 
L 367.050661 422.677602 
L 368.148566 422.735809 
L 370.344376 423.232221 
L 371.442281 423.417211 
L 372.540186 422.746474 
L 373.638091 422.230305 
L 376.931805 421.721314 
L 380.22552 421.48781 
L 382.42133 421.406518 
L 383.519235 421.565149 
L 384.61714 421.877867 
L 387.910854 423.125532 
L 390.106664 423.200258 
L 394.498284 423.94031 
L 398.889903 425.407874 
L 402.183618 425.637045 
L 403.281523 425.675093 
L 405.477333 426.09748 
L 408.771048 426.627159 
L 409.868952 426.471664 
L 410.966857 426.467641 
L 413.162667 426.683381 
L 415.358477 426.089498 
L 417.554287 425.691939 
L 418.652192 424.886379 
L 419.750097 424.227285 
L 423.043811 422.979076 
L 426.337526 422.407839 
L 427.435431 421.949583 
L 432.924955 420.803975 
L 437.316575 420.085372 
L 438.41448 419.810683 
L 440.61029 418.98554 
L 443.904004 418.120032 
L 446.099814 417.2087 
L 448.295624 416.857587 
L 449.393529 416.869291 
L 451.589339 417.140419 
L 453.785148 416.662384 
L 457.078863 416.183615 
L 459.274673 416.116478 
L 460.372578 415.882003 
L 462.568388 415.818931 
L 463.666293 415.948653 
L 465.862102 416.535494 
L 468.057912 416.603131 
L 469.155817 416.507114 
L 470.253722 415.842072 
L 472.449532 415.120147 
L 473.547437 414.854347 
L 474.645342 414.782447 
L 480.134866 415.147114 
L 481.232771 415.071896 
L 484.526486 415.418118 
L 485.624391 415.720026 
L 486.722296 415.858508 
L 488.918105 416.319711 
L 491.113915 416.767382 
L 493.309725 417.442885 
L 497.701345 417.864279 
L 499.897154 417.324878 
L 500.995059 417.267099 
L 504.288774 417.49624 
L 506.484584 417.406661 
L 509.778298 417.807927 
L 511.974108 418.144761 
L 514.169918 417.549858 
L 515.267823 417.471435 
L 519.659443 417.770629 
L 521.855252 418.26899 
L 524.051062 418.713837 
L 525.148967 418.771631 
L 528.442682 418.554735 
L 530.638492 418.220309 
L 531.736396 418.24537 
L 536.128016 418.845246 
L 540.519636 419.188884 
L 546.00916 420.0738 
L 548.20497 420.551603 
L 553.694494 421.48473 
L 555.890304 421.964762 
L 556.988209 422.0112 
L 559.184019 422.444649 
L 562.477734 423.081512 
L 566.869353 423.494419 
L 569.065163 423.989851 
L 570.163068 424.04449 
L 572.358878 423.253747 
L 574.554688 422.724407 
L 575.652592 422.660322 
L 577.848402 422.800406 
L 581.142117 422.630116 
L 582.240022 422.726114 
L 584.435832 422.641596 
L 585.533737 422.363563 
L 587.729546 422.189608 
L 589.925356 421.660371 
L 592.121166 421.306088 
L 593.219071 421.30842 
L 594.316976 421.441753 
L 596.512786 421.072963 
L 598.708595 421.103535 
L 602.00231 421.479103 
L 605.296025 421.122797 
L 606.39393 421.064683 
L 610.785549 421.382282 
L 611.883454 421.351759 
L 612.981359 421.108895 
L 617.372979 420.957634 
L 619.568788 420.935339 
L 621.764598 421.160807 
L 623.960408 420.780455 
L 625.058313 420.650919 
L 626.156218 420.67867 
L 629.449933 421.195482 
L 631.645742 421.780659 
L 632.743647 422.006913 
L 633.841552 421.960243 
L 634.939457 422.052686 
L 638.233172 422.57574 
L 641.526887 422.621443 
L 642.624791 422.51539 
L 643.722696 422.558714 
L 645.918506 422.984767 
L 648.114316 423.391819 
L 649.212221 423.541688 
L 650.310126 423.561775 
L 653.60384 424.044695 
L 655.79965 424.60127 
L 656.897555 424.806191 
L 660.19127 424.321932 
L 661.289175 424.216366 
L 665.680794 422.918576 
L 666.778699 422.837296 
L 667.876604 422.90009 
L 668.974509 423.07945 
L 671.170319 422.531033 
L 674.464034 422.276137 
L 683.247273 423.195418 
L 683.247273 423.195418 
" style="fill:none;stroke:#ff7f0e;stroke-linecap:square;stroke-width:2;"/>
   </g>
   <g id="line2d_15">
    <path clip-path="url(#p07e0fadfc5)" d="M 135.392727 429.523661 
L 683.247273 429.523661 
L 683.247273 429.523661 
" style="fill:none;stroke:#000000;stroke-dasharray:7.4,3.2;stroke-dashoffset:0;stroke-width:2;"/>
   </g>
   <g id="line2d_16">
    <path clip-path="url(#p07e0fadfc5)" d="M 135.392727 492.48 
L 139.784347 492.48 
L 140.882252 490.233921 
L 141.980157 487.226098 
L 143.078062 486.051394 
L 144.175966 485.090272 
L 145.273871 482.749626 
L 146.371776 480.834553 
L 147.469681 479.267675 
L 150.763396 479.77602 
L 151.861301 479.887945 
L 152.959206 455.25072 
L 154.057111 435.09299 
L 155.155015 419.911135 
L 156.25292 418.407289 
L 157.350825 417.17687 
L 158.44873 416.170163 
L 159.546635 415.346494 
L 160.64454 414.05507 
L 161.742445 412.998449 
L 162.84035 417.968515 
L 163.938255 422.034932 
L 165.03616 417.186087 
L 166.134064 411.346605 
L 167.231969 406.568847 
L 168.329874 388.831724 
L 169.427779 380.583693 
L 170.525684 373.835305 
L 171.623589 369.353286 
L 172.721494 365.68618 
L 173.819399 362.685821 
L 174.917304 347.213894 
L 176.015209 342.2794 
L 177.113113 335.226211 
L 178.211018 333.93912 
L 179.308923 336.511643 
L 182.602638 351.307117 
L 183.700543 352.955385 
L 184.798448 354.140981 
L 185.896353 353.129112 
L 186.994258 352.301218 
L 188.092163 350.458084 
L 189.190067 351.164084 
L 190.287972 352.103644 
L 191.385877 348.683215 
L 192.483782 346.836541 
L 193.581687 345.325626 
L 194.679592 344.089423 
L 195.777497 343.077984 
L 196.875402 345.117732 
L 197.973307 346.786616 
L 199.071212 345.123398 
L 200.169116 343.762582 
L 201.267021 342.827525 
L 202.364926 342.062479 
L 203.462831 344.043791 
L 204.560736 345.664865 
L 205.658641 344.602891 
L 206.756546 343.734003 
L 207.854451 343.023095 
L 208.952356 345.759368 
L 210.050261 347.998138 
L 211.148165 346.306014 
L 212.24607 347.938175 
L 213.343975 349.27358 
L 214.44188 347.993171 
L 215.539785 351.652913 
L 216.63769 357.454677 
L 217.735595 362.201574 
L 218.8335 366.0854 
L 219.931405 369.263075 
L 221.02931 373.147744 
L 222.127214 378.610727 
L 223.225119 379.152797 
L 226.518834 367.434902 
L 227.616739 366.184915 
L 228.714644 365.162199 
L 230.910454 358.670571 
L 232.008359 354.060231 
L 233.106263 350.255509 
L 234.204168 347.142554 
L 235.302073 342.933179 
L 236.399978 341.028248 
L 237.497883 339.469668 
L 238.595788 338.194466 
L 240.791598 338.29286 
L 241.889503 339.508744 
L 244.085312 339.039184 
L 245.183217 338.889468 
L 247.379027 337.848163 
L 248.476932 337.464774 
L 249.574837 338.211365 
L 250.672742 337.385843 
L 251.770647 336.76136 
L 252.868552 335.267732 
L 253.966457 334.045673 
L 255.064361 333.045806 
L 256.162266 332.227733 
L 257.260171 334.159473 
L 259.455981 335.636842 
L 260.553886 335.390783 
L 261.651791 336.387551 
L 262.749696 337.203089 
L 264.945506 338.416285 
L 267.141315 338.642651 
L 268.23922 341.073431 
L 269.337125 343.062251 
L 270.43503 344.689468 
L 271.532935 347.691046 
L 272.63084 350.146884 
L 273.728745 352.156205 
L 274.82665 353.266288 
L 275.924555 355.369269 
L 277.022459 357.190307 
L 278.120364 359.525184 
L 279.218269 361.435537 
L 280.316174 361.802333 
L 281.414079 361.299687 
L 284.707794 360.929274 
L 285.805699 360.847718 
L 286.903604 361.482604 
L 288.001508 364.344617 
L 289.099413 365.258 
L 290.197318 366.577262 
L 291.295223 367.656659 
L 293.491033 368.886227 
L 295.686843 369.418242 
L 298.980557 369.90551 
L 300.078462 370.441176 
L 301.176367 371.310771 
L 303.372177 372.1929 
L 304.470082 372.517685 
L 305.567987 373.230291 
L 306.665892 372.086057 
L 307.763797 371.149865 
L 308.861702 369.808906 
L 309.959606 369.213391 
L 312.155416 369.187842 
L 313.253321 368.040056 
L 314.351226 365.688878 
L 317.644941 360.111688 
L 318.742846 358.766536 
L 319.840751 357.665957 
L 320.938655 357.376144 
L 322.03656 356.458019 
L 323.134465 355.706825 
L 324.23237 353.984277 
L 325.330275 352.574919 
L 326.42818 351.421808 
L 327.526085 350.478354 
L 329.721895 349.928721 
L 330.8198 350.303845 
L 331.917704 350.282017 
L 334.113514 350.730798 
L 335.211419 350.896031 
L 336.309324 352.047915 
L 338.505134 352.541243 
L 339.603039 352.396289 
L 340.700944 353.405359 
L 345.092563 356.572314 
L 346.190468 357.087822 
L 348.386278 357.702458 
L 350.582088 358.076653 
L 351.679993 358.949941 
L 353.875803 360.107552 
L 356.071612 360.882482 
L 359.365327 361.800286 
L 362.659042 361.700919 
L 363.756947 360.124276 
L 364.854852 358.834295 
L 365.952756 357.769305 
L 367.050661 356.897949 
L 368.148566 356.393915 
L 369.246471 356.207201 
L 370.344376 355.82661 
L 371.442281 355.305405 
L 372.540186 355.295296 
L 373.638091 355.48253 
L 374.735996 355.828639 
L 378.02971 356.005525 
L 380.22552 355.321667 
L 381.323425 355.069883 
L 382.42133 354.679984 
L 383.519235 354.543689 
L 387.910854 354.751359 
L 390.106664 354.176478 
L 392.302474 354.098013 
L 394.498284 354.631754 
L 395.596189 354.66181 
L 397.791999 354.992945 
L 398.889903 354.963016 
L 403.281523 353.782878 
L 405.477333 353.665114 
L 408.771048 352.667336 
L 410.966857 351.858703 
L 413.162667 351.587961 
L 414.260572 351.531283 
L 418.652192 350.931899 
L 421.945906 350.591686 
L 423.043811 350.521171 
L 424.141716 350.596053 
L 426.337526 350.355291 
L 430.729146 349.853192 
L 437.316575 349.663369 
L 438.41448 349.557628 
L 439.512385 349.607525 
L 441.708195 348.801298 
L 442.806099 348.504459 
L 443.904004 348.518349 
L 448.295624 348.206609 
L 450.491434 348.122928 
L 451.589339 347.85426 
L 453.785148 347.471108 
L 454.883053 347.278201 
L 457.078863 347.480688 
L 459.274673 347.438186 
L 461.470483 348.252684 
L 463.666293 349.11783 
L 465.862102 349.821059 
L 468.057912 349.689738 
L 471.351627 349.520719 
L 473.547437 349.466302 
L 476.841151 349.715504 
L 480.134866 348.808666 
L 482.330676 347.995976 
L 483.428581 347.696759 
L 485.624391 347.503316 
L 491.113915 348.39962 
L 492.21182 348.470557 
L 493.309725 348.787234 
L 495.505535 348.845343 
L 505.386679 350.323007 
L 509.778298 350.107047 
L 511.974108 350.363212 
L 513.072013 350.945282 
L 516.365728 351.915764 
L 520.757347 352.555763 
L 521.855252 352.624579 
L 524.051062 352.191655 
L 525.148967 352.356545 
L 526.246872 352.369819 
L 528.442682 352.948418 
L 529.540587 352.835622 
L 530.638492 352.863856 
L 531.736396 352.768978 
L 532.834301 352.814643 
L 536.128016 351.948176 
L 538.323826 351.743017 
L 539.421731 351.794264 
L 540.519636 351.731661 
L 542.715445 350.861634 
L 546.00916 349.841177 
L 547.107065 349.401166 
L 549.302875 348.995366 
L 551.498685 349.016502 
L 554.792399 349.371961 
L 555.890304 349.720241 
L 558.086114 350.159594 
L 559.184019 350.397825 
L 561.379829 350.539078 
L 563.575639 351.122164 
L 564.673543 351.336845 
L 565.771448 351.775742 
L 567.967258 352.356004 
L 570.163068 352.992482 
L 572.358878 353.6232 
L 576.750497 354.554584 
L 578.946307 354.350018 
L 580.044212 354.026855 
L 582.240022 354.030555 
L 584.435832 353.633554 
L 585.533737 353.510384 
L 587.729546 353.558414 
L 589.925356 354.277001 
L 594.316976 355.421466 
L 596.512786 356.116458 
L 604.19812 357.808387 
L 607.491835 357.82874 
L 609.687644 357.81498 
L 615.177169 359.052679 
L 617.372979 359.801703 
L 620.666693 359.841433 
L 621.764598 359.720221 
L 622.862503 359.430168 
L 625.058313 359.191375 
L 627.254123 359.239995 
L 628.352028 359.134342 
L 630.547837 358.526586 
L 631.645742 358.302757 
L 632.743647 358.240997 
L 634.939457 357.906558 
L 637.135267 357.904098 
L 639.331077 358.551385 
L 640.428982 358.665062 
L 644.820601 358.064758 
L 645.918506 358.128823 
L 648.114316 358.665834 
L 649.212221 358.735393 
L 651.408031 359.489181 
L 653.60384 359.050444 
L 657.99546 358.328868 
L 659.093365 358.067262 
L 662.38708 356.274568 
L 664.582889 355.811032 
L 665.680794 355.640367 
L 667.876604 355.622226 
L 668.974509 355.745582 
L 670.072414 356.56656 
L 672.268224 356.79425 
L 674.464034 357.166613 
L 677.757748 357.64133 
L 678.855653 357.74585 
L 682.149368 359.178857 
L 683.247273 359.816041 
L 683.247273 359.816041 
" style="fill:none;stroke:#2ca02c;stroke-linecap:square;stroke-width:2;"/>
   </g>
   <g id="line2d_17">
    <path clip-path="url(#p07e0fadfc5)" d="M 135.392727 364.91402 
L 683.247273 364.91402 
L 683.247273 364.91402 
" style="fill:none;stroke:#000000;stroke-dasharray:7.4,3.2;stroke-dashoffset:0;stroke-width:2;"/>
   </g>
   <g id="line2d_18">
    <path clip-path="url(#p07e0fadfc5)" d="M 135.392727 492.48 
L 137.588537 492.48 
L 138.686442 487.910435 
L 139.784347 484.1717 
L 140.882252 479.580916 
L 141.980157 474.223912 
L 143.078062 471.776921 
L 144.175966 469.774838 
L 145.273871 458.495165 
L 146.371776 444.809191 
L 147.469681 433.611576 
L 148.567586 431.170478 
L 149.665491 429.173217 
L 151.861301 371.017836 
L 152.959206 353.133544 
L 155.155015 322.632928 
L 156.25292 316.522683 
L 157.350825 311.523392 
L 158.44873 307.433063 
L 159.546635 304.08643 
L 160.64454 310.098479 
L 161.742445 315.017428 
L 162.84035 319.042023 
L 163.938255 315.798183 
L 165.03616 304.124806 
L 166.134064 302.88118 
L 167.231969 295.619756 
L 168.329874 285.375916 
L 169.427779 276.635964 
L 170.525684 269.485094 
L 171.623589 264.966678 
L 172.721494 257.100316 
L 173.819399 250.664201 
L 176.015209 251.689891 
L 177.113113 250.956786 
L 178.211018 255.982828 
L 180.406828 271.385342 
L 181.504733 282.394742 
L 182.602638 291.402432 
L 183.700543 296.660094 
L 184.798448 289.473328 
L 185.896353 283.088022 
L 186.994258 277.863681 
L 188.092163 274.61 
L 189.190067 271.947897 
L 190.287972 276.158939 
L 193.581687 271.797419 
L 194.679592 270.72075 
L 195.777497 267.922083 
L 197.973307 268.443697 
L 199.071212 262.43845 
L 200.169116 257.525067 
L 201.267021 261.791224 
L 202.364926 265.281717 
L 203.462831 268.137575 
L 204.560736 270.474186 
L 205.658641 268.975745 
L 206.756546 267.749749 
L 207.854451 266.74666 
L 208.952356 270.644175 
L 210.050261 273.833051 
L 211.148165 274.170296 
L 213.343975 273.633491 
L 214.44188 271.013604 
L 215.539785 268.870059 
L 216.63769 267.11625 
L 217.735595 263.331831 
L 218.8335 260.235488 
L 219.931405 257.702117 
L 221.02931 255.629358 
L 222.127214 255.839647 
L 223.225119 261.452445 
L 224.323024 263.766022 
L 225.420929 269.934005 
L 226.518834 274.980536 
L 227.616739 278.424698 
L 228.714644 274.780811 
L 229.812549 269.664841 
L 230.910454 263.95477 
L 232.008359 263.108151 
L 233.106263 264.639106 
L 234.204168 264.390218 
L 235.302073 265.540467 
L 236.399978 266.901317 
L 237.497883 268.014739 
L 238.595788 268.925721 
L 239.693693 270.485951 
L 240.791598 271.762503 
L 241.889503 272.806955 
L 242.987408 271.831276 
L 244.085312 269.558473 
L 245.183217 267.698906 
L 247.379027 266.393376 
L 248.476932 265.912703 
L 249.574837 263.435521 
L 250.672742 261.624835 
L 251.770647 261.910954 
L 252.868552 263.122268 
L 253.966457 264.113344 
L 255.064361 264.924224 
L 256.162266 265.587671 
L 257.260171 267.116621 
L 258.358076 267.841491 
L 259.455981 269.654385 
L 260.553886 269.667289 
L 261.651791 270.672213 
L 262.749696 271.494423 
L 264.945506 272.717545 
L 266.04341 274.04382 
L 267.141315 275.128954 
L 268.23922 277.761907 
L 269.337125 279.91614 
L 270.43503 281.678695 
L 271.532935 283.95405 
L 272.63084 285.815704 
L 273.728745 287.338875 
L 275.924555 292.972323 
L 277.022459 294.398535 
L 278.120364 297.034834 
L 281.414079 303.336412 
L 283.609889 302.499642 
L 285.805699 301.939491 
L 286.903604 302.373097 
L 288.001508 302.559431 
L 289.099413 303.993647 
L 290.197318 305.769075 
L 291.295223 306.405603 
L 293.491033 305.741244 
L 294.588938 304.794671 
L 295.686843 302.662351 
L 296.784748 300.917725 
L 297.882653 299.490303 
L 298.980557 298.322413 
L 300.078462 296.297761 
L 301.176367 295.384682 
L 305.567987 295.198028 
L 306.665892 295.684369 
L 311.057511 294.834531 
L 313.253321 293.40982 
L 314.351226 292.265398 
L 315.449131 291.329052 
L 318.742846 286.401658 
L 319.840751 285.201096 
L 320.938655 285.116846 
L 323.134465 285.679581 
L 326.42818 285.17268 
L 327.526085 285.061073 
L 328.62399 285.335195 
L 329.721895 285.184411 
L 330.8198 285.782128 
L 331.917704 285.859209 
L 333.015609 287.251202 
L 336.309324 287.348323 
L 337.407229 287.704772 
L 338.505134 287.301757 
L 339.603039 286.627859 
L 340.700944 285.698062 
L 341.798849 284.93732 
L 343.994658 284.473484 
L 346.190468 284.162982 
L 348.386278 284.546868 
L 349.484183 284.680745 
L 351.679993 284.276584 
L 354.973707 284.712496 
L 359.365327 284.99762 
L 362.659042 283.388339 
L 363.756947 282.046075 
L 364.854852 280.94786 
L 367.050661 280.266203 
L 369.246471 280.356774 
L 370.344376 280.20762 
L 371.442281 280.795535 
L 375.833901 281.791788 
L 378.02971 281.214783 
L 380.22552 281.968049 
L 381.323425 282.041389 
L 384.61714 281.682287 
L 389.008759 281.266896 
L 390.106664 280.914294 
L 391.204569 280.803911 
L 393.400379 280.331203 
L 394.498284 280.157161 
L 395.596189 280.35301 
L 396.694094 280.677649 
L 399.987808 280.944494 
L 401.085713 280.703182 
L 402.183618 280.81453 
L 404.379428 281.496622 
L 405.477333 281.747755 
L 407.673143 281.623392 
L 408.771048 281.709032 
L 410.966857 281.15544 
L 415.358477 280.815543 
L 419.750097 280.359345 
L 424.141716 279.824142 
L 427.435431 279.520538 
L 429.631241 279.613224 
L 434.02286 279.403721 
L 438.41448 279.331101 
L 440.61029 279.711019 
L 443.904004 280.20908 
L 447.197719 280.469877 
L 451.589339 280.237895 
L 452.687244 280.806265 
L 453.785148 280.996164 
L 454.883053 281.021806 
L 455.980958 281.289419 
L 458.176768 281.434715 
L 460.372578 282.073862 
L 462.568388 282.827312 
L 464.764197 283.331689 
L 465.862102 283.517391 
L 466.960007 284.14248 
L 468.057912 284.37752 
L 469.155817 284.299376 
L 471.351627 283.658953 
L 473.547437 283.230241 
L 476.841151 283.151949 
L 477.939056 283.359128 
L 479.036961 283.397219 
L 480.134866 283.302291 
L 482.330676 283.367166 
L 484.526486 283.171555 
L 488.918105 283.769011 
L 490.01601 283.815455 
L 491.113915 283.97542 
L 493.309725 284.648545 
L 494.40763 284.876513 
L 495.505535 284.92321 
L 496.60344 285.201414 
L 499.897154 285.569574 
L 503.190869 285.094198 
L 507.582489 284.658073 
L 509.778298 284.259532 
L 511.974108 284.221601 
L 513.072013 284.333554 
L 515.267823 284.211536 
L 516.365728 284.282421 
L 521.855252 285.905058 
L 524.051062 285.954883 
L 526.246872 285.556666 
L 529.540587 285.007882 
L 530.638492 284.86854 
L 536.128016 286.135078 
L 540.519636 286.546956 
L 541.617541 286.967009 
L 544.911255 286.467797 
L 546.00916 286.338897 
L 548.20497 286.533136 
L 549.302875 286.33483 
L 556.988209 285.992727 
L 561.379829 285.570318 
L 562.477734 285.503532 
L 565.771448 284.905222 
L 567.967258 285.349068 
L 570.163068 285.876881 
L 571.260973 286.583593 
L 573.456783 287.386815 
L 576.750497 288.348342 
L 577.848402 288.306182 
L 578.946307 288.136148 
L 581.142117 288.604354 
L 582.240022 289.070248 
L 583.337927 289.038391 
L 584.435832 288.881539 
L 586.631641 288.378155 
L 587.729546 288.192818 
L 589.925356 288.128562 
L 592.121166 287.357866 
L 594.316976 286.841946 
L 595.414881 286.787339 
L 599.8065 287.053486 
L 602.00231 287.124928 
L 605.296025 286.091262 
L 606.39393 286.060812 
L 609.687644 287.088719 
L 610.785549 287.268704 
L 614.079264 286.999181 
L 615.177169 286.941885 
L 620.666693 287.361928 
L 621.764598 287.116486 
L 622.862503 287.191356 
L 627.254123 288.414583 
L 628.352028 288.641398 
L 629.449933 288.679292 
L 630.547837 288.83797 
L 633.841552 288.529338 
L 634.939457 288.465701 
L 638.233172 288.792408 
L 639.331077 288.943744 
L 640.428982 288.941966 
L 642.624791 288.587814 
L 643.722696 288.406559 
L 644.820601 288.389074 
L 647.016411 288.600737 
L 648.114316 288.549519 
L 651.408031 288.13629 
L 656.897555 287.985493 
L 661.289175 289.392656 
L 664.582889 290.1149 
L 666.778699 290.088166 
L 670.072414 289.742244 
L 676.659843 290.850694 
L 679.953558 291.26459 
L 682.149368 291.926499 
L 683.247273 292.353077 
L 683.247273 292.353077 
" style="fill:none;stroke:#d62728;stroke-linecap:square;stroke-width:2;"/>
   </g>
   <g id="line2d_19">
    <path clip-path="url(#p07e0fadfc5)" d="M 135.392727 297.727288 
L 683.247273 297.727288 
L 683.247273 297.727288 
" style="fill:none;stroke:#000000;stroke-dasharray:7.4,3.2;stroke-dashoffset:0;stroke-width:2;"/>
   </g>
   <g id="line2d_20">
    <path clip-path="url(#p07e0fadfc5)" d="M 135.392727 492.48 
L 136.490632 492.48 
L 137.588537 473.9782 
L 138.686442 463.539883 
L 139.784347 454.999442 
L 140.882252 452.098557 
L 141.980157 424.139498 
L 143.078062 413.666145 
L 144.175966 405.097038 
L 145.273871 386.79534 
L 146.371776 363.710214 
L 147.469681 344.822384 
L 148.567586 338.748283 
L 149.665491 313.90215 
L 151.861301 276.723422 
L 152.959206 255.834226 
L 154.057111 238.743066 
L 155.155015 227.675014 
L 156.25292 223.735994 
L 157.350825 220.513159 
L 158.44873 210.317993 
L 159.546635 201.976494 
L 160.64454 201.568271 
L 161.742445 195.918633 
L 162.84035 191.296203 
L 163.938255 191.594548 
L 165.03616 186.984623 
L 166.134064 186.822883 
L 167.231969 182.526907 
L 168.329874 180.20527 
L 169.427779 182.463061 
L 170.525684 184.310344 
L 171.623589 182.255696 
L 172.721494 184.402839 
L 173.819399 186.159592 
L 174.917304 185.0119 
L 176.015209 184.072879 
L 177.113113 185.020642 
L 178.211018 189.646617 
L 179.308923 197.988206 
L 180.406828 204.813142 
L 181.504733 210.397181 
L 182.602638 214.96594 
L 183.700543 210.04476 
L 184.798448 207.606098 
L 185.896353 203.551115 
L 188.092163 196.887468 
L 189.190067 194.149887 
L 190.287972 195.255142 
L 191.385877 201.798722 
L 192.483782 206.457229 
L 193.581687 207.68303 
L 194.679592 208.685959 
L 195.777497 206.215309 
L 196.875402 204.193869 
L 197.973307 200.240199 
L 200.169116 187.849809 
L 201.267021 185.832912 
L 202.364926 184.182724 
L 203.462831 182.83257 
L 204.560736 181.727898 
L 205.658641 179.995311 
L 206.756546 176.658504 
L 207.854451 173.92839 
L 208.952356 171.69466 
L 210.050261 169.867063 
L 211.148165 166.483883 
L 212.24607 170.266174 
L 213.343975 173.360776 
L 216.63769 172.950064 
L 217.735595 170.597366 
L 218.8335 168.672431 
L 219.931405 163.790788 
L 221.02931 159.796716 
L 222.127214 161.441768 
L 223.225119 165.556324 
L 224.323024 168.64207 
L 225.420929 171.166772 
L 226.518834 173.232436 
L 228.714644 182.627258 
L 229.812549 181.800639 
L 230.910454 179.411483 
L 232.008359 177.456719 
L 235.302073 184.804251 
L 236.399978 186.186736 
L 237.497883 186.248089 
L 238.595788 184.352133 
L 239.693693 185.723262 
L 240.791598 184.880911 
L 241.889503 184.191715 
L 242.987408 182.733177 
L 244.085312 184.479329 
L 245.183217 183.739796 
L 246.281122 186.400685 
L 247.379027 187.455355 
L 248.476932 188.318267 
L 249.574837 192.216033 
L 250.672742 194.966638 
L 252.868552 201.951332 
L 253.966457 204.741469 
L 255.064361 206.031456 
L 257.260171 208.071557 
L 258.358076 209.837357 
L 261.651791 213.666991 
L 262.749696 214.666551 
L 263.847601 215.484372 
L 266.04341 216.749633 
L 267.141315 217.237378 
L 268.23922 218.559382 
L 270.43503 219.047437 
L 271.532935 220.162214 
L 272.63084 221.074303 
L 273.728745 221.820559 
L 275.924555 222.930691 
L 277.022459 221.811012 
L 278.120364 220.894912 
L 279.218269 220.145375 
L 280.316174 218.105106 
L 281.414079 214.665023 
L 282.511984 215.582983 
L 283.609889 215.619503 
L 284.707794 214.980758 
L 285.805699 213.830182 
L 286.903604 213.875589 
L 288.001508 215.713716 
L 289.099413 218.001051 
L 290.197318 219.872506 
L 292.393128 221.318994 
L 293.491033 221.860844 
L 294.588938 221.618858 
L 295.686843 220.822658 
L 297.882653 219.638229 
L 298.980557 219.202144 
L 301.176367 219.713447 
L 302.274272 219.904022 
L 303.372177 219.497253 
L 304.470082 218.150042 
L 305.567987 217.047778 
L 306.665892 215.669425 
L 307.763797 214.739933 
L 309.959606 213.803742 
L 311.057511 213.459053 
L 313.253321 211.134321 
L 314.351226 212.148182 
L 315.449131 212.977706 
L 316.547036 213.507271 
L 317.644941 213.541838 
L 318.742846 213.171254 
L 319.840751 212.470211 
L 320.938655 212.380585 
L 323.134465 213.338115 
L 324.23237 214.615251 
L 326.42818 215.734821 
L 328.62399 216.484285 
L 331.917704 216.124466 
L 333.015609 216.041829 
L 334.113514 216.758968 
L 336.309324 217.064583 
L 337.407229 216.773032 
L 338.505134 216.116664 
L 339.603039 214.19679 
L 340.700944 212.510333 
L 341.798849 211.130504 
L 342.896754 210.373237 
L 352.777898 204.823065 
L 357.169517 203.147903 
L 358.267422 203.437839 
L 359.365327 203.42696 
L 360.463232 202.664923 
L 362.659042 201.425354 
L 364.854852 201.986373 
L 367.050661 202.36193 
L 371.442281 206.018292 
L 373.638091 206.727372 
L 374.735996 206.988442 
L 375.833901 206.852848 
L 379.127615 206.839099 
L 380.22552 206.674143 
L 381.323425 206.223894 
L 383.519235 205.770425 
L 387.910854 204.997658 
L 389.008759 205.060676 
L 390.106664 204.824963 
L 391.204569 204.816421 
L 394.498284 204.45548 
L 395.596189 204.376009 
L 396.694094 204.485015 
L 401.085713 204.428157 
L 407.673143 206.868869 
L 408.771048 207.037487 
L 409.868952 207.510895 
L 410.966857 208.291893 
L 412.064762 208.930892 
L 414.260572 209.658088 
L 415.358477 209.803317 
L 417.554287 209.790819 
L 418.652192 210.545679 
L 420.848001 211.421285 
L 424.141716 212.448489 
L 426.337526 213.068046 
L 427.435431 213.376099 
L 428.533336 213.870765 
L 429.631241 214.133894 
L 430.729146 213.801056 
L 432.924955 213.401541 
L 435.120765 212.783828 
L 438.41448 210.881301 
L 439.512385 210.506427 
L 440.61029 210.341282 
L 445.001909 208.716647 
L 447.197719 207.861371 
L 449.393529 207.321194 
L 450.491434 207.122311 
L 451.589339 207.114488 
L 455.980958 207.746553 
L 457.078863 207.963215 
L 458.176768 207.906294 
L 460.372578 208.332621 
L 463.666293 208.723091 
L 465.862102 208.879403 
L 469.155817 208.759204 
L 471.351627 209.754889 
L 473.547437 210.421422 
L 475.743246 210.862444 
L 476.841151 210.887845 
L 479.036961 211.422639 
L 480.134866 211.478284 
L 484.526486 210.134173 
L 486.722296 209.692428 
L 488.918105 209.265015 
L 492.21182 208.726126 
L 494.40763 208.377611 
L 495.505535 208.056908 
L 496.60344 207.943358 
L 497.701345 207.716474 
L 498.799249 207.690505 
L 499.897154 207.272483 
L 503.190869 207.576781 
L 506.484584 207.063617 
L 508.680394 206.659523 
L 513.072013 205.80684 
L 515.267823 204.878477 
L 518.561538 204.406147 
L 519.659443 204.457694 
L 522.953157 205.505173 
L 524.051062 205.712134 
L 525.148967 206.176509 
L 528.442682 206.473039 
L 529.540587 207.394915 
L 531.736396 208.904411 
L 532.834301 209.522329 
L 533.932206 209.890398 
L 535.030111 210.079632 
L 536.128016 209.976528 
L 539.421731 208.984552 
L 540.519636 208.612234 
L 541.617541 208.77999 
L 543.81335 209.409345 
L 544.911255 209.398037 
L 546.00916 209.26843 
L 548.20497 209.338867 
L 551.498685 209.816042 
L 552.59659 209.921104 
L 554.792399 209.850186 
L 555.890304 210.111008 
L 562.477734 210.597002 
L 563.575639 210.518491 
L 564.673543 210.21094 
L 566.869353 210.050876 
L 570.163068 210.263562 
L 572.358878 210.95198 
L 573.456783 211.214941 
L 577.848402 211.525239 
L 578.946307 211.471003 
L 581.142117 212.06346 
L 583.337927 213.0033 
L 584.435832 213.157668 
L 586.631641 212.991785 
L 587.729546 212.68716 
L 594.316976 212.025529 
L 597.61069 212.542544 
L 602.00231 212.888065 
L 606.39393 212.66244 
L 607.491835 212.556224 
L 608.589739 212.756255 
L 610.785549 212.819766 
L 611.883454 213.011306 
L 615.177169 212.647382 
L 618.470884 212.323653 
L 623.960408 212.188284 
L 628.352028 212.310553 
L 630.547837 213.453863 
L 632.743647 214.485556 
L 636.037362 215.575699 
L 638.233172 216.169905 
L 640.428982 216.354179 
L 641.526887 216.305774 
L 645.918506 215.674644 
L 652.505936 215.633768 
L 655.79965 215.718319 
L 657.99546 215.416394 
L 659.093365 215.256673 
L 661.289175 216.061936 
L 663.484985 216.609016 
L 674.464034 218.62951 
L 683.247273 219.475073 
L 683.247273 219.475073 
" style="fill:none;stroke:#9467bd;stroke-linecap:square;stroke-width:2;"/>
   </g>
   <g id="line2d_21">
    <path clip-path="url(#p07e0fadfc5)" d="M 135.392727 225.843246 
L 683.247273 225.843246 
L 683.247273 225.843246 
" style="fill:none;stroke:#000000;stroke-dasharray:7.4,3.2;stroke-dashoffset:0;stroke-width:2;"/>
   </g>
   <g id="line2d_22">
    <path clip-path="url(#p07e0fadfc5)" d="M 135.392727 280.368975 
L 136.490632 280.368975 
L 137.588537 261.680288 
L 138.686442 246.389543 
L 139.784347 224.543462 
L 141.980157 187.24676 
L 144.175966 188.043938 
L 145.273871 178.750856 
L 146.371776 165.808657 
L 147.469681 155.219585 
L 148.567586 146.555799 
L 149.665491 142.035419 
L 150.763396 142.603869 
L 151.861301 137.540331 
L 154.057111 122.046047 
L 155.155015 117.484536 
L 156.25292 113.75239 
L 159.546635 99.243633 
L 160.64454 101.343143 
L 161.742445 100.4049 
L 162.84035 99.637246 
L 163.938255 100.44954 
L 165.03616 102.216909 
L 166.134064 103.662938 
L 167.231969 102.425769 
L 168.329874 102.775038 
L 169.427779 106.643233 
L 170.525684 109.80812 
L 171.623589 114.296518 
L 172.721494 116.004943 
L 173.819399 117.402746 
L 174.917304 115.677347 
L 176.015209 114.265657 
L 177.113113 111.121509 
L 178.211018 113.340711 
L 179.308923 115.156421 
L 180.406828 116.642002 
L 181.504733 117.857478 
L 182.602638 116.297534 
L 183.700543 116.512195 
L 184.798448 119.277143 
L 185.896353 120.508632 
L 186.994258 118.998122 
L 188.092163 115.877328 
L 189.190067 113.323951 
L 190.287972 111.234824 
L 192.483782 125.672375 
L 193.581687 128.118134 
L 194.679592 127.351833 
L 195.777497 124.585597 
L 196.875402 122.322312 
L 197.973307 121.381306 
L 199.071212 124.539326 
L 200.169116 125.419593 
L 201.267021 126.139812 
L 202.364926 124.589828 
L 203.462831 123.32166 
L 204.560736 120.609837 
L 205.658641 118.679923 
L 206.756546 115.728757 
L 207.854451 113.314166 
L 208.952356 111.338592 
L 210.050261 108.649722 
L 211.148165 105.576057 
L 212.24607 103.061239 
L 213.343975 101.003661 
L 214.44188 98.628159 
L 215.539785 96.684567 
L 216.63769 95.094355 
L 217.735595 93.239984 
L 218.8335 91.722772 
L 222.127214 91.419689 
L 223.225119 91.352957 
L 225.420929 90.192939 
L 226.518834 89.28 
L 228.714644 97.222832 
L 229.812549 103.591533 
L 230.910454 108.197275 
L 232.008359 111.965608 
L 233.106263 115.048791 
L 234.204168 116.222688 
L 235.302073 117.674705 
L 236.399978 121.449519 
L 237.497883 123.049351 
L 238.595788 124.049862 
L 239.693693 125.804934 
L 240.791598 126.908804 
L 241.889503 127.811971 
L 244.085312 126.886547 
L 245.183217 126.551864 
L 246.281122 127.882999 
L 248.476932 127.66499 
L 249.574837 129.73047 
L 250.672742 132.308189 
L 251.770647 136.493845 
L 252.868552 138.43485 
L 253.966457 140.022945 
L 255.064361 141.113369 
L 256.162266 142.005534 
L 257.260171 144.756826 
L 258.358076 145.607422 
L 259.455981 148.303789 
L 261.651791 155.551004 
L 262.749696 157.015826 
L 263.847601 158.214317 
L 264.945506 157.827133 
L 267.141315 158.823097 
L 268.23922 159.189793 
L 269.337125 158.242329 
L 270.43503 157.467131 
L 272.63084 156.313944 
L 274.82665 155.541976 
L 275.924555 155.257751 
L 278.120364 154.375648 
L 280.316174 151.817592 
L 281.414079 151.155154 
L 282.511984 151.183275 
L 285.805699 148.64027 
L 286.903604 147.972881 
L 290.197318 148.461487 
L 291.295223 147.772947 
L 292.393128 146.468313 
L 293.491033 144.710048 
L 295.686843 145.045739 
L 296.784748 144.447739 
L 297.882653 143.299145 
L 298.980557 141.742325 
L 300.078462 141.822807 
L 301.176367 143.218614 
L 302.274272 144.360638 
L 303.372177 144.621088 
L 305.567987 145.885174 
L 306.665892 145.715909 
L 307.763797 144.979795 
L 309.959606 145.821667 
L 311.057511 146.13163 
L 312.155416 147.070551 
L 313.253321 147.629897 
L 315.449131 148.260336 
L 316.547036 149.230113 
L 317.644941 149.445971 
L 318.742846 149.075122 
L 319.840751 148.252492 
L 320.938655 147.579431 
L 322.03656 147.897076 
L 324.23237 147.377378 
L 325.330275 146.682161 
L 326.42818 145.663678 
L 327.526085 144.830373 
L 328.62399 144.148578 
L 329.721895 143.175789 
L 330.8198 142.379871 
L 331.917704 141.339098 
L 333.015609 140.487557 
L 334.113514 139.849597 
L 335.211419 138.965515 
L 336.309324 138.242175 
L 337.407229 137.309566 
L 338.505134 136.635649 
L 339.603039 136.862372 
L 340.700944 138.014905 
L 342.896754 140.034478 
L 345.092563 140.988318 
L 347.288373 141.015143 
L 349.484183 140.454946 
L 351.679993 139.533057 
L 353.875803 138.915925 
L 354.973707 138.688708 
L 356.071612 138.23113 
L 359.365327 136.400558 
L 361.561137 137.207203 
L 362.659042 137.475709 
L 363.756947 138.874784 
L 364.854852 139.753859 
L 367.050661 141.061573 
L 370.344376 142.443961 
L 372.540186 143.166187 
L 374.735996 143.623517 
L 375.833901 143.756855 
L 376.931805 144.01648 
L 381.323425 143.90351 
L 386.81295 143.416554 
L 387.910854 143.229943 
L 390.106664 142.603198 
L 391.204569 142.518854 
L 393.400379 142.079662 
L 395.596189 141.785658 
L 396.694094 141.821569 
L 397.791999 141.691726 
L 399.987808 141.066253 
L 401.085713 140.621495 
L 403.281523 140.215353 
L 406.575238 139.707819 
L 408.771048 138.988512 
L 415.358477 138.616228 
L 416.456382 138.530223 
L 418.652192 138.039855 
L 420.848001 137.377138 
L 423.043811 136.846268 
L 425.239621 136.413778 
L 429.631241 135.971393 
L 431.82705 136.286518 
L 437.316575 136.15367 
L 438.41448 135.967001 
L 439.512385 136.089942 
L 446.099814 135.858348 
L 450.491434 135.66655 
L 454.883053 135.514232 
L 455.980958 135.41299 
L 458.176768 135.914456 
L 460.372578 136.368013 
L 463.666293 136.783422 
L 465.862102 136.949717 
L 466.960007 136.883459 
L 469.155817 136.430545 
L 473.547437 135.034836 
L 477.939056 134.393791 
L 481.232771 133.93732 
L 482.330676 133.90839 
L 484.526486 133.645342 
L 487.8202 133.761618 
L 490.01601 133.467732 
L 495.505535 132.569147 
L 497.701345 132.025143 
L 498.799249 131.657275 
L 499.897154 131.674855 
L 502.092964 131.961032 
L 504.288774 131.962145 
L 506.484584 132.650324 
L 507.582489 132.972019 
L 510.876203 133.322804 
L 513.072013 133.243321 
L 515.267823 133.695694 
L 517.463633 133.998522 
L 518.561538 133.987472 
L 521.855252 134.299364 
L 522.953157 134.245368 
L 526.246872 133.854103 
L 530.638492 133.630157 
L 532.834301 133.841713 
L 533.932206 133.797689 
L 536.128016 134.803833 
L 537.225921 135.586395 
L 539.421731 136.512629 
L 540.519636 136.72413 
L 544.911255 138.547051 
L 547.107065 139.002771 
L 548.20497 139.170559 
L 552.59659 139.185496 
L 554.792399 138.951295 
L 555.890304 139.00184 
L 559.184019 138.778655 
L 564.673543 139.362309 
L 567.967258 140.138091 
L 572.358878 140.59267 
L 575.652592 140.342296 
L 578.946307 140.082627 
L 582.240022 139.745622 
L 584.435832 139.639578 
L 587.729546 140.734033 
L 588.827451 141.053371 
L 589.925356 141.177551 
L 591.023261 141.143449 
L 594.316976 140.739891 
L 598.708595 140.470194 
L 599.8065 140.430376 
L 602.00231 139.997785 
L 603.100215 140.064352 
L 604.19812 139.985646 
L 606.39393 139.628895 
L 608.589739 139.894825 
L 610.785549 139.830484 
L 612.981359 140.290429 
L 614.079264 140.460629 
L 615.177169 140.465121 
L 616.275074 140.60442 
L 617.372979 140.583621 
L 619.568788 140.178083 
L 621.764598 139.80664 
L 623.960408 140.070197 
L 628.352028 139.964591 
L 630.547837 140.700723 
L 632.743647 141.198999 
L 637.135267 141.341296 
L 638.233172 141.647304 
L 639.331077 141.759591 
L 641.526887 142.190346 
L 642.624791 142.211543 
L 645.918506 143.412146 
L 647.016411 143.757128 
L 648.114316 143.897082 
L 651.408031 143.831536 
L 654.701745 144.13202 
L 659.093365 143.753471 
L 661.289175 143.340715 
L 665.680794 142.043324 
L 666.778699 141.80577 
L 671.170319 141.527575 
L 677.757748 140.631195 
L 681.051463 140.083941 
L 682.149368 139.96345 
L 683.247273 140.017147 
L 683.247273 140.017147 
" style="fill:none;stroke:#8c564b;stroke-linecap:square;stroke-width:2;"/>
   </g>
   <g id="line2d_23">
    <path clip-path="url(#p07e0fadfc5)" d="M 135.392727 148.572603 
L 683.247273 148.572603 
L 683.247273 148.572603 
" style="fill:none;stroke:#000000;stroke-dasharray:7.4,3.2;stroke-dashoffset:0;stroke-width:2;"/>
   </g>
   <g id="line2d_24">
    <path clip-path="url(#p07e0fadfc5)" d="M 135.392727 492.48 
L 683.247273 492.48 
L 683.247273 492.48 
" style="fill:none;stroke:#e377c2;stroke-linecap:square;stroke-width:2;"/>
   </g>
   <g id="line2d_25">
    <path clip-path="url(#p07e0fadfc5)" d="M 135.392727 492.48 
L 683.247273 492.48 
L 683.247273 492.48 
" style="fill:none;stroke:#000000;stroke-dasharray:7.4,3.2;stroke-dashoffset:0;stroke-width:2;"/>
   </g>
   <g id="patch_3">
    <path d="M 108 512.64 
L 108 69.12 
" style="fill:none;stroke:#000000;stroke-linecap:square;stroke-linejoin:miter;stroke-width:0.8;"/>
   </g>
   <g id="patch_4">
    <path d="M 710.64 512.64 
L 710.64 69.12 
" style="fill:none;stroke:#000000;stroke-linecap:square;stroke-linejoin:miter;stroke-width:0.8;"/>
   </g>
   <g id="patch_5">
    <path d="M 108 512.64 
L 710.64 512.64 
" style="fill:none;stroke:#000000;stroke-linecap:square;stroke-linejoin:miter;stroke-width:0.8;"/>
   </g>
   <g id="patch_6">
    <path d="M 108 69.12 
L 710.64 69.12 
" style="fill:none;stroke:#000000;stroke-linecap:square;stroke-linejoin:miter;stroke-width:0.8;"/>
   </g>
   <g id="text_14">
    <!-- Temporal Difference Algorithm -->
    <g transform="translate(280.954875 63.12)scale(0.168 -0.168)">
     <defs>
      <path d="M 1959 3097 
Q 1497 3097 1228 2736 
Q 959 2375 959 1747 
Q 959 1119 1226 758 
Q 1494 397 1959 397 
Q 2419 397 2687 759 
Q 2956 1122 2956 1747 
Q 2956 2369 2687 2733 
Q 2419 3097 1959 3097 
z
M 1959 3584 
Q 2709 3584 3137 3096 
Q 3566 2609 3566 1747 
Q 3566 888 3137 398 
Q 2709 -91 1959 -91 
Q 1206 -91 779 398 
Q 353 888 353 1747 
Q 353 2609 779 3096 
Q 1206 3584 1959 3584 
z
" id="DejaVuSans-6f" transform="scale(0.015625)"/>
      <path d="M 2631 2963 
Q 2534 3019 2420 3045 
Q 2306 3072 2169 3072 
Q 1681 3072 1420 2755 
Q 1159 2438 1159 1844 
L 1159 0 
L 581 0 
L 581 3500 
L 1159 3500 
L 1159 2956 
Q 1341 3275 1631 3429 
Q 1922 3584 2338 3584 
Q 2397 3584 2469 3576 
Q 2541 3569 2628 3553 
L 2631 2963 
z
" id="DejaVuSans-72" transform="scale(0.015625)"/>
      <path d="M 1259 4147 
L 1259 519 
L 2022 519 
Q 2988 519 3436 956 
Q 3884 1394 3884 2338 
Q 3884 3275 3436 3711 
Q 2988 4147 2022 4147 
L 1259 4147 
z
M 628 4666 
L 1925 4666 
Q 3281 4666 3915 4102 
Q 4550 3538 4550 2338 
Q 4550 1131 3912 565 
Q 3275 0 1925 0 
L 628 0 
L 628 4666 
z
" id="DejaVuSans-44" transform="scale(0.015625)"/>
      <path d="M 2375 4863 
L 2375 4384 
L 1825 4384 
Q 1516 4384 1395 4259 
Q 1275 4134 1275 3809 
L 1275 3500 
L 2222 3500 
L 2222 3053 
L 1275 3053 
L 1275 0 
L 697 0 
L 697 3053 
L 147 3053 
L 147 3500 
L 697 3500 
L 697 3744 
Q 697 4328 969 4595 
Q 1241 4863 1831 4863 
L 2375 4863 
z
" id="DejaVuSans-66" transform="scale(0.015625)"/>
      <path d="M 3513 2113 
L 3513 0 
L 2938 0 
L 2938 2094 
Q 2938 2591 2744 2837 
Q 2550 3084 2163 3084 
Q 1697 3084 1428 2787 
Q 1159 2491 1159 1978 
L 1159 0 
L 581 0 
L 581 3500 
L 1159 3500 
L 1159 2956 
Q 1366 3272 1645 3428 
Q 1925 3584 2291 3584 
Q 2894 3584 3203 3211 
Q 3513 2838 3513 2113 
z
" id="DejaVuSans-6e" transform="scale(0.015625)"/>
      <path d="M 3122 3366 
L 3122 2828 
Q 2878 2963 2633 3030 
Q 2388 3097 2138 3097 
Q 1578 3097 1268 2742 
Q 959 2388 959 1747 
Q 959 1106 1268 751 
Q 1578 397 2138 397 
Q 2388 397 2633 464 
Q 2878 531 3122 666 
L 3122 134 
Q 2881 22 2623 -34 
Q 2366 -91 2075 -91 
Q 1284 -91 818 406 
Q 353 903 353 1747 
Q 353 2603 823 3093 
Q 1294 3584 2113 3584 
Q 2378 3584 2631 3529 
Q 2884 3475 3122 3366 
z
" id="DejaVuSans-63" transform="scale(0.015625)"/>
      <path d="M 2188 4044 
L 1331 1722 
L 3047 1722 
L 2188 4044 
z
M 1831 4666 
L 2547 4666 
L 4325 0 
L 3669 0 
L 3244 1197 
L 1141 1197 
L 716 0 
L 50 0 
L 1831 4666 
z
" id="DejaVuSans-41" transform="scale(0.015625)"/>
      <path d="M 2906 1791 
Q 2906 2416 2648 2759 
Q 2391 3103 1925 3103 
Q 1463 3103 1205 2759 
Q 947 2416 947 1791 
Q 947 1169 1205 825 
Q 1463 481 1925 481 
Q 2391 481 2648 825 
Q 2906 1169 2906 1791 
z
M 3481 434 
Q 3481 -459 3084 -895 
Q 2688 -1331 1869 -1331 
Q 1566 -1331 1297 -1286 
Q 1028 -1241 775 -1147 
L 775 -588 
Q 1028 -725 1275 -790 
Q 1522 -856 1778 -856 
Q 2344 -856 2625 -561 
Q 2906 -266 2906 331 
L 2906 616 
Q 2728 306 2450 153 
Q 2172 0 1784 0 
Q 1141 0 747 490 
Q 353 981 353 1791 
Q 353 2603 747 3093 
Q 1141 3584 1784 3584 
Q 2172 3584 2450 3431 
Q 2728 3278 2906 2969 
L 2906 3500 
L 3481 3500 
L 3481 434 
z
" id="DejaVuSans-67" transform="scale(0.015625)"/>
      <path d="M 3513 2113 
L 3513 0 
L 2938 0 
L 2938 2094 
Q 2938 2591 2744 2837 
Q 2550 3084 2163 3084 
Q 1697 3084 1428 2787 
Q 1159 2491 1159 1978 
L 1159 0 
L 581 0 
L 581 4863 
L 1159 4863 
L 1159 2956 
Q 1366 3272 1645 3428 
Q 1925 3584 2291 3584 
Q 2894 3584 3203 3211 
Q 3513 2838 3513 2113 
z
" id="DejaVuSans-68" transform="scale(0.015625)"/>
     </defs>
     <use xlink:href="#DejaVuSans-54"/>
     <use x="44.083984" xlink:href="#DejaVuSans-65"/>
     <use x="105.607422" xlink:href="#DejaVuSans-6d"/>
     <use x="203.019531" xlink:href="#DejaVuSans-70"/>
     <use x="266.496094" xlink:href="#DejaVuSans-6f"/>
     <use x="327.677734" xlink:href="#DejaVuSans-72"/>
     <use x="368.791016" xlink:href="#DejaVuSans-61"/>
     <use x="430.070312" xlink:href="#DejaVuSans-6c"/>
     <use x="457.853516" xlink:href="#DejaVuSans-20"/>
     <use x="489.640625" xlink:href="#DejaVuSans-44"/>
     <use x="566.642578" xlink:href="#DejaVuSans-69"/>
     <use x="594.425781" xlink:href="#DejaVuSans-66"/>
     <use x="629.630859" xlink:href="#DejaVuSans-66"/>
     <use x="664.835938" xlink:href="#DejaVuSans-65"/>
     <use x="726.359375" xlink:href="#DejaVuSans-72"/>
     <use x="765.222656" xlink:href="#DejaVuSans-65"/>
     <use x="826.746094" xlink:href="#DejaVuSans-6e"/>
     <use x="890.125" xlink:href="#DejaVuSans-63"/>
     <use x="945.105469" xlink:href="#DejaVuSans-65"/>
     <use x="1006.628906" xlink:href="#DejaVuSans-20"/>
     <use x="1038.416016" xlink:href="#DejaVuSans-41"/>
     <use x="1106.824219" xlink:href="#DejaVuSans-6c"/>
     <use x="1134.607422" xlink:href="#DejaVuSans-67"/>
     <use x="1198.083984" xlink:href="#DejaVuSans-6f"/>
     <use x="1259.265625" xlink:href="#DejaVuSans-72"/>
     <use x="1300.378906" xlink:href="#DejaVuSans-69"/>
     <use x="1328.162109" xlink:href="#DejaVuSans-74"/>
     <use x="1367.371094" xlink:href="#DejaVuSans-68"/>
     <use x="1430.75" xlink:href="#DejaVuSans-6d"/>
    </g>
   </g>
   <g id="legend_1">
    <g id="patch_7">
     <path d="M 720.44 436.825625 
L 820.673438 436.825625 
Q 823.473438 436.825625 823.473438 434.025625 
L 823.473438 147.734375 
Q 823.473438 144.934375 820.673438 144.934375 
L 720.44 144.934375 
Q 717.64 144.934375 717.64 147.734375 
L 717.64 434.025625 
Q 717.64 436.825625 720.44 436.825625 
z
" style="fill:#ffffff;opacity:0.8;stroke:#cccccc;stroke-linejoin:miter;"/>
    </g>
    <g id="line2d_26">
     <path d="M 723.24 156.272187 
L 751.24 156.272187 
" style="fill:none;stroke:#1f77b4;stroke-linecap:square;stroke-width:2;"/>
    </g>
    <g id="line2d_27"/>
    <g id="text_15">
     <!-- V(s=0) -->
     <g transform="translate(762.44 161.172187)scale(0.14 -0.14)">
      <defs>
       <path d="M 1831 0 
L 50 4666 
L 709 4666 
L 2188 738 
L 3669 4666 
L 4325 4666 
L 2547 0 
L 1831 0 
z
" id="DejaVuSans-56" transform="scale(0.015625)"/>
       <path d="M 1984 4856 
Q 1566 4138 1362 3434 
Q 1159 2731 1159 2009 
Q 1159 1288 1364 580 
Q 1569 -128 1984 -844 
L 1484 -844 
Q 1016 -109 783 600 
Q 550 1309 550 2009 
Q 550 2706 781 3412 
Q 1013 4119 1484 4856 
L 1984 4856 
z
" id="DejaVuSans-28" transform="scale(0.015625)"/>
       <path d="M 678 2906 
L 4684 2906 
L 4684 2381 
L 678 2381 
L 678 2906 
z
M 678 1631 
L 4684 1631 
L 4684 1100 
L 678 1100 
L 678 1631 
z
" id="DejaVuSans-3d" transform="scale(0.015625)"/>
       <path d="M 513 4856 
L 1013 4856 
Q 1481 4119 1714 3412 
Q 1947 2706 1947 2009 
Q 1947 1309 1714 600 
Q 1481 -109 1013 -844 
L 513 -844 
Q 928 -128 1133 580 
Q 1338 1288 1338 2009 
Q 1338 2731 1133 3434 
Q 928 4138 513 4856 
z
" id="DejaVuSans-29" transform="scale(0.015625)"/>
      </defs>
      <use xlink:href="#DejaVuSans-56"/>
      <use x="68.408203" xlink:href="#DejaVuSans-28"/>
      <use x="107.421875" xlink:href="#DejaVuSans-73"/>
      <use x="159.521484" xlink:href="#DejaVuSans-3d"/>
      <use x="243.310547" xlink:href="#DejaVuSans-30"/>
      <use x="306.933594" xlink:href="#DejaVuSans-29"/>
     </g>
    </g>
    <g id="line2d_28">
     <path d="M 723.24 176.821562 
L 751.24 176.821562 
" style="fill:none;stroke:#000000;stroke-dasharray:7.4,3.2;stroke-dashoffset:0;stroke-width:2;"/>
    </g>
    <g id="line2d_29"/>
    <g id="text_16">
     <!-- V*(s=0) -->
     <g transform="translate(762.44 181.721562)scale(0.14 -0.14)">
      <defs>
       <path d="M 3009 3897 
L 1888 3291 
L 3009 2681 
L 2828 2375 
L 1778 3009 
L 1778 1831 
L 1422 1831 
L 1422 3009 
L 372 2375 
L 191 2681 
L 1313 3291 
L 191 3897 
L 372 4206 
L 1422 3572 
L 1422 4750 
L 1778 4750 
L 1778 3572 
L 2828 4206 
L 3009 3897 
z
" id="DejaVuSans-2a" transform="scale(0.015625)"/>
      </defs>
      <use xlink:href="#DejaVuSans-56"/>
      <use x="68.408203" xlink:href="#DejaVuSans-2a"/>
      <use x="118.408203" xlink:href="#DejaVuSans-28"/>
      <use x="157.421875" xlink:href="#DejaVuSans-73"/>
      <use x="209.521484" xlink:href="#DejaVuSans-3d"/>
      <use x="293.310547" xlink:href="#DejaVuSans-30"/>
      <use x="356.933594" xlink:href="#DejaVuSans-29"/>
     </g>
    </g>
    <g id="line2d_30">
     <path d="M 723.24 197.370937 
L 751.24 197.370937 
" style="fill:none;stroke:#ff7f0e;stroke-linecap:square;stroke-width:2;"/>
    </g>
    <g id="line2d_31"/>
    <g id="text_17">
     <!-- V(s=1) -->
     <g transform="translate(762.44 202.270937)scale(0.14 -0.14)">
      <use xlink:href="#DejaVuSans-56"/>
      <use x="68.408203" xlink:href="#DejaVuSans-28"/>
      <use x="107.421875" xlink:href="#DejaVuSans-73"/>
      <use x="159.521484" xlink:href="#DejaVuSans-3d"/>
      <use x="243.310547" xlink:href="#DejaVuSans-31"/>
      <use x="306.933594" xlink:href="#DejaVuSans-29"/>
     </g>
    </g>
    <g id="line2d_32">
     <path d="M 723.24 217.920312 
L 751.24 217.920312 
" style="fill:none;stroke:#000000;stroke-dasharray:7.4,3.2;stroke-dashoffset:0;stroke-width:2;"/>
    </g>
    <g id="line2d_33"/>
    <g id="text_18">
     <!-- V*(s=1) -->
     <g transform="translate(762.44 222.820312)scale(0.14 -0.14)">
      <use xlink:href="#DejaVuSans-56"/>
      <use x="68.408203" xlink:href="#DejaVuSans-2a"/>
      <use x="118.408203" xlink:href="#DejaVuSans-28"/>
      <use x="157.421875" xlink:href="#DejaVuSans-73"/>
      <use x="209.521484" xlink:href="#DejaVuSans-3d"/>
      <use x="293.310547" xlink:href="#DejaVuSans-31"/>
      <use x="356.933594" xlink:href="#DejaVuSans-29"/>
     </g>
    </g>
    <g id="line2d_34">
     <path d="M 723.24 238.469687 
L 751.24 238.469687 
" style="fill:none;stroke:#2ca02c;stroke-linecap:square;stroke-width:2;"/>
    </g>
    <g id="line2d_35"/>
    <g id="text_19">
     <!-- V(s=2) -->
     <g transform="translate(762.44 243.369687)scale(0.14 -0.14)">
      <use xlink:href="#DejaVuSans-56"/>
      <use x="68.408203" xlink:href="#DejaVuSans-28"/>
      <use x="107.421875" xlink:href="#DejaVuSans-73"/>
      <use x="159.521484" xlink:href="#DejaVuSans-3d"/>
      <use x="243.310547" xlink:href="#DejaVuSans-32"/>
      <use x="306.933594" xlink:href="#DejaVuSans-29"/>
     </g>
    </g>
    <g id="line2d_36">
     <path d="M 723.24 259.019062 
L 751.24 259.019062 
" style="fill:none;stroke:#000000;stroke-dasharray:7.4,3.2;stroke-dashoffset:0;stroke-width:2;"/>
    </g>
    <g id="line2d_37"/>
    <g id="text_20">
     <!-- V*(s=2) -->
     <g transform="translate(762.44 263.919062)scale(0.14 -0.14)">
      <use xlink:href="#DejaVuSans-56"/>
      <use x="68.408203" xlink:href="#DejaVuSans-2a"/>
      <use x="118.408203" xlink:href="#DejaVuSans-28"/>
      <use x="157.421875" xlink:href="#DejaVuSans-73"/>
      <use x="209.521484" xlink:href="#DejaVuSans-3d"/>
      <use x="293.310547" xlink:href="#DejaVuSans-32"/>
      <use x="356.933594" xlink:href="#DejaVuSans-29"/>
     </g>
    </g>
    <g id="line2d_38">
     <path d="M 723.24 279.568437 
L 751.24 279.568437 
" style="fill:none;stroke:#d62728;stroke-linecap:square;stroke-width:2;"/>
    </g>
    <g id="line2d_39"/>
    <g id="text_21">
     <!-- V(s=3) -->
     <g transform="translate(762.44 284.468437)scale(0.14 -0.14)">
      <use xlink:href="#DejaVuSans-56"/>
      <use x="68.408203" xlink:href="#DejaVuSans-28"/>
      <use x="107.421875" xlink:href="#DejaVuSans-73"/>
      <use x="159.521484" xlink:href="#DejaVuSans-3d"/>
      <use x="243.310547" xlink:href="#DejaVuSans-33"/>
      <use x="306.933594" xlink:href="#DejaVuSans-29"/>
     </g>
    </g>
    <g id="line2d_40">
     <path d="M 723.24 300.117813 
L 751.24 300.117813 
" style="fill:none;stroke:#000000;stroke-dasharray:7.4,3.2;stroke-dashoffset:0;stroke-width:2;"/>
    </g>
    <g id="line2d_41"/>
    <g id="text_22">
     <!-- V*(s=3) -->
     <g transform="translate(762.44 305.017812)scale(0.14 -0.14)">
      <use xlink:href="#DejaVuSans-56"/>
      <use x="68.408203" xlink:href="#DejaVuSans-2a"/>
      <use x="118.408203" xlink:href="#DejaVuSans-28"/>
      <use x="157.421875" xlink:href="#DejaVuSans-73"/>
      <use x="209.521484" xlink:href="#DejaVuSans-3d"/>
      <use x="293.310547" xlink:href="#DejaVuSans-33"/>
      <use x="356.933594" xlink:href="#DejaVuSans-29"/>
     </g>
    </g>
    <g id="line2d_42">
     <path d="M 723.24 320.667187 
L 751.24 320.667187 
" style="fill:none;stroke:#9467bd;stroke-linecap:square;stroke-width:2;"/>
    </g>
    <g id="line2d_43"/>
    <g id="text_23">
     <!-- V(s=4) -->
     <g transform="translate(762.44 325.567187)scale(0.14 -0.14)">
      <use xlink:href="#DejaVuSans-56"/>
      <use x="68.408203" xlink:href="#DejaVuSans-28"/>
      <use x="107.421875" xlink:href="#DejaVuSans-73"/>
      <use x="159.521484" xlink:href="#DejaVuSans-3d"/>
      <use x="243.310547" xlink:href="#DejaVuSans-34"/>
      <use x="306.933594" xlink:href="#DejaVuSans-29"/>
     </g>
    </g>
    <g id="line2d_44">
     <path d="M 723.24 341.216563 
L 751.24 341.216563 
" style="fill:none;stroke:#000000;stroke-dasharray:7.4,3.2;stroke-dashoffset:0;stroke-width:2;"/>
    </g>
    <g id="line2d_45"/>
    <g id="text_24">
     <!-- V*(s=4) -->
     <g transform="translate(762.44 346.116562)scale(0.14 -0.14)">
      <use xlink:href="#DejaVuSans-56"/>
      <use x="68.408203" xlink:href="#DejaVuSans-2a"/>
      <use x="118.408203" xlink:href="#DejaVuSans-28"/>
      <use x="157.421875" xlink:href="#DejaVuSans-73"/>
      <use x="209.521484" xlink:href="#DejaVuSans-3d"/>
      <use x="293.310547" xlink:href="#DejaVuSans-34"/>
      <use x="356.933594" xlink:href="#DejaVuSans-29"/>
     </g>
    </g>
    <g id="line2d_46">
     <path d="M 723.24 361.765937 
L 751.24 361.765937 
" style="fill:none;stroke:#8c564b;stroke-linecap:square;stroke-width:2;"/>
    </g>
    <g id="line2d_47"/>
    <g id="text_25">
     <!-- V(s=5) -->
     <g transform="translate(762.44 366.665937)scale(0.14 -0.14)">
      <use xlink:href="#DejaVuSans-56"/>
      <use x="68.408203" xlink:href="#DejaVuSans-28"/>
      <use x="107.421875" xlink:href="#DejaVuSans-73"/>
      <use x="159.521484" xlink:href="#DejaVuSans-3d"/>
      <use x="243.310547" xlink:href="#DejaVuSans-35"/>
      <use x="306.933594" xlink:href="#DejaVuSans-29"/>
     </g>
    </g>
    <g id="line2d_48">
     <path d="M 723.24 382.315313 
L 751.24 382.315313 
" style="fill:none;stroke:#000000;stroke-dasharray:7.4,3.2;stroke-dashoffset:0;stroke-width:2;"/>
    </g>
    <g id="line2d_49"/>
    <g id="text_26">
     <!-- V*(s=5) -->
     <g transform="translate(762.44 387.215312)scale(0.14 -0.14)">
      <use xlink:href="#DejaVuSans-56"/>
      <use x="68.408203" xlink:href="#DejaVuSans-2a"/>
      <use x="118.408203" xlink:href="#DejaVuSans-28"/>
      <use x="157.421875" xlink:href="#DejaVuSans-73"/>
      <use x="209.521484" xlink:href="#DejaVuSans-3d"/>
      <use x="293.310547" xlink:href="#DejaVuSans-35"/>
      <use x="356.933594" xlink:href="#DejaVuSans-29"/>
     </g>
    </g>
    <g id="line2d_50">
     <path d="M 723.24 402.864688 
L 751.24 402.864688 
" style="fill:none;stroke:#e377c2;stroke-linecap:square;stroke-width:2;"/>
    </g>
    <g id="line2d_51"/>
    <g id="text_27">
     <!-- V(s=6) -->
     <g transform="translate(762.44 407.764687)scale(0.14 -0.14)">
      <use xlink:href="#DejaVuSans-56"/>
      <use x="68.408203" xlink:href="#DejaVuSans-28"/>
      <use x="107.421875" xlink:href="#DejaVuSans-73"/>
      <use x="159.521484" xlink:href="#DejaVuSans-3d"/>
      <use x="243.310547" xlink:href="#DejaVuSans-36"/>
      <use x="306.933594" xlink:href="#DejaVuSans-29"/>
     </g>
    </g>
    <g id="line2d_52">
     <path d="M 723.24 423.414062 
L 751.24 423.414062 
" style="fill:none;stroke:#000000;stroke-dasharray:7.4,3.2;stroke-dashoffset:0;stroke-width:2;"/>
    </g>
    <g id="line2d_53"/>
    <g id="text_28">
     <!-- V*(s=6) -->
     <g transform="translate(762.44 428.314062)scale(0.14 -0.14)">
      <use xlink:href="#DejaVuSans-56"/>
      <use x="68.408203" xlink:href="#DejaVuSans-2a"/>
      <use x="118.408203" xlink:href="#DejaVuSans-28"/>
      <use x="157.421875" xlink:href="#DejaVuSans-73"/>
      <use x="209.521484" xlink:href="#DejaVuSans-3d"/>
      <use x="293.310547" xlink:href="#DejaVuSans-36"/>
      <use x="356.933594" xlink:href="#DejaVuSans-29"/>
     </g>
    </g>
   </g>
  </g>
 </g>
 <defs>
  <clipPath id="p07e0fadfc5">
   <rect height="443.52" width="602.64" x="108" y="69.12"/>
  </clipPath>
 </defs>
</svg>
