<?xml version="1.0" encoding="utf-8" standalone="no"?>
<!DOCTYPE svg PUBLIC "-//W3C//DTD SVG 1.1//EN"
  "http://www.w3.org/Graphics/SVG/1.1/DTD/svg11.dtd">
<svg height="576pt" version="1.1" viewBox="0 0 864 576" width="864pt" xmlns="http://www.w3.org/2000/svg" xmlns:xlink="http://www.w3.org/1999/xlink">
 <metadata>
  <rdf:RDF xmlns:cc="http://creativecommons.org/ns#" xmlns:dc="http://purl.org/dc/elements/1.1/" xmlns:rdf="http://www.w3.org/1999/02/22-rdf-syntax-ns#">
   <cc:Work>
    <dc:type rdf:resource="http://purl.org/dc/dcmitype/StillImage"/>
    <dc:date>2021-09-10T17:06:50.700527</dc:date>
    <dc:format>image/svg+xml</dc:format>
    <dc:creator>
     <cc:Agent>
      <dc:title>Matplotlib v3.4.3, https://matplotlib.org/</dc:title>
     </cc:Agent>
    </dc:creator>
   </cc:Work>
  </rdf:RDF>
 </metadata>
 <defs>
  <style type="text/css">*{stroke-linecap:butt;stroke-linejoin:round;}</style>
 </defs>
 <g id="figure_1">
  <g id="patch_1">
   <path d="M 0 576 
L 864 576 
L 864 0 
L 0 0 
z
" style="fill:#ffffff;"/>
  </g>
  <g id="axes_1">
   <g id="patch_2">
    <path d="M 108 512.64 
L 777.6 512.64 
L 777.6 69.12 
L 108 69.12 
z
" style="fill:#ffffff;"/>
   </g>
   <g id="matplotlib.axis_1">
    <g id="xtick_1">
     <g id="line2d_1">
      <defs>
       <path d="M 0 0 
L 0 3.5 
" id="m846467dc05" style="stroke:#000000;stroke-width:0.8;"/>
      </defs>
      <g>
       <use style="stroke:#000000;stroke-width:0.8;" x="138.436364" xlink:href="#m846467dc05" y="512.64"/>
      </g>
     </g>
     <g id="text_1">
      <!-- $\mathdefault{10^{0}}$ -->
      <g transform="translate(129.636364 527.238438)scale(0.1 -0.1)">
       <defs>
        <path d="M 794 531 
L 1825 531 
L 1825 4091 
L 703 3866 
L 703 4441 
L 1819 4666 
L 2450 4666 
L 2450 531 
L 3481 531 
L 3481 0 
L 794 0 
L 794 531 
z
" id="DejaVuSans-31" transform="scale(0.015625)"/>
        <path d="M 2034 4250 
Q 1547 4250 1301 3770 
Q 1056 3291 1056 2328 
Q 1056 1369 1301 889 
Q 1547 409 2034 409 
Q 2525 409 2770 889 
Q 3016 1369 3016 2328 
Q 3016 3291 2770 3770 
Q 2525 4250 2034 4250 
z
M 2034 4750 
Q 2819 4750 3233 4129 
Q 3647 3509 3647 2328 
Q 3647 1150 3233 529 
Q 2819 -91 2034 -91 
Q 1250 -91 836 529 
Q 422 1150 422 2328 
Q 422 3509 836 4129 
Q 1250 4750 2034 4750 
z
" id="DejaVuSans-30" transform="scale(0.015625)"/>
       </defs>
       <use transform="translate(0 0.765625)" xlink:href="#DejaVuSans-31"/>
       <use transform="translate(63.623047 0.765625)" xlink:href="#DejaVuSans-30"/>
       <use transform="translate(128.203125 39.046875)scale(0.7)" xlink:href="#DejaVuSans-30"/>
      </g>
     </g>
    </g>
    <g id="xtick_2">
     <g id="line2d_2">
      <g>
       <use style="stroke:#000000;stroke-width:0.8;" x="364.049628" xlink:href="#m846467dc05" y="512.64"/>
      </g>
     </g>
     <g id="text_2">
      <!-- $\mathdefault{10^{1}}$ -->
      <g transform="translate(355.249628 527.238438)scale(0.1 -0.1)">
       <use transform="translate(0 0.684375)" xlink:href="#DejaVuSans-31"/>
       <use transform="translate(63.623047 0.684375)" xlink:href="#DejaVuSans-30"/>
       <use transform="translate(128.203125 38.965625)scale(0.7)" xlink:href="#DejaVuSans-31"/>
      </g>
     </g>
    </g>
    <g id="xtick_3">
     <g id="line2d_3">
      <g>
       <use style="stroke:#000000;stroke-width:0.8;" x="589.662893" xlink:href="#m846467dc05" y="512.64"/>
      </g>
     </g>
     <g id="text_3">
      <!-- $\mathdefault{10^{2}}$ -->
      <g transform="translate(580.862893 527.238438)scale(0.1 -0.1)">
       <defs>
        <path d="M 1228 531 
L 3431 531 
L 3431 0 
L 469 0 
L 469 531 
Q 828 903 1448 1529 
Q 2069 2156 2228 2338 
Q 2531 2678 2651 2914 
Q 2772 3150 2772 3378 
Q 2772 3750 2511 3984 
Q 2250 4219 1831 4219 
Q 1534 4219 1204 4116 
Q 875 4013 500 3803 
L 500 4441 
Q 881 4594 1212 4672 
Q 1544 4750 1819 4750 
Q 2544 4750 2975 4387 
Q 3406 4025 3406 3419 
Q 3406 3131 3298 2873 
Q 3191 2616 2906 2266 
Q 2828 2175 2409 1742 
Q 1991 1309 1228 531 
z
" id="DejaVuSans-32" transform="scale(0.015625)"/>
       </defs>
       <use transform="translate(0 0.765625)" xlink:href="#DejaVuSans-31"/>
       <use transform="translate(63.623047 0.765625)" xlink:href="#DejaVuSans-30"/>
       <use transform="translate(128.203125 39.046875)scale(0.7)" xlink:href="#DejaVuSans-32"/>
      </g>
     </g>
    </g>
    <g id="xtick_4">
     <g id="line2d_4">
      <defs>
       <path d="M 0 0 
L 0 2 
" id="mb2ee6ea8c7" style="stroke:#000000;stroke-width:0.6;"/>
      </defs>
      <g>
       <use style="stroke:#000000;stroke-width:0.6;" x="116.572179" xlink:href="#mb2ee6ea8c7" y="512.64"/>
      </g>
     </g>
    </g>
    <g id="xtick_5">
     <g id="line2d_5">
      <g>
       <use style="stroke:#000000;stroke-width:0.6;" x="128.112867" xlink:href="#mb2ee6ea8c7" y="512.64"/>
      </g>
     </g>
    </g>
    <g id="xtick_6">
     <g id="line2d_6">
      <g>
       <use style="stroke:#000000;stroke-width:0.6;" x="206.352724" xlink:href="#mb2ee6ea8c7" y="512.64"/>
      </g>
     </g>
    </g>
    <g id="xtick_7">
     <g id="line2d_7">
      <g>
       <use style="stroke:#000000;stroke-width:0.6;" x="246.081248" xlink:href="#mb2ee6ea8c7" y="512.64"/>
      </g>
     </g>
    </g>
    <g id="xtick_8">
     <g id="line2d_8">
      <g>
       <use style="stroke:#000000;stroke-width:0.6;" x="274.269084" xlink:href="#mb2ee6ea8c7" y="512.64"/>
      </g>
     </g>
    </g>
    <g id="xtick_9">
     <g id="line2d_9">
      <g>
       <use style="stroke:#000000;stroke-width:0.6;" x="296.133268" xlink:href="#mb2ee6ea8c7" y="512.64"/>
      </g>
     </g>
    </g>
    <g id="xtick_10">
     <g id="line2d_10">
      <g>
       <use style="stroke:#000000;stroke-width:0.6;" x="313.997608" xlink:href="#mb2ee6ea8c7" y="512.64"/>
      </g>
     </g>
    </g>
    <g id="xtick_11">
     <g id="line2d_11">
      <g>
       <use style="stroke:#000000;stroke-width:0.6;" x="329.101691" xlink:href="#mb2ee6ea8c7" y="512.64"/>
      </g>
     </g>
    </g>
    <g id="xtick_12">
     <g id="line2d_12">
      <g>
       <use style="stroke:#000000;stroke-width:0.6;" x="342.185444" xlink:href="#mb2ee6ea8c7" y="512.64"/>
      </g>
     </g>
    </g>
    <g id="xtick_13">
     <g id="line2d_13">
      <g>
       <use style="stroke:#000000;stroke-width:0.6;" x="353.726132" xlink:href="#mb2ee6ea8c7" y="512.64"/>
      </g>
     </g>
    </g>
    <g id="xtick_14">
     <g id="line2d_14">
      <g>
       <use style="stroke:#000000;stroke-width:0.6;" x="431.965988" xlink:href="#mb2ee6ea8c7" y="512.64"/>
      </g>
     </g>
    </g>
    <g id="xtick_15">
     <g id="line2d_15">
      <g>
       <use style="stroke:#000000;stroke-width:0.6;" x="471.694512" xlink:href="#mb2ee6ea8c7" y="512.64"/>
      </g>
     </g>
    </g>
    <g id="xtick_16">
     <g id="line2d_16">
      <g>
       <use style="stroke:#000000;stroke-width:0.6;" x="499.882349" xlink:href="#mb2ee6ea8c7" y="512.64"/>
      </g>
     </g>
    </g>
    <g id="xtick_17">
     <g id="line2d_17">
      <g>
       <use style="stroke:#000000;stroke-width:0.6;" x="521.746533" xlink:href="#mb2ee6ea8c7" y="512.64"/>
      </g>
     </g>
    </g>
    <g id="xtick_18">
     <g id="line2d_18">
      <g>
       <use style="stroke:#000000;stroke-width:0.6;" x="539.610872" xlink:href="#mb2ee6ea8c7" y="512.64"/>
      </g>
     </g>
    </g>
    <g id="xtick_19">
     <g id="line2d_19">
      <g>
       <use style="stroke:#000000;stroke-width:0.6;" x="554.714956" xlink:href="#mb2ee6ea8c7" y="512.64"/>
      </g>
     </g>
    </g>
    <g id="xtick_20">
     <g id="line2d_20">
      <g>
       <use style="stroke:#000000;stroke-width:0.6;" x="567.798709" xlink:href="#mb2ee6ea8c7" y="512.64"/>
      </g>
     </g>
    </g>
    <g id="xtick_21">
     <g id="line2d_21">
      <g>
       <use style="stroke:#000000;stroke-width:0.6;" x="579.339396" xlink:href="#mb2ee6ea8c7" y="512.64"/>
      </g>
     </g>
    </g>
    <g id="xtick_22">
     <g id="line2d_22">
      <g>
       <use style="stroke:#000000;stroke-width:0.6;" x="657.579253" xlink:href="#mb2ee6ea8c7" y="512.64"/>
      </g>
     </g>
    </g>
    <g id="xtick_23">
     <g id="line2d_23">
      <g>
       <use style="stroke:#000000;stroke-width:0.6;" x="697.307777" xlink:href="#mb2ee6ea8c7" y="512.64"/>
      </g>
     </g>
    </g>
    <g id="xtick_24">
     <g id="line2d_24">
      <g>
       <use style="stroke:#000000;stroke-width:0.6;" x="725.495613" xlink:href="#mb2ee6ea8c7" y="512.64"/>
      </g>
     </g>
    </g>
    <g id="xtick_25">
     <g id="line2d_25">
      <g>
       <use style="stroke:#000000;stroke-width:0.6;" x="747.359798" xlink:href="#mb2ee6ea8c7" y="512.64"/>
      </g>
     </g>
    </g>
    <g id="xtick_26">
     <g id="line2d_26">
      <g>
       <use style="stroke:#000000;stroke-width:0.6;" x="765.224137" xlink:href="#mb2ee6ea8c7" y="512.64"/>
      </g>
     </g>
    </g>
    <g id="text_4">
     <!-- Episodes -->
     <g transform="translate(420.557813 540.916563)scale(0.1 -0.1)">
      <defs>
       <path d="M 628 4666 
L 3578 4666 
L 3578 4134 
L 1259 4134 
L 1259 2753 
L 3481 2753 
L 3481 2222 
L 1259 2222 
L 1259 531 
L 3634 531 
L 3634 0 
L 628 0 
L 628 4666 
z
" id="DejaVuSans-45" transform="scale(0.015625)"/>
       <path d="M 1159 525 
L 1159 -1331 
L 581 -1331 
L 581 3500 
L 1159 3500 
L 1159 2969 
Q 1341 3281 1617 3432 
Q 1894 3584 2278 3584 
Q 2916 3584 3314 3078 
Q 3713 2572 3713 1747 
Q 3713 922 3314 415 
Q 2916 -91 2278 -91 
Q 1894 -91 1617 61 
Q 1341 213 1159 525 
z
M 3116 1747 
Q 3116 2381 2855 2742 
Q 2594 3103 2138 3103 
Q 1681 3103 1420 2742 
Q 1159 2381 1159 1747 
Q 1159 1113 1420 752 
Q 1681 391 2138 391 
Q 2594 391 2855 752 
Q 3116 1113 3116 1747 
z
" id="DejaVuSans-70" transform="scale(0.015625)"/>
       <path d="M 603 3500 
L 1178 3500 
L 1178 0 
L 603 0 
L 603 3500 
z
M 603 4863 
L 1178 4863 
L 1178 4134 
L 603 4134 
L 603 4863 
z
" id="DejaVuSans-69" transform="scale(0.015625)"/>
       <path d="M 2834 3397 
L 2834 2853 
Q 2591 2978 2328 3040 
Q 2066 3103 1784 3103 
Q 1356 3103 1142 2972 
Q 928 2841 928 2578 
Q 928 2378 1081 2264 
Q 1234 2150 1697 2047 
L 1894 2003 
Q 2506 1872 2764 1633 
Q 3022 1394 3022 966 
Q 3022 478 2636 193 
Q 2250 -91 1575 -91 
Q 1294 -91 989 -36 
Q 684 19 347 128 
L 347 722 
Q 666 556 975 473 
Q 1284 391 1588 391 
Q 1994 391 2212 530 
Q 2431 669 2431 922 
Q 2431 1156 2273 1281 
Q 2116 1406 1581 1522 
L 1381 1569 
Q 847 1681 609 1914 
Q 372 2147 372 2553 
Q 372 3047 722 3315 
Q 1072 3584 1716 3584 
Q 2034 3584 2315 3537 
Q 2597 3491 2834 3397 
z
" id="DejaVuSans-73" transform="scale(0.015625)"/>
       <path d="M 1959 3097 
Q 1497 3097 1228 2736 
Q 959 2375 959 1747 
Q 959 1119 1226 758 
Q 1494 397 1959 397 
Q 2419 397 2687 759 
Q 2956 1122 2956 1747 
Q 2956 2369 2687 2733 
Q 2419 3097 1959 3097 
z
M 1959 3584 
Q 2709 3584 3137 3096 
Q 3566 2609 3566 1747 
Q 3566 888 3137 398 
Q 2709 -91 1959 -91 
Q 1206 -91 779 398 
Q 353 888 353 1747 
Q 353 2609 779 3096 
Q 1206 3584 1959 3584 
z
" id="DejaVuSans-6f" transform="scale(0.015625)"/>
       <path d="M 2906 2969 
L 2906 4863 
L 3481 4863 
L 3481 0 
L 2906 0 
L 2906 525 
Q 2725 213 2448 61 
Q 2172 -91 1784 -91 
Q 1150 -91 751 415 
Q 353 922 353 1747 
Q 353 2572 751 3078 
Q 1150 3584 1784 3584 
Q 2172 3584 2448 3432 
Q 2725 3281 2906 2969 
z
M 947 1747 
Q 947 1113 1208 752 
Q 1469 391 1925 391 
Q 2381 391 2643 752 
Q 2906 1113 2906 1747 
Q 2906 2381 2643 2742 
Q 2381 3103 1925 3103 
Q 1469 3103 1208 2742 
Q 947 2381 947 1747 
z
" id="DejaVuSans-64" transform="scale(0.015625)"/>
       <path d="M 3597 1894 
L 3597 1613 
L 953 1613 
Q 991 1019 1311 708 
Q 1631 397 2203 397 
Q 2534 397 2845 478 
Q 3156 559 3463 722 
L 3463 178 
Q 3153 47 2828 -22 
Q 2503 -91 2169 -91 
Q 1331 -91 842 396 
Q 353 884 353 1716 
Q 353 2575 817 3079 
Q 1281 3584 2069 3584 
Q 2775 3584 3186 3129 
Q 3597 2675 3597 1894 
z
M 3022 2063 
Q 3016 2534 2758 2815 
Q 2500 3097 2075 3097 
Q 1594 3097 1305 2825 
Q 1016 2553 972 2059 
L 3022 2063 
z
" id="DejaVuSans-65" transform="scale(0.015625)"/>
      </defs>
      <use xlink:href="#DejaVuSans-45"/>
      <use x="63.183594" xlink:href="#DejaVuSans-70"/>
      <use x="126.660156" xlink:href="#DejaVuSans-69"/>
      <use x="154.443359" xlink:href="#DejaVuSans-73"/>
      <use x="206.542969" xlink:href="#DejaVuSans-6f"/>
      <use x="267.724609" xlink:href="#DejaVuSans-64"/>
      <use x="331.201172" xlink:href="#DejaVuSans-65"/>
      <use x="392.724609" xlink:href="#DejaVuSans-73"/>
     </g>
    </g>
   </g>
   <g id="matplotlib.axis_2">
    <g id="ytick_1">
     <g id="line2d_27">
      <defs>
       <path d="M 0 0 
L -3.5 0 
" id="m9de038065b" style="stroke:#000000;stroke-width:0.8;"/>
      </defs>
      <g>
       <use style="stroke:#000000;stroke-width:0.8;" x="108" xlink:href="#m9de038065b" y="479.492574"/>
      </g>
     </g>
     <g id="text_5">
      <!-- 0.1 -->
      <g transform="translate(85.096875 483.291792)scale(0.1 -0.1)">
       <defs>
        <path d="M 684 794 
L 1344 794 
L 1344 0 
L 684 0 
L 684 794 
z
" id="DejaVuSans-2e" transform="scale(0.015625)"/>
       </defs>
       <use xlink:href="#DejaVuSans-30"/>
       <use x="63.623047" xlink:href="#DejaVuSans-2e"/>
       <use x="95.410156" xlink:href="#DejaVuSans-31"/>
      </g>
     </g>
    </g>
    <g id="ytick_2">
     <g id="line2d_28">
      <g>
       <use style="stroke:#000000;stroke-width:0.8;" x="108" xlink:href="#m9de038065b" y="427.68415"/>
      </g>
     </g>
     <g id="text_6">
      <!-- 0.2 -->
      <g transform="translate(85.096875 431.483369)scale(0.1 -0.1)">
       <use xlink:href="#DejaVuSans-30"/>
       <use x="63.623047" xlink:href="#DejaVuSans-2e"/>
       <use x="95.410156" xlink:href="#DejaVuSans-32"/>
      </g>
     </g>
    </g>
    <g id="ytick_3">
     <g id="line2d_29">
      <g>
       <use style="stroke:#000000;stroke-width:0.8;" x="108" xlink:href="#m9de038065b" y="375.875726"/>
      </g>
     </g>
     <g id="text_7">
      <!-- 0.3 -->
      <g transform="translate(85.096875 379.674945)scale(0.1 -0.1)">
       <defs>
        <path d="M 2597 2516 
Q 3050 2419 3304 2112 
Q 3559 1806 3559 1356 
Q 3559 666 3084 287 
Q 2609 -91 1734 -91 
Q 1441 -91 1130 -33 
Q 819 25 488 141 
L 488 750 
Q 750 597 1062 519 
Q 1375 441 1716 441 
Q 2309 441 2620 675 
Q 2931 909 2931 1356 
Q 2931 1769 2642 2001 
Q 2353 2234 1838 2234 
L 1294 2234 
L 1294 2753 
L 1863 2753 
Q 2328 2753 2575 2939 
Q 2822 3125 2822 3475 
Q 2822 3834 2567 4026 
Q 2313 4219 1838 4219 
Q 1578 4219 1281 4162 
Q 984 4106 628 3988 
L 628 4550 
Q 988 4650 1302 4700 
Q 1616 4750 1894 4750 
Q 2613 4750 3031 4423 
Q 3450 4097 3450 3541 
Q 3450 3153 3228 2886 
Q 3006 2619 2597 2516 
z
" id="DejaVuSans-33" transform="scale(0.015625)"/>
       </defs>
       <use xlink:href="#DejaVuSans-30"/>
       <use x="63.623047" xlink:href="#DejaVuSans-2e"/>
       <use x="95.410156" xlink:href="#DejaVuSans-33"/>
      </g>
     </g>
    </g>
    <g id="ytick_4">
     <g id="line2d_30">
      <g>
       <use style="stroke:#000000;stroke-width:0.8;" x="108" xlink:href="#m9de038065b" y="324.067303"/>
      </g>
     </g>
     <g id="text_8">
      <!-- 0.4 -->
      <g transform="translate(85.096875 327.866522)scale(0.1 -0.1)">
       <defs>
        <path d="M 2419 4116 
L 825 1625 
L 2419 1625 
L 2419 4116 
z
M 2253 4666 
L 3047 4666 
L 3047 1625 
L 3713 1625 
L 3713 1100 
L 3047 1100 
L 3047 0 
L 2419 0 
L 2419 1100 
L 313 1100 
L 313 1709 
L 2253 4666 
z
" id="DejaVuSans-34" transform="scale(0.015625)"/>
       </defs>
       <use xlink:href="#DejaVuSans-30"/>
       <use x="63.623047" xlink:href="#DejaVuSans-2e"/>
       <use x="95.410156" xlink:href="#DejaVuSans-34"/>
      </g>
     </g>
    </g>
    <g id="ytick_5">
     <g id="line2d_31">
      <g>
       <use style="stroke:#000000;stroke-width:0.8;" x="108" xlink:href="#m9de038065b" y="272.258879"/>
      </g>
     </g>
     <g id="text_9">
      <!-- 0.5 -->
      <g transform="translate(85.096875 276.058098)scale(0.1 -0.1)">
       <defs>
        <path d="M 691 4666 
L 3169 4666 
L 3169 4134 
L 1269 4134 
L 1269 2991 
Q 1406 3038 1543 3061 
Q 1681 3084 1819 3084 
Q 2600 3084 3056 2656 
Q 3513 2228 3513 1497 
Q 3513 744 3044 326 
Q 2575 -91 1722 -91 
Q 1428 -91 1123 -41 
Q 819 9 494 109 
L 494 744 
Q 775 591 1075 516 
Q 1375 441 1709 441 
Q 2250 441 2565 725 
Q 2881 1009 2881 1497 
Q 2881 1984 2565 2268 
Q 2250 2553 1709 2553 
Q 1456 2553 1204 2497 
Q 953 2441 691 2322 
L 691 4666 
z
" id="DejaVuSans-35" transform="scale(0.015625)"/>
       </defs>
       <use xlink:href="#DejaVuSans-30"/>
       <use x="63.623047" xlink:href="#DejaVuSans-2e"/>
       <use x="95.410156" xlink:href="#DejaVuSans-35"/>
      </g>
     </g>
    </g>
    <g id="ytick_6">
     <g id="line2d_32">
      <g>
       <use style="stroke:#000000;stroke-width:0.8;" x="108" xlink:href="#m9de038065b" y="220.450456"/>
      </g>
     </g>
     <g id="text_10">
      <!-- 0.6 -->
      <g transform="translate(85.096875 224.249675)scale(0.1 -0.1)">
       <defs>
        <path d="M 2113 2584 
Q 1688 2584 1439 2293 
Q 1191 2003 1191 1497 
Q 1191 994 1439 701 
Q 1688 409 2113 409 
Q 2538 409 2786 701 
Q 3034 994 3034 1497 
Q 3034 2003 2786 2293 
Q 2538 2584 2113 2584 
z
M 3366 4563 
L 3366 3988 
Q 3128 4100 2886 4159 
Q 2644 4219 2406 4219 
Q 1781 4219 1451 3797 
Q 1122 3375 1075 2522 
Q 1259 2794 1537 2939 
Q 1816 3084 2150 3084 
Q 2853 3084 3261 2657 
Q 3669 2231 3669 1497 
Q 3669 778 3244 343 
Q 2819 -91 2113 -91 
Q 1303 -91 875 529 
Q 447 1150 447 2328 
Q 447 3434 972 4092 
Q 1497 4750 2381 4750 
Q 2619 4750 2861 4703 
Q 3103 4656 3366 4563 
z
" id="DejaVuSans-36" transform="scale(0.015625)"/>
       </defs>
       <use xlink:href="#DejaVuSans-30"/>
       <use x="63.623047" xlink:href="#DejaVuSans-2e"/>
       <use x="95.410156" xlink:href="#DejaVuSans-36"/>
      </g>
     </g>
    </g>
    <g id="ytick_7">
     <g id="line2d_33">
      <g>
       <use style="stroke:#000000;stroke-width:0.8;" x="108" xlink:href="#m9de038065b" y="168.642032"/>
      </g>
     </g>
     <g id="text_11">
      <!-- 0.7 -->
      <g transform="translate(85.096875 172.441251)scale(0.1 -0.1)">
       <defs>
        <path d="M 525 4666 
L 3525 4666 
L 3525 4397 
L 1831 0 
L 1172 0 
L 2766 4134 
L 525 4134 
L 525 4666 
z
" id="DejaVuSans-37" transform="scale(0.015625)"/>
       </defs>
       <use xlink:href="#DejaVuSans-30"/>
       <use x="63.623047" xlink:href="#DejaVuSans-2e"/>
       <use x="95.410156" xlink:href="#DejaVuSans-37"/>
      </g>
     </g>
    </g>
    <g id="ytick_8">
     <g id="line2d_34">
      <g>
       <use style="stroke:#000000;stroke-width:0.8;" x="108" xlink:href="#m9de038065b" y="116.833609"/>
      </g>
     </g>
     <g id="text_12">
      <!-- 0.8 -->
      <g transform="translate(85.096875 120.632827)scale(0.1 -0.1)">
       <defs>
        <path d="M 2034 2216 
Q 1584 2216 1326 1975 
Q 1069 1734 1069 1313 
Q 1069 891 1326 650 
Q 1584 409 2034 409 
Q 2484 409 2743 651 
Q 3003 894 3003 1313 
Q 3003 1734 2745 1975 
Q 2488 2216 2034 2216 
z
M 1403 2484 
Q 997 2584 770 2862 
Q 544 3141 544 3541 
Q 544 4100 942 4425 
Q 1341 4750 2034 4750 
Q 2731 4750 3128 4425 
Q 3525 4100 3525 3541 
Q 3525 3141 3298 2862 
Q 3072 2584 2669 2484 
Q 3125 2378 3379 2068 
Q 3634 1759 3634 1313 
Q 3634 634 3220 271 
Q 2806 -91 2034 -91 
Q 1263 -91 848 271 
Q 434 634 434 1313 
Q 434 1759 690 2068 
Q 947 2378 1403 2484 
z
M 1172 3481 
Q 1172 3119 1398 2916 
Q 1625 2713 2034 2713 
Q 2441 2713 2670 2916 
Q 2900 3119 2900 3481 
Q 2900 3844 2670 4047 
Q 2441 4250 2034 4250 
Q 1625 4250 1398 4047 
Q 1172 3844 1172 3481 
z
" id="DejaVuSans-38" transform="scale(0.015625)"/>
       </defs>
       <use xlink:href="#DejaVuSans-30"/>
       <use x="63.623047" xlink:href="#DejaVuSans-2e"/>
       <use x="95.410156" xlink:href="#DejaVuSans-38"/>
      </g>
     </g>
    </g>
    <g id="text_13">
     <!-- State-Value Function -->
     <g transform="translate(79.017187 342.210469)rotate(-90)scale(0.1 -0.1)">
      <defs>
       <path d="M 3425 4513 
L 3425 3897 
Q 3066 4069 2747 4153 
Q 2428 4238 2131 4238 
Q 1616 4238 1336 4038 
Q 1056 3838 1056 3469 
Q 1056 3159 1242 3001 
Q 1428 2844 1947 2747 
L 2328 2669 
Q 3034 2534 3370 2195 
Q 3706 1856 3706 1288 
Q 3706 609 3251 259 
Q 2797 -91 1919 -91 
Q 1588 -91 1214 -16 
Q 841 59 441 206 
L 441 856 
Q 825 641 1194 531 
Q 1563 422 1919 422 
Q 2459 422 2753 634 
Q 3047 847 3047 1241 
Q 3047 1584 2836 1778 
Q 2625 1972 2144 2069 
L 1759 2144 
Q 1053 2284 737 2584 
Q 422 2884 422 3419 
Q 422 4038 858 4394 
Q 1294 4750 2059 4750 
Q 2388 4750 2728 4690 
Q 3069 4631 3425 4513 
z
" id="DejaVuSans-53" transform="scale(0.015625)"/>
       <path d="M 1172 4494 
L 1172 3500 
L 2356 3500 
L 2356 3053 
L 1172 3053 
L 1172 1153 
Q 1172 725 1289 603 
Q 1406 481 1766 481 
L 2356 481 
L 2356 0 
L 1766 0 
Q 1100 0 847 248 
Q 594 497 594 1153 
L 594 3053 
L 172 3053 
L 172 3500 
L 594 3500 
L 594 4494 
L 1172 4494 
z
" id="DejaVuSans-74" transform="scale(0.015625)"/>
       <path d="M 2194 1759 
Q 1497 1759 1228 1600 
Q 959 1441 959 1056 
Q 959 750 1161 570 
Q 1363 391 1709 391 
Q 2188 391 2477 730 
Q 2766 1069 2766 1631 
L 2766 1759 
L 2194 1759 
z
M 3341 1997 
L 3341 0 
L 2766 0 
L 2766 531 
Q 2569 213 2275 61 
Q 1981 -91 1556 -91 
Q 1019 -91 701 211 
Q 384 513 384 1019 
Q 384 1609 779 1909 
Q 1175 2209 1959 2209 
L 2766 2209 
L 2766 2266 
Q 2766 2663 2505 2880 
Q 2244 3097 1772 3097 
Q 1472 3097 1187 3025 
Q 903 2953 641 2809 
L 641 3341 
Q 956 3463 1253 3523 
Q 1550 3584 1831 3584 
Q 2591 3584 2966 3190 
Q 3341 2797 3341 1997 
z
" id="DejaVuSans-61" transform="scale(0.015625)"/>
       <path d="M 313 2009 
L 1997 2009 
L 1997 1497 
L 313 1497 
L 313 2009 
z
" id="DejaVuSans-2d" transform="scale(0.015625)"/>
       <path d="M 1831 0 
L 50 4666 
L 709 4666 
L 2188 738 
L 3669 4666 
L 4325 4666 
L 2547 0 
L 1831 0 
z
" id="DejaVuSans-56" transform="scale(0.015625)"/>
       <path d="M 603 4863 
L 1178 4863 
L 1178 0 
L 603 0 
L 603 4863 
z
" id="DejaVuSans-6c" transform="scale(0.015625)"/>
       <path d="M 544 1381 
L 544 3500 
L 1119 3500 
L 1119 1403 
Q 1119 906 1312 657 
Q 1506 409 1894 409 
Q 2359 409 2629 706 
Q 2900 1003 2900 1516 
L 2900 3500 
L 3475 3500 
L 3475 0 
L 2900 0 
L 2900 538 
Q 2691 219 2414 64 
Q 2138 -91 1772 -91 
Q 1169 -91 856 284 
Q 544 659 544 1381 
z
M 1991 3584 
L 1991 3584 
z
" id="DejaVuSans-75" transform="scale(0.015625)"/>
       <path id="DejaVuSans-20" transform="scale(0.015625)"/>
       <path d="M 628 4666 
L 3309 4666 
L 3309 4134 
L 1259 4134 
L 1259 2759 
L 3109 2759 
L 3109 2228 
L 1259 2228 
L 1259 0 
L 628 0 
L 628 4666 
z
" id="DejaVuSans-46" transform="scale(0.015625)"/>
       <path d="M 3513 2113 
L 3513 0 
L 2938 0 
L 2938 2094 
Q 2938 2591 2744 2837 
Q 2550 3084 2163 3084 
Q 1697 3084 1428 2787 
Q 1159 2491 1159 1978 
L 1159 0 
L 581 0 
L 581 3500 
L 1159 3500 
L 1159 2956 
Q 1366 3272 1645 3428 
Q 1925 3584 2291 3584 
Q 2894 3584 3203 3211 
Q 3513 2838 3513 2113 
z
" id="DejaVuSans-6e" transform="scale(0.015625)"/>
       <path d="M 3122 3366 
L 3122 2828 
Q 2878 2963 2633 3030 
Q 2388 3097 2138 3097 
Q 1578 3097 1268 2742 
Q 959 2388 959 1747 
Q 959 1106 1268 751 
Q 1578 397 2138 397 
Q 2388 397 2633 464 
Q 2878 531 3122 666 
L 3122 134 
Q 2881 22 2623 -34 
Q 2366 -91 2075 -91 
Q 1284 -91 818 406 
Q 353 903 353 1747 
Q 353 2603 823 3093 
Q 1294 3584 2113 3584 
Q 2378 3584 2631 3529 
Q 2884 3475 3122 3366 
z
" id="DejaVuSans-63" transform="scale(0.015625)"/>
      </defs>
      <use xlink:href="#DejaVuSans-53"/>
      <use x="63.476562" xlink:href="#DejaVuSans-74"/>
      <use x="102.685547" xlink:href="#DejaVuSans-61"/>
      <use x="163.964844" xlink:href="#DejaVuSans-74"/>
      <use x="203.173828" xlink:href="#DejaVuSans-65"/>
      <use x="264.697266" xlink:href="#DejaVuSans-2d"/>
      <use x="294.90625" xlink:href="#DejaVuSans-56"/>
      <use x="355.564453" xlink:href="#DejaVuSans-61"/>
      <use x="416.84375" xlink:href="#DejaVuSans-6c"/>
      <use x="444.626953" xlink:href="#DejaVuSans-75"/>
      <use x="508.005859" xlink:href="#DejaVuSans-65"/>
      <use x="569.529297" xlink:href="#DejaVuSans-20"/>
      <use x="601.316406" xlink:href="#DejaVuSans-46"/>
      <use x="653.335938" xlink:href="#DejaVuSans-75"/>
      <use x="716.714844" xlink:href="#DejaVuSans-6e"/>
      <use x="780.09375" xlink:href="#DejaVuSans-63"/>
      <use x="835.074219" xlink:href="#DejaVuSans-74"/>
      <use x="874.283203" xlink:href="#DejaVuSans-69"/>
      <use x="902.066406" xlink:href="#DejaVuSans-6f"/>
      <use x="963.248047" xlink:href="#DejaVuSans-6e"/>
     </g>
    </g>
   </g>
   <g id="line2d_35">
    <path clip-path="url(#pae32724195)" d="M -1 486.270518 
L 138.436364 486.266678 
L 206.352724 470.419371 
L 246.081248 470.172697 
L 274.269084 461.992591 
L 296.133268 469.81608 
L 313.997608 468.595903 
L 329.101691 464.776854 
L 342.185444 482.063013 
L 353.726132 465.351052 
L 364.049628 468.099389 
L 373.388367 470.846526 
L 381.913968 441.133087 
L 389.75676 423.789418 
L 397.018052 455.240873 
L 403.778152 465.565559 
L 410.101804 465.357525 
L 416.041962 471.342241 
L 421.642492 468.588505 
L 426.940138 452.440455 
L 431.965988 446.951386 
L 436.746575 451.275771 
L 441.304727 453.562376 
L 445.660226 454.149037 
L 449.830328 453.183411 
L 453.830173 457.534788 
L 457.67312 462.216204 
L 461.371016 467.845201 
L 464.934412 458.809884 
L 468.37275 464.923375 
L 471.694512 449.560471 
L 474.907344 460.407284 
L 478.018164 471.67196 
L 481.033251 475.775765 
L 483.958322 468.824725 
L 486.798596 469.904443 
L 489.558852 473.228774 
L 492.243474 466.608039 
L 494.856498 470.556982 
L 497.401644 468.110515 
L 499.882349 468.342003 
L 502.301795 468.350754 
L 504.662936 470.503898 
L 506.968515 472.104449 
L 509.221087 469.66 
L 511.423036 471.961296 
L 513.576587 469.557044 
L 515.68382 467.83684 
L 517.746688 466.713589 
L 519.767019 457.101361 
L 521.746533 453.733493 
L 523.686846 463.839989 
L 525.58948 457.245125 
L 527.455872 463.366176 
L 529.287376 462.478266 
L 531.085272 466.295834 
L 532.850772 468.765079 
L 534.585022 457.448776 
L 536.28911 455.991806 
L 539.610872 442.813356 
L 541.230456 450.767754 
L 544.391459 449.193134 
L 545.934524 453.967453 
L 547.453665 452.544698 
L 548.949611 451.82851 
L 550.423062 441.420354 
L 551.874682 442.250153 
L 553.30511 439.575686 
L 554.714956 445.038375 
L 556.104804 447.78752 
L 557.475212 453.112742 
L 558.826717 450.019516 
L 560.159835 448.344147 
L 561.475057 449.625347 
L 562.772859 449.033041 
L 564.053695 443.863287 
L 565.318004 445.040783 
L 566.566207 443.548378 
L 567.798709 443.339838 
L 569.015899 447.188371 
L 570.218155 447.61133 
L 571.405837 448.147073 
L 572.579296 449.768624 
L 573.738867 455.941528 
L 574.884875 456.845973 
L 576.017634 455.354887 
L 577.137448 451.086755 
L 578.244607 454.173678 
L 579.339396 453.35 
L 580.422088 454.350913 
L 581.492947 456.181782 
L 582.552228 458.398895 
L 583.60018 451.424752 
L 584.637043 454.158579 
L 585.663048 453.754119 
L 586.678421 451.338458 
L 587.683379 451.146222 
L 588.678135 448.960256 
L 589.662893 448.565368 
L 590.637852 449.023996 
L 591.603206 444.973879 
L 592.559141 445.217504 
L 593.50584 450.536993 
L 594.44348 448.0904 
L 595.372232 450.080592 
L 596.292263 453.717723 
L 597.203736 450.969305 
L 598.106808 450.987679 
L 599.888358 450.407531 
L 600.767132 451.622061 
L 601.638094 450.196355 
L 602.501382 452.092354 
L 604.205471 453.867135 
L 605.046528 453.463096 
L 605.880427 454.013166 
L 606.70729 451.397106 
L 607.527233 452.028199 
L 608.340371 452.17109 
L 609.146816 450.831095 
L 609.946679 451.726124 
L 610.740065 454.364331 
L 611.527078 455.438735 
L 612.30782 458.855429 
L 613.08239 458.456762 
L 613.850884 457.644246 
L 614.613399 458.868948 
L 615.370025 457.930729 
L 616.120853 458.486755 
L 616.865971 460.545852 
L 617.605466 459.214492 
L 618.339422 460.174533 
L 619.06792 459.018713 
L 619.791042 460.060212 
L 620.508867 459.75586 
L 621.22147 460.007385 
L 621.928929 459.499036 
L 622.631316 459.930402 
L 623.328704 459.780232 
L 624.708764 458.456133 
L 625.391572 457.128707 
L 626.069655 457.114832 
L 626.743078 456.938133 
L 627.411903 458.135146 
L 628.076195 458.139038 
L 628.736013 456.779145 
L 629.391417 456.150163 
L 630.042467 455.903007 
L 630.689219 457.280645 
L 631.33173 458.069826 
L 631.970055 457.512768 
L 632.604249 455.398428 
L 633.860453 453.983148 
L 634.482567 455.13369 
L 635.100756 455.569807 
L 635.715069 456.61083 
L 636.325554 457.907476 
L 637.535231 456.91959 
L 638.134515 456.858405 
L 638.730156 457.108441 
L 639.322197 456.215912 
L 639.910683 454.917602 
L 640.495656 455.521923 
L 641.077157 455.907048 
L 641.655227 456.80183 
L 642.229906 455.77056 
L 642.801235 454.434983 
L 643.369252 454.512709 
L 643.933994 452.501415 
L 644.495501 452.609027 
L 645.053808 451.686979 
L 645.608951 452.69141 
L 646.160967 452.976705 
L 647.255756 452.61572 
L 647.798598 452.613394 
L 649.409307 453.348816 
L 649.940379 453.774755 
L 650.468588 453.87855 
L 650.993965 454.619274 
L 651.516541 453.764186 
L 652.036343 454.155693 
L 652.553403 454.841829 
L 653.579408 453.775428 
L 654.594781 454.53831 
L 655.098549 455.127359 
L 655.59974 455.392905 
L 656.09838 454.94529 
L 656.594495 454.949014 
L 658.067946 455.328559 
L 658.554212 455.783553 
L 659.038078 455.890403 
L 659.519566 455.521621 
L 660.475501 455.525259 
L 660.949994 455.12753 
L 661.422201 455.466941 
L 661.892142 455.247412 
L 662.35984 454.876995 
L 662.825317 454.190826 
L 663.288592 453.000509 
L 663.749688 452.87701 
L 664.208623 453.362656 
L 665.572672 452.667974 
L 666.023168 452.829619 
L 667.804718 452.87788 
L 669.554454 452.168146 
L 669.987049 451.782559 
L 670.417743 451.984077 
L 670.846551 452.044513 
L 671.273491 451.774193 
L 671.698579 452.001384 
L 672.121831 452.023081 
L 672.962888 452.556589 
L 673.380725 452.52664 
L 673.796788 452.832237 
L 674.62365 452.813955 
L 675.034479 453.019638 
L 675.443593 452.904104 
L 675.851005 452.924097 
L 676.256731 452.59208 
L 677.063177 452.331717 
L 677.863039 452.310505 
L 678.260535 452.077517 
L 678.656425 452.364022 
L 679.443438 452.582001 
L 679.834586 452.461838 
L 680.99875 452.769478 
L 681.383751 452.578868 
L 681.767245 452.636454 
L 682.149243 452.520374 
L 682.908802 452.736502 
L 683.286385 452.816166 
L 683.662518 453.013359 
L 684.037213 453.040566 
L 684.410481 453.277944 
L 685.152777 453.439582 
L 685.521826 453.141182 
L 686.98428 453.460133 
L 687.346508 453.291527 
L 687.707402 453.382315 
L 688.066972 453.273625 
L 689.492198 453.535628 
L 689.845289 453.515591 
L 690.197112 453.314887 
L 690.547676 453.512 
L 690.896991 453.893936 
L 691.245064 453.928343 
L 691.591906 453.768344 
L 691.937524 453.795582 
L 692.625124 453.49872 
L 692.967123 453.479531 
L 693.307932 453.639638 
L 693.986015 454.262232 
L 694.659438 454.391368 
L 694.994421 454.113486 
L 695.328263 454.253634 
L 695.992555 454.268423 
L 696.652373 454.453182 
L 696.980623 454.188603 
L 698.282736 454.071077 
L 699.24809 454.448513 
L 699.567772 454.456408 
L 699.886415 454.669705 
L 700.204025 454.298414 
L 700.836173 454.198572 
L 701.150724 454.33943 
L 701.464269 454.691526 
L 702.088364 454.401059 
L 702.398927 454.432771 
L 702.708509 454.352314 
L 703.017116 454.543096 
L 703.324754 454.538454 
L 703.937147 454.178013 
L 704.241914 454.195826 
L 704.84862 453.830485 
L 705.150569 453.94349 
L 705.451591 454.321755 
L 705.751691 454.511664 
L 706.349148 454.697041 
L 706.646516 454.892673 
L 706.942984 454.839582 
L 707.533242 454.51107 
L 707.827043 454.447773 
L 708.119966 454.550965 
L 708.412016 454.518817 
L 708.703198 454.004407 
L 708.993517 454.296818 
L 709.571587 454.44128 
L 710.146266 453.936779 
L 710.432347 453.956574 
L 710.717595 453.561104 
L 711.285612 453.819294 
L 711.56839 454.039101 
L 711.850354 453.909683 
L 712.13151 454.19149 
L 712.970168 453.778363 
L 713.248133 454.018302 
L 713.525311 454.010678 
L 714.626251 454.892596 
L 715.172117 455.130689 
L 715.714958 455.106102 
L 716.523622 454.743226 
L 716.7917 454.644139 
L 717.591563 454.773467 
L 718.1212 454.025366 
L 718.647989 454.338533 
L 718.910326 454.706 
L 719.171962 454.589137 
L 719.432901 454.613871 
L 719.693147 454.756278 
L 719.952703 454.511901 
L 720.211574 454.611351 
L 720.984109 454.489436 
L 721.240273 454.715314 
L 721.7506 454.893645 
L 722.00477 455.211109 
L 722.511141 454.813723 
L 722.763349 454.734135 
L 723.014909 454.780216 
L 723.265825 454.493126 
L 723.765737 454.327998 
L 724.263112 454.16562 
L 724.510855 454.112421 
L 725.004472 454.400131 
L 725.25035 454.717449 
L 725.495613 454.707404 
L 725.740264 454.982937 
L 726.227741 454.505692 
L 726.470573 454.445671 
L 726.712804 454.060814 
L 727.195478 454.669967 
L 727.675786 454.453852 
L 727.91506 454.492043 
L 728.153751 454.080984 
L 728.391862 454.160155 
L 728.629395 453.899453 
L 728.866354 454.210048 
L 729.102742 454.309251 
L 729.573813 453.906509 
L 730.04263 454.571577 
L 730.2762 454.596553 
L 730.509215 454.466447 
L 730.973588 454.747805 
L 731.435771 454.844738 
L 731.895784 455.205803 
L 732.353648 455.337167 
L 732.58178 455.617891 
L 733.489032 455.594137 
L 733.714539 455.870311 
L 734.164001 455.198936 
L 734.611411 455.045477 
L 734.834352 454.754845 
L 735.056787 454.712056 
L 735.278718 454.868305 
L 735.721079 454.822962 
L 735.941512 455.205404 
L 736.380897 455.331675 
L 736.599852 455.214115 
L 736.81832 455.333242 
L 737.036301 455.160468 
L 737.253798 455.272769 
L 737.470814 455.583247 
L 737.903409 455.919983 
L 738.118993 456.147532 
L 738.548742 456.327374 
L 738.762911 456.529489 
L 738.976614 456.437042 
L 739.402626 456.698212 
L 739.614939 456.390237 
L 739.826793 456.345714 
L 740.038191 456.157518 
L 740.66966 456.03233 
L 740.879248 455.842724 
L 741.088389 455.880044 
L 741.505337 456.336001 
L 741.713148 456.207078 
L 741.920518 456.282073 
L 742.54001 456.802507 
L 742.950839 456.550999 
L 743.767365 456.997591 
L 744.173091 457.139205 
L 744.375326 457.095282 
L 744.577144 457.448097 
L 744.778547 457.075071 
L 745.180115 457.281613 
L 745.580045 457.511399 
L 746.176895 457.783017 
L 746.37504 457.211465 
L 746.572785 457.264169 
L 746.770131 457.613974 
L 746.967081 457.526853 
L 747.163636 456.924935 
L 747.163636 456.924935 
" style="fill:none;stroke:#1f77b4;stroke-linecap:square;stroke-width:1.5;"/>
   </g>
   <g id="line2d_36">
    <path clip-path="url(#pae32724195)" d="M -1 454.415114 
L 747.163636 454.415114 
L 747.163636 454.415114 
" style="fill:none;stroke:#000000;stroke-dasharray:5.55,2.4;stroke-dashoffset:0;stroke-width:1.5;"/>
   </g>
   <g id="line2d_37">
    <path clip-path="url(#pae32724195)" d="M -1 439.003446 
L 138.436364 438.98611 
L 206.352724 428.376107 
L 246.081248 410.906909 
L 274.269084 417.406386 
L 296.133268 392.324487 
L 313.997608 388.413692 
L 329.101691 378.466427 
L 342.185444 395.812001 
L 353.726132 389.351827 
L 364.049628 391.985336 
L 373.388367 394.726143 
L 381.913968 349.95526 
L 389.75676 343.281277 
L 397.018052 375.982514 
L 403.778152 385.361653 
L 410.101804 386.185733 
L 416.041962 389.664765 
L 421.642492 401.892218 
L 426.940138 393.851184 
L 431.965988 399.381696 
L 436.746575 391.740625 
L 441.304727 388.542094 
L 445.660226 382.271038 
L 449.830328 381.459145 
L 453.830173 383.72929 
L 457.67312 389.02399 
L 461.371016 398.861459 
L 464.934412 391.278549 
L 468.37275 394.640542 
L 471.694512 368.493764 
L 474.907344 366.19072 
L 478.018164 383.187254 
L 481.033251 377.73887 
L 483.958322 365.552308 
L 486.798596 367.103268 
L 489.558852 364.944082 
L 492.243474 364.426153 
L 494.856498 365.642733 
L 497.401644 365.845388 
L 499.882349 357.668669 
L 502.301795 370.477414 
L 504.662936 381.792787 
L 506.968515 384.939818 
L 509.221087 381.012978 
L 511.423036 374.062325 
L 513.576587 374.514499 
L 515.68382 372.92204 
L 517.746688 381.562233 
L 519.767019 374.415871 
L 521.746533 372.943865 
L 523.686846 391.084561 
L 525.58948 392.340602 
L 527.455872 400.971714 
L 529.287376 403.130896 
L 531.085272 402.04633 
L 532.850772 395.342077 
L 534.585022 377.616011 
L 536.28911 376.827776 
L 537.964067 363.229906 
L 539.610872 356.929778 
L 541.230456 366.470213 
L 542.823704 364.591768 
L 544.391459 366.701272 
L 545.934524 376.084677 
L 547.453665 374.399256 
L 548.949611 370.389987 
L 550.423062 363.52036 
L 551.874682 369.150074 
L 553.30511 363.821746 
L 554.714956 370.986499 
L 556.104804 371.700406 
L 557.475212 373.287737 
L 558.826717 372.72826 
L 560.159835 368.986485 
L 561.475057 367.430944 
L 562.772859 368.280066 
L 564.053695 363.553631 
L 565.318004 365.286051 
L 566.566207 366.10739 
L 567.798709 366.207892 
L 570.218155 364.267518 
L 571.405837 363.824185 
L 572.579296 361.339734 
L 573.738867 367.593644 
L 574.884875 370.993165 
L 576.017634 369.064715 
L 577.137448 362.847534 
L 578.244607 368.930241 
L 579.339396 370.87979 
L 580.422088 373.710805 
L 581.492947 377.674161 
L 582.552228 380.03609 
L 583.60018 372.277077 
L 584.637043 371.38145 
L 585.663048 373.813014 
L 586.678421 370.262407 
L 587.683379 372.135561 
L 588.678135 373.076496 
L 589.662893 369.510896 
L 590.637852 371.640545 
L 591.603206 367.547706 
L 592.559141 368.551976 
L 593.50584 371.686239 
L 594.44348 369.302113 
L 595.372232 370.103469 
L 596.292263 373.989975 
L 597.203736 371.727048 
L 598.106808 370.856458 
L 599.001632 371.739422 
L 599.888358 371.248421 
L 600.767132 371.532464 
L 601.638094 372.125157 
L 602.501382 373.984722 
L 603.357131 374.780763 
L 604.205471 374.710633 
L 605.046528 375.615792 
L 605.880427 375.928905 
L 606.70729 372.939326 
L 607.527233 370.708227 
L 608.340371 372.422507 
L 609.146816 371.462103 
L 609.946679 372.162045 
L 610.740065 377.062028 
L 611.527078 377.653593 
L 612.30782 382.550664 
L 613.08239 381.393221 
L 613.850884 380.508895 
L 614.613399 382.0888 
L 615.370025 380.352224 
L 616.120853 380.244234 
L 616.865971 383.651281 
L 617.605466 383.423461 
L 618.339422 385.183464 
L 619.06792 382.958971 
L 620.508867 383.102339 
L 621.22147 382.274445 
L 621.928929 381.003863 
L 622.631316 380.075786 
L 623.328704 380.097021 
L 624.021164 380.666725 
L 624.708764 381.062909 
L 626.069655 378.608872 
L 626.743078 379.378211 
L 627.411903 380.864015 
L 628.076195 380.22108 
L 628.736013 378.812388 
L 629.391417 377.107601 
L 630.042467 378.077421 
L 630.689219 379.418598 
L 631.33173 379.221643 
L 631.970055 377.798241 
L 632.604249 375.567003 
L 633.234364 375.260327 
L 633.860453 374.11722 
L 634.482567 375.766385 
L 635.100756 377.07987 
L 635.715069 378.019296 
L 636.325554 378.628436 
L 636.93226 378.084417 
L 637.535231 378.02123 
L 638.134515 378.44794 
L 638.730156 378.363037 
L 639.910683 376.872437 
L 640.495656 377.801883 
L 641.077157 376.711044 
L 641.655227 377.424303 
L 642.229906 376.868855 
L 642.801235 375.081659 
L 643.369252 374.135882 
L 643.933994 372.631243 
L 644.495501 371.994397 
L 645.053808 370.648809 
L 645.608951 372.039758 
L 646.160967 372.419476 
L 646.709891 371.419481 
L 647.255756 371.712767 
L 648.87534 373.469664 
L 649.409307 373.090772 
L 649.940379 373.448936 
L 650.468588 374.126321 
L 651.516541 374.064566 
L 652.036343 374.060371 
L 652.553403 374.940877 
L 653.579408 373.770647 
L 654.08841 373.895325 
L 655.098549 374.811412 
L 655.59974 375.551665 
L 656.09838 374.921445 
L 656.594495 374.948814 
L 657.088111 375.225682 
L 657.579253 374.979618 
L 658.067946 375.075407 
L 658.554212 376.045116 
L 659.519566 376.613577 
L 661.892142 375.582484 
L 662.35984 374.678418 
L 662.825317 374.314099 
L 663.288592 373.169261 
L 663.749688 372.656791 
L 664.208623 372.972956 
L 665.572672 372.290516 
L 666.023168 372.284382 
L 666.471601 372.540391 
L 667.362358 371.952889 
L 668.24509 372.322565 
L 668.683492 371.953723 
L 669.554454 371.594303 
L 669.987049 371.083801 
L 670.417743 371.168067 
L 670.846551 371.365352 
L 671.273491 371.31062 
L 671.698579 371.687084 
L 672.121831 371.531779 
L 672.543262 371.740632 
L 672.962888 372.268993 
L 673.380725 372.197233 
L 673.796788 372.498793 
L 674.211091 372.35379 
L 674.62365 372.081644 
L 675.443593 372.280259 
L 675.851005 372.171152 
L 676.256731 371.776588 
L 676.660783 371.620365 
L 677.063177 371.624339 
L 677.463924 371.337632 
L 677.863039 371.368991 
L 678.260535 370.900684 
L 679.443438 371.870642 
L 680.22418 372.06177 
L 680.99875 372.530964 
L 681.383751 371.987619 
L 682.529759 372.518011 
L 683.662518 373.210114 
L 684.037213 373.173645 
L 684.410481 373.545906 
L 684.782332 373.509103 
L 685.152777 373.655422 
L 685.521826 373.451493 
L 686.620708 373.885833 
L 686.98428 374.139857 
L 688.066972 373.849257 
L 689.845289 372.961917 
L 690.547676 372.8193 
L 691.245064 373.499842 
L 691.591906 373.077386 
L 691.937524 372.894486 
L 692.281927 372.471878 
L 692.625124 372.418036 
L 692.967123 372.71478 
L 693.307932 372.543945 
L 693.986015 373.139841 
L 694.323305 372.874847 
L 694.994421 372.732944 
L 695.660972 372.966411 
L 696.323019 372.790654 
L 696.652373 373.02687 
L 696.980623 372.789626 
L 697.307777 372.900229 
L 697.958827 372.831123 
L 698.282736 372.495999 
L 698.605579 372.366035 
L 699.24809 372.622158 
L 699.567772 372.47971 
L 699.886415 372.645643 
L 700.204025 371.997258 
L 700.520609 371.796619 
L 701.464269 372.393179 
L 702.398927 372.067082 
L 702.708509 372.206201 
L 703.324754 372.82023 
L 704.241914 373.014502 
L 704.84862 372.452435 
L 705.150569 372.879824 
L 705.451591 372.992602 
L 705.751691 372.93216 
L 706.050875 372.63908 
L 706.349148 372.788626 
L 706.646516 373.29445 
L 707.533242 373.161995 
L 707.827043 373.023542 
L 708.412016 373.467167 
L 708.703198 373.044235 
L 709.282978 373.419523 
L 709.571587 373.282398 
L 709.859348 372.86516 
L 710.146266 372.871102 
L 710.717595 372.547037 
L 711.285612 372.949772 
L 711.850354 372.536694 
L 712.13151 372.609028 
L 712.411861 372.269172 
L 712.970168 371.930231 
L 713.248133 372.148532 
L 713.525311 372.035109 
L 713.801708 372.101753 
L 714.626251 373.054206 
L 714.899564 373.172197 
L 715.172117 373.474029 
L 715.443913 373.334428 
L 715.714958 373.553907 
L 715.985255 373.612764 
L 716.523622 373.004994 
L 717.059047 373.414376 
L 717.325667 373.170232 
L 717.591563 373.292654 
L 718.1212 372.3687 
L 718.384948 372.774676 
L 718.647989 372.924785 
L 718.910326 373.215821 
L 719.171962 372.992855 
L 719.693147 373.231581 
L 719.952703 373.113321 
L 720.211574 373.231935 
L 720.469763 373.19813 
L 720.727273 372.977333 
L 720.984109 372.935481 
L 721.495768 373.209468 
L 721.7506 373.059296 
L 722.00477 373.544113 
L 722.258283 373.220516 
L 722.763349 373.277954 
L 723.014909 373.309054 
L 723.265825 373.009238 
L 724.757974 372.411497 
L 725.25035 373.212232 
L 725.495613 373.094828 
L 725.740264 373.523135 
L 726.712804 373.079288 
L 726.954438 373.230015 
L 727.195478 373.536606 
L 727.91506 372.722503 
L 728.153751 372.362183 
L 728.391862 372.748221 
L 728.629395 372.440656 
L 728.866354 372.673234 
L 729.102742 372.740566 
L 729.338561 372.606978 
L 729.573813 372.291676 
L 730.04263 373.249003 
L 730.2762 373.024765 
L 730.741677 373.243309 
L 731.204952 373.222297 
L 731.435771 372.899597 
L 731.666048 372.94576 
L 731.895784 373.188171 
L 732.124983 372.886685 
L 732.809381 373.789575 
L 733.263005 373.574026 
L 733.489032 373.371913 
L 733.714539 373.515496 
L 733.939528 373.360632 
L 734.387961 372.662464 
L 734.611411 372.729212 
L 734.834352 372.34518 
L 735.278718 372.1732 
L 735.721079 372.201166 
L 735.941512 372.299559 
L 736.161451 372.025712 
L 736.380897 372.247654 
L 736.599852 372.302988 
L 736.81832 372.68195 
L 737.036301 372.470188 
L 737.903409 374.266342 
L 738.118993 374.380475 
L 738.334103 374.253395 
L 738.762911 375.024797 
L 738.976614 374.875284 
L 739.402626 375.052888 
L 739.614939 374.471817 
L 739.826793 374.553519 
L 740.038191 374.24596 
L 740.66966 374.312121 
L 740.879248 374.024565 
L 741.088389 374.267004 
L 741.297085 374.711159 
L 741.505337 374.709422 
L 741.713148 374.359065 
L 741.920518 374.237408 
L 742.127451 374.3065 
L 742.333948 374.636704 
L 742.74564 374.707992 
L 742.950839 374.695601 
L 743.359953 374.992237 
L 743.563871 374.879005 
L 743.767365 375.102217 
L 743.970438 375.051155 
L 744.375326 375.167961 
L 744.577144 375.831334 
L 744.778547 375.460616 
L 744.979537 375.481528 
L 745.380284 376.026488 
L 745.580045 376.070021 
L 745.779399 376.339393 
L 745.978349 376.110009 
L 746.176895 376.358302 
L 746.37504 375.695409 
L 746.572785 375.53015 
L 746.770131 376.060854 
L 747.163636 375.770372 
L 747.163636 375.770372 
" style="fill:none;stroke:#ff7f0e;stroke-linecap:square;stroke-width:1.5;"/>
   </g>
   <g id="line2d_38">
    <path clip-path="url(#pae32724195)" d="M -1 375.510125 
L 747.163636 375.510125 
L 747.163636 375.510125 
" style="fill:none;stroke:#000000;stroke-dasharray:5.55,2.4;stroke-dashoffset:0;stroke-width:1.5;"/>
   </g>
   <g id="line2d_39">
    <path clip-path="url(#pae32724195)" d="M -1 400.790575 
L 138.436364 400.759784 
L 206.352724 378.596238 
L 246.081248 332.298679 
L 274.269084 342.646656 
L 296.133268 332.970186 
L 313.997608 318.779559 
L 329.101691 313.099485 
L 342.185444 306.928341 
L 353.726132 293.765014 
L 364.049628 315.385829 
L 373.388367 299.917177 
L 381.913968 283.78698 
L 389.75676 265.580529 
L 397.018052 273.867508 
L 403.778152 287.909551 
L 410.101804 289.112445 
L 416.041962 295.059576 
L 421.642492 292.203654 
L 426.940138 299.796635 
L 431.965988 306.339058 
L 436.746575 307.510694 
L 441.304727 316.626856 
L 445.660226 309.332654 
L 449.830328 300.686516 
L 453.830173 301.635824 
L 457.67312 305.584411 
L 461.371016 318.43072 
L 464.934412 313.153176 
L 468.37275 315.784936 
L 471.694512 298.046544 
L 474.907344 299.484083 
L 478.018164 316.063034 
L 481.033251 310.659357 
L 483.958322 300.797546 
L 486.798596 287.820105 
L 489.558852 290.321788 
L 492.243474 290.831269 
L 494.856498 284.901424 
L 497.401644 285.429028 
L 499.882349 280.637008 
L 502.301795 291.950339 
L 504.662936 293.860824 
L 506.968515 299.627763 
L 509.221087 299.062568 
L 511.423036 290.408644 
L 513.576587 293.420341 
L 515.68382 289.300458 
L 517.746688 293.304928 
L 519.767019 285.893663 
L 521.746533 284.714237 
L 523.686846 292.730263 
L 525.58948 292.673575 
L 527.455872 303.505861 
L 529.287376 304.835992 
L 531.085272 303.308158 
L 532.850772 293.758831 
L 534.585022 286.500965 
L 536.28911 284.799932 
L 537.964067 277.230916 
L 539.610872 267.100265 
L 541.230456 275.248624 
L 542.823704 275.329424 
L 544.391459 279.031729 
L 545.934524 288.770464 
L 547.453665 291.380873 
L 548.949611 286.149677 
L 550.423062 281.839008 
L 551.874682 290.516877 
L 553.30511 284.774008 
L 554.714956 286.384365 
L 556.104804 288.849065 
L 557.475212 290.963441 
L 558.826717 294.686138 
L 560.159835 292.047057 
L 561.475057 287.367386 
L 562.772859 290.687989 
L 564.053695 287.283821 
L 566.566207 287.875229 
L 567.798709 287.921481 
L 569.015899 286.090521 
L 570.218155 284.831859 
L 571.405837 285.319994 
L 572.579296 280.471964 
L 573.738867 288.077093 
L 574.884875 290.221536 
L 576.017634 290.952354 
L 577.137448 285.375081 
L 578.244607 288.589221 
L 579.339396 290.34093 
L 581.492947 294.24571 
L 582.552228 296.050506 
L 583.60018 287.389214 
L 584.637043 284.131765 
L 585.663048 286.704043 
L 586.678421 285.677978 
L 587.683379 288.826212 
L 588.678135 288.722353 
L 589.662893 285.964418 
L 590.637852 286.916161 
L 591.603206 280.839528 
L 592.559141 282.164832 
L 593.50584 286.598248 
L 594.44348 285.782977 
L 595.372232 285.981428 
L 596.292263 291.62995 
L 597.203736 291.479705 
L 598.106808 291.898247 
L 599.001632 293.382143 
L 599.888358 292.713169 
L 600.767132 291.705143 
L 601.638094 291.384117 
L 602.501382 292.893625 
L 603.357131 293.580205 
L 604.205471 293.817799 
L 605.046528 293.580673 
L 605.880427 293.643906 
L 606.70729 291.433168 
L 607.527233 290.884059 
L 608.340371 292.392579 
L 609.146816 289.917061 
L 609.946679 290.402214 
L 610.740065 295.476343 
L 611.527078 296.683502 
L 612.30782 301.214287 
L 613.08239 300.92341 
L 613.850884 298.043644 
L 614.613399 298.501001 
L 615.370025 295.184666 
L 616.120853 295.278449 
L 616.865971 298.767193 
L 617.605466 299.380112 
L 618.339422 300.803101 
L 619.06792 298.746365 
L 619.791042 298.056934 
L 620.508867 298.473473 
L 621.22147 297.549232 
L 621.928929 297.139181 
L 622.631316 295.434123 
L 623.328704 294.371068 
L 624.021164 296.487663 
L 624.708764 294.314408 
L 625.391572 293.590004 
L 626.069655 293.192581 
L 626.743078 293.192619 
L 627.411903 294.059496 
L 628.076195 294.069166 
L 628.736013 293.401267 
L 629.391417 291.320771 
L 630.042467 291.848549 
L 630.689219 292.217536 
L 631.33173 291.743078 
L 632.604249 287.96807 
L 633.860453 286.958857 
L 635.100756 289.72456 
L 635.715069 290.937899 
L 636.325554 292.406759 
L 636.93226 293.046494 
L 638.134515 295.58663 
L 638.730156 296.642525 
L 639.322197 296.786394 
L 639.910683 295.841555 
L 640.495656 296.112061 
L 641.077157 295.610663 
L 641.655227 296.860525 
L 642.229906 296.75738 
L 643.369252 293.577353 
L 643.933994 291.630573 
L 644.495501 291.001092 
L 645.053808 290.765117 
L 645.608951 291.796294 
L 646.160967 292.212087 
L 646.709891 291.225002 
L 647.255756 292.032706 
L 647.798598 293.60305 
L 648.338448 293.803536 
L 648.87534 293.796632 
L 649.409307 293.150837 
L 649.940379 292.961241 
L 650.468588 293.451426 
L 651.516541 293.138471 
L 652.036343 293.596587 
L 652.553403 294.513629 
L 653.067749 293.431645 
L 653.579408 293.275021 
L 654.08841 292.850958 
L 654.594781 293.365832 
L 655.098549 292.91498 
L 655.59974 293.755629 
L 656.09838 293.043342 
L 656.594495 293.178365 
L 657.088111 293.182973 
L 657.579253 292.571739 
L 658.067946 292.889369 
L 658.554212 294.04339 
L 659.038078 294.538133 
L 659.9987 294.589892 
L 660.475501 294.472197 
L 660.949994 294.187488 
L 662.825317 292.249348 
L 663.288592 291.381829 
L 663.749688 290.980918 
L 664.665419 291.375136 
L 665.120096 291.304554 
L 666.023168 291.383282 
L 666.471601 291.871687 
L 666.917992 291.360554 
L 667.362358 291.04864 
L 667.804718 290.929854 
L 668.24509 291.047963 
L 669.119941 289.891776 
L 669.554454 290.075393 
L 669.987049 289.740212 
L 670.417743 289.825445 
L 670.846551 290.233117 
L 671.273491 290.301875 
L 671.698579 290.875127 
L 672.121831 290.629176 
L 672.543262 290.753927 
L 672.962888 291.063395 
L 673.380725 291.017161 
L 673.796788 291.387959 
L 674.211091 291.371697 
L 674.62365 290.925383 
L 675.034479 290.936267 
L 675.443593 291.298758 
L 675.851005 291.339782 
L 677.063177 291.082272 
L 677.463924 290.687862 
L 677.863039 290.741992 
L 678.260535 290.165399 
L 678.656425 290.287662 
L 679.443438 291.033488 
L 680.61223 291.370767 
L 680.99875 291.598348 
L 681.383751 291.344617 
L 681.767245 291.401943 
L 683.662518 292.365259 
L 684.037213 292.200293 
L 684.410481 292.863286 
L 685.152777 292.91725 
L 685.521826 292.731699 
L 685.889491 292.975542 
L 686.255782 293.000052 
L 686.620708 293.14867 
L 686.98428 293.443359 
L 687.707402 293.130979 
L 688.425227 293.305531 
L 689.137831 292.956621 
L 689.492198 292.979641 
L 689.845289 292.79863 
L 690.547676 292.820405 
L 691.245064 293.254626 
L 691.937524 292.500073 
L 692.281927 292.076339 
L 692.625124 292.066493 
L 692.967123 292.295867 
L 693.307932 292.215471 
L 693.986015 292.610559 
L 694.323305 292.524758 
L 694.659438 292.087257 
L 695.660972 291.865288 
L 695.992555 292.120179 
L 696.323019 292.125874 
L 696.652373 292.320006 
L 696.980623 292.167245 
L 697.307777 292.399624 
L 697.958827 292.352918 
L 698.282736 291.91302 
L 699.567772 291.259937 
L 699.886415 291.674784 
L 700.204025 290.881664 
L 700.520609 290.800396 
L 700.836173 290.931616 
L 701.150724 290.874706 
L 701.464269 291.253739 
L 701.776813 291.270711 
L 702.398927 290.760612 
L 702.708509 290.700742 
L 703.017116 290.971639 
L 703.324754 290.983719 
L 703.631429 291.206199 
L 703.937147 291.16321 
L 704.241914 291.329069 
L 704.545737 290.895695 
L 704.84862 290.894251 
L 705.150569 291.411776 
L 705.751691 291.450919 
L 706.050875 291.300713 
L 706.349148 291.572515 
L 706.646516 292.136232 
L 707.238558 292.132084 
L 707.827043 291.66157 
L 708.412016 291.690003 
L 708.703198 291.294232 
L 708.993517 291.286341 
L 709.571587 291.455598 
L 709.859348 291.165242 
L 710.432347 291.070659 
L 710.717595 290.881203 
L 711.002015 291.232032 
L 711.285612 291.397492 
L 711.56839 290.938615 
L 712.13151 290.682751 
L 712.411861 290.253424 
L 712.970168 290.549985 
L 713.248133 290.598512 
L 713.525311 290.530666 
L 713.801708 290.323529 
L 714.626251 291.449847 
L 714.899564 291.221744 
L 715.172117 291.523932 
L 715.443913 291.274119 
L 715.714958 291.685638 
L 715.985255 291.379732 
L 716.254808 291.30682 
L 716.523622 290.882338 
L 716.7917 291.007472 
L 717.059047 291.306399 
L 717.325667 291.31387 
L 717.591563 291.16547 
L 717.856739 290.655659 
L 718.1212 290.411159 
L 718.384948 290.81495 
L 718.647989 290.573646 
L 718.910326 290.740068 
L 719.171962 290.467831 
L 719.952703 290.919262 
L 720.211574 291.261166 
L 720.469763 291.043325 
L 720.727273 290.475003 
L 720.984109 290.571078 
L 721.240273 290.502336 
L 721.495768 290.562579 
L 721.7506 290.467984 
L 722.00477 290.853609 
L 722.258283 290.721937 
L 722.511141 290.408693 
L 722.763349 290.657896 
L 723.014909 290.400793 
L 723.265825 289.83879 
L 723.765737 289.958277 
L 724.01474 289.734938 
L 724.263112 290.009893 
L 724.510855 290.056915 
L 724.757974 289.872016 
L 725.25035 290.332824 
L 725.984306 290.873702 
L 726.227741 290.952251 
L 726.712804 290.83925 
L 727.195478 291.360775 
L 727.435926 291.427653 
L 727.675786 290.919717 
L 728.153751 290.407143 
L 728.391862 290.844982 
L 728.629395 290.739973 
L 728.866354 291.280559 
L 729.102742 291.523465 
L 729.338561 291.447161 
L 729.573813 290.951333 
L 730.04263 291.543134 
L 730.509215 291.617268 
L 730.973588 291.966834 
L 731.435771 291.513205 
L 731.895784 291.930521 
L 732.124983 291.402858 
L 732.809381 292.569083 
L 733.036456 292.470473 
L 733.489032 292.077399 
L 733.714539 292.10131 
L 733.939528 291.977289 
L 734.164001 291.724243 
L 734.387961 291.176391 
L 734.611411 291.114928 
L 735.056787 290.546103 
L 735.941512 290.222425 
L 736.161451 289.932914 
L 736.380897 290.344509 
L 736.599852 290.472461 
L 736.81832 290.76144 
L 737.036301 290.717419 
L 737.253798 291.033123 
L 737.470814 291.83172 
L 737.903409 292.28454 
L 738.334103 292.159649 
L 738.548742 292.844273 
L 738.762911 293.029074 
L 738.976614 292.701677 
L 739.402626 292.825726 
L 739.614939 292.552287 
L 739.826793 292.710985 
L 740.038191 292.439255 
L 740.249133 292.72293 
L 740.459622 292.735347 
L 740.66966 292.527483 
L 740.879248 292.147703 
L 741.088389 292.353807 
L 741.297085 292.804645 
L 741.713148 291.957728 
L 742.127451 292.161144 
L 742.333948 292.729749 
L 742.54001 292.808103 
L 743.155609 292.307684 
L 743.359953 292.504341 
L 743.563871 292.194367 
L 743.767365 292.499449 
L 744.173091 292.724614 
L 744.375326 292.895266 
L 744.577144 293.487047 
L 744.979537 292.78661 
L 745.180115 293.310569 
L 745.779399 293.844603 
L 745.978349 293.656515 
L 746.176895 293.931719 
L 746.37504 293.216941 
L 746.572785 293.047657 
L 746.770131 293.393621 
L 746.967081 293.247888 
L 747.163636 292.915558 
L 747.163636 292.915558 
" style="fill:none;stroke:#2ca02c;stroke-linecap:square;stroke-width:1.5;"/>
   </g>
   <g id="line2d_40">
    <path clip-path="url(#pae32724195)" d="M -1 293.457845 
L 747.163636 293.457845 
L 747.163636 293.457845 
" style="fill:none;stroke:#000000;stroke-dasharray:5.55,2.4;stroke-dashoffset:0;stroke-width:1.5;"/>
   </g>
   <g id="line2d_41">
    <path clip-path="url(#pae32724195)" d="M -1 360.304635 
L 138.436364 360.2713 
L 206.352724 331.380952 
L 246.081248 274.232075 
L 274.269084 282.414503 
L 296.133268 265.832809 
L 313.997608 262.28693 
L 329.101691 254.460418 
L 342.185444 227.981001 
L 353.726132 226.277295 
L 364.049628 236.40232 
L 373.388367 229.413932 
L 381.913968 228.637475 
L 389.75676 198.806442 
L 397.018052 187.402348 
L 403.778152 212.325704 
L 410.101804 210.710125 
L 416.041962 193.694043 
L 421.642492 209.510463 
L 426.940138 223.058737 
L 431.965988 226.08106 
L 436.746575 239.775485 
L 441.304727 228.675995 
L 445.660226 213.561323 
L 449.830328 218.28792 
L 453.830173 208.529433 
L 457.67312 219.982179 
L 461.371016 229.465537 
L 464.934412 232.121632 
L 468.37275 240.655287 
L 471.694512 224.549261 
L 474.907344 223.188101 
L 478.018164 238.662456 
L 481.033251 231.901 
L 483.958322 223.10329 
L 489.558852 207.25929 
L 492.243474 202.374077 
L 497.401644 211.789695 
L 499.882349 209.479003 
L 502.301795 219.018964 
L 504.662936 210.240242 
L 506.968515 211.630705 
L 509.221087 220.424436 
L 511.423036 206.264872 
L 513.576587 210.396874 
L 515.68382 204.028358 
L 517.746688 207.743568 
L 519.767019 205.133237 
L 521.746533 204.728953 
L 523.686846 215.405358 
L 525.58948 209.318193 
L 527.455872 216.68002 
L 529.287376 218.709303 
L 531.085272 216.228821 
L 532.850772 204.62106 
L 534.585022 196.859642 
L 536.28911 193.733742 
L 537.964067 179.158744 
L 539.610872 174.332777 
L 541.230456 187.207919 
L 544.391459 202.180556 
L 545.934524 215.187837 
L 547.453665 218.111245 
L 548.949611 214.014239 
L 550.423062 205.268438 
L 551.874682 213.628295 
L 553.30511 206.323107 
L 554.714956 205.553017 
L 556.104804 206.45162 
L 557.475212 209.394864 
L 558.826717 207.47567 
L 560.159835 209.324998 
L 561.475057 204.608779 
L 562.772859 206.499818 
L 564.053695 203.735892 
L 565.318004 205.438068 
L 566.566207 207.563412 
L 567.798709 207.082585 
L 569.015899 204.599417 
L 570.218155 203.452122 
L 571.405837 204.372273 
L 572.579296 197.376844 
L 573.738867 204.081766 
L 574.884875 207.957007 
L 576.017634 208.693506 
L 577.137448 203.896194 
L 581.492947 212.611389 
L 582.552228 213.958449 
L 583.60018 203.500852 
L 584.637043 201.133852 
L 585.663048 203.073923 
L 587.683379 205.805539 
L 588.678135 205.762409 
L 589.662893 201.906154 
L 590.637852 203.652717 
L 591.603206 199.127326 
L 593.50584 204.467359 
L 594.44348 205.177977 
L 595.372232 203.594814 
L 596.292263 208.677442 
L 597.203736 206.770072 
L 598.106808 207.248549 
L 599.001632 209.050749 
L 599.888358 208.329853 
L 600.767132 209.5694 
L 601.638094 209.358066 
L 603.357131 211.258936 
L 604.205471 211.581568 
L 605.046528 211.32913 
L 605.880427 210.4766 
L 606.70729 206.302135 
L 607.527233 207.299028 
L 608.340371 207.092486 
L 609.146816 204.771482 
L 609.946679 205.466585 
L 610.740065 209.64097 
L 611.527078 210.0332 
L 612.30782 214.859477 
L 613.08239 215.307019 
L 613.850884 212.106118 
L 614.613399 211.760707 
L 615.370025 208.837625 
L 616.120853 207.867246 
L 616.865971 211.607466 
L 617.605466 212.661053 
L 618.339422 213.922161 
L 619.06792 212.504617 
L 619.791042 211.464741 
L 620.508867 212.560639 
L 621.22147 211.120175 
L 621.928929 210.12639 
L 622.631316 208.051909 
L 624.021164 211.031148 
L 624.708764 209.993173 
L 625.391572 210.219031 
L 626.069655 208.846267 
L 626.743078 207.87789 
L 627.411903 207.732875 
L 628.076195 207.346105 
L 628.736013 206.309285 
L 629.391417 204.408115 
L 630.042467 203.892384 
L 630.689219 204.102248 
L 631.33173 203.598799 
L 632.604249 200.479366 
L 633.234364 199.917255 
L 633.860453 200.734344 
L 634.482567 201.935427 
L 635.715069 203.880562 
L 636.325554 206.94534 
L 636.93226 207.94779 
L 638.134515 211.828489 
L 638.730156 212.280619 
L 639.322197 212.975807 
L 639.910683 212.431251 
L 640.495656 213.267998 
L 641.077157 212.86575 
L 641.655227 214.730355 
L 642.229906 214.605282 
L 643.933994 209.676739 
L 644.495501 208.940192 
L 645.053808 208.509061 
L 645.608951 209.590031 
L 646.160967 210.002774 
L 646.709891 208.877133 
L 647.255756 209.14097 
L 647.798598 211.074896 
L 648.338448 210.854985 
L 648.87534 210.422743 
L 649.409307 209.836306 
L 649.940379 209.79537 
L 650.468588 210.168789 
L 650.993965 210.325001 
L 651.516541 209.675461 
L 652.036343 209.79188 
L 652.553403 211.23802 
L 653.579408 210.781072 
L 654.08841 210.638117 
L 654.594781 211.428932 
L 655.098549 210.608666 
L 655.59974 211.165542 
L 656.09838 210.187246 
L 656.594495 210.912208 
L 657.088111 210.415256 
L 657.579253 210.082942 
L 658.067946 210.687198 
L 658.554212 210.72216 
L 659.038078 211.26315 
L 659.519566 211.339474 
L 659.9987 211.286337 
L 660.475501 210.337725 
L 661.892142 210.217495 
L 662.825317 209.114396 
L 663.749688 208.543566 
L 664.208623 208.756163 
L 664.665419 208.425267 
L 665.120096 208.277401 
L 665.572672 208.669436 
L 666.023168 208.283234 
L 666.471601 208.696076 
L 667.362358 208.010799 
L 667.804718 207.453955 
L 668.24509 207.502195 
L 668.683492 206.907126 
L 669.119941 206.553441 
L 669.554454 206.739469 
L 669.987049 206.654026 
L 671.273491 207.120666 
L 671.698579 208.050421 
L 672.543262 207.536813 
L 672.962888 207.741714 
L 673.380725 207.623649 
L 673.796788 207.919042 
L 674.211091 207.873185 
L 674.62365 207.452065 
L 675.034479 207.456817 
L 675.851005 207.611055 
L 676.256731 207.688695 
L 676.660783 207.319736 
L 677.063177 207.148254 
L 677.463924 206.850185 
L 677.863039 206.733457 
L 678.260535 206.158616 
L 679.443438 206.30737 
L 679.834586 206.471281 
L 680.22418 206.508418 
L 681.383751 206.000773 
L 681.767245 206.149096 
L 682.149243 206.156227 
L 682.529759 206.021371 
L 682.908802 206.210991 
L 683.286385 206.227324 
L 683.662518 206.560625 
L 684.037213 206.27179 
L 684.410481 206.978619 
L 684.782332 206.965369 
L 685.152777 207.109486 
L 685.521826 207.074752 
L 685.889491 207.315316 
L 687.346508 207.581479 
L 687.707402 207.278399 
L 688.066972 207.430419 
L 689.492198 207.439481 
L 689.845289 207.166069 
L 690.547676 207.42351 
L 690.896991 207.376928 
L 691.245064 207.217204 
L 691.937524 206.470716 
L 692.281927 206.460647 
L 692.625124 206.327688 
L 692.967123 206.512953 
L 693.307932 206.479715 
L 693.986015 206.690722 
L 694.323305 206.494636 
L 694.659438 206.01147 
L 695.328263 205.970013 
L 695.660972 206.144945 
L 695.992555 206.491647 
L 696.323019 206.55344 
L 696.652373 206.854895 
L 696.980623 206.578823 
L 697.307777 206.982307 
L 697.633843 207.148419 
L 697.958827 207.015375 
L 698.282736 206.671448 
L 698.605579 206.791776 
L 698.927361 206.51091 
L 699.24809 206.488313 
L 699.567772 206.177569 
L 699.886415 206.304276 
L 700.204025 205.778975 
L 700.520609 205.665711 
L 700.836173 205.902148 
L 701.150724 205.925748 
L 701.464269 206.113991 
L 702.398927 205.662011 
L 703.631429 206.099909 
L 703.937147 206.060268 
L 704.241914 206.241938 
L 704.84862 205.72739 
L 705.150569 206.285489 
L 706.050875 206.209494 
L 706.349148 206.326855 
L 706.646516 206.85326 
L 706.942984 206.663672 
L 707.238558 206.738924 
L 707.827043 206.092709 
L 708.412016 206.27476 
L 708.703198 205.889811 
L 709.859348 205.674217 
L 710.146266 205.712037 
L 710.432347 205.459958 
L 710.717595 205.419988 
L 711.002015 205.565512 
L 711.285612 205.521289 
L 711.850354 205.294803 
L 712.411861 204.344958 
L 712.691412 204.89657 
L 712.970168 204.536233 
L 713.248133 204.646415 
L 713.801708 204.532096 
L 714.077328 204.83941 
L 714.352174 204.974271 
L 714.626251 205.294797 
L 714.899564 205.091954 
L 715.172117 205.252952 
L 715.443913 205.116964 
L 715.714958 205.621954 
L 715.985255 205.667366 
L 716.523622 205.387895 
L 717.325667 205.702891 
L 717.591563 205.760769 
L 718.1212 205.245339 
L 718.384948 205.3127 
L 718.647989 204.945185 
L 718.910326 205.186448 
L 719.171962 204.927381 
L 719.432901 205.119144 
L 719.693147 205.038558 
L 719.952703 205.209701 
L 720.211574 205.209849 
L 720.727273 204.638754 
L 720.984109 204.721689 
L 721.495768 204.375449 
L 722.00477 204.953387 
L 722.258283 204.879144 
L 722.511141 204.482128 
L 722.763349 204.593331 
L 723.5161 203.780996 
L 724.01474 203.753031 
L 724.263112 204.246807 
L 724.757974 204.051883 
L 725.740264 205.391491 
L 725.984306 205.434549 
L 726.227741 205.333571 
L 726.470573 205.462503 
L 726.712804 205.068621 
L 727.195478 205.782398 
L 727.435926 205.637632 
L 727.91506 205.017866 
L 728.153751 204.869748 
L 728.391862 205.183375 
L 728.629395 205.136928 
L 728.866354 205.695873 
L 729.102742 205.875559 
L 729.338561 205.8976 
L 729.573813 205.43645 
L 730.04263 205.860459 
L 730.509215 205.792316 
L 730.741677 205.922403 
L 730.973588 206.181895 
L 731.435771 205.680091 
L 731.666048 205.63792 
L 731.895784 205.862133 
L 732.124983 205.241578 
L 732.809381 206.138747 
L 733.036456 205.800455 
L 733.263005 205.883048 
L 733.714539 205.730868 
L 733.939528 205.844049 
L 734.834352 204.693242 
L 735.056787 204.492141 
L 735.500148 204.567673 
L 735.721079 204.586604 
L 736.161451 204.140056 
L 736.380897 204.578839 
L 736.81832 204.870246 
L 737.036301 204.623216 
L 737.253798 204.996946 
L 737.68735 205.946143 
L 737.903409 206.08363 
L 738.118993 205.711639 
L 738.334103 205.720857 
L 738.548742 206.303926 
L 738.762911 206.452893 
L 738.976614 206.2734 
L 739.402626 206.318919 
L 739.614939 205.911381 
L 739.826793 206.050789 
L 740.038191 205.669003 
L 740.66966 206.185231 
L 740.879248 206.084583 
L 741.088389 206.152403 
L 741.297085 206.499769 
L 741.505337 206.234598 
L 741.713148 205.702048 
L 742.127451 205.828649 
L 742.333948 206.350034 
L 742.54001 206.564901 
L 742.74564 206.523064 
L 742.950839 206.310168 
L 743.359953 206.517777 
L 743.563871 206.090121 
L 743.767365 206.369273 
L 743.970438 206.293169 
L 744.577144 207.278019 
L 744.778547 206.780032 
L 744.979537 206.677452 
L 745.380284 207.05521 
L 745.580045 206.923841 
L 746.176895 207.727957 
L 746.572785 206.891973 
L 746.770131 207.314027 
L 746.967081 207.228031 
L 747.163636 206.935037 
L 747.163636 206.935037 
" style="fill:none;stroke:#d62728;stroke-linecap:square;stroke-width:1.5;"/>
   </g>
   <g id="line2d_42">
    <path clip-path="url(#pae32724195)" d="M -1 205.66894 
L 747.163636 205.66894 
L 747.163636 205.66894 
" style="fill:none;stroke:#000000;stroke-dasharray:5.55,2.4;stroke-dashoffset:0;stroke-width:1.5;"/>
   </g>
   <g id="line2d_43">
    <path clip-path="url(#pae32724195)" d="M -1 317.955221 
L 138.436364 317.920632 
L 206.352724 269.535756 
L 246.081248 207.391834 
L 274.269084 202.283387 
L 296.133268 187.653229 
L 313.997608 150.983137 
L 329.101691 158.407879 
L 342.185444 157.812874 
L 353.726132 154.585855 
L 364.049628 148.434759 
L 373.388367 154.326629 
L 381.913968 153.218917 
L 389.75676 120.951801 
L 397.018052 120.787578 
L 403.778152 125.956654 
L 410.101804 125.843018 
L 416.041962 129.797474 
L 421.642492 130.583178 
L 426.940138 134.168812 
L 431.965988 136.323626 
L 436.746575 123.701329 
L 441.304727 120.496418 
L 445.660226 126.523613 
L 449.830328 130.087087 
L 453.830173 126.490145 
L 457.67312 132.920136 
L 461.371016 127.568418 
L 464.934412 135.628781 
L 468.37275 132.287087 
L 471.694512 125.837968 
L 474.907344 128.304777 
L 478.018164 149.961678 
L 481.033251 144.831342 
L 483.958322 134.162267 
L 486.798596 119.603117 
L 489.558852 113.077709 
L 492.243474 111.295111 
L 494.856498 114.977326 
L 497.401644 122.180427 
L 499.882349 126.351902 
L 502.301795 126.273175 
L 504.662936 113.906641 
L 506.968515 108.446924 
L 509.221087 114.266281 
L 511.423036 110.099008 
L 513.576587 112.576006 
L 515.68382 107.261562 
L 517.746688 110.607117 
L 519.767019 104.388557 
L 521.746533 111.836581 
L 523.686846 118.153325 
L 525.58948 113.567831 
L 527.455872 115.994293 
L 529.287376 123.598081 
L 531.085272 118.498353 
L 532.850772 111.432832 
L 534.585022 111.507971 
L 536.28911 104.052308 
L 537.964067 98.06 
L 539.610872 89.28 
L 541.230456 92.632535 
L 542.823704 105.933265 
L 544.391459 111.362 
L 545.934524 120.296591 
L 547.453665 120.737396 
L 548.949611 115.40998 
L 550.423062 112.817956 
L 551.874682 118.452737 
L 553.30511 114.715516 
L 554.714956 111.550417 
L 556.104804 107.695845 
L 558.826717 113.036175 
L 560.159835 114.999864 
L 562.772859 109.641896 
L 564.053695 115.007478 
L 565.318004 121.751889 
L 566.566207 120.464709 
L 567.798709 117.796524 
L 569.015899 113.996634 
L 571.405837 109.153397 
L 572.579296 107.242384 
L 573.738867 108.902837 
L 574.884875 116.283018 
L 576.017634 117.807573 
L 577.137448 114.524487 
L 578.244607 116.90322 
L 579.339396 116.291894 
L 580.422088 119.876146 
L 581.492947 121.56626 
L 582.552228 124.475513 
L 583.60018 116.693276 
L 584.637043 113.322366 
L 585.663048 111.233155 
L 586.678421 110.513083 
L 587.683379 111.8603 
L 588.678135 109.574493 
L 589.662893 106.55453 
L 590.637852 106.713228 
L 591.603206 106.50357 
L 592.559141 109.575608 
L 593.50584 110.019347 
L 594.44348 109.221907 
L 595.372232 107.110068 
L 596.292263 109.303482 
L 597.203736 109.962791 
L 598.106808 110.398429 
L 599.001632 111.422312 
L 599.888358 110.680483 
L 600.767132 112.735634 
L 601.638094 112.128673 
L 602.501382 111.30081 
L 604.205471 111.555544 
L 605.046528 112.452181 
L 605.880427 112.117878 
L 606.70729 110.050865 
L 607.527233 111.526856 
L 608.340371 110.896995 
L 609.146816 110.659549 
L 609.946679 111.428588 
L 610.740065 113.517695 
L 612.30782 116.352417 
L 613.850884 115.429363 
L 614.613399 115.094262 
L 615.370025 114.419865 
L 616.120853 113.368322 
L 616.865971 115.724779 
L 617.605466 114.853496 
L 618.339422 118.161296 
L 619.06792 118.93508 
L 619.791042 119.247889 
L 620.508867 120.260667 
L 621.22147 118.835696 
L 621.928929 117.082753 
L 622.631316 116.653629 
L 623.328704 115.441018 
L 624.021164 116.054466 
L 624.708764 116.495481 
L 625.391572 115.087576 
L 626.069655 113.290097 
L 626.743078 112.137843 
L 627.411903 112.558024 
L 628.076195 112.638564 
L 628.736013 111.384579 
L 629.391417 109.696323 
L 630.042467 110.092365 
L 630.689219 111.168181 
L 632.604249 107.823144 
L 633.234364 107.101485 
L 633.860453 107.170947 
L 634.482567 107.118458 
L 635.100756 107.700153 
L 635.715069 107.759344 
L 636.325554 109.7455 
L 636.93226 109.915719 
L 637.535231 111.517292 
L 638.134515 112.675774 
L 638.730156 112.883785 
L 639.322197 112.450069 
L 639.910683 112.227634 
L 640.495656 112.930617 
L 641.077157 112.569486 
L 641.655227 112.754212 
L 642.229906 113.849131 
L 642.801235 112.956321 
L 643.369252 112.403929 
L 643.933994 110.635225 
L 644.495501 109.750072 
L 645.053808 109.765078 
L 645.608951 110.607649 
L 646.160967 109.838256 
L 647.255756 109.666013 
L 647.798598 110.80293 
L 648.87534 110.781695 
L 649.409307 110.194275 
L 649.940379 110.020433 
L 650.468588 109.648817 
L 650.993965 110.203365 
L 651.516541 109.279392 
L 652.036343 108.92292 
L 652.553403 110.251702 
L 653.579408 110.077914 
L 654.594781 110.672903 
L 655.098549 110.221664 
L 655.59974 110.251348 
L 656.09838 109.670685 
L 656.594495 109.973928 
L 657.088111 109.82398 
L 657.579253 109.817208 
L 658.067946 111.011123 
L 658.554212 110.929374 
L 659.038078 111.610649 
L 659.519566 112.007209 
L 659.9987 111.726846 
L 660.475501 111.088546 
L 660.949994 111.464469 
L 661.422201 111.125522 
L 661.892142 111.10922 
L 662.825317 110.405632 
L 663.749688 110.365248 
L 664.208623 110.116055 
L 664.665419 110.127256 
L 665.120096 109.604794 
L 665.572672 109.989261 
L 666.023168 109.842283 
L 666.471601 110.06344 
L 666.917992 109.587764 
L 667.362358 109.861241 
L 667.804718 109.521484 
L 668.24509 109.630806 
L 668.683492 109.282116 
L 669.119941 108.734485 
L 669.554454 108.469472 
L 669.987049 108.42383 
L 670.417743 108.881091 
L 670.846551 109.119897 
L 671.273491 108.988956 
L 671.698579 109.566977 
L 672.121831 109.55465 
L 672.543262 109.829591 
L 672.962888 110.397802 
L 673.380725 110.542925 
L 673.796788 110.485275 
L 674.211091 110.737622 
L 674.62365 110.452414 
L 676.256731 110.405625 
L 676.660783 109.99691 
L 677.063177 109.825532 
L 677.863039 109.788918 
L 678.260535 109.357378 
L 678.656425 109.318429 
L 679.050721 109.158383 
L 679.443438 109.198841 
L 679.834586 109.49758 
L 680.99875 109.359647 
L 681.767245 109.703818 
L 682.149243 109.49325 
L 682.529759 109.502814 
L 682.908802 109.817492 
L 683.286385 109.722879 
L 683.662518 110.213835 
L 684.037213 110.083963 
L 684.410481 110.774564 
L 684.782332 110.61952 
L 685.152777 110.748798 
L 685.521826 110.450458 
L 685.889491 110.336898 
L 688.066972 110.347009 
L 688.425227 110.534912 
L 689.137831 111.081105 
L 689.492198 111.015112 
L 689.845289 110.811742 
L 690.197112 110.944518 
L 690.547676 110.849062 
L 690.896991 111.236475 
L 692.281927 110.44697 
L 692.625124 110.545027 
L 692.967123 110.881686 
L 693.307932 110.941072 
L 693.64756 110.842047 
L 693.986015 110.577751 
L 694.323305 110.637052 
L 694.994421 110.248398 
L 695.660972 110.573683 
L 696.323019 111.162951 
L 696.980623 111.022951 
L 697.307777 111.529267 
L 697.633843 111.689632 
L 698.605579 111.495989 
L 698.927361 111.273747 
L 699.24809 111.322857 
L 699.886415 111.189401 
L 700.204025 111.166003 
L 700.520609 110.941021 
L 701.150724 110.953403 
L 702.088364 110.74276 
L 702.398927 110.429525 
L 703.631429 111.536123 
L 703.937147 111.461986 
L 704.241914 111.679462 
L 704.84862 111.419844 
L 705.150569 111.517574 
L 705.751691 111.297444 
L 706.050875 111.310558 
L 706.349148 111.53582 
L 706.646516 111.273864 
L 707.533242 111.037974 
L 707.827043 110.814374 
L 708.412016 111.198964 
L 708.703198 110.689119 
L 708.993517 110.541078 
L 709.282978 110.521208 
L 709.571587 110.342178 
L 710.146266 110.800779 
L 710.432347 110.658147 
L 711.56839 110.561865 
L 711.850354 110.378182 
L 712.13151 109.993414 
L 712.411861 109.800687 
L 712.691412 110.383747 
L 712.970168 109.930747 
L 713.248133 109.92434 
L 713.525311 109.772762 
L 714.077328 109.937878 
L 714.352174 109.936146 
L 714.626251 110.371825 
L 714.899564 110.101803 
L 715.443913 109.994402 
L 715.985255 110.554089 
L 716.254808 110.66567 
L 716.7917 110.550399 
L 717.325667 110.856136 
L 717.591563 111.297938 
L 717.856739 110.919897 
L 718.1212 110.89809 
L 718.384948 111.139395 
L 718.647989 110.877763 
L 718.910326 110.911978 
L 719.432901 110.664854 
L 719.693147 110.604838 
L 719.952703 110.797768 
L 720.469763 110.198789 
L 720.727273 110.183155 
L 720.984109 110.519896 
L 721.495768 110.376904 
L 722.258283 110.825462 
L 722.511141 110.551727 
L 722.763349 110.601499 
L 723.5161 110.124363 
L 724.01474 110.60713 
L 724.510855 110.844812 
L 725.004472 110.948661 
L 725.25035 110.808527 
L 725.740264 111.71637 
L 725.984306 111.59607 
L 726.470573 111.77322 
L 726.712804 111.551189 
L 726.954438 111.705254 
L 727.195478 112.087717 
L 727.675786 111.755146 
L 727.91506 111.539367 
L 728.153751 111.51163 
L 728.391862 111.618106 
L 728.629395 111.325115 
L 729.338561 111.962029 
L 729.573813 111.559221 
L 730.04263 112.016779 
L 730.509215 111.870985 
L 730.741677 111.826592 
L 731.204952 112.096617 
L 731.666048 111.719518 
L 731.895784 112.096799 
L 732.124983 111.638387 
L 732.353648 111.61145 
L 732.809381 112.18004 
L 733.036456 112.021087 
L 733.263005 112.043053 
L 733.714539 111.681707 
L 733.939528 111.708762 
L 734.164001 111.479894 
L 734.387961 111.480577 
L 735.056787 110.786874 
L 735.500148 111.123514 
L 735.941512 111.113622 
L 736.161451 110.893162 
L 736.380897 111.242207 
L 736.599852 111.164316 
L 737.036301 111.363244 
L 737.470814 111.85682 
L 737.68735 112.316421 
L 737.903409 112.373985 
L 738.118993 112.081548 
L 738.334103 112.099103 
L 738.762911 112.446675 
L 738.976614 112.223842 
L 739.189851 112.297588 
L 739.402626 112.221955 
L 739.614939 111.948216 
L 739.826793 112.159205 
L 740.038191 112.032601 
L 740.459622 112.544847 
L 741.088389 112.518281 
L 741.297085 112.894333 
L 741.713148 112.398436 
L 741.920518 112.527477 
L 742.127451 112.232776 
L 742.333948 112.4946 
L 743.155609 112.662088 
L 743.359953 112.571978 
L 743.563871 112.138803 
L 743.970438 112.231433 
L 744.173091 112.463931 
L 744.375326 112.484986 
L 744.577144 112.857345 
L 744.979537 112.523058 
L 745.180115 112.782158 
L 745.580045 112.558391 
L 745.978349 112.710273 
L 746.176895 113.085787 
L 746.37504 112.735546 
L 746.572785 112.796026 
L 747.163636 112.504276 
L 747.163636 112.504276 
" style="fill:none;stroke:#9467bd;stroke-linecap:square;stroke-width:1.5;"/>
   </g>
   <g id="line2d_44">
    <path clip-path="url(#pae32724195)" d="M -1 111.30161 
L 747.163636 111.30161 
L 747.163636 111.30161 
" style="fill:none;stroke:#000000;stroke-dasharray:5.55,2.4;stroke-dashoffset:0;stroke-width:1.5;"/>
   </g>
   <g id="patch_3">
    <path d="M 108 512.64 
L 108 69.12 
" style="fill:none;stroke:#000000;stroke-linecap:square;stroke-linejoin:miter;stroke-width:0.8;"/>
   </g>
   <g id="patch_4">
    <path d="M 777.6 512.64 
L 777.6 69.12 
" style="fill:none;stroke:#000000;stroke-linecap:square;stroke-linejoin:miter;stroke-width:0.8;"/>
   </g>
   <g id="patch_5">
    <path d="M 108 512.64 
L 777.6 512.64 
" style="fill:none;stroke:#000000;stroke-linecap:square;stroke-linejoin:miter;stroke-width:0.8;"/>
   </g>
   <g id="patch_6">
    <path d="M 108 69.12 
L 777.6 69.12 
" style="fill:none;stroke:#000000;stroke-linecap:square;stroke-linejoin:miter;stroke-width:0.8;"/>
   </g>
   <g id="text_14">
    <!-- FVMC estimates through time vs true values -->
    <g transform="translate(309.2775 63.12)scale(0.12 -0.12)">
     <defs>
      <path d="M 628 4666 
L 1569 4666 
L 2759 1491 
L 3956 4666 
L 4897 4666 
L 4897 0 
L 4281 0 
L 4281 4097 
L 3078 897 
L 2444 897 
L 1241 4097 
L 1241 0 
L 628 0 
L 628 4666 
z
" id="DejaVuSans-4d" transform="scale(0.015625)"/>
      <path d="M 4122 4306 
L 4122 3641 
Q 3803 3938 3442 4084 
Q 3081 4231 2675 4231 
Q 1875 4231 1450 3742 
Q 1025 3253 1025 2328 
Q 1025 1406 1450 917 
Q 1875 428 2675 428 
Q 3081 428 3442 575 
Q 3803 722 4122 1019 
L 4122 359 
Q 3791 134 3420 21 
Q 3050 -91 2638 -91 
Q 1578 -91 968 557 
Q 359 1206 359 2328 
Q 359 3453 968 4101 
Q 1578 4750 2638 4750 
Q 3056 4750 3426 4639 
Q 3797 4528 4122 4306 
z
" id="DejaVuSans-43" transform="scale(0.015625)"/>
      <path d="M 3328 2828 
Q 3544 3216 3844 3400 
Q 4144 3584 4550 3584 
Q 5097 3584 5394 3201 
Q 5691 2819 5691 2113 
L 5691 0 
L 5113 0 
L 5113 2094 
Q 5113 2597 4934 2840 
Q 4756 3084 4391 3084 
Q 3944 3084 3684 2787 
Q 3425 2491 3425 1978 
L 3425 0 
L 2847 0 
L 2847 2094 
Q 2847 2600 2669 2842 
Q 2491 3084 2119 3084 
Q 1678 3084 1418 2786 
Q 1159 2488 1159 1978 
L 1159 0 
L 581 0 
L 581 3500 
L 1159 3500 
L 1159 2956 
Q 1356 3278 1631 3431 
Q 1906 3584 2284 3584 
Q 2666 3584 2933 3390 
Q 3200 3197 3328 2828 
z
" id="DejaVuSans-6d" transform="scale(0.015625)"/>
      <path d="M 3513 2113 
L 3513 0 
L 2938 0 
L 2938 2094 
Q 2938 2591 2744 2837 
Q 2550 3084 2163 3084 
Q 1697 3084 1428 2787 
Q 1159 2491 1159 1978 
L 1159 0 
L 581 0 
L 581 4863 
L 1159 4863 
L 1159 2956 
Q 1366 3272 1645 3428 
Q 1925 3584 2291 3584 
Q 2894 3584 3203 3211 
Q 3513 2838 3513 2113 
z
" id="DejaVuSans-68" transform="scale(0.015625)"/>
      <path d="M 2631 2963 
Q 2534 3019 2420 3045 
Q 2306 3072 2169 3072 
Q 1681 3072 1420 2755 
Q 1159 2438 1159 1844 
L 1159 0 
L 581 0 
L 581 3500 
L 1159 3500 
L 1159 2956 
Q 1341 3275 1631 3429 
Q 1922 3584 2338 3584 
Q 2397 3584 2469 3576 
Q 2541 3569 2628 3553 
L 2631 2963 
z
" id="DejaVuSans-72" transform="scale(0.015625)"/>
      <path d="M 2906 1791 
Q 2906 2416 2648 2759 
Q 2391 3103 1925 3103 
Q 1463 3103 1205 2759 
Q 947 2416 947 1791 
Q 947 1169 1205 825 
Q 1463 481 1925 481 
Q 2391 481 2648 825 
Q 2906 1169 2906 1791 
z
M 3481 434 
Q 3481 -459 3084 -895 
Q 2688 -1331 1869 -1331 
Q 1566 -1331 1297 -1286 
Q 1028 -1241 775 -1147 
L 775 -588 
Q 1028 -725 1275 -790 
Q 1522 -856 1778 -856 
Q 2344 -856 2625 -561 
Q 2906 -266 2906 331 
L 2906 616 
Q 2728 306 2450 153 
Q 2172 0 1784 0 
Q 1141 0 747 490 
Q 353 981 353 1791 
Q 353 2603 747 3093 
Q 1141 3584 1784 3584 
Q 2172 3584 2450 3431 
Q 2728 3278 2906 2969 
L 2906 3500 
L 3481 3500 
L 3481 434 
z
" id="DejaVuSans-67" transform="scale(0.015625)"/>
      <path d="M 191 3500 
L 800 3500 
L 1894 563 
L 2988 3500 
L 3597 3500 
L 2284 0 
L 1503 0 
L 191 3500 
z
" id="DejaVuSans-76" transform="scale(0.015625)"/>
     </defs>
     <use xlink:href="#DejaVuSans-46"/>
     <use x="57.519531" xlink:href="#DejaVuSans-56"/>
     <use x="125.927734" xlink:href="#DejaVuSans-4d"/>
     <use x="212.207031" xlink:href="#DejaVuSans-43"/>
     <use x="282.03125" xlink:href="#DejaVuSans-20"/>
     <use x="313.818359" xlink:href="#DejaVuSans-65"/>
     <use x="375.341797" xlink:href="#DejaVuSans-73"/>
     <use x="427.441406" xlink:href="#DejaVuSans-74"/>
     <use x="466.650391" xlink:href="#DejaVuSans-69"/>
     <use x="494.433594" xlink:href="#DejaVuSans-6d"/>
     <use x="591.845703" xlink:href="#DejaVuSans-61"/>
     <use x="653.125" xlink:href="#DejaVuSans-74"/>
     <use x="692.333984" xlink:href="#DejaVuSans-65"/>
     <use x="753.857422" xlink:href="#DejaVuSans-73"/>
     <use x="805.957031" xlink:href="#DejaVuSans-20"/>
     <use x="837.744141" xlink:href="#DejaVuSans-74"/>
     <use x="876.953125" xlink:href="#DejaVuSans-68"/>
     <use x="940.332031" xlink:href="#DejaVuSans-72"/>
     <use x="979.195312" xlink:href="#DejaVuSans-6f"/>
     <use x="1040.376953" xlink:href="#DejaVuSans-75"/>
     <use x="1103.755859" xlink:href="#DejaVuSans-67"/>
     <use x="1167.232422" xlink:href="#DejaVuSans-68"/>
     <use x="1230.611328" xlink:href="#DejaVuSans-20"/>
     <use x="1262.398438" xlink:href="#DejaVuSans-74"/>
     <use x="1301.607422" xlink:href="#DejaVuSans-69"/>
     <use x="1329.390625" xlink:href="#DejaVuSans-6d"/>
     <use x="1426.802734" xlink:href="#DejaVuSans-65"/>
     <use x="1488.326172" xlink:href="#DejaVuSans-20"/>
     <use x="1520.113281" xlink:href="#DejaVuSans-76"/>
     <use x="1579.292969" xlink:href="#DejaVuSans-73"/>
     <use x="1631.392578" xlink:href="#DejaVuSans-20"/>
     <use x="1663.179688" xlink:href="#DejaVuSans-74"/>
     <use x="1702.388672" xlink:href="#DejaVuSans-72"/>
     <use x="1743.501953" xlink:href="#DejaVuSans-75"/>
     <use x="1806.880859" xlink:href="#DejaVuSans-65"/>
     <use x="1868.404297" xlink:href="#DejaVuSans-20"/>
     <use x="1900.191406" xlink:href="#DejaVuSans-76"/>
     <use x="1959.371094" xlink:href="#DejaVuSans-61"/>
     <use x="2020.650391" xlink:href="#DejaVuSans-6c"/>
     <use x="2048.433594" xlink:href="#DejaVuSans-75"/>
     <use x="2111.8125" xlink:href="#DejaVuSans-65"/>
     <use x="2173.335938" xlink:href="#DejaVuSans-73"/>
    </g>
   </g>
   <g id="legend_1">
    <g id="patch_7">
     <path d="M 784.6 329.075312 
L 837.60625 329.075312 
Q 839.60625 329.075312 839.60625 327.075312 
L 839.60625 254.684687 
Q 839.60625 252.684687 837.60625 252.684687 
L 784.6 252.684687 
Q 782.6 252.684687 782.6 254.684687 
L 782.6 327.075312 
Q 782.6 329.075312 784.6 329.075312 
z
" style="fill:#ffffff;opacity:0.8;stroke:#cccccc;stroke-linejoin:miter;"/>
    </g>
    <g id="line2d_45">
     <path d="M 786.6 260.783125 
L 806.6 260.783125 
" style="fill:none;stroke:#1f77b4;stroke-linecap:square;stroke-width:1.5;"/>
    </g>
    <g id="line2d_46"/>
    <g id="text_15">
     <!-- V(1) -->
     <g transform="translate(814.6 264.283125)scale(0.1 -0.1)">
      <defs>
       <path d="M 1984 4856 
Q 1566 4138 1362 3434 
Q 1159 2731 1159 2009 
Q 1159 1288 1364 580 
Q 1569 -128 1984 -844 
L 1484 -844 
Q 1016 -109 783 600 
Q 550 1309 550 2009 
Q 550 2706 781 3412 
Q 1013 4119 1484 4856 
L 1984 4856 
z
" id="DejaVuSans-28" transform="scale(0.015625)"/>
       <path d="M 513 4856 
L 1013 4856 
Q 1481 4119 1714 3412 
Q 1947 2706 1947 2009 
Q 1947 1309 1714 600 
Q 1481 -109 1013 -844 
L 513 -844 
Q 928 -128 1133 580 
Q 1338 1288 1338 2009 
Q 1338 2731 1133 3434 
Q 928 4138 513 4856 
z
" id="DejaVuSans-29" transform="scale(0.015625)"/>
      </defs>
      <use xlink:href="#DejaVuSans-56"/>
      <use x="68.408203" xlink:href="#DejaVuSans-28"/>
      <use x="107.421875" xlink:href="#DejaVuSans-31"/>
      <use x="171.044922" xlink:href="#DejaVuSans-29"/>
     </g>
    </g>
    <g id="line2d_47">
     <path d="M 786.6 275.46125 
L 806.6 275.46125 
" style="fill:none;stroke:#ff7f0e;stroke-linecap:square;stroke-width:1.5;"/>
    </g>
    <g id="line2d_48"/>
    <g id="text_16">
     <!-- V(2) -->
     <g transform="translate(814.6 278.96125)scale(0.1 -0.1)">
      <use xlink:href="#DejaVuSans-56"/>
      <use x="68.408203" xlink:href="#DejaVuSans-28"/>
      <use x="107.421875" xlink:href="#DejaVuSans-32"/>
      <use x="171.044922" xlink:href="#DejaVuSans-29"/>
     </g>
    </g>
    <g id="line2d_49">
     <path d="M 786.6 290.139375 
L 806.6 290.139375 
" style="fill:none;stroke:#2ca02c;stroke-linecap:square;stroke-width:1.5;"/>
    </g>
    <g id="line2d_50"/>
    <g id="text_17">
     <!-- V(3) -->
     <g transform="translate(814.6 293.639375)scale(0.1 -0.1)">
      <use xlink:href="#DejaVuSans-56"/>
      <use x="68.408203" xlink:href="#DejaVuSans-28"/>
      <use x="107.421875" xlink:href="#DejaVuSans-33"/>
      <use x="171.044922" xlink:href="#DejaVuSans-29"/>
     </g>
    </g>
    <g id="line2d_51">
     <path d="M 786.6 304.8175 
L 806.6 304.8175 
" style="fill:none;stroke:#d62728;stroke-linecap:square;stroke-width:1.5;"/>
    </g>
    <g id="line2d_52"/>
    <g id="text_18">
     <!-- V(4) -->
     <g transform="translate(814.6 308.3175)scale(0.1 -0.1)">
      <use xlink:href="#DejaVuSans-56"/>
      <use x="68.408203" xlink:href="#DejaVuSans-28"/>
      <use x="107.421875" xlink:href="#DejaVuSans-34"/>
      <use x="171.044922" xlink:href="#DejaVuSans-29"/>
     </g>
    </g>
    <g id="line2d_53">
     <path d="M 786.6 319.495625 
L 806.6 319.495625 
" style="fill:none;stroke:#9467bd;stroke-linecap:square;stroke-width:1.5;"/>
    </g>
    <g id="line2d_54"/>
    <g id="text_19">
     <!-- V(5) -->
     <g transform="translate(814.6 322.995625)scale(0.1 -0.1)">
      <use xlink:href="#DejaVuSans-56"/>
      <use x="68.408203" xlink:href="#DejaVuSans-28"/>
      <use x="107.421875" xlink:href="#DejaVuSans-35"/>
      <use x="171.044922" xlink:href="#DejaVuSans-29"/>
     </g>
    </g>
   </g>
  </g>
 </g>
 <defs>
  <clipPath id="pae32724195">
   <rect height="443.52" width="669.6" x="108" y="69.12"/>
  </clipPath>
 </defs>
</svg>
