<?xml version="1.0" encoding="utf-8" standalone="no"?>
<!DOCTYPE svg PUBLIC "-//W3C//DTD SVG 1.1//EN"
  "http://www.w3.org/Graphics/SVG/1.1/DTD/svg11.dtd">
<svg height="576pt" version="1.1" viewBox="0 0 864 576" width="864pt" xmlns="http://www.w3.org/2000/svg" xmlns:xlink="http://www.w3.org/1999/xlink">
 <metadata>
  <rdf:RDF xmlns:cc="http://creativecommons.org/ns#" xmlns:dc="http://purl.org/dc/elements/1.1/" xmlns:rdf="http://www.w3.org/1999/02/22-rdf-syntax-ns#">
   <cc:Work>
    <dc:type rdf:resource="http://purl.org/dc/dcmitype/StillImage"/>
    <dc:date>2021-09-11T09:54:29.386516</dc:date>
    <dc:format>image/svg+xml</dc:format>
    <dc:creator>
     <cc:Agent>
      <dc:title>Matplotlib v3.4.3, https://matplotlib.org/</dc:title>
     </cc:Agent>
    </dc:creator>
   </cc:Work>
  </rdf:RDF>
 </metadata>
 <defs>
  <style type="text/css">*{stroke-linecap:butt;stroke-linejoin:round;}</style>
 </defs>
 <g id="figure_1">
  <g id="patch_1">
   <path d="M 0 576 
L 864 576 
L 864 0 
L 0 0 
z
" style="fill:#ffffff;"/>
  </g>
  <g id="axes_1">
   <g id="patch_2">
    <path d="M 108 512.64 
L 710.64 512.64 
L 710.64 69.12 
L 108 69.12 
z
" style="fill:#ffffff;"/>
   </g>
   <g id="matplotlib.axis_1">
    <g id="xtick_1">
     <g id="line2d_1">
      <defs>
       <path d="M 0 0 
L 0 3.5 
" id="m50320d3209" style="stroke:#000000;stroke-width:0.8;"/>
      </defs>
      <g>
       <use style="stroke:#000000;stroke-width:0.8;" x="135.392727" xlink:href="#m50320d3209" y="512.64"/>
      </g>
     </g>
     <g id="text_1">
      <!-- 0 -->
      <g transform="translate(130.938977 530.277812)scale(0.14 -0.14)">
       <defs>
        <path d="M 2034 4250 
Q 1547 4250 1301 3770 
Q 1056 3291 1056 2328 
Q 1056 1369 1301 889 
Q 1547 409 2034 409 
Q 2525 409 2770 889 
Q 3016 1369 3016 2328 
Q 3016 3291 2770 3770 
Q 2525 4250 2034 4250 
z
M 2034 4750 
Q 2819 4750 3233 4129 
Q 3647 3509 3647 2328 
Q 3647 1150 3233 529 
Q 2819 -91 2034 -91 
Q 1250 -91 836 529 
Q 422 1150 422 2328 
Q 422 3509 836 4129 
Q 1250 4750 2034 4750 
z
" id="DejaVuSans-30" transform="scale(0.015625)"/>
       </defs>
       <use xlink:href="#DejaVuSans-30"/>
      </g>
     </g>
    </g>
    <g id="xtick_2">
     <g id="line2d_2">
      <g>
       <use style="stroke:#000000;stroke-width:0.8;" x="245.183217" xlink:href="#m50320d3209" y="512.64"/>
      </g>
     </g>
     <g id="text_2">
      <!-- 100 -->
      <g transform="translate(231.821967 530.277812)scale(0.14 -0.14)">
       <defs>
        <path d="M 794 531 
L 1825 531 
L 1825 4091 
L 703 3866 
L 703 4441 
L 1819 4666 
L 2450 4666 
L 2450 531 
L 3481 531 
L 3481 0 
L 794 0 
L 794 531 
z
" id="DejaVuSans-31" transform="scale(0.015625)"/>
       </defs>
       <use xlink:href="#DejaVuSans-31"/>
       <use x="63.623047" xlink:href="#DejaVuSans-30"/>
       <use x="127.246094" xlink:href="#DejaVuSans-30"/>
      </g>
     </g>
    </g>
    <g id="xtick_3">
     <g id="line2d_3">
      <g>
       <use style="stroke:#000000;stroke-width:0.8;" x="354.973707" xlink:href="#m50320d3209" y="512.64"/>
      </g>
     </g>
     <g id="text_3">
      <!-- 200 -->
      <g transform="translate(341.612457 530.277812)scale(0.14 -0.14)">
       <defs>
        <path d="M 1228 531 
L 3431 531 
L 3431 0 
L 469 0 
L 469 531 
Q 828 903 1448 1529 
Q 2069 2156 2228 2338 
Q 2531 2678 2651 2914 
Q 2772 3150 2772 3378 
Q 2772 3750 2511 3984 
Q 2250 4219 1831 4219 
Q 1534 4219 1204 4116 
Q 875 4013 500 3803 
L 500 4441 
Q 881 4594 1212 4672 
Q 1544 4750 1819 4750 
Q 2544 4750 2975 4387 
Q 3406 4025 3406 3419 
Q 3406 3131 3298 2873 
Q 3191 2616 2906 2266 
Q 2828 2175 2409 1742 
Q 1991 1309 1228 531 
z
" id="DejaVuSans-32" transform="scale(0.015625)"/>
       </defs>
       <use xlink:href="#DejaVuSans-32"/>
       <use x="63.623047" xlink:href="#DejaVuSans-30"/>
       <use x="127.246094" xlink:href="#DejaVuSans-30"/>
      </g>
     </g>
    </g>
    <g id="xtick_4">
     <g id="line2d_4">
      <g>
       <use style="stroke:#000000;stroke-width:0.8;" x="464.764197" xlink:href="#m50320d3209" y="512.64"/>
      </g>
     </g>
     <g id="text_4">
      <!-- 300 -->
      <g transform="translate(451.402947 530.277812)scale(0.14 -0.14)">
       <defs>
        <path d="M 2597 2516 
Q 3050 2419 3304 2112 
Q 3559 1806 3559 1356 
Q 3559 666 3084 287 
Q 2609 -91 1734 -91 
Q 1441 -91 1130 -33 
Q 819 25 488 141 
L 488 750 
Q 750 597 1062 519 
Q 1375 441 1716 441 
Q 2309 441 2620 675 
Q 2931 909 2931 1356 
Q 2931 1769 2642 2001 
Q 2353 2234 1838 2234 
L 1294 2234 
L 1294 2753 
L 1863 2753 
Q 2328 2753 2575 2939 
Q 2822 3125 2822 3475 
Q 2822 3834 2567 4026 
Q 2313 4219 1838 4219 
Q 1578 4219 1281 4162 
Q 984 4106 628 3988 
L 628 4550 
Q 988 4650 1302 4700 
Q 1616 4750 1894 4750 
Q 2613 4750 3031 4423 
Q 3450 4097 3450 3541 
Q 3450 3153 3228 2886 
Q 3006 2619 2597 2516 
z
" id="DejaVuSans-33" transform="scale(0.015625)"/>
       </defs>
       <use xlink:href="#DejaVuSans-33"/>
       <use x="63.623047" xlink:href="#DejaVuSans-30"/>
       <use x="127.246094" xlink:href="#DejaVuSans-30"/>
      </g>
     </g>
    </g>
    <g id="xtick_5">
     <g id="line2d_5">
      <g>
       <use style="stroke:#000000;stroke-width:0.8;" x="574.554688" xlink:href="#m50320d3209" y="512.64"/>
      </g>
     </g>
     <g id="text_5">
      <!-- 400 -->
      <g transform="translate(561.193438 530.277812)scale(0.14 -0.14)">
       <defs>
        <path d="M 2419 4116 
L 825 1625 
L 2419 1625 
L 2419 4116 
z
M 2253 4666 
L 3047 4666 
L 3047 1625 
L 3713 1625 
L 3713 1100 
L 3047 1100 
L 3047 0 
L 2419 0 
L 2419 1100 
L 313 1100 
L 313 1709 
L 2253 4666 
z
" id="DejaVuSans-34" transform="scale(0.015625)"/>
       </defs>
       <use xlink:href="#DejaVuSans-34"/>
       <use x="63.623047" xlink:href="#DejaVuSans-30"/>
       <use x="127.246094" xlink:href="#DejaVuSans-30"/>
      </g>
     </g>
    </g>
    <g id="xtick_6">
     <g id="line2d_6">
      <g>
       <use style="stroke:#000000;stroke-width:0.8;" x="684.345178" xlink:href="#m50320d3209" y="512.64"/>
      </g>
     </g>
     <g id="text_6">
      <!-- 500 -->
      <g transform="translate(670.983928 530.277812)scale(0.14 -0.14)">
       <defs>
        <path d="M 691 4666 
L 3169 4666 
L 3169 4134 
L 1269 4134 
L 1269 2991 
Q 1406 3038 1543 3061 
Q 1681 3084 1819 3084 
Q 2600 3084 3056 2656 
Q 3513 2228 3513 1497 
Q 3513 744 3044 326 
Q 2575 -91 1722 -91 
Q 1428 -91 1123 -41 
Q 819 9 494 109 
L 494 744 
Q 775 591 1075 516 
Q 1375 441 1709 441 
Q 2250 441 2565 725 
Q 2881 1009 2881 1497 
Q 2881 1984 2565 2268 
Q 2250 2553 1709 2553 
Q 1456 2553 1204 2497 
Q 953 2441 691 2322 
L 691 4666 
z
" id="DejaVuSans-35" transform="scale(0.015625)"/>
       </defs>
       <use xlink:href="#DejaVuSans-35"/>
       <use x="63.623047" xlink:href="#DejaVuSans-30"/>
       <use x="127.246094" xlink:href="#DejaVuSans-30"/>
      </g>
     </g>
    </g>
    <g id="text_7">
     <!-- Episodes -->
     <g transform="translate(378.180937 547.827188)scale(0.14 -0.14)">
      <defs>
       <path d="M 628 4666 
L 3578 4666 
L 3578 4134 
L 1259 4134 
L 1259 2753 
L 3481 2753 
L 3481 2222 
L 1259 2222 
L 1259 531 
L 3634 531 
L 3634 0 
L 628 0 
L 628 4666 
z
" id="DejaVuSans-45" transform="scale(0.015625)"/>
       <path d="M 1159 525 
L 1159 -1331 
L 581 -1331 
L 581 3500 
L 1159 3500 
L 1159 2969 
Q 1341 3281 1617 3432 
Q 1894 3584 2278 3584 
Q 2916 3584 3314 3078 
Q 3713 2572 3713 1747 
Q 3713 922 3314 415 
Q 2916 -91 2278 -91 
Q 1894 -91 1617 61 
Q 1341 213 1159 525 
z
M 3116 1747 
Q 3116 2381 2855 2742 
Q 2594 3103 2138 3103 
Q 1681 3103 1420 2742 
Q 1159 2381 1159 1747 
Q 1159 1113 1420 752 
Q 1681 391 2138 391 
Q 2594 391 2855 752 
Q 3116 1113 3116 1747 
z
" id="DejaVuSans-70" transform="scale(0.015625)"/>
       <path d="M 603 3500 
L 1178 3500 
L 1178 0 
L 603 0 
L 603 3500 
z
M 603 4863 
L 1178 4863 
L 1178 4134 
L 603 4134 
L 603 4863 
z
" id="DejaVuSans-69" transform="scale(0.015625)"/>
       <path d="M 2834 3397 
L 2834 2853 
Q 2591 2978 2328 3040 
Q 2066 3103 1784 3103 
Q 1356 3103 1142 2972 
Q 928 2841 928 2578 
Q 928 2378 1081 2264 
Q 1234 2150 1697 2047 
L 1894 2003 
Q 2506 1872 2764 1633 
Q 3022 1394 3022 966 
Q 3022 478 2636 193 
Q 2250 -91 1575 -91 
Q 1294 -91 989 -36 
Q 684 19 347 128 
L 347 722 
Q 666 556 975 473 
Q 1284 391 1588 391 
Q 1994 391 2212 530 
Q 2431 669 2431 922 
Q 2431 1156 2273 1281 
Q 2116 1406 1581 1522 
L 1381 1569 
Q 847 1681 609 1914 
Q 372 2147 372 2553 
Q 372 3047 722 3315 
Q 1072 3584 1716 3584 
Q 2034 3584 2315 3537 
Q 2597 3491 2834 3397 
z
" id="DejaVuSans-73" transform="scale(0.015625)"/>
       <path d="M 1959 3097 
Q 1497 3097 1228 2736 
Q 959 2375 959 1747 
Q 959 1119 1226 758 
Q 1494 397 1959 397 
Q 2419 397 2687 759 
Q 2956 1122 2956 1747 
Q 2956 2369 2687 2733 
Q 2419 3097 1959 3097 
z
M 1959 3584 
Q 2709 3584 3137 3096 
Q 3566 2609 3566 1747 
Q 3566 888 3137 398 
Q 2709 -91 1959 -91 
Q 1206 -91 779 398 
Q 353 888 353 1747 
Q 353 2609 779 3096 
Q 1206 3584 1959 3584 
z
" id="DejaVuSans-6f" transform="scale(0.015625)"/>
       <path d="M 2906 2969 
L 2906 4863 
L 3481 4863 
L 3481 0 
L 2906 0 
L 2906 525 
Q 2725 213 2448 61 
Q 2172 -91 1784 -91 
Q 1150 -91 751 415 
Q 353 922 353 1747 
Q 353 2572 751 3078 
Q 1150 3584 1784 3584 
Q 2172 3584 2448 3432 
Q 2725 3281 2906 2969 
z
M 947 1747 
Q 947 1113 1208 752 
Q 1469 391 1925 391 
Q 2381 391 2643 752 
Q 2906 1113 2906 1747 
Q 2906 2381 2643 2742 
Q 2381 3103 1925 3103 
Q 1469 3103 1208 2742 
Q 947 2381 947 1747 
z
" id="DejaVuSans-64" transform="scale(0.015625)"/>
       <path d="M 3597 1894 
L 3597 1613 
L 953 1613 
Q 991 1019 1311 708 
Q 1631 397 2203 397 
Q 2534 397 2845 478 
Q 3156 559 3463 722 
L 3463 178 
Q 3153 47 2828 -22 
Q 2503 -91 2169 -91 
Q 1331 -91 842 396 
Q 353 884 353 1716 
Q 353 2575 817 3079 
Q 1281 3584 2069 3584 
Q 2775 3584 3186 3129 
Q 3597 2675 3597 1894 
z
M 3022 2063 
Q 3016 2534 2758 2815 
Q 2500 3097 2075 3097 
Q 1594 3097 1305 2825 
Q 1016 2553 972 2059 
L 3022 2063 
z
" id="DejaVuSans-65" transform="scale(0.015625)"/>
      </defs>
      <use xlink:href="#DejaVuSans-45"/>
      <use x="63.183594" xlink:href="#DejaVuSans-70"/>
      <use x="126.660156" xlink:href="#DejaVuSans-69"/>
      <use x="154.443359" xlink:href="#DejaVuSans-73"/>
      <use x="206.542969" xlink:href="#DejaVuSans-6f"/>
      <use x="267.724609" xlink:href="#DejaVuSans-64"/>
      <use x="331.201172" xlink:href="#DejaVuSans-65"/>
      <use x="392.724609" xlink:href="#DejaVuSans-73"/>
     </g>
    </g>
   </g>
   <g id="matplotlib.axis_2">
    <g id="ytick_1">
     <g id="line2d_7">
      <defs>
       <path d="M 0 0 
L -3.5 0 
" id="m2ab69bff5f" style="stroke:#000000;stroke-width:0.8;"/>
      </defs>
      <g>
       <use style="stroke:#000000;stroke-width:0.8;" x="108" xlink:href="#m2ab69bff5f" y="479.492574"/>
      </g>
     </g>
     <g id="text_8">
      <!-- 0.1 -->
      <g transform="translate(78.735625 484.81148)scale(0.14 -0.14)">
       <defs>
        <path d="M 684 794 
L 1344 794 
L 1344 0 
L 684 0 
L 684 794 
z
" id="DejaVuSans-2e" transform="scale(0.015625)"/>
       </defs>
       <use xlink:href="#DejaVuSans-30"/>
       <use x="63.623047" xlink:href="#DejaVuSans-2e"/>
       <use x="95.410156" xlink:href="#DejaVuSans-31"/>
      </g>
     </g>
    </g>
    <g id="ytick_2">
     <g id="line2d_8">
      <g>
       <use style="stroke:#000000;stroke-width:0.8;" x="108" xlink:href="#m2ab69bff5f" y="427.68415"/>
      </g>
     </g>
     <g id="text_9">
      <!-- 0.2 -->
      <g transform="translate(78.735625 433.003056)scale(0.14 -0.14)">
       <use xlink:href="#DejaVuSans-30"/>
       <use x="63.623047" xlink:href="#DejaVuSans-2e"/>
       <use x="95.410156" xlink:href="#DejaVuSans-32"/>
      </g>
     </g>
    </g>
    <g id="ytick_3">
     <g id="line2d_9">
      <g>
       <use style="stroke:#000000;stroke-width:0.8;" x="108" xlink:href="#m2ab69bff5f" y="375.875726"/>
      </g>
     </g>
     <g id="text_10">
      <!-- 0.3 -->
      <g transform="translate(78.735625 381.194633)scale(0.14 -0.14)">
       <use xlink:href="#DejaVuSans-30"/>
       <use x="63.623047" xlink:href="#DejaVuSans-2e"/>
       <use x="95.410156" xlink:href="#DejaVuSans-33"/>
      </g>
     </g>
    </g>
    <g id="ytick_4">
     <g id="line2d_10">
      <g>
       <use style="stroke:#000000;stroke-width:0.8;" x="108" xlink:href="#m2ab69bff5f" y="324.067303"/>
      </g>
     </g>
     <g id="text_11">
      <!-- 0.4 -->
      <g transform="translate(78.735625 329.386209)scale(0.14 -0.14)">
       <use xlink:href="#DejaVuSans-30"/>
       <use x="63.623047" xlink:href="#DejaVuSans-2e"/>
       <use x="95.410156" xlink:href="#DejaVuSans-34"/>
      </g>
     </g>
    </g>
    <g id="ytick_5">
     <g id="line2d_11">
      <g>
       <use style="stroke:#000000;stroke-width:0.8;" x="108" xlink:href="#m2ab69bff5f" y="272.258879"/>
      </g>
     </g>
     <g id="text_12">
      <!-- 0.5 -->
      <g transform="translate(78.735625 277.577786)scale(0.14 -0.14)">
       <use xlink:href="#DejaVuSans-30"/>
       <use x="63.623047" xlink:href="#DejaVuSans-2e"/>
       <use x="95.410156" xlink:href="#DejaVuSans-35"/>
      </g>
     </g>
    </g>
    <g id="ytick_6">
     <g id="line2d_12">
      <g>
       <use style="stroke:#000000;stroke-width:0.8;" x="108" xlink:href="#m2ab69bff5f" y="220.450456"/>
      </g>
     </g>
     <g id="text_13">
      <!-- 0.6 -->
      <g transform="translate(78.735625 225.769362)scale(0.14 -0.14)">
       <defs>
        <path d="M 2113 2584 
Q 1688 2584 1439 2293 
Q 1191 2003 1191 1497 
Q 1191 994 1439 701 
Q 1688 409 2113 409 
Q 2538 409 2786 701 
Q 3034 994 3034 1497 
Q 3034 2003 2786 2293 
Q 2538 2584 2113 2584 
z
M 3366 4563 
L 3366 3988 
Q 3128 4100 2886 4159 
Q 2644 4219 2406 4219 
Q 1781 4219 1451 3797 
Q 1122 3375 1075 2522 
Q 1259 2794 1537 2939 
Q 1816 3084 2150 3084 
Q 2853 3084 3261 2657 
Q 3669 2231 3669 1497 
Q 3669 778 3244 343 
Q 2819 -91 2113 -91 
Q 1303 -91 875 529 
Q 447 1150 447 2328 
Q 447 3434 972 4092 
Q 1497 4750 2381 4750 
Q 2619 4750 2861 4703 
Q 3103 4656 3366 4563 
z
" id="DejaVuSans-36" transform="scale(0.015625)"/>
       </defs>
       <use xlink:href="#DejaVuSans-30"/>
       <use x="63.623047" xlink:href="#DejaVuSans-2e"/>
       <use x="95.410156" xlink:href="#DejaVuSans-36"/>
      </g>
     </g>
    </g>
    <g id="ytick_7">
     <g id="line2d_13">
      <g>
       <use style="stroke:#000000;stroke-width:0.8;" x="108" xlink:href="#m2ab69bff5f" y="168.642032"/>
      </g>
     </g>
     <g id="text_14">
      <!-- 0.7 -->
      <g transform="translate(78.735625 173.960938)scale(0.14 -0.14)">
       <defs>
        <path d="M 525 4666 
L 3525 4666 
L 3525 4397 
L 1831 0 
L 1172 0 
L 2766 4134 
L 525 4134 
L 525 4666 
z
" id="DejaVuSans-37" transform="scale(0.015625)"/>
       </defs>
       <use xlink:href="#DejaVuSans-30"/>
       <use x="63.623047" xlink:href="#DejaVuSans-2e"/>
       <use x="95.410156" xlink:href="#DejaVuSans-37"/>
      </g>
     </g>
    </g>
    <g id="ytick_8">
     <g id="line2d_14">
      <g>
       <use style="stroke:#000000;stroke-width:0.8;" x="108" xlink:href="#m2ab69bff5f" y="116.833609"/>
      </g>
     </g>
     <g id="text_15">
      <!-- 0.8 -->
      <g transform="translate(78.735625 122.152515)scale(0.14 -0.14)">
       <defs>
        <path d="M 2034 2216 
Q 1584 2216 1326 1975 
Q 1069 1734 1069 1313 
Q 1069 891 1326 650 
Q 1584 409 2034 409 
Q 2484 409 2743 651 
Q 3003 894 3003 1313 
Q 3003 1734 2745 1975 
Q 2488 2216 2034 2216 
z
M 1403 2484 
Q 997 2584 770 2862 
Q 544 3141 544 3541 
Q 544 4100 942 4425 
Q 1341 4750 2034 4750 
Q 2731 4750 3128 4425 
Q 3525 4100 3525 3541 
Q 3525 3141 3298 2862 
Q 3072 2584 2669 2484 
Q 3125 2378 3379 2068 
Q 3634 1759 3634 1313 
Q 3634 634 3220 271 
Q 2806 -91 2034 -91 
Q 1263 -91 848 271 
Q 434 634 434 1313 
Q 434 1759 690 2068 
Q 947 2378 1403 2484 
z
M 1172 3481 
Q 1172 3119 1398 2916 
Q 1625 2713 2034 2713 
Q 2441 2713 2670 2916 
Q 2900 3119 2900 3481 
Q 2900 3844 2670 4047 
Q 2441 4250 2034 4250 
Q 1625 4250 1398 4047 
Q 1172 3844 1172 3481 
z
" id="DejaVuSans-38" transform="scale(0.015625)"/>
       </defs>
       <use xlink:href="#DejaVuSans-30"/>
       <use x="63.623047" xlink:href="#DejaVuSans-2e"/>
       <use x="95.410156" xlink:href="#DejaVuSans-38"/>
      </g>
     </g>
    </g>
    <g id="text_16">
     <!-- State-Value Function -->
     <g transform="translate(71.824062 362.742656)rotate(-90)scale(0.14 -0.14)">
      <defs>
       <path d="M 3425 4513 
L 3425 3897 
Q 3066 4069 2747 4153 
Q 2428 4238 2131 4238 
Q 1616 4238 1336 4038 
Q 1056 3838 1056 3469 
Q 1056 3159 1242 3001 
Q 1428 2844 1947 2747 
L 2328 2669 
Q 3034 2534 3370 2195 
Q 3706 1856 3706 1288 
Q 3706 609 3251 259 
Q 2797 -91 1919 -91 
Q 1588 -91 1214 -16 
Q 841 59 441 206 
L 441 856 
Q 825 641 1194 531 
Q 1563 422 1919 422 
Q 2459 422 2753 634 
Q 3047 847 3047 1241 
Q 3047 1584 2836 1778 
Q 2625 1972 2144 2069 
L 1759 2144 
Q 1053 2284 737 2584 
Q 422 2884 422 3419 
Q 422 4038 858 4394 
Q 1294 4750 2059 4750 
Q 2388 4750 2728 4690 
Q 3069 4631 3425 4513 
z
" id="DejaVuSans-53" transform="scale(0.015625)"/>
       <path d="M 1172 4494 
L 1172 3500 
L 2356 3500 
L 2356 3053 
L 1172 3053 
L 1172 1153 
Q 1172 725 1289 603 
Q 1406 481 1766 481 
L 2356 481 
L 2356 0 
L 1766 0 
Q 1100 0 847 248 
Q 594 497 594 1153 
L 594 3053 
L 172 3053 
L 172 3500 
L 594 3500 
L 594 4494 
L 1172 4494 
z
" id="DejaVuSans-74" transform="scale(0.015625)"/>
       <path d="M 2194 1759 
Q 1497 1759 1228 1600 
Q 959 1441 959 1056 
Q 959 750 1161 570 
Q 1363 391 1709 391 
Q 2188 391 2477 730 
Q 2766 1069 2766 1631 
L 2766 1759 
L 2194 1759 
z
M 3341 1997 
L 3341 0 
L 2766 0 
L 2766 531 
Q 2569 213 2275 61 
Q 1981 -91 1556 -91 
Q 1019 -91 701 211 
Q 384 513 384 1019 
Q 384 1609 779 1909 
Q 1175 2209 1959 2209 
L 2766 2209 
L 2766 2266 
Q 2766 2663 2505 2880 
Q 2244 3097 1772 3097 
Q 1472 3097 1187 3025 
Q 903 2953 641 2809 
L 641 3341 
Q 956 3463 1253 3523 
Q 1550 3584 1831 3584 
Q 2591 3584 2966 3190 
Q 3341 2797 3341 1997 
z
" id="DejaVuSans-61" transform="scale(0.015625)"/>
       <path d="M 313 2009 
L 1997 2009 
L 1997 1497 
L 313 1497 
L 313 2009 
z
" id="DejaVuSans-2d" transform="scale(0.015625)"/>
       <path d="M 1831 0 
L 50 4666 
L 709 4666 
L 2188 738 
L 3669 4666 
L 4325 4666 
L 2547 0 
L 1831 0 
z
" id="DejaVuSans-56" transform="scale(0.015625)"/>
       <path d="M 603 4863 
L 1178 4863 
L 1178 0 
L 603 0 
L 603 4863 
z
" id="DejaVuSans-6c" transform="scale(0.015625)"/>
       <path d="M 544 1381 
L 544 3500 
L 1119 3500 
L 1119 1403 
Q 1119 906 1312 657 
Q 1506 409 1894 409 
Q 2359 409 2629 706 
Q 2900 1003 2900 1516 
L 2900 3500 
L 3475 3500 
L 3475 0 
L 2900 0 
L 2900 538 
Q 2691 219 2414 64 
Q 2138 -91 1772 -91 
Q 1169 -91 856 284 
Q 544 659 544 1381 
z
M 1991 3584 
L 1991 3584 
z
" id="DejaVuSans-75" transform="scale(0.015625)"/>
       <path id="DejaVuSans-20" transform="scale(0.015625)"/>
       <path d="M 628 4666 
L 3309 4666 
L 3309 4134 
L 1259 4134 
L 1259 2759 
L 3109 2759 
L 3109 2228 
L 1259 2228 
L 1259 0 
L 628 0 
L 628 4666 
z
" id="DejaVuSans-46" transform="scale(0.015625)"/>
       <path d="M 3513 2113 
L 3513 0 
L 2938 0 
L 2938 2094 
Q 2938 2591 2744 2837 
Q 2550 3084 2163 3084 
Q 1697 3084 1428 2787 
Q 1159 2491 1159 1978 
L 1159 0 
L 581 0 
L 581 3500 
L 1159 3500 
L 1159 2956 
Q 1366 3272 1645 3428 
Q 1925 3584 2291 3584 
Q 2894 3584 3203 3211 
Q 3513 2838 3513 2113 
z
" id="DejaVuSans-6e" transform="scale(0.015625)"/>
       <path d="M 3122 3366 
L 3122 2828 
Q 2878 2963 2633 3030 
Q 2388 3097 2138 3097 
Q 1578 3097 1268 2742 
Q 959 2388 959 1747 
Q 959 1106 1268 751 
Q 1578 397 2138 397 
Q 2388 397 2633 464 
Q 2878 531 3122 666 
L 3122 134 
Q 2881 22 2623 -34 
Q 2366 -91 2075 -91 
Q 1284 -91 818 406 
Q 353 903 353 1747 
Q 353 2603 823 3093 
Q 1294 3584 2113 3584 
Q 2378 3584 2631 3529 
Q 2884 3475 3122 3366 
z
" id="DejaVuSans-63" transform="scale(0.015625)"/>
      </defs>
      <use xlink:href="#DejaVuSans-53"/>
      <use x="63.476562" xlink:href="#DejaVuSans-74"/>
      <use x="102.685547" xlink:href="#DejaVuSans-61"/>
      <use x="163.964844" xlink:href="#DejaVuSans-74"/>
      <use x="203.173828" xlink:href="#DejaVuSans-65"/>
      <use x="264.697266" xlink:href="#DejaVuSans-2d"/>
      <use x="294.90625" xlink:href="#DejaVuSans-56"/>
      <use x="355.564453" xlink:href="#DejaVuSans-61"/>
      <use x="416.84375" xlink:href="#DejaVuSans-6c"/>
      <use x="444.626953" xlink:href="#DejaVuSans-75"/>
      <use x="508.005859" xlink:href="#DejaVuSans-65"/>
      <use x="569.529297" xlink:href="#DejaVuSans-20"/>
      <use x="601.316406" xlink:href="#DejaVuSans-46"/>
      <use x="653.335938" xlink:href="#DejaVuSans-75"/>
      <use x="716.714844" xlink:href="#DejaVuSans-6e"/>
      <use x="780.09375" xlink:href="#DejaVuSans-63"/>
      <use x="835.074219" xlink:href="#DejaVuSans-74"/>
      <use x="874.283203" xlink:href="#DejaVuSans-69"/>
      <use x="902.066406" xlink:href="#DejaVuSans-6f"/>
      <use x="963.248047" xlink:href="#DejaVuSans-6e"/>
     </g>
    </g>
   </g>
   <g id="line2d_15">
    <path clip-path="url(#pd750831ee4)" d="M 135.392727 492.48 
L 136.490632 486.266678 
L 137.588537 470.419371 
L 138.686442 470.172697 
L 139.784347 461.992591 
L 140.882252 469.81608 
L 141.980157 468.595903 
L 143.078062 464.776854 
L 144.175966 482.063013 
L 145.273871 465.351052 
L 147.469681 470.846526 
L 148.567586 441.133087 
L 149.665491 423.789418 
L 150.763396 455.240873 
L 151.861301 465.565559 
L 152.959206 465.357525 
L 154.057111 471.342241 
L 155.155015 468.588505 
L 156.25292 452.440455 
L 157.350825 446.951386 
L 158.44873 451.275771 
L 159.546635 453.562376 
L 160.64454 454.149037 
L 161.742445 453.183411 
L 163.938255 462.216204 
L 165.03616 467.845201 
L 166.134064 458.809884 
L 167.231969 464.923375 
L 168.329874 449.560471 
L 170.525684 471.67196 
L 171.623589 475.775765 
L 172.721494 468.824725 
L 173.819399 469.904443 
L 174.917304 473.228774 
L 176.015209 466.608039 
L 177.113113 470.556982 
L 178.211018 468.110515 
L 179.308923 468.342003 
L 180.406828 468.350754 
L 181.504733 470.503898 
L 182.602638 472.104449 
L 183.700543 469.66 
L 184.798448 471.961296 
L 185.896353 469.557044 
L 186.994258 467.83684 
L 188.092163 466.713589 
L 189.190067 457.101361 
L 190.287972 453.733493 
L 191.385877 463.839989 
L 192.483782 457.245125 
L 193.581687 463.366176 
L 194.679592 462.478266 
L 195.777497 466.295834 
L 196.875402 468.765079 
L 197.973307 457.448776 
L 199.071212 455.991806 
L 201.267021 442.813356 
L 202.364926 450.767754 
L 204.560736 449.193134 
L 205.658641 453.967453 
L 206.756546 452.544698 
L 207.854451 451.82851 
L 208.952356 441.420354 
L 210.050261 442.250153 
L 211.148165 439.575686 
L 212.24607 445.038375 
L 213.343975 447.78752 
L 214.44188 453.112742 
L 215.539785 450.019516 
L 216.63769 448.344147 
L 217.735595 449.625347 
L 218.8335 449.033041 
L 219.931405 443.863287 
L 221.02931 445.040783 
L 222.127214 443.548378 
L 223.225119 443.339838 
L 224.323024 447.188371 
L 226.518834 448.147073 
L 227.616739 449.768624 
L 228.714644 455.941528 
L 229.812549 456.845973 
L 230.910454 455.354887 
L 232.008359 451.086755 
L 233.106263 454.173678 
L 234.204168 453.35 
L 235.302073 454.350913 
L 236.399978 456.181782 
L 237.497883 458.398895 
L 238.595788 451.424752 
L 239.693693 454.158579 
L 240.791598 453.754119 
L 241.889503 451.338458 
L 242.987408 451.146222 
L 244.085312 448.960256 
L 245.183217 448.565368 
L 246.281122 449.023996 
L 247.379027 444.973879 
L 248.476932 445.217504 
L 249.574837 450.536993 
L 250.672742 448.0904 
L 251.770647 450.080592 
L 252.868552 453.717723 
L 253.966457 450.969305 
L 255.064361 450.987679 
L 257.260171 450.407531 
L 258.358076 451.622061 
L 259.455981 450.196355 
L 260.553886 452.092354 
L 261.651791 453.064658 
L 262.749696 453.867135 
L 263.847601 453.463096 
L 264.945506 454.013166 
L 266.04341 451.397106 
L 267.141315 452.028199 
L 268.23922 452.17109 
L 269.337125 450.831095 
L 270.43503 451.726124 
L 271.532935 454.364331 
L 272.63084 455.438735 
L 273.728745 458.855429 
L 274.82665 458.456762 
L 275.924555 457.644246 
L 277.022459 458.868948 
L 278.120364 457.930729 
L 279.218269 458.486755 
L 280.316174 460.545852 
L 281.414079 459.214492 
L 282.511984 460.174533 
L 283.609889 459.018713 
L 284.707794 460.060212 
L 285.805699 459.75586 
L 286.903604 460.007385 
L 288.001508 459.499036 
L 289.099413 459.930402 
L 290.197318 459.780232 
L 292.393128 458.456133 
L 293.491033 457.128707 
L 294.588938 457.114832 
L 295.686843 456.938133 
L 296.784748 458.135146 
L 297.882653 458.139038 
L 298.980557 456.779145 
L 300.078462 456.150163 
L 301.176367 455.903007 
L 302.274272 457.280645 
L 303.372177 458.069826 
L 304.470082 457.512768 
L 305.567987 455.398428 
L 307.763797 453.983148 
L 308.861702 455.13369 
L 309.959606 455.569807 
L 311.057511 456.61083 
L 312.155416 457.907476 
L 314.351226 456.91959 
L 315.449131 456.858405 
L 316.547036 457.108441 
L 317.644941 456.215912 
L 318.742846 454.917602 
L 319.840751 455.521923 
L 320.938655 455.907048 
L 322.03656 456.80183 
L 323.134465 455.77056 
L 324.23237 454.434983 
L 325.330275 454.512709 
L 326.42818 452.501415 
L 327.526085 452.609027 
L 328.62399 451.686979 
L 329.721895 452.69141 
L 330.8198 452.976705 
L 333.015609 452.61572 
L 334.113514 452.613394 
L 337.407229 453.348816 
L 338.505134 453.774755 
L 339.603039 453.87855 
L 340.700944 454.619274 
L 341.798849 453.764186 
L 342.896754 454.155693 
L 343.994658 454.841829 
L 345.092563 454.221245 
L 346.190468 453.775428 
L 347.288373 454.098733 
L 348.386278 454.53831 
L 349.484183 455.127359 
L 350.582088 455.392905 
L 351.679993 454.94529 
L 352.777898 454.949014 
L 356.071612 455.328559 
L 357.169517 455.783553 
L 358.267422 455.890403 
L 359.365327 455.521621 
L 361.561137 455.525259 
L 362.659042 455.12753 
L 363.756947 455.466941 
L 364.854852 455.247412 
L 365.952756 454.876995 
L 367.050661 454.190826 
L 368.148566 453.000509 
L 369.246471 452.87701 
L 370.344376 453.362656 
L 373.638091 452.667974 
L 374.735996 452.829619 
L 379.127615 452.87788 
L 383.519235 452.168146 
L 384.61714 451.782559 
L 385.715045 451.984077 
L 386.81295 452.044513 
L 387.910854 451.774193 
L 389.008759 452.001384 
L 390.106664 452.023081 
L 392.302474 452.556589 
L 393.400379 452.52664 
L 394.498284 452.832237 
L 396.694094 452.813955 
L 397.791999 453.019638 
L 398.889903 452.904104 
L 399.987808 452.924097 
L 401.085713 452.59208 
L 403.281523 452.331717 
L 405.477333 452.310505 
L 406.575238 452.077517 
L 407.673143 452.364022 
L 409.868952 452.582001 
L 410.966857 452.461838 
L 414.260572 452.769478 
L 415.358477 452.578868 
L 416.456382 452.636454 
L 417.554287 452.520374 
L 419.750097 452.736502 
L 420.848001 452.816166 
L 421.945906 453.013359 
L 423.043811 453.040566 
L 424.141716 453.277944 
L 426.337526 453.439582 
L 427.435431 453.141182 
L 431.82705 453.460133 
L 432.924955 453.291527 
L 434.02286 453.382315 
L 435.120765 453.273625 
L 439.512385 453.535628 
L 440.61029 453.515591 
L 441.708195 453.314887 
L 442.806099 453.512 
L 443.904004 453.893936 
L 445.001909 453.928343 
L 446.099814 453.768344 
L 447.197719 453.795582 
L 449.393529 453.49872 
L 450.491434 453.479531 
L 451.589339 453.639638 
L 452.687244 454.024923 
L 453.785148 454.262232 
L 455.980958 454.391368 
L 457.078863 454.113486 
L 458.176768 454.253634 
L 460.372578 454.268423 
L 462.568388 454.453182 
L 463.666293 454.188603 
L 468.057912 454.071077 
L 470.253722 454.378916 
L 473.547437 454.669705 
L 474.645342 454.298414 
L 475.743246 454.191294 
L 476.841151 454.198572 
L 477.939056 454.33943 
L 479.036961 454.691526 
L 481.232771 454.401059 
L 482.330676 454.432771 
L 483.428581 454.352314 
L 484.526486 454.543096 
L 485.624391 454.538454 
L 487.8202 454.178013 
L 488.918105 454.195826 
L 491.113915 453.830485 
L 492.21182 453.94349 
L 493.309725 454.321755 
L 494.40763 454.511664 
L 496.60344 454.697041 
L 497.701345 454.892673 
L 498.799249 454.839582 
L 500.995059 454.51107 
L 502.092964 454.447773 
L 503.190869 454.550965 
L 504.288774 454.518817 
L 505.386679 454.004407 
L 506.484584 454.296818 
L 507.582489 454.428784 
L 508.680394 454.44128 
L 509.778298 454.112723 
L 510.876203 453.936779 
L 511.974108 453.956574 
L 513.072013 453.561104 
L 515.267823 453.819294 
L 516.365728 454.039101 
L 517.463633 453.909683 
L 518.561538 454.19149 
L 521.855252 453.778363 
L 522.953157 454.018302 
L 524.051062 454.010678 
L 528.442682 454.892596 
L 530.638492 455.130689 
L 532.834301 455.106102 
L 536.128016 454.743226 
L 537.225921 454.644139 
L 540.519636 454.773467 
L 542.715445 454.025366 
L 544.911255 454.338533 
L 546.00916 454.706 
L 547.107065 454.589137 
L 548.20497 454.613871 
L 549.302875 454.756278 
L 550.40078 454.511901 
L 551.498685 454.611351 
L 554.792399 454.489436 
L 555.890304 454.715314 
L 558.086114 454.893645 
L 559.184019 455.211109 
L 561.379829 454.813723 
L 562.477734 454.734135 
L 563.575639 454.780216 
L 564.673543 454.493126 
L 566.869353 454.327998 
L 567.967258 454.184608 
L 571.260973 454.199837 
L 572.358878 454.400131 
L 573.456783 454.717449 
L 574.554688 454.707404 
L 575.652592 454.982937 
L 576.750497 454.650705 
L 578.946307 454.445671 
L 580.044212 454.060814 
L 582.240022 454.669967 
L 584.435832 454.453852 
L 585.533737 454.492043 
L 586.631641 454.080984 
L 587.729546 454.160155 
L 588.827451 453.899453 
L 589.925356 454.210048 
L 591.023261 454.309251 
L 593.219071 453.906509 
L 595.414881 454.571577 
L 596.512786 454.596553 
L 597.61069 454.466447 
L 598.708595 454.670531 
L 602.00231 454.844738 
L 603.100215 455.091233 
L 609.687644 455.705141 
L 611.883454 455.594137 
L 612.981359 455.870311 
L 615.177169 455.198936 
L 617.372979 455.045477 
L 618.470884 454.754845 
L 619.568788 454.712056 
L 620.666693 454.868305 
L 622.862503 454.822962 
L 623.960408 455.205404 
L 626.156218 455.331675 
L 627.254123 455.214115 
L 628.352028 455.333242 
L 629.449933 455.160468 
L 630.547837 455.272769 
L 631.645742 455.583247 
L 632.743647 455.693167 
L 634.939457 456.147532 
L 637.135267 456.327374 
L 638.233172 456.529489 
L 639.331077 456.437042 
L 641.526887 456.698212 
L 642.624791 456.390237 
L 643.722696 456.345714 
L 644.820601 456.157518 
L 648.114316 456.03233 
L 649.212221 455.842724 
L 650.310126 455.880044 
L 652.505936 456.336001 
L 653.60384 456.207078 
L 654.701745 456.282073 
L 657.99546 456.802507 
L 660.19127 456.550999 
L 661.289175 456.68294 
L 662.38708 456.940122 
L 663.484985 456.835769 
L 665.680794 457.071383 
L 666.778699 457.139205 
L 667.876604 457.095282 
L 668.974509 457.448097 
L 670.072414 457.075071 
L 672.268224 457.281613 
L 674.464034 457.511399 
L 677.757748 457.783017 
L 678.855653 457.211465 
L 679.953558 457.264169 
L 681.051463 457.613974 
L 682.149368 457.526853 
L 683.247273 456.924935 
L 683.247273 456.924935 
" style="fill:none;stroke:#1f77b4;stroke-linecap:square;stroke-width:2;"/>
   </g>
   <g id="line2d_16">
    <path clip-path="url(#pd750831ee4)" d="M 135.392727 454.415114 
L 683.247273 454.415114 
L 683.247273 454.415114 
" style="fill:none;stroke:#000000;stroke-dasharray:7.4,3.2;stroke-dashoffset:0;stroke-width:2;"/>
   </g>
   <g id="line2d_17">
    <path clip-path="url(#pd750831ee4)" d="M 135.392727 467.036545 
L 136.490632 438.98611 
L 137.588537 428.376107 
L 138.686442 410.906909 
L 139.784347 417.406386 
L 140.882252 392.324487 
L 141.980157 388.413692 
L 143.078062 378.466427 
L 144.175966 395.812001 
L 145.273871 389.351827 
L 147.469681 394.726143 
L 148.567586 349.95526 
L 149.665491 343.281277 
L 150.763396 375.982514 
L 151.861301 385.361653 
L 152.959206 386.185733 
L 154.057111 389.664765 
L 155.155015 401.892218 
L 156.25292 393.851184 
L 157.350825 399.381696 
L 158.44873 391.740625 
L 159.546635 388.542094 
L 160.64454 382.271038 
L 161.742445 381.459145 
L 162.84035 383.72929 
L 163.938255 389.02399 
L 165.03616 398.861459 
L 166.134064 391.278549 
L 167.231969 394.640542 
L 168.329874 368.493764 
L 169.427779 366.19072 
L 170.525684 383.187254 
L 171.623589 377.73887 
L 172.721494 365.552308 
L 173.819399 367.103268 
L 174.917304 364.944082 
L 176.015209 364.426153 
L 177.113113 365.642733 
L 178.211018 365.845388 
L 179.308923 357.668669 
L 180.406828 370.477414 
L 181.504733 381.792787 
L 182.602638 384.939818 
L 183.700543 381.012978 
L 184.798448 374.062325 
L 185.896353 374.514499 
L 186.994258 372.92204 
L 188.092163 381.562233 
L 189.190067 374.415871 
L 190.287972 372.943865 
L 191.385877 391.084561 
L 192.483782 392.340602 
L 193.581687 400.971714 
L 194.679592 403.130896 
L 195.777497 402.04633 
L 196.875402 395.342077 
L 197.973307 377.616011 
L 199.071212 376.827776 
L 200.169116 363.229906 
L 201.267021 356.929778 
L 202.364926 366.470213 
L 203.462831 364.591768 
L 204.560736 366.701272 
L 205.658641 376.084677 
L 206.756546 374.399256 
L 207.854451 370.389987 
L 208.952356 363.52036 
L 210.050261 369.150074 
L 211.148165 363.821746 
L 212.24607 370.986499 
L 213.343975 371.700406 
L 214.44188 373.287737 
L 215.539785 372.72826 
L 216.63769 368.986485 
L 217.735595 367.430944 
L 218.8335 368.280066 
L 219.931405 363.553631 
L 221.02931 365.286051 
L 222.127214 366.10739 
L 223.225119 366.207892 
L 225.420929 364.267518 
L 226.518834 363.824185 
L 227.616739 361.339734 
L 228.714644 367.593644 
L 229.812549 370.993165 
L 230.910454 369.064715 
L 232.008359 362.847534 
L 233.106263 368.930241 
L 234.204168 370.87979 
L 235.302073 373.710805 
L 236.399978 377.674161 
L 237.497883 380.03609 
L 238.595788 372.277077 
L 239.693693 371.38145 
L 240.791598 373.813014 
L 241.889503 370.262407 
L 242.987408 372.135561 
L 244.085312 373.076496 
L 245.183217 369.510896 
L 246.281122 371.640545 
L 247.379027 367.547706 
L 248.476932 368.551976 
L 249.574837 371.686239 
L 250.672742 369.302113 
L 251.770647 370.103469 
L 252.868552 373.989975 
L 253.966457 371.727048 
L 255.064361 370.856458 
L 256.162266 371.739422 
L 257.260171 371.248421 
L 258.358076 371.532464 
L 259.455981 372.125157 
L 260.553886 373.984722 
L 261.651791 374.780763 
L 262.749696 374.710633 
L 263.847601 375.615792 
L 264.945506 375.928905 
L 266.04341 372.939326 
L 267.141315 370.708227 
L 268.23922 372.422507 
L 269.337125 371.462103 
L 270.43503 372.162045 
L 271.532935 377.062028 
L 272.63084 377.653593 
L 273.728745 382.550664 
L 274.82665 381.393221 
L 275.924555 380.508895 
L 277.022459 382.0888 
L 278.120364 380.352224 
L 279.218269 380.244234 
L 280.316174 383.651281 
L 281.414079 383.423461 
L 282.511984 385.183464 
L 283.609889 382.958971 
L 285.805699 383.102339 
L 286.903604 382.274445 
L 288.001508 381.003863 
L 289.099413 380.075786 
L 290.197318 380.097021 
L 291.295223 380.666725 
L 292.393128 381.062909 
L 294.588938 378.608872 
L 295.686843 379.378211 
L 296.784748 380.864015 
L 297.882653 380.22108 
L 298.980557 378.812388 
L 300.078462 377.107601 
L 301.176367 378.077421 
L 302.274272 379.418598 
L 303.372177 379.221643 
L 304.470082 377.798241 
L 305.567987 375.567003 
L 306.665892 375.260327 
L 307.763797 374.11722 
L 308.861702 375.766385 
L 309.959606 377.07987 
L 311.057511 378.019296 
L 312.155416 378.628436 
L 313.253321 378.084417 
L 314.351226 378.02123 
L 315.449131 378.44794 
L 316.547036 378.363037 
L 317.644941 377.538741 
L 318.742846 376.872437 
L 319.840751 377.801883 
L 320.938655 376.711044 
L 322.03656 377.424303 
L 323.134465 376.868855 
L 324.23237 375.081659 
L 325.330275 374.135882 
L 326.42818 372.631243 
L 327.526085 371.994397 
L 328.62399 370.648809 
L 329.721895 372.039758 
L 330.8198 372.419476 
L 331.917704 371.419481 
L 333.015609 371.712767 
L 336.309324 373.469664 
L 337.407229 373.090772 
L 338.505134 373.448936 
L 339.603039 374.126321 
L 340.700944 374.039691 
L 342.896754 374.060371 
L 343.994658 374.940877 
L 346.190468 373.770647 
L 347.288373 373.895325 
L 349.484183 374.811412 
L 350.582088 375.551665 
L 351.679993 374.921445 
L 352.777898 374.948814 
L 353.875803 375.225682 
L 354.973707 374.979618 
L 356.071612 375.075407 
L 357.169517 376.045116 
L 359.365327 376.613577 
L 364.854852 375.582484 
L 365.952756 374.678418 
L 367.050661 374.314099 
L 368.148566 373.169261 
L 369.246471 372.656791 
L 370.344376 372.972956 
L 373.638091 372.290516 
L 374.735996 372.284382 
L 375.833901 372.540391 
L 376.931805 372.185015 
L 378.02971 371.952889 
L 380.22552 372.322565 
L 381.323425 371.953723 
L 383.519235 371.594303 
L 384.61714 371.083801 
L 385.715045 371.168067 
L 386.81295 371.365352 
L 387.910854 371.31062 
L 389.008759 371.687084 
L 390.106664 371.531779 
L 391.204569 371.740632 
L 392.302474 372.268993 
L 393.400379 372.197233 
L 394.498284 372.498793 
L 395.596189 372.35379 
L 396.694094 372.081644 
L 398.889903 372.280259 
L 399.987808 372.171152 
L 401.085713 371.776588 
L 402.183618 371.620365 
L 403.281523 371.624339 
L 404.379428 371.337632 
L 405.477333 371.368991 
L 406.575238 370.900684 
L 409.868952 371.870642 
L 412.064762 372.06177 
L 414.260572 372.530964 
L 415.358477 371.987619 
L 418.652192 372.518011 
L 420.848001 372.985309 
L 421.945906 373.210114 
L 423.043811 373.173645 
L 424.141716 373.545906 
L 425.239621 373.509103 
L 426.337526 373.655422 
L 427.435431 373.451493 
L 430.729146 373.885833 
L 431.82705 374.139857 
L 435.120765 373.849257 
L 440.61029 372.961917 
L 442.806099 372.8193 
L 445.001909 373.499842 
L 446.099814 373.077386 
L 447.197719 372.894486 
L 448.295624 372.471878 
L 449.393529 372.418036 
L 450.491434 372.71478 
L 451.589339 372.543945 
L 453.785148 373.139841 
L 454.883053 372.874847 
L 457.078863 372.732944 
L 459.274673 372.966411 
L 461.470483 372.790654 
L 462.568388 373.02687 
L 463.666293 372.789626 
L 464.764197 372.900229 
L 466.960007 372.831123 
L 468.057912 372.495999 
L 469.155817 372.366035 
L 471.351627 372.622158 
L 472.449532 372.47971 
L 473.547437 372.645643 
L 474.645342 371.997258 
L 475.743246 371.796619 
L 476.841151 371.999519 
L 477.939056 372.08157 
L 479.036961 372.393179 
L 482.330676 372.067082 
L 483.428581 372.206201 
L 485.624391 372.82023 
L 488.918105 373.014502 
L 490.01601 372.661782 
L 491.113915 372.452435 
L 492.21182 372.879824 
L 493.309725 372.992602 
L 494.40763 372.93216 
L 495.505535 372.63908 
L 496.60344 372.788626 
L 497.701345 373.29445 
L 500.995059 373.161995 
L 502.092964 373.023542 
L 504.288774 373.467167 
L 505.386679 373.044235 
L 507.582489 373.419523 
L 508.680394 373.282398 
L 509.778298 372.86516 
L 510.876203 372.871102 
L 511.974108 372.765331 
L 513.072013 372.547037 
L 515.267823 372.949772 
L 517.463633 372.536694 
L 518.561538 372.609028 
L 519.659443 372.269172 
L 521.855252 371.930231 
L 522.953157 372.148532 
L 524.051062 372.035109 
L 525.148967 372.101753 
L 528.442682 373.054206 
L 529.540587 373.172197 
L 530.638492 373.474029 
L 531.736396 373.334428 
L 532.834301 373.553907 
L 533.932206 373.612764 
L 535.030111 373.380084 
L 536.128016 373.004994 
L 538.323826 373.414376 
L 539.421731 373.170232 
L 540.519636 373.292654 
L 542.715445 372.3687 
L 543.81335 372.774676 
L 544.911255 372.924785 
L 546.00916 373.215821 
L 547.107065 372.992855 
L 549.302875 373.231581 
L 550.40078 373.113321 
L 551.498685 373.231935 
L 552.59659 373.19813 
L 553.694494 372.977333 
L 554.792399 372.935481 
L 556.988209 373.209468 
L 558.086114 373.059296 
L 559.184019 373.544113 
L 560.281924 373.220516 
L 562.477734 373.277954 
L 563.575639 373.309054 
L 564.673543 373.009238 
L 566.869353 372.776193 
L 567.967258 372.605454 
L 570.163068 372.543704 
L 571.260973 372.411497 
L 573.456783 373.212232 
L 574.554688 373.094828 
L 575.652592 373.523135 
L 580.044212 373.079288 
L 581.142117 373.230015 
L 582.240022 373.536606 
L 583.337927 373.284374 
L 584.435832 372.883647 
L 585.533737 372.722503 
L 586.631641 372.362183 
L 587.729546 372.748221 
L 588.827451 372.440656 
L 589.925356 372.673234 
L 591.023261 372.740566 
L 592.121166 372.606978 
L 593.219071 372.291676 
L 595.414881 373.249003 
L 596.512786 373.024765 
L 598.708595 373.243309 
L 600.904405 373.222297 
L 602.00231 372.899597 
L 603.100215 372.94576 
L 604.19812 373.188171 
L 605.296025 372.886685 
L 606.39393 373.153966 
L 607.491835 373.543701 
L 608.589739 373.789575 
L 610.785549 373.574026 
L 611.883454 373.371913 
L 612.981359 373.515496 
L 614.079264 373.360632 
L 616.275074 372.662464 
L 617.372979 372.729212 
L 618.470884 372.34518 
L 619.568788 372.200589 
L 622.862503 372.201166 
L 623.960408 372.299559 
L 625.058313 372.025712 
L 626.156218 372.247654 
L 627.254123 372.302988 
L 628.352028 372.68195 
L 629.449933 372.470188 
L 630.547837 372.911706 
L 632.743647 373.924754 
L 633.841552 374.266342 
L 634.939457 374.380475 
L 636.037362 374.253395 
L 637.135267 374.775545 
L 638.233172 375.024797 
L 639.331077 374.875284 
L 641.526887 375.052888 
L 642.624791 374.471817 
L 643.722696 374.553519 
L 644.820601 374.24596 
L 648.114316 374.312121 
L 649.212221 374.024565 
L 650.310126 374.267004 
L 651.408031 374.711159 
L 652.505936 374.709422 
L 653.60384 374.359065 
L 654.701745 374.237408 
L 655.79965 374.3065 
L 656.897555 374.636704 
L 659.093365 374.707992 
L 660.19127 374.695601 
L 662.38708 374.992237 
L 663.484985 374.879005 
L 664.582889 375.102217 
L 665.680794 375.051155 
L 667.876604 375.167961 
L 668.974509 375.831334 
L 670.072414 375.460616 
L 671.170319 375.481528 
L 673.366129 376.026488 
L 674.464034 376.070021 
L 675.561938 376.339393 
L 676.659843 376.110009 
L 677.757748 376.358302 
L 678.855653 375.695409 
L 679.953558 375.53015 
L 681.051463 376.060854 
L 683.247273 375.770372 
L 683.247273 375.770372 
" style="fill:none;stroke:#ff7f0e;stroke-linecap:square;stroke-width:2;"/>
   </g>
   <g id="line2d_18">
    <path clip-path="url(#pd750831ee4)" d="M 135.392727 375.510125 
L 683.247273 375.510125 
L 683.247273 375.510125 
" style="fill:none;stroke:#000000;stroke-dasharray:7.4,3.2;stroke-dashoffset:0;stroke-width:2;"/>
   </g>
   <g id="line2d_19">
    <path clip-path="url(#pd750831ee4)" d="M 135.392727 450.58112 
L 136.490632 400.759784 
L 137.588537 378.596238 
L 138.686442 332.298679 
L 139.784347 342.646656 
L 140.882252 332.970186 
L 141.980157 318.779559 
L 144.175966 306.928341 
L 145.273871 293.765014 
L 146.371776 315.385829 
L 148.567586 283.78698 
L 149.665491 265.580529 
L 150.763396 273.867508 
L 151.861301 287.909551 
L 152.959206 289.112445 
L 154.057111 295.059576 
L 155.155015 292.203654 
L 156.25292 299.796635 
L 157.350825 306.339058 
L 158.44873 307.510694 
L 159.546635 316.626856 
L 160.64454 309.332654 
L 161.742445 300.686516 
L 162.84035 301.635824 
L 163.938255 305.584411 
L 165.03616 318.43072 
L 166.134064 313.153176 
L 167.231969 315.784936 
L 168.329874 298.046544 
L 169.427779 299.484083 
L 170.525684 316.063034 
L 171.623589 310.659357 
L 172.721494 300.797546 
L 173.819399 287.820105 
L 174.917304 290.321788 
L 176.015209 290.831269 
L 177.113113 284.901424 
L 178.211018 285.429028 
L 179.308923 280.637008 
L 180.406828 291.950339 
L 181.504733 293.860824 
L 182.602638 299.627763 
L 183.700543 299.062568 
L 184.798448 290.408644 
L 185.896353 293.420341 
L 186.994258 289.300458 
L 188.092163 293.304928 
L 189.190067 285.893663 
L 190.287972 284.714237 
L 191.385877 292.730263 
L 192.483782 292.673575 
L 193.581687 303.505861 
L 194.679592 304.835992 
L 195.777497 303.308158 
L 196.875402 293.758831 
L 197.973307 286.500965 
L 199.071212 284.799932 
L 200.169116 277.230916 
L 201.267021 267.100265 
L 202.364926 275.248624 
L 203.462831 275.329424 
L 204.560736 279.031729 
L 205.658641 288.770464 
L 206.756546 291.380873 
L 207.854451 286.149677 
L 208.952356 281.839008 
L 210.050261 290.516877 
L 211.148165 284.774008 
L 212.24607 286.384365 
L 213.343975 288.849065 
L 214.44188 290.963441 
L 215.539785 294.686138 
L 216.63769 292.047057 
L 217.735595 287.367386 
L 218.8335 290.687989 
L 219.931405 287.283821 
L 222.127214 287.875229 
L 223.225119 287.921481 
L 224.323024 286.090521 
L 225.420929 284.831859 
L 226.518834 285.319994 
L 227.616739 280.471964 
L 228.714644 288.077093 
L 229.812549 290.221536 
L 230.910454 290.952354 
L 232.008359 285.375081 
L 233.106263 288.589221 
L 234.204168 290.34093 
L 236.399978 294.24571 
L 237.497883 296.050506 
L 238.595788 287.389214 
L 239.693693 284.131765 
L 240.791598 286.704043 
L 241.889503 285.677978 
L 242.987408 288.826212 
L 244.085312 288.722353 
L 245.183217 285.964418 
L 246.281122 286.916161 
L 247.379027 280.839528 
L 248.476932 282.164832 
L 249.574837 286.598248 
L 250.672742 285.782977 
L 251.770647 285.981428 
L 252.868552 291.62995 
L 253.966457 291.479705 
L 255.064361 291.898247 
L 256.162266 293.382143 
L 257.260171 292.713169 
L 258.358076 291.705143 
L 259.455981 291.384117 
L 260.553886 292.893625 
L 261.651791 293.580205 
L 262.749696 293.817799 
L 263.847601 293.580673 
L 264.945506 293.643906 
L 266.04341 291.433168 
L 267.141315 290.884059 
L 268.23922 292.392579 
L 269.337125 289.917061 
L 270.43503 290.402214 
L 271.532935 295.476343 
L 272.63084 296.683502 
L 273.728745 301.214287 
L 274.82665 300.92341 
L 275.924555 298.043644 
L 277.022459 298.501001 
L 278.120364 295.184666 
L 279.218269 295.278449 
L 280.316174 298.767193 
L 281.414079 299.380112 
L 282.511984 300.803101 
L 283.609889 298.746365 
L 284.707794 298.056934 
L 285.805699 298.473473 
L 286.903604 297.549232 
L 288.001508 297.139181 
L 289.099413 295.434123 
L 290.197318 294.371068 
L 291.295223 296.487663 
L 292.393128 294.314408 
L 293.491033 293.590004 
L 294.588938 293.192581 
L 295.686843 293.192619 
L 296.784748 294.059496 
L 297.882653 294.069166 
L 298.980557 293.401267 
L 300.078462 291.320771 
L 301.176367 291.848549 
L 302.274272 292.217536 
L 303.372177 291.743078 
L 305.567987 287.96807 
L 307.763797 286.958857 
L 308.861702 288.456744 
L 312.155416 292.406759 
L 313.253321 293.046494 
L 314.351226 294.420923 
L 316.547036 296.642525 
L 317.644941 296.786394 
L 318.742846 295.841555 
L 319.840751 296.112061 
L 320.938655 295.610663 
L 322.03656 296.860525 
L 323.134465 296.75738 
L 325.330275 293.577353 
L 326.42818 291.630573 
L 327.526085 291.001092 
L 328.62399 290.765117 
L 329.721895 291.796294 
L 330.8198 292.212087 
L 331.917704 291.225002 
L 333.015609 292.032706 
L 334.113514 293.60305 
L 335.211419 293.803536 
L 336.309324 293.796632 
L 337.407229 293.150837 
L 338.505134 292.961241 
L 339.603039 293.451426 
L 341.798849 293.138471 
L 342.896754 293.596587 
L 343.994658 294.513629 
L 345.092563 293.431645 
L 346.190468 293.275021 
L 347.288373 292.850958 
L 348.386278 293.365832 
L 349.484183 292.91498 
L 350.582088 293.755629 
L 351.679993 293.043342 
L 352.777898 293.178365 
L 353.875803 293.182973 
L 354.973707 292.571739 
L 356.071612 292.889369 
L 357.169517 294.04339 
L 358.267422 294.538133 
L 360.463232 294.589892 
L 361.561137 294.472197 
L 362.659042 294.187488 
L 367.050661 292.249348 
L 368.148566 291.381829 
L 369.246471 290.980918 
L 371.442281 291.375136 
L 372.540186 291.304554 
L 374.735996 291.383282 
L 375.833901 291.871687 
L 376.931805 291.360554 
L 378.02971 291.04864 
L 379.127615 290.929854 
L 380.22552 291.047963 
L 382.42133 289.891776 
L 383.519235 290.075393 
L 384.61714 289.740212 
L 385.715045 289.825445 
L 386.81295 290.233117 
L 387.910854 290.301875 
L 389.008759 290.875127 
L 390.106664 290.629176 
L 391.204569 290.753927 
L 392.302474 291.063395 
L 393.400379 291.017161 
L 394.498284 291.387959 
L 395.596189 291.371697 
L 396.694094 290.925383 
L 397.791999 290.936267 
L 398.889903 291.298758 
L 399.987808 291.339782 
L 403.281523 291.082272 
L 404.379428 290.687862 
L 405.477333 290.741992 
L 406.575238 290.165399 
L 407.673143 290.287662 
L 409.868952 291.033488 
L 413.162667 291.370767 
L 414.260572 291.598348 
L 415.358477 291.344617 
L 416.456382 291.401943 
L 419.750097 292.089415 
L 420.848001 292.095022 
L 421.945906 292.365259 
L 423.043811 292.200293 
L 424.141716 292.863286 
L 426.337526 292.91725 
L 427.435431 292.731699 
L 428.533336 292.975542 
L 429.631241 293.000052 
L 430.729146 293.14867 
L 431.82705 293.443359 
L 434.02286 293.130979 
L 436.21867 293.305531 
L 438.41448 292.956621 
L 439.512385 292.979641 
L 440.61029 292.79863 
L 442.806099 292.820405 
L 445.001909 293.254626 
L 446.099814 292.795911 
L 447.197719 292.500073 
L 448.295624 292.076339 
L 449.393529 292.066493 
L 450.491434 292.295867 
L 451.589339 292.215471 
L 453.785148 292.610559 
L 454.883053 292.524758 
L 455.980958 292.087257 
L 459.274673 291.865288 
L 460.372578 292.120179 
L 461.470483 292.125874 
L 462.568388 292.320006 
L 463.666293 292.167245 
L 464.764197 292.399624 
L 466.960007 292.352918 
L 468.057912 291.91302 
L 472.449532 291.259937 
L 473.547437 291.674784 
L 474.645342 290.881664 
L 475.743246 290.800396 
L 476.841151 290.931616 
L 477.939056 290.874706 
L 479.036961 291.253739 
L 480.134866 291.270711 
L 481.232771 290.936732 
L 482.330676 290.760612 
L 483.428581 290.700742 
L 484.526486 290.971639 
L 485.624391 290.983719 
L 486.722296 291.206199 
L 487.8202 291.16321 
L 488.918105 291.329069 
L 490.01601 290.895695 
L 491.113915 290.894251 
L 492.21182 291.411776 
L 494.40763 291.450919 
L 495.505535 291.300713 
L 496.60344 291.572515 
L 497.701345 292.136232 
L 499.897154 292.132084 
L 502.092964 291.66157 
L 504.288774 291.690003 
L 505.386679 291.294232 
L 506.484584 291.286341 
L 507.582489 291.428179 
L 508.680394 291.455598 
L 509.778298 291.165242 
L 511.974108 291.070659 
L 513.072013 290.881203 
L 514.169918 291.232032 
L 515.267823 291.397492 
L 516.365728 290.938615 
L 518.561538 290.682751 
L 519.659443 290.253424 
L 520.757347 290.46534 
L 522.953157 290.598512 
L 524.051062 290.530666 
L 525.148967 290.323529 
L 528.442682 291.449847 
L 529.540587 291.221744 
L 530.638492 291.523932 
L 531.736396 291.274119 
L 532.834301 291.685638 
L 533.932206 291.379732 
L 535.030111 291.30682 
L 536.128016 290.882338 
L 537.225921 291.007472 
L 538.323826 291.306399 
L 539.421731 291.31387 
L 540.519636 291.16547 
L 541.617541 290.655659 
L 542.715445 290.411159 
L 543.81335 290.81495 
L 544.911255 290.573646 
L 546.00916 290.740068 
L 547.107065 290.467831 
L 550.40078 290.919262 
L 551.498685 291.261166 
L 552.59659 291.043325 
L 553.694494 290.475003 
L 554.792399 290.571078 
L 555.890304 290.502336 
L 556.988209 290.562579 
L 558.086114 290.467984 
L 559.184019 290.853609 
L 560.281924 290.721937 
L 561.379829 290.408693 
L 562.477734 290.657896 
L 563.575639 290.400793 
L 564.673543 289.83879 
L 566.869353 289.958277 
L 567.967258 289.734938 
L 569.065163 290.009893 
L 570.163068 290.056915 
L 571.260973 289.872016 
L 572.358878 290.186707 
L 574.554688 290.529128 
L 575.652592 290.840837 
L 578.946307 290.903638 
L 580.044212 290.83925 
L 582.240022 291.360775 
L 583.337927 291.427653 
L 584.435832 290.919717 
L 585.533737 290.725168 
L 586.631641 290.407143 
L 587.729546 290.844982 
L 588.827451 290.739973 
L 589.925356 291.280559 
L 591.023261 291.523465 
L 592.121166 291.447161 
L 593.219071 290.951333 
L 594.316976 291.327319 
L 595.414881 291.543134 
L 597.61069 291.617268 
L 599.8065 291.966834 
L 602.00231 291.513205 
L 603.100215 291.659866 
L 604.19812 291.930521 
L 605.296025 291.402858 
L 607.491835 292.289495 
L 608.589739 292.569083 
L 609.687644 292.470473 
L 610.785549 292.185929 
L 611.883454 292.077399 
L 612.981359 292.10131 
L 614.079264 291.977289 
L 615.177169 291.724243 
L 616.275074 291.176391 
L 617.372979 291.114928 
L 618.470884 290.721879 
L 620.666693 290.475543 
L 621.764598 290.518759 
L 625.058313 289.932914 
L 626.156218 290.344509 
L 627.254123 290.472461 
L 628.352028 290.76144 
L 629.449933 290.717419 
L 630.547837 291.033123 
L 631.645742 291.83172 
L 633.841552 292.28454 
L 636.037362 292.159649 
L 637.135267 292.844273 
L 638.233172 293.029074 
L 639.331077 292.701677 
L 641.526887 292.825726 
L 642.624791 292.552287 
L 643.722696 292.710985 
L 644.820601 292.439255 
L 645.918506 292.72293 
L 647.016411 292.735347 
L 648.114316 292.527483 
L 649.212221 292.147703 
L 650.310126 292.353807 
L 651.408031 292.804645 
L 652.505936 292.455256 
L 653.60384 291.957728 
L 655.79965 292.161144 
L 656.897555 292.729749 
L 657.99546 292.808103 
L 659.093365 292.63668 
L 660.19127 292.350677 
L 661.289175 292.307684 
L 662.38708 292.504341 
L 663.484985 292.194367 
L 664.582889 292.499449 
L 666.778699 292.724614 
L 667.876604 292.895266 
L 668.974509 293.487047 
L 670.072414 293.068854 
L 671.170319 292.78661 
L 672.268224 293.310569 
L 675.561938 293.844603 
L 676.659843 293.656515 
L 677.757748 293.931719 
L 678.855653 293.216941 
L 679.953558 293.047657 
L 681.051463 293.393621 
L 682.149368 293.247888 
L 683.247273 292.915558 
L 683.247273 292.915558 
" style="fill:none;stroke:#2ca02c;stroke-linecap:square;stroke-width:2;"/>
   </g>
   <g id="line2d_20">
    <path clip-path="url(#pd750831ee4)" d="M 135.392727 293.457845 
L 683.247273 293.457845 
L 683.247273 293.457845 
" style="fill:none;stroke:#000000;stroke-dasharray:7.4,3.2;stroke-dashoffset:0;stroke-width:2;"/>
   </g>
   <g id="line2d_21">
    <path clip-path="url(#pd750831ee4)" d="M 135.392727 414.209904 
L 136.490632 360.2713 
L 137.588537 331.380952 
L 138.686442 274.232075 
L 139.784347 282.414503 
L 140.882252 265.832809 
L 141.980157 262.28693 
L 143.078062 254.460418 
L 144.175966 227.981001 
L 145.273871 226.277295 
L 146.371776 236.40232 
L 147.469681 229.413932 
L 148.567586 228.637475 
L 149.665491 198.806442 
L 150.763396 187.402348 
L 151.861301 212.325704 
L 152.959206 210.710125 
L 154.057111 193.694043 
L 155.155015 209.510463 
L 156.25292 223.058737 
L 157.350825 226.08106 
L 158.44873 239.775485 
L 159.546635 228.675995 
L 160.64454 213.561323 
L 161.742445 218.28792 
L 162.84035 208.529433 
L 163.938255 219.982179 
L 165.03616 229.465537 
L 166.134064 232.121632 
L 167.231969 240.655287 
L 168.329874 224.549261 
L 169.427779 223.188101 
L 170.525684 238.662456 
L 171.623589 231.901 
L 173.819399 214.978416 
L 174.917304 207.25929 
L 176.015209 202.374077 
L 178.211018 211.789695 
L 179.308923 209.479003 
L 180.406828 219.018964 
L 181.504733 210.240242 
L 182.602638 211.630705 
L 183.700543 220.424436 
L 184.798448 206.264872 
L 185.896353 210.396874 
L 186.994258 204.028358 
L 188.092163 207.743568 
L 189.190067 205.133237 
L 190.287972 204.728953 
L 191.385877 215.405358 
L 192.483782 209.318193 
L 193.581687 216.68002 
L 194.679592 218.709303 
L 195.777497 216.228821 
L 196.875402 204.62106 
L 197.973307 196.859642 
L 199.071212 193.733742 
L 200.169116 179.158744 
L 201.267021 174.332777 
L 202.364926 187.207919 
L 204.560736 202.180556 
L 205.658641 215.187837 
L 206.756546 218.111245 
L 207.854451 214.014239 
L 208.952356 205.268438 
L 210.050261 213.628295 
L 211.148165 206.323107 
L 212.24607 205.553017 
L 213.343975 206.45162 
L 214.44188 209.394864 
L 215.539785 207.47567 
L 216.63769 209.324998 
L 217.735595 204.608779 
L 218.8335 206.499818 
L 219.931405 203.735892 
L 221.02931 205.438068 
L 222.127214 207.563412 
L 223.225119 207.082585 
L 224.323024 204.599417 
L 225.420929 203.452122 
L 226.518834 204.372273 
L 227.616739 197.376844 
L 228.714644 204.081766 
L 229.812549 207.957007 
L 230.910454 208.693506 
L 232.008359 203.896194 
L 235.302073 210.499078 
L 236.399978 212.611389 
L 237.497883 213.958449 
L 238.595788 203.500852 
L 239.693693 201.133852 
L 240.791598 203.073923 
L 242.987408 205.805539 
L 244.085312 205.762409 
L 245.183217 201.906154 
L 246.281122 203.652717 
L 247.379027 199.127326 
L 249.574837 204.467359 
L 250.672742 205.177977 
L 251.770647 203.594814 
L 252.868552 208.677442 
L 253.966457 206.770072 
L 255.064361 207.248549 
L 256.162266 209.050749 
L 257.260171 208.329853 
L 258.358076 209.5694 
L 259.455981 209.358066 
L 261.651791 211.258936 
L 262.749696 211.581568 
L 263.847601 211.32913 
L 264.945506 210.4766 
L 266.04341 206.302135 
L 267.141315 207.299028 
L 268.23922 207.092486 
L 269.337125 204.771482 
L 270.43503 205.466585 
L 271.532935 209.64097 
L 272.63084 210.0332 
L 273.728745 214.859477 
L 274.82665 215.307019 
L 275.924555 212.106118 
L 277.022459 211.760707 
L 278.120364 208.837625 
L 279.218269 207.867246 
L 280.316174 211.607466 
L 281.414079 212.661053 
L 282.511984 213.922161 
L 283.609889 212.504617 
L 284.707794 211.464741 
L 285.805699 212.560639 
L 286.903604 211.120175 
L 288.001508 210.12639 
L 289.099413 208.051909 
L 291.295223 211.031148 
L 292.393128 209.993173 
L 293.491033 210.219031 
L 294.588938 208.846267 
L 295.686843 207.87789 
L 296.784748 207.732875 
L 297.882653 207.346105 
L 298.980557 206.309285 
L 300.078462 204.408115 
L 301.176367 203.892384 
L 302.274272 204.102248 
L 303.372177 203.598799 
L 304.470082 202.13323 
L 305.567987 200.479366 
L 306.665892 199.917255 
L 307.763797 200.734344 
L 308.861702 201.935427 
L 311.057511 203.880562 
L 312.155416 206.94534 
L 313.253321 207.94779 
L 315.449131 211.828489 
L 316.547036 212.280619 
L 317.644941 212.975807 
L 318.742846 212.431251 
L 319.840751 213.267998 
L 320.938655 212.86575 
L 322.03656 214.730355 
L 323.134465 214.605282 
L 324.23237 213.032249 
L 325.330275 211.755457 
L 326.42818 209.676739 
L 327.526085 208.940192 
L 328.62399 208.509061 
L 329.721895 209.590031 
L 330.8198 210.002774 
L 331.917704 208.877133 
L 333.015609 209.14097 
L 334.113514 211.074896 
L 335.211419 210.854985 
L 336.309324 210.422743 
L 337.407229 209.836306 
L 338.505134 209.79537 
L 339.603039 210.168789 
L 340.700944 210.325001 
L 341.798849 209.675461 
L 342.896754 209.79188 
L 343.994658 211.23802 
L 345.092563 210.948592 
L 347.288373 210.638117 
L 348.386278 211.428932 
L 349.484183 210.608666 
L 350.582088 211.165542 
L 351.679993 210.187246 
L 352.777898 210.912208 
L 353.875803 210.415256 
L 354.973707 210.082942 
L 356.071612 210.687198 
L 357.169517 210.72216 
L 358.267422 211.26315 
L 359.365327 211.339474 
L 360.463232 211.286337 
L 361.561137 210.337725 
L 364.854852 210.217495 
L 367.050661 209.114396 
L 368.148566 208.886786 
L 369.246471 208.543566 
L 370.344376 208.756163 
L 371.442281 208.425267 
L 372.540186 208.277401 
L 373.638091 208.669436 
L 374.735996 208.283234 
L 375.833901 208.696076 
L 378.02971 208.010799 
L 379.127615 207.453955 
L 380.22552 207.502195 
L 381.323425 206.907126 
L 382.42133 206.553441 
L 383.519235 206.739469 
L 384.61714 206.654026 
L 387.910854 207.120666 
L 389.008759 208.050421 
L 391.204569 207.536813 
L 392.302474 207.741714 
L 393.400379 207.623649 
L 394.498284 207.919042 
L 395.596189 207.873185 
L 396.694094 207.452065 
L 397.791999 207.456817 
L 399.987808 207.611055 
L 401.085713 207.688695 
L 402.183618 207.319736 
L 403.281523 207.148254 
L 404.379428 206.850185 
L 405.477333 206.733457 
L 406.575238 206.158616 
L 409.868952 206.30737 
L 410.966857 206.471281 
L 412.064762 206.508418 
L 415.358477 206.000773 
L 416.456382 206.149096 
L 417.554287 206.156227 
L 418.652192 206.021371 
L 419.750097 206.210991 
L 420.848001 206.227324 
L 421.945906 206.560625 
L 423.043811 206.27179 
L 424.141716 206.978619 
L 425.239621 206.965369 
L 426.337526 207.109486 
L 427.435431 207.074752 
L 428.533336 207.315316 
L 432.924955 207.581479 
L 434.02286 207.278399 
L 435.120765 207.430419 
L 439.512385 207.439481 
L 440.61029 207.166069 
L 442.806099 207.42351 
L 443.904004 207.376928 
L 445.001909 207.217204 
L 447.197719 206.470716 
L 448.295624 206.460647 
L 449.393529 206.327688 
L 450.491434 206.512953 
L 451.589339 206.479715 
L 453.785148 206.690722 
L 454.883053 206.494636 
L 455.980958 206.01147 
L 458.176768 205.970013 
L 459.274673 206.144945 
L 460.372578 206.491647 
L 461.470483 206.55344 
L 462.568388 206.854895 
L 463.666293 206.578823 
L 464.764197 206.982307 
L 465.862102 207.148419 
L 466.960007 207.015375 
L 468.057912 206.671448 
L 469.155817 206.791776 
L 470.253722 206.51091 
L 471.351627 206.488313 
L 472.449532 206.177569 
L 473.547437 206.304276 
L 474.645342 205.778975 
L 475.743246 205.665711 
L 476.841151 205.902148 
L 477.939056 205.925748 
L 479.036961 206.113991 
L 482.330676 205.662011 
L 486.722296 206.099909 
L 487.8202 206.060268 
L 488.918105 206.241938 
L 490.01601 205.926654 
L 491.113915 205.72739 
L 492.21182 206.285489 
L 495.505535 206.209494 
L 496.60344 206.326855 
L 497.701345 206.85326 
L 498.799249 206.663672 
L 499.897154 206.738924 
L 502.092964 206.092709 
L 504.288774 206.27476 
L 505.386679 205.889811 
L 509.778298 205.674217 
L 510.876203 205.712037 
L 511.974108 205.459958 
L 513.072013 205.419988 
L 514.169918 205.565512 
L 515.267823 205.521289 
L 516.365728 205.350395 
L 517.463633 205.294803 
L 518.561538 204.728268 
L 519.659443 204.344958 
L 520.757347 204.89657 
L 521.855252 204.536233 
L 522.953157 204.646415 
L 525.148967 204.532096 
L 526.246872 204.83941 
L 527.344777 204.974271 
L 528.442682 205.294797 
L 529.540587 205.091954 
L 530.638492 205.252952 
L 531.736396 205.116964 
L 532.834301 205.621954 
L 533.932206 205.667366 
L 536.128016 205.387895 
L 539.421731 205.702891 
L 540.519636 205.760769 
L 542.715445 205.245339 
L 543.81335 205.3127 
L 544.911255 204.945185 
L 546.00916 205.186448 
L 547.107065 204.927381 
L 548.20497 205.119144 
L 549.302875 205.038558 
L 550.40078 205.209701 
L 551.498685 205.209849 
L 553.694494 204.638754 
L 554.792399 204.721689 
L 556.988209 204.375449 
L 559.184019 204.953387 
L 560.281924 204.879144 
L 561.379829 204.482128 
L 562.477734 204.593331 
L 563.575639 204.305017 
L 564.673543 203.877321 
L 565.771448 203.780996 
L 567.967258 203.753031 
L 569.065163 204.246807 
L 571.260973 204.051883 
L 572.358878 204.420768 
L 573.456783 204.618495 
L 575.652592 205.391491 
L 576.750497 205.434549 
L 577.848402 205.333571 
L 578.946307 205.462503 
L 580.044212 205.068621 
L 582.240022 205.782398 
L 583.337927 205.637632 
L 585.533737 205.017866 
L 586.631641 204.869748 
L 587.729546 205.183375 
L 588.827451 205.136928 
L 589.925356 205.695873 
L 591.023261 205.875559 
L 592.121166 205.8976 
L 593.219071 205.43645 
L 595.414881 205.860459 
L 597.61069 205.792316 
L 598.708595 205.922403 
L 599.8065 206.181895 
L 600.904405 205.855656 
L 602.00231 205.680091 
L 603.100215 205.63792 
L 604.19812 205.862133 
L 605.296025 205.241578 
L 607.491835 205.858059 
L 608.589739 206.138747 
L 609.687644 205.800455 
L 610.785549 205.883048 
L 612.981359 205.730868 
L 614.079264 205.844049 
L 616.275074 205.116415 
L 617.372979 205.061841 
L 618.470884 204.693242 
L 619.568788 204.492141 
L 621.764598 204.567673 
L 622.862503 204.586604 
L 625.058313 204.140056 
L 626.156218 204.578839 
L 628.352028 204.870246 
L 629.449933 204.623216 
L 630.547837 204.996946 
L 631.645742 205.629181 
L 632.743647 205.946143 
L 633.841552 206.08363 
L 634.939457 205.711639 
L 636.037362 205.720857 
L 637.135267 206.303926 
L 638.233172 206.452893 
L 639.331077 206.2734 
L 641.526887 206.318919 
L 642.624791 205.911381 
L 643.722696 206.050789 
L 644.820601 205.669003 
L 647.016411 206.146833 
L 648.114316 206.185231 
L 649.212221 206.084583 
L 650.310126 206.152403 
L 651.408031 206.499769 
L 652.505936 206.234598 
L 653.60384 205.702048 
L 655.79965 205.828649 
L 656.897555 206.350034 
L 657.99546 206.564901 
L 659.093365 206.523064 
L 660.19127 206.310168 
L 662.38708 206.517777 
L 663.484985 206.090121 
L 664.582889 206.369273 
L 665.680794 206.293169 
L 668.974509 207.278019 
L 670.072414 206.780032 
L 671.170319 206.677452 
L 673.366129 207.05521 
L 674.464034 206.923841 
L 677.757748 207.727957 
L 678.855653 207.179216 
L 679.953558 206.891973 
L 681.051463 207.314027 
L 682.149368 207.228031 
L 683.247273 206.935037 
L 683.247273 206.935037 
" style="fill:none;stroke:#d62728;stroke-linecap:square;stroke-width:2;"/>
   </g>
   <g id="line2d_22">
    <path clip-path="url(#pd750831ee4)" d="M 135.392727 205.66894 
L 683.247273 205.66894 
L 683.247273 205.66894 
" style="fill:none;stroke:#000000;stroke-dasharray:7.4,3.2;stroke-dashoffset:0;stroke-width:2;"/>
   </g>
   <g id="line2d_23">
    <path clip-path="url(#pd750831ee4)" d="M 135.392727 373.88694 
L 136.490632 317.920632 
L 137.588537 269.535756 
L 138.686442 207.391834 
L 139.784347 202.283387 
L 140.882252 187.653229 
L 141.980157 150.983137 
L 143.078062 158.407879 
L 144.175966 157.812874 
L 145.273871 154.585855 
L 146.371776 148.434759 
L 147.469681 154.326629 
L 148.567586 153.218917 
L 149.665491 120.951801 
L 150.763396 120.787578 
L 151.861301 125.956654 
L 152.959206 125.843018 
L 154.057111 129.797474 
L 155.155015 130.583178 
L 156.25292 134.168812 
L 157.350825 136.323626 
L 158.44873 123.701329 
L 159.546635 120.496418 
L 160.64454 126.523613 
L 161.742445 130.087087 
L 162.84035 126.490145 
L 163.938255 132.920136 
L 165.03616 127.568418 
L 166.134064 135.628781 
L 167.231969 132.287087 
L 168.329874 125.837968 
L 169.427779 128.304777 
L 170.525684 149.961678 
L 171.623589 144.831342 
L 172.721494 134.162267 
L 173.819399 119.603117 
L 174.917304 113.077709 
L 176.015209 111.295111 
L 177.113113 114.977326 
L 178.211018 122.180427 
L 179.308923 126.351902 
L 180.406828 126.273175 
L 181.504733 113.906641 
L 182.602638 108.446924 
L 183.700543 114.266281 
L 184.798448 110.099008 
L 185.896353 112.576006 
L 186.994258 107.261562 
L 188.092163 110.607117 
L 189.190067 104.388557 
L 190.287972 111.836581 
L 191.385877 118.153325 
L 192.483782 113.567831 
L 193.581687 115.994293 
L 194.679592 123.598081 
L 195.777497 118.498353 
L 196.875402 111.432832 
L 197.973307 111.507971 
L 199.071212 104.052308 
L 200.169116 98.06 
L 201.267021 89.28 
L 202.364926 92.632535 
L 203.462831 105.933265 
L 204.560736 111.362 
L 205.658641 120.296591 
L 206.756546 120.737396 
L 207.854451 115.40998 
L 208.952356 112.817956 
L 210.050261 118.452737 
L 211.148165 114.715516 
L 212.24607 111.550417 
L 213.343975 107.695845 
L 215.539785 113.036175 
L 216.63769 114.999864 
L 218.8335 109.641896 
L 219.931405 115.007478 
L 221.02931 121.751889 
L 222.127214 120.464709 
L 223.225119 117.796524 
L 224.323024 113.996634 
L 226.518834 109.153397 
L 227.616739 107.242384 
L 228.714644 108.902837 
L 229.812549 116.283018 
L 230.910454 117.807573 
L 232.008359 114.524487 
L 233.106263 116.90322 
L 234.204168 116.291894 
L 235.302073 119.876146 
L 236.399978 121.56626 
L 237.497883 124.475513 
L 238.595788 116.693276 
L 239.693693 113.322366 
L 240.791598 111.233155 
L 241.889503 110.513083 
L 242.987408 111.8603 
L 244.085312 109.574493 
L 245.183217 106.55453 
L 246.281122 106.713228 
L 247.379027 106.50357 
L 248.476932 109.575608 
L 249.574837 110.019347 
L 250.672742 109.221907 
L 251.770647 107.110068 
L 252.868552 109.303482 
L 253.966457 109.962791 
L 255.064361 110.398429 
L 256.162266 111.422312 
L 257.260171 110.680483 
L 258.358076 112.735634 
L 259.455981 112.128673 
L 260.553886 111.30081 
L 262.749696 111.555544 
L 263.847601 112.452181 
L 264.945506 112.117878 
L 266.04341 110.050865 
L 267.141315 111.526856 
L 268.23922 110.896995 
L 269.337125 110.659549 
L 270.43503 111.428588 
L 271.532935 113.517695 
L 273.728745 116.352417 
L 275.924555 115.429363 
L 277.022459 115.094262 
L 278.120364 114.419865 
L 279.218269 113.368322 
L 280.316174 115.724779 
L 281.414079 114.853496 
L 282.511984 118.161296 
L 283.609889 118.93508 
L 284.707794 119.247889 
L 285.805699 120.260667 
L 286.903604 118.835696 
L 288.001508 117.082753 
L 289.099413 116.653629 
L 290.197318 115.441018 
L 291.295223 116.054466 
L 292.393128 116.495481 
L 293.491033 115.087576 
L 294.588938 113.290097 
L 295.686843 112.137843 
L 296.784748 112.558024 
L 297.882653 112.638564 
L 298.980557 111.384579 
L 300.078462 109.696323 
L 301.176367 110.092365 
L 302.274272 111.168181 
L 305.567987 107.823144 
L 306.665892 107.101485 
L 307.763797 107.170947 
L 308.861702 107.118458 
L 309.959606 107.700153 
L 311.057511 107.759344 
L 312.155416 109.7455 
L 313.253321 109.915719 
L 314.351226 111.517292 
L 315.449131 112.675774 
L 316.547036 112.883785 
L 317.644941 112.450069 
L 318.742846 112.227634 
L 319.840751 112.930617 
L 320.938655 112.569486 
L 322.03656 112.754212 
L 323.134465 113.849131 
L 324.23237 112.956321 
L 325.330275 112.403929 
L 326.42818 110.635225 
L 327.526085 109.750072 
L 328.62399 109.765078 
L 329.721895 110.607649 
L 330.8198 109.838256 
L 333.015609 109.666013 
L 334.113514 110.80293 
L 336.309324 110.781695 
L 337.407229 110.194275 
L 338.505134 110.020433 
L 339.603039 109.648817 
L 340.700944 110.203365 
L 341.798849 109.279392 
L 342.896754 108.92292 
L 343.994658 110.251702 
L 346.190468 110.077914 
L 348.386278 110.672903 
L 349.484183 110.221664 
L 350.582088 110.251348 
L 351.679993 109.670685 
L 352.777898 109.973928 
L 353.875803 109.82398 
L 354.973707 109.817208 
L 356.071612 111.011123 
L 357.169517 110.929374 
L 358.267422 111.610649 
L 359.365327 112.007209 
L 360.463232 111.726846 
L 361.561137 111.088546 
L 362.659042 111.464469 
L 363.756947 111.125522 
L 364.854852 111.10922 
L 367.050661 110.405632 
L 369.246471 110.365248 
L 370.344376 110.116055 
L 371.442281 110.127256 
L 372.540186 109.604794 
L 373.638091 109.989261 
L 374.735996 109.842283 
L 375.833901 110.06344 
L 376.931805 109.587764 
L 378.02971 109.861241 
L 379.127615 109.521484 
L 380.22552 109.630806 
L 381.323425 109.282116 
L 382.42133 108.734485 
L 383.519235 108.469472 
L 384.61714 108.42383 
L 385.715045 108.881091 
L 386.81295 109.119897 
L 387.910854 108.988956 
L 389.008759 109.566977 
L 390.106664 109.55465 
L 391.204569 109.829591 
L 392.302474 110.397802 
L 393.400379 110.542925 
L 394.498284 110.485275 
L 395.596189 110.737622 
L 396.694094 110.452414 
L 401.085713 110.405625 
L 402.183618 109.99691 
L 403.281523 109.825532 
L 405.477333 109.788918 
L 406.575238 109.357378 
L 407.673143 109.318429 
L 408.771048 109.158383 
L 409.868952 109.198841 
L 410.966857 109.49758 
L 414.260572 109.359647 
L 416.456382 109.703818 
L 417.554287 109.49325 
L 418.652192 109.502814 
L 419.750097 109.817492 
L 420.848001 109.722879 
L 421.945906 110.213835 
L 423.043811 110.083963 
L 424.141716 110.774564 
L 425.239621 110.61952 
L 426.337526 110.748798 
L 427.435431 110.450458 
L 428.533336 110.336898 
L 435.120765 110.347009 
L 436.21867 110.534912 
L 437.316575 110.870486 
L 438.41448 111.081105 
L 439.512385 111.015112 
L 440.61029 110.811742 
L 441.708195 110.944518 
L 442.806099 110.849062 
L 443.904004 111.236475 
L 448.295624 110.44697 
L 449.393529 110.545027 
L 450.491434 110.881686 
L 451.589339 110.941072 
L 452.687244 110.842047 
L 453.785148 110.577751 
L 454.883053 110.637052 
L 457.078863 110.248398 
L 459.274673 110.573683 
L 461.470483 111.162951 
L 463.666293 111.022951 
L 464.764197 111.529267 
L 465.862102 111.689632 
L 469.155817 111.495989 
L 470.253722 111.273747 
L 471.351627 111.322857 
L 473.547437 111.189401 
L 474.645342 111.166003 
L 475.743246 110.941021 
L 477.939056 110.953403 
L 481.232771 110.74276 
L 482.330676 110.429525 
L 483.428581 110.686374 
L 484.526486 110.816621 
L 486.722296 111.536123 
L 487.8202 111.461986 
L 488.918105 111.679462 
L 490.01601 111.486316 
L 491.113915 111.419844 
L 492.21182 111.517574 
L 494.40763 111.297444 
L 495.505535 111.310558 
L 496.60344 111.53582 
L 497.701345 111.273864 
L 500.995059 111.037974 
L 502.092964 110.814374 
L 504.288774 111.198964 
L 505.386679 110.689119 
L 506.484584 110.541078 
L 507.582489 110.521208 
L 508.680394 110.342178 
L 510.876203 110.800779 
L 511.974108 110.658147 
L 516.365728 110.561865 
L 517.463633 110.378182 
L 518.561538 109.993414 
L 519.659443 109.800687 
L 520.757347 110.383747 
L 521.855252 109.930747 
L 522.953157 109.92434 
L 524.051062 109.772762 
L 526.246872 109.937878 
L 527.344777 109.936146 
L 528.442682 110.371825 
L 529.540587 110.101803 
L 531.736396 109.994402 
L 532.834301 110.365004 
L 535.030111 110.66567 
L 537.225921 110.550399 
L 539.421731 110.856136 
L 540.519636 111.297938 
L 541.617541 110.919897 
L 542.715445 110.89809 
L 543.81335 111.139395 
L 544.911255 110.877763 
L 546.00916 110.911978 
L 548.20497 110.664854 
L 549.302875 110.604838 
L 550.40078 110.797768 
L 552.59659 110.198789 
L 553.694494 110.183155 
L 554.792399 110.519896 
L 556.988209 110.376904 
L 560.281924 110.825462 
L 561.379829 110.551727 
L 562.477734 110.601499 
L 564.673543 110.105238 
L 565.771448 110.124363 
L 566.869353 110.437552 
L 570.163068 110.844812 
L 572.358878 110.948661 
L 573.456783 110.808527 
L 574.554688 111.354241 
L 575.652592 111.71637 
L 576.750497 111.59607 
L 578.946307 111.77322 
L 580.044212 111.551189 
L 581.142117 111.705254 
L 582.240022 112.087717 
L 583.337927 111.844488 
L 584.435832 111.755146 
L 585.533737 111.539367 
L 586.631641 111.51163 
L 587.729546 111.618106 
L 588.827451 111.325115 
L 589.925356 111.574818 
L 591.023261 111.687465 
L 592.121166 111.962029 
L 593.219071 111.559221 
L 595.414881 112.016779 
L 597.61069 111.870985 
L 598.708595 111.826592 
L 600.904405 112.096617 
L 603.100215 111.719518 
L 604.19812 112.096799 
L 605.296025 111.638387 
L 606.39393 111.61145 
L 608.589739 112.18004 
L 609.687644 112.021087 
L 610.785549 112.043053 
L 612.981359 111.681707 
L 614.079264 111.708762 
L 615.177169 111.479894 
L 616.275074 111.480577 
L 619.568788 110.786874 
L 620.666693 111.024144 
L 622.862503 111.113697 
L 623.960408 111.113622 
L 625.058313 110.893162 
L 626.156218 111.242207 
L 627.254123 111.164316 
L 629.449933 111.363244 
L 631.645742 111.85682 
L 632.743647 112.316421 
L 633.841552 112.373985 
L 634.939457 112.081548 
L 636.037362 112.099103 
L 638.233172 112.446675 
L 639.331077 112.223842 
L 640.428982 112.297588 
L 641.526887 112.221955 
L 642.624791 111.948216 
L 643.722696 112.159205 
L 644.820601 112.032601 
L 647.016411 112.544847 
L 650.310126 112.518281 
L 651.408031 112.894333 
L 653.60384 112.398436 
L 654.701745 112.527477 
L 655.79965 112.232776 
L 656.897555 112.4946 
L 661.289175 112.662088 
L 662.38708 112.571978 
L 663.484985 112.138803 
L 665.680794 112.231433 
L 666.778699 112.463931 
L 667.876604 112.484986 
L 668.974509 112.857345 
L 670.072414 112.633452 
L 671.170319 112.523058 
L 672.268224 112.782158 
L 674.464034 112.558391 
L 676.659843 112.710273 
L 677.757748 113.085787 
L 678.855653 112.735546 
L 679.953558 112.796026 
L 683.247273 112.504276 
L 683.247273 112.504276 
" style="fill:none;stroke:#9467bd;stroke-linecap:square;stroke-width:2;"/>
   </g>
   <g id="line2d_24">
    <path clip-path="url(#pd750831ee4)" d="M 135.392727 111.30161 
L 683.247273 111.30161 
L 683.247273 111.30161 
" style="fill:none;stroke:#000000;stroke-dasharray:7.4,3.2;stroke-dashoffset:0;stroke-width:2;"/>
   </g>
   <g id="patch_3">
    <path d="M 108 512.64 
L 108 69.12 
" style="fill:none;stroke:#000000;stroke-linecap:square;stroke-linejoin:miter;stroke-width:0.8;"/>
   </g>
   <g id="patch_4">
    <path d="M 710.64 512.64 
L 710.64 69.12 
" style="fill:none;stroke:#000000;stroke-linecap:square;stroke-linejoin:miter;stroke-width:0.8;"/>
   </g>
   <g id="patch_5">
    <path d="M 108 512.64 
L 710.64 512.64 
" style="fill:none;stroke:#000000;stroke-linecap:square;stroke-linejoin:miter;stroke-width:0.8;"/>
   </g>
   <g id="patch_6">
    <path d="M 108 69.12 
L 710.64 69.12 
" style="fill:none;stroke:#000000;stroke-linecap:square;stroke-linejoin:miter;stroke-width:0.8;"/>
   </g>
   <g id="text_17">
    <!-- FVMC estimates through time vs true values averaged over 50 environments -->
    <g transform="translate(84.69675 63.12)scale(0.168 -0.168)">
     <defs>
      <path d="M 628 4666 
L 1569 4666 
L 2759 1491 
L 3956 4666 
L 4897 4666 
L 4897 0 
L 4281 0 
L 4281 4097 
L 3078 897 
L 2444 897 
L 1241 4097 
L 1241 0 
L 628 0 
L 628 4666 
z
" id="DejaVuSans-4d" transform="scale(0.015625)"/>
      <path d="M 4122 4306 
L 4122 3641 
Q 3803 3938 3442 4084 
Q 3081 4231 2675 4231 
Q 1875 4231 1450 3742 
Q 1025 3253 1025 2328 
Q 1025 1406 1450 917 
Q 1875 428 2675 428 
Q 3081 428 3442 575 
Q 3803 722 4122 1019 
L 4122 359 
Q 3791 134 3420 21 
Q 3050 -91 2638 -91 
Q 1578 -91 968 557 
Q 359 1206 359 2328 
Q 359 3453 968 4101 
Q 1578 4750 2638 4750 
Q 3056 4750 3426 4639 
Q 3797 4528 4122 4306 
z
" id="DejaVuSans-43" transform="scale(0.015625)"/>
      <path d="M 3328 2828 
Q 3544 3216 3844 3400 
Q 4144 3584 4550 3584 
Q 5097 3584 5394 3201 
Q 5691 2819 5691 2113 
L 5691 0 
L 5113 0 
L 5113 2094 
Q 5113 2597 4934 2840 
Q 4756 3084 4391 3084 
Q 3944 3084 3684 2787 
Q 3425 2491 3425 1978 
L 3425 0 
L 2847 0 
L 2847 2094 
Q 2847 2600 2669 2842 
Q 2491 3084 2119 3084 
Q 1678 3084 1418 2786 
Q 1159 2488 1159 1978 
L 1159 0 
L 581 0 
L 581 3500 
L 1159 3500 
L 1159 2956 
Q 1356 3278 1631 3431 
Q 1906 3584 2284 3584 
Q 2666 3584 2933 3390 
Q 3200 3197 3328 2828 
z
" id="DejaVuSans-6d" transform="scale(0.015625)"/>
      <path d="M 3513 2113 
L 3513 0 
L 2938 0 
L 2938 2094 
Q 2938 2591 2744 2837 
Q 2550 3084 2163 3084 
Q 1697 3084 1428 2787 
Q 1159 2491 1159 1978 
L 1159 0 
L 581 0 
L 581 4863 
L 1159 4863 
L 1159 2956 
Q 1366 3272 1645 3428 
Q 1925 3584 2291 3584 
Q 2894 3584 3203 3211 
Q 3513 2838 3513 2113 
z
" id="DejaVuSans-68" transform="scale(0.015625)"/>
      <path d="M 2631 2963 
Q 2534 3019 2420 3045 
Q 2306 3072 2169 3072 
Q 1681 3072 1420 2755 
Q 1159 2438 1159 1844 
L 1159 0 
L 581 0 
L 581 3500 
L 1159 3500 
L 1159 2956 
Q 1341 3275 1631 3429 
Q 1922 3584 2338 3584 
Q 2397 3584 2469 3576 
Q 2541 3569 2628 3553 
L 2631 2963 
z
" id="DejaVuSans-72" transform="scale(0.015625)"/>
      <path d="M 2906 1791 
Q 2906 2416 2648 2759 
Q 2391 3103 1925 3103 
Q 1463 3103 1205 2759 
Q 947 2416 947 1791 
Q 947 1169 1205 825 
Q 1463 481 1925 481 
Q 2391 481 2648 825 
Q 2906 1169 2906 1791 
z
M 3481 434 
Q 3481 -459 3084 -895 
Q 2688 -1331 1869 -1331 
Q 1566 -1331 1297 -1286 
Q 1028 -1241 775 -1147 
L 775 -588 
Q 1028 -725 1275 -790 
Q 1522 -856 1778 -856 
Q 2344 -856 2625 -561 
Q 2906 -266 2906 331 
L 2906 616 
Q 2728 306 2450 153 
Q 2172 0 1784 0 
Q 1141 0 747 490 
Q 353 981 353 1791 
Q 353 2603 747 3093 
Q 1141 3584 1784 3584 
Q 2172 3584 2450 3431 
Q 2728 3278 2906 2969 
L 2906 3500 
L 3481 3500 
L 3481 434 
z
" id="DejaVuSans-67" transform="scale(0.015625)"/>
      <path d="M 191 3500 
L 800 3500 
L 1894 563 
L 2988 3500 
L 3597 3500 
L 2284 0 
L 1503 0 
L 191 3500 
z
" id="DejaVuSans-76" transform="scale(0.015625)"/>
     </defs>
     <use xlink:href="#DejaVuSans-46"/>
     <use x="57.519531" xlink:href="#DejaVuSans-56"/>
     <use x="125.927734" xlink:href="#DejaVuSans-4d"/>
     <use x="212.207031" xlink:href="#DejaVuSans-43"/>
     <use x="282.03125" xlink:href="#DejaVuSans-20"/>
     <use x="313.818359" xlink:href="#DejaVuSans-65"/>
     <use x="375.341797" xlink:href="#DejaVuSans-73"/>
     <use x="427.441406" xlink:href="#DejaVuSans-74"/>
     <use x="466.650391" xlink:href="#DejaVuSans-69"/>
     <use x="494.433594" xlink:href="#DejaVuSans-6d"/>
     <use x="591.845703" xlink:href="#DejaVuSans-61"/>
     <use x="653.125" xlink:href="#DejaVuSans-74"/>
     <use x="692.333984" xlink:href="#DejaVuSans-65"/>
     <use x="753.857422" xlink:href="#DejaVuSans-73"/>
     <use x="805.957031" xlink:href="#DejaVuSans-20"/>
     <use x="837.744141" xlink:href="#DejaVuSans-74"/>
     <use x="876.953125" xlink:href="#DejaVuSans-68"/>
     <use x="940.332031" xlink:href="#DejaVuSans-72"/>
     <use x="979.195312" xlink:href="#DejaVuSans-6f"/>
     <use x="1040.376953" xlink:href="#DejaVuSans-75"/>
     <use x="1103.755859" xlink:href="#DejaVuSans-67"/>
     <use x="1167.232422" xlink:href="#DejaVuSans-68"/>
     <use x="1230.611328" xlink:href="#DejaVuSans-20"/>
     <use x="1262.398438" xlink:href="#DejaVuSans-74"/>
     <use x="1301.607422" xlink:href="#DejaVuSans-69"/>
     <use x="1329.390625" xlink:href="#DejaVuSans-6d"/>
     <use x="1426.802734" xlink:href="#DejaVuSans-65"/>
     <use x="1488.326172" xlink:href="#DejaVuSans-20"/>
     <use x="1520.113281" xlink:href="#DejaVuSans-76"/>
     <use x="1579.292969" xlink:href="#DejaVuSans-73"/>
     <use x="1631.392578" xlink:href="#DejaVuSans-20"/>
     <use x="1663.179688" xlink:href="#DejaVuSans-74"/>
     <use x="1702.388672" xlink:href="#DejaVuSans-72"/>
     <use x="1743.501953" xlink:href="#DejaVuSans-75"/>
     <use x="1806.880859" xlink:href="#DejaVuSans-65"/>
     <use x="1868.404297" xlink:href="#DejaVuSans-20"/>
     <use x="1900.191406" xlink:href="#DejaVuSans-76"/>
     <use x="1959.371094" xlink:href="#DejaVuSans-61"/>
     <use x="2020.650391" xlink:href="#DejaVuSans-6c"/>
     <use x="2048.433594" xlink:href="#DejaVuSans-75"/>
     <use x="2111.8125" xlink:href="#DejaVuSans-65"/>
     <use x="2173.335938" xlink:href="#DejaVuSans-73"/>
     <use x="2225.435547" xlink:href="#DejaVuSans-20"/>
     <use x="2257.222656" xlink:href="#DejaVuSans-61"/>
     <use x="2318.501953" xlink:href="#DejaVuSans-76"/>
     <use x="2377.681641" xlink:href="#DejaVuSans-65"/>
     <use x="2439.205078" xlink:href="#DejaVuSans-72"/>
     <use x="2480.318359" xlink:href="#DejaVuSans-61"/>
     <use x="2541.597656" xlink:href="#DejaVuSans-67"/>
     <use x="2605.074219" xlink:href="#DejaVuSans-65"/>
     <use x="2666.597656" xlink:href="#DejaVuSans-64"/>
     <use x="2730.074219" xlink:href="#DejaVuSans-20"/>
     <use x="2761.861328" xlink:href="#DejaVuSans-6f"/>
     <use x="2823.042969" xlink:href="#DejaVuSans-76"/>
     <use x="2882.222656" xlink:href="#DejaVuSans-65"/>
     <use x="2943.746094" xlink:href="#DejaVuSans-72"/>
     <use x="2984.859375" xlink:href="#DejaVuSans-20"/>
     <use x="3016.646484" xlink:href="#DejaVuSans-35"/>
     <use x="3080.269531" xlink:href="#DejaVuSans-30"/>
     <use x="3143.892578" xlink:href="#DejaVuSans-20"/>
     <use x="3175.679688" xlink:href="#DejaVuSans-65"/>
     <use x="3237.203125" xlink:href="#DejaVuSans-6e"/>
     <use x="3300.582031" xlink:href="#DejaVuSans-76"/>
     <use x="3359.761719" xlink:href="#DejaVuSans-69"/>
     <use x="3387.544922" xlink:href="#DejaVuSans-72"/>
     <use x="3426.408203" xlink:href="#DejaVuSans-6f"/>
     <use x="3487.589844" xlink:href="#DejaVuSans-6e"/>
     <use x="3550.96875" xlink:href="#DejaVuSans-6d"/>
     <use x="3648.380859" xlink:href="#DejaVuSans-65"/>
     <use x="3709.904297" xlink:href="#DejaVuSans-6e"/>
     <use x="3773.283203" xlink:href="#DejaVuSans-74"/>
     <use x="3812.492188" xlink:href="#DejaVuSans-73"/>
    </g>
   </g>
   <g id="legend_1">
    <g id="patch_7">
     <path d="M 720.44 395.726875 
L 820.673438 395.726875 
Q 823.473438 395.726875 823.473438 392.926875 
L 823.473438 188.833125 
Q 823.473438 186.033125 820.673438 186.033125 
L 720.44 186.033125 
Q 717.64 186.033125 717.64 188.833125 
L 717.64 392.926875 
Q 717.64 395.726875 720.44 395.726875 
z
" style="fill:#ffffff;opacity:0.8;stroke:#cccccc;stroke-linejoin:miter;"/>
    </g>
    <g id="line2d_25">
     <path d="M 723.24 197.370937 
L 751.24 197.370937 
" style="fill:none;stroke:#1f77b4;stroke-linecap:square;stroke-width:2;"/>
    </g>
    <g id="line2d_26"/>
    <g id="text_18">
     <!-- V(s=1) -->
     <g transform="translate(762.44 202.270938)scale(0.14 -0.14)">
      <defs>
       <path d="M 1984 4856 
Q 1566 4138 1362 3434 
Q 1159 2731 1159 2009 
Q 1159 1288 1364 580 
Q 1569 -128 1984 -844 
L 1484 -844 
Q 1016 -109 783 600 
Q 550 1309 550 2009 
Q 550 2706 781 3412 
Q 1013 4119 1484 4856 
L 1984 4856 
z
" id="DejaVuSans-28" transform="scale(0.015625)"/>
       <path d="M 678 2906 
L 4684 2906 
L 4684 2381 
L 678 2381 
L 678 2906 
z
M 678 1631 
L 4684 1631 
L 4684 1100 
L 678 1100 
L 678 1631 
z
" id="DejaVuSans-3d" transform="scale(0.015625)"/>
       <path d="M 513 4856 
L 1013 4856 
Q 1481 4119 1714 3412 
Q 1947 2706 1947 2009 
Q 1947 1309 1714 600 
Q 1481 -109 1013 -844 
L 513 -844 
Q 928 -128 1133 580 
Q 1338 1288 1338 2009 
Q 1338 2731 1133 3434 
Q 928 4138 513 4856 
z
" id="DejaVuSans-29" transform="scale(0.015625)"/>
      </defs>
      <use xlink:href="#DejaVuSans-56"/>
      <use x="68.408203" xlink:href="#DejaVuSans-28"/>
      <use x="107.421875" xlink:href="#DejaVuSans-73"/>
      <use x="159.521484" xlink:href="#DejaVuSans-3d"/>
      <use x="243.310547" xlink:href="#DejaVuSans-31"/>
      <use x="306.933594" xlink:href="#DejaVuSans-29"/>
     </g>
    </g>
    <g id="line2d_27">
     <path d="M 723.24 217.920312 
L 751.24 217.920312 
" style="fill:none;stroke:#000000;stroke-dasharray:7.4,3.2;stroke-dashoffset:0;stroke-width:2;"/>
    </g>
    <g id="line2d_28"/>
    <g id="text_19">
     <!-- V*(s=1) -->
     <g transform="translate(762.44 222.820312)scale(0.14 -0.14)">
      <defs>
       <path d="M 3009 3897 
L 1888 3291 
L 3009 2681 
L 2828 2375 
L 1778 3009 
L 1778 1831 
L 1422 1831 
L 1422 3009 
L 372 2375 
L 191 2681 
L 1313 3291 
L 191 3897 
L 372 4206 
L 1422 3572 
L 1422 4750 
L 1778 4750 
L 1778 3572 
L 2828 4206 
L 3009 3897 
z
" id="DejaVuSans-2a" transform="scale(0.015625)"/>
      </defs>
      <use xlink:href="#DejaVuSans-56"/>
      <use x="68.408203" xlink:href="#DejaVuSans-2a"/>
      <use x="118.408203" xlink:href="#DejaVuSans-28"/>
      <use x="157.421875" xlink:href="#DejaVuSans-73"/>
      <use x="209.521484" xlink:href="#DejaVuSans-3d"/>
      <use x="293.310547" xlink:href="#DejaVuSans-31"/>
      <use x="356.933594" xlink:href="#DejaVuSans-29"/>
     </g>
    </g>
    <g id="line2d_29">
     <path d="M 723.24 238.469688 
L 751.24 238.469688 
" style="fill:none;stroke:#ff7f0e;stroke-linecap:square;stroke-width:2;"/>
    </g>
    <g id="line2d_30"/>
    <g id="text_20">
     <!-- V(s=2) -->
     <g transform="translate(762.44 243.369688)scale(0.14 -0.14)">
      <use xlink:href="#DejaVuSans-56"/>
      <use x="68.408203" xlink:href="#DejaVuSans-28"/>
      <use x="107.421875" xlink:href="#DejaVuSans-73"/>
      <use x="159.521484" xlink:href="#DejaVuSans-3d"/>
      <use x="243.310547" xlink:href="#DejaVuSans-32"/>
      <use x="306.933594" xlink:href="#DejaVuSans-29"/>
     </g>
    </g>
    <g id="line2d_31">
     <path d="M 723.24 259.019063 
L 751.24 259.019063 
" style="fill:none;stroke:#000000;stroke-dasharray:7.4,3.2;stroke-dashoffset:0;stroke-width:2;"/>
    </g>
    <g id="line2d_32"/>
    <g id="text_21">
     <!-- V*(s=2) -->
     <g transform="translate(762.44 263.919062)scale(0.14 -0.14)">
      <use xlink:href="#DejaVuSans-56"/>
      <use x="68.408203" xlink:href="#DejaVuSans-2a"/>
      <use x="118.408203" xlink:href="#DejaVuSans-28"/>
      <use x="157.421875" xlink:href="#DejaVuSans-73"/>
      <use x="209.521484" xlink:href="#DejaVuSans-3d"/>
      <use x="293.310547" xlink:href="#DejaVuSans-32"/>
      <use x="356.933594" xlink:href="#DejaVuSans-29"/>
     </g>
    </g>
    <g id="line2d_33">
     <path d="M 723.24 279.568438 
L 751.24 279.568438 
" style="fill:none;stroke:#2ca02c;stroke-linecap:square;stroke-width:2;"/>
    </g>
    <g id="line2d_34"/>
    <g id="text_22">
     <!-- V(s=3) -->
     <g transform="translate(762.44 284.468437)scale(0.14 -0.14)">
      <use xlink:href="#DejaVuSans-56"/>
      <use x="68.408203" xlink:href="#DejaVuSans-28"/>
      <use x="107.421875" xlink:href="#DejaVuSans-73"/>
      <use x="159.521484" xlink:href="#DejaVuSans-3d"/>
      <use x="243.310547" xlink:href="#DejaVuSans-33"/>
      <use x="306.933594" xlink:href="#DejaVuSans-29"/>
     </g>
    </g>
    <g id="line2d_35">
     <path d="M 723.24 300.117813 
L 751.24 300.117813 
" style="fill:none;stroke:#000000;stroke-dasharray:7.4,3.2;stroke-dashoffset:0;stroke-width:2;"/>
    </g>
    <g id="line2d_36"/>
    <g id="text_23">
     <!-- V*(s=3) -->
     <g transform="translate(762.44 305.017812)scale(0.14 -0.14)">
      <use xlink:href="#DejaVuSans-56"/>
      <use x="68.408203" xlink:href="#DejaVuSans-2a"/>
      <use x="118.408203" xlink:href="#DejaVuSans-28"/>
      <use x="157.421875" xlink:href="#DejaVuSans-73"/>
      <use x="209.521484" xlink:href="#DejaVuSans-3d"/>
      <use x="293.310547" xlink:href="#DejaVuSans-33"/>
      <use x="356.933594" xlink:href="#DejaVuSans-29"/>
     </g>
    </g>
    <g id="line2d_37">
     <path d="M 723.24 320.667188 
L 751.24 320.667188 
" style="fill:none;stroke:#d62728;stroke-linecap:square;stroke-width:2;"/>
    </g>
    <g id="line2d_38"/>
    <g id="text_24">
     <!-- V(s=4) -->
     <g transform="translate(762.44 325.567188)scale(0.14 -0.14)">
      <use xlink:href="#DejaVuSans-56"/>
      <use x="68.408203" xlink:href="#DejaVuSans-28"/>
      <use x="107.421875" xlink:href="#DejaVuSans-73"/>
      <use x="159.521484" xlink:href="#DejaVuSans-3d"/>
      <use x="243.310547" xlink:href="#DejaVuSans-34"/>
      <use x="306.933594" xlink:href="#DejaVuSans-29"/>
     </g>
    </g>
    <g id="line2d_39">
     <path d="M 723.24 341.216563 
L 751.24 341.216563 
" style="fill:none;stroke:#000000;stroke-dasharray:7.4,3.2;stroke-dashoffset:0;stroke-width:2;"/>
    </g>
    <g id="line2d_40"/>
    <g id="text_25">
     <!-- V*(s=4) -->
     <g transform="translate(762.44 346.116562)scale(0.14 -0.14)">
      <use xlink:href="#DejaVuSans-56"/>
      <use x="68.408203" xlink:href="#DejaVuSans-2a"/>
      <use x="118.408203" xlink:href="#DejaVuSans-28"/>
      <use x="157.421875" xlink:href="#DejaVuSans-73"/>
      <use x="209.521484" xlink:href="#DejaVuSans-3d"/>
      <use x="293.310547" xlink:href="#DejaVuSans-34"/>
      <use x="356.933594" xlink:href="#DejaVuSans-29"/>
     </g>
    </g>
    <g id="line2d_41">
     <path d="M 723.24 361.765938 
L 751.24 361.765938 
" style="fill:none;stroke:#9467bd;stroke-linecap:square;stroke-width:2;"/>
    </g>
    <g id="line2d_42"/>
    <g id="text_26">
     <!-- V(s=5) -->
     <g transform="translate(762.44 366.665938)scale(0.14 -0.14)">
      <use xlink:href="#DejaVuSans-56"/>
      <use x="68.408203" xlink:href="#DejaVuSans-28"/>
      <use x="107.421875" xlink:href="#DejaVuSans-73"/>
      <use x="159.521484" xlink:href="#DejaVuSans-3d"/>
      <use x="243.310547" xlink:href="#DejaVuSans-35"/>
      <use x="306.933594" xlink:href="#DejaVuSans-29"/>
     </g>
    </g>
    <g id="line2d_43">
     <path d="M 723.24 382.315313 
L 751.24 382.315313 
" style="fill:none;stroke:#000000;stroke-dasharray:7.4,3.2;stroke-dashoffset:0;stroke-width:2;"/>
    </g>
    <g id="line2d_44"/>
    <g id="text_27">
     <!-- V*(s=5) -->
     <g transform="translate(762.44 387.215312)scale(0.14 -0.14)">
      <use xlink:href="#DejaVuSans-56"/>
      <use x="68.408203" xlink:href="#DejaVuSans-2a"/>
      <use x="118.408203" xlink:href="#DejaVuSans-28"/>
      <use x="157.421875" xlink:href="#DejaVuSans-73"/>
      <use x="209.521484" xlink:href="#DejaVuSans-3d"/>
      <use x="293.310547" xlink:href="#DejaVuSans-35"/>
      <use x="356.933594" xlink:href="#DejaVuSans-29"/>
     </g>
    </g>
   </g>
  </g>
 </g>
 <defs>
  <clipPath id="pd750831ee4">
   <rect height="443.52" width="602.64" x="108" y="69.12"/>
  </clipPath>
 </defs>
</svg>
