<?xml version="1.0" encoding="utf-8" standalone="no"?>
<!DOCTYPE svg PUBLIC "-//W3C//DTD SVG 1.1//EN"
  "http://www.w3.org/Graphics/SVG/1.1/DTD/svg11.dtd">
<svg height="576pt" version="1.1" viewBox="0 0 864 576" width="864pt" xmlns="http://www.w3.org/2000/svg" xmlns:xlink="http://www.w3.org/1999/xlink">
 <metadata>
  <rdf:RDF xmlns:cc="http://creativecommons.org/ns#" xmlns:dc="http://purl.org/dc/elements/1.1/" xmlns:rdf="http://www.w3.org/1999/02/22-rdf-syntax-ns#">
   <cc:Work>
    <dc:type rdf:resource="http://purl.org/dc/dcmitype/StillImage"/>
    <dc:date>2021-09-10T17:06:58.660051</dc:date>
    <dc:format>image/svg+xml</dc:format>
    <dc:creator>
     <cc:Agent>
      <dc:title>Matplotlib v3.4.3, https://matplotlib.org/</dc:title>
     </cc:Agent>
    </dc:creator>
   </cc:Work>
  </rdf:RDF>
 </metadata>
 <defs>
  <style type="text/css">*{stroke-linecap:butt;stroke-linejoin:round;}</style>
 </defs>
 <g id="figure_1">
  <g id="patch_1">
   <path d="M 0 576 
L 864 576 
L 864 0 
L 0 0 
z
" style="fill:#ffffff;"/>
  </g>
  <g id="axes_1">
   <g id="patch_2">
    <path d="M 108 512.64 
L 777.6 512.64 
L 777.6 69.12 
L 108 69.12 
z
" style="fill:#ffffff;"/>
   </g>
   <g id="matplotlib.axis_1">
    <g id="xtick_1">
     <g id="line2d_1">
      <defs>
       <path d="M 0 0 
L 0 3.5 
" id="m40ab1e56d7" style="stroke:#000000;stroke-width:0.8;"/>
      </defs>
      <g>
       <use style="stroke:#000000;stroke-width:0.8;" x="138.436364" xlink:href="#m40ab1e56d7" y="512.64"/>
      </g>
     </g>
     <g id="text_1">
      <!-- $\mathdefault{10^{0}}$ -->
      <g transform="translate(129.636364 527.238438)scale(0.1 -0.1)">
       <defs>
        <path d="M 794 531 
L 1825 531 
L 1825 4091 
L 703 3866 
L 703 4441 
L 1819 4666 
L 2450 4666 
L 2450 531 
L 3481 531 
L 3481 0 
L 794 0 
L 794 531 
z
" id="DejaVuSans-31" transform="scale(0.015625)"/>
        <path d="M 2034 4250 
Q 1547 4250 1301 3770 
Q 1056 3291 1056 2328 
Q 1056 1369 1301 889 
Q 1547 409 2034 409 
Q 2525 409 2770 889 
Q 3016 1369 3016 2328 
Q 3016 3291 2770 3770 
Q 2525 4250 2034 4250 
z
M 2034 4750 
Q 2819 4750 3233 4129 
Q 3647 3509 3647 2328 
Q 3647 1150 3233 529 
Q 2819 -91 2034 -91 
Q 1250 -91 836 529 
Q 422 1150 422 2328 
Q 422 3509 836 4129 
Q 1250 4750 2034 4750 
z
" id="DejaVuSans-30" transform="scale(0.015625)"/>
       </defs>
       <use transform="translate(0 0.765625)" xlink:href="#DejaVuSans-31"/>
       <use transform="translate(63.623047 0.765625)" xlink:href="#DejaVuSans-30"/>
       <use transform="translate(128.203125 39.046875)scale(0.7)" xlink:href="#DejaVuSans-30"/>
      </g>
     </g>
    </g>
    <g id="xtick_2">
     <g id="line2d_2">
      <g>
       <use style="stroke:#000000;stroke-width:0.8;" x="364.049628" xlink:href="#m40ab1e56d7" y="512.64"/>
      </g>
     </g>
     <g id="text_2">
      <!-- $\mathdefault{10^{1}}$ -->
      <g transform="translate(355.249628 527.238438)scale(0.1 -0.1)">
       <use transform="translate(0 0.684375)" xlink:href="#DejaVuSans-31"/>
       <use transform="translate(63.623047 0.684375)" xlink:href="#DejaVuSans-30"/>
       <use transform="translate(128.203125 38.965625)scale(0.7)" xlink:href="#DejaVuSans-31"/>
      </g>
     </g>
    </g>
    <g id="xtick_3">
     <g id="line2d_3">
      <g>
       <use style="stroke:#000000;stroke-width:0.8;" x="589.662893" xlink:href="#m40ab1e56d7" y="512.64"/>
      </g>
     </g>
     <g id="text_3">
      <!-- $\mathdefault{10^{2}}$ -->
      <g transform="translate(580.862893 527.238438)scale(0.1 -0.1)">
       <defs>
        <path d="M 1228 531 
L 3431 531 
L 3431 0 
L 469 0 
L 469 531 
Q 828 903 1448 1529 
Q 2069 2156 2228 2338 
Q 2531 2678 2651 2914 
Q 2772 3150 2772 3378 
Q 2772 3750 2511 3984 
Q 2250 4219 1831 4219 
Q 1534 4219 1204 4116 
Q 875 4013 500 3803 
L 500 4441 
Q 881 4594 1212 4672 
Q 1544 4750 1819 4750 
Q 2544 4750 2975 4387 
Q 3406 4025 3406 3419 
Q 3406 3131 3298 2873 
Q 3191 2616 2906 2266 
Q 2828 2175 2409 1742 
Q 1991 1309 1228 531 
z
" id="DejaVuSans-32" transform="scale(0.015625)"/>
       </defs>
       <use transform="translate(0 0.765625)" xlink:href="#DejaVuSans-31"/>
       <use transform="translate(63.623047 0.765625)" xlink:href="#DejaVuSans-30"/>
       <use transform="translate(128.203125 39.046875)scale(0.7)" xlink:href="#DejaVuSans-32"/>
      </g>
     </g>
    </g>
    <g id="xtick_4">
     <g id="line2d_4">
      <defs>
       <path d="M 0 0 
L 0 2 
" id="m12ed9cad48" style="stroke:#000000;stroke-width:0.6;"/>
      </defs>
      <g>
       <use style="stroke:#000000;stroke-width:0.6;" x="116.572179" xlink:href="#m12ed9cad48" y="512.64"/>
      </g>
     </g>
    </g>
    <g id="xtick_5">
     <g id="line2d_5">
      <g>
       <use style="stroke:#000000;stroke-width:0.6;" x="128.112867" xlink:href="#m12ed9cad48" y="512.64"/>
      </g>
     </g>
    </g>
    <g id="xtick_6">
     <g id="line2d_6">
      <g>
       <use style="stroke:#000000;stroke-width:0.6;" x="206.352724" xlink:href="#m12ed9cad48" y="512.64"/>
      </g>
     </g>
    </g>
    <g id="xtick_7">
     <g id="line2d_7">
      <g>
       <use style="stroke:#000000;stroke-width:0.6;" x="246.081248" xlink:href="#m12ed9cad48" y="512.64"/>
      </g>
     </g>
    </g>
    <g id="xtick_8">
     <g id="line2d_8">
      <g>
       <use style="stroke:#000000;stroke-width:0.6;" x="274.269084" xlink:href="#m12ed9cad48" y="512.64"/>
      </g>
     </g>
    </g>
    <g id="xtick_9">
     <g id="line2d_9">
      <g>
       <use style="stroke:#000000;stroke-width:0.6;" x="296.133268" xlink:href="#m12ed9cad48" y="512.64"/>
      </g>
     </g>
    </g>
    <g id="xtick_10">
     <g id="line2d_10">
      <g>
       <use style="stroke:#000000;stroke-width:0.6;" x="313.997608" xlink:href="#m12ed9cad48" y="512.64"/>
      </g>
     </g>
    </g>
    <g id="xtick_11">
     <g id="line2d_11">
      <g>
       <use style="stroke:#000000;stroke-width:0.6;" x="329.101691" xlink:href="#m12ed9cad48" y="512.64"/>
      </g>
     </g>
    </g>
    <g id="xtick_12">
     <g id="line2d_12">
      <g>
       <use style="stroke:#000000;stroke-width:0.6;" x="342.185444" xlink:href="#m12ed9cad48" y="512.64"/>
      </g>
     </g>
    </g>
    <g id="xtick_13">
     <g id="line2d_13">
      <g>
       <use style="stroke:#000000;stroke-width:0.6;" x="353.726132" xlink:href="#m12ed9cad48" y="512.64"/>
      </g>
     </g>
    </g>
    <g id="xtick_14">
     <g id="line2d_14">
      <g>
       <use style="stroke:#000000;stroke-width:0.6;" x="431.965988" xlink:href="#m12ed9cad48" y="512.64"/>
      </g>
     </g>
    </g>
    <g id="xtick_15">
     <g id="line2d_15">
      <g>
       <use style="stroke:#000000;stroke-width:0.6;" x="471.694512" xlink:href="#m12ed9cad48" y="512.64"/>
      </g>
     </g>
    </g>
    <g id="xtick_16">
     <g id="line2d_16">
      <g>
       <use style="stroke:#000000;stroke-width:0.6;" x="499.882349" xlink:href="#m12ed9cad48" y="512.64"/>
      </g>
     </g>
    </g>
    <g id="xtick_17">
     <g id="line2d_17">
      <g>
       <use style="stroke:#000000;stroke-width:0.6;" x="521.746533" xlink:href="#m12ed9cad48" y="512.64"/>
      </g>
     </g>
    </g>
    <g id="xtick_18">
     <g id="line2d_18">
      <g>
       <use style="stroke:#000000;stroke-width:0.6;" x="539.610872" xlink:href="#m12ed9cad48" y="512.64"/>
      </g>
     </g>
    </g>
    <g id="xtick_19">
     <g id="line2d_19">
      <g>
       <use style="stroke:#000000;stroke-width:0.6;" x="554.714956" xlink:href="#m12ed9cad48" y="512.64"/>
      </g>
     </g>
    </g>
    <g id="xtick_20">
     <g id="line2d_20">
      <g>
       <use style="stroke:#000000;stroke-width:0.6;" x="567.798709" xlink:href="#m12ed9cad48" y="512.64"/>
      </g>
     </g>
    </g>
    <g id="xtick_21">
     <g id="line2d_21">
      <g>
       <use style="stroke:#000000;stroke-width:0.6;" x="579.339396" xlink:href="#m12ed9cad48" y="512.64"/>
      </g>
     </g>
    </g>
    <g id="xtick_22">
     <g id="line2d_22">
      <g>
       <use style="stroke:#000000;stroke-width:0.6;" x="657.579253" xlink:href="#m12ed9cad48" y="512.64"/>
      </g>
     </g>
    </g>
    <g id="xtick_23">
     <g id="line2d_23">
      <g>
       <use style="stroke:#000000;stroke-width:0.6;" x="697.307777" xlink:href="#m12ed9cad48" y="512.64"/>
      </g>
     </g>
    </g>
    <g id="xtick_24">
     <g id="line2d_24">
      <g>
       <use style="stroke:#000000;stroke-width:0.6;" x="725.495613" xlink:href="#m12ed9cad48" y="512.64"/>
      </g>
     </g>
    </g>
    <g id="xtick_25">
     <g id="line2d_25">
      <g>
       <use style="stroke:#000000;stroke-width:0.6;" x="747.359798" xlink:href="#m12ed9cad48" y="512.64"/>
      </g>
     </g>
    </g>
    <g id="xtick_26">
     <g id="line2d_26">
      <g>
       <use style="stroke:#000000;stroke-width:0.6;" x="765.224137" xlink:href="#m12ed9cad48" y="512.64"/>
      </g>
     </g>
    </g>
    <g id="text_4">
     <!-- Episodes -->
     <g transform="translate(420.557813 540.916563)scale(0.1 -0.1)">
      <defs>
       <path d="M 628 4666 
L 3578 4666 
L 3578 4134 
L 1259 4134 
L 1259 2753 
L 3481 2753 
L 3481 2222 
L 1259 2222 
L 1259 531 
L 3634 531 
L 3634 0 
L 628 0 
L 628 4666 
z
" id="DejaVuSans-45" transform="scale(0.015625)"/>
       <path d="M 1159 525 
L 1159 -1331 
L 581 -1331 
L 581 3500 
L 1159 3500 
L 1159 2969 
Q 1341 3281 1617 3432 
Q 1894 3584 2278 3584 
Q 2916 3584 3314 3078 
Q 3713 2572 3713 1747 
Q 3713 922 3314 415 
Q 2916 -91 2278 -91 
Q 1894 -91 1617 61 
Q 1341 213 1159 525 
z
M 3116 1747 
Q 3116 2381 2855 2742 
Q 2594 3103 2138 3103 
Q 1681 3103 1420 2742 
Q 1159 2381 1159 1747 
Q 1159 1113 1420 752 
Q 1681 391 2138 391 
Q 2594 391 2855 752 
Q 3116 1113 3116 1747 
z
" id="DejaVuSans-70" transform="scale(0.015625)"/>
       <path d="M 603 3500 
L 1178 3500 
L 1178 0 
L 603 0 
L 603 3500 
z
M 603 4863 
L 1178 4863 
L 1178 4134 
L 603 4134 
L 603 4863 
z
" id="DejaVuSans-69" transform="scale(0.015625)"/>
       <path d="M 2834 3397 
L 2834 2853 
Q 2591 2978 2328 3040 
Q 2066 3103 1784 3103 
Q 1356 3103 1142 2972 
Q 928 2841 928 2578 
Q 928 2378 1081 2264 
Q 1234 2150 1697 2047 
L 1894 2003 
Q 2506 1872 2764 1633 
Q 3022 1394 3022 966 
Q 3022 478 2636 193 
Q 2250 -91 1575 -91 
Q 1294 -91 989 -36 
Q 684 19 347 128 
L 347 722 
Q 666 556 975 473 
Q 1284 391 1588 391 
Q 1994 391 2212 530 
Q 2431 669 2431 922 
Q 2431 1156 2273 1281 
Q 2116 1406 1581 1522 
L 1381 1569 
Q 847 1681 609 1914 
Q 372 2147 372 2553 
Q 372 3047 722 3315 
Q 1072 3584 1716 3584 
Q 2034 3584 2315 3537 
Q 2597 3491 2834 3397 
z
" id="DejaVuSans-73" transform="scale(0.015625)"/>
       <path d="M 1959 3097 
Q 1497 3097 1228 2736 
Q 959 2375 959 1747 
Q 959 1119 1226 758 
Q 1494 397 1959 397 
Q 2419 397 2687 759 
Q 2956 1122 2956 1747 
Q 2956 2369 2687 2733 
Q 2419 3097 1959 3097 
z
M 1959 3584 
Q 2709 3584 3137 3096 
Q 3566 2609 3566 1747 
Q 3566 888 3137 398 
Q 2709 -91 1959 -91 
Q 1206 -91 779 398 
Q 353 888 353 1747 
Q 353 2609 779 3096 
Q 1206 3584 1959 3584 
z
" id="DejaVuSans-6f" transform="scale(0.015625)"/>
       <path d="M 2906 2969 
L 2906 4863 
L 3481 4863 
L 3481 0 
L 2906 0 
L 2906 525 
Q 2725 213 2448 61 
Q 2172 -91 1784 -91 
Q 1150 -91 751 415 
Q 353 922 353 1747 
Q 353 2572 751 3078 
Q 1150 3584 1784 3584 
Q 2172 3584 2448 3432 
Q 2725 3281 2906 2969 
z
M 947 1747 
Q 947 1113 1208 752 
Q 1469 391 1925 391 
Q 2381 391 2643 752 
Q 2906 1113 2906 1747 
Q 2906 2381 2643 2742 
Q 2381 3103 1925 3103 
Q 1469 3103 1208 2742 
Q 947 2381 947 1747 
z
" id="DejaVuSans-64" transform="scale(0.015625)"/>
       <path d="M 3597 1894 
L 3597 1613 
L 953 1613 
Q 991 1019 1311 708 
Q 1631 397 2203 397 
Q 2534 397 2845 478 
Q 3156 559 3463 722 
L 3463 178 
Q 3153 47 2828 -22 
Q 2503 -91 2169 -91 
Q 1331 -91 842 396 
Q 353 884 353 1716 
Q 353 2575 817 3079 
Q 1281 3584 2069 3584 
Q 2775 3584 3186 3129 
Q 3597 2675 3597 1894 
z
M 3022 2063 
Q 3016 2534 2758 2815 
Q 2500 3097 2075 3097 
Q 1594 3097 1305 2825 
Q 1016 2553 972 2059 
L 3022 2063 
z
" id="DejaVuSans-65" transform="scale(0.015625)"/>
      </defs>
      <use xlink:href="#DejaVuSans-45"/>
      <use x="63.183594" xlink:href="#DejaVuSans-70"/>
      <use x="126.660156" xlink:href="#DejaVuSans-69"/>
      <use x="154.443359" xlink:href="#DejaVuSans-73"/>
      <use x="206.542969" xlink:href="#DejaVuSans-6f"/>
      <use x="267.724609" xlink:href="#DejaVuSans-64"/>
      <use x="331.201172" xlink:href="#DejaVuSans-65"/>
      <use x="392.724609" xlink:href="#DejaVuSans-73"/>
     </g>
    </g>
   </g>
   <g id="matplotlib.axis_2">
    <g id="ytick_1">
     <g id="line2d_27">
      <defs>
       <path d="M 0 0 
L -3.5 0 
" id="md9d2dbfa89" style="stroke:#000000;stroke-width:0.8;"/>
      </defs>
      <g>
       <use style="stroke:#000000;stroke-width:0.8;" x="108" xlink:href="#md9d2dbfa89" y="502.707922"/>
      </g>
     </g>
     <g id="text_5">
      <!-- 0.0 -->
      <g transform="translate(85.096875 506.507141)scale(0.1 -0.1)">
       <defs>
        <path d="M 684 794 
L 1344 794 
L 1344 0 
L 684 0 
L 684 794 
z
" id="DejaVuSans-2e" transform="scale(0.015625)"/>
       </defs>
       <use xlink:href="#DejaVuSans-30"/>
       <use x="63.623047" xlink:href="#DejaVuSans-2e"/>
       <use x="95.410156" xlink:href="#DejaVuSans-30"/>
      </g>
     </g>
    </g>
    <g id="ytick_2">
     <g id="line2d_28">
      <g>
       <use style="stroke:#000000;stroke-width:0.8;" x="108" xlink:href="#md9d2dbfa89" y="407.137335"/>
      </g>
     </g>
     <g id="text_6">
      <!-- 0.2 -->
      <g transform="translate(85.096875 410.936553)scale(0.1 -0.1)">
       <use xlink:href="#DejaVuSans-30"/>
       <use x="63.623047" xlink:href="#DejaVuSans-2e"/>
       <use x="95.410156" xlink:href="#DejaVuSans-32"/>
      </g>
     </g>
    </g>
    <g id="ytick_3">
     <g id="line2d_29">
      <g>
       <use style="stroke:#000000;stroke-width:0.8;" x="108" xlink:href="#md9d2dbfa89" y="311.566747"/>
      </g>
     </g>
     <g id="text_7">
      <!-- 0.4 -->
      <g transform="translate(85.096875 315.365965)scale(0.1 -0.1)">
       <defs>
        <path d="M 2419 4116 
L 825 1625 
L 2419 1625 
L 2419 4116 
z
M 2253 4666 
L 3047 4666 
L 3047 1625 
L 3713 1625 
L 3713 1100 
L 3047 1100 
L 3047 0 
L 2419 0 
L 2419 1100 
L 313 1100 
L 313 1709 
L 2253 4666 
z
" id="DejaVuSans-34" transform="scale(0.015625)"/>
       </defs>
       <use xlink:href="#DejaVuSans-30"/>
       <use x="63.623047" xlink:href="#DejaVuSans-2e"/>
       <use x="95.410156" xlink:href="#DejaVuSans-34"/>
      </g>
     </g>
    </g>
    <g id="ytick_4">
     <g id="line2d_30">
      <g>
       <use style="stroke:#000000;stroke-width:0.8;" x="108" xlink:href="#md9d2dbfa89" y="215.996159"/>
      </g>
     </g>
     <g id="text_8">
      <!-- 0.6 -->
      <g transform="translate(85.096875 219.795378)scale(0.1 -0.1)">
       <defs>
        <path d="M 2113 2584 
Q 1688 2584 1439 2293 
Q 1191 2003 1191 1497 
Q 1191 994 1439 701 
Q 1688 409 2113 409 
Q 2538 409 2786 701 
Q 3034 994 3034 1497 
Q 3034 2003 2786 2293 
Q 2538 2584 2113 2584 
z
M 3366 4563 
L 3366 3988 
Q 3128 4100 2886 4159 
Q 2644 4219 2406 4219 
Q 1781 4219 1451 3797 
Q 1122 3375 1075 2522 
Q 1259 2794 1537 2939 
Q 1816 3084 2150 3084 
Q 2853 3084 3261 2657 
Q 3669 2231 3669 1497 
Q 3669 778 3244 343 
Q 2819 -91 2113 -91 
Q 1303 -91 875 529 
Q 447 1150 447 2328 
Q 447 3434 972 4092 
Q 1497 4750 2381 4750 
Q 2619 4750 2861 4703 
Q 3103 4656 3366 4563 
z
" id="DejaVuSans-36" transform="scale(0.015625)"/>
       </defs>
       <use xlink:href="#DejaVuSans-30"/>
       <use x="63.623047" xlink:href="#DejaVuSans-2e"/>
       <use x="95.410156" xlink:href="#DejaVuSans-36"/>
      </g>
     </g>
    </g>
    <g id="ytick_5">
     <g id="line2d_31">
      <g>
       <use style="stroke:#000000;stroke-width:0.8;" x="108" xlink:href="#md9d2dbfa89" y="120.425571"/>
      </g>
     </g>
     <g id="text_9">
      <!-- 0.8 -->
      <g transform="translate(85.096875 124.22479)scale(0.1 -0.1)">
       <defs>
        <path d="M 2034 2216 
Q 1584 2216 1326 1975 
Q 1069 1734 1069 1313 
Q 1069 891 1326 650 
Q 1584 409 2034 409 
Q 2484 409 2743 651 
Q 3003 894 3003 1313 
Q 3003 1734 2745 1975 
Q 2488 2216 2034 2216 
z
M 1403 2484 
Q 997 2584 770 2862 
Q 544 3141 544 3541 
Q 544 4100 942 4425 
Q 1341 4750 2034 4750 
Q 2731 4750 3128 4425 
Q 3525 4100 3525 3541 
Q 3525 3141 3298 2862 
Q 3072 2584 2669 2484 
Q 3125 2378 3379 2068 
Q 3634 1759 3634 1313 
Q 3634 634 3220 271 
Q 2806 -91 2034 -91 
Q 1263 -91 848 271 
Q 434 634 434 1313 
Q 434 1759 690 2068 
Q 947 2378 1403 2484 
z
M 1172 3481 
Q 1172 3119 1398 2916 
Q 1625 2713 2034 2713 
Q 2441 2713 2670 2916 
Q 2900 3119 2900 3481 
Q 2900 3844 2670 4047 
Q 2441 4250 2034 4250 
Q 1625 4250 1398 4047 
Q 1172 3844 1172 3481 
z
" id="DejaVuSans-38" transform="scale(0.015625)"/>
       </defs>
       <use xlink:href="#DejaVuSans-30"/>
       <use x="63.623047" xlink:href="#DejaVuSans-2e"/>
       <use x="95.410156" xlink:href="#DejaVuSans-38"/>
      </g>
     </g>
    </g>
    <g id="text_10">
     <!-- State-Value Function -->
     <g transform="translate(79.017187 342.210469)rotate(-90)scale(0.1 -0.1)">
      <defs>
       <path d="M 3425 4513 
L 3425 3897 
Q 3066 4069 2747 4153 
Q 2428 4238 2131 4238 
Q 1616 4238 1336 4038 
Q 1056 3838 1056 3469 
Q 1056 3159 1242 3001 
Q 1428 2844 1947 2747 
L 2328 2669 
Q 3034 2534 3370 2195 
Q 3706 1856 3706 1288 
Q 3706 609 3251 259 
Q 2797 -91 1919 -91 
Q 1588 -91 1214 -16 
Q 841 59 441 206 
L 441 856 
Q 825 641 1194 531 
Q 1563 422 1919 422 
Q 2459 422 2753 634 
Q 3047 847 3047 1241 
Q 3047 1584 2836 1778 
Q 2625 1972 2144 2069 
L 1759 2144 
Q 1053 2284 737 2584 
Q 422 2884 422 3419 
Q 422 4038 858 4394 
Q 1294 4750 2059 4750 
Q 2388 4750 2728 4690 
Q 3069 4631 3425 4513 
z
" id="DejaVuSans-53" transform="scale(0.015625)"/>
       <path d="M 1172 4494 
L 1172 3500 
L 2356 3500 
L 2356 3053 
L 1172 3053 
L 1172 1153 
Q 1172 725 1289 603 
Q 1406 481 1766 481 
L 2356 481 
L 2356 0 
L 1766 0 
Q 1100 0 847 248 
Q 594 497 594 1153 
L 594 3053 
L 172 3053 
L 172 3500 
L 594 3500 
L 594 4494 
L 1172 4494 
z
" id="DejaVuSans-74" transform="scale(0.015625)"/>
       <path d="M 2194 1759 
Q 1497 1759 1228 1600 
Q 959 1441 959 1056 
Q 959 750 1161 570 
Q 1363 391 1709 391 
Q 2188 391 2477 730 
Q 2766 1069 2766 1631 
L 2766 1759 
L 2194 1759 
z
M 3341 1997 
L 3341 0 
L 2766 0 
L 2766 531 
Q 2569 213 2275 61 
Q 1981 -91 1556 -91 
Q 1019 -91 701 211 
Q 384 513 384 1019 
Q 384 1609 779 1909 
Q 1175 2209 1959 2209 
L 2766 2209 
L 2766 2266 
Q 2766 2663 2505 2880 
Q 2244 3097 1772 3097 
Q 1472 3097 1187 3025 
Q 903 2953 641 2809 
L 641 3341 
Q 956 3463 1253 3523 
Q 1550 3584 1831 3584 
Q 2591 3584 2966 3190 
Q 3341 2797 3341 1997 
z
" id="DejaVuSans-61" transform="scale(0.015625)"/>
       <path d="M 313 2009 
L 1997 2009 
L 1997 1497 
L 313 1497 
L 313 2009 
z
" id="DejaVuSans-2d" transform="scale(0.015625)"/>
       <path d="M 1831 0 
L 50 4666 
L 709 4666 
L 2188 738 
L 3669 4666 
L 4325 4666 
L 2547 0 
L 1831 0 
z
" id="DejaVuSans-56" transform="scale(0.015625)"/>
       <path d="M 603 4863 
L 1178 4863 
L 1178 0 
L 603 0 
L 603 4863 
z
" id="DejaVuSans-6c" transform="scale(0.015625)"/>
       <path d="M 544 1381 
L 544 3500 
L 1119 3500 
L 1119 1403 
Q 1119 906 1312 657 
Q 1506 409 1894 409 
Q 2359 409 2629 706 
Q 2900 1003 2900 1516 
L 2900 3500 
L 3475 3500 
L 3475 0 
L 2900 0 
L 2900 538 
Q 2691 219 2414 64 
Q 2138 -91 1772 -91 
Q 1169 -91 856 284 
Q 544 659 544 1381 
z
M 1991 3584 
L 1991 3584 
z
" id="DejaVuSans-75" transform="scale(0.015625)"/>
       <path id="DejaVuSans-20" transform="scale(0.015625)"/>
       <path d="M 628 4666 
L 3309 4666 
L 3309 4134 
L 1259 4134 
L 1259 2759 
L 3109 2759 
L 3109 2228 
L 1259 2228 
L 1259 0 
L 628 0 
L 628 4666 
z
" id="DejaVuSans-46" transform="scale(0.015625)"/>
       <path d="M 3513 2113 
L 3513 0 
L 2938 0 
L 2938 2094 
Q 2938 2591 2744 2837 
Q 2550 3084 2163 3084 
Q 1697 3084 1428 2787 
Q 1159 2491 1159 1978 
L 1159 0 
L 581 0 
L 581 3500 
L 1159 3500 
L 1159 2956 
Q 1366 3272 1645 3428 
Q 1925 3584 2291 3584 
Q 2894 3584 3203 3211 
Q 3513 2838 3513 2113 
z
" id="DejaVuSans-6e" transform="scale(0.015625)"/>
       <path d="M 3122 3366 
L 3122 2828 
Q 2878 2963 2633 3030 
Q 2388 3097 2138 3097 
Q 1578 3097 1268 2742 
Q 959 2388 959 1747 
Q 959 1106 1268 751 
Q 1578 397 2138 397 
Q 2388 397 2633 464 
Q 2878 531 3122 666 
L 3122 134 
Q 2881 22 2623 -34 
Q 2366 -91 2075 -91 
Q 1284 -91 818 406 
Q 353 903 353 1747 
Q 353 2603 823 3093 
Q 1294 3584 2113 3584 
Q 2378 3584 2631 3529 
Q 2884 3475 3122 3366 
z
" id="DejaVuSans-63" transform="scale(0.015625)"/>
      </defs>
      <use xlink:href="#DejaVuSans-53"/>
      <use x="63.476562" xlink:href="#DejaVuSans-74"/>
      <use x="102.685547" xlink:href="#DejaVuSans-61"/>
      <use x="163.964844" xlink:href="#DejaVuSans-74"/>
      <use x="203.173828" xlink:href="#DejaVuSans-65"/>
      <use x="264.697266" xlink:href="#DejaVuSans-2d"/>
      <use x="294.90625" xlink:href="#DejaVuSans-56"/>
      <use x="355.564453" xlink:href="#DejaVuSans-61"/>
      <use x="416.84375" xlink:href="#DejaVuSans-6c"/>
      <use x="444.626953" xlink:href="#DejaVuSans-75"/>
      <use x="508.005859" xlink:href="#DejaVuSans-65"/>
      <use x="569.529297" xlink:href="#DejaVuSans-20"/>
      <use x="601.316406" xlink:href="#DejaVuSans-46"/>
      <use x="653.335938" xlink:href="#DejaVuSans-75"/>
      <use x="716.714844" xlink:href="#DejaVuSans-6e"/>
      <use x="780.09375" xlink:href="#DejaVuSans-63"/>
      <use x="835.074219" xlink:href="#DejaVuSans-74"/>
      <use x="874.283203" xlink:href="#DejaVuSans-69"/>
      <use x="902.066406" xlink:href="#DejaVuSans-6f"/>
      <use x="963.248047" xlink:href="#DejaVuSans-6e"/>
     </g>
    </g>
   </g>
   <g id="line2d_32">
    <path clip-path="url(#pf168043f17)" d="M -1 444.558408 
L 138.436364 444.528773 
L 206.352724 448.102076 
L 246.081248 458.136233 
L 274.269084 453.888692 
L 296.133268 431.834686 
L 313.997608 435.63192 
L 329.101691 451.420693 
L 342.185444 456.094017 
L 353.726132 448.404559 
L 364.049628 434.000279 
L 373.388367 419.69604 
L 381.913968 418.522167 
L 389.75676 420.258311 
L 397.018052 424.390789 
L 403.778152 416.285681 
L 410.101804 399.234607 
L 416.041962 398.133406 
L 421.642492 370.976315 
L 426.940138 395.924656 
L 431.965988 410.506305 
L 436.746575 402.78937 
L 441.304727 415.048133 
L 445.660226 425.629175 
L 449.830328 410.135225 
L 453.830173 408.197705 
L 457.67312 413.914658 
L 461.371016 404.777915 
L 464.934412 409.614125 
L 468.37275 421.235401 
L 471.694512 433.293276 
L 474.907344 432.443485 
L 478.018164 417.258238 
L 481.033251 438.612187 
L 483.958322 437.087087 
L 486.798596 435.409481 
L 489.558852 421.409261 
L 492.243474 419.771794 
L 494.856498 425.894765 
L 497.401644 434.411298 
L 499.882349 448.461523 
L 502.301795 447.36947 
L 504.662936 432.894375 
L 506.968515 439.355765 
L 509.221087 431.793329 
L 511.423036 431.12293 
L 513.576587 423.114345 
L 515.68382 427.187979 
L 517.746688 429.327545 
L 519.767019 421.210426 
L 521.746533 421.963531 
L 523.686846 428.887402 
L 525.58948 418.384677 
L 527.455872 426.077643 
L 529.287376 418.531964 
L 531.085272 422.702199 
L 532.850772 418.587759 
L 534.585022 429.828778 
L 536.28911 434.352941 
L 537.964067 431.232142 
L 539.610872 427.262735 
L 541.230456 436.405814 
L 542.823704 421.2176 
L 544.391459 415.002504 
L 545.934524 423.711939 
L 547.453665 420.143816 
L 548.949611 425.745476 
L 550.423062 426.409021 
L 551.874682 430.971022 
L 553.30511 424.555493 
L 554.714956 421.908462 
L 556.104804 426.762131 
L 557.475212 428.507992 
L 558.826717 421.683527 
L 560.159835 419.656102 
L 561.475057 430.911878 
L 562.772859 434.74789 
L 564.053695 433.201613 
L 565.318004 434.62144 
L 566.566207 433.914329 
L 567.798709 434.828701 
L 569.015899 432.102239 
L 570.218155 434.232713 
L 571.405837 436.569332 
L 572.579296 433.818733 
L 573.738867 435.310891 
L 574.884875 438.034916 
L 576.017634 434.406282 
L 577.137448 432.21377 
L 578.244607 438.207872 
L 580.422088 448.074037 
L 582.552228 442.960446 
L 583.60018 441.516815 
L 584.637043 431.277766 
L 585.663048 429.377473 
L 586.678421 431.790707 
L 587.683379 434.619092 
L 588.678135 431.265853 
L 589.662893 426.860835 
L 590.637852 429.111106 
L 591.603206 425.49312 
L 592.559141 427.34903 
L 593.50584 425.862022 
L 594.44348 425.315281 
L 595.372232 425.8528 
L 596.292263 431.018575 
L 597.203736 424.63259 
L 598.106808 421.988476 
L 599.001632 421.999608 
L 599.888358 421.63612 
L 600.767132 416.666632 
L 601.638094 416.261325 
L 602.501382 419.5201 
L 603.357131 420.702302 
L 604.205471 418.179771 
L 605.046528 419.435806 
L 605.880427 419.824373 
L 606.70729 419.458644 
L 607.527233 416.259162 
L 608.340371 421.335168 
L 609.146816 412.582736 
L 609.946679 414.793819 
L 610.740065 417.487325 
L 611.527078 420.810544 
L 612.30782 421.349038 
L 613.08239 419.825949 
L 613.850884 419.558241 
L 614.613399 422.993465 
L 615.370025 423.208533 
L 616.865971 426.502686 
L 617.605466 427.685068 
L 618.339422 429.375923 
L 619.06792 431.92321 
L 619.791042 431.770103 
L 620.508867 432.672106 
L 621.22147 432.980654 
L 621.928929 434.501129 
L 622.631316 432.805749 
L 623.328704 430.173348 
L 624.021164 430.981306 
L 624.708764 432.224146 
L 625.391572 431.412781 
L 626.069655 433.538395 
L 626.743078 434.121199 
L 627.411903 435.978687 
L 628.076195 435.159336 
L 628.736013 433.915194 
L 629.391417 434.042411 
L 630.042467 434.997228 
L 630.689219 434.852978 
L 631.33173 432.476859 
L 631.970055 427.989784 
L 632.604249 428.271533 
L 633.234364 428.890351 
L 633.860453 427.77055 
L 634.482567 428.755241 
L 635.100756 431.054106 
L 635.715069 430.799341 
L 636.325554 430.172402 
L 636.93226 431.285944 
L 637.535231 430.644171 
L 638.134515 427.56727 
L 638.730156 428.432854 
L 639.322197 427.781483 
L 639.910683 429.005942 
L 641.077157 433.045776 
L 641.655227 430.766385 
L 642.229906 429.837567 
L 642.801235 429.808971 
L 643.369252 431.532522 
L 643.933994 429.331496 
L 644.495501 428.592331 
L 645.053808 428.981554 
L 645.608951 427.478454 
L 646.160967 428.61579 
L 647.255756 430.302464 
L 647.798598 430.251761 
L 648.87534 430.665025 
L 649.409307 430.656233 
L 649.940379 430.481514 
L 650.468588 429.936643 
L 650.993965 428.649129 
L 651.516541 429.230403 
L 652.036343 428.654897 
L 652.553403 428.36805 
L 653.067749 428.569632 
L 653.579408 428.942449 
L 654.594781 427.452414 
L 655.098549 427.470268 
L 656.09838 426.936861 
L 656.594495 425.892169 
L 657.088111 426.504075 
L 657.579253 425.542597 
L 658.067946 424.973785 
L 658.554212 426.042145 
L 659.9987 424.694368 
L 660.475501 423.786782 
L 660.949994 424.65682 
L 661.422201 424.915785 
L 661.892142 425.422219 
L 662.35984 426.093837 
L 662.825317 426.126789 
L 663.288592 426.471172 
L 664.208623 426.185105 
L 664.665419 426.206021 
L 665.120096 426.679933 
L 665.572672 426.845109 
L 666.023168 426.368387 
L 666.471601 426.54731 
L 666.917992 426.167976 
L 667.362358 427.172994 
L 667.804718 426.740452 
L 668.24509 427.464491 
L 668.683492 427.48617 
L 669.119941 428.035132 
L 669.987049 428.5836 
L 670.417743 428.263143 
L 670.846551 428.121483 
L 671.273491 428.230904 
L 671.698579 427.781139 
L 672.121831 428.505239 
L 672.543262 427.51707 
L 672.962888 426.911483 
L 673.796788 427.363355 
L 674.211091 427.443024 
L 674.62365 427.285219 
L 675.034479 427.400097 
L 675.443593 427.65427 
L 676.256731 427.677104 
L 677.463924 428.501569 
L 677.863039 429.15111 
L 678.260535 428.971632 
L 678.656425 429.135241 
L 679.050721 429.481371 
L 679.834586 429.329037 
L 680.61223 428.750025 
L 680.99875 428.749185 
L 681.767245 428.37485 
L 682.149243 427.274174 
L 682.529759 427.430127 
L 682.908802 427.225462 
L 683.286385 427.418215 
L 683.662518 427.389588 
L 684.037213 427.527883 
L 684.410481 427.493339 
L 685.152777 428.064076 
L 685.521826 427.228215 
L 686.255782 427.635448 
L 686.620708 427.712223 
L 686.98428 428.302616 
L 687.346508 428.077303 
L 687.707402 428.046936 
L 688.066972 427.856809 
L 688.425227 427.520794 
L 688.782177 427.893846 
L 689.137831 427.916972 
L 689.492198 428.18958 
L 690.197112 428.456675 
L 690.547676 428.900004 
L 690.896991 428.410019 
L 691.937524 428.413159 
L 693.307932 428.639938 
L 693.64756 428.257182 
L 693.986015 428.051363 
L 694.323305 428.408037 
L 694.659438 427.890379 
L 695.328263 428.188442 
L 695.660972 428.142657 
L 695.992555 428.297302 
L 696.323019 428.735478 
L 696.652373 428.610539 
L 696.980623 428.304077 
L 697.307777 428.47426 
L 697.958827 428.146105 
L 698.282736 428.25509 
L 699.24809 429.019071 
L 699.567772 428.828608 
L 699.886415 428.292177 
L 700.204025 428.296199 
L 700.520609 427.862742 
L 700.836173 428.189596 
L 701.150724 428.240604 
L 701.464269 427.937313 
L 702.088364 428.132431 
L 702.398927 428.414808 
L 702.708509 428.396565 
L 703.324754 428.770455 
L 703.631429 428.645329 
L 703.937147 428.933581 
L 704.545737 427.831916 
L 704.84862 428.091609 
L 705.150569 428.165023 
L 705.451591 428.589673 
L 705.751691 428.560171 
L 706.050875 428.715192 
L 706.349148 428.512566 
L 706.646516 428.503782 
L 706.942984 428.002961 
L 707.238558 428.413056 
L 707.533242 427.986999 
L 707.827043 427.166698 
L 708.119966 427.036227 
L 708.412016 427.368324 
L 708.703198 427.37631 
L 709.282978 427.22833 
L 709.571587 426.758209 
L 709.859348 426.945179 
L 710.146266 426.793945 
L 710.432347 427.130531 
L 711.002015 428.222688 
L 711.285612 427.953798 
L 711.850354 426.84699 
L 712.970168 427.699321 
L 713.248133 427.647225 
L 713.525311 427.756058 
L 713.801708 427.662762 
L 714.077328 428.051062 
L 714.352174 428.158841 
L 714.626251 428.082003 
L 714.899564 428.508106 
L 715.172117 428.540368 
L 715.443913 428.086089 
L 715.714958 428.087089 
L 716.254808 428.728421 
L 716.523622 428.645101 
L 716.7917 428.815932 
L 717.325667 428.791559 
L 717.856739 428.486298 
L 718.1212 428.75253 
L 718.384948 428.702591 
L 718.647989 427.779178 
L 718.910326 427.54006 
L 719.432901 428.452808 
L 719.693147 428.525149 
L 719.952703 429.064709 
L 720.211574 429.182019 
L 720.469763 429.60535 
L 720.727273 429.790964 
L 721.240273 429.860369 
L 722.00477 429.459665 
L 722.258283 428.586249 
L 722.511141 429.201989 
L 722.763349 429.048908 
L 723.014909 429.439095 
L 723.265825 429.020171 
L 723.5161 429.420942 
L 723.765737 429.521389 
L 725.25035 430.767662 
L 725.495613 430.64279 
L 725.740264 430.68457 
L 725.984306 431.392197 
L 726.227741 431.379222 
L 726.712804 432.101092 
L 726.954438 431.904225 
L 727.435926 430.453726 
L 727.675786 430.440994 
L 728.153751 430.742719 
L 728.391862 430.739292 
L 728.629395 430.480537 
L 728.866354 430.663734 
L 729.573813 429.557825 
L 729.808502 429.739331 
L 730.04263 429.2841 
L 730.2762 429.473377 
L 730.509215 429.298847 
L 730.741677 429.321673 
L 730.973588 429.848652 
L 731.895784 429.216183 
L 732.58178 429.974306 
L 732.809381 429.680471 
L 733.036456 430.097695 
L 733.263005 430.126772 
L 733.714539 428.772413 
L 734.164001 428.949112 
L 734.387961 428.899053 
L 734.611411 428.629455 
L 734.834352 428.577472 
L 735.056787 428.351807 
L 735.500148 428.508471 
L 735.721079 427.649978 
L 736.161451 428.101546 
L 736.380897 427.844602 
L 736.599852 428.062576 
L 736.81832 427.913722 
L 737.036301 427.94393 
L 737.470814 428.426037 
L 737.68735 428.421538 
L 737.903409 428.835425 
L 738.334103 428.531105 
L 738.548742 428.639905 
L 738.762911 428.347546 
L 738.976614 428.318399 
L 739.189851 428.705656 
L 739.402626 428.539075 
L 739.614939 427.493431 
L 739.826793 428.04983 
L 740.249133 427.089653 
L 740.459622 426.150194 
L 740.66966 426.719424 
L 741.088389 427.134802 
L 741.297085 426.837258 
L 741.713148 427.128782 
L 741.920518 427.193022 
L 742.333948 427.6438 
L 742.54001 427.461532 
L 742.74564 427.896316 
L 742.950839 427.858771 
L 743.155609 428.068806 
L 743.359953 428.59625 
L 743.563871 427.655181 
L 743.767365 427.767355 
L 744.375326 428.701389 
L 744.577144 428.377991 
L 744.979537 429.571913 
L 745.580045 429.430726 
L 745.978349 430.311649 
L 746.176895 430.387979 
L 746.37504 430.895494 
L 746.770131 430.593942 
L 746.967081 430.892355 
L 747.163636 430.60112 
L 747.163636 430.60112 
" style="fill:none;stroke:#1f77b4;stroke-linecap:square;stroke-width:1.5;"/>
   </g>
   <g id="line2d_33">
    <path clip-path="url(#pf168043f17)" d="M -1 431.792533 
L 747.163636 431.792533 
L 747.163636 431.792533 
" style="fill:none;stroke:#000000;stroke-dasharray:5.55,2.4;stroke-dashoffset:0;stroke-width:1.5;"/>
   </g>
   <g id="line2d_34">
    <path clip-path="url(#pf168043f17)" d="M -1 398.774077 
L 138.436364 398.735512 
L 206.352724 395.495623 
L 246.081248 399.533995 
L 274.269084 369.425781 
L 296.133268 375.995963 
L 313.997608 378.531858 
L 329.101691 380.53445 
L 342.185444 364.426385 
L 353.726132 340.311067 
L 364.049628 344.602853 
L 373.388367 309.621539 
L 381.913968 311.957917 
L 389.75676 347.389534 
L 397.018052 350.699079 
L 403.778152 339.214027 
L 410.101804 319.288977 
L 416.041962 325.74878 
L 421.642492 282.317372 
L 426.940138 327.267787 
L 431.965988 324.438777 
L 436.746575 328.869734 
L 441.304727 341.565405 
L 445.660226 337.858241 
L 449.830328 333.844563 
L 453.830173 327.977141 
L 457.67312 336.727705 
L 461.371016 326.246338 
L 464.934412 318.031342 
L 468.37275 342.133244 
L 471.694512 357.897744 
L 474.907344 344.078661 
L 478.018164 343.62792 
L 481.033251 355.371997 
L 483.958322 357.229182 
L 486.798596 359.515761 
L 489.558852 335.220766 
L 492.243474 340.948172 
L 494.856498 362.221202 
L 497.401644 370.121711 
L 499.882349 388.541153 
L 502.301795 376.28804 
L 504.662936 350.28909 
L 506.968515 353.98135 
L 509.221087 348.060626 
L 511.423036 346.006235 
L 513.576587 342.089402 
L 515.68382 341.678606 
L 517.746688 343.917315 
L 519.767019 337.293529 
L 521.746533 331.899783 
L 523.686846 342.94185 
L 525.58948 325.207301 
L 527.455872 333.94809 
L 529.287376 333.46139 
L 531.085272 348.569407 
L 532.850772 330.83327 
L 534.585022 358.354149 
L 536.28911 366.590685 
L 537.964067 363.434644 
L 539.610872 355.928056 
L 541.230456 358.533558 
L 542.823704 332.469787 
L 544.391459 325.85636 
L 545.934524 331.201268 
L 547.453665 343.168543 
L 550.423062 355.271132 
L 551.874682 355.910163 
L 553.30511 343.00128 
L 554.714956 342.024291 
L 556.104804 345.478362 
L 557.475212 354.064411 
L 558.826717 348.7902 
L 560.159835 347.510862 
L 561.475057 362.518437 
L 562.772859 371.003513 
L 564.053695 361.823482 
L 566.566207 356.372072 
L 567.798709 364.946255 
L 569.015899 358.682605 
L 570.218155 357.947584 
L 571.405837 364.786304 
L 572.579296 359.479954 
L 573.738867 355.45627 
L 574.884875 362.043186 
L 576.017634 350.513515 
L 577.137448 349.703359 
L 578.244607 364.342025 
L 579.339396 371.492702 
L 580.422088 387.012599 
L 582.552228 373.426145 
L 584.637043 347.805905 
L 585.663048 347.245679 
L 586.678421 354.193179 
L 587.683379 363.207793 
L 589.662893 342.302299 
L 590.637852 339.054518 
L 591.603206 339.471793 
L 592.559141 344.925355 
L 593.50584 347.687477 
L 594.44348 344.510713 
L 595.372232 342.551372 
L 596.292263 351.780108 
L 597.203736 346.84984 
L 598.106808 347.158884 
L 599.001632 341.984099 
L 599.888358 340.695989 
L 600.767132 337.302618 
L 601.638094 337.24265 
L 602.501382 344.007567 
L 603.357131 344.701198 
L 604.205471 337.781339 
L 605.880427 341.100563 
L 606.70729 344.07576 
L 607.527233 336.781357 
L 608.340371 347.021606 
L 609.146816 338.706285 
L 609.946679 342.123348 
L 611.527078 354.077888 
L 612.30782 350.585539 
L 613.08239 348.296915 
L 613.850884 347.353182 
L 614.613399 357.615153 
L 615.370025 357.032048 
L 616.120853 356.243399 
L 616.865971 361.329217 
L 617.605466 361.932266 
L 618.339422 358.721553 
L 619.06792 360.845373 
L 620.508867 363.55015 
L 621.22147 362.297143 
L 621.928929 369.552209 
L 622.631316 367.070237 
L 623.328704 360.818313 
L 624.021164 361.74818 
L 624.708764 363.75398 
L 625.391572 362.058719 
L 626.069655 368.572244 
L 626.743078 366.655347 
L 627.411903 369.198859 
L 628.076195 363.767747 
L 628.736013 360.655865 
L 629.391417 359.782851 
L 630.042467 362.30592 
L 630.689219 361.996996 
L 631.33173 359.802309 
L 631.970055 352.359587 
L 632.604249 354.39788 
L 633.234364 354.481194 
L 633.860453 352.550977 
L 634.482567 353.553373 
L 635.100756 363.873558 
L 635.715069 363.149437 
L 636.325554 364.650693 
L 636.93226 365.796479 
L 637.535231 362.450057 
L 638.134515 357.868513 
L 638.730156 356.733538 
L 639.322197 357.388484 
L 639.910683 357.497394 
L 640.495656 360.819174 
L 641.077157 366.632683 
L 641.655227 362.025724 
L 642.229906 360.706481 
L 642.801235 360.122962 
L 643.369252 363.348983 
L 643.933994 356.859437 
L 644.495501 358.259142 
L 645.053808 360.746618 
L 645.608951 357.515424 
L 646.160967 357.087366 
L 646.709891 359.104891 
L 647.255756 360.460414 
L 647.798598 360.564264 
L 648.87534 363.078381 
L 649.409307 363.677784 
L 649.940379 363.166617 
L 650.468588 360.72904 
L 650.993965 357.242438 
L 651.516541 357.214522 
L 652.553403 353.882648 
L 653.067749 355.277087 
L 653.579408 354.593788 
L 654.08841 353.6906 
L 654.594781 353.337592 
L 655.098549 353.256795 
L 655.59974 352.879757 
L 656.09838 352.089005 
L 656.594495 349.530462 
L 657.088111 348.980947 
L 657.579253 349.796857 
L 658.067946 349.551849 
L 658.554212 352.017603 
L 659.038078 351.524961 
L 659.9987 350.936044 
L 660.475501 349.827233 
L 660.949994 350.254743 
L 661.422201 349.562706 
L 661.892142 351.283687 
L 662.35984 352.057153 
L 662.825317 351.361784 
L 663.288592 351.264898 
L 663.749688 350.773687 
L 664.208623 350.891119 
L 664.665419 350.166419 
L 665.120096 350.012665 
L 665.572672 350.19223 
L 666.023168 350.010499 
L 666.471601 350.327886 
L 666.917992 348.945211 
L 667.362358 351.254223 
L 667.804718 350.479803 
L 668.24509 352.490476 
L 668.683492 352.034025 
L 669.554454 353.881865 
L 669.987049 353.862772 
L 670.846551 353.116248 
L 671.273491 354.154816 
L 671.698579 352.681093 
L 672.121831 354.230868 
L 672.543262 353.241783 
L 672.962888 351.772196 
L 673.380725 351.267145 
L 673.796788 352.163223 
L 674.211091 351.740475 
L 674.62365 351.696882 
L 675.034479 351.484001 
L 675.443593 352.158925 
L 675.851005 351.393017 
L 676.256731 351.163033 
L 676.660783 351.76411 
L 677.463924 351.966518 
L 677.863039 353.602383 
L 678.656425 353.765197 
L 679.050721 354.20585 
L 679.443438 353.931264 
L 679.834586 354.555883 
L 680.22418 354.580486 
L 680.61223 354.347881 
L 680.99875 354.368737 
L 681.383751 353.963964 
L 681.767245 353.786842 
L 682.149243 351.939149 
L 682.529759 352.942796 
L 682.908802 352.877475 
L 683.286385 352.581209 
L 683.662518 352.501427 
L 684.037213 352.922477 
L 684.410481 352.742117 
L 684.782332 354.481483 
L 685.152777 354.812985 
L 685.521826 353.696759 
L 686.620708 355.239689 
L 686.98428 356.283942 
L 687.346508 355.772775 
L 687.707402 355.809941 
L 688.066972 355.326014 
L 688.425227 355.068741 
L 688.782177 355.388913 
L 689.137831 354.742443 
L 689.492198 354.940139 
L 689.845289 354.783643 
L 690.197112 355.190057 
L 690.547676 356.215301 
L 690.896991 355.546594 
L 691.591906 354.821167 
L 692.281927 355.080903 
L 692.967123 354.627539 
L 693.307932 354.552332 
L 693.986015 353.212943 
L 694.323305 353.114392 
L 694.659438 352.079897 
L 695.328263 351.997368 
L 695.660972 352.736393 
L 695.992555 353.08352 
L 696.323019 353.847065 
L 696.652373 353.832962 
L 696.980623 353.07287 
L 697.307777 353.680881 
L 697.633843 353.959053 
L 697.958827 353.328505 
L 698.605579 354.30953 
L 698.927361 354.740136 
L 699.24809 354.720362 
L 699.567772 354.310849 
L 699.886415 353.016335 
L 700.204025 353.470961 
L 700.520609 353.040217 
L 700.836173 353.517275 
L 701.150724 353.584325 
L 701.464269 352.974953 
L 701.776813 353.498475 
L 702.088364 353.410428 
L 702.398927 354.493926 
L 702.708509 354.506214 
L 703.017116 354.760009 
L 703.324754 355.498942 
L 703.631429 355.058087 
L 703.937147 355.39595 
L 704.241914 354.41077 
L 704.545737 353.929621 
L 704.84862 354.513664 
L 705.451591 356.040963 
L 705.751691 356.597631 
L 706.050875 357.470548 
L 706.646516 356.550863 
L 706.942984 355.274262 
L 707.238558 355.582759 
L 707.827043 353.519184 
L 708.119966 353.300006 
L 708.412016 354.049142 
L 708.703198 354.026181 
L 708.993517 354.74315 
L 709.282978 354.531739 
L 709.571587 353.480491 
L 709.859348 353.795834 
L 710.146266 351.901842 
L 710.432347 352.477594 
L 711.002015 354.953895 
L 711.285612 353.904926 
L 711.56839 353.929715 
L 711.850354 353.10557 
L 712.411861 352.813727 
L 712.970168 353.899681 
L 713.248133 353.321942 
L 713.525311 353.12287 
L 713.801708 353.175916 
L 714.352174 353.603583 
L 714.626251 353.52078 
L 714.899564 354.233466 
L 715.172117 354.183595 
L 715.443913 353.37578 
L 715.714958 353.129355 
L 716.254808 354.968962 
L 716.523622 355.052391 
L 716.7917 354.440171 
L 717.325667 354.171704 
L 717.591563 354.601836 
L 717.856739 353.715969 
L 718.1212 354.842534 
L 718.384948 354.648825 
L 718.647989 353.171608 
L 718.910326 352.557557 
L 719.171962 353.496484 
L 719.432901 353.683382 
L 719.693147 353.555683 
L 719.952703 354.99751 
L 720.211574 354.933396 
L 720.469763 355.915922 
L 720.727273 355.78762 
L 720.984109 356.008889 
L 721.240273 355.702498 
L 721.495768 355.77002 
L 722.00477 355.243319 
L 722.258283 353.387015 
L 722.763349 355.59407 
L 723.014909 355.732851 
L 723.265825 354.759531 
L 723.5161 355.168203 
L 723.765737 354.957275 
L 724.01474 355.426494 
L 724.510855 356.885383 
L 724.757974 357.204783 
L 725.004472 357.932932 
L 725.25035 358.214413 
L 725.495613 357.870446 
L 725.740264 357.091181 
L 725.984306 359.089242 
L 726.227741 358.797782 
L 726.712804 360.053601 
L 726.954438 359.540519 
L 727.195478 357.972142 
L 727.435926 358.130744 
L 727.675786 358.146832 
L 728.153751 358.601007 
L 728.629395 358.707169 
L 728.866354 358.1115 
L 729.102742 358.301364 
L 729.573813 356.875332 
L 729.808502 356.73691 
L 730.04263 355.875421 
L 730.2762 356.321527 
L 730.509215 356.282852 
L 730.741677 355.908805 
L 730.973588 355.880778 
L 731.204952 355.688847 
L 731.435771 355.257622 
L 731.895784 353.119654 
L 732.58178 353.978995 
L 732.809381 353.62525 
L 733.036456 354.386797 
L 733.263005 355.755643 
L 733.489032 355.057599 
L 733.714539 353.911827 
L 733.939528 354.332647 
L 734.164001 354.428412 
L 734.387961 354.823337 
L 734.611411 353.944773 
L 734.834352 353.85977 
L 735.056787 353.363596 
L 735.278718 353.680556 
L 735.500148 353.785607 
L 735.941512 353.103388 
L 736.161451 353.742522 
L 736.380897 352.921846 
L 736.599852 353.486142 
L 736.81832 353.28283 
L 737.470814 354.357553 
L 737.68735 353.948512 
L 738.118993 355.004198 
L 738.334103 354.487175 
L 738.548742 354.596678 
L 738.762911 354.407068 
L 738.976614 354.613633 
L 739.189851 355.013704 
L 739.402626 354.798583 
L 739.614939 353.304671 
L 739.826793 353.866515 
L 740.249133 352.909367 
L 740.459622 351.081284 
L 740.66966 352.626818 
L 740.879248 353.158257 
L 741.088389 353.251859 
L 741.297085 352.732252 
L 741.505337 353.158929 
L 741.713148 353.945579 
L 741.920518 353.975357 
L 742.127451 355.029318 
L 742.333948 355.242239 
L 742.54001 354.384957 
L 742.74564 355.670263 
L 742.950839 355.034681 
L 743.155609 355.046603 
L 743.359953 355.801902 
L 743.563871 354.650489 
L 743.767365 354.79905 
L 744.375326 356.006935 
L 744.577144 355.322834 
L 744.979537 357.152276 
L 745.180115 356.41817 
L 745.380284 356.5188 
L 745.779399 358.134311 
L 745.978349 358.623322 
L 746.37504 360.736721 
L 746.770131 359.917354 
L 746.967081 360.352961 
L 747.163636 359.822265 
L 747.163636 359.822265 
" style="fill:none;stroke:#ff7f0e;stroke-linecap:square;stroke-width:1.5;"/>
   </g>
   <g id="line2d_35">
    <path clip-path="url(#pf168043f17)" d="M -1 359.014829 
L 747.163636 359.014829 
L 747.163636 359.014829 
" style="fill:none;stroke:#000000;stroke-dasharray:5.55,2.4;stroke-dashoffset:0;stroke-width:1.5;"/>
   </g>
   <g id="line2d_36">
    <path clip-path="url(#pf168043f17)" d="M -1 323.502723 
L 138.436364 323.447024 
L 206.352724 325.986987 
L 246.081248 338.403485 
L 274.269084 307.104751 
L 296.133268 312.893752 
L 313.997608 321.02846 
L 329.101691 296.134322 
L 342.185444 273.752191 
L 353.726132 258.01789 
L 364.049628 271.48924 
L 373.388367 225.285644 
L 381.913968 230.173071 
L 389.75676 269.890485 
L 397.018052 275.378098 
L 403.778152 250.460742 
L 410.101804 212.864104 
L 416.041962 207.468337 
L 421.642492 188.660487 
L 426.940138 250.91202 
L 431.965988 245.081424 
L 436.746575 225.210197 
L 441.304727 212.837558 
L 445.660226 242.266423 
L 449.830328 268.042764 
L 453.830173 245.924513 
L 457.67312 270.872175 
L 461.371016 266.841542 
L 464.934412 256.790488 
L 468.37275 270.181045 
L 471.694512 274.671523 
L 474.907344 259.68869 
L 478.018164 278.616285 
L 481.033251 279.21141 
L 483.958322 277.470508 
L 486.798596 293.865634 
L 489.558852 267.735846 
L 492.243474 270.734398 
L 494.856498 296.267177 
L 497.401644 302.397223 
L 499.882349 307.07301 
L 502.301795 267.007747 
L 504.662936 261.509467 
L 506.968515 261.381535 
L 509.221087 254.502174 
L 511.423036 243.762457 
L 513.576587 264.706251 
L 515.68382 261.615636 
L 517.746688 253.941359 
L 519.767019 251.757621 
L 521.746533 251.99864 
L 523.686846 252.621761 
L 525.58948 242.999616 
L 527.455872 257.464905 
L 529.287376 248.56004 
L 531.085272 267.725319 
L 532.850772 232.774114 
L 534.585022 258.907096 
L 536.28911 272.935836 
L 537.964067 281.668207 
L 539.610872 271.327472 
L 541.230456 275.784804 
L 542.823704 252.775771 
L 544.391459 252.49814 
L 545.934524 262.487713 
L 547.453665 283.693581 
L 548.949611 280.606276 
L 550.423062 287.377711 
L 551.874682 267.27432 
L 553.30511 267.590228 
L 554.714956 272.731993 
L 556.104804 274.589164 
L 557.475212 279.913992 
L 558.826717 291.912993 
L 560.159835 285.585259 
L 561.475057 297.832207 
L 562.772859 297.204664 
L 564.053695 277.712048 
L 565.318004 277.69509 
L 566.566207 266.637971 
L 567.798709 274.71441 
L 569.015899 278.902594 
L 570.218155 280.806143 
L 571.405837 295.0851 
L 572.579296 283.135 
L 573.738867 276.037379 
L 574.884875 270.724535 
L 576.017634 250.372825 
L 577.137448 251.95272 
L 578.244607 276.546108 
L 579.339396 276.072086 
L 580.422088 291.690773 
L 581.492947 295.172735 
L 582.552228 284.05352 
L 583.60018 270.683349 
L 584.637043 267.437526 
L 585.663048 266.917284 
L 586.678421 276.83782 
L 587.683379 283.614508 
L 588.678135 271.946897 
L 589.662893 264.309391 
L 590.637852 264.010764 
L 591.603206 269.095154 
L 592.559141 269.181311 
L 593.50584 273.189783 
L 594.44348 269.700396 
L 595.372232 267.668535 
L 596.292263 277.534876 
L 597.203736 276.481253 
L 598.106808 275.861029 
L 599.001632 268.930777 
L 599.888358 270.991349 
L 600.767132 264.722953 
L 601.638094 263.584335 
L 602.501382 266.125054 
L 603.357131 267.347773 
L 604.205471 263.162387 
L 605.880427 269.710371 
L 606.70729 275.504714 
L 607.527233 269.205014 
L 608.340371 276.398359 
L 609.146816 271.536743 
L 609.946679 273.71086 
L 610.740065 282.172943 
L 611.527078 284.334436 
L 612.30782 274.846201 
L 613.08239 275.287546 
L 613.850884 280.336845 
L 614.613399 294.026264 
L 615.370025 289.149633 
L 616.120853 286.109268 
L 616.865971 289.98452 
L 617.605466 292.115483 
L 618.339422 283.956903 
L 619.06792 287.468493 
L 619.791042 289.550386 
L 620.508867 284.136443 
L 621.22147 282.653377 
L 621.928929 298.253332 
L 622.631316 296.444676 
L 623.328704 288.082384 
L 624.021164 286.079544 
L 624.708764 286.572206 
L 625.391572 288.48453 
L 626.069655 292.356264 
L 626.743078 288.045123 
L 627.411903 291.092006 
L 628.076195 283.351907 
L 628.736013 280.249263 
L 629.391417 277.861665 
L 630.042467 279.720543 
L 630.689219 280.728507 
L 631.33173 283.467515 
L 631.970055 275.037101 
L 632.604249 276.784798 
L 633.234364 276.574973 
L 633.860453 270.212834 
L 634.482567 274.626414 
L 635.100756 287.48139 
L 635.715069 287.060282 
L 636.325554 289.986788 
L 636.93226 290.186763 
L 638.134515 279.1846 
L 638.730156 276.239866 
L 639.322197 278.492792 
L 639.910683 275.180886 
L 640.495656 277.53896 
L 641.077157 282.219705 
L 641.655227 278.778786 
L 642.229906 278.678392 
L 642.801235 274.964966 
L 643.369252 277.977004 
L 643.933994 273.364173 
L 644.495501 274.837449 
L 645.053808 277.482956 
L 645.608951 275.55486 
L 646.160967 274.783743 
L 646.709891 276.7541 
L 647.255756 277.357352 
L 647.798598 279.894333 
L 648.87534 285.880853 
L 649.409307 286.216911 
L 649.940379 285.243854 
L 650.468588 282.711144 
L 650.993965 278.871036 
L 651.516541 278.225859 
L 652.036343 277.936386 
L 652.553403 274.449842 
L 653.067749 275.078803 
L 653.579408 273.280615 
L 654.08841 272.102255 
L 654.594781 271.994864 
L 655.098549 271.379906 
L 655.59974 271.205015 
L 656.594495 265.166551 
L 657.088111 265.951846 
L 657.579253 268.944154 
L 658.067946 269.817081 
L 658.554212 272.00488 
L 659.038078 272.812074 
L 659.519566 274.058116 
L 660.475501 275.113353 
L 660.949994 275.160777 
L 661.422201 274.362352 
L 662.35984 277.941414 
L 662.825317 277.566265 
L 663.288592 275.88357 
L 663.749688 275.40169 
L 664.208623 275.270049 
L 664.665419 274.258453 
L 665.120096 272.844718 
L 665.572672 272.047383 
L 666.023168 271.818529 
L 666.471601 273.617742 
L 666.917992 271.640703 
L 667.362358 274.282984 
L 667.804718 273.821003 
L 668.24509 275.267996 
L 668.683492 274.76845 
L 669.554454 277.458979 
L 669.987049 276.659592 
L 670.417743 274.760023 
L 670.846551 274.368029 
L 671.273491 275.998798 
L 671.698579 274.204055 
L 672.121831 276.544724 
L 672.543262 276.748941 
L 673.380725 273.301166 
L 673.796788 274.883958 
L 674.211091 274.510275 
L 674.62365 275.106576 
L 675.034479 274.956206 
L 675.443593 275.038616 
L 675.851005 274.59662 
L 677.063177 274.440976 
L 677.463924 274.037475 
L 677.863039 275.444813 
L 678.260535 275.796779 
L 678.656425 275.761992 
L 679.050721 276.259471 
L 679.443438 276.231244 
L 679.834586 277.029069 
L 680.22418 277.443607 
L 681.383751 277.343955 
L 681.767245 277.523069 
L 682.149243 276.482434 
L 682.529759 277.70227 
L 682.908802 277.449265 
L 683.286385 276.965214 
L 683.662518 276.965033 
L 684.037213 277.404829 
L 684.410481 277.091217 
L 684.782332 278.930108 
L 685.152777 278.617692 
L 685.521826 278.553902 
L 686.255782 280.289749 
L 686.620708 280.369153 
L 686.98428 280.965748 
L 687.346508 280.372151 
L 687.707402 280.57742 
L 688.066972 279.700023 
L 688.782177 280.121333 
L 689.137831 278.954504 
L 689.492198 278.842657 
L 689.845289 278.189307 
L 690.197112 278.855134 
L 690.547676 280.494636 
L 690.896991 280.550761 
L 691.245064 279.381157 
L 691.591906 278.677627 
L 691.937524 278.52932 
L 692.281927 278.256452 
L 692.625124 278.426626 
L 692.967123 277.371214 
L 693.307932 277.303759 
L 694.659438 274.143995 
L 694.994421 273.802279 
L 695.328263 273.102413 
L 695.660972 274.504432 
L 695.992555 274.897705 
L 696.323019 275.469622 
L 696.652373 275.793637 
L 696.980623 275.390855 
L 697.633843 277.858168 
L 697.958827 276.800794 
L 698.282736 277.236902 
L 698.605579 278.541067 
L 698.927361 278.878136 
L 699.24809 278.96273 
L 699.567772 278.415802 
L 699.886415 277.409889 
L 700.204025 277.835297 
L 700.520609 277.238306 
L 701.150724 277.686527 
L 701.464269 277.130365 
L 701.776813 278.474673 
L 702.088364 277.820525 
L 702.398927 279.235001 
L 702.708509 279.526437 
L 703.017116 280.202049 
L 703.324754 280.567253 
L 703.631429 279.785833 
L 703.937147 279.830457 
L 704.545737 278.664562 
L 705.150569 280.965432 
L 705.451591 281.10856 
L 705.751691 282.10594 
L 706.050875 282.347808 
L 706.349148 282.769321 
L 706.646516 282.201553 
L 706.942984 280.785123 
L 707.238558 280.723122 
L 707.533242 280.409966 
L 708.119966 279.451303 
L 708.412016 280.399661 
L 708.703198 280.398275 
L 708.993517 281.620084 
L 709.571587 280.02672 
L 709.859348 280.198277 
L 710.146266 277.505351 
L 710.432347 277.668028 
L 710.717595 278.668165 
L 711.002015 280.292444 
L 711.285612 278.5376 
L 711.56839 279.69319 
L 711.850354 279.27225 
L 712.13151 279.357257 
L 712.411861 278.801308 
L 712.691412 278.973186 
L 712.970168 279.752956 
L 713.248133 279.600721 
L 713.525311 279.7447 
L 713.801708 278.800518 
L 714.352174 279.544755 
L 714.626251 279.304123 
L 714.899564 280.028013 
L 715.172117 280.235736 
L 715.714958 277.68931 
L 715.985255 278.700592 
L 716.254808 279.168124 
L 716.523622 280.058913 
L 717.059047 278.686049 
L 717.325667 278.26145 
L 717.591563 278.917253 
L 717.856739 278.128143 
L 718.1212 279.200745 
L 718.384948 278.616756 
L 718.647989 277.492804 
L 718.910326 277.142735 
L 719.171962 278.700379 
L 719.432901 278.740054 
L 719.693147 277.92762 
L 719.952703 279.083469 
L 720.211574 278.493946 
L 720.469763 279.111805 
L 720.984109 279.404696 
L 721.240273 278.642318 
L 721.495768 279.137278 
L 721.7506 278.70588 
L 722.00477 278.641303 
L 722.258283 276.890253 
L 722.763349 280.11037 
L 723.014909 279.952795 
L 723.265825 278.878874 
L 723.5161 278.754969 
L 723.765737 277.948031 
L 724.01474 278.046371 
L 724.510855 279.238517 
L 725.004472 281.911152 
L 725.25035 281.777302 
L 725.495613 281.505481 
L 725.740264 279.879796 
L 725.984306 282.283676 
L 726.227741 281.690617 
L 726.470573 281.571604 
L 726.712804 282.095337 
L 726.954438 281.390276 
L 727.195478 279.775773 
L 727.435926 280.58041 
L 727.675786 280.526936 
L 728.153751 281.18642 
L 728.391862 281.209701 
L 728.629395 281.356858 
L 728.866354 281.032622 
L 729.102742 282.384905 
L 729.338561 281.538233 
L 729.808502 280.792842 
L 730.04263 279.739378 
L 730.2762 280.286164 
L 730.509215 280.240868 
L 730.973588 279.423942 
L 731.204952 280.864261 
L 731.895784 276.918871 
L 732.58178 277.784987 
L 733.036456 278.260958 
L 733.263005 280.071692 
L 733.489032 279.963816 
L 733.714539 279.204676 
L 734.164001 279.028338 
L 734.387961 279.139525 
L 734.611411 278.001558 
L 734.834352 278.144091 
L 735.056787 277.924776 
L 735.721079 279.726015 
L 735.941512 279.013123 
L 736.161451 280.34137 
L 736.380897 279.874949 
L 736.599852 280.35889 
L 736.81832 279.821367 
L 737.036301 281.117981 
L 737.470814 280.955286 
L 737.68735 280.179715 
L 737.903409 280.128995 
L 738.118993 280.600416 
L 738.548742 280.644514 
L 738.762911 281.134052 
L 738.976614 281.205393 
L 739.189851 280.871188 
L 739.402626 281.270663 
L 739.614939 279.758163 
L 739.826793 279.879435 
L 740.249133 278.444511 
L 740.459622 276.608416 
L 740.66966 278.451044 
L 740.879248 278.954469 
L 741.088389 278.475778 
L 741.297085 277.431038 
L 741.505337 278.06793 
L 741.713148 279.346557 
L 741.920518 279.073291 
L 742.127451 280.537892 
L 742.333948 280.44287 
L 742.54001 279.329685 
L 742.74564 280.25818 
L 742.950839 279.420177 
L 743.155609 279.147831 
L 743.359953 279.750233 
L 743.563871 278.47816 
L 743.767365 278.391421 
L 744.375326 279.79315 
L 744.577144 279.134679 
L 744.778547 280.497864 
L 744.979537 280.797981 
L 745.180115 279.704392 
L 745.580045 280.712682 
L 745.779399 281.978035 
L 745.978349 282.00184 
L 746.37504 285.11615 
L 746.572785 284.813261 
L 746.770131 284.905243 
L 746.967081 285.358816 
L 747.163636 285.374475 
L 747.163636 285.374475 
" style="fill:none;stroke:#2ca02c;stroke-linecap:square;stroke-width:1.5;"/>
   </g>
   <g id="line2d_37">
    <path clip-path="url(#pf168043f17)" d="M -1 283.334234 
L 747.163636 283.334234 
L 747.163636 283.334234 
" style="fill:none;stroke:#000000;stroke-dasharray:5.55,2.4;stroke-dashoffset:0;stroke-width:1.5;"/>
   </g>
   <g id="line2d_38">
    <path clip-path="url(#pf168043f17)" d="M -1 297.205604 
L 138.436364 297.14348 
L 206.352724 279.212194 
L 246.081248 261.29842 
L 274.269084 237.475327 
L 296.133268 223.449136 
L 313.997608 232.014646 
L 329.101691 198.515747 
L 342.185444 182.951604 
L 353.726132 173.174765 
L 364.049628 190.575561 
L 373.388367 165.346421 
L 381.913968 174.842782 
L 389.75676 193.58104 
L 397.018052 189.857952 
L 403.778152 160.999748 
L 410.101804 160.0472 
L 416.041962 136.859889 
L 421.642492 120.71391 
L 426.940138 167.764753 
L 431.965988 182.711481 
L 441.304727 143.814296 
L 445.660226 160.802663 
L 449.830328 181.009102 
L 453.830173 171.913512 
L 457.67312 199.223675 
L 461.371016 188.111747 
L 464.934412 173.107394 
L 468.37275 197.662672 
L 471.694512 196.112256 
L 474.907344 177.710021 
L 478.018164 200.448681 
L 481.033251 178.483553 
L 483.958322 188.371641 
L 486.798596 213.420758 
L 489.558852 198.098842 
L 492.243474 213.501487 
L 494.856498 219.979107 
L 497.401644 228.939334 
L 499.882349 233.318928 
L 502.301795 184.304317 
L 504.662936 177.533748 
L 506.968515 166.197674 
L 509.221087 161.353862 
L 511.423036 166.060901 
L 513.576587 167.581314 
L 515.68382 174.442268 
L 517.746688 169.130961 
L 519.767019 164.268555 
L 521.746533 167.502156 
L 523.686846 174.718351 
L 525.58948 167.1782 
L 527.455872 187.858006 
L 529.287376 167.198134 
L 531.085272 183.38153 
L 532.850772 161.508918 
L 534.585022 179.169245 
L 537.964067 206.495532 
L 539.610872 194.163269 
L 541.230456 192.432969 
L 542.823704 185.603233 
L 544.391459 180.593713 
L 545.934524 193.731736 
L 547.453665 211.546564 
L 548.949611 207.778167 
L 550.423062 212.058909 
L 551.874682 191.24625 
L 553.30511 193.617772 
L 556.104804 199.362011 
L 557.475212 202.219367 
L 558.826717 221.34103 
L 560.159835 220.677541 
L 561.475057 226.073701 
L 562.772859 218.806694 
L 564.053695 194.315787 
L 565.318004 194.374397 
L 566.566207 189.832137 
L 567.798709 195.196763 
L 569.015899 203.365233 
L 570.218155 203.917911 
L 571.405837 220.8442 
L 572.579296 213.219747 
L 573.738867 208.079061 
L 574.884875 196.523857 
L 576.017634 180.117404 
L 577.137448 184.553946 
L 578.244607 199.375785 
L 579.339396 195.13921 
L 580.422088 201.820055 
L 581.492947 206.730999 
L 582.552228 200.591264 
L 583.60018 191.655464 
L 584.637043 187.614908 
L 585.663048 182.223494 
L 586.678421 186.652364 
L 587.683379 191.868014 
L 588.678135 190.086226 
L 589.662893 186.17711 
L 591.603206 202.885187 
L 592.559141 197.95825 
L 593.50584 200.866106 
L 594.44348 196.234149 
L 595.372232 195.851812 
L 596.292263 201.996193 
L 597.203736 193.322684 
L 598.106808 196.60909 
L 599.001632 193.467799 
L 599.888358 200.345073 
L 600.767132 191.884598 
L 601.638094 189.060007 
L 602.501382 193.863579 
L 604.205471 192.302767 
L 605.046528 200.085709 
L 605.880427 199.273732 
L 606.70729 205.736879 
L 607.527233 196.882125 
L 608.340371 197.969666 
L 609.146816 192.502806 
L 609.946679 194.970063 
L 610.740065 202.145052 
L 611.527078 206.62217 
L 612.30782 198.694457 
L 613.08239 199.675326 
L 613.850884 203.135262 
L 614.613399 210.798292 
L 615.370025 203.541175 
L 616.120853 202.531921 
L 616.865971 202.805193 
L 617.605466 208.408927 
L 618.339422 203.852997 
L 619.06792 206.794591 
L 619.791042 206.357828 
L 620.508867 200.959631 
L 621.22147 200.418757 
L 621.928929 210.400326 
L 622.631316 216.639401 
L 623.328704 211.109081 
L 624.021164 207.650696 
L 624.708764 207.213504 
L 625.391572 209.900699 
L 626.069655 206.505083 
L 626.743078 205.236659 
L 627.411903 209.409868 
L 628.076195 203.164713 
L 628.736013 201.693231 
L 629.391417 199.661215 
L 630.042467 198.379674 
L 630.689219 198.991224 
L 631.33173 203.783633 
L 631.970055 196.001108 
L 633.234364 195.325015 
L 633.860453 192.80295 
L 634.482567 195.710585 
L 635.100756 202.307972 
L 635.715069 202.647593 
L 636.325554 204.439627 
L 636.93226 203.421836 
L 637.535231 198.347376 
L 638.134515 194.392365 
L 638.730156 192.477071 
L 639.322197 191.34844 
L 639.910683 186.495635 
L 640.495656 188.571684 
L 641.077157 192.357375 
L 641.655227 191.32429 
L 642.229906 191.314783 
L 642.801235 187.641731 
L 643.369252 188.782757 
L 643.933994 186.3858 
L 644.495501 186.08472 
L 645.053808 186.460331 
L 645.608951 186.030987 
L 646.160967 185.778138 
L 646.709891 184.654643 
L 647.255756 185.672795 
L 647.798598 190.277558 
L 648.87534 194.269433 
L 649.409307 192.785308 
L 649.940379 192.3101 
L 650.468588 192.966332 
L 650.993965 191.844109 
L 651.516541 191.558442 
L 652.036343 191.60776 
L 652.553403 187.978257 
L 653.067749 186.327033 
L 653.579408 185.406383 
L 654.08841 185.834422 
L 654.594781 184.344468 
L 655.098549 183.22423 
L 655.59974 182.837476 
L 656.09838 180.404924 
L 656.594495 178.945439 
L 657.088111 182.226498 
L 657.579253 183.924695 
L 658.554212 185.701104 
L 659.038078 186.902992 
L 659.9987 191.791756 
L 660.949994 192.882307 
L 661.422201 192.481801 
L 662.825317 195.250285 
L 663.288592 193.634816 
L 663.749688 193.494139 
L 664.208623 192.724646 
L 664.665419 192.316749 
L 665.120096 190.921985 
L 665.572672 190.642334 
L 666.023168 189.607119 
L 666.471601 190.960705 
L 666.917992 189.620427 
L 667.362358 191.768852 
L 668.683492 192.258915 
L 669.119941 192.979279 
L 669.554454 194.404557 
L 670.846551 191.250506 
L 671.273491 192.473776 
L 671.698579 191.880626 
L 672.543262 193.902324 
L 672.962888 192.207507 
L 673.380725 191.273293 
L 673.796788 193.29005 
L 674.211091 192.868275 
L 674.62365 193.631639 
L 675.443593 194.091514 
L 675.851005 194.62223 
L 676.256731 194.329711 
L 676.660783 193.748454 
L 677.063177 193.904448 
L 677.463924 193.692539 
L 677.863039 193.994075 
L 678.260535 194.02415 
L 678.656425 194.204861 
L 679.443438 195.529463 
L 679.834586 195.271522 
L 680.22418 195.793087 
L 680.99875 195.271924 
L 681.767245 196.053771 
L 682.149243 196.131742 
L 682.529759 197.297876 
L 682.908802 196.457514 
L 683.286385 196.005924 
L 684.037213 196.565533 
L 684.410481 196.255769 
L 684.782332 197.432285 
L 685.521826 197.014312 
L 685.889491 198.275527 
L 686.255782 198.655366 
L 686.620708 198.342373 
L 686.98428 199.036994 
L 687.346508 199.157274 
L 687.707402 199.658385 
L 688.066972 198.764328 
L 688.425227 199.322583 
L 688.782177 199.500448 
L 689.137831 198.952637 
L 689.492198 199.151118 
L 689.845289 198.488609 
L 690.197112 198.715416 
L 690.547676 199.418515 
L 690.896991 199.341854 
L 691.245064 199.018713 
L 691.937524 198.135011 
L 692.281927 197.997427 
L 692.625124 198.388723 
L 693.307932 197.12302 
L 693.986015 196.091545 
L 694.323305 195.1626 
L 694.994421 194.553169 
L 695.328263 194.038624 
L 695.660972 194.750561 
L 695.992555 194.728284 
L 696.323019 194.819547 
L 696.652373 195.129068 
L 696.980623 195.078245 
L 697.307777 196.106236 
L 697.633843 197.809219 
L 697.958827 197.131227 
L 698.282736 196.965456 
L 699.24809 199.678466 
L 699.567772 199.554049 
L 699.886415 199.259654 
L 700.204025 199.362955 
L 700.520609 198.285461 
L 700.836173 198.349235 
L 701.150724 198.624726 
L 701.464269 198.454645 
L 701.776813 199.749145 
L 702.088364 198.922719 
L 702.708509 200.460014 
L 703.017116 200.574068 
L 703.324754 201.056565 
L 703.631429 199.75483 
L 704.241914 198.7964 
L 704.545737 198.089422 
L 705.150569 199.372238 
L 705.451591 198.732514 
L 705.751691 199.177359 
L 706.050875 199.214639 
L 706.349148 200.4645 
L 706.646516 200.225205 
L 706.942984 199.526005 
L 707.238558 199.383849 
L 707.533242 200.290416 
L 707.827043 200.044522 
L 708.119966 199.558673 
L 708.412016 199.359887 
L 708.703198 199.540167 
L 708.993517 201.339411 
L 709.282978 201.186499 
L 709.571587 200.277265 
L 709.859348 200.108397 
L 710.146266 198.492973 
L 710.432347 197.966911 
L 710.717595 199.280083 
L 711.002015 199.970838 
L 711.285612 198.980256 
L 711.56839 200.668338 
L 711.850354 200.421795 
L 712.13151 201.306984 
L 712.411861 201.329426 
L 712.691412 201.63743 
L 712.970168 203.254692 
L 713.248133 203.980839 
L 713.525311 204.271206 
L 713.801708 203.051541 
L 714.077328 203.181202 
L 714.626251 201.855086 
L 715.172117 202.499207 
L 715.443913 201.653292 
L 715.714958 200.35394 
L 715.985255 201.397433 
L 716.254808 201.210019 
L 716.523622 202.247953 
L 716.7917 202.090759 
L 717.059047 201.799762 
L 717.325667 201.968307 
L 717.591563 202.305634 
L 717.856739 202.193989 
L 718.1212 202.24567 
L 718.910326 200.049907 
L 719.171962 200.78908 
L 719.693147 199.70077 
L 719.952703 200.023818 
L 720.211574 199.251618 
L 720.469763 199.153585 
L 720.984109 199.792422 
L 721.240273 198.636384 
L 721.495768 199.365464 
L 721.7506 199.365249 
L 722.258283 197.572052 
L 722.511141 198.874371 
L 722.763349 199.409599 
L 723.265825 198.275779 
L 723.5161 198.028183 
L 724.01474 196.795112 
L 724.510855 198.143356 
L 724.757974 200.760492 
L 725.004472 202.135855 
L 725.25035 202.610198 
L 725.740264 201.343681 
L 725.984306 202.914593 
L 726.227741 202.573992 
L 726.470573 202.012265 
L 726.712804 201.88307 
L 726.954438 201.364308 
L 727.195478 200.012712 
L 727.435926 200.532405 
L 727.675786 200.494688 
L 728.391862 201.704951 
L 728.629395 201.481499 
L 728.866354 201.553968 
L 729.102742 202.90193 
L 729.573813 202.235683 
L 730.04263 201.112923 
L 730.2762 201.383647 
L 730.509215 201.41501 
L 730.741677 200.664275 
L 730.973588 200.941063 
L 731.204952 202.19658 
L 731.895784 200.182131 
L 732.124983 200.513045 
L 732.809381 202.578173 
L 733.036456 202.349686 
L 733.263005 203.445217 
L 733.489032 203.654774 
L 733.714539 202.980534 
L 733.939528 202.670517 
L 734.164001 202.708931 
L 734.387961 202.562413 
L 734.611411 201.771636 
L 734.834352 202.174815 
L 735.056787 201.995927 
L 735.278718 202.150709 
L 735.721079 203.697316 
L 735.941512 203.164799 
L 736.161451 204.649443 
L 736.81832 203.385022 
L 737.036301 204.306457 
L 737.253798 203.942418 
L 737.470814 204.498613 
L 738.118993 203.163196 
L 738.334103 203.435959 
L 738.548742 203.437101 
L 738.762911 203.798246 
L 738.976614 203.503003 
L 739.189851 202.954326 
L 739.402626 203.069726 
L 739.614939 202.070636 
L 739.826793 202.110461 
L 740.459622 199.187683 
L 740.879248 200.261308 
L 741.088389 200.24087 
L 741.297085 198.923959 
L 741.505337 199.487366 
L 741.713148 200.969473 
L 741.920518 200.381089 
L 742.127451 201.783113 
L 742.333948 201.694243 
L 742.54001 200.449414 
L 742.950839 199.508238 
L 743.155609 199.558709 
L 743.359953 200.347222 
L 743.767365 198.949989 
L 744.173091 199.78002 
L 744.375326 200.629524 
L 744.577144 200.51293 
L 744.979537 201.956799 
L 745.180115 201.242875 
L 745.380284 201.28712 
L 745.580045 200.651035 
L 745.779399 201.943816 
L 745.978349 202.090395 
L 746.176895 202.472725 
L 746.37504 204.735941 
L 746.572785 204.34604 
L 746.770131 204.538116 
L 746.967081 205.401286 
L 747.163636 205.677686 
L 747.163636 205.677686 
" style="fill:none;stroke:#d62728;stroke-linecap:square;stroke-width:1.5;"/>
   </g>
   <g id="line2d_39">
    <path clip-path="url(#pf168043f17)" d="M -1 202.362486 
L 747.163636 202.362486 
L 747.163636 202.362486 
" style="fill:none;stroke:#000000;stroke-dasharray:5.55,2.4;stroke-dashoffset:0;stroke-width:1.5;"/>
   </g>
   <g id="line2d_40">
    <path clip-path="url(#pf168043f17)" d="M -1 288.290438 
L 138.436364 288.236644 
L 206.352724 261.600269 
L 246.081248 230.927442 
L 274.269084 199.099309 
L 296.133268 179.188642 
L 313.997608 174.258895 
L 329.101691 151.400851 
L 342.185444 132.577436 
L 353.726132 114.800553 
L 364.049628 126.115863 
L 373.388367 112.907107 
L 381.913968 122.46694 
L 389.75676 122.02961 
L 397.018052 111.793366 
L 403.778152 104.059734 
L 410.101804 94.519472 
L 416.041962 95.57226 
L 421.642492 90.331122 
L 426.940138 107.732802 
L 431.965988 117.082638 
L 436.746575 108.578005 
L 441.304727 103.864944 
L 445.660226 101.357036 
L 449.830328 103.734523 
L 453.830173 98.297037 
L 457.67312 104.611553 
L 464.934412 98.083444 
L 468.37275 127.838537 
L 471.694512 115.318608 
L 474.907344 105.241203 
L 478.018164 107.501822 
L 481.033251 107.000089 
L 483.958322 108.137055 
L 486.798596 121.402501 
L 489.558852 114.069662 
L 492.243474 115.712235 
L 494.856498 116.842445 
L 497.401644 124.433723 
L 499.882349 133.670039 
L 502.301795 120.792238 
L 504.662936 118.941026 
L 506.968515 102.667829 
L 509.221087 90.671253 
L 511.423036 98.185984 
L 513.576587 89.28 
L 515.68382 99.654553 
L 517.746688 94.153486 
L 519.767019 97.166141 
L 521.746533 92.557753 
L 523.686846 95.736915 
L 525.58948 93.630332 
L 527.455872 105.809566 
L 529.287376 100.137512 
L 531.085272 112.730807 
L 532.850772 102.669318 
L 534.585022 106.459275 
L 536.28911 112.741488 
L 537.964067 124.331678 
L 539.610872 119.374651 
L 541.230456 113.229707 
L 542.823704 118.689428 
L 544.391459 104.308164 
L 545.934524 114.667981 
L 547.453665 127.85867 
L 548.949611 123.880252 
L 550.423062 129.266781 
L 551.874682 119.943859 
L 553.30511 115.405722 
L 554.714956 113.344962 
L 556.104804 108.71788 
L 557.475212 108.864395 
L 558.826717 118.979873 
L 560.159835 119.385683 
L 561.475057 122.954036 
L 562.772859 123.570281 
L 564.053695 113.46713 
L 565.318004 114.042188 
L 566.566207 113.796182 
L 567.798709 110.359723 
L 569.015899 115.880355 
L 570.218155 112.760862 
L 571.405837 127.851483 
L 572.579296 123.539525 
L 573.738867 124.250495 
L 574.884875 119.509587 
L 576.017634 111.201973 
L 577.137448 110.812139 
L 578.244607 112.293098 
L 579.339396 113.062315 
L 580.422088 113.508584 
L 581.492947 115.830403 
L 582.552228 114.89078 
L 583.60018 106.741793 
L 584.637043 104.75262 
L 585.663048 99.289165 
L 587.683379 106.01375 
L 588.678135 104.928546 
L 589.662893 108.202519 
L 590.637852 118.120102 
L 591.603206 123.075309 
L 592.559141 119.634277 
L 593.50584 121.614589 
L 594.44348 117.31607 
L 595.372232 116.531729 
L 596.292263 120.332787 
L 597.203736 116.16387 
L 598.106808 117.397856 
L 599.001632 116.492609 
L 599.888358 119.133429 
L 600.767132 114.773852 
L 601.638094 111.912045 
L 602.501382 118.635099 
L 603.357131 115.582926 
L 604.205471 115.490238 
L 605.046528 118.924708 
L 605.880427 114.881412 
L 606.70729 119.825599 
L 607.527233 115.879085 
L 608.340371 112.824508 
L 609.146816 108.028929 
L 609.946679 109.461902 
L 610.740065 115.569399 
L 611.527078 117.56379 
L 612.30782 113.444607 
L 613.08239 113.940151 
L 613.850884 113.776874 
L 614.613399 113.971853 
L 615.370025 111.613431 
L 616.120853 111.867572 
L 616.865971 109.972674 
L 617.605466 113.868808 
L 618.339422 112.544927 
L 619.06792 112.949017 
L 619.791042 110.910012 
L 620.508867 110.534595 
L 621.22147 111.869433 
L 621.928929 115.464043 
L 622.631316 121.926112 
L 623.328704 119.364111 
L 624.708764 116.376784 
L 625.391572 117.166852 
L 626.069655 114.53391 
L 626.743078 113.285659 
L 627.411903 117.052691 
L 628.076195 114.595173 
L 628.736013 115.788134 
L 629.391417 114.4216 
L 630.042467 112.506405 
L 630.689219 111.939379 
L 631.33173 112.188161 
L 631.970055 109.766943 
L 632.604249 108.680241 
L 633.860453 109.025485 
L 634.482567 110.113702 
L 635.100756 112.109926 
L 635.715069 112.377705 
L 636.325554 114.114661 
L 636.93226 113.574349 
L 637.535231 111.2814 
L 638.134515 110.01534 
L 638.730156 110.042319 
L 639.322197 108.487272 
L 639.910683 105.195745 
L 640.495656 105.84391 
L 641.077157 108.419863 
L 641.655227 106.886869 
L 642.229906 106.980276 
L 642.801235 105.695258 
L 643.369252 104.863641 
L 643.933994 104.828536 
L 644.495501 103.413248 
L 645.053808 103.711582 
L 645.608951 103.295435 
L 646.709891 101.603304 
L 647.255756 101.955025 
L 647.798598 104.016069 
L 648.338448 104.593982 
L 648.87534 104.998867 
L 649.409307 103.828033 
L 649.940379 103.18866 
L 650.468588 104.065969 
L 651.516541 103.913095 
L 652.036343 103.805908 
L 652.553403 102.557307 
L 653.067749 101.616423 
L 653.579408 101.588551 
L 654.08841 102.079132 
L 654.594781 101.924094 
L 655.098549 101.174801 
L 655.59974 101.129059 
L 656.09838 100.535683 
L 656.594495 100.562267 
L 657.088111 101.887278 
L 657.579253 101.926339 
L 658.554212 102.746808 
L 659.519566 104.639738 
L 659.9987 106.767874 
L 660.475501 106.457268 
L 660.949994 106.745119 
L 661.422201 106.828145 
L 661.892142 107.182821 
L 662.35984 107.22913 
L 662.825317 108.584675 
L 663.288592 108.279999 
L 664.208623 108.365444 
L 665.120096 107.096399 
L 665.572672 107.249847 
L 666.023168 106.800857 
L 666.917992 106.342289 
L 667.362358 107.115401 
L 667.804718 107.36789 
L 668.24509 107.431762 
L 668.683492 108.010946 
L 669.119941 108.22576 
L 669.554454 108.86436 
L 669.987049 108.474508 
L 670.417743 108.439203 
L 670.846551 107.915555 
L 671.273491 108.378681 
L 671.698579 107.967937 
L 672.121831 107.763509 
L 672.543262 108.773196 
L 672.962888 108.050187 
L 673.380725 107.638514 
L 673.796788 108.351567 
L 674.211091 108.095815 
L 674.62365 108.577249 
L 675.034479 108.697088 
L 675.443593 109.119844 
L 675.851005 109.3733 
L 676.660783 108.869946 
L 677.863039 108.394975 
L 678.260535 108.291651 
L 678.656425 108.66753 
L 679.050721 108.75191 
L 679.443438 108.959177 
L 679.834586 108.934036 
L 680.22418 109.416426 
L 680.61223 109.360799 
L 680.99875 109.108283 
L 682.149243 108.818771 
L 682.529759 109.290556 
L 683.286385 108.502246 
L 684.037213 108.934798 
L 684.410481 108.657475 
L 684.782332 108.930762 
L 685.152777 108.991075 
L 685.521826 109.207599 
L 685.889491 110.281846 
L 686.255782 110.317809 
L 686.620708 110.035353 
L 686.98428 110.656219 
L 687.346508 110.635994 
L 687.707402 111.09414 
L 688.066972 110.601957 
L 688.425227 111.157091 
L 688.782177 111.324849 
L 689.137831 111.289612 
L 689.492198 111.500233 
L 689.845289 111.140806 
L 690.197112 111.010627 
L 690.547676 111.175002 
L 690.896991 111.021526 
L 691.245064 111.379696 
L 691.591906 111.034866 
L 691.937524 111.024768 
L 692.625124 111.336599 
L 692.967123 111.360031 
L 693.986015 110.792192 
L 694.323305 110.242129 
L 694.659438 110.254982 
L 695.328263 109.705586 
L 695.660972 109.848481 
L 695.992555 109.68514 
L 696.323019 109.682995 
L 696.980623 110.004286 
L 697.307777 110.315741 
L 697.633843 111.061702 
L 698.605579 110.140085 
L 699.24809 111.183182 
L 699.886415 110.926699 
L 700.204025 110.661323 
L 700.520609 110.191487 
L 701.150724 110.114311 
L 701.464269 110.340738 
L 701.776813 110.716093 
L 702.088364 110.426378 
L 702.398927 110.64751 
L 702.708509 111.111644 
L 703.017116 110.88534 
L 703.324754 111.575617 
L 703.631429 110.836373 
L 703.937147 110.550405 
L 704.241914 110.090976 
L 704.84862 109.847563 
L 705.150569 110.016036 
L 705.451591 109.406812 
L 705.751691 109.241562 
L 706.050875 109.256199 
L 706.349148 109.651667 
L 706.646516 109.735529 
L 707.238558 109.17095 
L 707.533242 109.854071 
L 708.412016 108.635205 
L 708.703198 109.127054 
L 708.993517 110.200456 
L 709.282978 110.718543 
L 709.571587 110.09862 
L 709.859348 109.986585 
L 710.146266 109.345686 
L 710.432347 109.126875 
L 710.717595 110.134713 
L 711.002015 110.320219 
L 711.285612 110.246321 
L 711.56839 110.857001 
L 711.850354 111.039941 
L 712.13151 111.679891 
L 712.411861 111.757665 
L 712.691412 112.303155 
L 712.970168 113.373289 
L 713.248133 113.795214 
L 713.525311 113.723097 
L 714.077328 112.748899 
L 714.352174 112.181924 
L 714.626251 111.874572 
L 714.899564 111.787737 
L 715.172117 112.0939 
L 715.443913 111.591891 
L 715.714958 111.413854 
L 715.985255 112.139867 
L 716.254808 112.171717 
L 716.7917 112.675087 
L 717.059047 112.745777 
L 717.856739 113.346036 
L 718.1212 113.284661 
L 718.384948 113.016816 
L 718.910326 112.144677 
L 719.171962 112.221286 
L 719.432901 111.842047 
L 719.693147 111.921042 
L 719.952703 111.718314 
L 720.469763 110.907691 
L 720.727273 110.917208 
L 720.984109 111.154477 
L 721.240273 110.623264 
L 721.495768 110.809376 
L 721.7506 110.845437 
L 722.258283 110.150147 
L 722.511141 110.746255 
L 722.763349 110.836818 
L 723.014909 110.17455 
L 723.765737 109.741772 
L 724.01474 109.392004 
L 724.263112 109.646647 
L 724.510855 110.202375 
L 724.757974 111.834061 
L 725.25035 113.13587 
L 725.495613 112.960482 
L 725.740264 112.941214 
L 725.984306 113.499086 
L 726.954438 113.210588 
L 727.195478 112.720611 
L 727.435926 113.052166 
L 727.675786 112.934404 
L 727.91506 113.400833 
L 728.153751 113.615057 
L 728.391862 114.084128 
L 728.629395 114.013066 
L 728.866354 114.177346 
L 729.102742 114.957904 
L 729.338561 115.138924 
L 729.573813 115.074631 
L 730.04263 114.699287 
L 730.2762 114.798664 
L 730.509215 114.733646 
L 730.741677 114.184732 
L 731.204952 114.991793 
L 731.435771 115.156243 
L 731.666048 114.778819 
L 731.895784 115.165173 
L 732.124983 114.908062 
L 732.353648 115.256755 
L 732.58178 115.392955 
L 732.809381 116.177367 
L 733.036456 116.236217 
L 733.263005 116.533457 
L 733.489032 116.580758 
L 733.714539 116.300017 
L 733.939528 116.26668 
L 734.387961 116.580998 
L 734.611411 116.260308 
L 734.834352 116.589543 
L 735.056787 116.1821 
L 735.500148 116.564124 
L 735.721079 117.089298 
L 735.941512 116.813267 
L 736.161451 117.269189 
L 736.599852 116.893159 
L 736.81832 116.663757 
L 737.036301 116.613796 
L 737.253798 116.42232 
L 737.470814 116.591294 
L 737.68735 116.295168 
L 737.903409 116.246059 
L 738.118993 116.001805 
L 738.548742 115.999396 
L 738.762911 116.235648 
L 738.976614 116.107742 
L 740.038191 114.426389 
L 740.249133 114.47994 
L 740.459622 113.941345 
L 740.879248 114.074784 
L 741.088389 114.483675 
L 741.297085 114.018903 
L 741.505337 114.242239 
L 741.713148 114.901827 
L 741.920518 114.565998 
L 742.127451 115.25339 
L 742.950839 113.776649 
L 743.359953 114.222708 
L 743.767365 113.4724 
L 744.173091 113.669391 
L 744.778547 114.693664 
L 744.979537 114.842757 
L 745.180115 114.504858 
L 745.580045 114.345387 
L 745.779399 115.017561 
L 745.978349 115.210891 
L 746.176895 115.109905 
L 746.37504 116.329419 
L 746.770131 116.290138 
L 747.163636 116.977141 
L 747.163636 116.977141 
" style="fill:none;stroke:#9467bd;stroke-linecap:square;stroke-width:1.5;"/>
   </g>
   <g id="line2d_41">
    <path clip-path="url(#pf168043f17)" d="M -1 115.323154 
L 747.163636 115.323154 
L 747.163636 115.323154 
" style="fill:none;stroke:#000000;stroke-dasharray:5.55,2.4;stroke-dashoffset:0;stroke-width:1.5;"/>
   </g>
   <g id="patch_3">
    <path d="M 108 512.64 
L 108 69.12 
" style="fill:none;stroke:#000000;stroke-linecap:square;stroke-linejoin:miter;stroke-width:0.8;"/>
   </g>
   <g id="patch_4">
    <path d="M 777.6 512.64 
L 777.6 69.12 
" style="fill:none;stroke:#000000;stroke-linecap:square;stroke-linejoin:miter;stroke-width:0.8;"/>
   </g>
   <g id="patch_5">
    <path d="M 108 512.64 
L 777.6 512.64 
" style="fill:none;stroke:#000000;stroke-linecap:square;stroke-linejoin:miter;stroke-width:0.8;"/>
   </g>
   <g id="patch_6">
    <path d="M 108 69.12 
L 777.6 69.12 
" style="fill:none;stroke:#000000;stroke-linecap:square;stroke-linejoin:miter;stroke-width:0.8;"/>
   </g>
   <g id="text_11">
    <!-- EVMC estimates through time vs true values -->
    <g transform="translate(308.937188 63.12)scale(0.12 -0.12)">
     <defs>
      <path d="M 628 4666 
L 1569 4666 
L 2759 1491 
L 3956 4666 
L 4897 4666 
L 4897 0 
L 4281 0 
L 4281 4097 
L 3078 897 
L 2444 897 
L 1241 4097 
L 1241 0 
L 628 0 
L 628 4666 
z
" id="DejaVuSans-4d" transform="scale(0.015625)"/>
      <path d="M 4122 4306 
L 4122 3641 
Q 3803 3938 3442 4084 
Q 3081 4231 2675 4231 
Q 1875 4231 1450 3742 
Q 1025 3253 1025 2328 
Q 1025 1406 1450 917 
Q 1875 428 2675 428 
Q 3081 428 3442 575 
Q 3803 722 4122 1019 
L 4122 359 
Q 3791 134 3420 21 
Q 3050 -91 2638 -91 
Q 1578 -91 968 557 
Q 359 1206 359 2328 
Q 359 3453 968 4101 
Q 1578 4750 2638 4750 
Q 3056 4750 3426 4639 
Q 3797 4528 4122 4306 
z
" id="DejaVuSans-43" transform="scale(0.015625)"/>
      <path d="M 3328 2828 
Q 3544 3216 3844 3400 
Q 4144 3584 4550 3584 
Q 5097 3584 5394 3201 
Q 5691 2819 5691 2113 
L 5691 0 
L 5113 0 
L 5113 2094 
Q 5113 2597 4934 2840 
Q 4756 3084 4391 3084 
Q 3944 3084 3684 2787 
Q 3425 2491 3425 1978 
L 3425 0 
L 2847 0 
L 2847 2094 
Q 2847 2600 2669 2842 
Q 2491 3084 2119 3084 
Q 1678 3084 1418 2786 
Q 1159 2488 1159 1978 
L 1159 0 
L 581 0 
L 581 3500 
L 1159 3500 
L 1159 2956 
Q 1356 3278 1631 3431 
Q 1906 3584 2284 3584 
Q 2666 3584 2933 3390 
Q 3200 3197 3328 2828 
z
" id="DejaVuSans-6d" transform="scale(0.015625)"/>
      <path d="M 3513 2113 
L 3513 0 
L 2938 0 
L 2938 2094 
Q 2938 2591 2744 2837 
Q 2550 3084 2163 3084 
Q 1697 3084 1428 2787 
Q 1159 2491 1159 1978 
L 1159 0 
L 581 0 
L 581 4863 
L 1159 4863 
L 1159 2956 
Q 1366 3272 1645 3428 
Q 1925 3584 2291 3584 
Q 2894 3584 3203 3211 
Q 3513 2838 3513 2113 
z
" id="DejaVuSans-68" transform="scale(0.015625)"/>
      <path d="M 2631 2963 
Q 2534 3019 2420 3045 
Q 2306 3072 2169 3072 
Q 1681 3072 1420 2755 
Q 1159 2438 1159 1844 
L 1159 0 
L 581 0 
L 581 3500 
L 1159 3500 
L 1159 2956 
Q 1341 3275 1631 3429 
Q 1922 3584 2338 3584 
Q 2397 3584 2469 3576 
Q 2541 3569 2628 3553 
L 2631 2963 
z
" id="DejaVuSans-72" transform="scale(0.015625)"/>
      <path d="M 2906 1791 
Q 2906 2416 2648 2759 
Q 2391 3103 1925 3103 
Q 1463 3103 1205 2759 
Q 947 2416 947 1791 
Q 947 1169 1205 825 
Q 1463 481 1925 481 
Q 2391 481 2648 825 
Q 2906 1169 2906 1791 
z
M 3481 434 
Q 3481 -459 3084 -895 
Q 2688 -1331 1869 -1331 
Q 1566 -1331 1297 -1286 
Q 1028 -1241 775 -1147 
L 775 -588 
Q 1028 -725 1275 -790 
Q 1522 -856 1778 -856 
Q 2344 -856 2625 -561 
Q 2906 -266 2906 331 
L 2906 616 
Q 2728 306 2450 153 
Q 2172 0 1784 0 
Q 1141 0 747 490 
Q 353 981 353 1791 
Q 353 2603 747 3093 
Q 1141 3584 1784 3584 
Q 2172 3584 2450 3431 
Q 2728 3278 2906 2969 
L 2906 3500 
L 3481 3500 
L 3481 434 
z
" id="DejaVuSans-67" transform="scale(0.015625)"/>
      <path d="M 191 3500 
L 800 3500 
L 1894 563 
L 2988 3500 
L 3597 3500 
L 2284 0 
L 1503 0 
L 191 3500 
z
" id="DejaVuSans-76" transform="scale(0.015625)"/>
     </defs>
     <use xlink:href="#DejaVuSans-45"/>
     <use x="63.183594" xlink:href="#DejaVuSans-56"/>
     <use x="131.591797" xlink:href="#DejaVuSans-4d"/>
     <use x="217.871094" xlink:href="#DejaVuSans-43"/>
     <use x="287.695312" xlink:href="#DejaVuSans-20"/>
     <use x="319.482422" xlink:href="#DejaVuSans-65"/>
     <use x="381.005859" xlink:href="#DejaVuSans-73"/>
     <use x="433.105469" xlink:href="#DejaVuSans-74"/>
     <use x="472.314453" xlink:href="#DejaVuSans-69"/>
     <use x="500.097656" xlink:href="#DejaVuSans-6d"/>
     <use x="597.509766" xlink:href="#DejaVuSans-61"/>
     <use x="658.789062" xlink:href="#DejaVuSans-74"/>
     <use x="697.998047" xlink:href="#DejaVuSans-65"/>
     <use x="759.521484" xlink:href="#DejaVuSans-73"/>
     <use x="811.621094" xlink:href="#DejaVuSans-20"/>
     <use x="843.408203" xlink:href="#DejaVuSans-74"/>
     <use x="882.617188" xlink:href="#DejaVuSans-68"/>
     <use x="945.996094" xlink:href="#DejaVuSans-72"/>
     <use x="984.859375" xlink:href="#DejaVuSans-6f"/>
     <use x="1046.041016" xlink:href="#DejaVuSans-75"/>
     <use x="1109.419922" xlink:href="#DejaVuSans-67"/>
     <use x="1172.896484" xlink:href="#DejaVuSans-68"/>
     <use x="1236.275391" xlink:href="#DejaVuSans-20"/>
     <use x="1268.0625" xlink:href="#DejaVuSans-74"/>
     <use x="1307.271484" xlink:href="#DejaVuSans-69"/>
     <use x="1335.054688" xlink:href="#DejaVuSans-6d"/>
     <use x="1432.466797" xlink:href="#DejaVuSans-65"/>
     <use x="1493.990234" xlink:href="#DejaVuSans-20"/>
     <use x="1525.777344" xlink:href="#DejaVuSans-76"/>
     <use x="1584.957031" xlink:href="#DejaVuSans-73"/>
     <use x="1637.056641" xlink:href="#DejaVuSans-20"/>
     <use x="1668.84375" xlink:href="#DejaVuSans-74"/>
     <use x="1708.052734" xlink:href="#DejaVuSans-72"/>
     <use x="1749.166016" xlink:href="#DejaVuSans-75"/>
     <use x="1812.544922" xlink:href="#DejaVuSans-65"/>
     <use x="1874.068359" xlink:href="#DejaVuSans-20"/>
     <use x="1905.855469" xlink:href="#DejaVuSans-76"/>
     <use x="1965.035156" xlink:href="#DejaVuSans-61"/>
     <use x="2026.314453" xlink:href="#DejaVuSans-6c"/>
     <use x="2054.097656" xlink:href="#DejaVuSans-75"/>
     <use x="2117.476562" xlink:href="#DejaVuSans-65"/>
     <use x="2179" xlink:href="#DejaVuSans-73"/>
    </g>
   </g>
   <g id="legend_1">
    <g id="patch_7">
     <path d="M 784.6 329.075312 
L 837.60625 329.075312 
Q 839.60625 329.075312 839.60625 327.075312 
L 839.60625 254.684687 
Q 839.60625 252.684687 837.60625 252.684687 
L 784.6 252.684687 
Q 782.6 252.684687 782.6 254.684687 
L 782.6 327.075312 
Q 782.6 329.075312 784.6 329.075312 
z
" style="fill:#ffffff;opacity:0.8;stroke:#cccccc;stroke-linejoin:miter;"/>
    </g>
    <g id="line2d_42">
     <path d="M 786.6 260.783125 
L 806.6 260.783125 
" style="fill:none;stroke:#1f77b4;stroke-linecap:square;stroke-width:1.5;"/>
    </g>
    <g id="line2d_43"/>
    <g id="text_12">
     <!-- V(1) -->
     <g transform="translate(814.6 264.283125)scale(0.1 -0.1)">
      <defs>
       <path d="M 1984 4856 
Q 1566 4138 1362 3434 
Q 1159 2731 1159 2009 
Q 1159 1288 1364 580 
Q 1569 -128 1984 -844 
L 1484 -844 
Q 1016 -109 783 600 
Q 550 1309 550 2009 
Q 550 2706 781 3412 
Q 1013 4119 1484 4856 
L 1984 4856 
z
" id="DejaVuSans-28" transform="scale(0.015625)"/>
       <path d="M 513 4856 
L 1013 4856 
Q 1481 4119 1714 3412 
Q 1947 2706 1947 2009 
Q 1947 1309 1714 600 
Q 1481 -109 1013 -844 
L 513 -844 
Q 928 -128 1133 580 
Q 1338 1288 1338 2009 
Q 1338 2731 1133 3434 
Q 928 4138 513 4856 
z
" id="DejaVuSans-29" transform="scale(0.015625)"/>
      </defs>
      <use xlink:href="#DejaVuSans-56"/>
      <use x="68.408203" xlink:href="#DejaVuSans-28"/>
      <use x="107.421875" xlink:href="#DejaVuSans-31"/>
      <use x="171.044922" xlink:href="#DejaVuSans-29"/>
     </g>
    </g>
    <g id="line2d_44">
     <path d="M 786.6 275.46125 
L 806.6 275.46125 
" style="fill:none;stroke:#ff7f0e;stroke-linecap:square;stroke-width:1.5;"/>
    </g>
    <g id="line2d_45"/>
    <g id="text_13">
     <!-- V(2) -->
     <g transform="translate(814.6 278.96125)scale(0.1 -0.1)">
      <use xlink:href="#DejaVuSans-56"/>
      <use x="68.408203" xlink:href="#DejaVuSans-28"/>
      <use x="107.421875" xlink:href="#DejaVuSans-32"/>
      <use x="171.044922" xlink:href="#DejaVuSans-29"/>
     </g>
    </g>
    <g id="line2d_46">
     <path d="M 786.6 290.139375 
L 806.6 290.139375 
" style="fill:none;stroke:#2ca02c;stroke-linecap:square;stroke-width:1.5;"/>
    </g>
    <g id="line2d_47"/>
    <g id="text_14">
     <!-- V(3) -->
     <g transform="translate(814.6 293.639375)scale(0.1 -0.1)">
      <defs>
       <path d="M 2597 2516 
Q 3050 2419 3304 2112 
Q 3559 1806 3559 1356 
Q 3559 666 3084 287 
Q 2609 -91 1734 -91 
Q 1441 -91 1130 -33 
Q 819 25 488 141 
L 488 750 
Q 750 597 1062 519 
Q 1375 441 1716 441 
Q 2309 441 2620 675 
Q 2931 909 2931 1356 
Q 2931 1769 2642 2001 
Q 2353 2234 1838 2234 
L 1294 2234 
L 1294 2753 
L 1863 2753 
Q 2328 2753 2575 2939 
Q 2822 3125 2822 3475 
Q 2822 3834 2567 4026 
Q 2313 4219 1838 4219 
Q 1578 4219 1281 4162 
Q 984 4106 628 3988 
L 628 4550 
Q 988 4650 1302 4700 
Q 1616 4750 1894 4750 
Q 2613 4750 3031 4423 
Q 3450 4097 3450 3541 
Q 3450 3153 3228 2886 
Q 3006 2619 2597 2516 
z
" id="DejaVuSans-33" transform="scale(0.015625)"/>
      </defs>
      <use xlink:href="#DejaVuSans-56"/>
      <use x="68.408203" xlink:href="#DejaVuSans-28"/>
      <use x="107.421875" xlink:href="#DejaVuSans-33"/>
      <use x="171.044922" xlink:href="#DejaVuSans-29"/>
     </g>
    </g>
    <g id="line2d_48">
     <path d="M 786.6 304.8175 
L 806.6 304.8175 
" style="fill:none;stroke:#d62728;stroke-linecap:square;stroke-width:1.5;"/>
    </g>
    <g id="line2d_49"/>
    <g id="text_15">
     <!-- V(4) -->
     <g transform="translate(814.6 308.3175)scale(0.1 -0.1)">
      <use xlink:href="#DejaVuSans-56"/>
      <use x="68.408203" xlink:href="#DejaVuSans-28"/>
      <use x="107.421875" xlink:href="#DejaVuSans-34"/>
      <use x="171.044922" xlink:href="#DejaVuSans-29"/>
     </g>
    </g>
    <g id="line2d_50">
     <path d="M 786.6 319.495625 
L 806.6 319.495625 
" style="fill:none;stroke:#9467bd;stroke-linecap:square;stroke-width:1.5;"/>
    </g>
    <g id="line2d_51"/>
    <g id="text_16">
     <!-- V(5) -->
     <g transform="translate(814.6 322.995625)scale(0.1 -0.1)">
      <defs>
       <path d="M 691 4666 
L 3169 4666 
L 3169 4134 
L 1269 4134 
L 1269 2991 
Q 1406 3038 1543 3061 
Q 1681 3084 1819 3084 
Q 2600 3084 3056 2656 
Q 3513 2228 3513 1497 
Q 3513 744 3044 326 
Q 2575 -91 1722 -91 
Q 1428 -91 1123 -41 
Q 819 9 494 109 
L 494 744 
Q 775 591 1075 516 
Q 1375 441 1709 441 
Q 2250 441 2565 725 
Q 2881 1009 2881 1497 
Q 2881 1984 2565 2268 
Q 2250 2553 1709 2553 
Q 1456 2553 1204 2497 
Q 953 2441 691 2322 
L 691 4666 
z
" id="DejaVuSans-35" transform="scale(0.015625)"/>
      </defs>
      <use xlink:href="#DejaVuSans-56"/>
      <use x="68.408203" xlink:href="#DejaVuSans-28"/>
      <use x="107.421875" xlink:href="#DejaVuSans-35"/>
      <use x="171.044922" xlink:href="#DejaVuSans-29"/>
     </g>
    </g>
   </g>
  </g>
 </g>
 <defs>
  <clipPath id="pf168043f17">
   <rect height="443.52" width="669.6" x="108" y="69.12"/>
  </clipPath>
 </defs>
</svg>
