<?xml version="1.0" encoding="utf-8" standalone="no"?>
<!DOCTYPE svg PUBLIC "-//W3C//DTD SVG 1.1//EN"
  "http://www.w3.org/Graphics/SVG/1.1/DTD/svg11.dtd">
<svg height="576pt" version="1.1" viewBox="0 0 864 576" width="864pt" xmlns="http://www.w3.org/2000/svg" xmlns:xlink="http://www.w3.org/1999/xlink">
 <metadata>
  <rdf:RDF xmlns:cc="http://creativecommons.org/ns#" xmlns:dc="http://purl.org/dc/elements/1.1/" xmlns:rdf="http://www.w3.org/1999/02/22-rdf-syntax-ns#">
   <cc:Work>
    <dc:type rdf:resource="http://purl.org/dc/dcmitype/StillImage"/>
    <dc:date>2021-09-11T09:54:39.241891</dc:date>
    <dc:format>image/svg+xml</dc:format>
    <dc:creator>
     <cc:Agent>
      <dc:title>Matplotlib v3.4.3, https://matplotlib.org/</dc:title>
     </cc:Agent>
    </dc:creator>
   </cc:Work>
  </rdf:RDF>
 </metadata>
 <defs>
  <style type="text/css">*{stroke-linecap:butt;stroke-linejoin:round;}</style>
 </defs>
 <g id="figure_1">
  <g id="patch_1">
   <path d="M 0 576 
L 864 576 
L 864 0 
L 0 0 
z
" style="fill:#ffffff;"/>
  </g>
  <g id="axes_1">
   <g id="patch_2">
    <path d="M 108 512.64 
L 710.64 512.64 
L 710.64 69.12 
L 108 69.12 
z
" style="fill:#ffffff;"/>
   </g>
   <g id="matplotlib.axis_1">
    <g id="xtick_1">
     <g id="line2d_1">
      <defs>
       <path d="M 0 0 
L 0 3.5 
" id="me465ffcad6" style="stroke:#000000;stroke-width:0.8;"/>
      </defs>
      <g>
       <use style="stroke:#000000;stroke-width:0.8;" x="135.392727" xlink:href="#me465ffcad6" y="512.64"/>
      </g>
     </g>
     <g id="text_1">
      <!-- 0 -->
      <g transform="translate(130.938977 530.277812)scale(0.14 -0.14)">
       <defs>
        <path d="M 2034 4250 
Q 1547 4250 1301 3770 
Q 1056 3291 1056 2328 
Q 1056 1369 1301 889 
Q 1547 409 2034 409 
Q 2525 409 2770 889 
Q 3016 1369 3016 2328 
Q 3016 3291 2770 3770 
Q 2525 4250 2034 4250 
z
M 2034 4750 
Q 2819 4750 3233 4129 
Q 3647 3509 3647 2328 
Q 3647 1150 3233 529 
Q 2819 -91 2034 -91 
Q 1250 -91 836 529 
Q 422 1150 422 2328 
Q 422 3509 836 4129 
Q 1250 4750 2034 4750 
z
" id="DejaVuSans-30" transform="scale(0.015625)"/>
       </defs>
       <use xlink:href="#DejaVuSans-30"/>
      </g>
     </g>
    </g>
    <g id="xtick_2">
     <g id="line2d_2">
      <g>
       <use style="stroke:#000000;stroke-width:0.8;" x="245.183217" xlink:href="#me465ffcad6" y="512.64"/>
      </g>
     </g>
     <g id="text_2">
      <!-- 100 -->
      <g transform="translate(231.821967 530.277812)scale(0.14 -0.14)">
       <defs>
        <path d="M 794 531 
L 1825 531 
L 1825 4091 
L 703 3866 
L 703 4441 
L 1819 4666 
L 2450 4666 
L 2450 531 
L 3481 531 
L 3481 0 
L 794 0 
L 794 531 
z
" id="DejaVuSans-31" transform="scale(0.015625)"/>
       </defs>
       <use xlink:href="#DejaVuSans-31"/>
       <use x="63.623047" xlink:href="#DejaVuSans-30"/>
       <use x="127.246094" xlink:href="#DejaVuSans-30"/>
      </g>
     </g>
    </g>
    <g id="xtick_3">
     <g id="line2d_3">
      <g>
       <use style="stroke:#000000;stroke-width:0.8;" x="354.973707" xlink:href="#me465ffcad6" y="512.64"/>
      </g>
     </g>
     <g id="text_3">
      <!-- 200 -->
      <g transform="translate(341.612457 530.277812)scale(0.14 -0.14)">
       <defs>
        <path d="M 1228 531 
L 3431 531 
L 3431 0 
L 469 0 
L 469 531 
Q 828 903 1448 1529 
Q 2069 2156 2228 2338 
Q 2531 2678 2651 2914 
Q 2772 3150 2772 3378 
Q 2772 3750 2511 3984 
Q 2250 4219 1831 4219 
Q 1534 4219 1204 4116 
Q 875 4013 500 3803 
L 500 4441 
Q 881 4594 1212 4672 
Q 1544 4750 1819 4750 
Q 2544 4750 2975 4387 
Q 3406 4025 3406 3419 
Q 3406 3131 3298 2873 
Q 3191 2616 2906 2266 
Q 2828 2175 2409 1742 
Q 1991 1309 1228 531 
z
" id="DejaVuSans-32" transform="scale(0.015625)"/>
       </defs>
       <use xlink:href="#DejaVuSans-32"/>
       <use x="63.623047" xlink:href="#DejaVuSans-30"/>
       <use x="127.246094" xlink:href="#DejaVuSans-30"/>
      </g>
     </g>
    </g>
    <g id="xtick_4">
     <g id="line2d_4">
      <g>
       <use style="stroke:#000000;stroke-width:0.8;" x="464.764197" xlink:href="#me465ffcad6" y="512.64"/>
      </g>
     </g>
     <g id="text_4">
      <!-- 300 -->
      <g transform="translate(451.402947 530.277812)scale(0.14 -0.14)">
       <defs>
        <path d="M 2597 2516 
Q 3050 2419 3304 2112 
Q 3559 1806 3559 1356 
Q 3559 666 3084 287 
Q 2609 -91 1734 -91 
Q 1441 -91 1130 -33 
Q 819 25 488 141 
L 488 750 
Q 750 597 1062 519 
Q 1375 441 1716 441 
Q 2309 441 2620 675 
Q 2931 909 2931 1356 
Q 2931 1769 2642 2001 
Q 2353 2234 1838 2234 
L 1294 2234 
L 1294 2753 
L 1863 2753 
Q 2328 2753 2575 2939 
Q 2822 3125 2822 3475 
Q 2822 3834 2567 4026 
Q 2313 4219 1838 4219 
Q 1578 4219 1281 4162 
Q 984 4106 628 3988 
L 628 4550 
Q 988 4650 1302 4700 
Q 1616 4750 1894 4750 
Q 2613 4750 3031 4423 
Q 3450 4097 3450 3541 
Q 3450 3153 3228 2886 
Q 3006 2619 2597 2516 
z
" id="DejaVuSans-33" transform="scale(0.015625)"/>
       </defs>
       <use xlink:href="#DejaVuSans-33"/>
       <use x="63.623047" xlink:href="#DejaVuSans-30"/>
       <use x="127.246094" xlink:href="#DejaVuSans-30"/>
      </g>
     </g>
    </g>
    <g id="xtick_5">
     <g id="line2d_5">
      <g>
       <use style="stroke:#000000;stroke-width:0.8;" x="574.554688" xlink:href="#me465ffcad6" y="512.64"/>
      </g>
     </g>
     <g id="text_5">
      <!-- 400 -->
      <g transform="translate(561.193438 530.277812)scale(0.14 -0.14)">
       <defs>
        <path d="M 2419 4116 
L 825 1625 
L 2419 1625 
L 2419 4116 
z
M 2253 4666 
L 3047 4666 
L 3047 1625 
L 3713 1625 
L 3713 1100 
L 3047 1100 
L 3047 0 
L 2419 0 
L 2419 1100 
L 313 1100 
L 313 1709 
L 2253 4666 
z
" id="DejaVuSans-34" transform="scale(0.015625)"/>
       </defs>
       <use xlink:href="#DejaVuSans-34"/>
       <use x="63.623047" xlink:href="#DejaVuSans-30"/>
       <use x="127.246094" xlink:href="#DejaVuSans-30"/>
      </g>
     </g>
    </g>
    <g id="xtick_6">
     <g id="line2d_6">
      <g>
       <use style="stroke:#000000;stroke-width:0.8;" x="684.345178" xlink:href="#me465ffcad6" y="512.64"/>
      </g>
     </g>
     <g id="text_6">
      <!-- 500 -->
      <g transform="translate(670.983928 530.277812)scale(0.14 -0.14)">
       <defs>
        <path d="M 691 4666 
L 3169 4666 
L 3169 4134 
L 1269 4134 
L 1269 2991 
Q 1406 3038 1543 3061 
Q 1681 3084 1819 3084 
Q 2600 3084 3056 2656 
Q 3513 2228 3513 1497 
Q 3513 744 3044 326 
Q 2575 -91 1722 -91 
Q 1428 -91 1123 -41 
Q 819 9 494 109 
L 494 744 
Q 775 591 1075 516 
Q 1375 441 1709 441 
Q 2250 441 2565 725 
Q 2881 1009 2881 1497 
Q 2881 1984 2565 2268 
Q 2250 2553 1709 2553 
Q 1456 2553 1204 2497 
Q 953 2441 691 2322 
L 691 4666 
z
" id="DejaVuSans-35" transform="scale(0.015625)"/>
       </defs>
       <use xlink:href="#DejaVuSans-35"/>
       <use x="63.623047" xlink:href="#DejaVuSans-30"/>
       <use x="127.246094" xlink:href="#DejaVuSans-30"/>
      </g>
     </g>
    </g>
    <g id="text_7">
     <!-- Episodes -->
     <g transform="translate(378.180937 547.827188)scale(0.14 -0.14)">
      <defs>
       <path d="M 628 4666 
L 3578 4666 
L 3578 4134 
L 1259 4134 
L 1259 2753 
L 3481 2753 
L 3481 2222 
L 1259 2222 
L 1259 531 
L 3634 531 
L 3634 0 
L 628 0 
L 628 4666 
z
" id="DejaVuSans-45" transform="scale(0.015625)"/>
       <path d="M 1159 525 
L 1159 -1331 
L 581 -1331 
L 581 3500 
L 1159 3500 
L 1159 2969 
Q 1341 3281 1617 3432 
Q 1894 3584 2278 3584 
Q 2916 3584 3314 3078 
Q 3713 2572 3713 1747 
Q 3713 922 3314 415 
Q 2916 -91 2278 -91 
Q 1894 -91 1617 61 
Q 1341 213 1159 525 
z
M 3116 1747 
Q 3116 2381 2855 2742 
Q 2594 3103 2138 3103 
Q 1681 3103 1420 2742 
Q 1159 2381 1159 1747 
Q 1159 1113 1420 752 
Q 1681 391 2138 391 
Q 2594 391 2855 752 
Q 3116 1113 3116 1747 
z
" id="DejaVuSans-70" transform="scale(0.015625)"/>
       <path d="M 603 3500 
L 1178 3500 
L 1178 0 
L 603 0 
L 603 3500 
z
M 603 4863 
L 1178 4863 
L 1178 4134 
L 603 4134 
L 603 4863 
z
" id="DejaVuSans-69" transform="scale(0.015625)"/>
       <path d="M 2834 3397 
L 2834 2853 
Q 2591 2978 2328 3040 
Q 2066 3103 1784 3103 
Q 1356 3103 1142 2972 
Q 928 2841 928 2578 
Q 928 2378 1081 2264 
Q 1234 2150 1697 2047 
L 1894 2003 
Q 2506 1872 2764 1633 
Q 3022 1394 3022 966 
Q 3022 478 2636 193 
Q 2250 -91 1575 -91 
Q 1294 -91 989 -36 
Q 684 19 347 128 
L 347 722 
Q 666 556 975 473 
Q 1284 391 1588 391 
Q 1994 391 2212 530 
Q 2431 669 2431 922 
Q 2431 1156 2273 1281 
Q 2116 1406 1581 1522 
L 1381 1569 
Q 847 1681 609 1914 
Q 372 2147 372 2553 
Q 372 3047 722 3315 
Q 1072 3584 1716 3584 
Q 2034 3584 2315 3537 
Q 2597 3491 2834 3397 
z
" id="DejaVuSans-73" transform="scale(0.015625)"/>
       <path d="M 1959 3097 
Q 1497 3097 1228 2736 
Q 959 2375 959 1747 
Q 959 1119 1226 758 
Q 1494 397 1959 397 
Q 2419 397 2687 759 
Q 2956 1122 2956 1747 
Q 2956 2369 2687 2733 
Q 2419 3097 1959 3097 
z
M 1959 3584 
Q 2709 3584 3137 3096 
Q 3566 2609 3566 1747 
Q 3566 888 3137 398 
Q 2709 -91 1959 -91 
Q 1206 -91 779 398 
Q 353 888 353 1747 
Q 353 2609 779 3096 
Q 1206 3584 1959 3584 
z
" id="DejaVuSans-6f" transform="scale(0.015625)"/>
       <path d="M 2906 2969 
L 2906 4863 
L 3481 4863 
L 3481 0 
L 2906 0 
L 2906 525 
Q 2725 213 2448 61 
Q 2172 -91 1784 -91 
Q 1150 -91 751 415 
Q 353 922 353 1747 
Q 353 2572 751 3078 
Q 1150 3584 1784 3584 
Q 2172 3584 2448 3432 
Q 2725 3281 2906 2969 
z
M 947 1747 
Q 947 1113 1208 752 
Q 1469 391 1925 391 
Q 2381 391 2643 752 
Q 2906 1113 2906 1747 
Q 2906 2381 2643 2742 
Q 2381 3103 1925 3103 
Q 1469 3103 1208 2742 
Q 947 2381 947 1747 
z
" id="DejaVuSans-64" transform="scale(0.015625)"/>
       <path d="M 3597 1894 
L 3597 1613 
L 953 1613 
Q 991 1019 1311 708 
Q 1631 397 2203 397 
Q 2534 397 2845 478 
Q 3156 559 3463 722 
L 3463 178 
Q 3153 47 2828 -22 
Q 2503 -91 2169 -91 
Q 1331 -91 842 396 
Q 353 884 353 1716 
Q 353 2575 817 3079 
Q 1281 3584 2069 3584 
Q 2775 3584 3186 3129 
Q 3597 2675 3597 1894 
z
M 3022 2063 
Q 3016 2534 2758 2815 
Q 2500 3097 2075 3097 
Q 1594 3097 1305 2825 
Q 1016 2553 972 2059 
L 3022 2063 
z
" id="DejaVuSans-65" transform="scale(0.015625)"/>
      </defs>
      <use xlink:href="#DejaVuSans-45"/>
      <use x="63.183594" xlink:href="#DejaVuSans-70"/>
      <use x="126.660156" xlink:href="#DejaVuSans-69"/>
      <use x="154.443359" xlink:href="#DejaVuSans-73"/>
      <use x="206.542969" xlink:href="#DejaVuSans-6f"/>
      <use x="267.724609" xlink:href="#DejaVuSans-64"/>
      <use x="331.201172" xlink:href="#DejaVuSans-65"/>
      <use x="392.724609" xlink:href="#DejaVuSans-73"/>
     </g>
    </g>
   </g>
   <g id="matplotlib.axis_2">
    <g id="ytick_1">
     <g id="line2d_7">
      <defs>
       <path d="M 0 0 
L -3.5 0 
" id="ma8e5282b09" style="stroke:#000000;stroke-width:0.8;"/>
      </defs>
      <g>
       <use style="stroke:#000000;stroke-width:0.8;" x="108" xlink:href="#ma8e5282b09" y="502.707922"/>
      </g>
     </g>
     <g id="text_8">
      <!-- 0.0 -->
      <g transform="translate(78.735625 508.026829)scale(0.14 -0.14)">
       <defs>
        <path d="M 684 794 
L 1344 794 
L 1344 0 
L 684 0 
L 684 794 
z
" id="DejaVuSans-2e" transform="scale(0.015625)"/>
       </defs>
       <use xlink:href="#DejaVuSans-30"/>
       <use x="63.623047" xlink:href="#DejaVuSans-2e"/>
       <use x="95.410156" xlink:href="#DejaVuSans-30"/>
      </g>
     </g>
    </g>
    <g id="ytick_2">
     <g id="line2d_8">
      <g>
       <use style="stroke:#000000;stroke-width:0.8;" x="108" xlink:href="#ma8e5282b09" y="407.137335"/>
      </g>
     </g>
     <g id="text_9">
      <!-- 0.2 -->
      <g transform="translate(78.735625 412.456241)scale(0.14 -0.14)">
       <use xlink:href="#DejaVuSans-30"/>
       <use x="63.623047" xlink:href="#DejaVuSans-2e"/>
       <use x="95.410156" xlink:href="#DejaVuSans-32"/>
      </g>
     </g>
    </g>
    <g id="ytick_3">
     <g id="line2d_9">
      <g>
       <use style="stroke:#000000;stroke-width:0.8;" x="108" xlink:href="#ma8e5282b09" y="311.566747"/>
      </g>
     </g>
     <g id="text_10">
      <!-- 0.4 -->
      <g transform="translate(78.735625 316.885653)scale(0.14 -0.14)">
       <use xlink:href="#DejaVuSans-30"/>
       <use x="63.623047" xlink:href="#DejaVuSans-2e"/>
       <use x="95.410156" xlink:href="#DejaVuSans-34"/>
      </g>
     </g>
    </g>
    <g id="ytick_4">
     <g id="line2d_10">
      <g>
       <use style="stroke:#000000;stroke-width:0.8;" x="108" xlink:href="#ma8e5282b09" y="215.996159"/>
      </g>
     </g>
     <g id="text_11">
      <!-- 0.6 -->
      <g transform="translate(78.735625 221.315065)scale(0.14 -0.14)">
       <defs>
        <path d="M 2113 2584 
Q 1688 2584 1439 2293 
Q 1191 2003 1191 1497 
Q 1191 994 1439 701 
Q 1688 409 2113 409 
Q 2538 409 2786 701 
Q 3034 994 3034 1497 
Q 3034 2003 2786 2293 
Q 2538 2584 2113 2584 
z
M 3366 4563 
L 3366 3988 
Q 3128 4100 2886 4159 
Q 2644 4219 2406 4219 
Q 1781 4219 1451 3797 
Q 1122 3375 1075 2522 
Q 1259 2794 1537 2939 
Q 1816 3084 2150 3084 
Q 2853 3084 3261 2657 
Q 3669 2231 3669 1497 
Q 3669 778 3244 343 
Q 2819 -91 2113 -91 
Q 1303 -91 875 529 
Q 447 1150 447 2328 
Q 447 3434 972 4092 
Q 1497 4750 2381 4750 
Q 2619 4750 2861 4703 
Q 3103 4656 3366 4563 
z
" id="DejaVuSans-36" transform="scale(0.015625)"/>
       </defs>
       <use xlink:href="#DejaVuSans-30"/>
       <use x="63.623047" xlink:href="#DejaVuSans-2e"/>
       <use x="95.410156" xlink:href="#DejaVuSans-36"/>
      </g>
     </g>
    </g>
    <g id="ytick_5">
     <g id="line2d_11">
      <g>
       <use style="stroke:#000000;stroke-width:0.8;" x="108" xlink:href="#ma8e5282b09" y="120.425571"/>
      </g>
     </g>
     <g id="text_12">
      <!-- 0.8 -->
      <g transform="translate(78.735625 125.744477)scale(0.14 -0.14)">
       <defs>
        <path d="M 2034 2216 
Q 1584 2216 1326 1975 
Q 1069 1734 1069 1313 
Q 1069 891 1326 650 
Q 1584 409 2034 409 
Q 2484 409 2743 651 
Q 3003 894 3003 1313 
Q 3003 1734 2745 1975 
Q 2488 2216 2034 2216 
z
M 1403 2484 
Q 997 2584 770 2862 
Q 544 3141 544 3541 
Q 544 4100 942 4425 
Q 1341 4750 2034 4750 
Q 2731 4750 3128 4425 
Q 3525 4100 3525 3541 
Q 3525 3141 3298 2862 
Q 3072 2584 2669 2484 
Q 3125 2378 3379 2068 
Q 3634 1759 3634 1313 
Q 3634 634 3220 271 
Q 2806 -91 2034 -91 
Q 1263 -91 848 271 
Q 434 634 434 1313 
Q 434 1759 690 2068 
Q 947 2378 1403 2484 
z
M 1172 3481 
Q 1172 3119 1398 2916 
Q 1625 2713 2034 2713 
Q 2441 2713 2670 2916 
Q 2900 3119 2900 3481 
Q 2900 3844 2670 4047 
Q 2441 4250 2034 4250 
Q 1625 4250 1398 4047 
Q 1172 3844 1172 3481 
z
" id="DejaVuSans-38" transform="scale(0.015625)"/>
       </defs>
       <use xlink:href="#DejaVuSans-30"/>
       <use x="63.623047" xlink:href="#DejaVuSans-2e"/>
       <use x="95.410156" xlink:href="#DejaVuSans-38"/>
      </g>
     </g>
    </g>
    <g id="text_13">
     <!-- State-Value Function -->
     <g transform="translate(71.824062 362.742656)rotate(-90)scale(0.14 -0.14)">
      <defs>
       <path d="M 3425 4513 
L 3425 3897 
Q 3066 4069 2747 4153 
Q 2428 4238 2131 4238 
Q 1616 4238 1336 4038 
Q 1056 3838 1056 3469 
Q 1056 3159 1242 3001 
Q 1428 2844 1947 2747 
L 2328 2669 
Q 3034 2534 3370 2195 
Q 3706 1856 3706 1288 
Q 3706 609 3251 259 
Q 2797 -91 1919 -91 
Q 1588 -91 1214 -16 
Q 841 59 441 206 
L 441 856 
Q 825 641 1194 531 
Q 1563 422 1919 422 
Q 2459 422 2753 634 
Q 3047 847 3047 1241 
Q 3047 1584 2836 1778 
Q 2625 1972 2144 2069 
L 1759 2144 
Q 1053 2284 737 2584 
Q 422 2884 422 3419 
Q 422 4038 858 4394 
Q 1294 4750 2059 4750 
Q 2388 4750 2728 4690 
Q 3069 4631 3425 4513 
z
" id="DejaVuSans-53" transform="scale(0.015625)"/>
       <path d="M 1172 4494 
L 1172 3500 
L 2356 3500 
L 2356 3053 
L 1172 3053 
L 1172 1153 
Q 1172 725 1289 603 
Q 1406 481 1766 481 
L 2356 481 
L 2356 0 
L 1766 0 
Q 1100 0 847 248 
Q 594 497 594 1153 
L 594 3053 
L 172 3053 
L 172 3500 
L 594 3500 
L 594 4494 
L 1172 4494 
z
" id="DejaVuSans-74" transform="scale(0.015625)"/>
       <path d="M 2194 1759 
Q 1497 1759 1228 1600 
Q 959 1441 959 1056 
Q 959 750 1161 570 
Q 1363 391 1709 391 
Q 2188 391 2477 730 
Q 2766 1069 2766 1631 
L 2766 1759 
L 2194 1759 
z
M 3341 1997 
L 3341 0 
L 2766 0 
L 2766 531 
Q 2569 213 2275 61 
Q 1981 -91 1556 -91 
Q 1019 -91 701 211 
Q 384 513 384 1019 
Q 384 1609 779 1909 
Q 1175 2209 1959 2209 
L 2766 2209 
L 2766 2266 
Q 2766 2663 2505 2880 
Q 2244 3097 1772 3097 
Q 1472 3097 1187 3025 
Q 903 2953 641 2809 
L 641 3341 
Q 956 3463 1253 3523 
Q 1550 3584 1831 3584 
Q 2591 3584 2966 3190 
Q 3341 2797 3341 1997 
z
" id="DejaVuSans-61" transform="scale(0.015625)"/>
       <path d="M 313 2009 
L 1997 2009 
L 1997 1497 
L 313 1497 
L 313 2009 
z
" id="DejaVuSans-2d" transform="scale(0.015625)"/>
       <path d="M 1831 0 
L 50 4666 
L 709 4666 
L 2188 738 
L 3669 4666 
L 4325 4666 
L 2547 0 
L 1831 0 
z
" id="DejaVuSans-56" transform="scale(0.015625)"/>
       <path d="M 603 4863 
L 1178 4863 
L 1178 0 
L 603 0 
L 603 4863 
z
" id="DejaVuSans-6c" transform="scale(0.015625)"/>
       <path d="M 544 1381 
L 544 3500 
L 1119 3500 
L 1119 1403 
Q 1119 906 1312 657 
Q 1506 409 1894 409 
Q 2359 409 2629 706 
Q 2900 1003 2900 1516 
L 2900 3500 
L 3475 3500 
L 3475 0 
L 2900 0 
L 2900 538 
Q 2691 219 2414 64 
Q 2138 -91 1772 -91 
Q 1169 -91 856 284 
Q 544 659 544 1381 
z
M 1991 3584 
L 1991 3584 
z
" id="DejaVuSans-75" transform="scale(0.015625)"/>
       <path id="DejaVuSans-20" transform="scale(0.015625)"/>
       <path d="M 628 4666 
L 3309 4666 
L 3309 4134 
L 1259 4134 
L 1259 2759 
L 3109 2759 
L 3109 2228 
L 1259 2228 
L 1259 0 
L 628 0 
L 628 4666 
z
" id="DejaVuSans-46" transform="scale(0.015625)"/>
       <path d="M 3513 2113 
L 3513 0 
L 2938 0 
L 2938 2094 
Q 2938 2591 2744 2837 
Q 2550 3084 2163 3084 
Q 1697 3084 1428 2787 
Q 1159 2491 1159 1978 
L 1159 0 
L 581 0 
L 581 3500 
L 1159 3500 
L 1159 2956 
Q 1366 3272 1645 3428 
Q 1925 3584 2291 3584 
Q 2894 3584 3203 3211 
Q 3513 2838 3513 2113 
z
" id="DejaVuSans-6e" transform="scale(0.015625)"/>
       <path d="M 3122 3366 
L 3122 2828 
Q 2878 2963 2633 3030 
Q 2388 3097 2138 3097 
Q 1578 3097 1268 2742 
Q 959 2388 959 1747 
Q 959 1106 1268 751 
Q 1578 397 2138 397 
Q 2388 397 2633 464 
Q 2878 531 3122 666 
L 3122 134 
Q 2881 22 2623 -34 
Q 2366 -91 2075 -91 
Q 1284 -91 818 406 
Q 353 903 353 1747 
Q 353 2603 823 3093 
Q 1294 3584 2113 3584 
Q 2378 3584 2631 3529 
Q 2884 3475 3122 3366 
z
" id="DejaVuSans-63" transform="scale(0.015625)"/>
      </defs>
      <use xlink:href="#DejaVuSans-53"/>
      <use x="63.476562" xlink:href="#DejaVuSans-74"/>
      <use x="102.685547" xlink:href="#DejaVuSans-61"/>
      <use x="163.964844" xlink:href="#DejaVuSans-74"/>
      <use x="203.173828" xlink:href="#DejaVuSans-65"/>
      <use x="264.697266" xlink:href="#DejaVuSans-2d"/>
      <use x="294.90625" xlink:href="#DejaVuSans-56"/>
      <use x="355.564453" xlink:href="#DejaVuSans-61"/>
      <use x="416.84375" xlink:href="#DejaVuSans-6c"/>
      <use x="444.626953" xlink:href="#DejaVuSans-75"/>
      <use x="508.005859" xlink:href="#DejaVuSans-65"/>
      <use x="569.529297" xlink:href="#DejaVuSans-20"/>
      <use x="601.316406" xlink:href="#DejaVuSans-46"/>
      <use x="653.335938" xlink:href="#DejaVuSans-75"/>
      <use x="716.714844" xlink:href="#DejaVuSans-6e"/>
      <use x="780.09375" xlink:href="#DejaVuSans-63"/>
      <use x="835.074219" xlink:href="#DejaVuSans-74"/>
      <use x="874.283203" xlink:href="#DejaVuSans-69"/>
      <use x="902.066406" xlink:href="#DejaVuSans-6f"/>
      <use x="963.248047" xlink:href="#DejaVuSans-6e"/>
     </g>
    </g>
   </g>
   <g id="line2d_12">
    <path clip-path="url(#pe68dd7ded2)" d="M 135.392727 492.48 
L 136.490632 444.528773 
L 137.588537 448.102076 
L 138.686442 458.136233 
L 139.784347 453.888692 
L 140.882252 431.834686 
L 141.980157 435.63192 
L 143.078062 451.420693 
L 144.175966 456.094017 
L 145.273871 448.404559 
L 147.469681 419.69604 
L 148.567586 418.522167 
L 149.665491 420.258311 
L 150.763396 424.390789 
L 151.861301 416.285681 
L 152.959206 399.234607 
L 154.057111 398.133406 
L 155.155015 370.976315 
L 156.25292 395.924656 
L 157.350825 410.506305 
L 158.44873 402.78937 
L 159.546635 415.048133 
L 160.64454 425.629175 
L 161.742445 410.135225 
L 162.84035 408.197705 
L 163.938255 413.914658 
L 165.03616 404.777915 
L 166.134064 409.614125 
L 168.329874 433.293276 
L 169.427779 432.443485 
L 170.525684 417.258238 
L 171.623589 438.612187 
L 173.819399 435.409481 
L 174.917304 421.409261 
L 176.015209 419.771794 
L 177.113113 425.894765 
L 178.211018 434.411298 
L 179.308923 448.461523 
L 180.406828 447.36947 
L 181.504733 432.894375 
L 182.602638 439.355765 
L 183.700543 431.793329 
L 184.798448 431.12293 
L 185.896353 423.114345 
L 186.994258 427.187979 
L 188.092163 429.327545 
L 189.190067 421.210426 
L 190.287972 421.963531 
L 191.385877 428.887402 
L 192.483782 418.384677 
L 193.581687 426.077643 
L 194.679592 418.531964 
L 195.777497 422.702199 
L 196.875402 418.587759 
L 197.973307 429.828778 
L 199.071212 434.352941 
L 200.169116 431.232142 
L 201.267021 427.262735 
L 202.364926 436.405814 
L 203.462831 421.2176 
L 204.560736 415.002504 
L 205.658641 423.711939 
L 206.756546 420.143816 
L 207.854451 425.745476 
L 208.952356 426.409021 
L 210.050261 430.971022 
L 211.148165 424.555493 
L 212.24607 421.908462 
L 213.343975 426.762131 
L 214.44188 428.507992 
L 215.539785 421.683527 
L 216.63769 419.656102 
L 217.735595 430.911878 
L 218.8335 434.74789 
L 219.931405 433.201613 
L 221.02931 434.62144 
L 222.127214 433.914329 
L 223.225119 434.828701 
L 224.323024 432.102239 
L 226.518834 436.569332 
L 227.616739 433.818733 
L 228.714644 435.310891 
L 229.812549 438.034916 
L 230.910454 434.406282 
L 232.008359 432.21377 
L 233.106263 438.207872 
L 235.302073 448.074037 
L 237.497883 442.960446 
L 238.595788 441.516815 
L 239.693693 431.277766 
L 240.791598 429.377473 
L 241.889503 431.790707 
L 242.987408 434.619092 
L 244.085312 431.265853 
L 245.183217 426.860835 
L 246.281122 429.111106 
L 247.379027 425.49312 
L 248.476932 427.34903 
L 249.574837 425.862022 
L 250.672742 425.315281 
L 251.770647 425.8528 
L 252.868552 431.018575 
L 253.966457 424.63259 
L 255.064361 421.988476 
L 256.162266 421.999608 
L 257.260171 421.63612 
L 258.358076 416.666632 
L 259.455981 416.261325 
L 260.553886 419.5201 
L 261.651791 420.702302 
L 262.749696 418.179771 
L 263.847601 419.435806 
L 264.945506 419.824373 
L 266.04341 419.458644 
L 267.141315 416.259162 
L 268.23922 421.335168 
L 269.337125 412.582736 
L 270.43503 414.793819 
L 271.532935 417.487325 
L 272.63084 420.810544 
L 273.728745 421.349038 
L 274.82665 419.825949 
L 275.924555 419.558241 
L 277.022459 422.993465 
L 278.120364 423.208533 
L 280.316174 426.502686 
L 281.414079 427.685068 
L 282.511984 429.375923 
L 283.609889 431.92321 
L 284.707794 431.770103 
L 285.805699 432.672106 
L 286.903604 432.980654 
L 288.001508 434.501129 
L 289.099413 432.805749 
L 290.197318 430.173348 
L 291.295223 430.981306 
L 292.393128 432.224146 
L 293.491033 431.412781 
L 294.588938 433.538395 
L 295.686843 434.121199 
L 296.784748 435.978687 
L 297.882653 435.159336 
L 298.980557 433.915194 
L 300.078462 434.042411 
L 301.176367 434.997228 
L 302.274272 434.852978 
L 303.372177 432.476859 
L 304.470082 427.989784 
L 305.567987 428.271533 
L 306.665892 428.890351 
L 307.763797 427.77055 
L 308.861702 428.755241 
L 309.959606 431.054106 
L 311.057511 430.799341 
L 312.155416 430.172402 
L 313.253321 431.285944 
L 314.351226 430.644171 
L 315.449131 427.56727 
L 316.547036 428.432854 
L 317.644941 427.781483 
L 318.742846 429.005942 
L 320.938655 433.045776 
L 322.03656 430.766385 
L 323.134465 429.837567 
L 324.23237 429.808971 
L 325.330275 431.532522 
L 326.42818 429.331496 
L 327.526085 428.592331 
L 328.62399 428.981554 
L 329.721895 427.478454 
L 330.8198 428.61579 
L 331.917704 429.384251 
L 333.015609 430.302464 
L 334.113514 430.251761 
L 336.309324 430.665025 
L 337.407229 430.656233 
L 338.505134 430.481514 
L 339.603039 429.936643 
L 340.700944 428.649129 
L 341.798849 429.230403 
L 342.896754 428.654897 
L 343.994658 428.36805 
L 345.092563 428.569632 
L 346.190468 428.942449 
L 348.386278 427.452414 
L 349.484183 427.470268 
L 350.582088 427.144348 
L 351.679993 426.936861 
L 352.777898 425.892169 
L 353.875803 426.504075 
L 354.973707 425.542597 
L 356.071612 424.973785 
L 357.169517 426.042145 
L 360.463232 424.694368 
L 361.561137 423.786782 
L 362.659042 424.65682 
L 363.756947 424.915785 
L 364.854852 425.422219 
L 365.952756 426.093837 
L 367.050661 426.126789 
L 368.148566 426.471172 
L 370.344376 426.185105 
L 371.442281 426.206021 
L 372.540186 426.679933 
L 373.638091 426.845109 
L 374.735996 426.368387 
L 375.833901 426.54731 
L 376.931805 426.167976 
L 378.02971 427.172994 
L 379.127615 426.740452 
L 380.22552 427.464491 
L 381.323425 427.48617 
L 382.42133 428.035132 
L 384.61714 428.5836 
L 385.715045 428.263143 
L 386.81295 428.121483 
L 387.910854 428.230904 
L 389.008759 427.781139 
L 390.106664 428.505239 
L 391.204569 427.51707 
L 392.302474 426.911483 
L 394.498284 427.363355 
L 395.596189 427.443024 
L 396.694094 427.285219 
L 397.791999 427.400097 
L 398.889903 427.65427 
L 401.085713 427.677104 
L 404.379428 428.501569 
L 405.477333 429.15111 
L 406.575238 428.971632 
L 407.673143 429.135241 
L 408.771048 429.481371 
L 410.966857 429.329037 
L 413.162667 428.750025 
L 414.260572 428.749185 
L 415.358477 428.501845 
L 416.456382 428.37485 
L 417.554287 427.274174 
L 418.652192 427.430127 
L 419.750097 427.225462 
L 420.848001 427.418215 
L 421.945906 427.389588 
L 423.043811 427.527883 
L 424.141716 427.493339 
L 425.239621 427.856502 
L 426.337526 428.064076 
L 427.435431 427.228215 
L 429.631241 427.635448 
L 430.729146 427.712223 
L 431.82705 428.302616 
L 432.924955 428.077303 
L 434.02286 428.046936 
L 435.120765 427.856809 
L 436.21867 427.520794 
L 437.316575 427.893846 
L 438.41448 427.916972 
L 439.512385 428.18958 
L 441.708195 428.456675 
L 442.806099 428.900004 
L 443.904004 428.410019 
L 447.197719 428.413159 
L 451.589339 428.639938 
L 452.687244 428.257182 
L 453.785148 428.051363 
L 454.883053 428.408037 
L 455.980958 427.890379 
L 458.176768 428.188442 
L 459.274673 428.142657 
L 460.372578 428.297302 
L 461.470483 428.735478 
L 462.568388 428.610539 
L 463.666293 428.304077 
L 464.764197 428.47426 
L 466.960007 428.146105 
L 468.057912 428.25509 
L 471.351627 429.019071 
L 472.449532 428.828608 
L 473.547437 428.292177 
L 474.645342 428.296199 
L 475.743246 427.862742 
L 476.841151 428.189596 
L 477.939056 428.240604 
L 479.036961 427.937313 
L 481.232771 428.132431 
L 482.330676 428.414808 
L 483.428581 428.396565 
L 485.624391 428.770455 
L 486.722296 428.645329 
L 487.8202 428.933581 
L 488.918105 428.247796 
L 490.01601 427.831916 
L 491.113915 428.091609 
L 492.21182 428.165023 
L 493.309725 428.589673 
L 494.40763 428.560171 
L 495.505535 428.715192 
L 496.60344 428.512566 
L 497.701345 428.503782 
L 498.799249 428.002961 
L 499.897154 428.413056 
L 500.995059 427.986999 
L 502.092964 427.166698 
L 503.190869 427.036227 
L 504.288774 427.368324 
L 505.386679 427.37631 
L 507.582489 427.22833 
L 508.680394 426.758209 
L 509.778298 426.945179 
L 510.876203 426.793945 
L 511.974108 427.130531 
L 513.072013 427.785346 
L 514.169918 428.222688 
L 515.267823 427.953798 
L 516.365728 427.469604 
L 517.463633 426.84699 
L 518.561538 427.043299 
L 519.659443 427.113619 
L 520.757347 427.467178 
L 521.855252 427.699321 
L 522.953157 427.647225 
L 524.051062 427.756058 
L 525.148967 427.662762 
L 526.246872 428.051062 
L 527.344777 428.158841 
L 528.442682 428.082003 
L 529.540587 428.508106 
L 530.638492 428.540368 
L 531.736396 428.086089 
L 532.834301 428.087089 
L 535.030111 428.728421 
L 536.128016 428.645101 
L 537.225921 428.815932 
L 539.421731 428.791559 
L 541.617541 428.486298 
L 542.715445 428.75253 
L 543.81335 428.702591 
L 544.911255 427.779178 
L 546.00916 427.54006 
L 548.20497 428.452808 
L 549.302875 428.525149 
L 550.40078 429.064709 
L 551.498685 429.182019 
L 552.59659 429.60535 
L 553.694494 429.790964 
L 555.890304 429.860369 
L 559.184019 429.459665 
L 560.281924 428.586249 
L 561.379829 429.201989 
L 562.477734 429.048908 
L 563.575639 429.439095 
L 564.673543 429.020171 
L 565.771448 429.420942 
L 566.869353 429.521389 
L 573.456783 430.767662 
L 574.554688 430.64279 
L 575.652592 430.68457 
L 576.750497 431.392197 
L 577.848402 431.379222 
L 578.946307 431.861025 
L 580.044212 432.101092 
L 581.142117 431.904225 
L 582.240022 430.998145 
L 583.337927 430.453726 
L 584.435832 430.440994 
L 585.533737 430.663616 
L 587.729546 430.739292 
L 588.827451 430.480537 
L 589.925356 430.663734 
L 592.121166 429.997677 
L 593.219071 429.557825 
L 594.316976 429.739331 
L 595.414881 429.2841 
L 596.512786 429.473377 
L 597.61069 429.298847 
L 598.708595 429.321673 
L 599.8065 429.848652 
L 600.904405 429.663026 
L 602.00231 429.610238 
L 604.19812 429.216183 
L 607.491835 429.974306 
L 608.589739 429.680471 
L 609.687644 430.097695 
L 610.785549 430.126772 
L 611.883454 429.585493 
L 612.981359 428.772413 
L 615.177169 428.949112 
L 616.275074 428.899053 
L 617.372979 428.629455 
L 618.470884 428.577472 
L 619.568788 428.351807 
L 621.764598 428.508471 
L 622.862503 427.649978 
L 623.960408 427.947477 
L 625.058313 428.101546 
L 626.156218 427.844602 
L 627.254123 428.062576 
L 628.352028 427.913722 
L 629.449933 427.94393 
L 630.547837 428.274006 
L 631.645742 428.426037 
L 632.743647 428.421538 
L 633.841552 428.835425 
L 636.037362 428.531105 
L 637.135267 428.639905 
L 638.233172 428.347546 
L 639.331077 428.318399 
L 640.428982 428.705656 
L 641.526887 428.539075 
L 642.624791 427.493431 
L 643.722696 428.04983 
L 644.820601 427.667935 
L 645.918506 427.089653 
L 647.016411 426.150194 
L 648.114316 426.719424 
L 650.310126 427.134802 
L 651.408031 426.837258 
L 652.505936 427.040367 
L 654.701745 427.193022 
L 656.897555 427.6438 
L 657.99546 427.461532 
L 659.093365 427.896316 
L 660.19127 427.858771 
L 661.289175 428.068806 
L 662.38708 428.59625 
L 663.484985 427.655181 
L 664.582889 427.767355 
L 666.778699 428.432087 
L 667.876604 428.701389 
L 668.974509 428.377991 
L 671.170319 429.571913 
L 674.464034 429.430726 
L 676.659843 430.311649 
L 677.757748 430.387979 
L 678.855653 430.895494 
L 681.051463 430.593942 
L 682.149368 430.892355 
L 683.247273 430.60112 
L 683.247273 430.60112 
" style="fill:none;stroke:#1f77b4;stroke-linecap:square;stroke-width:2;"/>
   </g>
   <g id="line2d_13">
    <path clip-path="url(#pe68dd7ded2)" d="M 135.392727 431.792533 
L 683.247273 431.792533 
L 683.247273 431.792533 
" style="fill:none;stroke:#000000;stroke-dasharray:7.4,3.2;stroke-dashoffset:0;stroke-width:2;"/>
   </g>
   <g id="line2d_14">
    <path clip-path="url(#pe68dd7ded2)" d="M 135.392727 461.134195 
L 136.490632 398.735512 
L 137.588537 395.495623 
L 138.686442 399.533995 
L 139.784347 369.425781 
L 140.882252 375.995963 
L 141.980157 378.531858 
L 143.078062 380.53445 
L 144.175966 364.426385 
L 145.273871 340.311067 
L 146.371776 344.602853 
L 147.469681 309.621539 
L 148.567586 311.957917 
L 149.665491 347.389534 
L 150.763396 350.699079 
L 151.861301 339.214027 
L 152.959206 319.288977 
L 154.057111 325.74878 
L 155.155015 282.317372 
L 156.25292 327.267787 
L 157.350825 324.438777 
L 158.44873 328.869734 
L 159.546635 341.565405 
L 161.742445 333.844563 
L 162.84035 327.977141 
L 163.938255 336.727705 
L 165.03616 326.246338 
L 166.134064 318.031342 
L 167.231969 342.133244 
L 168.329874 357.897744 
L 169.427779 344.078661 
L 170.525684 343.62792 
L 171.623589 355.371997 
L 172.721494 357.229182 
L 173.819399 359.515761 
L 174.917304 335.220766 
L 176.015209 340.948172 
L 177.113113 362.221202 
L 178.211018 370.121711 
L 179.308923 388.541153 
L 180.406828 376.28804 
L 181.504733 350.28909 
L 182.602638 353.98135 
L 183.700543 348.060626 
L 184.798448 346.006235 
L 185.896353 342.089402 
L 186.994258 341.678606 
L 188.092163 343.917315 
L 189.190067 337.293529 
L 190.287972 331.899783 
L 191.385877 342.94185 
L 192.483782 325.207301 
L 193.581687 333.94809 
L 194.679592 333.46139 
L 195.777497 348.569407 
L 196.875402 330.83327 
L 197.973307 358.354149 
L 199.071212 366.590685 
L 200.169116 363.434644 
L 201.267021 355.928056 
L 202.364926 358.533558 
L 203.462831 332.469787 
L 204.560736 325.85636 
L 205.658641 331.201268 
L 206.756546 343.168543 
L 208.952356 355.271132 
L 210.050261 355.910163 
L 211.148165 343.00128 
L 212.24607 342.024291 
L 213.343975 345.478362 
L 214.44188 354.064411 
L 215.539785 348.7902 
L 216.63769 347.510862 
L 217.735595 362.518437 
L 218.8335 371.003513 
L 219.931405 361.823482 
L 222.127214 356.372072 
L 223.225119 364.946255 
L 224.323024 358.682605 
L 225.420929 357.947584 
L 226.518834 364.786304 
L 227.616739 359.479954 
L 228.714644 355.45627 
L 229.812549 362.043186 
L 230.910454 350.513515 
L 232.008359 349.703359 
L 233.106263 364.342025 
L 234.204168 371.492702 
L 235.302073 387.012599 
L 237.497883 373.426145 
L 239.693693 347.805905 
L 240.791598 347.245679 
L 241.889503 354.193179 
L 242.987408 363.207793 
L 245.183217 342.302299 
L 246.281122 339.054518 
L 247.379027 339.471793 
L 248.476932 344.925355 
L 249.574837 347.687477 
L 250.672742 344.510713 
L 251.770647 342.551372 
L 252.868552 351.780108 
L 253.966457 346.84984 
L 255.064361 347.158884 
L 256.162266 341.984099 
L 257.260171 340.695989 
L 258.358076 337.302618 
L 259.455981 337.24265 
L 260.553886 344.007567 
L 261.651791 344.701198 
L 262.749696 337.781339 
L 264.945506 341.100563 
L 266.04341 344.07576 
L 267.141315 336.781357 
L 268.23922 347.021606 
L 269.337125 338.706285 
L 270.43503 342.123348 
L 271.532935 348.451008 
L 272.63084 354.077888 
L 273.728745 350.585539 
L 274.82665 348.296915 
L 275.924555 347.353182 
L 277.022459 357.615153 
L 278.120364 357.032048 
L 279.218269 356.243399 
L 280.316174 361.329217 
L 281.414079 361.932266 
L 282.511984 358.721553 
L 283.609889 360.845373 
L 285.805699 363.55015 
L 286.903604 362.297143 
L 288.001508 369.552209 
L 289.099413 367.070237 
L 290.197318 360.818313 
L 291.295223 361.74818 
L 292.393128 363.75398 
L 293.491033 362.058719 
L 294.588938 368.572244 
L 295.686843 366.655347 
L 296.784748 369.198859 
L 297.882653 363.767747 
L 298.980557 360.655865 
L 300.078462 359.782851 
L 301.176367 362.30592 
L 302.274272 361.996996 
L 303.372177 359.802309 
L 304.470082 352.359587 
L 305.567987 354.39788 
L 306.665892 354.481194 
L 307.763797 352.550977 
L 308.861702 353.553373 
L 309.959606 363.873558 
L 311.057511 363.149437 
L 312.155416 364.650693 
L 313.253321 365.796479 
L 314.351226 362.450057 
L 315.449131 357.868513 
L 316.547036 356.733538 
L 317.644941 357.388484 
L 318.742846 357.497394 
L 319.840751 360.819174 
L 320.938655 366.632683 
L 322.03656 362.025724 
L 323.134465 360.706481 
L 324.23237 360.122962 
L 325.330275 363.348983 
L 326.42818 356.859437 
L 327.526085 358.259142 
L 328.62399 360.746618 
L 329.721895 357.515424 
L 330.8198 357.087366 
L 331.917704 359.104891 
L 333.015609 360.460414 
L 334.113514 360.564264 
L 336.309324 363.078381 
L 337.407229 363.677784 
L 338.505134 363.166617 
L 339.603039 360.72904 
L 340.700944 357.242438 
L 341.798849 357.214522 
L 342.896754 355.675422 
L 343.994658 353.882648 
L 345.092563 355.277087 
L 346.190468 354.593788 
L 347.288373 353.6906 
L 348.386278 353.337592 
L 349.484183 353.256795 
L 350.582088 352.879757 
L 351.679993 352.089005 
L 352.777898 349.530462 
L 353.875803 348.980947 
L 354.973707 349.796857 
L 356.071612 349.551849 
L 357.169517 352.017603 
L 358.267422 351.524961 
L 360.463232 350.936044 
L 361.561137 349.827233 
L 362.659042 350.254743 
L 363.756947 349.562706 
L 364.854852 351.283687 
L 365.952756 352.057153 
L 367.050661 351.361784 
L 368.148566 351.264898 
L 369.246471 350.773687 
L 370.344376 350.891119 
L 371.442281 350.166419 
L 372.540186 350.012665 
L 373.638091 350.19223 
L 374.735996 350.010499 
L 375.833901 350.327886 
L 376.931805 348.945211 
L 378.02971 351.254223 
L 379.127615 350.479803 
L 380.22552 352.490476 
L 381.323425 352.034025 
L 382.42133 353.078893 
L 383.519235 353.881865 
L 384.61714 353.862772 
L 386.81295 353.116248 
L 387.910854 354.154816 
L 389.008759 352.681093 
L 390.106664 354.230868 
L 391.204569 353.241783 
L 392.302474 351.772196 
L 393.400379 351.267145 
L 394.498284 352.163223 
L 395.596189 351.740475 
L 396.694094 351.696882 
L 397.791999 351.484001 
L 398.889903 352.158925 
L 399.987808 351.393017 
L 401.085713 351.163033 
L 402.183618 351.76411 
L 404.379428 351.966518 
L 405.477333 353.602383 
L 407.673143 353.765197 
L 408.771048 354.20585 
L 409.868952 353.931264 
L 410.966857 354.555883 
L 412.064762 354.580486 
L 413.162667 354.347881 
L 414.260572 354.368737 
L 415.358477 353.963964 
L 416.456382 353.786842 
L 417.554287 351.939149 
L 418.652192 352.942796 
L 419.750097 352.877475 
L 420.848001 352.581209 
L 421.945906 352.501427 
L 423.043811 352.922477 
L 424.141716 352.742117 
L 425.239621 354.481483 
L 426.337526 354.812985 
L 427.435431 353.696759 
L 428.533336 354.238903 
L 429.631241 354.962583 
L 430.729146 355.239689 
L 431.82705 356.283942 
L 432.924955 355.772775 
L 434.02286 355.809941 
L 435.120765 355.326014 
L 436.21867 355.068741 
L 437.316575 355.388913 
L 438.41448 354.742443 
L 439.512385 354.940139 
L 440.61029 354.783643 
L 441.708195 355.190057 
L 442.806099 356.215301 
L 443.904004 355.546594 
L 446.099814 354.821167 
L 448.295624 355.080903 
L 450.491434 354.627539 
L 451.589339 354.552332 
L 453.785148 353.212943 
L 454.883053 353.114392 
L 455.980958 352.079897 
L 458.176768 351.997368 
L 459.274673 352.736393 
L 460.372578 353.08352 
L 461.470483 353.847065 
L 462.568388 353.832962 
L 463.666293 353.07287 
L 464.764197 353.680881 
L 465.862102 353.959053 
L 466.960007 353.328505 
L 468.057912 353.88505 
L 470.253722 354.740136 
L 471.351627 354.720362 
L 472.449532 354.310849 
L 473.547437 353.016335 
L 474.645342 353.470961 
L 475.743246 353.040217 
L 476.841151 353.517275 
L 477.939056 353.584325 
L 479.036961 352.974953 
L 480.134866 353.498475 
L 481.232771 353.410428 
L 482.330676 354.493926 
L 483.428581 354.506214 
L 484.526486 354.760009 
L 485.624391 355.498942 
L 486.722296 355.058087 
L 487.8202 355.39595 
L 488.918105 354.41077 
L 490.01601 353.929621 
L 491.113915 354.513664 
L 492.21182 355.408643 
L 494.40763 356.597631 
L 495.505535 357.470548 
L 496.60344 356.923239 
L 497.701345 356.550863 
L 498.799249 355.274262 
L 499.897154 355.582759 
L 502.092964 353.519184 
L 503.190869 353.300006 
L 504.288774 354.049142 
L 505.386679 354.026181 
L 506.484584 354.74315 
L 507.582489 354.531739 
L 508.680394 353.480491 
L 509.778298 353.795834 
L 510.876203 351.901842 
L 511.974108 352.477594 
L 514.169918 354.953895 
L 515.267823 353.904926 
L 516.365728 353.929715 
L 517.463633 353.10557 
L 519.659443 352.813727 
L 521.855252 353.899681 
L 522.953157 353.321942 
L 524.051062 353.12287 
L 525.148967 353.175916 
L 527.344777 353.603583 
L 528.442682 353.52078 
L 529.540587 354.233466 
L 530.638492 354.183595 
L 531.736396 353.37578 
L 532.834301 353.129355 
L 533.932206 353.938007 
L 535.030111 354.968962 
L 536.128016 355.052391 
L 537.225921 354.440171 
L 539.421731 354.171704 
L 540.519636 354.601836 
L 541.617541 353.715969 
L 542.715445 354.842534 
L 543.81335 354.648825 
L 544.911255 353.171608 
L 546.00916 352.557557 
L 547.107065 353.496484 
L 548.20497 353.683382 
L 549.302875 353.555683 
L 550.40078 354.99751 
L 551.498685 354.933396 
L 552.59659 355.915922 
L 553.694494 355.78762 
L 554.792399 356.008889 
L 555.890304 355.702498 
L 556.988209 355.77002 
L 558.086114 355.445744 
L 559.184019 355.243319 
L 560.281924 353.387015 
L 561.379829 354.73499 
L 562.477734 355.59407 
L 563.575639 355.732851 
L 564.673543 354.759531 
L 565.771448 355.168203 
L 566.869353 354.957275 
L 567.967258 355.426494 
L 569.065163 356.237895 
L 570.163068 356.885383 
L 571.260973 357.204783 
L 572.358878 357.932932 
L 573.456783 358.214413 
L 574.554688 357.870446 
L 575.652592 357.091181 
L 576.750497 359.089242 
L 577.848402 358.797782 
L 578.946307 359.518825 
L 580.044212 360.053601 
L 581.142117 359.540519 
L 582.240022 357.972142 
L 583.337927 358.130744 
L 584.435832 358.146832 
L 585.533737 358.447577 
L 587.729546 358.706041 
L 588.827451 358.707169 
L 589.925356 358.1115 
L 591.023261 358.301364 
L 593.219071 356.875332 
L 594.316976 356.73691 
L 595.414881 355.875421 
L 596.512786 356.321527 
L 597.61069 356.282852 
L 598.708595 355.908805 
L 599.8065 355.880778 
L 600.904405 355.688847 
L 602.00231 355.257622 
L 603.100215 353.85423 
L 604.19812 353.119654 
L 606.39393 353.860887 
L 607.491835 353.978995 
L 608.589739 353.62525 
L 609.687644 354.386797 
L 610.785549 355.755643 
L 611.883454 355.057599 
L 612.981359 353.911827 
L 614.079264 354.332647 
L 615.177169 354.428412 
L 616.275074 354.823337 
L 617.372979 353.944773 
L 618.470884 353.85977 
L 619.568788 353.363596 
L 620.666693 353.680556 
L 621.764598 353.785607 
L 623.960408 353.103388 
L 625.058313 353.742522 
L 626.156218 352.921846 
L 627.254123 353.486142 
L 628.352028 353.28283 
L 629.449933 353.715701 
L 630.547837 354.292459 
L 631.645742 354.357553 
L 632.743647 353.948512 
L 634.939457 355.004198 
L 636.037362 354.487175 
L 637.135267 354.596678 
L 638.233172 354.407068 
L 639.331077 354.613633 
L 640.428982 355.013704 
L 641.526887 354.798583 
L 642.624791 353.304671 
L 643.722696 353.866515 
L 644.820601 353.458625 
L 645.918506 352.909367 
L 647.016411 351.081284 
L 648.114316 352.626818 
L 649.212221 353.158257 
L 650.310126 353.251859 
L 651.408031 352.732252 
L 652.505936 353.158929 
L 653.60384 353.945579 
L 654.701745 353.975357 
L 655.79965 355.029318 
L 656.897555 355.242239 
L 657.99546 354.384957 
L 659.093365 355.670263 
L 660.19127 355.034681 
L 661.289175 355.046603 
L 662.38708 355.801902 
L 663.484985 354.650489 
L 664.582889 354.79905 
L 665.680794 355.175997 
L 666.778699 355.716744 
L 667.876604 356.006935 
L 668.974509 355.322834 
L 670.072414 356.449258 
L 671.170319 357.152276 
L 672.268224 356.41817 
L 673.366129 356.5188 
L 674.464034 357.398633 
L 675.561938 358.134311 
L 676.659843 358.623322 
L 678.855653 360.736721 
L 679.953558 360.243562 
L 681.051463 359.917354 
L 682.149368 360.352961 
L 683.247273 359.822265 
L 683.247273 359.822265 
" style="fill:none;stroke:#ff7f0e;stroke-linecap:square;stroke-width:2;"/>
   </g>
   <g id="line2d_15">
    <path clip-path="url(#pe68dd7ded2)" d="M 135.392727 359.014829 
L 683.247273 359.014829 
L 683.247273 359.014829 
" style="fill:none;stroke:#000000;stroke-dasharray:7.4,3.2;stroke-dashoffset:0;stroke-width:2;"/>
   </g>
   <g id="line2d_16">
    <path clip-path="url(#pe68dd7ded2)" d="M 135.392727 413.569932 
L 136.490632 323.447024 
L 137.588537 325.986987 
L 138.686442 338.403485 
L 139.784347 307.104751 
L 140.882252 312.893752 
L 141.980157 321.02846 
L 144.175966 273.752191 
L 145.273871 258.01789 
L 146.371776 271.48924 
L 147.469681 225.285644 
L 148.567586 230.173071 
L 149.665491 269.890485 
L 150.763396 275.378098 
L 151.861301 250.460742 
L 152.959206 212.864104 
L 154.057111 207.468337 
L 155.155015 188.660487 
L 156.25292 250.91202 
L 157.350825 245.081424 
L 158.44873 225.210197 
L 159.546635 212.837558 
L 160.64454 242.266423 
L 161.742445 268.042764 
L 162.84035 245.924513 
L 163.938255 270.872175 
L 165.03616 266.841542 
L 166.134064 256.790488 
L 167.231969 270.181045 
L 168.329874 274.671523 
L 169.427779 259.68869 
L 170.525684 278.616285 
L 171.623589 279.21141 
L 172.721494 277.470508 
L 173.819399 293.865634 
L 174.917304 267.735846 
L 176.015209 270.734398 
L 177.113113 296.267177 
L 178.211018 302.397223 
L 179.308923 307.07301 
L 180.406828 267.007747 
L 181.504733 261.509467 
L 182.602638 261.381535 
L 183.700543 254.502174 
L 184.798448 243.762457 
L 185.896353 264.706251 
L 186.994258 261.615636 
L 188.092163 253.941359 
L 189.190067 251.757621 
L 190.287972 251.99864 
L 191.385877 252.621761 
L 192.483782 242.999616 
L 193.581687 257.464905 
L 194.679592 248.56004 
L 195.777497 267.725319 
L 196.875402 232.774114 
L 197.973307 258.907096 
L 199.071212 272.935836 
L 200.169116 281.668207 
L 201.267021 271.327472 
L 202.364926 275.784804 
L 203.462831 252.775771 
L 204.560736 252.49814 
L 205.658641 262.487713 
L 206.756546 283.693581 
L 207.854451 280.606276 
L 208.952356 287.377711 
L 210.050261 267.27432 
L 211.148165 267.590228 
L 212.24607 272.731993 
L 213.343975 274.589164 
L 214.44188 279.913992 
L 215.539785 291.912993 
L 216.63769 285.585259 
L 217.735595 297.832207 
L 218.8335 297.204664 
L 219.931405 277.712048 
L 221.02931 277.69509 
L 222.127214 266.637971 
L 223.225119 274.71441 
L 224.323024 278.902594 
L 225.420929 280.806143 
L 226.518834 295.0851 
L 227.616739 283.135 
L 228.714644 276.037379 
L 229.812549 270.724535 
L 230.910454 250.372825 
L 232.008359 251.95272 
L 233.106263 276.546108 
L 234.204168 276.072086 
L 235.302073 291.690773 
L 236.399978 295.172735 
L 237.497883 284.05352 
L 238.595788 270.683349 
L 239.693693 267.437526 
L 240.791598 266.917284 
L 241.889503 276.83782 
L 242.987408 283.614508 
L 244.085312 271.946897 
L 245.183217 264.309391 
L 246.281122 264.010764 
L 247.379027 269.095154 
L 248.476932 269.181311 
L 249.574837 273.189783 
L 250.672742 269.700396 
L 251.770647 267.668535 
L 252.868552 277.534876 
L 253.966457 276.481253 
L 255.064361 275.861029 
L 256.162266 268.930777 
L 257.260171 270.991349 
L 258.358076 264.722953 
L 259.455981 263.584335 
L 260.553886 266.125054 
L 261.651791 267.347773 
L 262.749696 263.162387 
L 264.945506 269.710371 
L 266.04341 275.504714 
L 267.141315 269.205014 
L 268.23922 276.398359 
L 269.337125 271.536743 
L 270.43503 273.71086 
L 271.532935 282.172943 
L 272.63084 284.334436 
L 273.728745 274.846201 
L 274.82665 275.287546 
L 275.924555 280.336845 
L 277.022459 294.026264 
L 278.120364 289.149633 
L 279.218269 286.109268 
L 280.316174 289.98452 
L 281.414079 292.115483 
L 282.511984 283.956903 
L 283.609889 287.468493 
L 284.707794 289.550386 
L 285.805699 284.136443 
L 286.903604 282.653377 
L 288.001508 298.253332 
L 289.099413 296.444676 
L 290.197318 288.082384 
L 291.295223 286.079544 
L 292.393128 286.572206 
L 293.491033 288.48453 
L 294.588938 292.356264 
L 295.686843 288.045123 
L 296.784748 291.092006 
L 297.882653 283.351907 
L 298.980557 280.249263 
L 300.078462 277.861665 
L 301.176367 279.720543 
L 302.274272 280.728507 
L 303.372177 283.467515 
L 304.470082 275.037101 
L 305.567987 276.784798 
L 306.665892 276.574973 
L 307.763797 270.212834 
L 308.861702 274.626414 
L 309.959606 287.48139 
L 311.057511 287.060282 
L 312.155416 289.986788 
L 313.253321 290.186763 
L 314.351226 284.386331 
L 315.449131 279.1846 
L 316.547036 276.239866 
L 317.644941 278.492792 
L 318.742846 275.180886 
L 319.840751 277.53896 
L 320.938655 282.219705 
L 322.03656 278.778786 
L 323.134465 278.678392 
L 324.23237 274.964966 
L 325.330275 277.977004 
L 326.42818 273.364173 
L 327.526085 274.837449 
L 328.62399 277.482956 
L 329.721895 275.55486 
L 330.8198 274.783743 
L 331.917704 276.7541 
L 333.015609 277.357352 
L 334.113514 279.894333 
L 335.211419 283.069 
L 336.309324 285.880853 
L 337.407229 286.216911 
L 338.505134 285.243854 
L 339.603039 282.711144 
L 340.700944 278.871036 
L 341.798849 278.225859 
L 342.896754 277.936386 
L 343.994658 274.449842 
L 345.092563 275.078803 
L 346.190468 273.280615 
L 347.288373 272.102255 
L 348.386278 271.994864 
L 349.484183 271.379906 
L 350.582088 271.205015 
L 352.777898 265.166551 
L 353.875803 265.951846 
L 354.973707 268.944154 
L 356.071612 269.817081 
L 357.169517 272.00488 
L 358.267422 272.812074 
L 359.365327 274.058116 
L 361.561137 275.113353 
L 362.659042 275.160777 
L 363.756947 274.362352 
L 365.952756 277.941414 
L 367.050661 277.566265 
L 368.148566 275.88357 
L 369.246471 275.40169 
L 370.344376 275.270049 
L 371.442281 274.258453 
L 372.540186 272.844718 
L 373.638091 272.047383 
L 374.735996 271.818529 
L 375.833901 273.617742 
L 376.931805 271.640703 
L 378.02971 274.282984 
L 379.127615 273.821003 
L 380.22552 275.267996 
L 381.323425 274.76845 
L 383.519235 277.458979 
L 384.61714 276.659592 
L 385.715045 274.760023 
L 386.81295 274.368029 
L 387.910854 275.998798 
L 389.008759 274.204055 
L 390.106664 276.544724 
L 391.204569 276.748941 
L 392.302474 274.762059 
L 393.400379 273.301166 
L 394.498284 274.883958 
L 395.596189 274.510275 
L 396.694094 275.106576 
L 397.791999 274.956206 
L 398.889903 275.038616 
L 399.987808 274.59662 
L 403.281523 274.440976 
L 404.379428 274.037475 
L 405.477333 275.444813 
L 406.575238 275.796779 
L 407.673143 275.761992 
L 408.771048 276.259471 
L 409.868952 276.231244 
L 410.966857 277.029069 
L 412.064762 277.443607 
L 415.358477 277.343955 
L 416.456382 277.523069 
L 417.554287 276.482434 
L 418.652192 277.70227 
L 419.750097 277.449265 
L 420.848001 276.965214 
L 421.945906 276.965033 
L 423.043811 277.404829 
L 424.141716 277.091217 
L 425.239621 278.930108 
L 426.337526 278.617692 
L 427.435431 278.553902 
L 428.533336 279.323713 
L 429.631241 280.289749 
L 430.729146 280.369153 
L 431.82705 280.965748 
L 432.924955 280.372151 
L 434.02286 280.57742 
L 435.120765 279.700023 
L 437.316575 280.121333 
L 438.41448 278.954504 
L 439.512385 278.842657 
L 440.61029 278.189307 
L 441.708195 278.855134 
L 442.806099 280.494636 
L 443.904004 280.550761 
L 445.001909 279.381157 
L 446.099814 278.677627 
L 447.197719 278.52932 
L 448.295624 278.256452 
L 449.393529 278.426626 
L 450.491434 277.371214 
L 451.589339 277.303759 
L 453.785148 275.676674 
L 455.980958 274.143995 
L 457.078863 273.802279 
L 458.176768 273.102413 
L 459.274673 274.504432 
L 460.372578 274.897705 
L 461.470483 275.469622 
L 462.568388 275.793637 
L 463.666293 275.390855 
L 465.862102 277.858168 
L 466.960007 276.800794 
L 468.057912 277.236902 
L 469.155817 278.541067 
L 470.253722 278.878136 
L 471.351627 278.96273 
L 472.449532 278.415802 
L 473.547437 277.409889 
L 474.645342 277.835297 
L 475.743246 277.238306 
L 477.939056 277.686527 
L 479.036961 277.130365 
L 480.134866 278.474673 
L 481.232771 277.820525 
L 482.330676 279.235001 
L 483.428581 279.526437 
L 484.526486 280.202049 
L 485.624391 280.567253 
L 486.722296 279.785833 
L 487.8202 279.830457 
L 490.01601 278.664562 
L 492.21182 280.965432 
L 493.309725 281.10856 
L 494.40763 282.10594 
L 495.505535 282.347808 
L 496.60344 282.769321 
L 497.701345 282.201553 
L 498.799249 280.785123 
L 499.897154 280.723122 
L 500.995059 280.409966 
L 503.190869 279.451303 
L 504.288774 280.399661 
L 505.386679 280.398275 
L 506.484584 281.620084 
L 508.680394 280.02672 
L 509.778298 280.198277 
L 510.876203 277.505351 
L 511.974108 277.668028 
L 513.072013 278.668165 
L 514.169918 280.292444 
L 515.267823 278.5376 
L 516.365728 279.69319 
L 517.463633 279.27225 
L 518.561538 279.357257 
L 519.659443 278.801308 
L 520.757347 278.973186 
L 521.855252 279.752956 
L 522.953157 279.600721 
L 524.051062 279.7447 
L 525.148967 278.800518 
L 527.344777 279.544755 
L 528.442682 279.304123 
L 529.540587 280.028013 
L 530.638492 280.235736 
L 532.834301 277.68931 
L 533.932206 278.700592 
L 535.030111 279.168124 
L 536.128016 280.058913 
L 537.225921 279.214185 
L 539.421731 278.26145 
L 540.519636 278.917253 
L 541.617541 278.128143 
L 542.715445 279.200745 
L 543.81335 278.616756 
L 544.911255 277.492804 
L 546.00916 277.142735 
L 547.107065 278.700379 
L 548.20497 278.740054 
L 549.302875 277.92762 
L 550.40078 279.083469 
L 551.498685 278.493946 
L 552.59659 279.111805 
L 554.792399 279.404696 
L 555.890304 278.642318 
L 556.988209 279.137278 
L 558.086114 278.70588 
L 559.184019 278.641303 
L 560.281924 276.890253 
L 562.477734 280.11037 
L 563.575639 279.952795 
L 564.673543 278.878874 
L 565.771448 278.754969 
L 566.869353 277.948031 
L 567.967258 278.046371 
L 569.065163 278.797643 
L 570.163068 279.238517 
L 571.260973 280.682366 
L 572.358878 281.911152 
L 573.456783 281.777302 
L 574.554688 281.505481 
L 575.652592 279.879796 
L 576.750497 282.283676 
L 577.848402 281.690617 
L 578.946307 281.571604 
L 580.044212 282.095337 
L 581.142117 281.390276 
L 582.240022 279.775773 
L 583.337927 280.58041 
L 584.435832 280.526936 
L 586.631641 281.18642 
L 587.729546 281.209701 
L 588.827451 281.356858 
L 589.925356 281.032622 
L 591.023261 282.384905 
L 592.121166 281.538233 
L 594.316976 280.792842 
L 595.414881 279.739378 
L 596.512786 280.286164 
L 597.61069 280.240868 
L 598.708595 279.733531 
L 599.8065 279.423942 
L 600.904405 280.864261 
L 602.00231 279.642569 
L 604.19812 276.918871 
L 606.39393 277.730677 
L 607.491835 277.784987 
L 609.687644 278.260958 
L 610.785549 280.071692 
L 611.883454 279.963816 
L 612.981359 279.204676 
L 615.177169 279.028338 
L 616.275074 279.139525 
L 617.372979 278.001558 
L 618.470884 278.144091 
L 619.568788 277.924776 
L 620.666693 278.440421 
L 621.764598 279.166898 
L 622.862503 279.726015 
L 623.960408 279.013123 
L 625.058313 280.34137 
L 626.156218 279.874949 
L 627.254123 280.35889 
L 628.352028 279.821367 
L 629.449933 281.117981 
L 631.645742 280.955286 
L 632.743647 280.179715 
L 633.841552 280.128995 
L 634.939457 280.600416 
L 637.135267 280.644514 
L 638.233172 281.134052 
L 639.331077 281.205393 
L 640.428982 280.871188 
L 641.526887 281.270663 
L 642.624791 279.758163 
L 643.722696 279.879435 
L 644.820601 279.04644 
L 645.918506 278.444511 
L 647.016411 276.608416 
L 648.114316 278.451044 
L 649.212221 278.954469 
L 650.310126 278.475778 
L 651.408031 277.431038 
L 652.505936 278.06793 
L 653.60384 279.346557 
L 654.701745 279.073291 
L 655.79965 280.537892 
L 656.897555 280.44287 
L 657.99546 279.329685 
L 659.093365 280.25818 
L 660.19127 279.420177 
L 661.289175 279.147831 
L 662.38708 279.750233 
L 663.484985 278.47816 
L 664.582889 278.391421 
L 665.680794 278.817937 
L 666.778699 279.490165 
L 667.876604 279.79315 
L 668.974509 279.134679 
L 670.072414 280.497864 
L 671.170319 280.797981 
L 672.268224 279.704392 
L 673.366129 280.318888 
L 674.464034 280.712682 
L 675.561938 281.978035 
L 676.659843 282.00184 
L 677.757748 283.384639 
L 678.855653 285.11615 
L 679.953558 284.813261 
L 681.051463 284.905243 
L 682.149368 285.358816 
L 683.247273 285.374475 
L 683.247273 285.374475 
" style="fill:none;stroke:#2ca02c;stroke-linecap:square;stroke-width:2;"/>
   </g>
   <g id="line2d_17">
    <path clip-path="url(#pe68dd7ded2)" d="M 135.392727 283.334234 
L 683.247273 283.334234 
L 683.247273 283.334234 
" style="fill:none;stroke:#000000;stroke-dasharray:7.4,3.2;stroke-dashoffset:0;stroke-width:2;"/>
   </g>
   <g id="line2d_18">
    <path clip-path="url(#pe68dd7ded2)" d="M 135.392727 397.663145 
L 136.490632 297.14348 
L 138.686442 261.29842 
L 139.784347 237.475327 
L 140.882252 223.449136 
L 141.980157 232.014646 
L 143.078062 198.515747 
L 144.175966 182.951604 
L 145.273871 173.174765 
L 146.371776 190.575561 
L 147.469681 165.346421 
L 148.567586 174.842782 
L 149.665491 193.58104 
L 150.763396 189.857952 
L 151.861301 160.999748 
L 152.959206 160.0472 
L 154.057111 136.859889 
L 155.155015 120.71391 
L 156.25292 167.764753 
L 157.350825 182.711481 
L 159.546635 143.814296 
L 160.64454 160.802663 
L 161.742445 181.009102 
L 162.84035 171.913512 
L 163.938255 199.223675 
L 165.03616 188.111747 
L 166.134064 173.107394 
L 167.231969 197.662672 
L 168.329874 196.112256 
L 169.427779 177.710021 
L 170.525684 200.448681 
L 171.623589 178.483553 
L 172.721494 188.371641 
L 173.819399 213.420758 
L 174.917304 198.098842 
L 176.015209 213.501487 
L 177.113113 219.979107 
L 178.211018 228.939334 
L 179.308923 233.318928 
L 180.406828 184.304317 
L 181.504733 177.533748 
L 182.602638 166.197674 
L 183.700543 161.353862 
L 184.798448 166.060901 
L 185.896353 167.581314 
L 186.994258 174.442268 
L 189.190067 164.268555 
L 190.287972 167.502156 
L 191.385877 174.718351 
L 192.483782 167.1782 
L 193.581687 187.858006 
L 194.679592 167.198134 
L 195.777497 183.38153 
L 196.875402 161.508918 
L 197.973307 179.169245 
L 200.169116 206.495532 
L 201.267021 194.163269 
L 202.364926 192.432969 
L 203.462831 185.603233 
L 204.560736 180.593713 
L 205.658641 193.731736 
L 206.756546 211.546564 
L 207.854451 207.778167 
L 208.952356 212.058909 
L 210.050261 191.24625 
L 211.148165 193.617772 
L 214.44188 202.219367 
L 215.539785 221.34103 
L 216.63769 220.677541 
L 217.735595 226.073701 
L 218.8335 218.806694 
L 219.931405 194.315787 
L 221.02931 194.374397 
L 222.127214 189.832137 
L 223.225119 195.196763 
L 224.323024 203.365233 
L 225.420929 203.917911 
L 226.518834 220.8442 
L 227.616739 213.219747 
L 228.714644 208.079061 
L 229.812549 196.523857 
L 230.910454 180.117404 
L 232.008359 184.553946 
L 233.106263 199.375785 
L 234.204168 195.13921 
L 235.302073 201.820055 
L 236.399978 206.730999 
L 237.497883 200.591264 
L 238.595788 191.655464 
L 239.693693 187.614908 
L 240.791598 182.223494 
L 241.889503 186.652364 
L 242.987408 191.868014 
L 244.085312 190.086226 
L 245.183217 186.17711 
L 247.379027 202.885187 
L 248.476932 197.95825 
L 249.574837 200.866106 
L 250.672742 196.234149 
L 251.770647 195.851812 
L 252.868552 201.996193 
L 253.966457 193.322684 
L 255.064361 196.60909 
L 256.162266 193.467799 
L 257.260171 200.345073 
L 258.358076 191.884598 
L 259.455981 189.060007 
L 260.553886 193.863579 
L 262.749696 192.302767 
L 263.847601 200.085709 
L 264.945506 199.273732 
L 266.04341 205.736879 
L 267.141315 196.882125 
L 268.23922 197.969666 
L 269.337125 192.502806 
L 270.43503 194.970063 
L 271.532935 202.145052 
L 272.63084 206.62217 
L 273.728745 198.694457 
L 274.82665 199.675326 
L 275.924555 203.135262 
L 277.022459 210.798292 
L 278.120364 203.541175 
L 279.218269 202.531921 
L 280.316174 202.805193 
L 281.414079 208.408927 
L 282.511984 203.852997 
L 283.609889 206.794591 
L 284.707794 206.357828 
L 285.805699 200.959631 
L 286.903604 200.418757 
L 288.001508 210.400326 
L 289.099413 216.639401 
L 290.197318 211.109081 
L 291.295223 207.650696 
L 292.393128 207.213504 
L 293.491033 209.900699 
L 294.588938 206.505083 
L 295.686843 205.236659 
L 296.784748 209.409868 
L 297.882653 203.164713 
L 298.980557 201.693231 
L 300.078462 199.661215 
L 301.176367 198.379674 
L 302.274272 198.991224 
L 303.372177 203.783633 
L 304.470082 196.001108 
L 306.665892 195.325015 
L 307.763797 192.80295 
L 308.861702 195.710585 
L 309.959606 202.307972 
L 311.057511 202.647593 
L 312.155416 204.439627 
L 313.253321 203.421836 
L 314.351226 198.347376 
L 315.449131 194.392365 
L 316.547036 192.477071 
L 317.644941 191.34844 
L 318.742846 186.495635 
L 319.840751 188.571684 
L 320.938655 192.357375 
L 322.03656 191.32429 
L 323.134465 191.314783 
L 324.23237 187.641731 
L 325.330275 188.782757 
L 326.42818 186.3858 
L 327.526085 186.08472 
L 328.62399 186.460331 
L 329.721895 186.030987 
L 330.8198 185.778138 
L 331.917704 184.654643 
L 333.015609 185.672795 
L 334.113514 190.277558 
L 336.309324 194.269433 
L 337.407229 192.785308 
L 338.505134 192.3101 
L 339.603039 192.966332 
L 340.700944 191.844109 
L 341.798849 191.558442 
L 342.896754 191.60776 
L 343.994658 187.978257 
L 345.092563 186.327033 
L 346.190468 185.406383 
L 347.288373 185.834422 
L 348.386278 184.344468 
L 349.484183 183.22423 
L 350.582088 182.837476 
L 351.679993 180.404924 
L 352.777898 178.945439 
L 353.875803 182.226498 
L 354.973707 183.924695 
L 357.169517 185.701104 
L 358.267422 186.902992 
L 359.365327 189.12909 
L 360.463232 191.791756 
L 362.659042 192.882307 
L 363.756947 192.481801 
L 364.854852 193.449921 
L 365.952756 194.639762 
L 367.050661 195.250285 
L 368.148566 193.634816 
L 369.246471 193.494139 
L 370.344376 192.724646 
L 371.442281 192.316749 
L 372.540186 190.921985 
L 373.638091 190.642334 
L 374.735996 189.607119 
L 375.833901 190.960705 
L 376.931805 189.620427 
L 378.02971 191.768852 
L 381.323425 192.258915 
L 382.42133 192.979279 
L 383.519235 194.404557 
L 386.81295 191.250506 
L 387.910854 192.473776 
L 389.008759 191.880626 
L 391.204569 193.902324 
L 392.302474 192.207507 
L 393.400379 191.273293 
L 394.498284 193.29005 
L 395.596189 192.868275 
L 396.694094 193.631639 
L 398.889903 194.091514 
L 399.987808 194.62223 
L 401.085713 194.329711 
L 402.183618 193.748454 
L 403.281523 193.904448 
L 404.379428 193.692539 
L 405.477333 193.994075 
L 406.575238 194.02415 
L 407.673143 194.204861 
L 408.771048 194.777714 
L 409.868952 195.529463 
L 410.966857 195.271522 
L 412.064762 195.793087 
L 414.260572 195.271924 
L 416.456382 196.053771 
L 417.554287 196.131742 
L 418.652192 197.297876 
L 419.750097 196.457514 
L 420.848001 196.005924 
L 421.945906 196.358316 
L 423.043811 196.565533 
L 424.141716 196.255769 
L 425.239621 197.432285 
L 426.337526 197.156526 
L 427.435431 197.014312 
L 428.533336 198.275527 
L 429.631241 198.655366 
L 430.729146 198.342373 
L 431.82705 199.036994 
L 432.924955 199.157274 
L 434.02286 199.658385 
L 435.120765 198.764328 
L 436.21867 199.322583 
L 437.316575 199.500448 
L 438.41448 198.952637 
L 439.512385 199.151118 
L 440.61029 198.488609 
L 441.708195 198.715416 
L 442.806099 199.418515 
L 443.904004 199.341854 
L 445.001909 199.018713 
L 446.099814 198.503568 
L 447.197719 198.135011 
L 448.295624 197.997427 
L 449.393529 198.388723 
L 450.491434 197.852367 
L 451.589339 197.12302 
L 453.785148 196.091545 
L 454.883053 195.1626 
L 457.078863 194.553169 
L 458.176768 194.038624 
L 459.274673 194.750561 
L 460.372578 194.728284 
L 461.470483 194.819547 
L 462.568388 195.129068 
L 463.666293 195.078245 
L 464.764197 196.106236 
L 465.862102 197.809219 
L 466.960007 197.131227 
L 468.057912 196.965456 
L 471.351627 199.678466 
L 472.449532 199.554049 
L 473.547437 199.259654 
L 474.645342 199.362955 
L 475.743246 198.285461 
L 476.841151 198.349235 
L 477.939056 198.624726 
L 479.036961 198.454645 
L 480.134866 199.749145 
L 481.232771 198.922719 
L 483.428581 200.460014 
L 484.526486 200.574068 
L 485.624391 201.056565 
L 486.722296 199.75483 
L 488.918105 198.7964 
L 490.01601 198.089422 
L 491.113915 198.656623 
L 492.21182 199.372238 
L 493.309725 198.732514 
L 494.40763 199.177359 
L 495.505535 199.214639 
L 496.60344 200.4645 
L 497.701345 200.225205 
L 498.799249 199.526005 
L 499.897154 199.383849 
L 500.995059 200.290416 
L 502.092964 200.044522 
L 503.190869 199.558673 
L 504.288774 199.359887 
L 505.386679 199.540167 
L 506.484584 201.339411 
L 507.582489 201.186499 
L 508.680394 200.277265 
L 509.778298 200.108397 
L 510.876203 198.492973 
L 511.974108 197.966911 
L 513.072013 199.280083 
L 514.169918 199.970838 
L 515.267823 198.980256 
L 516.365728 200.668338 
L 517.463633 200.421795 
L 518.561538 201.306984 
L 519.659443 201.329426 
L 520.757347 201.63743 
L 521.855252 203.254692 
L 522.953157 203.980839 
L 524.051062 204.271206 
L 525.148967 203.051541 
L 526.246872 203.181202 
L 528.442682 201.855086 
L 530.638492 202.499207 
L 531.736396 201.653292 
L 532.834301 200.35394 
L 533.932206 201.397433 
L 535.030111 201.210019 
L 536.128016 202.247953 
L 537.225921 202.090759 
L 538.323826 201.799762 
L 539.421731 201.968307 
L 540.519636 202.305634 
L 541.617541 202.193989 
L 542.715445 202.24567 
L 544.911255 200.665773 
L 546.00916 200.049907 
L 547.107065 200.78908 
L 549.302875 199.70077 
L 550.40078 200.023818 
L 551.498685 199.251618 
L 552.59659 199.153585 
L 554.792399 199.792422 
L 555.890304 198.636384 
L 556.988209 199.365464 
L 558.086114 199.365249 
L 559.184019 198.627262 
L 560.281924 197.572052 
L 561.379829 198.874371 
L 562.477734 199.409599 
L 564.673543 198.275779 
L 565.771448 198.028183 
L 567.967258 196.795112 
L 569.065163 197.614589 
L 570.163068 198.143356 
L 571.260973 200.760492 
L 572.358878 202.135855 
L 573.456783 202.610198 
L 575.652592 201.343681 
L 576.750497 202.914593 
L 577.848402 202.573992 
L 578.946307 202.012265 
L 580.044212 201.88307 
L 581.142117 201.364308 
L 582.240022 200.012712 
L 583.337927 200.532405 
L 584.435832 200.494688 
L 586.631641 201.453851 
L 587.729546 201.704951 
L 588.827451 201.481499 
L 589.925356 201.553968 
L 591.023261 202.90193 
L 593.219071 202.235683 
L 595.414881 201.112923 
L 596.512786 201.383647 
L 597.61069 201.41501 
L 598.708595 200.664275 
L 599.8065 200.941063 
L 600.904405 202.19658 
L 602.00231 201.526995 
L 603.100215 200.586161 
L 604.19812 200.182131 
L 605.296025 200.513045 
L 606.39393 201.13763 
L 607.491835 201.573035 
L 608.589739 202.578173 
L 609.687644 202.349686 
L 610.785549 203.445217 
L 611.883454 203.654774 
L 612.981359 202.980534 
L 614.079264 202.670517 
L 615.177169 202.708931 
L 616.275074 202.562413 
L 617.372979 201.771636 
L 618.470884 202.174815 
L 619.568788 201.995927 
L 620.666693 202.150709 
L 621.764598 203.044265 
L 622.862503 203.697316 
L 623.960408 203.164799 
L 625.058313 204.649443 
L 626.156218 204.148387 
L 627.254123 203.892416 
L 628.352028 203.385022 
L 629.449933 204.306457 
L 630.547837 203.942418 
L 631.645742 204.498613 
L 633.841552 203.4096 
L 634.939457 203.163196 
L 636.037362 203.435959 
L 637.135267 203.437101 
L 638.233172 203.798246 
L 639.331077 203.503003 
L 640.428982 202.954326 
L 641.526887 203.069726 
L 642.624791 202.070636 
L 643.722696 202.110461 
L 644.820601 201.030122 
L 645.918506 200.50787 
L 647.016411 199.187683 
L 648.114316 199.921041 
L 649.212221 200.261308 
L 650.310126 200.24087 
L 651.408031 198.923959 
L 652.505936 199.487366 
L 653.60384 200.969473 
L 654.701745 200.381089 
L 655.79965 201.783113 
L 656.897555 201.694243 
L 657.99546 200.449414 
L 659.093365 200.055874 
L 660.19127 199.508238 
L 661.289175 199.558709 
L 662.38708 200.347222 
L 663.484985 199.488064 
L 664.582889 198.949989 
L 666.778699 199.78002 
L 667.876604 200.629524 
L 668.974509 200.51293 
L 670.072414 201.457101 
L 671.170319 201.956799 
L 672.268224 201.242875 
L 673.366129 201.28712 
L 674.464034 200.651035 
L 675.561938 201.943816 
L 676.659843 202.090395 
L 677.757748 202.472725 
L 678.855653 204.735941 
L 679.953558 204.34604 
L 681.051463 204.538116 
L 682.149368 205.401286 
L 683.247273 205.677686 
L 683.247273 205.677686 
" style="fill:none;stroke:#d62728;stroke-linecap:square;stroke-width:2;"/>
   </g>
   <g id="line2d_19">
    <path clip-path="url(#pe68dd7ded2)" d="M 135.392727 202.362486 
L 683.247273 202.362486 
L 683.247273 202.362486 
" style="fill:none;stroke:#000000;stroke-dasharray:7.4,3.2;stroke-dashoffset:0;stroke-width:2;"/>
   </g>
   <g id="line2d_20">
    <path clip-path="url(#pe68dd7ded2)" d="M 135.392727 375.278119 
L 136.490632 288.236644 
L 137.588537 261.600269 
L 139.784347 199.099309 
L 140.882252 179.188642 
L 141.980157 174.258895 
L 143.078062 151.400851 
L 145.273871 114.800553 
L 146.371776 126.115863 
L 147.469681 112.907107 
L 148.567586 122.46694 
L 149.665491 122.02961 
L 150.763396 111.793366 
L 151.861301 104.059734 
L 152.959206 94.519472 
L 154.057111 95.57226 
L 155.155015 90.331122 
L 156.25292 107.732802 
L 157.350825 117.082638 
L 158.44873 108.578005 
L 159.546635 103.864944 
L 160.64454 101.357036 
L 161.742445 103.734523 
L 162.84035 98.297037 
L 163.938255 104.611553 
L 166.134064 98.083444 
L 167.231969 127.838537 
L 168.329874 115.318608 
L 169.427779 105.241203 
L 170.525684 107.501822 
L 171.623589 107.000089 
L 172.721494 108.137055 
L 173.819399 121.402501 
L 174.917304 114.069662 
L 176.015209 115.712235 
L 177.113113 116.842445 
L 178.211018 124.433723 
L 179.308923 133.670039 
L 180.406828 120.792238 
L 181.504733 118.941026 
L 182.602638 102.667829 
L 183.700543 90.671253 
L 184.798448 98.185984 
L 185.896353 89.28 
L 186.994258 99.654553 
L 188.092163 94.153486 
L 189.190067 97.166141 
L 190.287972 92.557753 
L 191.385877 95.736915 
L 192.483782 93.630332 
L 193.581687 105.809566 
L 194.679592 100.137512 
L 195.777497 112.730807 
L 196.875402 102.669318 
L 197.973307 106.459275 
L 199.071212 112.741488 
L 200.169116 124.331678 
L 201.267021 119.374651 
L 202.364926 113.229707 
L 203.462831 118.689428 
L 204.560736 104.308164 
L 205.658641 114.667981 
L 206.756546 127.85867 
L 207.854451 123.880252 
L 208.952356 129.266781 
L 210.050261 119.943859 
L 211.148165 115.405722 
L 212.24607 113.344962 
L 213.343975 108.71788 
L 214.44188 108.864395 
L 215.539785 118.979873 
L 216.63769 119.385683 
L 217.735595 122.954036 
L 218.8335 123.570281 
L 219.931405 113.46713 
L 221.02931 114.042188 
L 222.127214 113.796182 
L 223.225119 110.359723 
L 224.323024 115.880355 
L 225.420929 112.760862 
L 226.518834 127.851483 
L 227.616739 123.539525 
L 228.714644 124.250495 
L 229.812549 119.509587 
L 230.910454 111.201973 
L 232.008359 110.812139 
L 233.106263 112.293098 
L 234.204168 113.062315 
L 235.302073 113.508584 
L 236.399978 115.830403 
L 237.497883 114.89078 
L 238.595788 106.741793 
L 239.693693 104.75262 
L 240.791598 99.289165 
L 242.987408 106.01375 
L 244.085312 104.928546 
L 245.183217 108.202519 
L 246.281122 118.120102 
L 247.379027 123.075309 
L 248.476932 119.634277 
L 249.574837 121.614589 
L 250.672742 117.31607 
L 251.770647 116.531729 
L 252.868552 120.332787 
L 253.966457 116.16387 
L 255.064361 117.397856 
L 256.162266 116.492609 
L 257.260171 119.133429 
L 258.358076 114.773852 
L 259.455981 111.912045 
L 260.553886 118.635099 
L 261.651791 115.582926 
L 262.749696 115.490238 
L 263.847601 118.924708 
L 264.945506 114.881412 
L 266.04341 119.825599 
L 267.141315 115.879085 
L 268.23922 112.824508 
L 269.337125 108.028929 
L 270.43503 109.461902 
L 271.532935 115.569399 
L 272.63084 117.56379 
L 273.728745 113.444607 
L 274.82665 113.940151 
L 275.924555 113.776874 
L 277.022459 113.971853 
L 278.120364 111.613431 
L 279.218269 111.867572 
L 280.316174 109.972674 
L 281.414079 113.868808 
L 282.511984 112.544927 
L 283.609889 112.949017 
L 284.707794 110.910012 
L 285.805699 110.534595 
L 286.903604 111.869433 
L 288.001508 115.464043 
L 289.099413 121.926112 
L 290.197318 119.364111 
L 292.393128 116.376784 
L 293.491033 117.166852 
L 294.588938 114.53391 
L 295.686843 113.285659 
L 296.784748 117.052691 
L 297.882653 114.595173 
L 298.980557 115.788134 
L 300.078462 114.4216 
L 301.176367 112.506405 
L 302.274272 111.939379 
L 303.372177 112.188161 
L 304.470082 109.766943 
L 305.567987 108.680241 
L 307.763797 109.025485 
L 308.861702 110.113702 
L 309.959606 112.109926 
L 311.057511 112.377705 
L 312.155416 114.114661 
L 313.253321 113.574349 
L 314.351226 111.2814 
L 315.449131 110.01534 
L 316.547036 110.042319 
L 317.644941 108.487272 
L 318.742846 105.195745 
L 319.840751 105.84391 
L 320.938655 108.419863 
L 322.03656 106.886869 
L 323.134465 106.980276 
L 324.23237 105.695258 
L 325.330275 104.863641 
L 326.42818 104.828536 
L 327.526085 103.413248 
L 328.62399 103.711582 
L 329.721895 103.295435 
L 331.917704 101.603304 
L 333.015609 101.955025 
L 334.113514 104.016069 
L 335.211419 104.593982 
L 336.309324 104.998867 
L 337.407229 103.828033 
L 338.505134 103.18866 
L 339.603039 104.065969 
L 341.798849 103.913095 
L 342.896754 103.805908 
L 343.994658 102.557307 
L 345.092563 101.616423 
L 346.190468 101.588551 
L 347.288373 102.079132 
L 348.386278 101.924094 
L 349.484183 101.174801 
L 350.582088 101.129059 
L 351.679993 100.535683 
L 352.777898 100.562267 
L 353.875803 101.887278 
L 354.973707 101.926339 
L 356.071612 102.413117 
L 357.169517 102.746808 
L 359.365327 104.639738 
L 360.463232 106.767874 
L 361.561137 106.457268 
L 362.659042 106.745119 
L 363.756947 106.828145 
L 364.854852 107.182821 
L 365.952756 107.22913 
L 367.050661 108.584675 
L 368.148566 108.279999 
L 370.344376 108.365444 
L 372.540186 107.096399 
L 373.638091 107.249847 
L 374.735996 106.800857 
L 376.931805 106.342289 
L 378.02971 107.115401 
L 379.127615 107.36789 
L 380.22552 107.431762 
L 381.323425 108.010946 
L 382.42133 108.22576 
L 383.519235 108.86436 
L 384.61714 108.474508 
L 385.715045 108.439203 
L 386.81295 107.915555 
L 387.910854 108.378681 
L 389.008759 107.967937 
L 390.106664 107.763509 
L 391.204569 108.773196 
L 392.302474 108.050187 
L 393.400379 107.638514 
L 394.498284 108.351567 
L 395.596189 108.095815 
L 396.694094 108.577249 
L 397.791999 108.697088 
L 398.889903 109.119844 
L 399.987808 109.3733 
L 402.183618 108.869946 
L 404.379428 108.567705 
L 406.575238 108.291651 
L 407.673143 108.66753 
L 408.771048 108.75191 
L 409.868952 108.959177 
L 410.966857 108.934036 
L 412.064762 109.416426 
L 413.162667 109.360799 
L 414.260572 109.108283 
L 417.554287 108.818771 
L 418.652192 109.290556 
L 420.848001 108.502246 
L 423.043811 108.934798 
L 424.141716 108.657475 
L 425.239621 108.930762 
L 426.337526 108.991075 
L 427.435431 109.207599 
L 428.533336 110.281846 
L 429.631241 110.317809 
L 430.729146 110.035353 
L 431.82705 110.656219 
L 432.924955 110.635994 
L 434.02286 111.09414 
L 435.120765 110.601957 
L 436.21867 111.157091 
L 437.316575 111.324849 
L 438.41448 111.289612 
L 439.512385 111.500233 
L 440.61029 111.140806 
L 441.708195 111.010627 
L 442.806099 111.175002 
L 443.904004 111.021526 
L 445.001909 111.379696 
L 446.099814 111.034866 
L 447.197719 111.024768 
L 449.393529 111.336599 
L 450.491434 111.360031 
L 453.785148 110.792192 
L 454.883053 110.242129 
L 455.980958 110.254982 
L 458.176768 109.705586 
L 459.274673 109.848481 
L 460.372578 109.68514 
L 461.470483 109.682995 
L 463.666293 110.004286 
L 464.764197 110.315741 
L 465.862102 111.061702 
L 469.155817 110.140085 
L 471.351627 111.183182 
L 473.547437 110.926699 
L 474.645342 110.661323 
L 475.743246 110.191487 
L 477.939056 110.114311 
L 479.036961 110.340738 
L 480.134866 110.716093 
L 481.232771 110.426378 
L 482.330676 110.64751 
L 483.428581 111.111644 
L 484.526486 110.88534 
L 485.624391 111.575617 
L 486.722296 110.836373 
L 487.8202 110.550405 
L 488.918105 110.090976 
L 491.113915 109.847563 
L 492.21182 110.016036 
L 493.309725 109.406812 
L 494.40763 109.241562 
L 495.505535 109.256199 
L 496.60344 109.651667 
L 497.701345 109.735529 
L 498.799249 109.372089 
L 499.897154 109.17095 
L 500.995059 109.854071 
L 503.190869 109.13435 
L 504.288774 108.635205 
L 505.386679 109.127054 
L 506.484584 110.200456 
L 507.582489 110.718543 
L 508.680394 110.09862 
L 509.778298 109.986585 
L 510.876203 109.345686 
L 511.974108 109.126875 
L 513.072013 110.134713 
L 514.169918 110.320219 
L 515.267823 110.246321 
L 516.365728 110.857001 
L 517.463633 111.039941 
L 518.561538 111.679891 
L 519.659443 111.757665 
L 520.757347 112.303155 
L 521.855252 113.373289 
L 522.953157 113.795214 
L 524.051062 113.723097 
L 525.148967 113.113916 
L 526.246872 112.748899 
L 527.344777 112.181924 
L 528.442682 111.874572 
L 529.540587 111.787737 
L 530.638492 112.0939 
L 531.736396 111.591891 
L 532.834301 111.413854 
L 533.932206 112.139867 
L 535.030111 112.171717 
L 537.225921 112.675087 
L 538.323826 112.745777 
L 540.519636 113.219649 
L 541.617541 113.346036 
L 542.715445 113.284661 
L 543.81335 113.016816 
L 546.00916 112.144677 
L 547.107065 112.221286 
L 548.20497 111.842047 
L 549.302875 111.921042 
L 550.40078 111.718314 
L 551.498685 111.185191 
L 552.59659 110.907691 
L 553.694494 110.917208 
L 554.792399 111.154477 
L 555.890304 110.623264 
L 556.988209 110.809376 
L 558.086114 110.845437 
L 560.281924 110.150147 
L 561.379829 110.746255 
L 562.477734 110.836818 
L 563.575639 110.17455 
L 566.869353 109.741772 
L 567.967258 109.392004 
L 569.065163 109.646647 
L 570.163068 110.202375 
L 571.260973 111.834061 
L 573.456783 113.13587 
L 574.554688 112.960482 
L 575.652592 112.941214 
L 576.750497 113.499086 
L 581.142117 113.210588 
L 582.240022 112.720611 
L 583.337927 113.052166 
L 584.435832 112.934404 
L 585.533737 113.400833 
L 586.631641 113.615057 
L 587.729546 114.084128 
L 588.827451 114.013066 
L 589.925356 114.177346 
L 591.023261 114.957904 
L 592.121166 115.138924 
L 593.219071 115.074631 
L 595.414881 114.699287 
L 596.512786 114.798664 
L 597.61069 114.733646 
L 598.708595 114.184732 
L 599.8065 114.69091 
L 600.904405 114.991793 
L 602.00231 115.156243 
L 603.100215 114.778819 
L 604.19812 115.165173 
L 605.296025 114.908062 
L 606.39393 115.256755 
L 607.491835 115.392955 
L 608.589739 116.177367 
L 609.687644 116.236217 
L 610.785549 116.533457 
L 611.883454 116.580758 
L 612.981359 116.300017 
L 614.079264 116.26668 
L 616.275074 116.580998 
L 617.372979 116.260308 
L 618.470884 116.589543 
L 619.568788 116.1821 
L 620.666693 116.313592 
L 621.764598 116.564124 
L 622.862503 117.089298 
L 623.960408 116.813267 
L 625.058313 117.269189 
L 627.254123 116.893159 
L 628.352028 116.663757 
L 629.449933 116.613796 
L 630.547837 116.42232 
L 631.645742 116.591294 
L 632.743647 116.295168 
L 633.841552 116.246059 
L 634.939457 116.001805 
L 637.135267 115.999396 
L 638.233172 116.235648 
L 639.331077 116.107742 
L 641.526887 115.327367 
L 642.624791 114.827274 
L 643.722696 114.835712 
L 644.820601 114.426389 
L 645.918506 114.47994 
L 647.016411 113.941345 
L 649.212221 114.074784 
L 650.310126 114.483675 
L 651.408031 114.018903 
L 652.505936 114.242239 
L 653.60384 114.901827 
L 654.701745 114.565998 
L 655.79965 115.25339 
L 656.897555 114.932693 
L 657.99546 114.433246 
L 659.093365 114.253921 
L 660.19127 113.776649 
L 662.38708 114.222708 
L 664.582889 113.4724 
L 666.778699 113.669391 
L 670.072414 114.693664 
L 671.170319 114.842757 
L 672.268224 114.504858 
L 674.464034 114.345387 
L 675.561938 115.017561 
L 676.659843 115.210891 
L 677.757748 115.109905 
L 678.855653 116.329419 
L 681.051463 116.290138 
L 683.247273 116.977141 
L 683.247273 116.977141 
" style="fill:none;stroke:#9467bd;stroke-linecap:square;stroke-width:2;"/>
   </g>
   <g id="line2d_21">
    <path clip-path="url(#pe68dd7ded2)" d="M 135.392727 115.323154 
L 683.247273 115.323154 
L 683.247273 115.323154 
" style="fill:none;stroke:#000000;stroke-dasharray:7.4,3.2;stroke-dashoffset:0;stroke-width:2;"/>
   </g>
   <g id="patch_3">
    <path d="M 108 512.64 
L 108 69.12 
" style="fill:none;stroke:#000000;stroke-linecap:square;stroke-linejoin:miter;stroke-width:0.8;"/>
   </g>
   <g id="patch_4">
    <path d="M 710.64 512.64 
L 710.64 69.12 
" style="fill:none;stroke:#000000;stroke-linecap:square;stroke-linejoin:miter;stroke-width:0.8;"/>
   </g>
   <g id="patch_5">
    <path d="M 108 512.64 
L 710.64 512.64 
" style="fill:none;stroke:#000000;stroke-linecap:square;stroke-linejoin:miter;stroke-width:0.8;"/>
   </g>
   <g id="patch_6">
    <path d="M 108 69.12 
L 710.64 69.12 
" style="fill:none;stroke:#000000;stroke-linecap:square;stroke-linejoin:miter;stroke-width:0.8;"/>
   </g>
   <g id="text_14">
    <!-- EVMC estimates through time vs true values averaged over 50 environments -->
    <g transform="translate(84.220312 63.12)scale(0.168 -0.168)">
     <defs>
      <path d="M 628 4666 
L 1569 4666 
L 2759 1491 
L 3956 4666 
L 4897 4666 
L 4897 0 
L 4281 0 
L 4281 4097 
L 3078 897 
L 2444 897 
L 1241 4097 
L 1241 0 
L 628 0 
L 628 4666 
z
" id="DejaVuSans-4d" transform="scale(0.015625)"/>
      <path d="M 4122 4306 
L 4122 3641 
Q 3803 3938 3442 4084 
Q 3081 4231 2675 4231 
Q 1875 4231 1450 3742 
Q 1025 3253 1025 2328 
Q 1025 1406 1450 917 
Q 1875 428 2675 428 
Q 3081 428 3442 575 
Q 3803 722 4122 1019 
L 4122 359 
Q 3791 134 3420 21 
Q 3050 -91 2638 -91 
Q 1578 -91 968 557 
Q 359 1206 359 2328 
Q 359 3453 968 4101 
Q 1578 4750 2638 4750 
Q 3056 4750 3426 4639 
Q 3797 4528 4122 4306 
z
" id="DejaVuSans-43" transform="scale(0.015625)"/>
      <path d="M 3328 2828 
Q 3544 3216 3844 3400 
Q 4144 3584 4550 3584 
Q 5097 3584 5394 3201 
Q 5691 2819 5691 2113 
L 5691 0 
L 5113 0 
L 5113 2094 
Q 5113 2597 4934 2840 
Q 4756 3084 4391 3084 
Q 3944 3084 3684 2787 
Q 3425 2491 3425 1978 
L 3425 0 
L 2847 0 
L 2847 2094 
Q 2847 2600 2669 2842 
Q 2491 3084 2119 3084 
Q 1678 3084 1418 2786 
Q 1159 2488 1159 1978 
L 1159 0 
L 581 0 
L 581 3500 
L 1159 3500 
L 1159 2956 
Q 1356 3278 1631 3431 
Q 1906 3584 2284 3584 
Q 2666 3584 2933 3390 
Q 3200 3197 3328 2828 
z
" id="DejaVuSans-6d" transform="scale(0.015625)"/>
      <path d="M 3513 2113 
L 3513 0 
L 2938 0 
L 2938 2094 
Q 2938 2591 2744 2837 
Q 2550 3084 2163 3084 
Q 1697 3084 1428 2787 
Q 1159 2491 1159 1978 
L 1159 0 
L 581 0 
L 581 4863 
L 1159 4863 
L 1159 2956 
Q 1366 3272 1645 3428 
Q 1925 3584 2291 3584 
Q 2894 3584 3203 3211 
Q 3513 2838 3513 2113 
z
" id="DejaVuSans-68" transform="scale(0.015625)"/>
      <path d="M 2631 2963 
Q 2534 3019 2420 3045 
Q 2306 3072 2169 3072 
Q 1681 3072 1420 2755 
Q 1159 2438 1159 1844 
L 1159 0 
L 581 0 
L 581 3500 
L 1159 3500 
L 1159 2956 
Q 1341 3275 1631 3429 
Q 1922 3584 2338 3584 
Q 2397 3584 2469 3576 
Q 2541 3569 2628 3553 
L 2631 2963 
z
" id="DejaVuSans-72" transform="scale(0.015625)"/>
      <path d="M 2906 1791 
Q 2906 2416 2648 2759 
Q 2391 3103 1925 3103 
Q 1463 3103 1205 2759 
Q 947 2416 947 1791 
Q 947 1169 1205 825 
Q 1463 481 1925 481 
Q 2391 481 2648 825 
Q 2906 1169 2906 1791 
z
M 3481 434 
Q 3481 -459 3084 -895 
Q 2688 -1331 1869 -1331 
Q 1566 -1331 1297 -1286 
Q 1028 -1241 775 -1147 
L 775 -588 
Q 1028 -725 1275 -790 
Q 1522 -856 1778 -856 
Q 2344 -856 2625 -561 
Q 2906 -266 2906 331 
L 2906 616 
Q 2728 306 2450 153 
Q 2172 0 1784 0 
Q 1141 0 747 490 
Q 353 981 353 1791 
Q 353 2603 747 3093 
Q 1141 3584 1784 3584 
Q 2172 3584 2450 3431 
Q 2728 3278 2906 2969 
L 2906 3500 
L 3481 3500 
L 3481 434 
z
" id="DejaVuSans-67" transform="scale(0.015625)"/>
      <path d="M 191 3500 
L 800 3500 
L 1894 563 
L 2988 3500 
L 3597 3500 
L 2284 0 
L 1503 0 
L 191 3500 
z
" id="DejaVuSans-76" transform="scale(0.015625)"/>
     </defs>
     <use xlink:href="#DejaVuSans-45"/>
     <use x="63.183594" xlink:href="#DejaVuSans-56"/>
     <use x="131.591797" xlink:href="#DejaVuSans-4d"/>
     <use x="217.871094" xlink:href="#DejaVuSans-43"/>
     <use x="287.695312" xlink:href="#DejaVuSans-20"/>
     <use x="319.482422" xlink:href="#DejaVuSans-65"/>
     <use x="381.005859" xlink:href="#DejaVuSans-73"/>
     <use x="433.105469" xlink:href="#DejaVuSans-74"/>
     <use x="472.314453" xlink:href="#DejaVuSans-69"/>
     <use x="500.097656" xlink:href="#DejaVuSans-6d"/>
     <use x="597.509766" xlink:href="#DejaVuSans-61"/>
     <use x="658.789062" xlink:href="#DejaVuSans-74"/>
     <use x="697.998047" xlink:href="#DejaVuSans-65"/>
     <use x="759.521484" xlink:href="#DejaVuSans-73"/>
     <use x="811.621094" xlink:href="#DejaVuSans-20"/>
     <use x="843.408203" xlink:href="#DejaVuSans-74"/>
     <use x="882.617188" xlink:href="#DejaVuSans-68"/>
     <use x="945.996094" xlink:href="#DejaVuSans-72"/>
     <use x="984.859375" xlink:href="#DejaVuSans-6f"/>
     <use x="1046.041016" xlink:href="#DejaVuSans-75"/>
     <use x="1109.419922" xlink:href="#DejaVuSans-67"/>
     <use x="1172.896484" xlink:href="#DejaVuSans-68"/>
     <use x="1236.275391" xlink:href="#DejaVuSans-20"/>
     <use x="1268.0625" xlink:href="#DejaVuSans-74"/>
     <use x="1307.271484" xlink:href="#DejaVuSans-69"/>
     <use x="1335.054688" xlink:href="#DejaVuSans-6d"/>
     <use x="1432.466797" xlink:href="#DejaVuSans-65"/>
     <use x="1493.990234" xlink:href="#DejaVuSans-20"/>
     <use x="1525.777344" xlink:href="#DejaVuSans-76"/>
     <use x="1584.957031" xlink:href="#DejaVuSans-73"/>
     <use x="1637.056641" xlink:href="#DejaVuSans-20"/>
     <use x="1668.84375" xlink:href="#DejaVuSans-74"/>
     <use x="1708.052734" xlink:href="#DejaVuSans-72"/>
     <use x="1749.166016" xlink:href="#DejaVuSans-75"/>
     <use x="1812.544922" xlink:href="#DejaVuSans-65"/>
     <use x="1874.068359" xlink:href="#DejaVuSans-20"/>
     <use x="1905.855469" xlink:href="#DejaVuSans-76"/>
     <use x="1965.035156" xlink:href="#DejaVuSans-61"/>
     <use x="2026.314453" xlink:href="#DejaVuSans-6c"/>
     <use x="2054.097656" xlink:href="#DejaVuSans-75"/>
     <use x="2117.476562" xlink:href="#DejaVuSans-65"/>
     <use x="2179" xlink:href="#DejaVuSans-73"/>
     <use x="2231.099609" xlink:href="#DejaVuSans-20"/>
     <use x="2262.886719" xlink:href="#DejaVuSans-61"/>
     <use x="2324.166016" xlink:href="#DejaVuSans-76"/>
     <use x="2383.345703" xlink:href="#DejaVuSans-65"/>
     <use x="2444.869141" xlink:href="#DejaVuSans-72"/>
     <use x="2485.982422" xlink:href="#DejaVuSans-61"/>
     <use x="2547.261719" xlink:href="#DejaVuSans-67"/>
     <use x="2610.738281" xlink:href="#DejaVuSans-65"/>
     <use x="2672.261719" xlink:href="#DejaVuSans-64"/>
     <use x="2735.738281" xlink:href="#DejaVuSans-20"/>
     <use x="2767.525391" xlink:href="#DejaVuSans-6f"/>
     <use x="2828.707031" xlink:href="#DejaVuSans-76"/>
     <use x="2887.886719" xlink:href="#DejaVuSans-65"/>
     <use x="2949.410156" xlink:href="#DejaVuSans-72"/>
     <use x="2990.523438" xlink:href="#DejaVuSans-20"/>
     <use x="3022.310547" xlink:href="#DejaVuSans-35"/>
     <use x="3085.933594" xlink:href="#DejaVuSans-30"/>
     <use x="3149.556641" xlink:href="#DejaVuSans-20"/>
     <use x="3181.34375" xlink:href="#DejaVuSans-65"/>
     <use x="3242.867188" xlink:href="#DejaVuSans-6e"/>
     <use x="3306.246094" xlink:href="#DejaVuSans-76"/>
     <use x="3365.425781" xlink:href="#DejaVuSans-69"/>
     <use x="3393.208984" xlink:href="#DejaVuSans-72"/>
     <use x="3432.072266" xlink:href="#DejaVuSans-6f"/>
     <use x="3493.253906" xlink:href="#DejaVuSans-6e"/>
     <use x="3556.632812" xlink:href="#DejaVuSans-6d"/>
     <use x="3654.044922" xlink:href="#DejaVuSans-65"/>
     <use x="3715.568359" xlink:href="#DejaVuSans-6e"/>
     <use x="3778.947266" xlink:href="#DejaVuSans-74"/>
     <use x="3818.15625" xlink:href="#DejaVuSans-73"/>
    </g>
   </g>
   <g id="legend_1">
    <g id="patch_7">
     <path d="M 720.44 395.726875 
L 820.673438 395.726875 
Q 823.473438 395.726875 823.473438 392.926875 
L 823.473438 188.833125 
Q 823.473438 186.033125 820.673438 186.033125 
L 720.44 186.033125 
Q 717.64 186.033125 717.64 188.833125 
L 717.64 392.926875 
Q 717.64 395.726875 720.44 395.726875 
z
" style="fill:#ffffff;opacity:0.8;stroke:#cccccc;stroke-linejoin:miter;"/>
    </g>
    <g id="line2d_22">
     <path d="M 723.24 197.370937 
L 751.24 197.370937 
" style="fill:none;stroke:#1f77b4;stroke-linecap:square;stroke-width:2;"/>
    </g>
    <g id="line2d_23"/>
    <g id="text_15">
     <!-- V(s=1) -->
     <g transform="translate(762.44 202.270938)scale(0.14 -0.14)">
      <defs>
       <path d="M 1984 4856 
Q 1566 4138 1362 3434 
Q 1159 2731 1159 2009 
Q 1159 1288 1364 580 
Q 1569 -128 1984 -844 
L 1484 -844 
Q 1016 -109 783 600 
Q 550 1309 550 2009 
Q 550 2706 781 3412 
Q 1013 4119 1484 4856 
L 1984 4856 
z
" id="DejaVuSans-28" transform="scale(0.015625)"/>
       <path d="M 678 2906 
L 4684 2906 
L 4684 2381 
L 678 2381 
L 678 2906 
z
M 678 1631 
L 4684 1631 
L 4684 1100 
L 678 1100 
L 678 1631 
z
" id="DejaVuSans-3d" transform="scale(0.015625)"/>
       <path d="M 513 4856 
L 1013 4856 
Q 1481 4119 1714 3412 
Q 1947 2706 1947 2009 
Q 1947 1309 1714 600 
Q 1481 -109 1013 -844 
L 513 -844 
Q 928 -128 1133 580 
Q 1338 1288 1338 2009 
Q 1338 2731 1133 3434 
Q 928 4138 513 4856 
z
" id="DejaVuSans-29" transform="scale(0.015625)"/>
      </defs>
      <use xlink:href="#DejaVuSans-56"/>
      <use x="68.408203" xlink:href="#DejaVuSans-28"/>
      <use x="107.421875" xlink:href="#DejaVuSans-73"/>
      <use x="159.521484" xlink:href="#DejaVuSans-3d"/>
      <use x="243.310547" xlink:href="#DejaVuSans-31"/>
      <use x="306.933594" xlink:href="#DejaVuSans-29"/>
     </g>
    </g>
    <g id="line2d_24">
     <path d="M 723.24 217.920312 
L 751.24 217.920312 
" style="fill:none;stroke:#000000;stroke-dasharray:7.4,3.2;stroke-dashoffset:0;stroke-width:2;"/>
    </g>
    <g id="line2d_25"/>
    <g id="text_16">
     <!-- V*(s=1) -->
     <g transform="translate(762.44 222.820312)scale(0.14 -0.14)">
      <defs>
       <path d="M 3009 3897 
L 1888 3291 
L 3009 2681 
L 2828 2375 
L 1778 3009 
L 1778 1831 
L 1422 1831 
L 1422 3009 
L 372 2375 
L 191 2681 
L 1313 3291 
L 191 3897 
L 372 4206 
L 1422 3572 
L 1422 4750 
L 1778 4750 
L 1778 3572 
L 2828 4206 
L 3009 3897 
z
" id="DejaVuSans-2a" transform="scale(0.015625)"/>
      </defs>
      <use xlink:href="#DejaVuSans-56"/>
      <use x="68.408203" xlink:href="#DejaVuSans-2a"/>
      <use x="118.408203" xlink:href="#DejaVuSans-28"/>
      <use x="157.421875" xlink:href="#DejaVuSans-73"/>
      <use x="209.521484" xlink:href="#DejaVuSans-3d"/>
      <use x="293.310547" xlink:href="#DejaVuSans-31"/>
      <use x="356.933594" xlink:href="#DejaVuSans-29"/>
     </g>
    </g>
    <g id="line2d_26">
     <path d="M 723.24 238.469688 
L 751.24 238.469688 
" style="fill:none;stroke:#ff7f0e;stroke-linecap:square;stroke-width:2;"/>
    </g>
    <g id="line2d_27"/>
    <g id="text_17">
     <!-- V(s=2) -->
     <g transform="translate(762.44 243.369688)scale(0.14 -0.14)">
      <use xlink:href="#DejaVuSans-56"/>
      <use x="68.408203" xlink:href="#DejaVuSans-28"/>
      <use x="107.421875" xlink:href="#DejaVuSans-73"/>
      <use x="159.521484" xlink:href="#DejaVuSans-3d"/>
      <use x="243.310547" xlink:href="#DejaVuSans-32"/>
      <use x="306.933594" xlink:href="#DejaVuSans-29"/>
     </g>
    </g>
    <g id="line2d_28">
     <path d="M 723.24 259.019063 
L 751.24 259.019063 
" style="fill:none;stroke:#000000;stroke-dasharray:7.4,3.2;stroke-dashoffset:0;stroke-width:2;"/>
    </g>
    <g id="line2d_29"/>
    <g id="text_18">
     <!-- V*(s=2) -->
     <g transform="translate(762.44 263.919062)scale(0.14 -0.14)">
      <use xlink:href="#DejaVuSans-56"/>
      <use x="68.408203" xlink:href="#DejaVuSans-2a"/>
      <use x="118.408203" xlink:href="#DejaVuSans-28"/>
      <use x="157.421875" xlink:href="#DejaVuSans-73"/>
      <use x="209.521484" xlink:href="#DejaVuSans-3d"/>
      <use x="293.310547" xlink:href="#DejaVuSans-32"/>
      <use x="356.933594" xlink:href="#DejaVuSans-29"/>
     </g>
    </g>
    <g id="line2d_30">
     <path d="M 723.24 279.568438 
L 751.24 279.568438 
" style="fill:none;stroke:#2ca02c;stroke-linecap:square;stroke-width:2;"/>
    </g>
    <g id="line2d_31"/>
    <g id="text_19">
     <!-- V(s=3) -->
     <g transform="translate(762.44 284.468437)scale(0.14 -0.14)">
      <use xlink:href="#DejaVuSans-56"/>
      <use x="68.408203" xlink:href="#DejaVuSans-28"/>
      <use x="107.421875" xlink:href="#DejaVuSans-73"/>
      <use x="159.521484" xlink:href="#DejaVuSans-3d"/>
      <use x="243.310547" xlink:href="#DejaVuSans-33"/>
      <use x="306.933594" xlink:href="#DejaVuSans-29"/>
     </g>
    </g>
    <g id="line2d_32">
     <path d="M 723.24 300.117813 
L 751.24 300.117813 
" style="fill:none;stroke:#000000;stroke-dasharray:7.4,3.2;stroke-dashoffset:0;stroke-width:2;"/>
    </g>
    <g id="line2d_33"/>
    <g id="text_20">
     <!-- V*(s=3) -->
     <g transform="translate(762.44 305.017812)scale(0.14 -0.14)">
      <use xlink:href="#DejaVuSans-56"/>
      <use x="68.408203" xlink:href="#DejaVuSans-2a"/>
      <use x="118.408203" xlink:href="#DejaVuSans-28"/>
      <use x="157.421875" xlink:href="#DejaVuSans-73"/>
      <use x="209.521484" xlink:href="#DejaVuSans-3d"/>
      <use x="293.310547" xlink:href="#DejaVuSans-33"/>
      <use x="356.933594" xlink:href="#DejaVuSans-29"/>
     </g>
    </g>
    <g id="line2d_34">
     <path d="M 723.24 320.667188 
L 751.24 320.667188 
" style="fill:none;stroke:#d62728;stroke-linecap:square;stroke-width:2;"/>
    </g>
    <g id="line2d_35"/>
    <g id="text_21">
     <!-- V(s=4) -->
     <g transform="translate(762.44 325.567188)scale(0.14 -0.14)">
      <use xlink:href="#DejaVuSans-56"/>
      <use x="68.408203" xlink:href="#DejaVuSans-28"/>
      <use x="107.421875" xlink:href="#DejaVuSans-73"/>
      <use x="159.521484" xlink:href="#DejaVuSans-3d"/>
      <use x="243.310547" xlink:href="#DejaVuSans-34"/>
      <use x="306.933594" xlink:href="#DejaVuSans-29"/>
     </g>
    </g>
    <g id="line2d_36">
     <path d="M 723.24 341.216563 
L 751.24 341.216563 
" style="fill:none;stroke:#000000;stroke-dasharray:7.4,3.2;stroke-dashoffset:0;stroke-width:2;"/>
    </g>
    <g id="line2d_37"/>
    <g id="text_22">
     <!-- V*(s=4) -->
     <g transform="translate(762.44 346.116562)scale(0.14 -0.14)">
      <use xlink:href="#DejaVuSans-56"/>
      <use x="68.408203" xlink:href="#DejaVuSans-2a"/>
      <use x="118.408203" xlink:href="#DejaVuSans-28"/>
      <use x="157.421875" xlink:href="#DejaVuSans-73"/>
      <use x="209.521484" xlink:href="#DejaVuSans-3d"/>
      <use x="293.310547" xlink:href="#DejaVuSans-34"/>
      <use x="356.933594" xlink:href="#DejaVuSans-29"/>
     </g>
    </g>
    <g id="line2d_38">
     <path d="M 723.24 361.765938 
L 751.24 361.765938 
" style="fill:none;stroke:#9467bd;stroke-linecap:square;stroke-width:2;"/>
    </g>
    <g id="line2d_39"/>
    <g id="text_23">
     <!-- V(s=5) -->
     <g transform="translate(762.44 366.665938)scale(0.14 -0.14)">
      <use xlink:href="#DejaVuSans-56"/>
      <use x="68.408203" xlink:href="#DejaVuSans-28"/>
      <use x="107.421875" xlink:href="#DejaVuSans-73"/>
      <use x="159.521484" xlink:href="#DejaVuSans-3d"/>
      <use x="243.310547" xlink:href="#DejaVuSans-35"/>
      <use x="306.933594" xlink:href="#DejaVuSans-29"/>
     </g>
    </g>
    <g id="line2d_40">
     <path d="M 723.24 382.315313 
L 751.24 382.315313 
" style="fill:none;stroke:#000000;stroke-dasharray:7.4,3.2;stroke-dashoffset:0;stroke-width:2;"/>
    </g>
    <g id="line2d_41"/>
    <g id="text_24">
     <!-- V*(s=5) -->
     <g transform="translate(762.44 387.215312)scale(0.14 -0.14)">
      <use xlink:href="#DejaVuSans-56"/>
      <use x="68.408203" xlink:href="#DejaVuSans-2a"/>
      <use x="118.408203" xlink:href="#DejaVuSans-28"/>
      <use x="157.421875" xlink:href="#DejaVuSans-73"/>
      <use x="209.521484" xlink:href="#DejaVuSans-3d"/>
      <use x="293.310547" xlink:href="#DejaVuSans-35"/>
      <use x="356.933594" xlink:href="#DejaVuSans-29"/>
     </g>
    </g>
   </g>
  </g>
 </g>
 <defs>
  <clipPath id="pe68dd7ded2">
   <rect height="443.52" width="602.64" x="108" y="69.12"/>
  </clipPath>
 </defs>
</svg>
