<?xml version="1.0" encoding="utf-8" standalone="no"?>
<!DOCTYPE svg PUBLIC "-//W3C//DTD SVG 1.1//EN"
  "http://www.w3.org/Graphics/SVG/1.1/DTD/svg11.dtd">
<svg height="576pt" version="1.1" viewBox="0 0 864 576" width="864pt" xmlns="http://www.w3.org/2000/svg" xmlns:xlink="http://www.w3.org/1999/xlink">
 <metadata>
  <rdf:RDF xmlns:cc="http://creativecommons.org/ns#" xmlns:dc="http://purl.org/dc/elements/1.1/" xmlns:rdf="http://www.w3.org/1999/02/22-rdf-syntax-ns#">
   <cc:Work>
    <dc:type rdf:resource="http://purl.org/dc/dcmitype/StillImage"/>
    <dc:date>2021-09-10T17:07:53.962203</dc:date>
    <dc:format>image/svg+xml</dc:format>
    <dc:creator>
     <cc:Agent>
      <dc:title>Matplotlib v3.4.3, https://matplotlib.org/</dc:title>
     </cc:Agent>
    </dc:creator>
   </cc:Work>
  </rdf:RDF>
 </metadata>
 <defs>
  <style type="text/css">*{stroke-linecap:butt;stroke-linejoin:round;}</style>
 </defs>
 <g id="figure_1">
  <g id="patch_1">
   <path d="M 0 576 
L 864 576 
L 864 0 
L 0 0 
z
" style="fill:#ffffff;"/>
  </g>
  <g id="axes_1">
   <g id="patch_2">
    <path d="M 108 512.64 
L 777.6 512.64 
L 777.6 69.12 
L 108 69.12 
z
" style="fill:#ffffff;"/>
   </g>
   <g id="matplotlib.axis_1">
    <g id="xtick_1">
     <g id="line2d_1">
      <defs>
       <path d="M 0 0 
L 0 3.5 
" id="m480aa4702b" style="stroke:#000000;stroke-width:0.8;"/>
      </defs>
      <g>
       <use style="stroke:#000000;stroke-width:0.8;" x="138.436364" xlink:href="#m480aa4702b" y="512.64"/>
      </g>
     </g>
     <g id="text_1">
      <!-- $\mathdefault{10^{0}}$ -->
      <g transform="translate(129.636364 527.238438)scale(0.1 -0.1)">
       <defs>
        <path d="M 794 531 
L 1825 531 
L 1825 4091 
L 703 3866 
L 703 4441 
L 1819 4666 
L 2450 4666 
L 2450 531 
L 3481 531 
L 3481 0 
L 794 0 
L 794 531 
z
" id="DejaVuSans-31" transform="scale(0.015625)"/>
        <path d="M 2034 4250 
Q 1547 4250 1301 3770 
Q 1056 3291 1056 2328 
Q 1056 1369 1301 889 
Q 1547 409 2034 409 
Q 2525 409 2770 889 
Q 3016 1369 3016 2328 
Q 3016 3291 2770 3770 
Q 2525 4250 2034 4250 
z
M 2034 4750 
Q 2819 4750 3233 4129 
Q 3647 3509 3647 2328 
Q 3647 1150 3233 529 
Q 2819 -91 2034 -91 
Q 1250 -91 836 529 
Q 422 1150 422 2328 
Q 422 3509 836 4129 
Q 1250 4750 2034 4750 
z
" id="DejaVuSans-30" transform="scale(0.015625)"/>
       </defs>
       <use transform="translate(0 0.765625)" xlink:href="#DejaVuSans-31"/>
       <use transform="translate(63.623047 0.765625)" xlink:href="#DejaVuSans-30"/>
       <use transform="translate(128.203125 39.046875)scale(0.7)" xlink:href="#DejaVuSans-30"/>
      </g>
     </g>
    </g>
    <g id="xtick_2">
     <g id="line2d_2">
      <g>
       <use style="stroke:#000000;stroke-width:0.8;" x="364.049628" xlink:href="#m480aa4702b" y="512.64"/>
      </g>
     </g>
     <g id="text_2">
      <!-- $\mathdefault{10^{1}}$ -->
      <g transform="translate(355.249628 527.238438)scale(0.1 -0.1)">
       <use transform="translate(0 0.684375)" xlink:href="#DejaVuSans-31"/>
       <use transform="translate(63.623047 0.684375)" xlink:href="#DejaVuSans-30"/>
       <use transform="translate(128.203125 38.965625)scale(0.7)" xlink:href="#DejaVuSans-31"/>
      </g>
     </g>
    </g>
    <g id="xtick_3">
     <g id="line2d_3">
      <g>
       <use style="stroke:#000000;stroke-width:0.8;" x="589.662893" xlink:href="#m480aa4702b" y="512.64"/>
      </g>
     </g>
     <g id="text_3">
      <!-- $\mathdefault{10^{2}}$ -->
      <g transform="translate(580.862893 527.238438)scale(0.1 -0.1)">
       <defs>
        <path d="M 1228 531 
L 3431 531 
L 3431 0 
L 469 0 
L 469 531 
Q 828 903 1448 1529 
Q 2069 2156 2228 2338 
Q 2531 2678 2651 2914 
Q 2772 3150 2772 3378 
Q 2772 3750 2511 3984 
Q 2250 4219 1831 4219 
Q 1534 4219 1204 4116 
Q 875 4013 500 3803 
L 500 4441 
Q 881 4594 1212 4672 
Q 1544 4750 1819 4750 
Q 2544 4750 2975 4387 
Q 3406 4025 3406 3419 
Q 3406 3131 3298 2873 
Q 3191 2616 2906 2266 
Q 2828 2175 2409 1742 
Q 1991 1309 1228 531 
z
" id="DejaVuSans-32" transform="scale(0.015625)"/>
       </defs>
       <use transform="translate(0 0.765625)" xlink:href="#DejaVuSans-31"/>
       <use transform="translate(63.623047 0.765625)" xlink:href="#DejaVuSans-30"/>
       <use transform="translate(128.203125 39.046875)scale(0.7)" xlink:href="#DejaVuSans-32"/>
      </g>
     </g>
    </g>
    <g id="xtick_4">
     <g id="line2d_4">
      <defs>
       <path d="M 0 0 
L 0 2 
" id="md93deee003" style="stroke:#000000;stroke-width:0.6;"/>
      </defs>
      <g>
       <use style="stroke:#000000;stroke-width:0.6;" x="116.572179" xlink:href="#md93deee003" y="512.64"/>
      </g>
     </g>
    </g>
    <g id="xtick_5">
     <g id="line2d_5">
      <g>
       <use style="stroke:#000000;stroke-width:0.6;" x="128.112867" xlink:href="#md93deee003" y="512.64"/>
      </g>
     </g>
    </g>
    <g id="xtick_6">
     <g id="line2d_6">
      <g>
       <use style="stroke:#000000;stroke-width:0.6;" x="206.352724" xlink:href="#md93deee003" y="512.64"/>
      </g>
     </g>
    </g>
    <g id="xtick_7">
     <g id="line2d_7">
      <g>
       <use style="stroke:#000000;stroke-width:0.6;" x="246.081248" xlink:href="#md93deee003" y="512.64"/>
      </g>
     </g>
    </g>
    <g id="xtick_8">
     <g id="line2d_8">
      <g>
       <use style="stroke:#000000;stroke-width:0.6;" x="274.269084" xlink:href="#md93deee003" y="512.64"/>
      </g>
     </g>
    </g>
    <g id="xtick_9">
     <g id="line2d_9">
      <g>
       <use style="stroke:#000000;stroke-width:0.6;" x="296.133268" xlink:href="#md93deee003" y="512.64"/>
      </g>
     </g>
    </g>
    <g id="xtick_10">
     <g id="line2d_10">
      <g>
       <use style="stroke:#000000;stroke-width:0.6;" x="313.997608" xlink:href="#md93deee003" y="512.64"/>
      </g>
     </g>
    </g>
    <g id="xtick_11">
     <g id="line2d_11">
      <g>
       <use style="stroke:#000000;stroke-width:0.6;" x="329.101691" xlink:href="#md93deee003" y="512.64"/>
      </g>
     </g>
    </g>
    <g id="xtick_12">
     <g id="line2d_12">
      <g>
       <use style="stroke:#000000;stroke-width:0.6;" x="342.185444" xlink:href="#md93deee003" y="512.64"/>
      </g>
     </g>
    </g>
    <g id="xtick_13">
     <g id="line2d_13">
      <g>
       <use style="stroke:#000000;stroke-width:0.6;" x="353.726132" xlink:href="#md93deee003" y="512.64"/>
      </g>
     </g>
    </g>
    <g id="xtick_14">
     <g id="line2d_14">
      <g>
       <use style="stroke:#000000;stroke-width:0.6;" x="431.965988" xlink:href="#md93deee003" y="512.64"/>
      </g>
     </g>
    </g>
    <g id="xtick_15">
     <g id="line2d_15">
      <g>
       <use style="stroke:#000000;stroke-width:0.6;" x="471.694512" xlink:href="#md93deee003" y="512.64"/>
      </g>
     </g>
    </g>
    <g id="xtick_16">
     <g id="line2d_16">
      <g>
       <use style="stroke:#000000;stroke-width:0.6;" x="499.882349" xlink:href="#md93deee003" y="512.64"/>
      </g>
     </g>
    </g>
    <g id="xtick_17">
     <g id="line2d_17">
      <g>
       <use style="stroke:#000000;stroke-width:0.6;" x="521.746533" xlink:href="#md93deee003" y="512.64"/>
      </g>
     </g>
    </g>
    <g id="xtick_18">
     <g id="line2d_18">
      <g>
       <use style="stroke:#000000;stroke-width:0.6;" x="539.610872" xlink:href="#md93deee003" y="512.64"/>
      </g>
     </g>
    </g>
    <g id="xtick_19">
     <g id="line2d_19">
      <g>
       <use style="stroke:#000000;stroke-width:0.6;" x="554.714956" xlink:href="#md93deee003" y="512.64"/>
      </g>
     </g>
    </g>
    <g id="xtick_20">
     <g id="line2d_20">
      <g>
       <use style="stroke:#000000;stroke-width:0.6;" x="567.798709" xlink:href="#md93deee003" y="512.64"/>
      </g>
     </g>
    </g>
    <g id="xtick_21">
     <g id="line2d_21">
      <g>
       <use style="stroke:#000000;stroke-width:0.6;" x="579.339396" xlink:href="#md93deee003" y="512.64"/>
      </g>
     </g>
    </g>
    <g id="xtick_22">
     <g id="line2d_22">
      <g>
       <use style="stroke:#000000;stroke-width:0.6;" x="657.579253" xlink:href="#md93deee003" y="512.64"/>
      </g>
     </g>
    </g>
    <g id="xtick_23">
     <g id="line2d_23">
      <g>
       <use style="stroke:#000000;stroke-width:0.6;" x="697.307777" xlink:href="#md93deee003" y="512.64"/>
      </g>
     </g>
    </g>
    <g id="xtick_24">
     <g id="line2d_24">
      <g>
       <use style="stroke:#000000;stroke-width:0.6;" x="725.495613" xlink:href="#md93deee003" y="512.64"/>
      </g>
     </g>
    </g>
    <g id="xtick_25">
     <g id="line2d_25">
      <g>
       <use style="stroke:#000000;stroke-width:0.6;" x="747.359798" xlink:href="#md93deee003" y="512.64"/>
      </g>
     </g>
    </g>
    <g id="xtick_26">
     <g id="line2d_26">
      <g>
       <use style="stroke:#000000;stroke-width:0.6;" x="765.224137" xlink:href="#md93deee003" y="512.64"/>
      </g>
     </g>
    </g>
    <g id="text_4">
     <!-- Episodes -->
     <g transform="translate(420.557813 540.916563)scale(0.1 -0.1)">
      <defs>
       <path d="M 628 4666 
L 3578 4666 
L 3578 4134 
L 1259 4134 
L 1259 2753 
L 3481 2753 
L 3481 2222 
L 1259 2222 
L 1259 531 
L 3634 531 
L 3634 0 
L 628 0 
L 628 4666 
z
" id="DejaVuSans-45" transform="scale(0.015625)"/>
       <path d="M 1159 525 
L 1159 -1331 
L 581 -1331 
L 581 3500 
L 1159 3500 
L 1159 2969 
Q 1341 3281 1617 3432 
Q 1894 3584 2278 3584 
Q 2916 3584 3314 3078 
Q 3713 2572 3713 1747 
Q 3713 922 3314 415 
Q 2916 -91 2278 -91 
Q 1894 -91 1617 61 
Q 1341 213 1159 525 
z
M 3116 1747 
Q 3116 2381 2855 2742 
Q 2594 3103 2138 3103 
Q 1681 3103 1420 2742 
Q 1159 2381 1159 1747 
Q 1159 1113 1420 752 
Q 1681 391 2138 391 
Q 2594 391 2855 752 
Q 3116 1113 3116 1747 
z
" id="DejaVuSans-70" transform="scale(0.015625)"/>
       <path d="M 603 3500 
L 1178 3500 
L 1178 0 
L 603 0 
L 603 3500 
z
M 603 4863 
L 1178 4863 
L 1178 4134 
L 603 4134 
L 603 4863 
z
" id="DejaVuSans-69" transform="scale(0.015625)"/>
       <path d="M 2834 3397 
L 2834 2853 
Q 2591 2978 2328 3040 
Q 2066 3103 1784 3103 
Q 1356 3103 1142 2972 
Q 928 2841 928 2578 
Q 928 2378 1081 2264 
Q 1234 2150 1697 2047 
L 1894 2003 
Q 2506 1872 2764 1633 
Q 3022 1394 3022 966 
Q 3022 478 2636 193 
Q 2250 -91 1575 -91 
Q 1294 -91 989 -36 
Q 684 19 347 128 
L 347 722 
Q 666 556 975 473 
Q 1284 391 1588 391 
Q 1994 391 2212 530 
Q 2431 669 2431 922 
Q 2431 1156 2273 1281 
Q 2116 1406 1581 1522 
L 1381 1569 
Q 847 1681 609 1914 
Q 372 2147 372 2553 
Q 372 3047 722 3315 
Q 1072 3584 1716 3584 
Q 2034 3584 2315 3537 
Q 2597 3491 2834 3397 
z
" id="DejaVuSans-73" transform="scale(0.015625)"/>
       <path d="M 1959 3097 
Q 1497 3097 1228 2736 
Q 959 2375 959 1747 
Q 959 1119 1226 758 
Q 1494 397 1959 397 
Q 2419 397 2687 759 
Q 2956 1122 2956 1747 
Q 2956 2369 2687 2733 
Q 2419 3097 1959 3097 
z
M 1959 3584 
Q 2709 3584 3137 3096 
Q 3566 2609 3566 1747 
Q 3566 888 3137 398 
Q 2709 -91 1959 -91 
Q 1206 -91 779 398 
Q 353 888 353 1747 
Q 353 2609 779 3096 
Q 1206 3584 1959 3584 
z
" id="DejaVuSans-6f" transform="scale(0.015625)"/>
       <path d="M 2906 2969 
L 2906 4863 
L 3481 4863 
L 3481 0 
L 2906 0 
L 2906 525 
Q 2725 213 2448 61 
Q 2172 -91 1784 -91 
Q 1150 -91 751 415 
Q 353 922 353 1747 
Q 353 2572 751 3078 
Q 1150 3584 1784 3584 
Q 2172 3584 2448 3432 
Q 2725 3281 2906 2969 
z
M 947 1747 
Q 947 1113 1208 752 
Q 1469 391 1925 391 
Q 2381 391 2643 752 
Q 2906 1113 2906 1747 
Q 2906 2381 2643 2742 
Q 2381 3103 1925 3103 
Q 1469 3103 1208 2742 
Q 947 2381 947 1747 
z
" id="DejaVuSans-64" transform="scale(0.015625)"/>
       <path d="M 3597 1894 
L 3597 1613 
L 953 1613 
Q 991 1019 1311 708 
Q 1631 397 2203 397 
Q 2534 397 2845 478 
Q 3156 559 3463 722 
L 3463 178 
Q 3153 47 2828 -22 
Q 2503 -91 2169 -91 
Q 1331 -91 842 396 
Q 353 884 353 1716 
Q 353 2575 817 3079 
Q 1281 3584 2069 3584 
Q 2775 3584 3186 3129 
Q 3597 2675 3597 1894 
z
M 3022 2063 
Q 3016 2534 2758 2815 
Q 2500 3097 2075 3097 
Q 1594 3097 1305 2825 
Q 1016 2553 972 2059 
L 3022 2063 
z
" id="DejaVuSans-65" transform="scale(0.015625)"/>
      </defs>
      <use xlink:href="#DejaVuSans-45"/>
      <use x="63.183594" xlink:href="#DejaVuSans-70"/>
      <use x="126.660156" xlink:href="#DejaVuSans-69"/>
      <use x="154.443359" xlink:href="#DejaVuSans-73"/>
      <use x="206.542969" xlink:href="#DejaVuSans-6f"/>
      <use x="267.724609" xlink:href="#DejaVuSans-64"/>
      <use x="331.201172" xlink:href="#DejaVuSans-65"/>
      <use x="392.724609" xlink:href="#DejaVuSans-73"/>
     </g>
    </g>
   </g>
   <g id="matplotlib.axis_2">
    <g id="ytick_1">
     <g id="line2d_27">
      <defs>
       <path d="M 0 0 
L -3.5 0 
" id="mea83560616" style="stroke:#000000;stroke-width:0.8;"/>
      </defs>
      <g>
       <use style="stroke:#000000;stroke-width:0.8;" x="108" xlink:href="#mea83560616" y="492.48"/>
      </g>
     </g>
     <g id="text_5">
      <!-- 0.0 -->
      <g transform="translate(85.096875 496.279219)scale(0.1 -0.1)">
       <defs>
        <path d="M 684 794 
L 1344 794 
L 1344 0 
L 684 0 
L 684 794 
z
" id="DejaVuSans-2e" transform="scale(0.015625)"/>
       </defs>
       <use xlink:href="#DejaVuSans-30"/>
       <use x="63.623047" xlink:href="#DejaVuSans-2e"/>
       <use x="95.410156" xlink:href="#DejaVuSans-30"/>
      </g>
     </g>
    </g>
    <g id="ytick_2">
     <g id="line2d_28">
      <g>
       <use style="stroke:#000000;stroke-width:0.8;" x="108" xlink:href="#mea83560616" y="398.569706"/>
      </g>
     </g>
     <g id="text_6">
      <!-- 0.2 -->
      <g transform="translate(85.096875 402.368925)scale(0.1 -0.1)">
       <use xlink:href="#DejaVuSans-30"/>
       <use x="63.623047" xlink:href="#DejaVuSans-2e"/>
       <use x="95.410156" xlink:href="#DejaVuSans-32"/>
      </g>
     </g>
    </g>
    <g id="ytick_3">
     <g id="line2d_29">
      <g>
       <use style="stroke:#000000;stroke-width:0.8;" x="108" xlink:href="#mea83560616" y="304.659412"/>
      </g>
     </g>
     <g id="text_7">
      <!-- 0.4 -->
      <g transform="translate(85.096875 308.45863)scale(0.1 -0.1)">
       <defs>
        <path d="M 2419 4116 
L 825 1625 
L 2419 1625 
L 2419 4116 
z
M 2253 4666 
L 3047 4666 
L 3047 1625 
L 3713 1625 
L 3713 1100 
L 3047 1100 
L 3047 0 
L 2419 0 
L 2419 1100 
L 313 1100 
L 313 1709 
L 2253 4666 
z
" id="DejaVuSans-34" transform="scale(0.015625)"/>
       </defs>
       <use xlink:href="#DejaVuSans-30"/>
       <use x="63.623047" xlink:href="#DejaVuSans-2e"/>
       <use x="95.410156" xlink:href="#DejaVuSans-34"/>
      </g>
     </g>
    </g>
    <g id="ytick_4">
     <g id="line2d_30">
      <g>
       <use style="stroke:#000000;stroke-width:0.8;" x="108" xlink:href="#mea83560616" y="210.749117"/>
      </g>
     </g>
     <g id="text_8">
      <!-- 0.6 -->
      <g transform="translate(85.096875 214.548336)scale(0.1 -0.1)">
       <defs>
        <path d="M 2113 2584 
Q 1688 2584 1439 2293 
Q 1191 2003 1191 1497 
Q 1191 994 1439 701 
Q 1688 409 2113 409 
Q 2538 409 2786 701 
Q 3034 994 3034 1497 
Q 3034 2003 2786 2293 
Q 2538 2584 2113 2584 
z
M 3366 4563 
L 3366 3988 
Q 3128 4100 2886 4159 
Q 2644 4219 2406 4219 
Q 1781 4219 1451 3797 
Q 1122 3375 1075 2522 
Q 1259 2794 1537 2939 
Q 1816 3084 2150 3084 
Q 2853 3084 3261 2657 
Q 3669 2231 3669 1497 
Q 3669 778 3244 343 
Q 2819 -91 2113 -91 
Q 1303 -91 875 529 
Q 447 1150 447 2328 
Q 447 3434 972 4092 
Q 1497 4750 2381 4750 
Q 2619 4750 2861 4703 
Q 3103 4656 3366 4563 
z
" id="DejaVuSans-36" transform="scale(0.015625)"/>
       </defs>
       <use xlink:href="#DejaVuSans-30"/>
       <use x="63.623047" xlink:href="#DejaVuSans-2e"/>
       <use x="95.410156" xlink:href="#DejaVuSans-36"/>
      </g>
     </g>
    </g>
    <g id="ytick_5">
     <g id="line2d_31">
      <g>
       <use style="stroke:#000000;stroke-width:0.8;" x="108" xlink:href="#mea83560616" y="116.838823"/>
      </g>
     </g>
     <g id="text_9">
      <!-- 0.8 -->
      <g transform="translate(85.096875 120.638042)scale(0.1 -0.1)">
       <defs>
        <path d="M 2034 2216 
Q 1584 2216 1326 1975 
Q 1069 1734 1069 1313 
Q 1069 891 1326 650 
Q 1584 409 2034 409 
Q 2484 409 2743 651 
Q 3003 894 3003 1313 
Q 3003 1734 2745 1975 
Q 2488 2216 2034 2216 
z
M 1403 2484 
Q 997 2584 770 2862 
Q 544 3141 544 3541 
Q 544 4100 942 4425 
Q 1341 4750 2034 4750 
Q 2731 4750 3128 4425 
Q 3525 4100 3525 3541 
Q 3525 3141 3298 2862 
Q 3072 2584 2669 2484 
Q 3125 2378 3379 2068 
Q 3634 1759 3634 1313 
Q 3634 634 3220 271 
Q 2806 -91 2034 -91 
Q 1263 -91 848 271 
Q 434 634 434 1313 
Q 434 1759 690 2068 
Q 947 2378 1403 2484 
z
M 1172 3481 
Q 1172 3119 1398 2916 
Q 1625 2713 2034 2713 
Q 2441 2713 2670 2916 
Q 2900 3119 2900 3481 
Q 2900 3844 2670 4047 
Q 2441 4250 2034 4250 
Q 1625 4250 1398 4047 
Q 1172 3844 1172 3481 
z
" id="DejaVuSans-38" transform="scale(0.015625)"/>
       </defs>
       <use xlink:href="#DejaVuSans-30"/>
       <use x="63.623047" xlink:href="#DejaVuSans-2e"/>
       <use x="95.410156" xlink:href="#DejaVuSans-38"/>
      </g>
     </g>
    </g>
    <g id="text_10">
     <!-- State-Value Function -->
     <g transform="translate(79.017187 342.210469)rotate(-90)scale(0.1 -0.1)">
      <defs>
       <path d="M 3425 4513 
L 3425 3897 
Q 3066 4069 2747 4153 
Q 2428 4238 2131 4238 
Q 1616 4238 1336 4038 
Q 1056 3838 1056 3469 
Q 1056 3159 1242 3001 
Q 1428 2844 1947 2747 
L 2328 2669 
Q 3034 2534 3370 2195 
Q 3706 1856 3706 1288 
Q 3706 609 3251 259 
Q 2797 -91 1919 -91 
Q 1588 -91 1214 -16 
Q 841 59 441 206 
L 441 856 
Q 825 641 1194 531 
Q 1563 422 1919 422 
Q 2459 422 2753 634 
Q 3047 847 3047 1241 
Q 3047 1584 2836 1778 
Q 2625 1972 2144 2069 
L 1759 2144 
Q 1053 2284 737 2584 
Q 422 2884 422 3419 
Q 422 4038 858 4394 
Q 1294 4750 2059 4750 
Q 2388 4750 2728 4690 
Q 3069 4631 3425 4513 
z
" id="DejaVuSans-53" transform="scale(0.015625)"/>
       <path d="M 1172 4494 
L 1172 3500 
L 2356 3500 
L 2356 3053 
L 1172 3053 
L 1172 1153 
Q 1172 725 1289 603 
Q 1406 481 1766 481 
L 2356 481 
L 2356 0 
L 1766 0 
Q 1100 0 847 248 
Q 594 497 594 1153 
L 594 3053 
L 172 3053 
L 172 3500 
L 594 3500 
L 594 4494 
L 1172 4494 
z
" id="DejaVuSans-74" transform="scale(0.015625)"/>
       <path d="M 2194 1759 
Q 1497 1759 1228 1600 
Q 959 1441 959 1056 
Q 959 750 1161 570 
Q 1363 391 1709 391 
Q 2188 391 2477 730 
Q 2766 1069 2766 1631 
L 2766 1759 
L 2194 1759 
z
M 3341 1997 
L 3341 0 
L 2766 0 
L 2766 531 
Q 2569 213 2275 61 
Q 1981 -91 1556 -91 
Q 1019 -91 701 211 
Q 384 513 384 1019 
Q 384 1609 779 1909 
Q 1175 2209 1959 2209 
L 2766 2209 
L 2766 2266 
Q 2766 2663 2505 2880 
Q 2244 3097 1772 3097 
Q 1472 3097 1187 3025 
Q 903 2953 641 2809 
L 641 3341 
Q 956 3463 1253 3523 
Q 1550 3584 1831 3584 
Q 2591 3584 2966 3190 
Q 3341 2797 3341 1997 
z
" id="DejaVuSans-61" transform="scale(0.015625)"/>
       <path d="M 313 2009 
L 1997 2009 
L 1997 1497 
L 313 1497 
L 313 2009 
z
" id="DejaVuSans-2d" transform="scale(0.015625)"/>
       <path d="M 1831 0 
L 50 4666 
L 709 4666 
L 2188 738 
L 3669 4666 
L 4325 4666 
L 2547 0 
L 1831 0 
z
" id="DejaVuSans-56" transform="scale(0.015625)"/>
       <path d="M 603 4863 
L 1178 4863 
L 1178 0 
L 603 0 
L 603 4863 
z
" id="DejaVuSans-6c" transform="scale(0.015625)"/>
       <path d="M 544 1381 
L 544 3500 
L 1119 3500 
L 1119 1403 
Q 1119 906 1312 657 
Q 1506 409 1894 409 
Q 2359 409 2629 706 
Q 2900 1003 2900 1516 
L 2900 3500 
L 3475 3500 
L 3475 0 
L 2900 0 
L 2900 538 
Q 2691 219 2414 64 
Q 2138 -91 1772 -91 
Q 1169 -91 856 284 
Q 544 659 544 1381 
z
M 1991 3584 
L 1991 3584 
z
" id="DejaVuSans-75" transform="scale(0.015625)"/>
       <path id="DejaVuSans-20" transform="scale(0.015625)"/>
       <path d="M 628 4666 
L 3309 4666 
L 3309 4134 
L 1259 4134 
L 1259 2759 
L 3109 2759 
L 3109 2228 
L 1259 2228 
L 1259 0 
L 628 0 
L 628 4666 
z
" id="DejaVuSans-46" transform="scale(0.015625)"/>
       <path d="M 3513 2113 
L 3513 0 
L 2938 0 
L 2938 2094 
Q 2938 2591 2744 2837 
Q 2550 3084 2163 3084 
Q 1697 3084 1428 2787 
Q 1159 2491 1159 1978 
L 1159 0 
L 581 0 
L 581 3500 
L 1159 3500 
L 1159 2956 
Q 1366 3272 1645 3428 
Q 1925 3584 2291 3584 
Q 2894 3584 3203 3211 
Q 3513 2838 3513 2113 
z
" id="DejaVuSans-6e" transform="scale(0.015625)"/>
       <path d="M 3122 3366 
L 3122 2828 
Q 2878 2963 2633 3030 
Q 2388 3097 2138 3097 
Q 1578 3097 1268 2742 
Q 959 2388 959 1747 
Q 959 1106 1268 751 
Q 1578 397 2138 397 
Q 2388 397 2633 464 
Q 2878 531 3122 666 
L 3122 134 
Q 2881 22 2623 -34 
Q 2366 -91 2075 -91 
Q 1284 -91 818 406 
Q 353 903 353 1747 
Q 353 2603 823 3093 
Q 1294 3584 2113 3584 
Q 2378 3584 2631 3529 
Q 2884 3475 3122 3366 
z
" id="DejaVuSans-63" transform="scale(0.015625)"/>
      </defs>
      <use xlink:href="#DejaVuSans-53"/>
      <use x="63.476562" xlink:href="#DejaVuSans-74"/>
      <use x="102.685547" xlink:href="#DejaVuSans-61"/>
      <use x="163.964844" xlink:href="#DejaVuSans-74"/>
      <use x="203.173828" xlink:href="#DejaVuSans-65"/>
      <use x="264.697266" xlink:href="#DejaVuSans-2d"/>
      <use x="294.90625" xlink:href="#DejaVuSans-56"/>
      <use x="355.564453" xlink:href="#DejaVuSans-61"/>
      <use x="416.84375" xlink:href="#DejaVuSans-6c"/>
      <use x="444.626953" xlink:href="#DejaVuSans-75"/>
      <use x="508.005859" xlink:href="#DejaVuSans-65"/>
      <use x="569.529297" xlink:href="#DejaVuSans-20"/>
      <use x="601.316406" xlink:href="#DejaVuSans-46"/>
      <use x="653.335938" xlink:href="#DejaVuSans-75"/>
      <use x="716.714844" xlink:href="#DejaVuSans-6e"/>
      <use x="780.09375" xlink:href="#DejaVuSans-63"/>
      <use x="835.074219" xlink:href="#DejaVuSans-74"/>
      <use x="874.283203" xlink:href="#DejaVuSans-69"/>
      <use x="902.066406" xlink:href="#DejaVuSans-6f"/>
      <use x="963.248047" xlink:href="#DejaVuSans-6e"/>
     </g>
    </g>
   </g>
   <g id="line2d_32">
    <path clip-path="url(#p6b5a373145)" d="M -1 492.48 
L 246.081248 492.477716 
L 274.269084 490.32028 
L 296.133268 489.288605 
L 313.997608 488.792972 
L 329.101691 488.1258 
L 342.185444 489.370541 
L 353.726132 488.200411 
L 364.049628 488.82731 
L 373.388367 487.759147 
L 381.913968 483.805251 
L 389.75676 478.953736 
L 397.018052 481.19092 
L 403.778152 480.015328 
L 410.101804 481.628947 
L 416.041962 481.615796 
L 426.940138 475.211095 
L 431.965988 471.794533 
L 436.746575 471.799299 
L 441.304727 471.528458 
L 445.660226 473.258141 
L 449.830328 474.172469 
L 453.830173 475.682962 
L 457.67312 475.325054 
L 461.371016 472.262664 
L 464.934412 468.792807 
L 468.37275 469.567113 
L 471.694512 463.703184 
L 474.907344 466.725501 
L 478.018164 466.714957 
L 481.033251 468.119122 
L 483.958322 465.17582 
L 486.798596 466.344037 
L 489.558852 466.745088 
L 492.243474 466.004482 
L 494.856498 468.286758 
L 497.401644 467.037918 
L 499.882349 466.183671 
L 502.301795 459.531373 
L 504.662936 459.781478 
L 506.968515 460.349286 
L 509.221087 458.646108 
L 511.423036 459.697742 
L 513.576587 459.454839 
L 515.68382 459.987511 
L 519.767019 458.945192 
L 521.746533 455.378094 
L 523.686846 458.844538 
L 525.58948 457.973085 
L 527.455872 459.512903 
L 529.287376 458.642794 
L 531.085272 459.535757 
L 532.850772 460.17691 
L 534.585022 456.964579 
L 536.28911 457.488552 
L 539.610872 450.168555 
L 541.230456 450.728902 
L 542.823704 451.051774 
L 544.391459 450.807242 
L 545.934524 451.785038 
L 547.453665 451.494012 
L 548.949611 451.708055 
L 550.423062 447.616057 
L 553.30511 443.536818 
L 554.714956 445.244411 
L 556.104804 446.152693 
L 557.475212 446.707797 
L 558.826717 446.292868 
L 560.159835 446.92698 
L 562.772859 446.125884 
L 564.053695 444.47897 
L 565.318004 444.309495 
L 566.566207 444.46985 
L 567.798709 445.468328 
L 569.015899 446.629888 
L 570.218155 447.058981 
L 572.579296 442.972938 
L 573.738867 444.046796 
L 574.884875 444.58876 
L 576.017634 442.399581 
L 577.137448 439.155595 
L 578.244607 441.214442 
L 579.339396 441.2952 
L 580.422088 441.816364 
L 581.492947 442.17579 
L 582.552228 441.595136 
L 583.60018 439.650407 
L 584.637043 441.437831 
L 585.663048 441.43725 
L 586.678421 439.730649 
L 587.683379 437.449567 
L 588.678135 436.003547 
L 589.662893 435.989719 
L 590.637852 436.23083 
L 591.603206 434.58351 
L 592.559141 434.169564 
L 593.50584 436.596965 
L 594.44348 435.923507 
L 595.372232 436.490081 
L 596.292263 437.478505 
L 597.203736 437.046641 
L 598.106808 438.010999 
L 599.888358 436.798 
L 600.767132 436.473182 
L 601.638094 436.446124 
L 602.501382 437.644278 
L 603.357131 437.589968 
L 604.205471 437.028223 
L 605.046528 437.617765 
L 605.880427 438.391806 
L 606.70729 437.132997 
L 607.527233 436.408646 
L 608.340371 436.387398 
L 609.146816 435.623444 
L 609.946679 435.918731 
L 610.740065 436.456872 
L 611.527078 436.325495 
L 612.30782 437.156388 
L 613.08239 436.618632 
L 613.850884 436.222001 
L 614.613399 436.371657 
L 615.370025 435.897369 
L 616.120853 436.296274 
L 617.605466 436.581334 
L 619.06792 435.736137 
L 619.791042 435.853674 
L 620.508867 435.6371 
L 621.22147 435.974284 
L 621.928929 435.731796 
L 622.631316 435.670422 
L 624.021164 434.987118 
L 624.708764 434.443329 
L 625.391572 434.05347 
L 626.743078 434.474574 
L 627.411903 435.106808 
L 628.076195 434.322407 
L 628.736013 433.950456 
L 630.042467 434.155941 
L 631.33173 435.285349 
L 631.970055 434.906761 
L 632.604249 434.215097 
L 633.234364 433.886636 
L 633.860453 433.87096 
L 634.482567 434.193587 
L 635.100756 434.272442 
L 636.325554 435.15687 
L 636.93226 434.695748 
L 637.535231 433.950597 
L 638.134515 433.785938 
L 638.730156 433.914049 
L 639.322197 433.492467 
L 639.910683 433.356887 
L 640.495656 433.799442 
L 641.077157 433.590357 
L 641.655227 433.626159 
L 642.229906 432.867222 
L 642.801235 432.350796 
L 643.369252 432.285349 
L 643.933994 431.62306 
L 644.495501 431.638406 
L 645.053808 431.285905 
L 645.608951 431.708329 
L 647.255756 431.925978 
L 647.798598 431.689777 
L 648.338448 431.842322 
L 648.87534 431.878356 
L 649.409307 431.724295 
L 649.940379 431.956039 
L 650.468588 431.559243 
L 650.993965 431.614555 
L 651.516541 430.900862 
L 652.036343 431.328091 
L 652.553403 431.595723 
L 653.067749 431.727675 
L 653.579408 431.266368 
L 655.098549 431.672632 
L 655.59974 431.647765 
L 656.09838 431.457731 
L 657.579253 431.617944 
L 658.067946 431.252867 
L 658.554212 431.047021 
L 659.519566 431.010256 
L 659.9987 430.722449 
L 660.475501 430.668648 
L 660.949994 430.444747 
L 661.422201 430.501991 
L 663.288592 429.900105 
L 663.749688 429.494135 
L 664.208623 429.671793 
L 664.665419 429.460837 
L 665.120096 429.563101 
L 665.572672 429.477098 
L 666.023168 429.60158 
L 666.917992 429.306783 
L 667.362358 429.399043 
L 667.804718 429.147227 
L 668.24509 429.025464 
L 668.683492 429.153182 
L 669.119941 428.912079 
L 669.554454 428.980757 
L 670.417743 428.854242 
L 671.273491 428.790476 
L 671.698579 429.012905 
L 672.121831 429.009912 
L 672.962888 429.159389 
L 678.260535 428.133373 
L 678.656425 428.268389 
L 679.443438 428.070048 
L 680.22418 428.084326 
L 680.99875 427.948599 
L 681.767245 427.768902 
L 682.908802 427.584952 
L 683.662518 427.605662 
L 684.037213 427.626601 
L 684.410481 427.865441 
L 685.152777 427.940969 
L 685.889491 427.70355 
L 686.98428 427.98419 
L 687.346508 427.899567 
L 687.707402 427.974081 
L 689.137831 427.743343 
L 689.492198 427.865096 
L 690.197112 427.794925 
L 690.547676 427.797424 
L 690.896991 427.660752 
L 692.281927 427.610572 
L 692.967123 427.469825 
L 694.323305 427.82363 
L 694.659438 427.766785 
L 694.994421 427.552502 
L 695.660972 427.551224 
L 696.652373 427.672716 
L 698.605579 427.461065 
L 699.567772 427.805352 
L 700.204025 427.522623 
L 700.836173 427.326396 
L 701.150724 427.461289 
L 702.708509 427.472899 
L 703.937147 427.759129 
L 704.241914 427.584002 
L 704.545737 427.589507 
L 704.84862 427.26451 
L 705.150569 427.139862 
L 705.451591 427.291795 
L 706.942984 427.419785 
L 707.533242 427.218865 
L 708.412016 427.252821 
L 708.703198 427.104678 
L 709.282978 427.342149 
L 710.146266 426.985297 
L 710.432347 427.128739 
L 711.002015 426.945237 
L 711.56839 427.112642 
L 712.411861 427.198507 
L 712.970168 427.148972 
L 713.248133 427.309099 
L 713.525311 427.222969 
L 713.801708 427.271944 
L 714.352174 427.616306 
L 714.626251 427.475149 
L 714.899564 427.532514 
L 715.172117 427.425686 
L 715.443913 427.456197 
L 715.714958 427.221345 
L 717.856739 427.098874 
L 718.1212 426.889818 
L 719.171962 426.728144 
L 719.432901 426.469787 
L 719.693147 426.502083 
L 720.727273 426.164554 
L 722.00477 426.64679 
L 722.511141 426.400344 
L 724.01474 426.026688 
L 724.510855 425.82833 
L 725.740264 425.838261 
L 725.984306 425.692162 
L 726.227741 425.772143 
L 726.954438 425.518697 
L 727.195478 425.548419 
L 727.435926 425.352476 
L 727.91506 425.270136 
L 728.153751 425.033097 
L 728.866354 425.294147 
L 729.102742 425.380479 
L 729.338561 425.265944 
L 729.573813 425.289024 
L 730.04263 425.554438 
L 730.741677 425.488899 
L 731.666048 425.711271 
L 733.263005 425.975153 
L 733.489032 425.962943 
L 733.714539 426.064962 
L 733.939528 425.87934 
L 735.721079 425.910667 
L 736.161451 426.016474 
L 736.599852 426.001022 
L 737.253798 425.824934 
L 737.470814 426.014805 
L 737.68735 425.889484 
L 738.118993 426.037525 
L 738.976614 425.985341 
L 739.189851 426.035075 
L 739.826793 425.645234 
L 741.297085 425.807739 
L 741.505337 425.930386 
L 741.713148 425.867517 
L 742.127451 426.095349 
L 742.333948 425.991073 
L 742.54001 426.182377 
L 743.155609 426.334796 
L 743.767365 426.533223 
L 744.173091 426.498528 
L 744.375326 426.270898 
L 744.577144 426.383932 
L 744.979537 426.352307 
L 745.580045 426.433964 
L 746.176895 426.559899 
L 746.37504 426.377 
L 746.572785 426.389186 
L 746.770131 426.57225 
L 746.967081 426.525995 
L 747.163636 426.363466 
L 747.163636 426.363466 
" style="fill:none;stroke:#1f77b4;stroke-linecap:square;stroke-width:1.5;"/>
   </g>
   <g id="line2d_33">
    <path clip-path="url(#p6b5a373145)" d="M -1 422.796584 
L 747.163636 422.796584 
L 747.163636 422.796584 
" style="fill:none;stroke:#000000;stroke-dasharray:5.55,2.4;stroke-dashoffset:0;stroke-width:1.5;"/>
   </g>
   <g id="line2d_34">
    <path clip-path="url(#p6b5a373145)" d="M -1 492.48 
L 138.436364 492.48 
L 206.352724 492.084921 
L 246.081248 488.347288 
L 274.269084 485.469059 
L 296.133268 481.535956 
L 313.997608 479.093342 
L 329.101691 473.150654 
L 342.185444 470.792236 
L 353.726132 463.287559 
L 364.049628 459.991023 
L 373.388367 459.874773 
L 381.913968 447.897569 
L 389.75676 439.288688 
L 397.018052 442.032888 
L 403.778152 437.618123 
L 410.101804 434.791575 
L 416.041962 429.02632 
L 421.642492 429.80482 
L 426.940138 425.804395 
L 431.965988 419.289939 
L 441.304727 412.113546 
L 445.660226 406.923554 
L 449.830328 413.884241 
L 453.830173 415.688779 
L 457.67312 415.539707 
L 461.371016 414.439155 
L 464.934412 413.921478 
L 468.37275 409.944988 
L 471.694512 401.859811 
L 474.907344 398.536362 
L 478.018164 404.245694 
L 481.033251 398.692964 
L 483.958322 397.384441 
L 486.798596 398.503991 
L 489.558852 400.835707 
L 492.243474 399.783558 
L 494.856498 400.316587 
L 497.401644 397.907582 
L 499.882349 392.035488 
L 502.301795 394.726069 
L 504.662936 394.531654 
L 506.968515 394.830867 
L 509.221087 389.76305 
L 511.423036 385.115676 
L 513.576587 386.945936 
L 515.68382 389.980754 
L 517.746688 394.819989 
L 519.767019 391.882249 
L 521.746533 390.744863 
L 523.686846 395.237795 
L 525.58948 395.681377 
L 527.455872 401.236975 
L 529.287376 403.268302 
L 531.085272 402.246932 
L 532.850772 398.055985 
L 534.585022 389.027652 
L 536.28911 389.038198 
L 537.964067 381.539782 
L 539.610872 380.802395 
L 541.230456 382.229195 
L 542.823704 379.52987 
L 544.391459 379.839223 
L 545.934524 382.109419 
L 547.453665 381.97002 
L 548.949611 378.637165 
L 550.423062 379.227641 
L 551.874682 380.225776 
L 553.30511 379.709277 
L 554.714956 380.630286 
L 556.104804 379.566281 
L 557.475212 380.180096 
L 558.826717 380.403471 
L 560.159835 379.183562 
L 561.475057 377.431968 
L 562.772859 378.696154 
L 564.053695 374.992249 
L 565.318004 376.712805 
L 566.566207 376.082044 
L 567.798709 374.034052 
L 569.015899 373.286863 
L 570.218155 371.086693 
L 571.405837 370.823875 
L 572.579296 371.768386 
L 573.738867 373.991855 
L 574.884875 374.731837 
L 576.017634 372.202424 
L 577.137448 371.416712 
L 578.244607 372.197773 
L 579.339396 371.785286 
L 580.422088 371.572227 
L 581.492947 372.670282 
L 582.552228 374.14826 
L 583.60018 371.375891 
L 584.637043 370.324852 
L 585.663048 368.934897 
L 586.678421 368.635625 
L 587.683379 368.204462 
L 588.678135 368.136786 
L 589.662893 367.508292 
L 590.637852 367.237837 
L 591.603206 367.486879 
L 592.559141 367.454426 
L 593.50584 367.678407 
L 594.44348 366.157964 
L 595.372232 364.919696 
L 596.292263 364.735027 
L 597.203736 365.74752 
L 598.106808 365.253859 
L 599.001632 365.31601 
L 599.888358 365.535885 
L 602.501382 367.395428 
L 603.357131 367.617314 
L 604.205471 368.051967 
L 605.046528 368.877895 
L 605.880427 368.617718 
L 606.70729 367.691417 
L 607.527233 365.851438 
L 608.340371 366.56566 
L 609.146816 366.696732 
L 609.946679 365.947745 
L 610.740065 366.906192 
L 611.527078 366.394648 
L 612.30782 368.813622 
L 613.08239 367.436663 
L 613.850884 367.170314 
L 614.613399 368.470805 
L 615.370025 368.078801 
L 616.120853 368.466503 
L 616.865971 368.481111 
L 617.605466 367.483469 
L 618.339422 368.649797 
L 619.06792 367.924127 
L 619.791042 368.194253 
L 620.508867 367.506558 
L 621.22147 366.985241 
L 621.928929 366.138871 
L 622.631316 365.551392 
L 623.328704 364.723258 
L 624.021164 365.80522 
L 624.708764 365.866735 
L 625.391572 365.105848 
L 626.743078 365.079021 
L 627.411903 365.883547 
L 628.076195 365.065281 
L 629.391417 364.142564 
L 630.689219 365.493466 
L 631.33173 365.366995 
L 631.970055 365.00241 
L 633.234364 363.183672 
L 633.860453 362.814586 
L 634.482567 362.980308 
L 635.100756 363.438363 
L 635.715069 363.555531 
L 636.325554 363.092559 
L 637.535231 363.081037 
L 638.134515 362.211411 
L 638.730156 362.165015 
L 639.322197 362.765973 
L 639.910683 362.83327 
L 640.495656 362.785554 
L 641.077157 362.568162 
L 641.655227 362.596342 
L 643.369252 361.056905 
L 643.933994 360.85289 
L 645.053808 359.93609 
L 645.608951 360.170744 
L 646.160967 360.247777 
L 646.709891 359.533019 
L 647.255756 359.596274 
L 647.798598 359.334017 
L 648.87534 359.747319 
L 649.409307 359.825642 
L 649.940379 360.115926 
L 650.468588 360.103653 
L 650.993965 359.898872 
L 652.036343 360.060421 
L 652.553403 359.964367 
L 653.067749 359.219482 
L 653.579408 358.952895 
L 654.594781 359.08727 
L 655.59974 359.9319 
L 656.09838 359.895511 
L 657.088111 360.421889 
L 658.067946 359.92417 
L 658.554212 360.680746 
L 659.038078 360.433031 
L 659.519566 360.886752 
L 660.475501 360.179163 
L 660.949994 360.038752 
L 661.422201 360.131712 
L 661.892142 359.863721 
L 662.35984 359.336341 
L 662.825317 359.218346 
L 663.288592 358.711459 
L 664.665419 358.517218 
L 665.120096 358.537284 
L 665.572672 358.013422 
L 667.362358 358.345827 
L 667.804718 358.588252 
L 668.683492 358.423605 
L 669.119941 358.590692 
L 669.987049 358.258442 
L 670.417743 358.135778 
L 670.846551 358.250237 
L 671.273491 358.148739 
L 671.698579 358.223356 
L 672.543262 358.058361 
L 672.962888 358.358119 
L 673.380725 358.292945 
L 673.796788 358.480646 
L 674.62365 358.265413 
L 675.034479 358.430879 
L 675.443593 358.456832 
L 675.851005 358.225944 
L 677.863039 358.14716 
L 678.260535 357.880285 
L 679.443438 358.167348 
L 679.834586 357.893371 
L 680.99875 357.94644 
L 681.383751 357.689521 
L 682.149243 357.962612 
L 682.529759 358.308991 
L 682.908802 358.305248 
L 683.286385 358.557397 
L 683.662518 358.541848 
L 684.410481 358.806976 
L 685.152777 358.846526 
L 685.521826 358.706141 
L 685.889491 358.91159 
L 688.066972 358.660432 
L 688.425227 358.314 
L 689.137831 358.139681 
L 689.845289 357.942196 
L 690.197112 357.750705 
L 690.896991 357.923581 
L 691.245064 358.168557 
L 692.625124 357.967271 
L 692.967123 358.047352 
L 693.307932 357.985386 
L 693.986015 358.041793 
L 694.659438 357.941569 
L 695.328263 357.452026 
L 695.992555 357.539204 
L 696.652373 357.715728 
L 697.307777 357.455604 
L 699.24809 357.135572 
L 702.398927 356.944091 
L 702.708509 357.102212 
L 703.324754 356.981671 
L 703.631429 356.773597 
L 704.545737 356.785362 
L 705.150569 356.872944 
L 705.451591 356.724821 
L 705.751691 356.737871 
L 706.349148 356.524501 
L 706.646516 356.705917 
L 707.238558 356.616638 
L 707.827043 356.449479 
L 708.412016 356.753592 
L 708.993517 356.557874 
L 709.282978 356.605387 
L 709.571587 356.374584 
L 709.859348 355.981284 
L 710.432347 355.933082 
L 710.717595 355.711898 
L 711.56839 355.874989 
L 711.850354 355.611993 
L 712.13151 355.652236 
L 713.248133 355.352851 
L 713.525311 355.06826 
L 714.352174 355.211363 
L 714.626251 355.407523 
L 714.899564 355.4581 
L 715.172117 355.650874 
L 715.985255 355.739765 
L 716.7917 355.232427 
L 717.059047 355.451954 
L 718.1212 355.299401 
L 718.647989 355.705739 
L 719.171962 355.585998 
L 719.432901 355.620851 
L 719.693147 355.507153 
L 719.952703 355.271728 
L 720.469763 355.443447 
L 720.727273 355.54098 
L 720.984109 355.349445 
L 721.495768 355.450731 
L 721.7506 355.193041 
L 722.763349 355.414102 
L 723.014909 355.50058 
L 723.5161 355.334161 
L 723.765737 355.255669 
L 724.263112 354.72492 
L 725.25035 354.680857 
L 725.495613 354.47812 
L 725.740264 354.680718 
L 725.984306 354.431583 
L 726.470573 354.496543 
L 726.712804 354.324508 
L 726.954438 354.434203 
L 727.435926 354.255918 
L 727.91506 353.917889 
L 728.391862 354.110369 
L 728.629395 353.879401 
L 728.866354 353.96417 
L 729.338561 353.854438 
L 729.808502 353.738421 
L 730.04263 354.046434 
L 730.2762 354.084105 
L 730.741677 354.293492 
L 731.666048 353.769015 
L 732.58178 354.222404 
L 732.809381 354.209073 
L 733.036456 354.331013 
L 733.263005 354.099994 
L 734.834352 353.952767 
L 735.278718 353.593783 
L 735.500148 353.47549 
L 736.161451 353.653793 
L 736.599852 353.62285 
L 736.81832 353.789533 
L 737.036301 353.705672 
L 737.470814 354.050924 
L 737.903409 354.281581 
L 738.334103 353.984428 
L 738.762911 354.335458 
L 738.976614 354.312719 
L 739.189851 354.441502 
L 739.402626 354.760987 
L 739.614939 354.459034 
L 740.038191 354.322852 
L 740.249133 354.431879 
L 740.459622 354.332863 
L 740.66966 354.104835 
L 740.879248 354.070509 
L 741.297085 354.351914 
L 741.505337 354.400265 
L 742.127451 354.161658 
L 742.54001 354.506409 
L 742.74564 354.434282 
L 742.950839 354.543096 
L 743.563871 354.388472 
L 743.767365 354.418814 
L 744.375326 354.122602 
L 744.577144 354.310782 
L 744.778547 354.063805 
L 744.979537 354.253198 
L 745.580045 354.213148 
L 745.779399 354.399372 
L 745.978349 354.268635 
L 747.163636 354.528131 
L 747.163636 354.528131 
" style="fill:none;stroke:#ff7f0e;stroke-linecap:square;stroke-width:1.5;"/>
   </g>
   <g id="line2d_35">
    <path clip-path="url(#p6b5a373145)" d="M -1 351.283205 
L 747.163636 351.283205 
L 747.163636 351.283205 
" style="fill:none;stroke:#000000;stroke-dasharray:5.55,2.4;stroke-dashoffset:0;stroke-width:1.5;"/>
   </g>
   <g id="line2d_36">
    <path clip-path="url(#p6b5a373145)" d="M -1 492.48 
L 138.436364 492.48 
L 206.352724 485.81889 
L 246.081248 474.10456 
L 274.269084 464.520629 
L 296.133268 445.659525 
L 313.997608 427.911295 
L 329.101691 415.26185 
L 342.185444 406.130628 
L 353.726132 389.625127 
L 364.049628 383.805058 
L 373.388367 373.964266 
L 381.913968 360.289341 
L 389.75676 352.910131 
L 397.018052 342.172727 
L 403.778152 332.421692 
L 410.101804 329.088646 
L 416.041962 326.511169 
L 421.642492 320.483316 
L 426.940138 323.170612 
L 431.965988 323.062284 
L 436.746575 323.220788 
L 441.304727 328.673005 
L 445.660226 322.739112 
L 449.830328 317.25531 
L 453.830173 319.574228 
L 457.67312 320.279206 
L 461.371016 323.193147 
L 464.934412 320.792492 
L 468.37275 321.605034 
L 471.694512 314.776083 
L 474.907344 311.825349 
L 478.018164 313.804611 
L 481.033251 312.897265 
L 483.958322 313.682272 
L 486.798596 307.882792 
L 489.558852 309.077984 
L 494.856498 299.134279 
L 497.401644 300.363888 
L 499.882349 300.030212 
L 502.301795 302.977979 
L 504.662936 299.918091 
L 506.968515 301.168447 
L 509.221087 299.784072 
L 511.423036 297.22082 
L 513.576587 297.189621 
L 515.68382 297.787979 
L 517.746688 300.938199 
L 519.767019 299.817066 
L 521.746533 299.518078 
L 523.686846 301.59769 
L 525.58948 297.571012 
L 527.455872 302.246834 
L 529.287376 300.784972 
L 531.085272 303.157662 
L 532.850772 298.325768 
L 534.585022 293.205847 
L 536.28911 293.068066 
L 537.964067 291.324635 
L 539.610872 286.495994 
L 541.230456 288.106412 
L 542.823704 285.96316 
L 544.391459 285.242323 
L 545.934524 290.608712 
L 547.453665 294.335777 
L 548.949611 292.383217 
L 550.423062 290.067326 
L 551.874682 292.244945 
L 553.30511 293.294885 
L 554.714956 293.495967 
L 556.104804 293.355876 
L 557.475212 292.847009 
L 558.826717 296.672972 
L 560.159835 293.766863 
L 561.475057 292.477439 
L 562.772859 292.551694 
L 564.053695 291.489812 
L 565.318004 290.730408 
L 566.566207 290.860187 
L 567.798709 292.022747 
L 569.015899 292.035887 
L 570.218155 289.150992 
L 571.405837 288.903226 
L 572.579296 287.552725 
L 573.738867 288.017252 
L 576.017634 285.818123 
L 577.137448 284.412157 
L 578.244607 284.404006 
L 579.339396 285.433521 
L 580.422088 287.247084 
L 581.492947 288.40018 
L 582.552228 288.086915 
L 583.60018 286.201085 
L 584.637043 285.735793 
L 585.663048 286.198395 
L 586.678421 285.784187 
L 587.683379 287.625408 
L 588.678135 287.539736 
L 589.662893 286.114837 
L 590.637852 286.714326 
L 591.603206 284.685601 
L 592.559141 284.40376 
L 593.50584 284.455334 
L 594.44348 281.695065 
L 595.372232 283.251864 
L 596.292263 287.186486 
L 597.203736 287.065245 
L 598.106808 286.219721 
L 599.001632 287.453181 
L 599.888358 287.810889 
L 600.767132 286.845888 
L 601.638094 285.582048 
L 602.501382 286.183747 
L 603.357131 286.04331 
L 604.205471 287.393688 
L 605.046528 285.802507 
L 605.880427 285.555495 
L 606.70729 286.819009 
L 607.527233 286.857502 
L 608.340371 287.550601 
L 609.146816 286.413529 
L 609.946679 287.052566 
L 610.740065 289.044134 
L 611.527078 289.075565 
L 612.30782 289.87579 
L 613.08239 290.413237 
L 613.850884 288.491457 
L 614.613399 288.442627 
L 615.370025 286.985701 
L 616.865971 286.994647 
L 617.605466 286.971326 
L 619.06792 287.162454 
L 619.791042 285.315105 
L 621.22147 285.17821 
L 621.928929 285.92795 
L 622.631316 284.966947 
L 623.328704 283.673899 
L 624.021164 284.044579 
L 624.708764 283.045925 
L 625.391572 283.377395 
L 626.069655 283.175186 
L 626.743078 283.164694 
L 627.411903 283.653242 
L 628.076195 284.297861 
L 628.736013 284.560959 
L 630.042467 283.13537 
L 630.689219 282.373262 
L 631.33173 282.200664 
L 631.970055 280.768171 
L 633.234364 281.809953 
L 633.860453 281.475094 
L 634.482567 281.596844 
L 635.100756 281.38189 
L 635.715069 280.921374 
L 636.325554 281.818228 
L 637.535231 282.538061 
L 638.134515 283.532427 
L 639.322197 283.718993 
L 639.910683 283.636294 
L 641.655227 284.408733 
L 642.229906 285.263577 
L 642.801235 285.2083 
L 643.933994 284.659994 
L 644.495501 284.67664 
L 645.608951 285.068444 
L 646.160967 285.612247 
L 646.709891 285.37111 
L 647.255756 285.606728 
L 648.87534 284.415408 
L 649.940379 284.037417 
L 650.468588 284.318075 
L 650.993965 284.295858 
L 651.516541 284.541313 
L 652.036343 284.488185 
L 652.553403 284.597931 
L 653.067749 284.283552 
L 653.579408 284.812824 
L 654.594781 284.667976 
L 655.59974 284.84555 
L 656.09838 284.996973 
L 657.579253 284.03874 
L 658.067946 284.227055 
L 659.038078 284.91337 
L 660.475501 284.145104 
L 660.949994 284.272161 
L 662.35984 283.055943 
L 663.749688 282.402642 
L 664.208623 282.522355 
L 664.665419 283.015192 
L 665.120096 282.573725 
L 666.023168 282.729936 
L 666.471601 282.958086 
L 666.917992 282.897375 
L 667.362358 282.661899 
L 667.804718 282.629591 
L 668.24509 282.753358 
L 669.554454 282.006975 
L 670.417743 281.614136 
L 670.846551 281.765825 
L 671.273491 281.783566 
L 672.121831 281.454829 
L 672.543262 281.056015 
L 672.962888 281.00364 
L 673.380725 281.087849 
L 673.796788 281.329822 
L 675.034479 281.172482 
L 675.443593 281.241697 
L 675.851005 281.119797 
L 676.256731 280.856925 
L 677.463924 280.736515 
L 678.656425 280.544689 
L 679.050721 280.878192 
L 679.834586 280.682721 
L 680.22418 280.928243 
L 680.61223 280.98909 
L 680.99875 281.196038 
L 682.149243 281.162429 
L 683.286385 281.015133 
L 684.037213 281.187104 
L 686.98428 281.373482 
L 687.346508 281.14425 
L 689.492198 281.045254 
L 691.245064 281.444214 
L 691.591906 281.039572 
L 691.937524 280.874497 
L 692.281927 280.463578 
L 692.625124 280.407639 
L 692.967123 280.512413 
L 693.307932 280.467982 
L 693.986015 280.594601 
L 694.323305 280.555145 
L 694.659438 280.392808 
L 695.328263 280.742974 
L 695.660972 280.36173 
L 696.323019 280.099348 
L 697.307777 280.16766 
L 697.958827 279.905256 
L 699.886415 279.855537 
L 700.520609 279.796081 
L 701.150724 279.759123 
L 701.464269 280.027682 
L 702.088364 279.98501 
L 702.398927 279.667251 
L 702.708509 279.529234 
L 704.241914 279.624944 
L 704.545737 279.258721 
L 704.84862 279.322963 
L 705.751691 279.845178 
L 706.050875 279.702574 
L 706.349148 279.81808 
L 706.646516 280.117781 
L 707.827043 280.347574 
L 708.993517 279.747354 
L 709.571587 280.14937 
L 710.432347 279.934367 
L 710.717595 279.987879 
L 711.002015 279.827453 
L 711.285612 279.94703 
L 711.56839 279.722998 
L 711.850354 279.784507 
L 712.13151 279.673839 
L 713.248133 280.000609 
L 713.525311 280.002099 
L 713.801708 279.689524 
L 714.352174 279.709173 
L 714.626251 279.996444 
L 714.899564 279.808918 
L 715.172117 279.789119 
L 715.443913 279.645954 
L 715.985255 279.588705 
L 716.254808 279.734629 
L 716.523622 279.631066 
L 716.7917 279.854836 
L 717.591563 279.721754 
L 717.856739 279.624652 
L 718.384948 279.819164 
L 718.647989 279.674336 
L 719.952703 279.593811 
L 720.211574 279.825462 
L 720.469763 279.859669 
L 720.727273 279.605106 
L 720.984109 279.66038 
L 721.240273 279.458552 
L 721.495768 279.638988 
L 721.7506 279.551525 
L 722.00477 279.82849 
L 722.258283 279.637838 
L 722.763349 279.733001 
L 723.014909 279.611624 
L 723.265825 279.291225 
L 724.01474 279.195754 
L 724.510855 279.154874 
L 724.757974 279.043595 
L 725.004472 279.278117 
L 725.25035 279.296994 
L 725.984306 279.678614 
L 726.470573 279.751252 
L 726.954438 280.009909 
L 727.195478 279.98078 
L 727.435926 280.22552 
L 728.153751 279.829732 
L 728.629395 279.971269 
L 728.866354 279.903696 
L 729.102742 280.001778 
L 729.338561 279.935251 
L 729.573813 279.549066 
L 729.808502 279.70916 
L 730.2762 279.571331 
L 730.973588 279.533528 
L 731.204952 279.459779 
L 731.435771 279.247269 
L 731.666048 279.211555 
L 731.895784 279.319122 
L 732.124983 278.953548 
L 732.809381 279.583025 
L 733.263005 279.54816 
L 733.489032 279.159308 
L 733.714539 279.039917 
L 733.939528 279.076216 
L 734.387961 278.812633 
L 734.834352 278.846951 
L 735.941512 278.431183 
L 736.161451 278.163325 
L 736.380897 278.479105 
L 736.81832 278.612892 
L 737.036301 278.412198 
L 737.253798 278.496802 
L 737.470814 278.82994 
L 737.68735 278.909889 
L 738.548742 279.906353 
L 738.762911 279.980474 
L 738.976614 279.764829 
L 739.402626 279.60466 
L 739.826793 279.951889 
L 740.038191 279.810486 
L 740.459622 279.777772 
L 741.088389 279.034392 
L 741.297085 279.137602 
L 741.713148 278.627043 
L 741.920518 278.831132 
L 742.127451 278.785559 
L 742.333948 278.931783 
L 742.950839 278.632908 
L 743.359953 278.999688 
L 743.563871 278.838207 
L 743.767365 278.873258 
L 743.970438 279.203529 
L 744.778547 279.03032 
L 744.979537 278.793013 
L 745.779399 279.49189 
L 745.978349 279.247941 
L 746.37504 279.243143 
L 746.572785 278.978832 
L 746.967081 279.074155 
L 747.163636 278.776961 
L 747.163636 278.776961 
" style="fill:none;stroke:#2ca02c;stroke-linecap:square;stroke-width:1.5;"/>
   </g>
   <g id="line2d_37">
    <path clip-path="url(#p6b5a373145)" d="M -1 276.917367 
L 747.163636 276.917367 
L 747.163636 276.917367 
" style="fill:none;stroke:#000000;stroke-dasharray:5.55,2.4;stroke-dashoffset:0;stroke-width:1.5;"/>
   </g>
   <g id="line2d_38">
    <path clip-path="url(#p6b5a373145)" d="M -1 443.887379 
L 138.436364 443.857328 
L 206.352724 426.657302 
L 246.081248 384.86867 
L 274.269084 368.857229 
L 296.133268 337.200365 
L 313.997608 314.468971 
L 329.101691 299.36408 
L 353.726132 258.106863 
L 364.049628 256.788281 
L 373.388367 241.475586 
L 381.913968 237.857232 
L 389.75676 224.19612 
L 397.018052 213.724192 
L 403.778152 216.590127 
L 410.101804 212.314307 
L 416.041962 197.901664 
L 421.642492 203.148784 
L 426.940138 208.366416 
L 431.965988 209.386676 
L 436.746575 216.005894 
L 441.304727 216.153656 
L 445.660226 210.684187 
L 449.830328 211.42634 
L 453.830173 205.348838 
L 457.67312 210.065362 
L 461.371016 212.814475 
L 464.934412 208.120772 
L 468.37275 211.771491 
L 471.694512 207.124294 
L 474.907344 205.736972 
L 478.018164 206.741755 
L 481.033251 205.153928 
L 483.958322 204.699398 
L 486.798596 198.859423 
L 492.243474 195.03892 
L 494.856498 198.761481 
L 497.401644 198.833684 
L 499.882349 198.346235 
L 502.301795 199.43071 
L 506.968515 195.966679 
L 509.221087 200.743881 
L 511.423036 197.139239 
L 513.576587 197.105671 
L 515.68382 193.07555 
L 517.746688 194.193936 
L 519.767019 194.528494 
L 521.746533 192.502075 
L 523.686846 193.436748 
L 525.58948 191.976357 
L 527.455872 196.331704 
L 529.287376 196.703214 
L 531.085272 194.71669 
L 532.850772 191.372381 
L 534.585022 192.803105 
L 536.28911 193.928109 
L 537.964067 184.502641 
L 539.610872 184.189254 
L 541.230456 186.594773 
L 542.823704 189.736318 
L 544.391459 191.880172 
L 545.934524 194.731341 
L 547.453665 196.755648 
L 548.949611 196.596653 
L 550.423062 191.789595 
L 551.874682 193.25814 
L 553.30511 190.264872 
L 554.714956 190.630023 
L 556.104804 193.937163 
L 557.475212 196.805824 
L 558.826717 194.276793 
L 560.159835 197.117008 
L 562.772859 194.006414 
L 564.053695 194.097443 
L 565.318004 193.038269 
L 566.566207 193.802101 
L 567.798709 195.468722 
L 569.015899 194.799567 
L 571.405837 195.666748 
L 572.579296 193.774071 
L 573.738867 195.935513 
L 574.884875 196.23373 
L 576.017634 199.068621 
L 577.137448 196.15476 
L 578.244607 197.525685 
L 579.339396 197.734031 
L 580.422088 196.689932 
L 581.492947 198.060665 
L 582.552228 197.113945 
L 583.60018 196.367845 
L 584.637043 194.479057 
L 585.663048 196.339052 
L 586.678421 196.703854 
L 587.683379 197.349785 
L 588.678135 197.059606 
L 589.662893 197.767369 
L 590.637852 199.179479 
L 591.603206 195.018642 
L 592.559141 195.848418 
L 594.44348 196.585139 
L 595.372232 195.89108 
L 596.292263 197.158284 
L 597.203736 196.456535 
L 598.106808 196.991466 
L 599.001632 198.414623 
L 599.888358 197.310723 
L 601.638094 199.027226 
L 602.501382 199.891354 
L 604.205471 198.233369 
L 605.046528 197.416507 
L 605.880427 197.345333 
L 606.70729 194.529044 
L 607.527233 196.024898 
L 609.146816 194.462304 
L 609.946679 196.050697 
L 612.30782 199.424012 
L 613.08239 200.114728 
L 613.850884 199.573199 
L 614.613399 200.01727 
L 615.370025 199.195943 
L 616.120853 200.148549 
L 616.865971 201.426392 
L 617.605466 200.618823 
L 618.339422 200.780374 
L 619.06792 200.191929 
L 619.791042 200.555819 
L 620.508867 201.777124 
L 621.22147 201.794324 
L 621.928929 201.496672 
L 622.631316 201.389825 
L 623.328704 202.392355 
L 624.021164 202.429122 
L 624.708764 201.206759 
L 625.391572 201.664184 
L 626.069655 200.917029 
L 626.743078 200.353391 
L 627.411903 199.608343 
L 628.076195 199.620827 
L 628.736013 199.264734 
L 629.391417 198.637818 
L 630.042467 198.232479 
L 630.689219 197.614723 
L 631.33173 197.447013 
L 631.970055 196.920567 
L 633.234364 196.661157 
L 633.860453 197.44151 
L 634.482567 197.803862 
L 635.715069 199.109727 
L 636.325554 200.133797 
L 636.93226 200.390457 
L 638.134515 202.279673 
L 638.730156 202.345531 
L 639.322197 202.956848 
L 639.910683 202.275508 
L 640.495656 202.55159 
L 641.077157 202.331597 
L 641.655227 203.166958 
L 642.801235 201.335534 
L 643.369252 201.121567 
L 643.933994 200.044998 
L 644.495501 199.731734 
L 645.608951 200.528333 
L 646.160967 200.358386 
L 646.709891 199.912425 
L 647.255756 199.756199 
L 647.798598 201.971653 
L 648.338448 201.951782 
L 648.87534 202.527824 
L 649.940379 201.741637 
L 650.468588 201.795266 
L 651.516541 201.344067 
L 652.036343 201.479825 
L 652.553403 202.040327 
L 653.067749 201.907746 
L 653.579408 202.071997 
L 654.08841 201.998256 
L 654.594781 202.37187 
L 655.098549 202.036101 
L 655.59974 202.015192 
L 656.09838 201.274735 
L 656.594495 201.562383 
L 657.088111 201.509988 
L 657.579253 201.662608 
L 658.554212 201.054917 
L 659.038078 200.886114 
L 659.9987 201.362671 
L 661.422201 200.213682 
L 662.825317 200.687275 
L 663.749688 200.33395 
L 664.208623 200.607762 
L 665.120096 200.29929 
L 665.572672 200.465341 
L 666.023168 200.227584 
L 666.917992 200.171722 
L 667.362358 199.858944 
L 667.804718 199.702976 
L 668.24509 199.98411 
L 668.683492 199.623335 
L 669.119941 199.589689 
L 669.554454 199.822362 
L 670.417743 199.423851 
L 671.273491 199.692289 
L 671.698579 200.020629 
L 672.543262 199.612748 
L 672.962888 199.511324 
L 673.380725 199.556389 
L 673.796788 199.714739 
L 674.211091 199.63573 
L 674.62365 199.719829 
L 675.034479 199.583829 
L 676.660783 199.557668 
L 678.260535 199.278969 
L 679.443438 199.171776 
L 679.834586 199.451564 
L 680.22418 199.321479 
L 681.383751 199.298335 
L 682.529759 199.159854 
L 682.908802 199.401018 
L 683.662518 199.179351 
L 684.037213 199.082701 
L 684.410481 199.227638 
L 685.521826 199.266991 
L 686.255782 199.518799 
L 686.98428 199.376904 
L 689.137831 199.098112 
L 689.845289 198.557433 
L 690.197112 198.698579 
L 690.896991 198.556668 
L 691.591906 198.571189 
L 691.937524 198.239944 
L 692.281927 198.33858 
L 693.307932 198.318361 
L 693.64756 198.545943 
L 694.323305 198.403675 
L 694.659438 198.178312 
L 694.994421 198.321434 
L 695.660972 198.116295 
L 695.992555 198.42824 
L 696.323019 198.427266 
L 696.652373 198.658864 
L 696.980623 198.473088 
L 697.307777 198.619627 
L 697.633843 198.367844 
L 697.958827 198.318675 
L 698.605579 198.061399 
L 699.567772 197.920626 
L 699.886415 198.279298 
L 700.520609 197.981404 
L 700.836173 198.28093 
L 701.150724 198.192999 
L 701.464269 198.295047 
L 702.088364 198.12507 
L 703.324754 198.404196 
L 704.241914 198.559073 
L 704.545737 198.725402 
L 704.84862 198.681846 
L 705.150569 198.988742 
L 705.451591 198.623929 
L 706.349148 198.567403 
L 706.646516 198.72382 
L 706.942984 198.712287 
L 707.238558 199.072817 
L 708.119966 198.820672 
L 708.412016 199.014059 
L 708.703198 198.912452 
L 708.993517 199.009398 
L 709.282978 198.955453 
L 709.571587 199.111562 
L 710.717595 199.060637 
L 711.002015 199.245555 
L 711.285612 198.906701 
L 711.850354 198.786032 
L 712.411861 198.25839 
L 712.691412 198.424453 
L 713.248133 198.31904 
L 713.525311 198.452827 
L 713.801708 198.282135 
L 714.077328 198.334794 
L 714.899564 198.215059 
L 715.172117 198.28129 
L 715.443913 198.102796 
L 715.714958 198.502897 
L 716.254808 198.631455 
L 717.325667 198.080927 
L 718.384948 198.000605 
L 718.647989 197.760662 
L 718.910326 197.946076 
L 719.171962 197.76404 
L 719.432901 198.000613 
L 719.693147 197.835486 
L 719.952703 198.302417 
L 720.469763 198.161776 
L 721.240273 197.842083 
L 721.495768 197.545158 
L 721.7506 197.874264 
L 722.00477 197.724941 
L 722.258283 197.758098 
L 722.763349 197.640636 
L 723.265825 197.516608 
L 724.01474 197.702673 
L 724.263112 198.242584 
L 724.757974 198.003958 
L 725.25035 198.0715 
L 725.495613 198.353095 
L 725.740264 198.338053 
L 725.984306 198.551225 
L 726.227741 198.224928 
L 726.470573 198.264577 
L 726.954438 198.172727 
L 727.195478 198.461613 
L 727.675786 198.48593 
L 728.153751 198.296266 
L 728.391862 198.590518 
L 728.629395 198.600722 
L 728.866354 198.962318 
L 729.102742 198.952437 
L 729.338561 198.72058 
L 729.573813 198.664942 
L 730.2762 198.887969 
L 730.509215 198.635081 
L 730.973588 198.726398 
L 731.204952 198.512005 
L 731.666048 198.593522 
L 733.263005 198.408256 
L 733.939528 198.638114 
L 734.164001 198.640857 
L 734.834352 198.386206 
L 735.056787 198.470028 
L 735.278718 198.364764 
L 735.721079 198.459168 
L 736.161451 198.120536 
L 736.380897 198.041954 
L 736.599852 198.14494 
L 737.036301 198.175853 
L 737.903409 198.237293 
L 738.118993 197.880251 
L 738.334103 197.862433 
L 738.976614 198.418032 
L 739.614939 198.244976 
L 739.826793 198.287778 
L 740.249133 197.77542 
L 740.66966 198.447735 
L 740.879248 198.328518 
L 741.297085 198.52852 
L 741.713148 198.166837 
L 741.920518 198.109014 
L 742.333948 198.327165 
L 742.74564 198.326552 
L 743.155609 198.05163 
L 743.563871 197.932376 
L 743.767365 198.117778 
L 743.970438 197.955022 
L 744.173091 198.451179 
L 744.577144 198.891191 
L 744.979537 198.852777 
L 745.580045 198.982036 
L 745.779399 198.982304 
L 746.176895 199.298213 
L 746.37504 199.050765 
L 747.163636 199.010345 
L 747.163636 199.010345 
" style="fill:none;stroke:#d62728;stroke-linecap:square;stroke-width:1.5;"/>
   </g>
   <g id="line2d_39">
    <path clip-path="url(#p6b5a373145)" d="M -1 197.352295 
L 747.163636 197.352295 
L 747.163636 197.352295 
" style="fill:none;stroke:#000000;stroke-dasharray:5.55,2.4;stroke-dashoffset:0;stroke-width:1.5;"/>
   </g>
   <g id="line2d_40">
    <path clip-path="url(#p6b5a373145)" d="M -1 295.735356 
L 138.436364 295.70517 
L 206.352724 249.541821 
L 246.081248 192.541623 
L 274.269084 176.603473 
L 296.133268 160.576225 
L 313.997608 142.22782 
L 329.101691 137.304739 
L 342.185444 135.369923 
L 353.726132 134.307466 
L 364.049628 126.173651 
L 373.388367 121.397683 
L 381.913968 120.376935 
L 389.75676 111.033157 
L 397.018052 107.494966 
L 403.778152 104.927064 
L 410.101804 107.661067 
L 416.041962 105.73073 
L 421.642492 104.417825 
L 426.940138 103.042331 
L 431.965988 101.883715 
L 436.746575 98.711722 
L 441.304727 100.629571 
L 445.660226 99.622177 
L 449.830328 101.164946 
L 453.830173 97.330359 
L 457.67312 102.72378 
L 461.371016 102.06371 
L 464.934412 102.870338 
L 468.37275 100.949523 
L 471.694512 99.532401 
L 474.907344 103.388544 
L 478.018164 112.299331 
L 481.033251 109.036312 
L 483.958322 103.711853 
L 486.798596 100.68277 
L 489.558852 96.34647 
L 492.243474 95.179496 
L 494.856498 95.366034 
L 497.401644 97.288847 
L 502.301795 100.696794 
L 504.662936 96.152651 
L 506.968515 96.13496 
L 509.221087 96.540563 
L 511.423036 92.33089 
L 513.576587 93.426739 
L 515.68382 91.597481 
L 517.746688 91.941173 
L 519.767019 91.231861 
L 521.746533 93.679777 
L 523.686846 94.124927 
L 525.58948 94.399841 
L 527.455872 93.999429 
L 529.287376 96.837262 
L 531.085272 93.873151 
L 532.850772 92.977369 
L 534.585022 95.395126 
L 536.28911 92.276453 
L 537.964067 93.293461 
L 539.610872 90.438705 
L 541.230456 89.28 
L 542.823704 93.948016 
L 544.391459 96.673336 
L 545.934524 97.075904 
L 547.453665 96.292865 
L 548.949611 96.22766 
L 550.423062 98.770287 
L 551.874682 100.890419 
L 554.714956 96.94735 
L 556.104804 96.467579 
L 557.475212 98.09295 
L 558.826717 98.896797 
L 560.159835 99.407063 
L 561.475057 99.738672 
L 562.772859 97.813884 
L 564.053695 100.223205 
L 565.318004 100.715428 
L 566.566207 99.782816 
L 569.015899 98.728651 
L 570.218155 99.480444 
L 571.405837 99.831415 
L 572.579296 100.522072 
L 573.738867 102.998299 
L 574.884875 104.486 
L 576.017634 104.537427 
L 577.137448 103.962309 
L 578.244607 104.369139 
L 579.339396 104.261317 
L 580.422088 105.576754 
L 581.492947 104.762044 
L 582.552228 105.18497 
L 583.60018 101.416483 
L 584.637043 100.928219 
L 586.678421 100.357715 
L 587.683379 101.16107 
L 588.678135 100.664359 
L 589.662893 99.025282 
L 590.637852 99.308318 
L 592.559141 101.560578 
L 595.372232 103.384263 
L 596.292263 102.733656 
L 597.203736 103.118422 
L 598.106808 102.148954 
L 599.001632 102.830608 
L 599.888358 102.699297 
L 600.767132 105.89326 
L 601.638094 104.922081 
L 602.501382 104.817411 
L 603.357131 105.784679 
L 604.205471 106.345211 
L 605.046528 107.644729 
L 606.70729 105.758411 
L 607.527233 106.5291 
L 608.340371 105.201856 
L 609.146816 105.020643 
L 609.946679 103.863674 
L 610.740065 104.829729 
L 611.527078 105.208915 
L 612.30782 106.088863 
L 613.08239 105.489629 
L 613.850884 105.717432 
L 614.613399 105.163762 
L 615.370025 105.93501 
L 616.120853 104.985564 
L 616.865971 106.787335 
L 617.605466 107.321204 
L 618.339422 108.559774 
L 619.06792 108.139707 
L 619.791042 108.587955 
L 620.508867 109.499061 
L 621.928929 107.58494 
L 622.631316 107.849546 
L 624.021164 107.754503 
L 624.708764 108.899269 
L 626.743078 108.825687 
L 627.411903 109.743643 
L 628.076195 110.059604 
L 629.391417 108.025272 
L 630.042467 108.197135 
L 630.689219 109.204423 
L 631.970055 109.28234 
L 632.604249 108.475186 
L 633.234364 108.557834 
L 633.860453 107.760737 
L 634.482567 107.600957 
L 635.100756 107.153348 
L 635.715069 107.42542 
L 636.325554 108.136706 
L 636.93226 108.437062 
L 637.535231 108.94571 
L 638.134515 109.186613 
L 638.730156 109.196568 
L 639.322197 108.683571 
L 639.910683 108.581796 
L 640.495656 108.882824 
L 641.077157 108.425211 
L 641.655227 108.373962 
L 642.229906 109.564467 
L 642.801235 109.455065 
L 643.933994 108.465826 
L 644.495501 108.339006 
L 645.053808 107.930249 
L 645.608951 108.472531 
L 646.160967 107.867525 
L 647.255756 107.623134 
L 647.798598 108.015065 
L 648.338448 107.845253 
L 648.87534 107.976861 
L 649.409307 107.905308 
L 649.940379 108.228953 
L 650.993965 109.125961 
L 651.516541 108.567938 
L 652.036343 108.226393 
L 653.067749 108.916672 
L 653.579408 108.597064 
L 654.08841 108.814106 
L 654.594781 108.82868 
L 655.098549 108.272529 
L 655.59974 108.175224 
L 656.09838 107.610056 
L 656.594495 107.886539 
L 657.088111 108.013827 
L 657.579253 107.893544 
L 658.067946 108.544681 
L 658.554212 108.372636 
L 659.038078 108.755505 
L 659.519566 108.622099 
L 659.9987 108.678727 
L 660.949994 109.186315 
L 661.892142 109.177244 
L 662.35984 108.891686 
L 663.288592 108.806342 
L 663.749688 109.157213 
L 664.665419 108.934472 
L 665.572672 109.252586 
L 666.023168 109.200361 
L 666.471601 109.342741 
L 666.917992 108.912243 
L 667.362358 108.889824 
L 667.804718 108.65185 
L 669.119941 108.570674 
L 669.554454 108.353451 
L 669.987049 108.64038 
L 670.417743 108.733364 
L 671.273491 108.680512 
L 671.698579 109.018154 
L 672.121831 109.099369 
L 672.543262 109.403183 
L 672.962888 109.559322 
L 673.380725 109.557296 
L 673.796788 109.340377 
L 674.211091 109.544276 
L 675.034479 109.428937 
L 675.443593 109.476994 
L 675.851005 109.652059 
L 676.256731 109.656021 
L 677.063177 109.377043 
L 677.863039 109.595953 
L 678.260535 109.322355 
L 678.656425 109.37917 
L 679.050721 109.26114 
L 680.22418 109.526185 
L 680.61223 109.465693 
L 680.99875 109.653747 
L 681.767245 109.592362 
L 682.149243 109.476817 
L 683.662518 109.918709 
L 684.037213 109.713528 
L 684.410481 109.915089 
L 684.782332 109.828131 
L 685.152777 109.896102 
L 686.255782 109.630766 
L 686.98428 109.670541 
L 687.346508 109.940034 
L 687.707402 109.906426 
L 688.425227 110.094264 
L 688.782177 110.411686 
L 690.197112 110.457836 
L 690.896991 110.640348 
L 692.625124 110.626443 
L 692.967123 110.793042 
L 693.986015 110.370973 
L 694.323305 110.534011 
L 694.994421 110.499266 
L 695.660972 110.909956 
L 696.323019 111.103616 
L 696.652373 110.948321 
L 696.980623 110.924494 
L 697.307777 111.188355 
L 697.633843 111.619709 
L 697.958827 111.518869 
L 698.605579 111.580642 
L 699.24809 111.41834 
L 699.567772 111.083847 
L 701.776813 110.964925 
L 702.398927 110.77327 
L 703.324754 111.203319 
L 703.631429 111.399591 
L 704.241914 111.436718 
L 704.84862 111.174985 
L 705.150569 111.16487 
L 705.451591 111.369979 
L 707.238558 111.207606 
L 707.533242 111.162494 
L 707.827043 110.960036 
L 708.412016 111.254103 
L 708.993517 110.990195 
L 709.571587 110.800956 
L 710.432347 110.76929 
L 712.13151 110.350947 
L 712.411861 110.21924 
L 712.691412 110.409329 
L 713.248133 110.167753 
L 713.525311 110.312091 
L 713.801708 110.767473 
L 714.077328 110.887509 
L 714.352174 110.848642 
L 714.626251 111.050526 
L 715.172117 111.030242 
L 715.985255 111.284079 
L 716.254808 111.152718 
L 717.591563 111.732859 
L 717.856739 111.516366 
L 718.1212 111.513969 
L 718.384948 111.650541 
L 718.910326 111.633365 
L 719.171962 111.777938 
L 719.693147 111.625402 
L 719.952703 111.612897 
L 720.727273 111.223813 
L 720.984109 111.418457 
L 721.495768 111.367477 
L 722.00477 111.46123 
L 722.258283 111.592884 
L 722.511141 111.446895 
L 722.763349 111.555233 
L 723.265825 111.370296 
L 724.263112 111.60752 
L 724.757974 111.705182 
L 725.25035 111.6742 
L 725.495613 111.919768 
L 726.227741 112.036863 
L 726.470573 112.008617 
L 726.712804 111.843442 
L 727.195478 111.952284 
L 727.435926 111.786369 
L 728.153751 111.955604 
L 728.391862 111.857973 
L 728.629395 111.596057 
L 729.338561 111.961837 
L 729.573813 111.769882 
L 730.04263 111.863659 
L 730.2762 111.745778 
L 730.509215 111.852599 
L 730.973588 111.849395 
L 731.435771 111.82289 
L 731.895784 111.819072 
L 732.124983 111.533523 
L 732.58178 111.41183 
L 732.809381 111.525845 
L 733.263005 111.234177 
L 733.489032 111.178639 
L 733.714539 110.952897 
L 734.164001 110.935575 
L 734.611411 110.730951 
L 735.056787 110.401853 
L 735.500148 110.411428 
L 736.161451 110.365959 
L 736.380897 110.579735 
L 736.81832 110.618609 
L 737.68735 111.423575 
L 738.762911 111.418307 
L 738.976614 111.159197 
L 739.189851 111.287344 
L 740.038191 111.182721 
L 740.459622 111.348488 
L 741.920518 111.733582 
L 742.127451 111.598055 
L 743.155609 112.068738 
L 743.563871 111.794907 
L 743.970438 111.842022 
L 744.778547 112.065753 
L 745.180115 112.073357 
L 745.580045 111.77629 
L 745.978349 111.620557 
L 746.176895 111.788174 
L 746.37504 111.652325 
L 746.572785 111.809773 
L 746.770131 111.734286 
L 747.163636 111.854945 
L 747.163636 111.854945 
" style="fill:none;stroke:#9467bd;stroke-linecap:square;stroke-width:1.5;"/>
   </g>
   <g id="line2d_41">
    <path clip-path="url(#p6b5a373145)" d="M -1 111.825047 
L 747.163636 111.825047 
L 747.163636 111.825047 
" style="fill:none;stroke:#000000;stroke-dasharray:5.55,2.4;stroke-dashoffset:0;stroke-width:1.5;"/>
   </g>
   <g id="patch_3">
    <path d="M 108 512.64 
L 108 69.12 
" style="fill:none;stroke:#000000;stroke-linecap:square;stroke-linejoin:miter;stroke-width:0.8;"/>
   </g>
   <g id="patch_4">
    <path d="M 777.6 512.64 
L 777.6 69.12 
" style="fill:none;stroke:#000000;stroke-linecap:square;stroke-linejoin:miter;stroke-width:0.8;"/>
   </g>
   <g id="patch_5">
    <path d="M 108 512.64 
L 777.6 512.64 
" style="fill:none;stroke:#000000;stroke-linecap:square;stroke-linejoin:miter;stroke-width:0.8;"/>
   </g>
   <g id="patch_6">
    <path d="M 108 69.12 
L 777.6 69.12 
" style="fill:none;stroke:#000000;stroke-linecap:square;stroke-linejoin:miter;stroke-width:0.8;"/>
   </g>
   <g id="text_11">
    <!-- TD estimates through time vs true values -->
    <g transform="translate(317.914688 63.12)scale(0.12 -0.12)">
     <defs>
      <path d="M -19 4666 
L 3928 4666 
L 3928 4134 
L 2272 4134 
L 2272 0 
L 1638 0 
L 1638 4134 
L -19 4134 
L -19 4666 
z
" id="DejaVuSans-54" transform="scale(0.015625)"/>
      <path d="M 1259 4147 
L 1259 519 
L 2022 519 
Q 2988 519 3436 956 
Q 3884 1394 3884 2338 
Q 3884 3275 3436 3711 
Q 2988 4147 2022 4147 
L 1259 4147 
z
M 628 4666 
L 1925 4666 
Q 3281 4666 3915 4102 
Q 4550 3538 4550 2338 
Q 4550 1131 3912 565 
Q 3275 0 1925 0 
L 628 0 
L 628 4666 
z
" id="DejaVuSans-44" transform="scale(0.015625)"/>
      <path d="M 3328 2828 
Q 3544 3216 3844 3400 
Q 4144 3584 4550 3584 
Q 5097 3584 5394 3201 
Q 5691 2819 5691 2113 
L 5691 0 
L 5113 0 
L 5113 2094 
Q 5113 2597 4934 2840 
Q 4756 3084 4391 3084 
Q 3944 3084 3684 2787 
Q 3425 2491 3425 1978 
L 3425 0 
L 2847 0 
L 2847 2094 
Q 2847 2600 2669 2842 
Q 2491 3084 2119 3084 
Q 1678 3084 1418 2786 
Q 1159 2488 1159 1978 
L 1159 0 
L 581 0 
L 581 3500 
L 1159 3500 
L 1159 2956 
Q 1356 3278 1631 3431 
Q 1906 3584 2284 3584 
Q 2666 3584 2933 3390 
Q 3200 3197 3328 2828 
z
" id="DejaVuSans-6d" transform="scale(0.015625)"/>
      <path d="M 3513 2113 
L 3513 0 
L 2938 0 
L 2938 2094 
Q 2938 2591 2744 2837 
Q 2550 3084 2163 3084 
Q 1697 3084 1428 2787 
Q 1159 2491 1159 1978 
L 1159 0 
L 581 0 
L 581 4863 
L 1159 4863 
L 1159 2956 
Q 1366 3272 1645 3428 
Q 1925 3584 2291 3584 
Q 2894 3584 3203 3211 
Q 3513 2838 3513 2113 
z
" id="DejaVuSans-68" transform="scale(0.015625)"/>
      <path d="M 2631 2963 
Q 2534 3019 2420 3045 
Q 2306 3072 2169 3072 
Q 1681 3072 1420 2755 
Q 1159 2438 1159 1844 
L 1159 0 
L 581 0 
L 581 3500 
L 1159 3500 
L 1159 2956 
Q 1341 3275 1631 3429 
Q 1922 3584 2338 3584 
Q 2397 3584 2469 3576 
Q 2541 3569 2628 3553 
L 2631 2963 
z
" id="DejaVuSans-72" transform="scale(0.015625)"/>
      <path d="M 2906 1791 
Q 2906 2416 2648 2759 
Q 2391 3103 1925 3103 
Q 1463 3103 1205 2759 
Q 947 2416 947 1791 
Q 947 1169 1205 825 
Q 1463 481 1925 481 
Q 2391 481 2648 825 
Q 2906 1169 2906 1791 
z
M 3481 434 
Q 3481 -459 3084 -895 
Q 2688 -1331 1869 -1331 
Q 1566 -1331 1297 -1286 
Q 1028 -1241 775 -1147 
L 775 -588 
Q 1028 -725 1275 -790 
Q 1522 -856 1778 -856 
Q 2344 -856 2625 -561 
Q 2906 -266 2906 331 
L 2906 616 
Q 2728 306 2450 153 
Q 2172 0 1784 0 
Q 1141 0 747 490 
Q 353 981 353 1791 
Q 353 2603 747 3093 
Q 1141 3584 1784 3584 
Q 2172 3584 2450 3431 
Q 2728 3278 2906 2969 
L 2906 3500 
L 3481 3500 
L 3481 434 
z
" id="DejaVuSans-67" transform="scale(0.015625)"/>
      <path d="M 191 3500 
L 800 3500 
L 1894 563 
L 2988 3500 
L 3597 3500 
L 2284 0 
L 1503 0 
L 191 3500 
z
" id="DejaVuSans-76" transform="scale(0.015625)"/>
     </defs>
     <use xlink:href="#DejaVuSans-54"/>
     <use x="61.083984" xlink:href="#DejaVuSans-44"/>
     <use x="138.085938" xlink:href="#DejaVuSans-20"/>
     <use x="169.873047" xlink:href="#DejaVuSans-65"/>
     <use x="231.396484" xlink:href="#DejaVuSans-73"/>
     <use x="283.496094" xlink:href="#DejaVuSans-74"/>
     <use x="322.705078" xlink:href="#DejaVuSans-69"/>
     <use x="350.488281" xlink:href="#DejaVuSans-6d"/>
     <use x="447.900391" xlink:href="#DejaVuSans-61"/>
     <use x="509.179688" xlink:href="#DejaVuSans-74"/>
     <use x="548.388672" xlink:href="#DejaVuSans-65"/>
     <use x="609.912109" xlink:href="#DejaVuSans-73"/>
     <use x="662.011719" xlink:href="#DejaVuSans-20"/>
     <use x="693.798828" xlink:href="#DejaVuSans-74"/>
     <use x="733.007812" xlink:href="#DejaVuSans-68"/>
     <use x="796.386719" xlink:href="#DejaVuSans-72"/>
     <use x="835.25" xlink:href="#DejaVuSans-6f"/>
     <use x="896.431641" xlink:href="#DejaVuSans-75"/>
     <use x="959.810547" xlink:href="#DejaVuSans-67"/>
     <use x="1023.287109" xlink:href="#DejaVuSans-68"/>
     <use x="1086.666016" xlink:href="#DejaVuSans-20"/>
     <use x="1118.453125" xlink:href="#DejaVuSans-74"/>
     <use x="1157.662109" xlink:href="#DejaVuSans-69"/>
     <use x="1185.445312" xlink:href="#DejaVuSans-6d"/>
     <use x="1282.857422" xlink:href="#DejaVuSans-65"/>
     <use x="1344.380859" xlink:href="#DejaVuSans-20"/>
     <use x="1376.167969" xlink:href="#DejaVuSans-76"/>
     <use x="1435.347656" xlink:href="#DejaVuSans-73"/>
     <use x="1487.447266" xlink:href="#DejaVuSans-20"/>
     <use x="1519.234375" xlink:href="#DejaVuSans-74"/>
     <use x="1558.443359" xlink:href="#DejaVuSans-72"/>
     <use x="1599.556641" xlink:href="#DejaVuSans-75"/>
     <use x="1662.935547" xlink:href="#DejaVuSans-65"/>
     <use x="1724.458984" xlink:href="#DejaVuSans-20"/>
     <use x="1756.246094" xlink:href="#DejaVuSans-76"/>
     <use x="1815.425781" xlink:href="#DejaVuSans-61"/>
     <use x="1876.705078" xlink:href="#DejaVuSans-6c"/>
     <use x="1904.488281" xlink:href="#DejaVuSans-75"/>
     <use x="1967.867188" xlink:href="#DejaVuSans-65"/>
     <use x="2029.390625" xlink:href="#DejaVuSans-73"/>
    </g>
   </g>
   <g id="legend_1">
    <g id="patch_7">
     <path d="M 784.6 329.075312 
L 837.60625 329.075312 
Q 839.60625 329.075312 839.60625 327.075312 
L 839.60625 254.684687 
Q 839.60625 252.684687 837.60625 252.684687 
L 784.6 252.684687 
Q 782.6 252.684687 782.6 254.684687 
L 782.6 327.075312 
Q 782.6 329.075312 784.6 329.075312 
z
" style="fill:#ffffff;opacity:0.8;stroke:#cccccc;stroke-linejoin:miter;"/>
    </g>
    <g id="line2d_42">
     <path d="M 786.6 260.783125 
L 806.6 260.783125 
" style="fill:none;stroke:#1f77b4;stroke-linecap:square;stroke-width:1.5;"/>
    </g>
    <g id="line2d_43"/>
    <g id="text_12">
     <!-- V(1) -->
     <g transform="translate(814.6 264.283125)scale(0.1 -0.1)">
      <defs>
       <path d="M 1984 4856 
Q 1566 4138 1362 3434 
Q 1159 2731 1159 2009 
Q 1159 1288 1364 580 
Q 1569 -128 1984 -844 
L 1484 -844 
Q 1016 -109 783 600 
Q 550 1309 550 2009 
Q 550 2706 781 3412 
Q 1013 4119 1484 4856 
L 1984 4856 
z
" id="DejaVuSans-28" transform="scale(0.015625)"/>
       <path d="M 513 4856 
L 1013 4856 
Q 1481 4119 1714 3412 
Q 1947 2706 1947 2009 
Q 1947 1309 1714 600 
Q 1481 -109 1013 -844 
L 513 -844 
Q 928 -128 1133 580 
Q 1338 1288 1338 2009 
Q 1338 2731 1133 3434 
Q 928 4138 513 4856 
z
" id="DejaVuSans-29" transform="scale(0.015625)"/>
      </defs>
      <use xlink:href="#DejaVuSans-56"/>
      <use x="68.408203" xlink:href="#DejaVuSans-28"/>
      <use x="107.421875" xlink:href="#DejaVuSans-31"/>
      <use x="171.044922" xlink:href="#DejaVuSans-29"/>
     </g>
    </g>
    <g id="line2d_44">
     <path d="M 786.6 275.46125 
L 806.6 275.46125 
" style="fill:none;stroke:#ff7f0e;stroke-linecap:square;stroke-width:1.5;"/>
    </g>
    <g id="line2d_45"/>
    <g id="text_13">
     <!-- V(2) -->
     <g transform="translate(814.6 278.96125)scale(0.1 -0.1)">
      <use xlink:href="#DejaVuSans-56"/>
      <use x="68.408203" xlink:href="#DejaVuSans-28"/>
      <use x="107.421875" xlink:href="#DejaVuSans-32"/>
      <use x="171.044922" xlink:href="#DejaVuSans-29"/>
     </g>
    </g>
    <g id="line2d_46">
     <path d="M 786.6 290.139375 
L 806.6 290.139375 
" style="fill:none;stroke:#2ca02c;stroke-linecap:square;stroke-width:1.5;"/>
    </g>
    <g id="line2d_47"/>
    <g id="text_14">
     <!-- V(3) -->
     <g transform="translate(814.6 293.639375)scale(0.1 -0.1)">
      <defs>
       <path d="M 2597 2516 
Q 3050 2419 3304 2112 
Q 3559 1806 3559 1356 
Q 3559 666 3084 287 
Q 2609 -91 1734 -91 
Q 1441 -91 1130 -33 
Q 819 25 488 141 
L 488 750 
Q 750 597 1062 519 
Q 1375 441 1716 441 
Q 2309 441 2620 675 
Q 2931 909 2931 1356 
Q 2931 1769 2642 2001 
Q 2353 2234 1838 2234 
L 1294 2234 
L 1294 2753 
L 1863 2753 
Q 2328 2753 2575 2939 
Q 2822 3125 2822 3475 
Q 2822 3834 2567 4026 
Q 2313 4219 1838 4219 
Q 1578 4219 1281 4162 
Q 984 4106 628 3988 
L 628 4550 
Q 988 4650 1302 4700 
Q 1616 4750 1894 4750 
Q 2613 4750 3031 4423 
Q 3450 4097 3450 3541 
Q 3450 3153 3228 2886 
Q 3006 2619 2597 2516 
z
" id="DejaVuSans-33" transform="scale(0.015625)"/>
      </defs>
      <use xlink:href="#DejaVuSans-56"/>
      <use x="68.408203" xlink:href="#DejaVuSans-28"/>
      <use x="107.421875" xlink:href="#DejaVuSans-33"/>
      <use x="171.044922" xlink:href="#DejaVuSans-29"/>
     </g>
    </g>
    <g id="line2d_48">
     <path d="M 786.6 304.8175 
L 806.6 304.8175 
" style="fill:none;stroke:#d62728;stroke-linecap:square;stroke-width:1.5;"/>
    </g>
    <g id="line2d_49"/>
    <g id="text_15">
     <!-- V(4) -->
     <g transform="translate(814.6 308.3175)scale(0.1 -0.1)">
      <use xlink:href="#DejaVuSans-56"/>
      <use x="68.408203" xlink:href="#DejaVuSans-28"/>
      <use x="107.421875" xlink:href="#DejaVuSans-34"/>
      <use x="171.044922" xlink:href="#DejaVuSans-29"/>
     </g>
    </g>
    <g id="line2d_50">
     <path d="M 786.6 319.495625 
L 806.6 319.495625 
" style="fill:none;stroke:#9467bd;stroke-linecap:square;stroke-width:1.5;"/>
    </g>
    <g id="line2d_51"/>
    <g id="text_16">
     <!-- V(5) -->
     <g transform="translate(814.6 322.995625)scale(0.1 -0.1)">
      <defs>
       <path d="M 691 4666 
L 3169 4666 
L 3169 4134 
L 1269 4134 
L 1269 2991 
Q 1406 3038 1543 3061 
Q 1681 3084 1819 3084 
Q 2600 3084 3056 2656 
Q 3513 2228 3513 1497 
Q 3513 744 3044 326 
Q 2575 -91 1722 -91 
Q 1428 -91 1123 -41 
Q 819 9 494 109 
L 494 744 
Q 775 591 1075 516 
Q 1375 441 1709 441 
Q 2250 441 2565 725 
Q 2881 1009 2881 1497 
Q 2881 1984 2565 2268 
Q 2250 2553 1709 2553 
Q 1456 2553 1204 2497 
Q 953 2441 691 2322 
L 691 4666 
z
" id="DejaVuSans-35" transform="scale(0.015625)"/>
      </defs>
      <use xlink:href="#DejaVuSans-56"/>
      <use x="68.408203" xlink:href="#DejaVuSans-28"/>
      <use x="107.421875" xlink:href="#DejaVuSans-35"/>
      <use x="171.044922" xlink:href="#DejaVuSans-29"/>
     </g>
    </g>
   </g>
  </g>
 </g>
 <defs>
  <clipPath id="p6b5a373145">
   <rect height="443.52" width="669.6" x="108" y="69.12"/>
  </clipPath>
 </defs>
</svg>
