<?xml version="1.0" encoding="utf-8" standalone="no"?>
<!DOCTYPE svg PUBLIC "-//W3C//DTD SVG 1.1//EN"
  "http://www.w3.org/Graphics/SVG/1.1/DTD/svg11.dtd">
<svg height="576pt" version="1.1" viewBox="0 0 864 576" width="864pt" xmlns="http://www.w3.org/2000/svg" xmlns:xlink="http://www.w3.org/1999/xlink">
 <metadata>
  <rdf:RDF xmlns:cc="http://creativecommons.org/ns#" xmlns:dc="http://purl.org/dc/elements/1.1/" xmlns:rdf="http://www.w3.org/1999/02/22-rdf-syntax-ns#">
   <cc:Work>
    <dc:type rdf:resource="http://purl.org/dc/dcmitype/StillImage"/>
    <dc:date>2021-09-11T10:16:26.872487</dc:date>
    <dc:format>image/svg+xml</dc:format>
    <dc:creator>
     <cc:Agent>
      <dc:title>Matplotlib v3.4.3, https://matplotlib.org/</dc:title>
     </cc:Agent>
    </dc:creator>
   </cc:Work>
  </rdf:RDF>
 </metadata>
 <defs>
  <style type="text/css">*{stroke-linecap:butt;stroke-linejoin:round;}</style>
 </defs>
 <g id="figure_1">
  <g id="patch_1">
   <path d="M 0 576 
L 864 576 
L 864 0 
L 0 0 
z
" style="fill:#ffffff;"/>
  </g>
  <g id="axes_1">
   <g id="patch_2">
    <path d="M 108 512.64 
L 710.64 512.64 
L 710.64 69.12 
L 108 69.12 
z
" style="fill:#ffffff;"/>
   </g>
   <g id="matplotlib.axis_1">
    <g id="xtick_1">
     <g id="line2d_1">
      <defs>
       <path d="M 0 0 
L 0 3.5 
" id="m421526dd7f" style="stroke:#000000;stroke-width:0.8;"/>
      </defs>
      <g>
       <use style="stroke:#000000;stroke-width:0.8;" x="135.392727" xlink:href="#m421526dd7f" y="512.64"/>
      </g>
     </g>
     <g id="text_1">
      <!-- 0 -->
      <g transform="translate(130.938977 530.277812)scale(0.14 -0.14)">
       <defs>
        <path d="M 2034 4250 
Q 1547 4250 1301 3770 
Q 1056 3291 1056 2328 
Q 1056 1369 1301 889 
Q 1547 409 2034 409 
Q 2525 409 2770 889 
Q 3016 1369 3016 2328 
Q 3016 3291 2770 3770 
Q 2525 4250 2034 4250 
z
M 2034 4750 
Q 2819 4750 3233 4129 
Q 3647 3509 3647 2328 
Q 3647 1150 3233 529 
Q 2819 -91 2034 -91 
Q 1250 -91 836 529 
Q 422 1150 422 2328 
Q 422 3509 836 4129 
Q 1250 4750 2034 4750 
z
" id="DejaVuSans-30" transform="scale(0.015625)"/>
       </defs>
       <use xlink:href="#DejaVuSans-30"/>
      </g>
     </g>
    </g>
    <g id="xtick_2">
     <g id="line2d_2">
      <g>
       <use style="stroke:#000000;stroke-width:0.8;" x="245.183217" xlink:href="#m421526dd7f" y="512.64"/>
      </g>
     </g>
     <g id="text_2">
      <!-- 100 -->
      <g transform="translate(231.821967 530.277812)scale(0.14 -0.14)">
       <defs>
        <path d="M 794 531 
L 1825 531 
L 1825 4091 
L 703 3866 
L 703 4441 
L 1819 4666 
L 2450 4666 
L 2450 531 
L 3481 531 
L 3481 0 
L 794 0 
L 794 531 
z
" id="DejaVuSans-31" transform="scale(0.015625)"/>
       </defs>
       <use xlink:href="#DejaVuSans-31"/>
       <use x="63.623047" xlink:href="#DejaVuSans-30"/>
       <use x="127.246094" xlink:href="#DejaVuSans-30"/>
      </g>
     </g>
    </g>
    <g id="xtick_3">
     <g id="line2d_3">
      <g>
       <use style="stroke:#000000;stroke-width:0.8;" x="354.973707" xlink:href="#m421526dd7f" y="512.64"/>
      </g>
     </g>
     <g id="text_3">
      <!-- 200 -->
      <g transform="translate(341.612457 530.277812)scale(0.14 -0.14)">
       <defs>
        <path d="M 1228 531 
L 3431 531 
L 3431 0 
L 469 0 
L 469 531 
Q 828 903 1448 1529 
Q 2069 2156 2228 2338 
Q 2531 2678 2651 2914 
Q 2772 3150 2772 3378 
Q 2772 3750 2511 3984 
Q 2250 4219 1831 4219 
Q 1534 4219 1204 4116 
Q 875 4013 500 3803 
L 500 4441 
Q 881 4594 1212 4672 
Q 1544 4750 1819 4750 
Q 2544 4750 2975 4387 
Q 3406 4025 3406 3419 
Q 3406 3131 3298 2873 
Q 3191 2616 2906 2266 
Q 2828 2175 2409 1742 
Q 1991 1309 1228 531 
z
" id="DejaVuSans-32" transform="scale(0.015625)"/>
       </defs>
       <use xlink:href="#DejaVuSans-32"/>
       <use x="63.623047" xlink:href="#DejaVuSans-30"/>
       <use x="127.246094" xlink:href="#DejaVuSans-30"/>
      </g>
     </g>
    </g>
    <g id="xtick_4">
     <g id="line2d_4">
      <g>
       <use style="stroke:#000000;stroke-width:0.8;" x="464.764197" xlink:href="#m421526dd7f" y="512.64"/>
      </g>
     </g>
     <g id="text_4">
      <!-- 300 -->
      <g transform="translate(451.402947 530.277812)scale(0.14 -0.14)">
       <defs>
        <path d="M 2597 2516 
Q 3050 2419 3304 2112 
Q 3559 1806 3559 1356 
Q 3559 666 3084 287 
Q 2609 -91 1734 -91 
Q 1441 -91 1130 -33 
Q 819 25 488 141 
L 488 750 
Q 750 597 1062 519 
Q 1375 441 1716 441 
Q 2309 441 2620 675 
Q 2931 909 2931 1356 
Q 2931 1769 2642 2001 
Q 2353 2234 1838 2234 
L 1294 2234 
L 1294 2753 
L 1863 2753 
Q 2328 2753 2575 2939 
Q 2822 3125 2822 3475 
Q 2822 3834 2567 4026 
Q 2313 4219 1838 4219 
Q 1578 4219 1281 4162 
Q 984 4106 628 3988 
L 628 4550 
Q 988 4650 1302 4700 
Q 1616 4750 1894 4750 
Q 2613 4750 3031 4423 
Q 3450 4097 3450 3541 
Q 3450 3153 3228 2886 
Q 3006 2619 2597 2516 
z
" id="DejaVuSans-33" transform="scale(0.015625)"/>
       </defs>
       <use xlink:href="#DejaVuSans-33"/>
       <use x="63.623047" xlink:href="#DejaVuSans-30"/>
       <use x="127.246094" xlink:href="#DejaVuSans-30"/>
      </g>
     </g>
    </g>
    <g id="xtick_5">
     <g id="line2d_5">
      <g>
       <use style="stroke:#000000;stroke-width:0.8;" x="574.554688" xlink:href="#m421526dd7f" y="512.64"/>
      </g>
     </g>
     <g id="text_5">
      <!-- 400 -->
      <g transform="translate(561.193438 530.277812)scale(0.14 -0.14)">
       <defs>
        <path d="M 2419 4116 
L 825 1625 
L 2419 1625 
L 2419 4116 
z
M 2253 4666 
L 3047 4666 
L 3047 1625 
L 3713 1625 
L 3713 1100 
L 3047 1100 
L 3047 0 
L 2419 0 
L 2419 1100 
L 313 1100 
L 313 1709 
L 2253 4666 
z
" id="DejaVuSans-34" transform="scale(0.015625)"/>
       </defs>
       <use xlink:href="#DejaVuSans-34"/>
       <use x="63.623047" xlink:href="#DejaVuSans-30"/>
       <use x="127.246094" xlink:href="#DejaVuSans-30"/>
      </g>
     </g>
    </g>
    <g id="xtick_6">
     <g id="line2d_6">
      <g>
       <use style="stroke:#000000;stroke-width:0.8;" x="684.345178" xlink:href="#m421526dd7f" y="512.64"/>
      </g>
     </g>
     <g id="text_6">
      <!-- 500 -->
      <g transform="translate(670.983928 530.277812)scale(0.14 -0.14)">
       <defs>
        <path d="M 691 4666 
L 3169 4666 
L 3169 4134 
L 1269 4134 
L 1269 2991 
Q 1406 3038 1543 3061 
Q 1681 3084 1819 3084 
Q 2600 3084 3056 2656 
Q 3513 2228 3513 1497 
Q 3513 744 3044 326 
Q 2575 -91 1722 -91 
Q 1428 -91 1123 -41 
Q 819 9 494 109 
L 494 744 
Q 775 591 1075 516 
Q 1375 441 1709 441 
Q 2250 441 2565 725 
Q 2881 1009 2881 1497 
Q 2881 1984 2565 2268 
Q 2250 2553 1709 2553 
Q 1456 2553 1204 2497 
Q 953 2441 691 2322 
L 691 4666 
z
" id="DejaVuSans-35" transform="scale(0.015625)"/>
       </defs>
       <use xlink:href="#DejaVuSans-35"/>
       <use x="63.623047" xlink:href="#DejaVuSans-30"/>
       <use x="127.246094" xlink:href="#DejaVuSans-30"/>
      </g>
     </g>
    </g>
    <g id="text_7">
     <!-- Episodes -->
     <g transform="translate(378.180937 547.827188)scale(0.14 -0.14)">
      <defs>
       <path d="M 628 4666 
L 3578 4666 
L 3578 4134 
L 1259 4134 
L 1259 2753 
L 3481 2753 
L 3481 2222 
L 1259 2222 
L 1259 531 
L 3634 531 
L 3634 0 
L 628 0 
L 628 4666 
z
" id="DejaVuSans-45" transform="scale(0.015625)"/>
       <path d="M 1159 525 
L 1159 -1331 
L 581 -1331 
L 581 3500 
L 1159 3500 
L 1159 2969 
Q 1341 3281 1617 3432 
Q 1894 3584 2278 3584 
Q 2916 3584 3314 3078 
Q 3713 2572 3713 1747 
Q 3713 922 3314 415 
Q 2916 -91 2278 -91 
Q 1894 -91 1617 61 
Q 1341 213 1159 525 
z
M 3116 1747 
Q 3116 2381 2855 2742 
Q 2594 3103 2138 3103 
Q 1681 3103 1420 2742 
Q 1159 2381 1159 1747 
Q 1159 1113 1420 752 
Q 1681 391 2138 391 
Q 2594 391 2855 752 
Q 3116 1113 3116 1747 
z
" id="DejaVuSans-70" transform="scale(0.015625)"/>
       <path d="M 603 3500 
L 1178 3500 
L 1178 0 
L 603 0 
L 603 3500 
z
M 603 4863 
L 1178 4863 
L 1178 4134 
L 603 4134 
L 603 4863 
z
" id="DejaVuSans-69" transform="scale(0.015625)"/>
       <path d="M 2834 3397 
L 2834 2853 
Q 2591 2978 2328 3040 
Q 2066 3103 1784 3103 
Q 1356 3103 1142 2972 
Q 928 2841 928 2578 
Q 928 2378 1081 2264 
Q 1234 2150 1697 2047 
L 1894 2003 
Q 2506 1872 2764 1633 
Q 3022 1394 3022 966 
Q 3022 478 2636 193 
Q 2250 -91 1575 -91 
Q 1294 -91 989 -36 
Q 684 19 347 128 
L 347 722 
Q 666 556 975 473 
Q 1284 391 1588 391 
Q 1994 391 2212 530 
Q 2431 669 2431 922 
Q 2431 1156 2273 1281 
Q 2116 1406 1581 1522 
L 1381 1569 
Q 847 1681 609 1914 
Q 372 2147 372 2553 
Q 372 3047 722 3315 
Q 1072 3584 1716 3584 
Q 2034 3584 2315 3537 
Q 2597 3491 2834 3397 
z
" id="DejaVuSans-73" transform="scale(0.015625)"/>
       <path d="M 1959 3097 
Q 1497 3097 1228 2736 
Q 959 2375 959 1747 
Q 959 1119 1226 758 
Q 1494 397 1959 397 
Q 2419 397 2687 759 
Q 2956 1122 2956 1747 
Q 2956 2369 2687 2733 
Q 2419 3097 1959 3097 
z
M 1959 3584 
Q 2709 3584 3137 3096 
Q 3566 2609 3566 1747 
Q 3566 888 3137 398 
Q 2709 -91 1959 -91 
Q 1206 -91 779 398 
Q 353 888 353 1747 
Q 353 2609 779 3096 
Q 1206 3584 1959 3584 
z
" id="DejaVuSans-6f" transform="scale(0.015625)"/>
       <path d="M 2906 2969 
L 2906 4863 
L 3481 4863 
L 3481 0 
L 2906 0 
L 2906 525 
Q 2725 213 2448 61 
Q 2172 -91 1784 -91 
Q 1150 -91 751 415 
Q 353 922 353 1747 
Q 353 2572 751 3078 
Q 1150 3584 1784 3584 
Q 2172 3584 2448 3432 
Q 2725 3281 2906 2969 
z
M 947 1747 
Q 947 1113 1208 752 
Q 1469 391 1925 391 
Q 2381 391 2643 752 
Q 2906 1113 2906 1747 
Q 2906 2381 2643 2742 
Q 2381 3103 1925 3103 
Q 1469 3103 1208 2742 
Q 947 2381 947 1747 
z
" id="DejaVuSans-64" transform="scale(0.015625)"/>
       <path d="M 3597 1894 
L 3597 1613 
L 953 1613 
Q 991 1019 1311 708 
Q 1631 397 2203 397 
Q 2534 397 2845 478 
Q 3156 559 3463 722 
L 3463 178 
Q 3153 47 2828 -22 
Q 2503 -91 2169 -91 
Q 1331 -91 842 396 
Q 353 884 353 1716 
Q 353 2575 817 3079 
Q 1281 3584 2069 3584 
Q 2775 3584 3186 3129 
Q 3597 2675 3597 1894 
z
M 3022 2063 
Q 3016 2534 2758 2815 
Q 2500 3097 2075 3097 
Q 1594 3097 1305 2825 
Q 1016 2553 972 2059 
L 3022 2063 
z
" id="DejaVuSans-65" transform="scale(0.015625)"/>
      </defs>
      <use xlink:href="#DejaVuSans-45"/>
      <use x="63.183594" xlink:href="#DejaVuSans-70"/>
      <use x="126.660156" xlink:href="#DejaVuSans-69"/>
      <use x="154.443359" xlink:href="#DejaVuSans-73"/>
      <use x="206.542969" xlink:href="#DejaVuSans-6f"/>
      <use x="267.724609" xlink:href="#DejaVuSans-64"/>
      <use x="331.201172" xlink:href="#DejaVuSans-65"/>
      <use x="392.724609" xlink:href="#DejaVuSans-73"/>
     </g>
    </g>
   </g>
   <g id="matplotlib.axis_2">
    <g id="ytick_1">
     <g id="line2d_7">
      <defs>
       <path d="M 0 0 
L -3.5 0 
" id="m75b2218aee" style="stroke:#000000;stroke-width:0.8;"/>
      </defs>
      <g>
       <use style="stroke:#000000;stroke-width:0.8;" x="108" xlink:href="#m75b2218aee" y="492.48"/>
      </g>
     </g>
     <g id="text_8">
      <!-- 0.0 -->
      <g transform="translate(78.735625 497.798906)scale(0.14 -0.14)">
       <defs>
        <path d="M 684 794 
L 1344 794 
L 1344 0 
L 684 0 
L 684 794 
z
" id="DejaVuSans-2e" transform="scale(0.015625)"/>
       </defs>
       <use xlink:href="#DejaVuSans-30"/>
       <use x="63.623047" xlink:href="#DejaVuSans-2e"/>
       <use x="95.410156" xlink:href="#DejaVuSans-30"/>
      </g>
     </g>
    </g>
    <g id="ytick_2">
     <g id="line2d_8">
      <g>
       <use style="stroke:#000000;stroke-width:0.8;" x="108" xlink:href="#m75b2218aee" y="398.569706"/>
      </g>
     </g>
     <g id="text_9">
      <!-- 0.2 -->
      <g transform="translate(78.735625 403.888612)scale(0.14 -0.14)">
       <use xlink:href="#DejaVuSans-30"/>
       <use x="63.623047" xlink:href="#DejaVuSans-2e"/>
       <use x="95.410156" xlink:href="#DejaVuSans-32"/>
      </g>
     </g>
    </g>
    <g id="ytick_3">
     <g id="line2d_9">
      <g>
       <use style="stroke:#000000;stroke-width:0.8;" x="108" xlink:href="#m75b2218aee" y="304.659412"/>
      </g>
     </g>
     <g id="text_10">
      <!-- 0.4 -->
      <g transform="translate(78.735625 309.978318)scale(0.14 -0.14)">
       <use xlink:href="#DejaVuSans-30"/>
       <use x="63.623047" xlink:href="#DejaVuSans-2e"/>
       <use x="95.410156" xlink:href="#DejaVuSans-34"/>
      </g>
     </g>
    </g>
    <g id="ytick_4">
     <g id="line2d_10">
      <g>
       <use style="stroke:#000000;stroke-width:0.8;" x="108" xlink:href="#m75b2218aee" y="210.749117"/>
      </g>
     </g>
     <g id="text_11">
      <!-- 0.6 -->
      <g transform="translate(78.735625 216.068024)scale(0.14 -0.14)">
       <defs>
        <path d="M 2113 2584 
Q 1688 2584 1439 2293 
Q 1191 2003 1191 1497 
Q 1191 994 1439 701 
Q 1688 409 2113 409 
Q 2538 409 2786 701 
Q 3034 994 3034 1497 
Q 3034 2003 2786 2293 
Q 2538 2584 2113 2584 
z
M 3366 4563 
L 3366 3988 
Q 3128 4100 2886 4159 
Q 2644 4219 2406 4219 
Q 1781 4219 1451 3797 
Q 1122 3375 1075 2522 
Q 1259 2794 1537 2939 
Q 1816 3084 2150 3084 
Q 2853 3084 3261 2657 
Q 3669 2231 3669 1497 
Q 3669 778 3244 343 
Q 2819 -91 2113 -91 
Q 1303 -91 875 529 
Q 447 1150 447 2328 
Q 447 3434 972 4092 
Q 1497 4750 2381 4750 
Q 2619 4750 2861 4703 
Q 3103 4656 3366 4563 
z
" id="DejaVuSans-36" transform="scale(0.015625)"/>
       </defs>
       <use xlink:href="#DejaVuSans-30"/>
       <use x="63.623047" xlink:href="#DejaVuSans-2e"/>
       <use x="95.410156" xlink:href="#DejaVuSans-36"/>
      </g>
     </g>
    </g>
    <g id="ytick_5">
     <g id="line2d_11">
      <g>
       <use style="stroke:#000000;stroke-width:0.8;" x="108" xlink:href="#m75b2218aee" y="116.838823"/>
      </g>
     </g>
     <g id="text_12">
      <!-- 0.8 -->
      <g transform="translate(78.735625 122.157729)scale(0.14 -0.14)">
       <defs>
        <path d="M 2034 2216 
Q 1584 2216 1326 1975 
Q 1069 1734 1069 1313 
Q 1069 891 1326 650 
Q 1584 409 2034 409 
Q 2484 409 2743 651 
Q 3003 894 3003 1313 
Q 3003 1734 2745 1975 
Q 2488 2216 2034 2216 
z
M 1403 2484 
Q 997 2584 770 2862 
Q 544 3141 544 3541 
Q 544 4100 942 4425 
Q 1341 4750 2034 4750 
Q 2731 4750 3128 4425 
Q 3525 4100 3525 3541 
Q 3525 3141 3298 2862 
Q 3072 2584 2669 2484 
Q 3125 2378 3379 2068 
Q 3634 1759 3634 1313 
Q 3634 634 3220 271 
Q 2806 -91 2034 -91 
Q 1263 -91 848 271 
Q 434 634 434 1313 
Q 434 1759 690 2068 
Q 947 2378 1403 2484 
z
M 1172 3481 
Q 1172 3119 1398 2916 
Q 1625 2713 2034 2713 
Q 2441 2713 2670 2916 
Q 2900 3119 2900 3481 
Q 2900 3844 2670 4047 
Q 2441 4250 2034 4250 
Q 1625 4250 1398 4047 
Q 1172 3844 1172 3481 
z
" id="DejaVuSans-38" transform="scale(0.015625)"/>
       </defs>
       <use xlink:href="#DejaVuSans-30"/>
       <use x="63.623047" xlink:href="#DejaVuSans-2e"/>
       <use x="95.410156" xlink:href="#DejaVuSans-38"/>
      </g>
     </g>
    </g>
    <g id="text_13">
     <!-- State-Value Function -->
     <g transform="translate(71.824062 362.742656)rotate(-90)scale(0.14 -0.14)">
      <defs>
       <path d="M 3425 4513 
L 3425 3897 
Q 3066 4069 2747 4153 
Q 2428 4238 2131 4238 
Q 1616 4238 1336 4038 
Q 1056 3838 1056 3469 
Q 1056 3159 1242 3001 
Q 1428 2844 1947 2747 
L 2328 2669 
Q 3034 2534 3370 2195 
Q 3706 1856 3706 1288 
Q 3706 609 3251 259 
Q 2797 -91 1919 -91 
Q 1588 -91 1214 -16 
Q 841 59 441 206 
L 441 856 
Q 825 641 1194 531 
Q 1563 422 1919 422 
Q 2459 422 2753 634 
Q 3047 847 3047 1241 
Q 3047 1584 2836 1778 
Q 2625 1972 2144 2069 
L 1759 2144 
Q 1053 2284 737 2584 
Q 422 2884 422 3419 
Q 422 4038 858 4394 
Q 1294 4750 2059 4750 
Q 2388 4750 2728 4690 
Q 3069 4631 3425 4513 
z
" id="DejaVuSans-53" transform="scale(0.015625)"/>
       <path d="M 1172 4494 
L 1172 3500 
L 2356 3500 
L 2356 3053 
L 1172 3053 
L 1172 1153 
Q 1172 725 1289 603 
Q 1406 481 1766 481 
L 2356 481 
L 2356 0 
L 1766 0 
Q 1100 0 847 248 
Q 594 497 594 1153 
L 594 3053 
L 172 3053 
L 172 3500 
L 594 3500 
L 594 4494 
L 1172 4494 
z
" id="DejaVuSans-74" transform="scale(0.015625)"/>
       <path d="M 2194 1759 
Q 1497 1759 1228 1600 
Q 959 1441 959 1056 
Q 959 750 1161 570 
Q 1363 391 1709 391 
Q 2188 391 2477 730 
Q 2766 1069 2766 1631 
L 2766 1759 
L 2194 1759 
z
M 3341 1997 
L 3341 0 
L 2766 0 
L 2766 531 
Q 2569 213 2275 61 
Q 1981 -91 1556 -91 
Q 1019 -91 701 211 
Q 384 513 384 1019 
Q 384 1609 779 1909 
Q 1175 2209 1959 2209 
L 2766 2209 
L 2766 2266 
Q 2766 2663 2505 2880 
Q 2244 3097 1772 3097 
Q 1472 3097 1187 3025 
Q 903 2953 641 2809 
L 641 3341 
Q 956 3463 1253 3523 
Q 1550 3584 1831 3584 
Q 2591 3584 2966 3190 
Q 3341 2797 3341 1997 
z
" id="DejaVuSans-61" transform="scale(0.015625)"/>
       <path d="M 313 2009 
L 1997 2009 
L 1997 1497 
L 313 1497 
L 313 2009 
z
" id="DejaVuSans-2d" transform="scale(0.015625)"/>
       <path d="M 1831 0 
L 50 4666 
L 709 4666 
L 2188 738 
L 3669 4666 
L 4325 4666 
L 2547 0 
L 1831 0 
z
" id="DejaVuSans-56" transform="scale(0.015625)"/>
       <path d="M 603 4863 
L 1178 4863 
L 1178 0 
L 603 0 
L 603 4863 
z
" id="DejaVuSans-6c" transform="scale(0.015625)"/>
       <path d="M 544 1381 
L 544 3500 
L 1119 3500 
L 1119 1403 
Q 1119 906 1312 657 
Q 1506 409 1894 409 
Q 2359 409 2629 706 
Q 2900 1003 2900 1516 
L 2900 3500 
L 3475 3500 
L 3475 0 
L 2900 0 
L 2900 538 
Q 2691 219 2414 64 
Q 2138 -91 1772 -91 
Q 1169 -91 856 284 
Q 544 659 544 1381 
z
M 1991 3584 
L 1991 3584 
z
" id="DejaVuSans-75" transform="scale(0.015625)"/>
       <path id="DejaVuSans-20" transform="scale(0.015625)"/>
       <path d="M 628 4666 
L 3309 4666 
L 3309 4134 
L 1259 4134 
L 1259 2759 
L 3109 2759 
L 3109 2228 
L 1259 2228 
L 1259 0 
L 628 0 
L 628 4666 
z
" id="DejaVuSans-46" transform="scale(0.015625)"/>
       <path d="M 3513 2113 
L 3513 0 
L 2938 0 
L 2938 2094 
Q 2938 2591 2744 2837 
Q 2550 3084 2163 3084 
Q 1697 3084 1428 2787 
Q 1159 2491 1159 1978 
L 1159 0 
L 581 0 
L 581 3500 
L 1159 3500 
L 1159 2956 
Q 1366 3272 1645 3428 
Q 1925 3584 2291 3584 
Q 2894 3584 3203 3211 
Q 3513 2838 3513 2113 
z
" id="DejaVuSans-6e" transform="scale(0.015625)"/>
       <path d="M 3122 3366 
L 3122 2828 
Q 2878 2963 2633 3030 
Q 2388 3097 2138 3097 
Q 1578 3097 1268 2742 
Q 959 2388 959 1747 
Q 959 1106 1268 751 
Q 1578 397 2138 397 
Q 2388 397 2633 464 
Q 2878 531 3122 666 
L 3122 134 
Q 2881 22 2623 -34 
Q 2366 -91 2075 -91 
Q 1284 -91 818 406 
Q 353 903 353 1747 
Q 353 2603 823 3093 
Q 1294 3584 2113 3584 
Q 2378 3584 2631 3529 
Q 2884 3475 3122 3366 
z
" id="DejaVuSans-63" transform="scale(0.015625)"/>
      </defs>
      <use xlink:href="#DejaVuSans-53"/>
      <use x="63.476562" xlink:href="#DejaVuSans-74"/>
      <use x="102.685547" xlink:href="#DejaVuSans-61"/>
      <use x="163.964844" xlink:href="#DejaVuSans-74"/>
      <use x="203.173828" xlink:href="#DejaVuSans-65"/>
      <use x="264.697266" xlink:href="#DejaVuSans-2d"/>
      <use x="294.90625" xlink:href="#DejaVuSans-56"/>
      <use x="355.564453" xlink:href="#DejaVuSans-61"/>
      <use x="416.84375" xlink:href="#DejaVuSans-6c"/>
      <use x="444.626953" xlink:href="#DejaVuSans-75"/>
      <use x="508.005859" xlink:href="#DejaVuSans-65"/>
      <use x="569.529297" xlink:href="#DejaVuSans-20"/>
      <use x="601.316406" xlink:href="#DejaVuSans-46"/>
      <use x="653.335938" xlink:href="#DejaVuSans-75"/>
      <use x="716.714844" xlink:href="#DejaVuSans-6e"/>
      <use x="780.09375" xlink:href="#DejaVuSans-63"/>
      <use x="835.074219" xlink:href="#DejaVuSans-74"/>
      <use x="874.283203" xlink:href="#DejaVuSans-69"/>
      <use x="902.066406" xlink:href="#DejaVuSans-6f"/>
      <use x="963.248047" xlink:href="#DejaVuSans-6e"/>
     </g>
    </g>
   </g>
   <g id="line2d_12">
    <path clip-path="url(#p83bdcebc0c)" d="M 135.392727 492.48 
L 138.686442 492.477716 
L 139.784347 490.32028 
L 140.882252 489.288605 
L 141.980157 488.792972 
L 143.078062 488.1258 
L 144.175966 489.370541 
L 145.273871 488.200411 
L 146.371776 488.82731 
L 147.469681 487.759147 
L 148.567586 483.805251 
L 149.665491 478.953736 
L 150.763396 481.19092 
L 151.861301 480.015328 
L 152.959206 481.628947 
L 154.057111 481.615796 
L 157.350825 471.794533 
L 158.44873 471.799299 
L 159.546635 471.528458 
L 160.64454 473.258141 
L 161.742445 474.172469 
L 162.84035 475.682962 
L 163.938255 475.325054 
L 165.03616 472.262664 
L 166.134064 468.792807 
L 167.231969 469.567113 
L 168.329874 463.703184 
L 169.427779 466.725501 
L 170.525684 466.714957 
L 171.623589 468.119122 
L 172.721494 465.17582 
L 173.819399 466.344037 
L 174.917304 466.745088 
L 176.015209 466.004482 
L 177.113113 468.286758 
L 178.211018 467.037918 
L 179.308923 466.183671 
L 180.406828 459.531373 
L 181.504733 459.781478 
L 182.602638 460.349286 
L 183.700543 458.646108 
L 184.798448 459.697742 
L 185.896353 459.454839 
L 186.994258 459.987511 
L 189.190067 458.945192 
L 190.287972 455.378094 
L 191.385877 458.844538 
L 192.483782 457.973085 
L 193.581687 459.512903 
L 194.679592 458.642794 
L 195.777497 459.535757 
L 196.875402 460.17691 
L 197.973307 456.964579 
L 199.071212 457.488552 
L 201.267021 450.168555 
L 202.364926 450.728902 
L 203.462831 451.051774 
L 204.560736 450.807242 
L 205.658641 451.785038 
L 206.756546 451.494012 
L 207.854451 451.708055 
L 208.952356 447.616057 
L 211.148165 443.536818 
L 212.24607 445.244411 
L 213.343975 446.152693 
L 214.44188 446.707797 
L 215.539785 446.292868 
L 216.63769 446.92698 
L 218.8335 446.125884 
L 219.931405 444.47897 
L 221.02931 444.309495 
L 222.127214 444.46985 
L 223.225119 445.468328 
L 224.323024 446.629888 
L 225.420929 447.058981 
L 227.616739 442.972938 
L 228.714644 444.046796 
L 229.812549 444.58876 
L 230.910454 442.399581 
L 232.008359 439.155595 
L 233.106263 441.214442 
L 234.204168 441.2952 
L 235.302073 441.816364 
L 236.399978 442.17579 
L 237.497883 441.595136 
L 238.595788 439.650407 
L 239.693693 441.437831 
L 240.791598 441.43725 
L 241.889503 439.730649 
L 242.987408 437.449567 
L 244.085312 436.003547 
L 245.183217 435.989719 
L 246.281122 436.23083 
L 247.379027 434.58351 
L 248.476932 434.169564 
L 249.574837 436.596965 
L 250.672742 435.923507 
L 251.770647 436.490081 
L 252.868552 437.478505 
L 253.966457 437.046641 
L 255.064361 438.010999 
L 257.260171 436.798 
L 258.358076 436.473182 
L 259.455981 436.446124 
L 260.553886 437.644278 
L 261.651791 437.589968 
L 262.749696 437.028223 
L 263.847601 437.617765 
L 264.945506 438.391806 
L 266.04341 437.132997 
L 267.141315 436.408646 
L 268.23922 436.387398 
L 269.337125 435.623444 
L 270.43503 435.918731 
L 271.532935 436.456872 
L 272.63084 436.325495 
L 273.728745 437.156388 
L 274.82665 436.618632 
L 275.924555 436.222001 
L 277.022459 436.371657 
L 278.120364 435.897369 
L 279.218269 436.296274 
L 281.414079 436.581334 
L 283.609889 435.736137 
L 284.707794 435.853674 
L 285.805699 435.6371 
L 286.903604 435.974284 
L 288.001508 435.731796 
L 289.099413 435.670422 
L 291.295223 434.987118 
L 292.393128 434.443329 
L 293.491033 434.05347 
L 295.686843 434.474574 
L 296.784748 435.106808 
L 297.882653 434.322407 
L 298.980557 433.950456 
L 301.176367 434.155941 
L 303.372177 435.285349 
L 304.470082 434.906761 
L 305.567987 434.215097 
L 306.665892 433.886636 
L 307.763797 433.87096 
L 308.861702 434.193587 
L 309.959606 434.272442 
L 312.155416 435.15687 
L 313.253321 434.695748 
L 314.351226 433.950597 
L 315.449131 433.785938 
L 316.547036 433.914049 
L 317.644941 433.492467 
L 318.742846 433.356887 
L 319.840751 433.799442 
L 320.938655 433.590357 
L 322.03656 433.626159 
L 323.134465 432.867222 
L 324.23237 432.350796 
L 325.330275 432.285349 
L 326.42818 431.62306 
L 327.526085 431.638406 
L 328.62399 431.285905 
L 329.721895 431.708329 
L 333.015609 431.925978 
L 334.113514 431.689777 
L 335.211419 431.842322 
L 336.309324 431.878356 
L 337.407229 431.724295 
L 338.505134 431.956039 
L 339.603039 431.559243 
L 340.700944 431.614555 
L 341.798849 430.900862 
L 342.896754 431.328091 
L 343.994658 431.595723 
L 345.092563 431.727675 
L 346.190468 431.266368 
L 348.386278 431.524806 
L 349.484183 431.672632 
L 350.582088 431.647765 
L 351.679993 431.457731 
L 354.973707 431.617944 
L 356.071612 431.252867 
L 357.169517 431.047021 
L 359.365327 431.010256 
L 360.463232 430.722449 
L 361.561137 430.668648 
L 362.659042 430.444747 
L 363.756947 430.501991 
L 368.148566 429.900105 
L 369.246471 429.494135 
L 370.344376 429.671793 
L 371.442281 429.460837 
L 372.540186 429.563101 
L 373.638091 429.477098 
L 374.735996 429.60158 
L 376.931805 429.306783 
L 378.02971 429.399043 
L 379.127615 429.147227 
L 380.22552 429.025464 
L 381.323425 429.153182 
L 382.42133 428.912079 
L 383.519235 428.980757 
L 385.715045 428.854242 
L 387.910854 428.790476 
L 389.008759 429.012905 
L 390.106664 429.009912 
L 392.302474 429.159389 
L 405.477333 428.135338 
L 406.575238 428.133373 
L 407.673143 428.268389 
L 409.868952 428.070048 
L 412.064762 428.084326 
L 414.260572 427.948599 
L 416.456382 427.768902 
L 419.750097 427.584952 
L 421.945906 427.605662 
L 423.043811 427.626601 
L 424.141716 427.865441 
L 426.337526 427.940969 
L 428.533336 427.70355 
L 431.82705 427.98419 
L 432.924955 427.899567 
L 434.02286 427.974081 
L 438.41448 427.743343 
L 439.512385 427.865096 
L 441.708195 427.794925 
L 442.806099 427.797424 
L 443.904004 427.660752 
L 448.295624 427.610572 
L 450.491434 427.469825 
L 454.883053 427.82363 
L 455.980958 427.766785 
L 457.078863 427.552502 
L 459.274673 427.551224 
L 462.568388 427.672716 
L 469.155817 427.461065 
L 472.449532 427.805352 
L 474.645342 427.522623 
L 476.841151 427.326396 
L 477.939056 427.461289 
L 483.428581 427.472899 
L 487.8202 427.759129 
L 488.918105 427.584002 
L 490.01601 427.589507 
L 491.113915 427.26451 
L 492.21182 427.139862 
L 493.309725 427.291795 
L 498.799249 427.419785 
L 500.995059 427.218865 
L 504.288774 427.252821 
L 505.386679 427.104678 
L 507.582489 427.342149 
L 510.876203 426.985297 
L 511.974108 427.128739 
L 514.169918 426.945237 
L 516.365728 427.112642 
L 519.659443 427.198507 
L 521.855252 427.148972 
L 522.953157 427.309099 
L 524.051062 427.222969 
L 525.148967 427.271944 
L 527.344777 427.616306 
L 528.442682 427.475149 
L 529.540587 427.532514 
L 530.638492 427.425686 
L 531.736396 427.456197 
L 532.834301 427.221345 
L 541.617541 427.098874 
L 542.715445 426.889818 
L 547.107065 426.728144 
L 548.20497 426.469787 
L 549.302875 426.502083 
L 553.694494 426.164554 
L 559.184019 426.64679 
L 560.281924 426.466761 
L 563.575639 426.338164 
L 565.771448 426.267651 
L 570.163068 425.82833 
L 575.652592 425.838261 
L 576.750497 425.692162 
L 577.848402 425.772143 
L 581.142117 425.518697 
L 582.240022 425.548419 
L 583.337927 425.352476 
L 585.533737 425.270136 
L 586.631641 425.033097 
L 589.925356 425.294147 
L 591.023261 425.380479 
L 592.121166 425.265944 
L 593.219071 425.289024 
L 595.414881 425.554438 
L 598.708595 425.488899 
L 603.100215 425.711271 
L 610.785549 425.975153 
L 611.883454 425.962943 
L 612.981359 426.064962 
L 614.079264 425.87934 
L 622.862503 425.910667 
L 625.058313 426.016474 
L 626.156218 425.952643 
L 628.352028 425.964368 
L 630.547837 425.824934 
L 631.645742 426.014805 
L 632.743647 425.889484 
L 634.939457 426.037525 
L 639.331077 425.985341 
L 640.428982 426.035075 
L 643.722696 425.645234 
L 651.408031 425.807739 
L 652.505936 425.930386 
L 653.60384 425.867517 
L 655.79965 426.095349 
L 656.897555 425.991073 
L 657.99546 426.182377 
L 661.289175 426.334796 
L 664.582889 426.533223 
L 666.778699 426.498528 
L 667.876604 426.270898 
L 668.974509 426.383932 
L 671.170319 426.352307 
L 674.464034 426.433964 
L 677.757748 426.559899 
L 678.855653 426.377 
L 679.953558 426.389186 
L 681.051463 426.57225 
L 682.149368 426.525995 
L 683.247273 426.363466 
L 683.247273 426.363466 
" style="fill:none;stroke:#1f77b4;stroke-linecap:square;stroke-width:2;"/>
   </g>
   <g id="line2d_13">
    <path clip-path="url(#p83bdcebc0c)" d="M 135.392727 422.796584 
L 683.247273 422.796584 
L 683.247273 422.796584 
" style="fill:none;stroke:#000000;stroke-dasharray:7.4,3.2;stroke-dashoffset:0;stroke-width:2;"/>
   </g>
   <g id="line2d_14">
    <path clip-path="url(#p83bdcebc0c)" d="M 135.392727 492.48 
L 136.490632 492.48 
L 137.588537 492.084921 
L 138.686442 488.347288 
L 139.784347 485.469059 
L 140.882252 481.535956 
L 141.980157 479.093342 
L 143.078062 473.150654 
L 144.175966 470.792236 
L 145.273871 463.287559 
L 146.371776 459.991023 
L 147.469681 459.874773 
L 148.567586 447.897569 
L 149.665491 439.288688 
L 150.763396 442.032888 
L 151.861301 437.618123 
L 152.959206 434.791575 
L 154.057111 429.02632 
L 155.155015 429.80482 
L 156.25292 425.804395 
L 157.350825 419.289939 
L 159.546635 412.113546 
L 160.64454 406.923554 
L 161.742445 413.884241 
L 162.84035 415.688779 
L 163.938255 415.539707 
L 165.03616 414.439155 
L 166.134064 413.921478 
L 167.231969 409.944988 
L 168.329874 401.859811 
L 169.427779 398.536362 
L 170.525684 404.245694 
L 171.623589 398.692964 
L 172.721494 397.384441 
L 173.819399 398.503991 
L 174.917304 400.835707 
L 176.015209 399.783558 
L 177.113113 400.316587 
L 178.211018 397.907582 
L 179.308923 392.035488 
L 180.406828 394.726069 
L 181.504733 394.531654 
L 182.602638 394.830867 
L 184.798448 385.115676 
L 185.896353 386.945936 
L 186.994258 389.980754 
L 188.092163 394.819989 
L 189.190067 391.882249 
L 190.287972 390.744863 
L 191.385877 395.237795 
L 192.483782 395.681377 
L 193.581687 401.236975 
L 194.679592 403.268302 
L 195.777497 402.246932 
L 196.875402 398.055985 
L 197.973307 389.027652 
L 199.071212 389.038198 
L 200.169116 381.539782 
L 201.267021 380.802395 
L 202.364926 382.229195 
L 203.462831 379.52987 
L 204.560736 379.839223 
L 205.658641 382.109419 
L 206.756546 381.97002 
L 207.854451 378.637165 
L 208.952356 379.227641 
L 210.050261 380.225776 
L 211.148165 379.709277 
L 212.24607 380.630286 
L 213.343975 379.566281 
L 214.44188 380.180096 
L 215.539785 380.403471 
L 216.63769 379.183562 
L 217.735595 377.431968 
L 218.8335 378.696154 
L 219.931405 374.992249 
L 221.02931 376.712805 
L 222.127214 376.082044 
L 223.225119 374.034052 
L 224.323024 373.286863 
L 225.420929 371.086693 
L 226.518834 370.823875 
L 227.616739 371.768386 
L 228.714644 373.991855 
L 229.812549 374.731837 
L 230.910454 372.202424 
L 232.008359 371.416712 
L 233.106263 372.197773 
L 234.204168 371.785286 
L 235.302073 371.572227 
L 236.399978 372.670282 
L 237.497883 374.14826 
L 238.595788 371.375891 
L 239.693693 370.324852 
L 240.791598 368.934897 
L 241.889503 368.635625 
L 242.987408 368.204462 
L 244.085312 368.136786 
L 245.183217 367.508292 
L 246.281122 367.237837 
L 247.379027 367.486879 
L 248.476932 367.454426 
L 249.574837 367.678407 
L 250.672742 366.157964 
L 251.770647 364.919696 
L 252.868552 364.735027 
L 253.966457 365.74752 
L 255.064361 365.253859 
L 256.162266 365.31601 
L 257.260171 365.535885 
L 259.455981 366.996838 
L 260.553886 367.395428 
L 261.651791 367.617314 
L 262.749696 368.051967 
L 263.847601 368.877895 
L 264.945506 368.617718 
L 266.04341 367.691417 
L 267.141315 365.851438 
L 268.23922 366.56566 
L 269.337125 366.696732 
L 270.43503 365.947745 
L 271.532935 366.906192 
L 272.63084 366.394648 
L 273.728745 368.813622 
L 274.82665 367.436663 
L 275.924555 367.170314 
L 277.022459 368.470805 
L 278.120364 368.078801 
L 279.218269 368.466503 
L 280.316174 368.481111 
L 281.414079 367.483469 
L 282.511984 368.649797 
L 283.609889 367.924127 
L 284.707794 368.194253 
L 285.805699 367.506558 
L 286.903604 366.985241 
L 288.001508 366.138871 
L 289.099413 365.551392 
L 290.197318 364.723258 
L 291.295223 365.80522 
L 292.393128 365.866735 
L 293.491033 365.105848 
L 295.686843 365.079021 
L 296.784748 365.883547 
L 297.882653 365.065281 
L 300.078462 364.142564 
L 302.274272 365.493466 
L 303.372177 365.366995 
L 304.470082 365.00241 
L 306.665892 363.183672 
L 307.763797 362.814586 
L 308.861702 362.980308 
L 309.959606 363.438363 
L 311.057511 363.555531 
L 312.155416 363.092559 
L 314.351226 363.081037 
L 315.449131 362.211411 
L 316.547036 362.165015 
L 317.644941 362.765973 
L 318.742846 362.83327 
L 319.840751 362.785554 
L 320.938655 362.568162 
L 322.03656 362.596342 
L 325.330275 361.056905 
L 326.42818 360.85289 
L 328.62399 359.93609 
L 329.721895 360.170744 
L 330.8198 360.247777 
L 331.917704 359.533019 
L 333.015609 359.596274 
L 334.113514 359.334017 
L 336.309324 359.747319 
L 337.407229 359.825642 
L 338.505134 360.115926 
L 339.603039 360.103653 
L 340.700944 359.898872 
L 342.896754 360.060421 
L 343.994658 359.964367 
L 345.092563 359.219482 
L 346.190468 358.952895 
L 348.386278 359.08727 
L 350.582088 359.9319 
L 351.679993 359.895511 
L 353.875803 360.421889 
L 356.071612 359.92417 
L 357.169517 360.680746 
L 358.267422 360.433031 
L 359.365327 360.886752 
L 361.561137 360.179163 
L 362.659042 360.038752 
L 363.756947 360.131712 
L 364.854852 359.863721 
L 365.952756 359.336341 
L 367.050661 359.218346 
L 368.148566 358.711459 
L 371.442281 358.517218 
L 372.540186 358.537284 
L 373.638091 358.013422 
L 378.02971 358.345827 
L 379.127615 358.588252 
L 381.323425 358.423605 
L 382.42133 358.590692 
L 384.61714 358.258442 
L 385.715045 358.135778 
L 386.81295 358.250237 
L 387.910854 358.148739 
L 389.008759 358.223356 
L 391.204569 358.058361 
L 392.302474 358.358119 
L 393.400379 358.292945 
L 394.498284 358.480646 
L 396.694094 358.265413 
L 397.791999 358.430879 
L 398.889903 358.456832 
L 399.987808 358.225944 
L 405.477333 358.14716 
L 406.575238 357.880285 
L 409.868952 358.167348 
L 410.966857 357.893371 
L 414.260572 357.94644 
L 415.358477 357.689521 
L 417.554287 357.962612 
L 418.652192 358.308991 
L 419.750097 358.305248 
L 420.848001 358.557397 
L 421.945906 358.541848 
L 424.141716 358.806976 
L 426.337526 358.846526 
L 427.435431 358.706141 
L 428.533336 358.91159 
L 435.120765 358.660432 
L 436.21867 358.314 
L 437.316575 358.169338 
L 439.512385 358.05786 
L 442.806099 357.795018 
L 443.904004 357.923581 
L 445.001909 358.168557 
L 449.393529 357.967271 
L 450.491434 358.047352 
L 451.589339 357.985386 
L 453.785148 358.041793 
L 455.980958 357.941569 
L 458.176768 357.452026 
L 459.274673 357.552217 
L 461.470483 357.58504 
L 462.568388 357.715728 
L 463.666293 357.526741 
L 471.351627 357.135572 
L 482.330676 356.944091 
L 483.428581 357.102212 
L 485.624391 356.981671 
L 486.722296 356.773597 
L 490.01601 356.785362 
L 492.21182 356.872944 
L 493.309725 356.724821 
L 494.40763 356.737871 
L 496.60344 356.524501 
L 497.701345 356.705917 
L 499.897154 356.616638 
L 502.092964 356.449479 
L 504.288774 356.753592 
L 506.484584 356.557874 
L 507.582489 356.605387 
L 508.680394 356.374584 
L 509.778298 355.981284 
L 511.974108 355.933082 
L 513.072013 355.711898 
L 516.365728 355.874989 
L 517.463633 355.611993 
L 518.561538 355.652236 
L 522.953157 355.352851 
L 524.051062 355.06826 
L 527.344777 355.211363 
L 528.442682 355.407523 
L 529.540587 355.4581 
L 530.638492 355.650874 
L 533.932206 355.739765 
L 537.225921 355.232427 
L 538.323826 355.451954 
L 542.715445 355.299401 
L 543.81335 355.570794 
L 544.911255 355.705739 
L 547.107065 355.585998 
L 548.20497 355.620851 
L 549.302875 355.507153 
L 550.40078 355.271728 
L 552.59659 355.443447 
L 553.694494 355.54098 
L 554.792399 355.349445 
L 556.988209 355.450731 
L 558.086114 355.193041 
L 562.477734 355.414102 
L 563.575639 355.50058 
L 565.771448 355.334161 
L 566.869353 355.255669 
L 569.065163 354.72492 
L 573.456783 354.680857 
L 574.554688 354.47812 
L 575.652592 354.680718 
L 576.750497 354.431583 
L 578.946307 354.496543 
L 580.044212 354.324508 
L 581.142117 354.434203 
L 583.337927 354.255918 
L 584.435832 354.020048 
L 585.533737 353.917889 
L 587.729546 354.110369 
L 588.827451 353.879401 
L 589.925356 353.96417 
L 592.121166 353.854438 
L 594.316976 353.738421 
L 595.414881 354.046434 
L 596.512786 354.084105 
L 597.61069 354.248928 
L 598.708595 354.293492 
L 603.100215 353.769015 
L 607.491835 354.222404 
L 608.589739 354.209073 
L 609.687644 354.331013 
L 610.785549 354.099994 
L 618.470884 353.952767 
L 619.568788 353.711207 
L 621.764598 353.47549 
L 625.058313 353.653793 
L 627.254123 353.62285 
L 628.352028 353.789533 
L 629.449933 353.705672 
L 630.547837 353.95817 
L 633.841552 354.281581 
L 636.037362 353.984428 
L 638.233172 354.335458 
L 639.331077 354.312719 
L 640.428982 354.441502 
L 641.526887 354.760987 
L 642.624791 354.459034 
L 644.820601 354.322852 
L 645.918506 354.431879 
L 647.016411 354.332863 
L 648.114316 354.104835 
L 649.212221 354.070509 
L 651.408031 354.351914 
L 652.505936 354.400265 
L 655.79965 354.161658 
L 656.897555 354.398993 
L 657.99546 354.506409 
L 659.093365 354.434282 
L 660.19127 354.543096 
L 663.484985 354.388472 
L 664.582889 354.418814 
L 667.876604 354.122602 
L 668.974509 354.310782 
L 670.072414 354.063805 
L 671.170319 354.253198 
L 674.464034 354.213148 
L 675.561938 354.399372 
L 676.659843 354.268635 
L 677.757748 354.294416 
L 678.855653 354.208753 
L 681.051463 354.439096 
L 682.149368 354.401215 
L 683.247273 354.528131 
L 683.247273 354.528131 
" style="fill:none;stroke:#ff7f0e;stroke-linecap:square;stroke-width:2;"/>
   </g>
   <g id="line2d_15">
    <path clip-path="url(#p83bdcebc0c)" d="M 135.392727 351.283205 
L 683.247273 351.283205 
L 683.247273 351.283205 
" style="fill:none;stroke:#000000;stroke-dasharray:7.4,3.2;stroke-dashoffset:0;stroke-width:2;"/>
   </g>
   <g id="line2d_16">
    <path clip-path="url(#p83bdcebc0c)" d="M 135.392727 492.48 
L 136.490632 492.48 
L 137.588537 485.81889 
L 138.686442 474.10456 
L 139.784347 464.520629 
L 141.980157 427.911295 
L 143.078062 415.26185 
L 144.175966 406.130628 
L 145.273871 389.625127 
L 146.371776 383.805058 
L 147.469681 373.964266 
L 148.567586 360.289341 
L 149.665491 352.910131 
L 151.861301 332.421692 
L 152.959206 329.088646 
L 154.057111 326.511169 
L 155.155015 320.483316 
L 156.25292 323.170612 
L 157.350825 323.062284 
L 158.44873 323.220788 
L 159.546635 328.673005 
L 161.742445 317.25531 
L 162.84035 319.574228 
L 163.938255 320.279206 
L 165.03616 323.193147 
L 166.134064 320.792492 
L 167.231969 321.605034 
L 168.329874 314.776083 
L 169.427779 311.825349 
L 170.525684 313.804611 
L 171.623589 312.897265 
L 172.721494 313.682272 
L 173.819399 307.882792 
L 174.917304 309.077984 
L 177.113113 299.134279 
L 178.211018 300.363888 
L 179.308923 300.030212 
L 180.406828 302.977979 
L 181.504733 299.918091 
L 182.602638 301.168447 
L 183.700543 299.784072 
L 184.798448 297.22082 
L 185.896353 297.189621 
L 186.994258 297.787979 
L 188.092163 300.938199 
L 189.190067 299.817066 
L 190.287972 299.518078 
L 191.385877 301.59769 
L 192.483782 297.571012 
L 193.581687 302.246834 
L 194.679592 300.784972 
L 195.777497 303.157662 
L 197.973307 293.205847 
L 199.071212 293.068066 
L 200.169116 291.324635 
L 201.267021 286.495994 
L 202.364926 288.106412 
L 203.462831 285.96316 
L 204.560736 285.242323 
L 205.658641 290.608712 
L 206.756546 294.335777 
L 207.854451 292.383217 
L 208.952356 290.067326 
L 210.050261 292.244945 
L 211.148165 293.294885 
L 212.24607 293.495967 
L 213.343975 293.355876 
L 214.44188 292.847009 
L 215.539785 296.672972 
L 216.63769 293.766863 
L 217.735595 292.477439 
L 218.8335 292.551694 
L 219.931405 291.489812 
L 221.02931 290.730408 
L 222.127214 290.860187 
L 223.225119 292.022747 
L 224.323024 292.035887 
L 225.420929 289.150992 
L 226.518834 288.903226 
L 227.616739 287.552725 
L 228.714644 288.017252 
L 230.910454 285.818123 
L 232.008359 284.412157 
L 233.106263 284.404006 
L 234.204168 285.433521 
L 235.302073 287.247084 
L 236.399978 288.40018 
L 237.497883 288.086915 
L 238.595788 286.201085 
L 239.693693 285.735793 
L 240.791598 286.198395 
L 241.889503 285.784187 
L 242.987408 287.625408 
L 244.085312 287.539736 
L 245.183217 286.114837 
L 246.281122 286.714326 
L 247.379027 284.685601 
L 248.476932 284.40376 
L 249.574837 284.455334 
L 250.672742 281.695065 
L 251.770647 283.251864 
L 252.868552 287.186486 
L 253.966457 287.065245 
L 255.064361 286.219721 
L 256.162266 287.453181 
L 257.260171 287.810889 
L 258.358076 286.845888 
L 259.455981 285.582048 
L 260.553886 286.183747 
L 261.651791 286.04331 
L 262.749696 287.393688 
L 263.847601 285.802507 
L 264.945506 285.555495 
L 266.04341 286.819009 
L 267.141315 286.857502 
L 268.23922 287.550601 
L 269.337125 286.413529 
L 270.43503 287.052566 
L 271.532935 289.044134 
L 272.63084 289.075565 
L 273.728745 289.87579 
L 274.82665 290.413237 
L 275.924555 288.491457 
L 277.022459 288.442627 
L 278.120364 286.985701 
L 280.316174 286.994647 
L 281.414079 286.971326 
L 282.511984 287.12315 
L 283.609889 287.162454 
L 284.707794 285.315105 
L 286.903604 285.17821 
L 288.001508 285.92795 
L 289.099413 284.966947 
L 290.197318 283.673899 
L 291.295223 284.044579 
L 292.393128 283.045925 
L 293.491033 283.377395 
L 294.588938 283.175186 
L 295.686843 283.164694 
L 296.784748 283.653242 
L 297.882653 284.297861 
L 298.980557 284.560959 
L 300.078462 283.919704 
L 302.274272 282.373262 
L 303.372177 282.200664 
L 304.470082 280.768171 
L 306.665892 281.809953 
L 307.763797 281.475094 
L 308.861702 281.596844 
L 309.959606 281.38189 
L 311.057511 280.921374 
L 312.155416 281.818228 
L 314.351226 282.538061 
L 315.449131 283.532427 
L 317.644941 283.718993 
L 318.742846 283.636294 
L 322.03656 284.408733 
L 323.134465 285.263577 
L 324.23237 285.2083 
L 326.42818 284.659994 
L 327.526085 284.67664 
L 329.721895 285.068444 
L 330.8198 285.612247 
L 331.917704 285.37111 
L 333.015609 285.606728 
L 336.309324 284.415408 
L 338.505134 284.037417 
L 339.603039 284.318075 
L 340.700944 284.295858 
L 341.798849 284.541313 
L 342.896754 284.488185 
L 343.994658 284.597931 
L 345.092563 284.283552 
L 346.190468 284.812824 
L 348.386278 284.667976 
L 350.582088 284.84555 
L 351.679993 284.996973 
L 354.973707 284.03874 
L 356.071612 284.227055 
L 358.267422 284.91337 
L 360.463232 284.243251 
L 361.561137 284.145104 
L 362.659042 284.272161 
L 365.952756 283.055943 
L 369.246471 282.402642 
L 370.344376 282.522355 
L 371.442281 283.015192 
L 372.540186 282.573725 
L 374.735996 282.729936 
L 375.833901 282.958086 
L 376.931805 282.897375 
L 378.02971 282.661899 
L 379.127615 282.629591 
L 380.22552 282.753358 
L 383.519235 282.006975 
L 385.715045 281.614136 
L 386.81295 281.765825 
L 387.910854 281.783566 
L 390.106664 281.454829 
L 391.204569 281.056015 
L 392.302474 281.00364 
L 393.400379 281.087849 
L 394.498284 281.329822 
L 397.791999 281.172482 
L 398.889903 281.241697 
L 399.987808 281.119797 
L 401.085713 280.856925 
L 404.379428 280.736515 
L 407.673143 280.544689 
L 408.771048 280.878192 
L 410.966857 280.682721 
L 412.064762 280.928243 
L 413.162667 280.98909 
L 414.260572 281.196038 
L 417.554287 281.162429 
L 420.848001 281.015133 
L 423.043811 281.187104 
L 431.82705 281.373482 
L 432.924955 281.14425 
L 439.512385 281.045254 
L 445.001909 281.444214 
L 446.099814 281.039572 
L 447.197719 280.874497 
L 448.295624 280.463578 
L 449.393529 280.407639 
L 450.491434 280.512413 
L 451.589339 280.467982 
L 453.785148 280.594601 
L 454.883053 280.555145 
L 455.980958 280.392808 
L 458.176768 280.742974 
L 459.274673 280.36173 
L 460.372578 280.16783 
L 462.568388 280.099773 
L 464.764197 280.16766 
L 466.960007 279.905256 
L 473.547437 279.855537 
L 475.743246 279.796081 
L 477.939056 279.759123 
L 479.036961 280.027682 
L 481.232771 279.98501 
L 482.330676 279.667251 
L 483.428581 279.529234 
L 488.918105 279.624944 
L 490.01601 279.258721 
L 491.113915 279.322963 
L 494.40763 279.845178 
L 495.505535 279.702574 
L 496.60344 279.81808 
L 497.701345 280.117781 
L 502.092964 280.347574 
L 506.484584 279.747354 
L 508.680394 280.14937 
L 511.974108 279.934367 
L 513.072013 279.987879 
L 514.169918 279.827453 
L 515.267823 279.94703 
L 516.365728 279.722998 
L 517.463633 279.784507 
L 518.561538 279.673839 
L 522.953157 280.000609 
L 524.051062 280.002099 
L 525.148967 279.689524 
L 527.344777 279.709173 
L 528.442682 279.996444 
L 529.540587 279.808918 
L 530.638492 279.789119 
L 531.736396 279.645954 
L 533.932206 279.588705 
L 535.030111 279.734629 
L 536.128016 279.631066 
L 537.225921 279.854836 
L 540.519636 279.721754 
L 541.617541 279.624652 
L 543.81335 279.819164 
L 544.911255 279.674336 
L 550.40078 279.593811 
L 551.498685 279.825462 
L 552.59659 279.859669 
L 553.694494 279.605106 
L 554.792399 279.66038 
L 555.890304 279.458552 
L 556.988209 279.638988 
L 558.086114 279.551525 
L 559.184019 279.82849 
L 560.281924 279.637838 
L 562.477734 279.733001 
L 563.575639 279.611624 
L 564.673543 279.291225 
L 567.967258 279.195754 
L 570.163068 279.154874 
L 571.260973 279.043595 
L 572.358878 279.278117 
L 573.456783 279.296994 
L 576.750497 279.678614 
L 578.946307 279.751252 
L 580.044212 279.937486 
L 583.337927 280.22552 
L 586.631641 279.829732 
L 588.827451 279.971269 
L 589.925356 279.903696 
L 591.023261 280.001778 
L 592.121166 279.935251 
L 593.219071 279.549066 
L 594.316976 279.70916 
L 596.512786 279.571331 
L 599.8065 279.533528 
L 600.904405 279.459779 
L 602.00231 279.247269 
L 603.100215 279.211555 
L 604.19812 279.319122 
L 605.296025 278.953548 
L 608.589739 279.583025 
L 610.785549 279.54816 
L 611.883454 279.159308 
L 612.981359 279.039917 
L 614.079264 279.076216 
L 616.275074 278.812633 
L 618.470884 278.846951 
L 623.960408 278.431183 
L 625.058313 278.163325 
L 626.156218 278.479105 
L 628.352028 278.612892 
L 629.449933 278.412198 
L 630.547837 278.496802 
L 631.645742 278.82994 
L 632.743647 278.909889 
L 637.135267 279.906353 
L 638.233172 279.980474 
L 639.331077 279.764829 
L 641.526887 279.60466 
L 643.722696 279.951889 
L 644.820601 279.810486 
L 647.016411 279.777772 
L 649.212221 279.211955 
L 650.310126 279.034392 
L 651.408031 279.137602 
L 653.60384 278.627043 
L 654.701745 278.831132 
L 655.79965 278.785559 
L 656.897555 278.931783 
L 657.99546 278.811785 
L 659.093365 278.80465 
L 660.19127 278.632908 
L 662.38708 278.999688 
L 663.484985 278.838207 
L 664.582889 278.873258 
L 665.680794 279.203529 
L 670.072414 279.03032 
L 671.170319 278.793013 
L 672.268224 278.987855 
L 673.366129 279.056348 
L 674.464034 279.392479 
L 675.561938 279.49189 
L 676.659843 279.247941 
L 678.855653 279.243143 
L 679.953558 278.978832 
L 682.149368 279.074155 
L 683.247273 278.776961 
L 683.247273 278.776961 
" style="fill:none;stroke:#2ca02c;stroke-linecap:square;stroke-width:2;"/>
   </g>
   <g id="line2d_17">
    <path clip-path="url(#p83bdcebc0c)" d="M 135.392727 276.917367 
L 683.247273 276.917367 
L 683.247273 276.917367 
" style="fill:none;stroke:#000000;stroke-dasharray:7.4,3.2;stroke-dashoffset:0;stroke-width:2;"/>
   </g>
   <g id="line2d_18">
    <path clip-path="url(#p83bdcebc0c)" d="M 135.392727 492.48 
L 136.490632 443.857328 
L 137.588537 426.657302 
L 138.686442 384.86867 
L 139.784347 368.857229 
L 140.882252 337.200365 
L 141.980157 314.468971 
L 143.078062 299.36408 
L 144.175966 277.545377 
L 145.273871 258.106863 
L 146.371776 256.788281 
L 147.469681 241.475586 
L 148.567586 237.857232 
L 149.665491 224.19612 
L 150.763396 213.724192 
L 151.861301 216.590127 
L 152.959206 212.314307 
L 154.057111 197.901664 
L 156.25292 208.366416 
L 157.350825 209.386676 
L 158.44873 216.005894 
L 159.546635 216.153656 
L 160.64454 210.684187 
L 161.742445 211.42634 
L 162.84035 205.348838 
L 163.938255 210.065362 
L 165.03616 212.814475 
L 166.134064 208.120772 
L 167.231969 211.771491 
L 168.329874 207.124294 
L 169.427779 205.736972 
L 170.525684 206.741755 
L 171.623589 205.153928 
L 172.721494 204.699398 
L 173.819399 198.859423 
L 176.015209 195.03892 
L 177.113113 198.761481 
L 178.211018 198.833684 
L 179.308923 198.346235 
L 180.406828 199.43071 
L 182.602638 195.966679 
L 183.700543 200.743881 
L 184.798448 197.139239 
L 185.896353 197.105671 
L 186.994258 193.07555 
L 188.092163 194.193936 
L 189.190067 194.528494 
L 190.287972 192.502075 
L 191.385877 193.436748 
L 192.483782 191.976357 
L 193.581687 196.331704 
L 194.679592 196.703214 
L 195.777497 194.71669 
L 196.875402 191.372381 
L 197.973307 192.803105 
L 199.071212 193.928109 
L 200.169116 184.502641 
L 201.267021 184.189254 
L 202.364926 186.594773 
L 203.462831 189.736318 
L 204.560736 191.880172 
L 205.658641 194.731341 
L 206.756546 196.755648 
L 207.854451 196.596653 
L 208.952356 191.789595 
L 210.050261 193.25814 
L 211.148165 190.264872 
L 212.24607 190.630023 
L 213.343975 193.937163 
L 214.44188 196.805824 
L 215.539785 194.276793 
L 216.63769 197.117008 
L 218.8335 194.006414 
L 219.931405 194.097443 
L 221.02931 193.038269 
L 222.127214 193.802101 
L 223.225119 195.468722 
L 224.323024 194.799567 
L 226.518834 195.666748 
L 227.616739 193.774071 
L 228.714644 195.935513 
L 229.812549 196.23373 
L 230.910454 199.068621 
L 232.008359 196.15476 
L 233.106263 197.525685 
L 234.204168 197.734031 
L 235.302073 196.689932 
L 236.399978 198.060665 
L 237.497883 197.113945 
L 238.595788 196.367845 
L 239.693693 194.479057 
L 240.791598 196.339052 
L 241.889503 196.703854 
L 242.987408 197.349785 
L 244.085312 197.059606 
L 245.183217 197.767369 
L 246.281122 199.179479 
L 247.379027 195.018642 
L 248.476932 195.848418 
L 250.672742 196.585139 
L 251.770647 195.89108 
L 252.868552 197.158284 
L 253.966457 196.456535 
L 255.064361 196.991466 
L 256.162266 198.414623 
L 257.260171 197.310723 
L 259.455981 199.027226 
L 260.553886 199.891354 
L 262.749696 198.233369 
L 263.847601 197.416507 
L 264.945506 197.345333 
L 266.04341 194.529044 
L 267.141315 196.024898 
L 269.337125 194.462304 
L 270.43503 196.050697 
L 272.63084 198.358961 
L 273.728745 199.424012 
L 274.82665 200.114728 
L 275.924555 199.573199 
L 277.022459 200.01727 
L 278.120364 199.195943 
L 279.218269 200.148549 
L 280.316174 201.426392 
L 281.414079 200.618823 
L 282.511984 200.780374 
L 283.609889 200.191929 
L 284.707794 200.555819 
L 285.805699 201.777124 
L 286.903604 201.794324 
L 288.001508 201.496672 
L 289.099413 201.389825 
L 290.197318 202.392355 
L 291.295223 202.429122 
L 292.393128 201.206759 
L 293.491033 201.664184 
L 294.588938 200.917029 
L 295.686843 200.353391 
L 296.784748 199.608343 
L 297.882653 199.620827 
L 298.980557 199.264734 
L 300.078462 198.637818 
L 301.176367 198.232479 
L 302.274272 197.614723 
L 303.372177 197.447013 
L 304.470082 196.920567 
L 306.665892 196.661157 
L 307.763797 197.44151 
L 308.861702 197.803862 
L 311.057511 199.109727 
L 312.155416 200.133797 
L 313.253321 200.390457 
L 315.449131 202.279673 
L 316.547036 202.345531 
L 317.644941 202.956848 
L 318.742846 202.275508 
L 319.840751 202.55159 
L 320.938655 202.331597 
L 322.03656 203.166958 
L 324.23237 201.335534 
L 325.330275 201.121567 
L 326.42818 200.044998 
L 327.526085 199.731734 
L 329.721895 200.528333 
L 330.8198 200.358386 
L 331.917704 199.912425 
L 333.015609 199.756199 
L 334.113514 201.971653 
L 335.211419 201.951782 
L 336.309324 202.527824 
L 338.505134 201.741637 
L 339.603039 201.795266 
L 341.798849 201.344067 
L 342.896754 201.479825 
L 343.994658 202.040327 
L 345.092563 201.907746 
L 346.190468 202.071997 
L 347.288373 201.998256 
L 348.386278 202.37187 
L 349.484183 202.036101 
L 350.582088 202.015192 
L 351.679993 201.274735 
L 352.777898 201.562383 
L 353.875803 201.509988 
L 354.973707 201.662608 
L 356.071612 201.298429 
L 358.267422 200.886114 
L 360.463232 201.362671 
L 363.756947 200.213682 
L 367.050661 200.687275 
L 369.246471 200.33395 
L 370.344376 200.607762 
L 372.540186 200.29929 
L 373.638091 200.465341 
L 374.735996 200.227584 
L 376.931805 200.171722 
L 378.02971 199.858944 
L 379.127615 199.702976 
L 380.22552 199.98411 
L 381.323425 199.623335 
L 382.42133 199.589689 
L 383.519235 199.822362 
L 385.715045 199.423851 
L 387.910854 199.692289 
L 389.008759 200.020629 
L 391.204569 199.612748 
L 392.302474 199.511324 
L 393.400379 199.556389 
L 394.498284 199.714739 
L 395.596189 199.63573 
L 396.694094 199.719829 
L 397.791999 199.583829 
L 402.183618 199.557668 
L 406.575238 199.278969 
L 409.868952 199.171776 
L 410.966857 199.451564 
L 412.064762 199.321479 
L 415.358477 199.298335 
L 418.652192 199.159854 
L 419.750097 199.401018 
L 420.848001 199.229714 
L 423.043811 199.082701 
L 424.141716 199.227638 
L 427.435431 199.266991 
L 429.631241 199.518799 
L 431.82705 199.376904 
L 438.41448 199.098112 
L 440.61029 198.557433 
L 441.708195 198.698579 
L 443.904004 198.556668 
L 446.099814 198.571189 
L 447.197719 198.239944 
L 448.295624 198.33858 
L 451.589339 198.318361 
L 452.687244 198.545943 
L 454.883053 198.403675 
L 455.980958 198.178312 
L 457.078863 198.321434 
L 459.274673 198.116295 
L 460.372578 198.42824 
L 461.470483 198.427266 
L 462.568388 198.658864 
L 463.666293 198.473088 
L 464.764197 198.619627 
L 465.862102 198.367844 
L 466.960007 198.318675 
L 469.155817 198.061399 
L 472.449532 197.920626 
L 473.547437 198.279298 
L 475.743246 197.981404 
L 476.841151 198.28093 
L 477.939056 198.192999 
L 479.036961 198.295047 
L 481.232771 198.12507 
L 485.624391 198.404196 
L 488.918105 198.559073 
L 490.01601 198.725402 
L 491.113915 198.681846 
L 492.21182 198.988742 
L 493.309725 198.623929 
L 496.60344 198.567403 
L 497.701345 198.72382 
L 498.799249 198.712287 
L 499.897154 199.072817 
L 503.190869 198.820672 
L 504.288774 199.014059 
L 505.386679 198.912452 
L 506.484584 199.009398 
L 507.582489 198.955453 
L 508.680394 199.111562 
L 513.072013 199.060637 
L 514.169918 199.245555 
L 515.267823 198.906701 
L 517.463633 198.786032 
L 519.659443 198.25839 
L 520.757347 198.424453 
L 521.855252 198.314146 
L 522.953157 198.31904 
L 524.051062 198.452827 
L 525.148967 198.282135 
L 526.246872 198.334794 
L 529.540587 198.215059 
L 530.638492 198.28129 
L 531.736396 198.102796 
L 532.834301 198.502897 
L 535.030111 198.631455 
L 539.421731 198.080927 
L 543.81335 198.000605 
L 544.911255 197.760662 
L 546.00916 197.946076 
L 547.107065 197.76404 
L 548.20497 198.000613 
L 549.302875 197.835486 
L 550.40078 198.302417 
L 552.59659 198.161776 
L 555.890304 197.842083 
L 556.988209 197.545158 
L 558.086114 197.874264 
L 559.184019 197.724941 
L 560.281924 197.758098 
L 562.477734 197.640636 
L 564.673543 197.516608 
L 567.967258 197.702673 
L 569.065163 198.242584 
L 571.260973 198.003958 
L 573.456783 198.0715 
L 574.554688 198.353095 
L 575.652592 198.338053 
L 576.750497 198.551225 
L 577.848402 198.224928 
L 578.946307 198.264577 
L 581.142117 198.172727 
L 582.240022 198.461613 
L 584.435832 198.48593 
L 586.631641 198.296266 
L 587.729546 198.590518 
L 588.827451 198.600722 
L 589.925356 198.962318 
L 591.023261 198.952437 
L 592.121166 198.72058 
L 593.219071 198.664942 
L 596.512786 198.887969 
L 597.61069 198.635081 
L 599.8065 198.726398 
L 600.904405 198.512005 
L 603.100215 198.593522 
L 609.687644 198.359555 
L 615.177169 198.640857 
L 617.372979 198.48262 
L 618.470884 198.386206 
L 619.568788 198.470028 
L 620.666693 198.364764 
L 622.862503 198.459168 
L 625.058313 198.120536 
L 626.156218 198.041954 
L 627.254123 198.14494 
L 629.449933 198.175853 
L 633.841552 198.237293 
L 634.939457 197.880251 
L 636.037362 197.862433 
L 639.331077 198.418032 
L 642.624791 198.244976 
L 643.722696 198.287778 
L 644.820601 197.959519 
L 645.918506 197.77542 
L 648.114316 198.447735 
L 649.212221 198.328518 
L 651.408031 198.52852 
L 652.505936 198.26879 
L 654.701745 198.109014 
L 655.79965 198.277195 
L 659.093365 198.326552 
L 661.289175 198.05163 
L 663.484985 197.932376 
L 664.582889 198.117778 
L 665.680794 197.955022 
L 666.778699 198.451179 
L 668.974509 198.891191 
L 671.170319 198.852777 
L 674.464034 198.982036 
L 675.561938 198.982304 
L 677.757748 199.298213 
L 678.855653 199.050765 
L 683.247273 199.010345 
L 683.247273 199.010345 
" style="fill:none;stroke:#d62728;stroke-linecap:square;stroke-width:2;"/>
   </g>
   <g id="line2d_19">
    <path clip-path="url(#p83bdcebc0c)" d="M 135.392727 197.352295 
L 683.247273 197.352295 
L 683.247273 197.352295 
" style="fill:none;stroke:#000000;stroke-dasharray:7.4,3.2;stroke-dashoffset:0;stroke-width:2;"/>
   </g>
   <g id="line2d_20">
    <path clip-path="url(#p83bdcebc0c)" d="M 135.392727 344.547801 
L 137.588537 249.541821 
L 138.686442 192.541623 
L 140.882252 160.576225 
L 141.980157 142.22782 
L 143.078062 137.304739 
L 144.175966 135.369923 
L 145.273871 134.307466 
L 146.371776 126.173651 
L 147.469681 121.397683 
L 148.567586 120.376935 
L 149.665491 111.033157 
L 150.763396 107.494966 
L 151.861301 104.927064 
L 152.959206 107.661067 
L 154.057111 105.73073 
L 157.350825 101.883715 
L 158.44873 98.711722 
L 159.546635 100.629571 
L 160.64454 99.622177 
L 161.742445 101.164946 
L 162.84035 97.330359 
L 163.938255 102.72378 
L 165.03616 102.06371 
L 166.134064 102.870338 
L 167.231969 100.949523 
L 168.329874 99.532401 
L 169.427779 103.388544 
L 170.525684 112.299331 
L 171.623589 109.036312 
L 172.721494 103.711853 
L 173.819399 100.68277 
L 174.917304 96.34647 
L 176.015209 95.179496 
L 177.113113 95.366034 
L 179.308923 98.993104 
L 180.406828 100.696794 
L 181.504733 96.152651 
L 182.602638 96.13496 
L 183.700543 96.540563 
L 184.798448 92.33089 
L 185.896353 93.426739 
L 186.994258 91.597481 
L 188.092163 91.941173 
L 189.190067 91.231861 
L 190.287972 93.679777 
L 191.385877 94.124927 
L 192.483782 94.399841 
L 193.581687 93.999429 
L 194.679592 96.837262 
L 195.777497 93.873151 
L 196.875402 92.977369 
L 197.973307 95.395126 
L 199.071212 92.276453 
L 200.169116 93.293461 
L 201.267021 90.438705 
L 202.364926 89.28 
L 203.462831 93.948016 
L 204.560736 96.673336 
L 205.658641 97.075904 
L 206.756546 96.292865 
L 207.854451 96.22766 
L 208.952356 98.770287 
L 210.050261 100.890419 
L 212.24607 96.94735 
L 213.343975 96.467579 
L 214.44188 98.09295 
L 215.539785 98.896797 
L 216.63769 99.407063 
L 217.735595 99.738672 
L 218.8335 97.813884 
L 219.931405 100.223205 
L 221.02931 100.715428 
L 222.127214 99.782816 
L 224.323024 98.728651 
L 225.420929 99.480444 
L 226.518834 99.831415 
L 227.616739 100.522072 
L 228.714644 102.998299 
L 229.812549 104.486 
L 230.910454 104.537427 
L 232.008359 103.962309 
L 233.106263 104.369139 
L 234.204168 104.261317 
L 235.302073 105.576754 
L 236.399978 104.762044 
L 237.497883 105.18497 
L 238.595788 101.416483 
L 239.693693 100.928219 
L 241.889503 100.357715 
L 242.987408 101.16107 
L 244.085312 100.664359 
L 245.183217 99.025282 
L 246.281122 99.308318 
L 248.476932 101.560578 
L 251.770647 103.384263 
L 252.868552 102.733656 
L 253.966457 103.118422 
L 255.064361 102.148954 
L 256.162266 102.830608 
L 257.260171 102.699297 
L 258.358076 105.89326 
L 259.455981 104.922081 
L 260.553886 104.817411 
L 261.651791 105.784679 
L 262.749696 106.345211 
L 263.847601 107.644729 
L 266.04341 105.758411 
L 267.141315 106.5291 
L 268.23922 105.201856 
L 269.337125 105.020643 
L 270.43503 103.863674 
L 271.532935 104.829729 
L 272.63084 105.208915 
L 273.728745 106.088863 
L 274.82665 105.489629 
L 275.924555 105.717432 
L 277.022459 105.163762 
L 278.120364 105.93501 
L 279.218269 104.985564 
L 280.316174 106.787335 
L 281.414079 107.321204 
L 282.511984 108.559774 
L 283.609889 108.139707 
L 284.707794 108.587955 
L 285.805699 109.499061 
L 286.903604 108.461161 
L 288.001508 107.58494 
L 289.099413 107.849546 
L 291.295223 107.754503 
L 292.393128 108.899269 
L 295.686843 108.825687 
L 296.784748 109.743643 
L 297.882653 110.059604 
L 298.980557 108.963675 
L 300.078462 108.025272 
L 301.176367 108.197135 
L 302.274272 109.204423 
L 304.470082 109.28234 
L 305.567987 108.475186 
L 306.665892 108.557834 
L 307.763797 107.760737 
L 308.861702 107.600957 
L 309.959606 107.153348 
L 311.057511 107.42542 
L 312.155416 108.136706 
L 313.253321 108.437062 
L 314.351226 108.94571 
L 315.449131 109.186613 
L 316.547036 109.196568 
L 317.644941 108.683571 
L 318.742846 108.581796 
L 319.840751 108.882824 
L 320.938655 108.425211 
L 322.03656 108.373962 
L 323.134465 109.564467 
L 324.23237 109.455065 
L 326.42818 108.465826 
L 327.526085 108.339006 
L 328.62399 107.930249 
L 329.721895 108.472531 
L 330.8198 107.867525 
L 333.015609 107.623134 
L 334.113514 108.015065 
L 335.211419 107.845253 
L 336.309324 107.976861 
L 337.407229 107.905308 
L 338.505134 108.228953 
L 340.700944 109.125961 
L 341.798849 108.567938 
L 342.896754 108.226393 
L 345.092563 108.916672 
L 346.190468 108.597064 
L 347.288373 108.814106 
L 348.386278 108.82868 
L 349.484183 108.272529 
L 350.582088 108.175224 
L 351.679993 107.610056 
L 352.777898 107.886539 
L 353.875803 108.013827 
L 354.973707 107.893544 
L 356.071612 108.544681 
L 357.169517 108.372636 
L 358.267422 108.755505 
L 359.365327 108.622099 
L 360.463232 108.678727 
L 362.659042 109.186315 
L 364.854852 109.177244 
L 365.952756 108.891686 
L 368.148566 108.806342 
L 369.246471 109.157213 
L 371.442281 108.934472 
L 373.638091 109.252586 
L 374.735996 109.200361 
L 375.833901 109.342741 
L 376.931805 108.912243 
L 378.02971 108.889824 
L 379.127615 108.65185 
L 382.42133 108.570674 
L 383.519235 108.353451 
L 384.61714 108.64038 
L 385.715045 108.733364 
L 387.910854 108.680512 
L 389.008759 109.018154 
L 390.106664 109.099369 
L 391.204569 109.403183 
L 392.302474 109.559322 
L 393.400379 109.557296 
L 394.498284 109.340377 
L 395.596189 109.544276 
L 397.791999 109.428937 
L 398.889903 109.476994 
L 399.987808 109.652059 
L 401.085713 109.656021 
L 403.281523 109.377043 
L 405.477333 109.595953 
L 406.575238 109.322355 
L 407.673143 109.37917 
L 408.771048 109.26114 
L 412.064762 109.526185 
L 413.162667 109.465693 
L 414.260572 109.653747 
L 416.456382 109.592362 
L 417.554287 109.476817 
L 421.945906 109.918709 
L 423.043811 109.713528 
L 424.141716 109.915089 
L 425.239621 109.828131 
L 426.337526 109.896102 
L 429.631241 109.630766 
L 431.82705 109.670541 
L 432.924955 109.940034 
L 434.02286 109.906426 
L 436.21867 110.094264 
L 437.316575 110.411686 
L 441.708195 110.457836 
L 443.904004 110.640348 
L 449.393529 110.626443 
L 450.491434 110.793042 
L 453.785148 110.370973 
L 454.883053 110.534011 
L 457.078863 110.499266 
L 459.274673 110.909956 
L 461.470483 111.103616 
L 462.568388 110.948321 
L 463.666293 110.924494 
L 464.764197 111.188355 
L 465.862102 111.619709 
L 466.960007 111.518869 
L 469.155817 111.580642 
L 471.351627 111.41834 
L 472.449532 111.083847 
L 480.134866 110.964925 
L 482.330676 110.77327 
L 484.526486 111.092203 
L 488.918105 111.436718 
L 491.113915 111.174985 
L 492.21182 111.16487 
L 493.309725 111.369979 
L 499.897154 111.207606 
L 500.995059 111.162494 
L 502.092964 110.960036 
L 504.288774 111.254103 
L 506.484584 110.990195 
L 508.680394 110.800956 
L 511.974108 110.76929 
L 518.561538 110.350947 
L 519.659443 110.21924 
L 520.757347 110.409329 
L 522.953157 110.167753 
L 524.051062 110.312091 
L 525.148967 110.767473 
L 526.246872 110.887509 
L 527.344777 110.848642 
L 528.442682 111.050526 
L 530.638492 111.030242 
L 533.932206 111.284079 
L 535.030111 111.152718 
L 536.128016 111.253803 
L 537.225921 111.239879 
L 539.421731 111.598266 
L 540.519636 111.732859 
L 541.617541 111.516366 
L 542.715445 111.513969 
L 543.81335 111.650541 
L 546.00916 111.633365 
L 547.107065 111.777938 
L 549.302875 111.625402 
L 550.40078 111.612897 
L 553.694494 111.223813 
L 554.792399 111.418457 
L 556.988209 111.367477 
L 559.184019 111.46123 
L 560.281924 111.592884 
L 561.379829 111.446895 
L 562.477734 111.555233 
L 564.673543 111.370296 
L 569.065163 111.60752 
L 571.260973 111.705182 
L 573.456783 111.6742 
L 574.554688 111.919768 
L 577.848402 112.036863 
L 578.946307 112.008617 
L 580.044212 111.843442 
L 582.240022 111.952284 
L 583.337927 111.786369 
L 586.631641 111.955604 
L 587.729546 111.857973 
L 588.827451 111.596057 
L 592.121166 111.961837 
L 593.219071 111.769882 
L 595.414881 111.863659 
L 596.512786 111.745778 
L 597.61069 111.852599 
L 599.8065 111.849395 
L 602.00231 111.82289 
L 604.19812 111.819072 
L 605.296025 111.533523 
L 607.491835 111.41183 
L 608.589739 111.525845 
L 610.785549 111.234177 
L 611.883454 111.178639 
L 612.981359 110.952897 
L 615.177169 110.935575 
L 617.372979 110.730951 
L 618.470884 110.493012 
L 619.568788 110.401853 
L 621.764598 110.411428 
L 625.058313 110.365959 
L 626.156218 110.579735 
L 628.352028 110.618609 
L 632.743647 111.423575 
L 638.233172 111.418307 
L 639.331077 111.159197 
L 640.428982 111.287344 
L 644.820601 111.182721 
L 647.016411 111.348488 
L 653.60384 111.845866 
L 655.79965 111.598055 
L 661.289175 112.068738 
L 663.484985 111.794907 
L 664.582889 111.875109 
L 666.778699 111.909406 
L 668.974509 112.104703 
L 673.366129 111.847474 
L 676.659843 111.620557 
L 677.757748 111.788174 
L 678.855653 111.652325 
L 679.953558 111.809773 
L 681.051463 111.734286 
L 683.247273 111.854945 
L 683.247273 111.854945 
" style="fill:none;stroke:#9467bd;stroke-linecap:square;stroke-width:2;"/>
   </g>
   <g id="line2d_21">
    <path clip-path="url(#p83bdcebc0c)" d="M 135.392727 111.825047 
L 683.247273 111.825047 
L 683.247273 111.825047 
" style="fill:none;stroke:#000000;stroke-dasharray:7.4,3.2;stroke-dashoffset:0;stroke-width:2;"/>
   </g>
   <g id="patch_3">
    <path d="M 108 512.64 
L 108 69.12 
" style="fill:none;stroke:#000000;stroke-linecap:square;stroke-linejoin:miter;stroke-width:0.8;"/>
   </g>
   <g id="patch_4">
    <path d="M 710.64 512.64 
L 710.64 69.12 
" style="fill:none;stroke:#000000;stroke-linecap:square;stroke-linejoin:miter;stroke-width:0.8;"/>
   </g>
   <g id="patch_5">
    <path d="M 108 512.64 
L 710.64 512.64 
" style="fill:none;stroke:#000000;stroke-linecap:square;stroke-linejoin:miter;stroke-width:0.8;"/>
   </g>
   <g id="patch_6">
    <path d="M 108 69.12 
L 710.64 69.12 
" style="fill:none;stroke:#000000;stroke-linecap:square;stroke-linejoin:miter;stroke-width:0.8;"/>
   </g>
   <g id="text_14">
    <!-- TD estimates through time vs true values averaged over 50 environments -->
    <g transform="translate(96.788812 63.12)scale(0.168 -0.168)">
     <defs>
      <path d="M -19 4666 
L 3928 4666 
L 3928 4134 
L 2272 4134 
L 2272 0 
L 1638 0 
L 1638 4134 
L -19 4134 
L -19 4666 
z
" id="DejaVuSans-54" transform="scale(0.015625)"/>
      <path d="M 1259 4147 
L 1259 519 
L 2022 519 
Q 2988 519 3436 956 
Q 3884 1394 3884 2338 
Q 3884 3275 3436 3711 
Q 2988 4147 2022 4147 
L 1259 4147 
z
M 628 4666 
L 1925 4666 
Q 3281 4666 3915 4102 
Q 4550 3538 4550 2338 
Q 4550 1131 3912 565 
Q 3275 0 1925 0 
L 628 0 
L 628 4666 
z
" id="DejaVuSans-44" transform="scale(0.015625)"/>
      <path d="M 3328 2828 
Q 3544 3216 3844 3400 
Q 4144 3584 4550 3584 
Q 5097 3584 5394 3201 
Q 5691 2819 5691 2113 
L 5691 0 
L 5113 0 
L 5113 2094 
Q 5113 2597 4934 2840 
Q 4756 3084 4391 3084 
Q 3944 3084 3684 2787 
Q 3425 2491 3425 1978 
L 3425 0 
L 2847 0 
L 2847 2094 
Q 2847 2600 2669 2842 
Q 2491 3084 2119 3084 
Q 1678 3084 1418 2786 
Q 1159 2488 1159 1978 
L 1159 0 
L 581 0 
L 581 3500 
L 1159 3500 
L 1159 2956 
Q 1356 3278 1631 3431 
Q 1906 3584 2284 3584 
Q 2666 3584 2933 3390 
Q 3200 3197 3328 2828 
z
" id="DejaVuSans-6d" transform="scale(0.015625)"/>
      <path d="M 3513 2113 
L 3513 0 
L 2938 0 
L 2938 2094 
Q 2938 2591 2744 2837 
Q 2550 3084 2163 3084 
Q 1697 3084 1428 2787 
Q 1159 2491 1159 1978 
L 1159 0 
L 581 0 
L 581 4863 
L 1159 4863 
L 1159 2956 
Q 1366 3272 1645 3428 
Q 1925 3584 2291 3584 
Q 2894 3584 3203 3211 
Q 3513 2838 3513 2113 
z
" id="DejaVuSans-68" transform="scale(0.015625)"/>
      <path d="M 2631 2963 
Q 2534 3019 2420 3045 
Q 2306 3072 2169 3072 
Q 1681 3072 1420 2755 
Q 1159 2438 1159 1844 
L 1159 0 
L 581 0 
L 581 3500 
L 1159 3500 
L 1159 2956 
Q 1341 3275 1631 3429 
Q 1922 3584 2338 3584 
Q 2397 3584 2469 3576 
Q 2541 3569 2628 3553 
L 2631 2963 
z
" id="DejaVuSans-72" transform="scale(0.015625)"/>
      <path d="M 2906 1791 
Q 2906 2416 2648 2759 
Q 2391 3103 1925 3103 
Q 1463 3103 1205 2759 
Q 947 2416 947 1791 
Q 947 1169 1205 825 
Q 1463 481 1925 481 
Q 2391 481 2648 825 
Q 2906 1169 2906 1791 
z
M 3481 434 
Q 3481 -459 3084 -895 
Q 2688 -1331 1869 -1331 
Q 1566 -1331 1297 -1286 
Q 1028 -1241 775 -1147 
L 775 -588 
Q 1028 -725 1275 -790 
Q 1522 -856 1778 -856 
Q 2344 -856 2625 -561 
Q 2906 -266 2906 331 
L 2906 616 
Q 2728 306 2450 153 
Q 2172 0 1784 0 
Q 1141 0 747 490 
Q 353 981 353 1791 
Q 353 2603 747 3093 
Q 1141 3584 1784 3584 
Q 2172 3584 2450 3431 
Q 2728 3278 2906 2969 
L 2906 3500 
L 3481 3500 
L 3481 434 
z
" id="DejaVuSans-67" transform="scale(0.015625)"/>
      <path d="M 191 3500 
L 800 3500 
L 1894 563 
L 2988 3500 
L 3597 3500 
L 2284 0 
L 1503 0 
L 191 3500 
z
" id="DejaVuSans-76" transform="scale(0.015625)"/>
     </defs>
     <use xlink:href="#DejaVuSans-54"/>
     <use x="61.083984" xlink:href="#DejaVuSans-44"/>
     <use x="138.085938" xlink:href="#DejaVuSans-20"/>
     <use x="169.873047" xlink:href="#DejaVuSans-65"/>
     <use x="231.396484" xlink:href="#DejaVuSans-73"/>
     <use x="283.496094" xlink:href="#DejaVuSans-74"/>
     <use x="322.705078" xlink:href="#DejaVuSans-69"/>
     <use x="350.488281" xlink:href="#DejaVuSans-6d"/>
     <use x="447.900391" xlink:href="#DejaVuSans-61"/>
     <use x="509.179688" xlink:href="#DejaVuSans-74"/>
     <use x="548.388672" xlink:href="#DejaVuSans-65"/>
     <use x="609.912109" xlink:href="#DejaVuSans-73"/>
     <use x="662.011719" xlink:href="#DejaVuSans-20"/>
     <use x="693.798828" xlink:href="#DejaVuSans-74"/>
     <use x="733.007812" xlink:href="#DejaVuSans-68"/>
     <use x="796.386719" xlink:href="#DejaVuSans-72"/>
     <use x="835.25" xlink:href="#DejaVuSans-6f"/>
     <use x="896.431641" xlink:href="#DejaVuSans-75"/>
     <use x="959.810547" xlink:href="#DejaVuSans-67"/>
     <use x="1023.287109" xlink:href="#DejaVuSans-68"/>
     <use x="1086.666016" xlink:href="#DejaVuSans-20"/>
     <use x="1118.453125" xlink:href="#DejaVuSans-74"/>
     <use x="1157.662109" xlink:href="#DejaVuSans-69"/>
     <use x="1185.445312" xlink:href="#DejaVuSans-6d"/>
     <use x="1282.857422" xlink:href="#DejaVuSans-65"/>
     <use x="1344.380859" xlink:href="#DejaVuSans-20"/>
     <use x="1376.167969" xlink:href="#DejaVuSans-76"/>
     <use x="1435.347656" xlink:href="#DejaVuSans-73"/>
     <use x="1487.447266" xlink:href="#DejaVuSans-20"/>
     <use x="1519.234375" xlink:href="#DejaVuSans-74"/>
     <use x="1558.443359" xlink:href="#DejaVuSans-72"/>
     <use x="1599.556641" xlink:href="#DejaVuSans-75"/>
     <use x="1662.935547" xlink:href="#DejaVuSans-65"/>
     <use x="1724.458984" xlink:href="#DejaVuSans-20"/>
     <use x="1756.246094" xlink:href="#DejaVuSans-76"/>
     <use x="1815.425781" xlink:href="#DejaVuSans-61"/>
     <use x="1876.705078" xlink:href="#DejaVuSans-6c"/>
     <use x="1904.488281" xlink:href="#DejaVuSans-75"/>
     <use x="1967.867188" xlink:href="#DejaVuSans-65"/>
     <use x="2029.390625" xlink:href="#DejaVuSans-73"/>
     <use x="2081.490234" xlink:href="#DejaVuSans-20"/>
     <use x="2113.277344" xlink:href="#DejaVuSans-61"/>
     <use x="2174.556641" xlink:href="#DejaVuSans-76"/>
     <use x="2233.736328" xlink:href="#DejaVuSans-65"/>
     <use x="2295.259766" xlink:href="#DejaVuSans-72"/>
     <use x="2336.373047" xlink:href="#DejaVuSans-61"/>
     <use x="2397.652344" xlink:href="#DejaVuSans-67"/>
     <use x="2461.128906" xlink:href="#DejaVuSans-65"/>
     <use x="2522.652344" xlink:href="#DejaVuSans-64"/>
     <use x="2586.128906" xlink:href="#DejaVuSans-20"/>
     <use x="2617.916016" xlink:href="#DejaVuSans-6f"/>
     <use x="2679.097656" xlink:href="#DejaVuSans-76"/>
     <use x="2738.277344" xlink:href="#DejaVuSans-65"/>
     <use x="2799.800781" xlink:href="#DejaVuSans-72"/>
     <use x="2840.914062" xlink:href="#DejaVuSans-20"/>
     <use x="2872.701172" xlink:href="#DejaVuSans-35"/>
     <use x="2936.324219" xlink:href="#DejaVuSans-30"/>
     <use x="2999.947266" xlink:href="#DejaVuSans-20"/>
     <use x="3031.734375" xlink:href="#DejaVuSans-65"/>
     <use x="3093.257812" xlink:href="#DejaVuSans-6e"/>
     <use x="3156.636719" xlink:href="#DejaVuSans-76"/>
     <use x="3215.816406" xlink:href="#DejaVuSans-69"/>
     <use x="3243.599609" xlink:href="#DejaVuSans-72"/>
     <use x="3282.462891" xlink:href="#DejaVuSans-6f"/>
     <use x="3343.644531" xlink:href="#DejaVuSans-6e"/>
     <use x="3407.023438" xlink:href="#DejaVuSans-6d"/>
     <use x="3504.435547" xlink:href="#DejaVuSans-65"/>
     <use x="3565.958984" xlink:href="#DejaVuSans-6e"/>
     <use x="3629.337891" xlink:href="#DejaVuSans-74"/>
     <use x="3668.546875" xlink:href="#DejaVuSans-73"/>
    </g>
   </g>
   <g id="legend_1">
    <g id="patch_7">
     <path d="M 720.44 395.726875 
L 820.673438 395.726875 
Q 823.473438 395.726875 823.473438 392.926875 
L 823.473438 188.833125 
Q 823.473438 186.033125 820.673438 186.033125 
L 720.44 186.033125 
Q 717.64 186.033125 717.64 188.833125 
L 717.64 392.926875 
Q 717.64 395.726875 720.44 395.726875 
z
" style="fill:#ffffff;opacity:0.8;stroke:#cccccc;stroke-linejoin:miter;"/>
    </g>
    <g id="line2d_22">
     <path d="M 723.24 197.370937 
L 751.24 197.370937 
" style="fill:none;stroke:#1f77b4;stroke-linecap:square;stroke-width:2;"/>
    </g>
    <g id="line2d_23"/>
    <g id="text_15">
     <!-- V(s=1) -->
     <g transform="translate(762.44 202.270938)scale(0.14 -0.14)">
      <defs>
       <path d="M 1984 4856 
Q 1566 4138 1362 3434 
Q 1159 2731 1159 2009 
Q 1159 1288 1364 580 
Q 1569 -128 1984 -844 
L 1484 -844 
Q 1016 -109 783 600 
Q 550 1309 550 2009 
Q 550 2706 781 3412 
Q 1013 4119 1484 4856 
L 1984 4856 
z
" id="DejaVuSans-28" transform="scale(0.015625)"/>
       <path d="M 678 2906 
L 4684 2906 
L 4684 2381 
L 678 2381 
L 678 2906 
z
M 678 1631 
L 4684 1631 
L 4684 1100 
L 678 1100 
L 678 1631 
z
" id="DejaVuSans-3d" transform="scale(0.015625)"/>
       <path d="M 513 4856 
L 1013 4856 
Q 1481 4119 1714 3412 
Q 1947 2706 1947 2009 
Q 1947 1309 1714 600 
Q 1481 -109 1013 -844 
L 513 -844 
Q 928 -128 1133 580 
Q 1338 1288 1338 2009 
Q 1338 2731 1133 3434 
Q 928 4138 513 4856 
z
" id="DejaVuSans-29" transform="scale(0.015625)"/>
      </defs>
      <use xlink:href="#DejaVuSans-56"/>
      <use x="68.408203" xlink:href="#DejaVuSans-28"/>
      <use x="107.421875" xlink:href="#DejaVuSans-73"/>
      <use x="159.521484" xlink:href="#DejaVuSans-3d"/>
      <use x="243.310547" xlink:href="#DejaVuSans-31"/>
      <use x="306.933594" xlink:href="#DejaVuSans-29"/>
     </g>
    </g>
    <g id="line2d_24">
     <path d="M 723.24 217.920312 
L 751.24 217.920312 
" style="fill:none;stroke:#000000;stroke-dasharray:7.4,3.2;stroke-dashoffset:0;stroke-width:2;"/>
    </g>
    <g id="line2d_25"/>
    <g id="text_16">
     <!-- V*(s=1) -->
     <g transform="translate(762.44 222.820312)scale(0.14 -0.14)">
      <defs>
       <path d="M 3009 3897 
L 1888 3291 
L 3009 2681 
L 2828 2375 
L 1778 3009 
L 1778 1831 
L 1422 1831 
L 1422 3009 
L 372 2375 
L 191 2681 
L 1313 3291 
L 191 3897 
L 372 4206 
L 1422 3572 
L 1422 4750 
L 1778 4750 
L 1778 3572 
L 2828 4206 
L 3009 3897 
z
" id="DejaVuSans-2a" transform="scale(0.015625)"/>
      </defs>
      <use xlink:href="#DejaVuSans-56"/>
      <use x="68.408203" xlink:href="#DejaVuSans-2a"/>
      <use x="118.408203" xlink:href="#DejaVuSans-28"/>
      <use x="157.421875" xlink:href="#DejaVuSans-73"/>
      <use x="209.521484" xlink:href="#DejaVuSans-3d"/>
      <use x="293.310547" xlink:href="#DejaVuSans-31"/>
      <use x="356.933594" xlink:href="#DejaVuSans-29"/>
     </g>
    </g>
    <g id="line2d_26">
     <path d="M 723.24 238.469688 
L 751.24 238.469688 
" style="fill:none;stroke:#ff7f0e;stroke-linecap:square;stroke-width:2;"/>
    </g>
    <g id="line2d_27"/>
    <g id="text_17">
     <!-- V(s=2) -->
     <g transform="translate(762.44 243.369688)scale(0.14 -0.14)">
      <use xlink:href="#DejaVuSans-56"/>
      <use x="68.408203" xlink:href="#DejaVuSans-28"/>
      <use x="107.421875" xlink:href="#DejaVuSans-73"/>
      <use x="159.521484" xlink:href="#DejaVuSans-3d"/>
      <use x="243.310547" xlink:href="#DejaVuSans-32"/>
      <use x="306.933594" xlink:href="#DejaVuSans-29"/>
     </g>
    </g>
    <g id="line2d_28">
     <path d="M 723.24 259.019063 
L 751.24 259.019063 
" style="fill:none;stroke:#000000;stroke-dasharray:7.4,3.2;stroke-dashoffset:0;stroke-width:2;"/>
    </g>
    <g id="line2d_29"/>
    <g id="text_18">
     <!-- V*(s=2) -->
     <g transform="translate(762.44 263.919062)scale(0.14 -0.14)">
      <use xlink:href="#DejaVuSans-56"/>
      <use x="68.408203" xlink:href="#DejaVuSans-2a"/>
      <use x="118.408203" xlink:href="#DejaVuSans-28"/>
      <use x="157.421875" xlink:href="#DejaVuSans-73"/>
      <use x="209.521484" xlink:href="#DejaVuSans-3d"/>
      <use x="293.310547" xlink:href="#DejaVuSans-32"/>
      <use x="356.933594" xlink:href="#DejaVuSans-29"/>
     </g>
    </g>
    <g id="line2d_30">
     <path d="M 723.24 279.568438 
L 751.24 279.568438 
" style="fill:none;stroke:#2ca02c;stroke-linecap:square;stroke-width:2;"/>
    </g>
    <g id="line2d_31"/>
    <g id="text_19">
     <!-- V(s=3) -->
     <g transform="translate(762.44 284.468437)scale(0.14 -0.14)">
      <use xlink:href="#DejaVuSans-56"/>
      <use x="68.408203" xlink:href="#DejaVuSans-28"/>
      <use x="107.421875" xlink:href="#DejaVuSans-73"/>
      <use x="159.521484" xlink:href="#DejaVuSans-3d"/>
      <use x="243.310547" xlink:href="#DejaVuSans-33"/>
      <use x="306.933594" xlink:href="#DejaVuSans-29"/>
     </g>
    </g>
    <g id="line2d_32">
     <path d="M 723.24 300.117813 
L 751.24 300.117813 
" style="fill:none;stroke:#000000;stroke-dasharray:7.4,3.2;stroke-dashoffset:0;stroke-width:2;"/>
    </g>
    <g id="line2d_33"/>
    <g id="text_20">
     <!-- V*(s=3) -->
     <g transform="translate(762.44 305.017812)scale(0.14 -0.14)">
      <use xlink:href="#DejaVuSans-56"/>
      <use x="68.408203" xlink:href="#DejaVuSans-2a"/>
      <use x="118.408203" xlink:href="#DejaVuSans-28"/>
      <use x="157.421875" xlink:href="#DejaVuSans-73"/>
      <use x="209.521484" xlink:href="#DejaVuSans-3d"/>
      <use x="293.310547" xlink:href="#DejaVuSans-33"/>
      <use x="356.933594" xlink:href="#DejaVuSans-29"/>
     </g>
    </g>
    <g id="line2d_34">
     <path d="M 723.24 320.667188 
L 751.24 320.667188 
" style="fill:none;stroke:#d62728;stroke-linecap:square;stroke-width:2;"/>
    </g>
    <g id="line2d_35"/>
    <g id="text_21">
     <!-- V(s=4) -->
     <g transform="translate(762.44 325.567188)scale(0.14 -0.14)">
      <use xlink:href="#DejaVuSans-56"/>
      <use x="68.408203" xlink:href="#DejaVuSans-28"/>
      <use x="107.421875" xlink:href="#DejaVuSans-73"/>
      <use x="159.521484" xlink:href="#DejaVuSans-3d"/>
      <use x="243.310547" xlink:href="#DejaVuSans-34"/>
      <use x="306.933594" xlink:href="#DejaVuSans-29"/>
     </g>
    </g>
    <g id="line2d_36">
     <path d="M 723.24 341.216563 
L 751.24 341.216563 
" style="fill:none;stroke:#000000;stroke-dasharray:7.4,3.2;stroke-dashoffset:0;stroke-width:2;"/>
    </g>
    <g id="line2d_37"/>
    <g id="text_22">
     <!-- V*(s=4) -->
     <g transform="translate(762.44 346.116562)scale(0.14 -0.14)">
      <use xlink:href="#DejaVuSans-56"/>
      <use x="68.408203" xlink:href="#DejaVuSans-2a"/>
      <use x="118.408203" xlink:href="#DejaVuSans-28"/>
      <use x="157.421875" xlink:href="#DejaVuSans-73"/>
      <use x="209.521484" xlink:href="#DejaVuSans-3d"/>
      <use x="293.310547" xlink:href="#DejaVuSans-34"/>
      <use x="356.933594" xlink:href="#DejaVuSans-29"/>
     </g>
    </g>
    <g id="line2d_38">
     <path d="M 723.24 361.765938 
L 751.24 361.765938 
" style="fill:none;stroke:#9467bd;stroke-linecap:square;stroke-width:2;"/>
    </g>
    <g id="line2d_39"/>
    <g id="text_23">
     <!-- V(s=5) -->
     <g transform="translate(762.44 366.665938)scale(0.14 -0.14)">
      <use xlink:href="#DejaVuSans-56"/>
      <use x="68.408203" xlink:href="#DejaVuSans-28"/>
      <use x="107.421875" xlink:href="#DejaVuSans-73"/>
      <use x="159.521484" xlink:href="#DejaVuSans-3d"/>
      <use x="243.310547" xlink:href="#DejaVuSans-35"/>
      <use x="306.933594" xlink:href="#DejaVuSans-29"/>
     </g>
    </g>
    <g id="line2d_40">
     <path d="M 723.24 382.315313 
L 751.24 382.315313 
" style="fill:none;stroke:#000000;stroke-dasharray:7.4,3.2;stroke-dashoffset:0;stroke-width:2;"/>
    </g>
    <g id="line2d_41"/>
    <g id="text_24">
     <!-- V*(s=5) -->
     <g transform="translate(762.44 387.215312)scale(0.14 -0.14)">
      <use xlink:href="#DejaVuSans-56"/>
      <use x="68.408203" xlink:href="#DejaVuSans-2a"/>
      <use x="118.408203" xlink:href="#DejaVuSans-28"/>
      <use x="157.421875" xlink:href="#DejaVuSans-73"/>
      <use x="209.521484" xlink:href="#DejaVuSans-3d"/>
      <use x="293.310547" xlink:href="#DejaVuSans-35"/>
      <use x="356.933594" xlink:href="#DejaVuSans-29"/>
     </g>
    </g>
   </g>
  </g>
 </g>
 <defs>
  <clipPath id="p83bdcebc0c">
   <rect height="443.52" width="602.64" x="108" y="69.12"/>
  </clipPath>
 </defs>
</svg>
