<?xml version="1.0" encoding="utf-8" standalone="no"?>
<!DOCTYPE svg PUBLIC "-//W3C//DTD SVG 1.1//EN"
  "http://www.w3.org/Graphics/SVG/1.1/DTD/svg11.dtd">
<svg height="576pt" version="1.1" viewBox="0 0 864 576" width="864pt" xmlns="http://www.w3.org/2000/svg" xmlns:xlink="http://www.w3.org/1999/xlink">
 <metadata>
  <rdf:RDF xmlns:cc="http://creativecommons.org/ns#" xmlns:dc="http://purl.org/dc/elements/1.1/" xmlns:rdf="http://www.w3.org/1999/02/22-rdf-syntax-ns#">
   <cc:Work>
    <dc:type rdf:resource="http://purl.org/dc/dcmitype/StillImage"/>
    <dc:date>2021-09-10T14:37:04.913461</dc:date>
    <dc:format>image/svg+xml</dc:format>
    <dc:creator>
     <cc:Agent>
      <dc:title>Matplotlib v3.4.3, https://matplotlib.org/</dc:title>
     </cc:Agent>
    </dc:creator>
   </cc:Work>
  </rdf:RDF>
 </metadata>
 <defs>
  <style type="text/css">*{stroke-linecap:butt;stroke-linejoin:round;}</style>
 </defs>
 <g id="figure_1">
  <g id="patch_1">
   <path d="M 0 576 
L 864 576 
L 864 0 
L 0 0 
z
" style="fill:#ffffff;"/>
  </g>
  <g id="axes_1">
   <g id="patch_2">
    <path d="M 108 512.64 
L 777.6 512.64 
L 777.6 69.12 
L 108 69.12 
z
" style="fill:#ffffff;"/>
   </g>
   <g id="matplotlib.axis_1">
    <g id="xtick_1">
     <g id="line2d_1">
      <defs>
       <path d="M 0 0 
L 0 3.5 
" id="mb0581816fa" style="stroke:#000000;stroke-width:0.8;"/>
      </defs>
      <g>
       <use style="stroke:#000000;stroke-width:0.8;" x="138.436364" xlink:href="#mb0581816fa" y="512.64"/>
      </g>
     </g>
     <g id="text_1">
      <!-- $\mathdefault{10^{0}}$ -->
      <g transform="translate(129.636364 527.238438)scale(0.1 -0.1)">
       <defs>
        <path d="M 794 531 
L 1825 531 
L 1825 4091 
L 703 3866 
L 703 4441 
L 1819 4666 
L 2450 4666 
L 2450 531 
L 3481 531 
L 3481 0 
L 794 0 
L 794 531 
z
" id="DejaVuSans-31" transform="scale(0.015625)"/>
        <path d="M 2034 4250 
Q 1547 4250 1301 3770 
Q 1056 3291 1056 2328 
Q 1056 1369 1301 889 
Q 1547 409 2034 409 
Q 2525 409 2770 889 
Q 3016 1369 3016 2328 
Q 3016 3291 2770 3770 
Q 2525 4250 2034 4250 
z
M 2034 4750 
Q 2819 4750 3233 4129 
Q 3647 3509 3647 2328 
Q 3647 1150 3233 529 
Q 2819 -91 2034 -91 
Q 1250 -91 836 529 
Q 422 1150 422 2328 
Q 422 3509 836 4129 
Q 1250 4750 2034 4750 
z
" id="DejaVuSans-30" transform="scale(0.015625)"/>
       </defs>
       <use transform="translate(0 0.765625)" xlink:href="#DejaVuSans-31"/>
       <use transform="translate(63.623047 0.765625)" xlink:href="#DejaVuSans-30"/>
       <use transform="translate(128.203125 39.046875)scale(0.7)" xlink:href="#DejaVuSans-30"/>
      </g>
     </g>
    </g>
    <g id="xtick_2">
     <g id="line2d_2">
      <g>
       <use style="stroke:#000000;stroke-width:0.8;" x="364.049628" xlink:href="#mb0581816fa" y="512.64"/>
      </g>
     </g>
     <g id="text_2">
      <!-- $\mathdefault{10^{1}}$ -->
      <g transform="translate(355.249628 527.238438)scale(0.1 -0.1)">
       <use transform="translate(0 0.684375)" xlink:href="#DejaVuSans-31"/>
       <use transform="translate(63.623047 0.684375)" xlink:href="#DejaVuSans-30"/>
       <use transform="translate(128.203125 38.965625)scale(0.7)" xlink:href="#DejaVuSans-31"/>
      </g>
     </g>
    </g>
    <g id="xtick_3">
     <g id="line2d_3">
      <g>
       <use style="stroke:#000000;stroke-width:0.8;" x="589.662893" xlink:href="#mb0581816fa" y="512.64"/>
      </g>
     </g>
     <g id="text_3">
      <!-- $\mathdefault{10^{2}}$ -->
      <g transform="translate(580.862893 527.238438)scale(0.1 -0.1)">
       <defs>
        <path d="M 1228 531 
L 3431 531 
L 3431 0 
L 469 0 
L 469 531 
Q 828 903 1448 1529 
Q 2069 2156 2228 2338 
Q 2531 2678 2651 2914 
Q 2772 3150 2772 3378 
Q 2772 3750 2511 3984 
Q 2250 4219 1831 4219 
Q 1534 4219 1204 4116 
Q 875 4013 500 3803 
L 500 4441 
Q 881 4594 1212 4672 
Q 1544 4750 1819 4750 
Q 2544 4750 2975 4387 
Q 3406 4025 3406 3419 
Q 3406 3131 3298 2873 
Q 3191 2616 2906 2266 
Q 2828 2175 2409 1742 
Q 1991 1309 1228 531 
z
" id="DejaVuSans-32" transform="scale(0.015625)"/>
       </defs>
       <use transform="translate(0 0.765625)" xlink:href="#DejaVuSans-31"/>
       <use transform="translate(63.623047 0.765625)" xlink:href="#DejaVuSans-30"/>
       <use transform="translate(128.203125 39.046875)scale(0.7)" xlink:href="#DejaVuSans-32"/>
      </g>
     </g>
    </g>
    <g id="xtick_4">
     <g id="line2d_4">
      <defs>
       <path d="M 0 0 
L 0 2 
" id="m79f6988b86" style="stroke:#000000;stroke-width:0.6;"/>
      </defs>
      <g>
       <use style="stroke:#000000;stroke-width:0.6;" x="116.572179" xlink:href="#m79f6988b86" y="512.64"/>
      </g>
     </g>
    </g>
    <g id="xtick_5">
     <g id="line2d_5">
      <g>
       <use style="stroke:#000000;stroke-width:0.6;" x="128.112867" xlink:href="#m79f6988b86" y="512.64"/>
      </g>
     </g>
    </g>
    <g id="xtick_6">
     <g id="line2d_6">
      <g>
       <use style="stroke:#000000;stroke-width:0.6;" x="206.352724" xlink:href="#m79f6988b86" y="512.64"/>
      </g>
     </g>
    </g>
    <g id="xtick_7">
     <g id="line2d_7">
      <g>
       <use style="stroke:#000000;stroke-width:0.6;" x="246.081248" xlink:href="#m79f6988b86" y="512.64"/>
      </g>
     </g>
    </g>
    <g id="xtick_8">
     <g id="line2d_8">
      <g>
       <use style="stroke:#000000;stroke-width:0.6;" x="274.269084" xlink:href="#m79f6988b86" y="512.64"/>
      </g>
     </g>
    </g>
    <g id="xtick_9">
     <g id="line2d_9">
      <g>
       <use style="stroke:#000000;stroke-width:0.6;" x="296.133268" xlink:href="#m79f6988b86" y="512.64"/>
      </g>
     </g>
    </g>
    <g id="xtick_10">
     <g id="line2d_10">
      <g>
       <use style="stroke:#000000;stroke-width:0.6;" x="313.997608" xlink:href="#m79f6988b86" y="512.64"/>
      </g>
     </g>
    </g>
    <g id="xtick_11">
     <g id="line2d_11">
      <g>
       <use style="stroke:#000000;stroke-width:0.6;" x="329.101691" xlink:href="#m79f6988b86" y="512.64"/>
      </g>
     </g>
    </g>
    <g id="xtick_12">
     <g id="line2d_12">
      <g>
       <use style="stroke:#000000;stroke-width:0.6;" x="342.185444" xlink:href="#m79f6988b86" y="512.64"/>
      </g>
     </g>
    </g>
    <g id="xtick_13">
     <g id="line2d_13">
      <g>
       <use style="stroke:#000000;stroke-width:0.6;" x="353.726132" xlink:href="#m79f6988b86" y="512.64"/>
      </g>
     </g>
    </g>
    <g id="xtick_14">
     <g id="line2d_14">
      <g>
       <use style="stroke:#000000;stroke-width:0.6;" x="431.965988" xlink:href="#m79f6988b86" y="512.64"/>
      </g>
     </g>
    </g>
    <g id="xtick_15">
     <g id="line2d_15">
      <g>
       <use style="stroke:#000000;stroke-width:0.6;" x="471.694512" xlink:href="#m79f6988b86" y="512.64"/>
      </g>
     </g>
    </g>
    <g id="xtick_16">
     <g id="line2d_16">
      <g>
       <use style="stroke:#000000;stroke-width:0.6;" x="499.882349" xlink:href="#m79f6988b86" y="512.64"/>
      </g>
     </g>
    </g>
    <g id="xtick_17">
     <g id="line2d_17">
      <g>
       <use style="stroke:#000000;stroke-width:0.6;" x="521.746533" xlink:href="#m79f6988b86" y="512.64"/>
      </g>
     </g>
    </g>
    <g id="xtick_18">
     <g id="line2d_18">
      <g>
       <use style="stroke:#000000;stroke-width:0.6;" x="539.610872" xlink:href="#m79f6988b86" y="512.64"/>
      </g>
     </g>
    </g>
    <g id="xtick_19">
     <g id="line2d_19">
      <g>
       <use style="stroke:#000000;stroke-width:0.6;" x="554.714956" xlink:href="#m79f6988b86" y="512.64"/>
      </g>
     </g>
    </g>
    <g id="xtick_20">
     <g id="line2d_20">
      <g>
       <use style="stroke:#000000;stroke-width:0.6;" x="567.798709" xlink:href="#m79f6988b86" y="512.64"/>
      </g>
     </g>
    </g>
    <g id="xtick_21">
     <g id="line2d_21">
      <g>
       <use style="stroke:#000000;stroke-width:0.6;" x="579.339396" xlink:href="#m79f6988b86" y="512.64"/>
      </g>
     </g>
    </g>
    <g id="xtick_22">
     <g id="line2d_22">
      <g>
       <use style="stroke:#000000;stroke-width:0.6;" x="657.579253" xlink:href="#m79f6988b86" y="512.64"/>
      </g>
     </g>
    </g>
    <g id="xtick_23">
     <g id="line2d_23">
      <g>
       <use style="stroke:#000000;stroke-width:0.6;" x="697.307777" xlink:href="#m79f6988b86" y="512.64"/>
      </g>
     </g>
    </g>
    <g id="xtick_24">
     <g id="line2d_24">
      <g>
       <use style="stroke:#000000;stroke-width:0.6;" x="725.495613" xlink:href="#m79f6988b86" y="512.64"/>
      </g>
     </g>
    </g>
    <g id="xtick_25">
     <g id="line2d_25">
      <g>
       <use style="stroke:#000000;stroke-width:0.6;" x="747.359798" xlink:href="#m79f6988b86" y="512.64"/>
      </g>
     </g>
    </g>
    <g id="xtick_26">
     <g id="line2d_26">
      <g>
       <use style="stroke:#000000;stroke-width:0.6;" x="765.224137" xlink:href="#m79f6988b86" y="512.64"/>
      </g>
     </g>
    </g>
    <g id="text_4">
     <!-- Episodes (log scale) -->
     <g transform="translate(392.971875 540.916563)scale(0.1 -0.1)">
      <defs>
       <path d="M 628 4666 
L 3578 4666 
L 3578 4134 
L 1259 4134 
L 1259 2753 
L 3481 2753 
L 3481 2222 
L 1259 2222 
L 1259 531 
L 3634 531 
L 3634 0 
L 628 0 
L 628 4666 
z
" id="DejaVuSans-45" transform="scale(0.015625)"/>
       <path d="M 1159 525 
L 1159 -1331 
L 581 -1331 
L 581 3500 
L 1159 3500 
L 1159 2969 
Q 1341 3281 1617 3432 
Q 1894 3584 2278 3584 
Q 2916 3584 3314 3078 
Q 3713 2572 3713 1747 
Q 3713 922 3314 415 
Q 2916 -91 2278 -91 
Q 1894 -91 1617 61 
Q 1341 213 1159 525 
z
M 3116 1747 
Q 3116 2381 2855 2742 
Q 2594 3103 2138 3103 
Q 1681 3103 1420 2742 
Q 1159 2381 1159 1747 
Q 1159 1113 1420 752 
Q 1681 391 2138 391 
Q 2594 391 2855 752 
Q 3116 1113 3116 1747 
z
" id="DejaVuSans-70" transform="scale(0.015625)"/>
       <path d="M 603 3500 
L 1178 3500 
L 1178 0 
L 603 0 
L 603 3500 
z
M 603 4863 
L 1178 4863 
L 1178 4134 
L 603 4134 
L 603 4863 
z
" id="DejaVuSans-69" transform="scale(0.015625)"/>
       <path d="M 2834 3397 
L 2834 2853 
Q 2591 2978 2328 3040 
Q 2066 3103 1784 3103 
Q 1356 3103 1142 2972 
Q 928 2841 928 2578 
Q 928 2378 1081 2264 
Q 1234 2150 1697 2047 
L 1894 2003 
Q 2506 1872 2764 1633 
Q 3022 1394 3022 966 
Q 3022 478 2636 193 
Q 2250 -91 1575 -91 
Q 1294 -91 989 -36 
Q 684 19 347 128 
L 347 722 
Q 666 556 975 473 
Q 1284 391 1588 391 
Q 1994 391 2212 530 
Q 2431 669 2431 922 
Q 2431 1156 2273 1281 
Q 2116 1406 1581 1522 
L 1381 1569 
Q 847 1681 609 1914 
Q 372 2147 372 2553 
Q 372 3047 722 3315 
Q 1072 3584 1716 3584 
Q 2034 3584 2315 3537 
Q 2597 3491 2834 3397 
z
" id="DejaVuSans-73" transform="scale(0.015625)"/>
       <path d="M 1959 3097 
Q 1497 3097 1228 2736 
Q 959 2375 959 1747 
Q 959 1119 1226 758 
Q 1494 397 1959 397 
Q 2419 397 2687 759 
Q 2956 1122 2956 1747 
Q 2956 2369 2687 2733 
Q 2419 3097 1959 3097 
z
M 1959 3584 
Q 2709 3584 3137 3096 
Q 3566 2609 3566 1747 
Q 3566 888 3137 398 
Q 2709 -91 1959 -91 
Q 1206 -91 779 398 
Q 353 888 353 1747 
Q 353 2609 779 3096 
Q 1206 3584 1959 3584 
z
" id="DejaVuSans-6f" transform="scale(0.015625)"/>
       <path d="M 2906 2969 
L 2906 4863 
L 3481 4863 
L 3481 0 
L 2906 0 
L 2906 525 
Q 2725 213 2448 61 
Q 2172 -91 1784 -91 
Q 1150 -91 751 415 
Q 353 922 353 1747 
Q 353 2572 751 3078 
Q 1150 3584 1784 3584 
Q 2172 3584 2448 3432 
Q 2725 3281 2906 2969 
z
M 947 1747 
Q 947 1113 1208 752 
Q 1469 391 1925 391 
Q 2381 391 2643 752 
Q 2906 1113 2906 1747 
Q 2906 2381 2643 2742 
Q 2381 3103 1925 3103 
Q 1469 3103 1208 2742 
Q 947 2381 947 1747 
z
" id="DejaVuSans-64" transform="scale(0.015625)"/>
       <path d="M 3597 1894 
L 3597 1613 
L 953 1613 
Q 991 1019 1311 708 
Q 1631 397 2203 397 
Q 2534 397 2845 478 
Q 3156 559 3463 722 
L 3463 178 
Q 3153 47 2828 -22 
Q 2503 -91 2169 -91 
Q 1331 -91 842 396 
Q 353 884 353 1716 
Q 353 2575 817 3079 
Q 1281 3584 2069 3584 
Q 2775 3584 3186 3129 
Q 3597 2675 3597 1894 
z
M 3022 2063 
Q 3016 2534 2758 2815 
Q 2500 3097 2075 3097 
Q 1594 3097 1305 2825 
Q 1016 2553 972 2059 
L 3022 2063 
z
" id="DejaVuSans-65" transform="scale(0.015625)"/>
       <path id="DejaVuSans-20" transform="scale(0.015625)"/>
       <path d="M 1984 4856 
Q 1566 4138 1362 3434 
Q 1159 2731 1159 2009 
Q 1159 1288 1364 580 
Q 1569 -128 1984 -844 
L 1484 -844 
Q 1016 -109 783 600 
Q 550 1309 550 2009 
Q 550 2706 781 3412 
Q 1013 4119 1484 4856 
L 1984 4856 
z
" id="DejaVuSans-28" transform="scale(0.015625)"/>
       <path d="M 603 4863 
L 1178 4863 
L 1178 0 
L 603 0 
L 603 4863 
z
" id="DejaVuSans-6c" transform="scale(0.015625)"/>
       <path d="M 2906 1791 
Q 2906 2416 2648 2759 
Q 2391 3103 1925 3103 
Q 1463 3103 1205 2759 
Q 947 2416 947 1791 
Q 947 1169 1205 825 
Q 1463 481 1925 481 
Q 2391 481 2648 825 
Q 2906 1169 2906 1791 
z
M 3481 434 
Q 3481 -459 3084 -895 
Q 2688 -1331 1869 -1331 
Q 1566 -1331 1297 -1286 
Q 1028 -1241 775 -1147 
L 775 -588 
Q 1028 -725 1275 -790 
Q 1522 -856 1778 -856 
Q 2344 -856 2625 -561 
Q 2906 -266 2906 331 
L 2906 616 
Q 2728 306 2450 153 
Q 2172 0 1784 0 
Q 1141 0 747 490 
Q 353 981 353 1791 
Q 353 2603 747 3093 
Q 1141 3584 1784 3584 
Q 2172 3584 2450 3431 
Q 2728 3278 2906 2969 
L 2906 3500 
L 3481 3500 
L 3481 434 
z
" id="DejaVuSans-67" transform="scale(0.015625)"/>
       <path d="M 3122 3366 
L 3122 2828 
Q 2878 2963 2633 3030 
Q 2388 3097 2138 3097 
Q 1578 3097 1268 2742 
Q 959 2388 959 1747 
Q 959 1106 1268 751 
Q 1578 397 2138 397 
Q 2388 397 2633 464 
Q 2878 531 3122 666 
L 3122 134 
Q 2881 22 2623 -34 
Q 2366 -91 2075 -91 
Q 1284 -91 818 406 
Q 353 903 353 1747 
Q 353 2603 823 3093 
Q 1294 3584 2113 3584 
Q 2378 3584 2631 3529 
Q 2884 3475 3122 3366 
z
" id="DejaVuSans-63" transform="scale(0.015625)"/>
       <path d="M 2194 1759 
Q 1497 1759 1228 1600 
Q 959 1441 959 1056 
Q 959 750 1161 570 
Q 1363 391 1709 391 
Q 2188 391 2477 730 
Q 2766 1069 2766 1631 
L 2766 1759 
L 2194 1759 
z
M 3341 1997 
L 3341 0 
L 2766 0 
L 2766 531 
Q 2569 213 2275 61 
Q 1981 -91 1556 -91 
Q 1019 -91 701 211 
Q 384 513 384 1019 
Q 384 1609 779 1909 
Q 1175 2209 1959 2209 
L 2766 2209 
L 2766 2266 
Q 2766 2663 2505 2880 
Q 2244 3097 1772 3097 
Q 1472 3097 1187 3025 
Q 903 2953 641 2809 
L 641 3341 
Q 956 3463 1253 3523 
Q 1550 3584 1831 3584 
Q 2591 3584 2966 3190 
Q 3341 2797 3341 1997 
z
" id="DejaVuSans-61" transform="scale(0.015625)"/>
       <path d="M 513 4856 
L 1013 4856 
Q 1481 4119 1714 3412 
Q 1947 2706 1947 2009 
Q 1947 1309 1714 600 
Q 1481 -109 1013 -844 
L 513 -844 
Q 928 -128 1133 580 
Q 1338 1288 1338 2009 
Q 1338 2731 1133 3434 
Q 928 4138 513 4856 
z
" id="DejaVuSans-29" transform="scale(0.015625)"/>
      </defs>
      <use xlink:href="#DejaVuSans-45"/>
      <use x="63.183594" xlink:href="#DejaVuSans-70"/>
      <use x="126.660156" xlink:href="#DejaVuSans-69"/>
      <use x="154.443359" xlink:href="#DejaVuSans-73"/>
      <use x="206.542969" xlink:href="#DejaVuSans-6f"/>
      <use x="267.724609" xlink:href="#DejaVuSans-64"/>
      <use x="331.201172" xlink:href="#DejaVuSans-65"/>
      <use x="392.724609" xlink:href="#DejaVuSans-73"/>
      <use x="444.824219" xlink:href="#DejaVuSans-20"/>
      <use x="476.611328" xlink:href="#DejaVuSans-28"/>
      <use x="515.625" xlink:href="#DejaVuSans-6c"/>
      <use x="543.408203" xlink:href="#DejaVuSans-6f"/>
      <use x="604.589844" xlink:href="#DejaVuSans-67"/>
      <use x="668.066406" xlink:href="#DejaVuSans-20"/>
      <use x="699.853516" xlink:href="#DejaVuSans-73"/>
      <use x="751.953125" xlink:href="#DejaVuSans-63"/>
      <use x="806.933594" xlink:href="#DejaVuSans-61"/>
      <use x="868.212891" xlink:href="#DejaVuSans-6c"/>
      <use x="895.996094" xlink:href="#DejaVuSans-65"/>
      <use x="957.519531" xlink:href="#DejaVuSans-29"/>
     </g>
    </g>
   </g>
   <g id="matplotlib.axis_2">
    <g id="ytick_1">
     <g id="line2d_27">
      <defs>
       <path d="M 0 0 
L -3.5 0 
" id="mef4b3be2a4" style="stroke:#000000;stroke-width:0.8;"/>
      </defs>
      <g>
       <use style="stroke:#000000;stroke-width:0.8;" x="108" xlink:href="#mef4b3be2a4" y="507.171451"/>
      </g>
     </g>
     <g id="text_5">
      <!-- 0.0 -->
      <g transform="translate(85.096875 510.97067)scale(0.1 -0.1)">
       <defs>
        <path d="M 684 794 
L 1344 794 
L 1344 0 
L 684 0 
L 684 794 
z
" id="DejaVuSans-2e" transform="scale(0.015625)"/>
       </defs>
       <use xlink:href="#DejaVuSans-30"/>
       <use x="63.623047" xlink:href="#DejaVuSans-2e"/>
       <use x="95.410156" xlink:href="#DejaVuSans-30"/>
      </g>
     </g>
    </g>
    <g id="ytick_2">
     <g id="line2d_28">
      <g>
       <use style="stroke:#000000;stroke-width:0.8;" x="108" xlink:href="#mef4b3be2a4" y="422.179581"/>
      </g>
     </g>
     <g id="text_6">
      <!-- 0.2 -->
      <g transform="translate(85.096875 425.9788)scale(0.1 -0.1)">
       <use xlink:href="#DejaVuSans-30"/>
       <use x="63.623047" xlink:href="#DejaVuSans-2e"/>
       <use x="95.410156" xlink:href="#DejaVuSans-32"/>
      </g>
     </g>
    </g>
    <g id="ytick_3">
     <g id="line2d_29">
      <g>
       <use style="stroke:#000000;stroke-width:0.8;" x="108" xlink:href="#mef4b3be2a4" y="337.187711"/>
      </g>
     </g>
     <g id="text_7">
      <!-- 0.4 -->
      <g transform="translate(85.096875 340.98693)scale(0.1 -0.1)">
       <defs>
        <path d="M 2419 4116 
L 825 1625 
L 2419 1625 
L 2419 4116 
z
M 2253 4666 
L 3047 4666 
L 3047 1625 
L 3713 1625 
L 3713 1100 
L 3047 1100 
L 3047 0 
L 2419 0 
L 2419 1100 
L 313 1100 
L 313 1709 
L 2253 4666 
z
" id="DejaVuSans-34" transform="scale(0.015625)"/>
       </defs>
       <use xlink:href="#DejaVuSans-30"/>
       <use x="63.623047" xlink:href="#DejaVuSans-2e"/>
       <use x="95.410156" xlink:href="#DejaVuSans-34"/>
      </g>
     </g>
    </g>
    <g id="ytick_4">
     <g id="line2d_30">
      <g>
       <use style="stroke:#000000;stroke-width:0.8;" x="108" xlink:href="#mef4b3be2a4" y="252.195841"/>
      </g>
     </g>
     <g id="text_8">
      <!-- 0.6 -->
      <g transform="translate(85.096875 255.995059)scale(0.1 -0.1)">
       <defs>
        <path d="M 2113 2584 
Q 1688 2584 1439 2293 
Q 1191 2003 1191 1497 
Q 1191 994 1439 701 
Q 1688 409 2113 409 
Q 2538 409 2786 701 
Q 3034 994 3034 1497 
Q 3034 2003 2786 2293 
Q 2538 2584 2113 2584 
z
M 3366 4563 
L 3366 3988 
Q 3128 4100 2886 4159 
Q 2644 4219 2406 4219 
Q 1781 4219 1451 3797 
Q 1122 3375 1075 2522 
Q 1259 2794 1537 2939 
Q 1816 3084 2150 3084 
Q 2853 3084 3261 2657 
Q 3669 2231 3669 1497 
Q 3669 778 3244 343 
Q 2819 -91 2113 -91 
Q 1303 -91 875 529 
Q 447 1150 447 2328 
Q 447 3434 972 4092 
Q 1497 4750 2381 4750 
Q 2619 4750 2861 4703 
Q 3103 4656 3366 4563 
z
" id="DejaVuSans-36" transform="scale(0.015625)"/>
       </defs>
       <use xlink:href="#DejaVuSans-30"/>
       <use x="63.623047" xlink:href="#DejaVuSans-2e"/>
       <use x="95.410156" xlink:href="#DejaVuSans-36"/>
      </g>
     </g>
    </g>
    <g id="ytick_5">
     <g id="line2d_31">
      <g>
       <use style="stroke:#000000;stroke-width:0.8;" x="108" xlink:href="#mef4b3be2a4" y="167.203971"/>
      </g>
     </g>
     <g id="text_9">
      <!-- 0.8 -->
      <g transform="translate(85.096875 171.003189)scale(0.1 -0.1)">
       <defs>
        <path d="M 2034 2216 
Q 1584 2216 1326 1975 
Q 1069 1734 1069 1313 
Q 1069 891 1326 650 
Q 1584 409 2034 409 
Q 2484 409 2743 651 
Q 3003 894 3003 1313 
Q 3003 1734 2745 1975 
Q 2488 2216 2034 2216 
z
M 1403 2484 
Q 997 2584 770 2862 
Q 544 3141 544 3541 
Q 544 4100 942 4425 
Q 1341 4750 2034 4750 
Q 2731 4750 3128 4425 
Q 3525 4100 3525 3541 
Q 3525 3141 3298 2862 
Q 3072 2584 2669 2484 
Q 3125 2378 3379 2068 
Q 3634 1759 3634 1313 
Q 3634 634 3220 271 
Q 2806 -91 2034 -91 
Q 1263 -91 848 271 
Q 434 634 434 1313 
Q 434 1759 690 2068 
Q 947 2378 1403 2484 
z
M 1172 3481 
Q 1172 3119 1398 2916 
Q 1625 2713 2034 2713 
Q 2441 2713 2670 2916 
Q 2900 3119 2900 3481 
Q 2900 3844 2670 4047 
Q 2441 4250 2034 4250 
Q 1625 4250 1398 4047 
Q 1172 3844 1172 3481 
z
" id="DejaVuSans-38" transform="scale(0.015625)"/>
       </defs>
       <use xlink:href="#DejaVuSans-30"/>
       <use x="63.623047" xlink:href="#DejaVuSans-2e"/>
       <use x="95.410156" xlink:href="#DejaVuSans-38"/>
      </g>
     </g>
    </g>
    <g id="ytick_6">
     <g id="line2d_32">
      <g>
       <use style="stroke:#000000;stroke-width:0.8;" x="108" xlink:href="#mef4b3be2a4" y="82.212101"/>
      </g>
     </g>
     <g id="text_10">
      <!-- 1.0 -->
      <g transform="translate(85.096875 86.011319)scale(0.1 -0.1)">
       <use xlink:href="#DejaVuSans-31"/>
       <use x="63.623047" xlink:href="#DejaVuSans-2e"/>
       <use x="95.410156" xlink:href="#DejaVuSans-30"/>
      </g>
     </g>
    </g>
    <g id="text_11">
     <!-- State-Value Function -->
     <g transform="translate(79.017187 342.210469)rotate(-90)scale(0.1 -0.1)">
      <defs>
       <path d="M 3425 4513 
L 3425 3897 
Q 3066 4069 2747 4153 
Q 2428 4238 2131 4238 
Q 1616 4238 1336 4038 
Q 1056 3838 1056 3469 
Q 1056 3159 1242 3001 
Q 1428 2844 1947 2747 
L 2328 2669 
Q 3034 2534 3370 2195 
Q 3706 1856 3706 1288 
Q 3706 609 3251 259 
Q 2797 -91 1919 -91 
Q 1588 -91 1214 -16 
Q 841 59 441 206 
L 441 856 
Q 825 641 1194 531 
Q 1563 422 1919 422 
Q 2459 422 2753 634 
Q 3047 847 3047 1241 
Q 3047 1584 2836 1778 
Q 2625 1972 2144 2069 
L 1759 2144 
Q 1053 2284 737 2584 
Q 422 2884 422 3419 
Q 422 4038 858 4394 
Q 1294 4750 2059 4750 
Q 2388 4750 2728 4690 
Q 3069 4631 3425 4513 
z
" id="DejaVuSans-53" transform="scale(0.015625)"/>
       <path d="M 1172 4494 
L 1172 3500 
L 2356 3500 
L 2356 3053 
L 1172 3053 
L 1172 1153 
Q 1172 725 1289 603 
Q 1406 481 1766 481 
L 2356 481 
L 2356 0 
L 1766 0 
Q 1100 0 847 248 
Q 594 497 594 1153 
L 594 3053 
L 172 3053 
L 172 3500 
L 594 3500 
L 594 4494 
L 1172 4494 
z
" id="DejaVuSans-74" transform="scale(0.015625)"/>
       <path d="M 313 2009 
L 1997 2009 
L 1997 1497 
L 313 1497 
L 313 2009 
z
" id="DejaVuSans-2d" transform="scale(0.015625)"/>
       <path d="M 1831 0 
L 50 4666 
L 709 4666 
L 2188 738 
L 3669 4666 
L 4325 4666 
L 2547 0 
L 1831 0 
z
" id="DejaVuSans-56" transform="scale(0.015625)"/>
       <path d="M 544 1381 
L 544 3500 
L 1119 3500 
L 1119 1403 
Q 1119 906 1312 657 
Q 1506 409 1894 409 
Q 2359 409 2629 706 
Q 2900 1003 2900 1516 
L 2900 3500 
L 3475 3500 
L 3475 0 
L 2900 0 
L 2900 538 
Q 2691 219 2414 64 
Q 2138 -91 1772 -91 
Q 1169 -91 856 284 
Q 544 659 544 1381 
z
M 1991 3584 
L 1991 3584 
z
" id="DejaVuSans-75" transform="scale(0.015625)"/>
       <path d="M 628 4666 
L 3309 4666 
L 3309 4134 
L 1259 4134 
L 1259 2759 
L 3109 2759 
L 3109 2228 
L 1259 2228 
L 1259 0 
L 628 0 
L 628 4666 
z
" id="DejaVuSans-46" transform="scale(0.015625)"/>
       <path d="M 3513 2113 
L 3513 0 
L 2938 0 
L 2938 2094 
Q 2938 2591 2744 2837 
Q 2550 3084 2163 3084 
Q 1697 3084 1428 2787 
Q 1159 2491 1159 1978 
L 1159 0 
L 581 0 
L 581 3500 
L 1159 3500 
L 1159 2956 
Q 1366 3272 1645 3428 
Q 1925 3584 2291 3584 
Q 2894 3584 3203 3211 
Q 3513 2838 3513 2113 
z
" id="DejaVuSans-6e" transform="scale(0.015625)"/>
      </defs>
      <use xlink:href="#DejaVuSans-53"/>
      <use x="63.476562" xlink:href="#DejaVuSans-74"/>
      <use x="102.685547" xlink:href="#DejaVuSans-61"/>
      <use x="163.964844" xlink:href="#DejaVuSans-74"/>
      <use x="203.173828" xlink:href="#DejaVuSans-65"/>
      <use x="264.697266" xlink:href="#DejaVuSans-2d"/>
      <use x="294.90625" xlink:href="#DejaVuSans-56"/>
      <use x="355.564453" xlink:href="#DejaVuSans-61"/>
      <use x="416.84375" xlink:href="#DejaVuSans-6c"/>
      <use x="444.626953" xlink:href="#DejaVuSans-75"/>
      <use x="508.005859" xlink:href="#DejaVuSans-65"/>
      <use x="569.529297" xlink:href="#DejaVuSans-20"/>
      <use x="601.316406" xlink:href="#DejaVuSans-46"/>
      <use x="653.335938" xlink:href="#DejaVuSans-75"/>
      <use x="716.714844" xlink:href="#DejaVuSans-6e"/>
      <use x="780.09375" xlink:href="#DejaVuSans-63"/>
      <use x="835.074219" xlink:href="#DejaVuSans-74"/>
      <use x="874.283203" xlink:href="#DejaVuSans-69"/>
      <use x="902.066406" xlink:href="#DejaVuSans-6f"/>
      <use x="963.248047" xlink:href="#DejaVuSans-6e"/>
     </g>
    </g>
   </g>
   <g id="line2d_33">
    <path clip-path="url(#pc13b17c5dd)" d="M -1 409.539798 
L 206.352724 409.598258 
L 246.081248 456.147529 
L 274.269084 456.147529 
L 296.133268 479.739512 
L 313.997608 306.410406 
L 329.101691 396.376381 
L 342.185444 445.255504 
L 364.049628 445.255504 
L 373.388367 471.31811 
L 381.913968 486.175724 
L 403.778152 486.175724 
L 410.101804 341.709674 
L 416.041962 341.709674 
L 421.642492 250.128156 
L 426.940138 345.595439 
L 436.746575 345.595439 
L 441.304727 402.853618 
L 445.660226 439.247076 
L 449.830328 439.247076 
L 453.830173 462.213779 
L 461.371016 462.213779 
L 464.934412 476.717825 
L 471.694512 476.717825 
L 474.907344 486.09208 
L 478.018164 492.48 
L 481.033251 377.501422 
L 483.958322 377.501422 
L 486.798596 414.994735 
L 489.558852 338.23526 
L 492.243474 385.577101 
L 494.856498 385.577101 
L 497.401644 418.602196 
L 499.882349 442.284164 
L 502.301795 459.364584 
L 504.662936 471.753501 
L 509.221087 471.753501 
L 511.423036 387.373356 
L 513.576587 317.166566 
L 515.68382 317.166566 
L 517.746688 265.686255 
L 519.767019 321.773279 
L 521.746533 364.165039 
L 523.686846 396.356126 
L 525.58948 335.744223 
L 531.085272 335.744223 
L 532.850772 371.428797 
L 537.964067 371.428797 
L 539.610872 397.970791 
L 541.230456 397.970791 
L 542.823704 418.665089 
L 547.453665 418.665089 
L 548.949611 434.420017 
L 550.423062 447.169354 
L 553.30511 447.169354 
L 554.714956 457.202216 
L 556.104804 465.427771 
L 557.475212 465.427771 
L 558.826717 472.087576 
L 560.159835 477.597967 
L 561.475057 477.597967 
L 562.772859 482.099761 
L 564.053695 482.099761 
L 565.318004 485.798681 
L 566.566207 488.902928 
L 567.798709 491.515108 
L 569.015899 438.519834 
L 570.218155 448.033734 
L 571.405837 448.033734 
L 572.579296 455.976662 
L 574.884875 455.976662 
L 576.017634 411.264627 
L 577.137448 423.364535 
L 578.244607 433.773716 
L 579.339396 433.773716 
L 580.422088 401.601332 
L 581.492947 414.112275 
L 583.60018 414.112275 
L 584.637043 424.634816 
L 585.663048 424.634816 
L 586.678421 433.679979 
L 587.683379 397.567356 
L 588.678135 409.208741 
L 589.662893 409.208741 
L 590.637852 386.934496 
L 591.603206 386.934496 
L 593.50584 409.561784 
L 594.44348 409.561784 
L 595.372232 418.853578 
L 596.292263 389.635662 
L 597.203736 400.479552 
L 598.106808 400.479552 
L 599.888358 418.571892 
L 600.767132 394.255934 
L 601.638094 403.889546 
L 602.501382 403.889546 
L 603.357131 412.429746 
L 604.205471 412.429746 
L 605.046528 420.022394 
L 605.880427 420.022394 
L 607.527233 432.937657 
L 608.340371 438.525834 
L 609.146816 438.525834 
L 610.740065 448.104932 
L 612.30782 456.102604 
L 613.850884 462.811835 
L 614.613399 439.184028 
L 615.370025 443.629667 
L 616.865971 443.629667 
L 617.605466 424.092993 
L 618.339422 429.195816 
L 620.508867 429.195816 
L 621.928929 437.868054 
L 623.328704 445.345084 
L 624.021164 445.345084 
L 624.708764 428.546817 
L 625.391572 428.546817 
L 626.069655 411.924075 
L 628.736013 411.924075 
L 630.689219 424.753198 
L 631.970055 424.753198 
L 632.604249 428.397648 
L 633.234364 414.756542 
L 633.860453 414.756542 
L 635.715069 425.801398 
L 636.325554 425.801398 
L 637.535231 404.168311 
L 638.134515 408.124674 
L 640.495656 408.124674 
L 641.655227 414.983206 
L 643.933994 414.983206 
L 645.053808 420.804085 
L 645.608951 420.804085 
L 646.160967 423.468814 
L 646.709891 423.468814 
L 647.255756 425.971756 
L 648.338448 425.971756 
L 648.87534 428.288502 
L 649.409307 419.266265 
L 649.940379 419.266265 
L 650.468588 411.196805 
L 652.036343 418.595393 
L 652.553403 418.595393 
L 653.067749 420.825231 
L 653.579408 420.825231 
L 654.08841 422.931959 
L 654.594781 415.150152 
L 655.098549 417.326166 
L 655.59974 417.326166 
L 657.579253 425.106508 
L 658.554212 425.106508 
L 659.038078 426.818745 
L 659.9987 426.818745 
L 660.475501 428.418374 
L 660.949994 428.418374 
L 661.422201 424.876534 
L 661.892142 424.876534 
L 663.749688 430.727442 
L 664.208623 430.727442 
L 664.665419 432.049344 
L 665.120096 426.915684 
L 666.023168 429.562719 
L 667.362358 429.562719 
L 667.804718 430.765524 
L 669.119941 430.765524 
L 670.417743 434.004068 
L 670.846551 434.004068 
L 671.273491 435.00461 
L 671.698579 431.006085 
L 672.121831 431.006085 
L 672.543262 431.999859 
L 672.962888 431.999859 
L 674.62365 435.6463 
L 675.443593 435.6463 
L 675.851005 431.863747 
L 676.256731 431.863747 
L 677.863039 435.094 
L 679.050721 435.094 
L 679.443438 432.434672 
L 680.22418 433.94527 
L 680.61223 433.94527 
L 680.99875 430.785212 
L 682.149243 430.785212 
L 682.529759 428.169651 
L 682.908802 428.169651 
L 683.286385 428.972129 
L 683.662518 425.619932 
L 684.037213 425.619932 
L 684.410481 426.448309 
L 684.782332 426.448309 
L 685.521826 420.15331 
L 685.889491 421.037215 
L 686.255782 421.037215 
L 686.620708 418.008273 
L 686.98428 418.913967 
L 688.425227 418.913967 
L 688.782177 415.827328 
L 689.137831 415.827328 
L 689.492198 416.755175 
L 690.547676 416.755175 
L 690.896991 417.673598 
L 691.245064 414.599558 
L 691.591906 414.599558 
L 691.937524 415.539877 
L 692.281927 415.539877 
L 692.967123 417.391956 
L 693.307932 417.391956 
L 693.64756 418.303911 
L 694.323305 418.303911 
L 694.994421 420.100123 
L 695.328263 420.100123 
L 697.633843 426.10574 
L 697.958827 423.025313 
L 698.282736 423.025313 
L 698.927361 417.445537 
L 699.24809 418.356947 
L 699.886415 418.356947 
L 700.520609 420.152088 
L 700.836173 420.152088 
L 701.150724 421.036005 
L 701.776813 421.036005 
L 702.088364 418.084763 
L 702.398927 418.98968 
L 702.708509 418.98968 
L 703.937147 422.518357 
L 704.545737 422.518357 
L 705.451591 425.071888 
L 705.751691 421.841825 
L 706.050875 421.841825 
L 706.349148 422.708578 
L 706.646516 422.708578 
L 706.942984 419.740346 
L 707.238558 419.740346 
L 707.827043 421.507525 
L 708.412016 421.507525 
L 708.703198 422.377674 
L 708.993517 422.377674 
L 709.282978 423.238985 
L 709.571587 423.238985 
L 710.146266 424.935449 
L 710.432347 424.935449 
L 710.717595 425.770778 
L 711.002015 425.770778 
L 711.850354 428.226201 
L 712.13151 428.226201 
L 712.970168 430.607556 
L 713.525311 430.607556 
L 713.801708 431.38527 
L 714.077328 428.091077 
L 715.714958 432.789985 
L 715.985255 432.789985 
L 716.254808 433.54553 
L 716.523622 430.229394 
L 716.7917 431.010949 
L 717.059047 431.010949 
L 717.325667 431.784566 
L 717.591563 428.486317 
L 717.856739 429.285578 
L 718.1212 429.285578 
L 718.384948 430.07672 
L 718.910326 430.07672 
L 719.432901 431.634978 
L 719.693147 431.634978 
L 720.469763 433.913509 
L 720.727273 433.913509 
L 721.240273 435.394216 
L 721.495768 431.976786 
L 722.00477 433.496639 
L 722.258283 433.496639 
L 722.763349 434.985772 
L 723.265825 434.985772 
L 724.01474 437.163227 
L 724.263112 437.163227 
L 724.757974 438.578251 
L 725.495613 438.578251 
L 725.984306 439.964673 
L 726.227741 439.964673 
L 726.470573 436.500818 
L 727.195478 438.632572 
L 727.435926 435.57873 
L 727.675786 435.57873 
L 727.91506 432.775359 
L 728.153751 433.531053 
L 728.391862 433.531053 
L 728.629395 434.279071 
L 729.338561 434.279071 
L 730.973588 439.306716 
L 731.435771 439.306716 
L 731.666048 436.393792 
L 732.124983 436.393792 
L 732.809381 438.528775 
L 733.036456 438.528775 
L 733.489032 439.916197 
L 733.714539 436.695488 
L 733.939528 437.411363 
L 734.164001 437.411363 
L 734.387961 438.119965 
L 735.056787 438.119965 
L 735.278718 438.821371 
L 735.500148 438.821371 
L 735.941512 440.202879 
L 736.161451 440.202879 
L 736.599852 441.556464 
L 736.81832 441.556464 
L 737.253798 442.88269 
L 737.470814 442.88269 
L 737.68735 443.535717 
L 737.903409 440.355929 
L 738.762911 443.029615 
L 739.402626 443.029615 
L 739.614939 439.534627 
L 740.459622 442.241179 
L 740.879248 442.241179 
L 741.297085 443.553566 
L 741.505337 443.553566 
L 741.920518 444.839426 
L 742.333948 444.839426 
L 742.54001 441.870302 
L 742.74564 441.870302 
L 742.950839 442.533613 
L 743.155609 442.533613 
L 743.359953 439.364003 
L 743.563871 440.052772 
L 743.970438 440.052772 
L 744.778547 442.73859 
L 744.979537 442.73859 
L 745.180115 443.39308 
L 745.380284 439.8944 
L 745.779399 441.25422 
L 746.176895 441.25422 
L 747.163636 444.534736 
L 747.163636 444.534736 
" style="fill:none;stroke:#1f77b4;stroke-linecap:square;stroke-width:1.5;"/>
   </g>
   <g id="line2d_34">
    <path clip-path="url(#pc13b17c5dd)" d="M -1 444.105693 
L 747.163636 444.105693 
L 747.163636 444.105693 
" style="fill:none;stroke:#000000;stroke-dasharray:5.55,2.4;stroke-dashoffset:0;stroke-width:1.5;"/>
   </g>
   <g id="line2d_35">
    <path clip-path="url(#pc13b17c5dd)" d="M -1 408.55362 
L 206.352724 408.61267 
L 246.081248 455.632136 
L 274.269084 455.632136 
L 296.133268 479.462421 
L 313.997608 308.117604 
L 329.101691 397.318542 
L 342.185444 397.318542 
L 353.726132 269.508005 
L 373.388367 269.508005 
L 381.913968 367.995669 
L 403.778152 367.995669 
L 410.101804 267.990173 
L 416.041962 267.990173 
L 421.642492 205.760333 
L 426.940138 317.706068 
L 441.304727 317.706068 
L 445.660226 383.805029 
L 449.830328 383.805029 
L 453.830173 425.51789 
L 457.67312 425.51789 
L 461.371016 322.475967 
L 464.934412 382.061611 
L 468.37275 382.061611 
L 471.694512 306.900718 
L 474.907344 368.548181 
L 478.018164 368.548181 
L 481.033251 291.736568 
L 486.798596 291.736568 
L 489.558852 249.022723 
L 492.243474 321.365043 
L 494.856498 258.868695 
L 497.401644 326.307866 
L 499.882349 374.667827 
L 502.301795 409.54704 
L 504.662936 434.84593 
L 506.968515 434.84593 
L 509.221087 353.529121 
L 511.423036 299.312616 
L 513.576587 251.535415 
L 515.68382 251.535415 
L 517.746688 216.501978 
L 519.767019 284.012475 
L 521.746533 335.038339 
L 523.686846 373.785915 
L 525.58948 319.027432 
L 531.085272 319.027432 
L 532.850772 358.191801 
L 534.585022 358.191801 
L 536.28911 315.978693 
L 537.964067 315.978693 
L 539.610872 353.362941 
L 541.230456 353.362941 
L 542.823704 382.510743 
L 544.391459 382.510743 
L 545.934524 329.673675 
L 548.949611 329.673675 
L 550.423062 360.779302 
L 551.874682 360.779302 
L 553.30511 317.003304 
L 554.714956 348.801039 
L 556.104804 348.801039 
L 557.475212 307.643982 
L 558.826717 339.476681 
L 560.159835 365.815385 
L 564.053695 365.815385 
L 565.318004 386.670174 
L 566.566207 404.172152 
L 567.798709 418.899816 
L 569.015899 375.568879 
L 570.218155 393.806669 
L 571.405837 393.806669 
L 572.579296 409.032964 
L 573.738867 409.032964 
L 576.017634 338.805901 
L 577.137448 360.047431 
L 578.244607 378.320869 
L 579.339396 378.320869 
L 580.422088 353.233832 
L 581.492947 371.476729 
L 583.60018 371.476729 
L 584.637043 386.820227 
L 585.663048 386.820227 
L 586.678421 400.009478 
L 587.683379 367.08464 
L 588.678135 381.963687 
L 589.662893 381.963687 
L 590.637852 362.817646 
L 592.559141 362.817646 
L 593.50584 376.99603 
L 594.44348 349.712443 
L 595.372232 364.701498 
L 596.292263 340.933411 
L 599.001632 340.933411 
L 599.888358 355.567232 
L 600.767132 337.031359 
L 601.638094 351.547201 
L 602.501382 331.34993 
L 603.357131 345.888304 
L 605.880427 345.888304 
L 606.70729 358.415367 
L 607.527233 358.415367 
L 608.340371 369.613439 
L 609.946679 369.613439 
L 610.740065 379.493663 
L 612.30782 379.493663 
L 613.850884 396.267484 
L 614.613399 377.325322 
L 615.370025 385.815848 
L 616.120853 385.815848 
L 616.865971 368.404728 
L 617.605466 353.796381 
L 618.339422 363.216944 
L 620.508867 363.216944 
L 621.928929 379.227172 
L 623.328704 393.030871 
L 624.021164 393.030871 
L 624.708764 378.820727 
L 625.391572 378.820727 
L 626.069655 364.976163 
L 628.736013 364.976163 
L 630.689219 384.128826 
L 631.970055 384.128826 
L 632.604249 389.569643 
L 633.234364 377.446386 
L 633.860453 377.446386 
L 635.715069 392.950321 
L 636.325554 392.950321 
L 637.535231 374.129148 
L 638.134515 374.129148 
L 638.730156 365.058821 
L 640.495656 365.058821 
L 641.655227 374.899464 
L 642.229906 374.899464 
L 642.801235 366.487477 
L 644.495501 366.487477 
L 645.053808 370.966051 
L 645.608951 370.966051 
L 646.160967 375.168454 
L 646.709891 366.9027 
L 647.255756 371.097126 
L 648.338448 371.097126 
L 648.87534 374.979525 
L 649.409307 367.788434 
L 649.940379 367.788434 
L 650.468588 361.014674 
L 650.993965 364.931727 
L 651.516541 364.931727 
L 652.036343 368.626345 
L 653.579408 368.626345 
L 654.08841 372.006654 
L 654.594781 365.546114 
L 655.59974 365.546114 
L 656.594495 371.914098 
L 658.554212 371.914098 
L 659.038078 374.736164 
L 659.519566 374.736164 
L 659.9987 370.170515 
L 660.949994 370.170515 
L 661.422201 367.701396 
L 661.892142 367.701396 
L 662.35984 370.309448 
L 662.825317 370.309448 
L 663.749688 375.187532 
L 664.208623 370.548473 
L 664.665419 372.911015 
L 665.120096 368.71935 
L 666.023168 373.285845 
L 666.471601 368.89617 
L 667.362358 368.89617 
L 667.804718 371.039205 
L 668.683492 371.039205 
L 669.119941 367.195061 
L 669.987049 371.209764 
L 671.273491 371.209764 
L 671.698579 368.019866 
L 672.121831 368.019866 
L 672.543262 369.835458 
L 672.962888 369.835458 
L 673.380725 371.572149 
L 673.796788 371.572149 
L 674.62365 374.850086 
L 675.034479 374.850086 
L 675.851005 368.484132 
L 676.256731 368.484132 
L 677.463924 373.004664 
L 677.863039 373.004664 
L 678.260535 370.342154 
L 678.656425 370.342154 
L 679.443438 365.686867 
L 680.22418 368.546588 
L 680.61223 368.546588 
L 681.383751 363.485271 
L 682.149243 363.485271 
L 682.529759 361.71954 
L 683.286385 361.71954 
L 683.662518 359.091941 
L 684.037213 359.091941 
L 684.410481 360.59609 
L 685.521826 353.066405 
L 685.889491 354.63176 
L 686.255782 354.63176 
L 686.620708 352.237912 
L 686.98428 353.811682 
L 688.425227 353.811682 
L 688.782177 351.3461 
L 689.137831 351.3461 
L 689.492198 352.928929 
L 689.845289 350.70776 
L 690.547676 350.70776 
L 690.896991 352.297073 
L 691.245064 349.846875 
L 692.967123 349.846875 
L 693.307932 347.421566 
L 693.64756 349.04426 
L 693.986015 346.462063 
L 694.323305 346.462063 
L 694.994421 349.710361 
L 695.328263 347.121398 
L 696.652373 353.525954 
L 697.307777 353.525954 
L 697.633843 355.08664 
L 698.927361 346.406251 
L 699.886415 346.406251 
L 700.204025 348.039258 
L 700.836173 348.039258 
L 701.150724 349.655677 
L 701.464269 347.06727 
L 701.776813 347.06727 
L 702.088364 344.905642 
L 702.708509 344.905642 
L 703.937147 351.398863 
L 704.241914 348.792749 
L 704.545737 348.792749 
L 705.451591 353.570186 
L 705.751691 351.025366 
L 706.050875 351.025366 
L 706.349148 352.611453 
L 706.646516 352.611453 
L 706.942984 350.393509 
L 707.238558 350.393509 
L 707.533242 351.986014 
L 708.412016 351.986014 
L 708.703198 353.562343 
L 708.993517 351.099293 
L 709.282978 351.099293 
L 709.571587 348.496223 
L 710.146266 351.703405 
L 710.432347 351.703405 
L 710.717595 353.282605 
L 711.002015 350.980933 
L 711.850354 355.692365 
L 712.13151 355.692365 
L 712.691412 358.754097 
L 712.970168 358.754097 
L 713.525311 353.662291 
L 713.801708 355.221593 
L 714.077328 352.659998 
L 715.714958 361.840974 
L 715.985255 359.293832 
L 716.254808 360.79593 
L 716.523622 358.177713 
L 716.7917 359.691148 
L 717.059047 359.691148 
L 717.325667 361.189211 
L 717.591563 358.64869 
L 717.856739 360.157341 
L 718.647989 360.157341 
L 718.910326 357.54561 
L 719.432901 360.569884 
L 719.693147 360.569884 
L 719.952703 362.059021 
L 720.211574 362.059021 
L 720.469763 363.533031 
L 720.984109 363.533031 
L 721.240273 364.992069 
L 721.495768 362.247879 
L 722.00477 365.17711 
L 722.258283 362.431041 
L 722.511141 362.431041 
L 722.763349 363.901272 
L 723.265825 363.901272 
L 724.01474 368.222966 
L 724.263112 368.222966 
L 724.757974 371.031427 
L 725.495613 371.031427 
L 725.740264 372.414298 
L 725.984306 372.414298 
L 726.470573 367.124063 
L 727.195478 371.348543 
L 727.435926 368.940273 
L 727.675786 368.940273 
L 727.91506 366.849102 
L 728.153751 368.274456 
L 728.391862 368.274456 
L 728.629395 369.685332 
L 729.338561 369.685332 
L 730.2762 375.18697 
L 730.509215 375.18697 
L 730.741677 376.52763 
L 731.435771 376.52763 
L 731.666048 374.288421 
L 731.895784 374.288421 
L 732.124983 371.449802 
L 732.809381 375.543797 
L 733.036456 375.543797 
L 733.489032 378.204288 
L 733.714539 375.649469 
L 733.939528 376.985431 
L 734.164001 376.985431 
L 734.387961 378.307823 
L 734.611411 378.307823 
L 734.834352 375.511725 
L 735.278718 375.511725 
L 735.500148 372.82572 
L 735.941512 375.541149 
L 736.161451 375.541149 
L 736.380897 376.878211 
L 736.599852 376.878211 
L 736.81832 374.013286 
L 737.253798 376.704711 
L 737.470814 376.704711 
L 737.68735 378.029955 
L 737.903409 375.553817 
L 738.118993 375.553817 
L 738.334103 376.890751 
L 738.548742 376.890751 
L 738.762911 378.214104 
L 738.976614 378.214104 
L 739.614939 370.153707 
L 740.459622 375.636603 
L 740.66966 375.636603 
L 740.879248 372.784289 
L 741.088389 374.149355 
L 741.297085 374.149355 
L 741.505337 371.788015 
L 742.333948 371.788015 
L 742.54001 369.667918 
L 742.74564 369.667918 
L 742.950839 371.064639 
L 743.155609 371.064639 
L 743.359953 368.582343 
L 743.563871 369.990091 
L 743.970438 369.990091 
L 744.778547 375.479534 
L 744.979537 373.104682 
L 745.180115 374.466493 
L 745.380284 371.709415 
L 745.580045 373.085399 
L 746.37504 373.085399 
L 747.163636 378.45098 
L 747.163636 378.45098 
" style="fill:none;stroke:#ff7f0e;stroke-linecap:square;stroke-width:1.5;"/>
   </g>
   <g id="line2d_36">
    <path clip-path="url(#pc13b17c5dd)" d="M -1 379.38376 
L 747.163636 379.38376 
L 747.163636 379.38376 
" style="fill:none;stroke:#000000;stroke-dasharray:5.55,2.4;stroke-dashoffset:0;stroke-width:1.5;"/>
   </g>
   <g id="line2d_37">
    <path clip-path="url(#pc13b17c5dd)" d="M -1 311.106958 
L 138.436364 311.106958 
L 206.352724 212.236989 
L 246.081248 352.941456 
L 274.269084 352.941456 
L 296.133268 424.252936 
L 313.997608 272.408066 
L 329.101691 377.611328 
L 342.185444 377.611328 
L 353.726132 256.58703 
L 364.049628 185.644719 
L 373.388367 185.644719 
L 381.913968 318.885304 
L 389.75676 318.885304 
L 397.018052 254.909011 
L 403.778152 189.969155 
L 410.101804 157.704265 
L 416.041962 157.704265 
L 421.642492 144.55347 
L 426.940138 279.231768 
L 441.304727 279.231768 
L 445.660226 358.753294 
L 453.830173 358.753294 
L 457.67312 269.515498 
L 461.371016 216.285013 
L 464.934412 310.129515 
L 468.37275 240.427347 
L 471.694512 208.397652 
L 474.907344 300.366392 
L 478.018164 300.366392 
L 481.033251 245.077554 
L 483.958322 204.547293 
L 486.798596 204.547293 
L 489.558852 185.60139 
L 492.243474 185.60139 
L 494.856498 166.135309 
L 497.401644 258.760921 
L 499.882349 325.181829 
L 502.301795 373.087347 
L 504.662936 407.834589 
L 506.968515 407.834589 
L 509.221087 334.296782 
L 511.423036 287.5743 
L 513.576587 247.475795 
L 515.68382 247.475795 
L 517.746688 214.353545 
L 519.767019 214.353545 
L 521.746533 281.307099 
L 523.686846 332.149706 
L 525.58948 290.750521 
L 529.287376 290.750521 
L 531.085272 248.444319 
L 532.850772 302.301386 
L 534.585022 302.301386 
L 536.28911 270.634056 
L 537.964067 270.634056 
L 539.610872 316.884618 
L 544.391459 316.884618 
L 545.934524 279.812658 
L 548.949611 279.812658 
L 550.423062 319.656187 
L 551.874682 319.656187 
L 553.30511 282.171435 
L 554.714956 319.793355 
L 556.104804 319.793355 
L 557.475212 282.662214 
L 560.159835 282.662214 
L 561.475057 252.97528 
L 565.318004 252.97528 
L 566.566207 289.895517 
L 567.798709 320.963369 
L 569.015899 290.855543 
L 570.218155 320.833104 
L 571.405837 320.833104 
L 572.579296 345.860653 
L 573.738867 316.372069 
L 576.017634 266.546072 
L 577.137448 296.904131 
L 578.244607 323.020239 
L 579.339396 294.609261 
L 580.422088 280.005187 
L 581.492947 306.926291 
L 583.60018 306.926291 
L 584.637043 329.568742 
L 586.678421 329.568742 
L 587.683379 303.794267 
L 588.678135 325.395579 
L 589.662893 325.395579 
L 590.637852 312.393035 
L 592.559141 312.393035 
L 593.50584 331.524107 
L 594.44348 309.821618 
L 595.372232 328.608015 
L 596.292263 309.324935 
L 599.001632 309.324935 
L 599.888358 326.741228 
L 600.767132 309.733936 
L 601.638094 326.578712 
L 602.501382 309.466711 
L 603.357131 325.81457 
L 605.880427 325.81457 
L 606.70729 339.900785 
L 607.527233 339.900785 
L 608.340371 352.492599 
L 609.946679 352.492599 
L 610.740065 363.602542 
L 612.30782 363.602542 
L 613.850884 382.464078 
L 614.613399 363.633438 
L 615.370025 373.019265 
L 616.120853 373.019265 
L 616.865971 356.67014 
L 617.605466 343.02658 
L 618.339422 353.108643 
L 620.508867 353.108643 
L 621.928929 370.243089 
L 623.328704 385.016065 
L 624.708764 355.511244 
L 625.391572 355.511244 
L 626.743078 331.821425 
L 628.736013 331.821425 
L 630.689219 355.439788 
L 632.604249 355.439788 
L 633.860453 333.744305 
L 634.482567 341.061389 
L 635.715069 341.061389 
L 636.93226 322.73285 
L 637.535231 316.637717 
L 638.134515 316.637717 
L 638.730156 309.882368 
L 639.322197 301.721782 
L 640.495656 301.721782 
L 641.655227 315.948222 
L 642.229906 315.948222 
L 642.801235 309.917113 
L 644.495501 309.917113 
L 645.053808 316.196564 
L 645.608951 309.128519 
L 646.160967 315.238822 
L 646.709891 308.916146 
L 647.255756 314.844531 
L 647.798598 308.728274 
L 648.87534 308.728274 
L 650.468588 292.885432 
L 650.993965 298.628372 
L 651.516541 298.628372 
L 652.036343 304.045193 
L 653.579408 304.045193 
L 654.08841 309.001192 
L 654.594781 304.151102 
L 655.098549 304.151102 
L 655.59974 299.181296 
L 656.09838 299.181296 
L 656.594495 303.874059 
L 658.554212 303.874059 
L 659.038078 308.115741 
L 659.519566 308.115741 
L 659.9987 304.969697 
L 660.475501 304.969697 
L 660.949994 300.932161 
L 661.422201 299.747301 
L 661.892142 299.747301 
L 662.35984 303.626075 
L 662.825317 303.626075 
L 663.749688 310.880913 
L 664.208623 307.440982 
L 664.665419 310.894806 
L 665.120096 307.286794 
L 665.572672 307.286794 
L 666.023168 310.584771 
L 666.917992 303.947986 
L 667.362358 303.947986 
L 667.804718 307.097608 
L 668.24509 307.097608 
L 669.119941 301.177376 
L 671.273491 301.177376 
L 672.121831 296.229929 
L 672.543262 298.982205 
L 672.962888 296.30642 
L 673.796788 296.30642 
L 674.62365 301.403809 
L 676.256731 292.073828 
L 677.063177 296.810154 
L 677.863039 296.810154 
L 678.260535 294.905113 
L 678.656425 294.905113 
L 679.050721 292.997246 
L 679.443438 291.848787 
L 680.22418 296.200941 
L 681.383751 290.550795 
L 682.149243 290.550795 
L 682.529759 289.745018 
L 682.908802 287.722859 
L 683.286385 287.722859 
L 683.662518 285.887947 
L 684.037213 285.887947 
L 684.410481 288.135681 
L 685.152777 284.6323 
L 685.521826 283.142748 
L 685.889491 285.418367 
L 686.255782 285.418367 
L 686.620708 283.687738 
L 686.98428 285.957821 
L 688.425227 285.957821 
L 688.782177 284.058323 
L 689.137831 284.058323 
L 689.492198 286.324641 
L 689.845289 284.817899 
L 690.896991 284.817899 
L 691.245064 283.012495 
L 691.937524 283.012495 
L 692.281927 281.058723 
L 692.967123 281.058723 
L 693.307932 279.372378 
L 693.64756 281.686295 
L 694.323305 278.148928 
L 694.994421 282.777987 
L 695.328263 280.910788 
L 696.323019 287.735861 
L 697.633843 287.735861 
L 698.282736 284.386543 
L 698.605579 282.503005 
L 698.927361 281.592121 
L 699.886415 281.592121 
L 700.204025 283.883491 
L 700.836173 283.883491 
L 701.150724 286.151586 
L 702.088364 280.745099 
L 702.398927 280.745099 
L 702.708509 278.814359 
L 703.017116 278.814359 
L 703.324754 281.133944 
L 703.631429 281.133944 
L 703.937147 283.429968 
L 704.241914 281.471955 
L 704.545737 281.471955 
L 705.150569 286.033849 
L 705.451591 286.033849 
L 706.050875 282.168419 
L 706.349148 284.453935 
L 706.942984 281.092401 
L 707.238558 281.092401 
L 707.533242 283.388847 
L 708.412016 283.388847 
L 708.703198 285.661966 
L 708.993517 283.928862 
L 709.282978 283.928862 
L 709.571587 281.965782 
L 709.859348 281.965782 
L 710.146266 284.253356 
L 710.432347 284.253356 
L 710.717595 286.517694 
L 711.002015 284.932849 
L 711.285612 284.932849 
L 711.850354 289.42479 
L 712.13151 289.42479 
L 712.691412 293.825939 
L 712.970168 293.825939 
L 713.525311 290.127393 
L 713.801708 292.332064 
L 714.077328 290.367818 
L 714.626251 290.367818 
L 714.899564 292.570047 
L 715.172117 292.570047 
L 715.443913 294.749906 
L 715.714958 294.749906 
L 715.985255 292.843616 
L 716.254808 295.020696 
L 716.523622 293.02914 
L 716.7917 295.204336 
L 717.325667 295.204336 
L 717.591563 293.374303 
L 717.856739 295.545993 
L 718.1212 293.869442 
L 718.647989 293.869442 
L 718.910326 291.889579 
L 719.171962 294.07635 
L 719.432901 294.07635 
L 719.693147 292.094386 
L 719.952703 294.279077 
L 720.984109 294.279077 
L 721.240273 296.441577 
L 721.495768 294.351396 
L 721.7506 294.351396 
L 722.00477 296.513161 
L 722.258283 294.506444 
L 722.763349 294.506444 
L 723.014909 292.520111 
L 723.265825 292.520111 
L 724.01474 298.994993 
L 724.263112 298.994993 
L 724.757974 303.202706 
L 725.004472 301.043848 
L 725.495613 301.043848 
L 725.740264 303.137633 
L 725.984306 303.137633 
L 726.470573 299.166686 
L 727.195478 305.441076 
L 727.91506 300.212621 
L 728.391862 300.212621 
L 728.629395 302.314849 
L 728.866354 302.314849 
L 729.102742 300.331717 
L 729.808502 300.331717 
L 730.2762 304.512412 
L 731.435771 304.512412 
L 731.666048 303.040375 
L 731.895784 303.040375 
L 732.124983 300.883166 
L 732.809381 307.105779 
L 733.036456 304.907274 
L 733.263005 304.907274 
L 733.489032 306.961815 
L 733.714539 304.93148 
L 734.164001 304.93148 
L 734.387961 306.985776 
L 734.611411 306.985776 
L 735.056787 302.778538 
L 735.278718 302.778538 
L 735.500148 300.790695 
L 735.941512 304.962113 
L 736.161451 304.962113 
L 736.380897 307.016097 
L 736.599852 307.016097 
L 736.81832 304.902695 
L 737.253798 308.991 
L 737.470814 306.857538 
L 737.68735 306.857538 
L 737.903409 304.9884 
L 738.118993 304.9884 
L 738.334103 307.042117 
L 738.548742 307.042117 
L 738.762911 309.074973 
L 738.976614 309.074973 
L 739.614939 302.97447 
L 740.249133 309.134 
L 740.459622 309.134 
L 740.879248 304.718328 
L 741.088389 306.774788 
L 741.297085 306.774788 
L 741.505337 305.279771 
L 742.333948 305.279771 
L 742.54001 303.870198 
L 742.74564 303.870198 
L 742.950839 305.935273 
L 743.155609 305.935273 
L 743.359953 304.075504 
L 743.563871 306.138494 
L 743.970438 301.783368 
L 744.173091 301.783368 
L 744.375326 303.869641 
L 744.778547 303.869641 
L 744.979537 302.259307 
L 745.180115 304.340745 
L 745.380284 302.170327 
L 745.580045 304.252669 
L 746.37504 304.252669 
L 747.163636 312.372658 
L 747.163636 312.372658 
" style="fill:none;stroke:#2ca02c;stroke-linecap:square;stroke-width:1.5;"/>
   </g>
   <g id="line2d_38">
    <path clip-path="url(#pc13b17c5dd)" d="M -1 312.080258 
L 747.163636 312.080258 
L 747.163636 312.080258 
" style="fill:none;stroke:#000000;stroke-dasharray:5.55,2.4;stroke-dashoffset:0;stroke-width:1.5;"/>
   </g>
   <g id="line2d_39">
    <path clip-path="url(#pc13b17c5dd)" d="M -1 301.002635 
L 138.436364 301.002635 
L 206.352724 208.96798 
L 246.081248 351.231994 
L 274.269084 351.231994 
L 296.133268 423.333879 
L 313.997608 269.992319 
L 329.101691 376.278137 
L 342.185444 376.278137 
L 353.726132 254.042013 
L 364.049628 185.968742 
L 373.388367 185.968742 
L 381.913968 319.075052 
L 389.75676 227.592338 
L 397.018052 198.872089 
L 403.778152 154.425516 
L 410.101804 127.970154 
L 416.041962 127.970154 
L 421.642492 133.142979 
L 426.940138 272.059196 
L 431.965988 272.059196 
L 436.746575 205.251168 
L 441.304727 205.251168 
L 445.660226 310.582373 
L 449.830328 233.607175 
L 453.830173 233.607175 
L 457.67312 187.413426 
L 461.371016 159.763731 
L 464.934412 271.842881 
L 468.37275 212.964597 
L 471.694512 185.988375 
L 474.907344 284.855152 
L 478.018164 284.855152 
L 483.958322 205.181085 
L 486.798596 205.181085 
L 489.558852 184.993262 
L 492.243474 184.993262 
L 494.856498 166.776776 
L 497.401644 259.228165 
L 499.882349 325.524139 
L 506.968515 325.524139 
L 509.221087 267.58385 
L 511.423036 236.453152 
L 513.576587 207.853668 
L 515.68382 207.853668 
L 517.746688 185.023036 
L 519.767019 185.023036 
L 521.746533 258.683085 
L 523.686846 314.618412 
L 525.58948 277.906144 
L 527.455872 236.13935 
L 529.287376 236.13935 
L 531.085272 204.490817 
L 532.850772 204.490817 
L 534.585022 180.303148 
L 536.28911 172.511335 
L 537.964067 155.420545 
L 539.610872 224.199002 
L 544.391459 224.199002 
L 547.453665 182.274429 
L 551.874682 182.274429 
L 553.30511 166.001058 
L 554.714956 223.047655 
L 556.104804 223.047655 
L 557.475212 200.913002 
L 560.159835 200.913002 
L 561.475057 183.215998 
L 562.772859 183.215998 
L 564.053695 169.970998 
L 565.318004 169.970998 
L 566.566207 218.947034 
L 567.798709 260.159668 
L 569.015899 238.042165 
L 571.405837 238.042165 
L 572.579296 274.189563 
L 573.738867 253.664517 
L 576.017634 218.022464 
L 577.137448 218.022464 
L 578.244607 253.936016 
L 579.339396 234.481655 
L 580.422088 224.186162 
L 581.492947 257.722289 
L 582.552228 237.741593 
L 583.60018 221.327642 
L 584.637043 253.649044 
L 585.663048 235.970045 
L 586.678421 235.970045 
L 587.683379 219.839865 
L 588.678135 250.35823 
L 589.662893 234.095982 
L 590.637852 230.809007 
L 591.603206 216.180536 
L 592.559141 216.180536 
L 593.50584 244.761568 
L 594.44348 232.597588 
L 595.372232 258.735201 
L 596.292263 246.36045 
L 597.203736 246.36045 
L 598.106808 231.837188 
L 599.001632 231.837188 
L 599.888358 256.074675 
L 600.767132 243.509203 
L 601.638094 266.004074 
L 602.501382 255.56194 
L 603.357131 276.36709 
L 605.880427 276.36709 
L 606.70729 294.293953 
L 607.527233 294.293953 
L 608.340371 310.318962 
L 609.146816 293.729059 
L 609.946679 293.729059 
L 610.740065 309.059744 
L 613.850884 309.059744 
L 614.613399 294.830772 
L 616.120853 294.830772 
L 617.605466 270.980915 
L 618.339422 285.488148 
L 619.791042 262.321926 
L 620.508867 252.015643 
L 621.928929 280.393376 
L 622.631316 293.074212 
L 623.328704 293.074212 
L 624.021164 281.876954 
L 624.708764 272.764501 
L 625.391572 272.764501 
L 626.743078 257.327093 
L 628.736013 257.327093 
L 630.042467 280.473123 
L 630.689219 280.473123 
L 631.970055 263.680749 
L 632.604249 263.680749 
L 633.860453 249.060414 
L 634.482567 259.950405 
L 635.715069 259.950405 
L 636.93226 248.599889 
L 637.535231 245.53003 
L 638.134515 245.53003 
L 638.730156 241.603132 
L 640.495656 225.162101 
L 641.655227 244.689946 
L 642.229906 244.689946 
L 642.801235 241.445431 
L 643.369252 236.274498 
L 645.053808 236.274498 
L 645.608951 231.579362 
L 646.160967 231.579362 
L 646.709891 227.4258 
L 647.255756 227.4258 
L 648.338448 220.01472 
L 648.87534 220.01472 
L 649.940379 213.132507 
L 650.468588 210.354372 
L 650.993965 218.309173 
L 651.516541 218.309173 
L 652.036343 225.812252 
L 653.067749 225.812252 
L 653.579408 222.35867 
L 654.08841 222.35867 
L 654.594781 219.094453 
L 655.098549 219.094453 
L 655.59974 216.006801 
L 657.579253 216.006801 
L 658.067946 213.21799 
L 658.554212 213.21799 
L 659.038078 219.351159 
L 659.519566 216.621546 
L 659.9987 215.106144 
L 660.475501 215.106144 
L 660.949994 212.909802 
L 661.422201 213.157129 
L 662.825317 213.157129 
L 663.749688 223.636493 
L 664.208623 221.797902 
L 664.665419 226.732701 
L 665.120096 224.487263 
L 666.023168 224.487263 
L 666.917992 220.601476 
L 667.804718 220.601476 
L 668.683492 216.696426 
L 669.119941 215.251196 
L 670.417743 215.251196 
L 670.846551 213.462264 
L 671.273491 213.462264 
L 671.698579 212.294091 
L 672.121831 210.737348 
L 672.543262 214.605096 
L 672.962888 212.959094 
L 674.211091 212.959094 
L 674.62365 216.508956 
L 675.851005 212.191083 
L 676.256731 210.954003 
L 677.063177 217.47654 
L 677.863039 217.47654 
L 678.260535 216.277166 
L 678.656425 216.277166 
L 679.050721 214.958538 
L 679.443438 214.701498 
L 679.834586 217.672324 
L 680.22418 217.672324 
L 680.61223 216.339524 
L 680.99875 215.727459 
L 681.767245 213.114708 
L 682.529759 213.125566 
L 682.908802 211.838951 
L 683.286385 211.838951 
L 683.662518 210.815486 
L 684.037213 210.815486 
L 684.410481 213.825785 
L 685.152777 211.903679 
L 685.521826 211.264263 
L 685.889491 214.270003 
L 686.620708 211.936792 
L 686.98428 214.935701 
L 687.707402 212.338953 
L 688.066972 212.338953 
L 689.137831 208.706897 
L 689.492198 211.738614 
L 689.845289 210.874705 
L 690.547676 208.444217 
L 690.896991 208.444217 
L 691.591906 205.978676 
L 691.937524 205.978676 
L 692.281927 204.849699 
L 692.967123 204.849699 
L 693.307932 203.977294 
L 693.64756 207.057053 
L 694.323305 205.031385 
L 694.994421 211.138314 
L 695.328263 210.202031 
L 695.660972 213.218561 
L 697.633843 213.218561 
L 698.605579 209.564204 
L 698.927361 209.09193 
L 699.886415 209.09193 
L 700.204025 212.119736 
L 700.520609 212.119736 
L 700.836173 210.843337 
L 701.150724 213.853353 
L 702.088364 210.344007 
L 702.398927 210.344007 
L 702.708509 209.085646 
L 703.017116 209.085646 
L 703.324754 212.113516 
L 703.937147 212.113516 
L 704.241914 210.837181 
L 705.451591 210.837181 
L 706.050875 208.323273 
L 706.349148 211.358887 
L 706.646516 210.090217 
L 706.942984 209.469222 
L 707.238558 208.388138 
L 707.533242 211.423092 
L 708.119966 211.423092 
L 708.412016 210.238812 
L 708.703198 213.254968 
L 708.993517 212.452567 
L 709.282978 212.452567 
L 709.571587 211.172788 
L 710.146266 211.172788 
L 710.432347 209.906009 
L 710.717595 209.906009 
L 711.002015 208.982244 
L 711.285612 208.982244 
L 711.56839 212.011164 
L 712.13151 212.011164 
L 712.691412 217.977016 
L 712.970168 217.977016 
L 713.525311 215.485476 
L 713.801708 218.448338 
L 714.077328 217.192698 
L 714.626251 217.192698 
L 714.899564 220.138218 
L 715.172117 220.138218 
L 715.443913 223.053819 
L 715.714958 223.053819 
L 715.985255 221.666356 
L 716.254808 224.566434 
L 716.523622 223.248647 
L 716.7917 226.132653 
L 717.059047 224.713916 
L 717.325667 224.713916 
L 717.591563 223.30959 
L 717.856739 226.192977 
L 718.1212 225.259155 
L 718.384948 225.259155 
L 718.910326 222.537925 
L 719.171962 225.42915 
L 719.432901 225.42915 
L 719.693147 224.18595 
L 720.469763 224.18595 
L 720.727273 222.786986 
L 720.984109 222.786986 
L 721.240273 225.675682 
L 721.495768 224.261586 
L 721.7506 224.261586 
L 722.00477 227.135303 
L 722.258283 225.956463 
L 722.763349 225.956463 
L 723.265825 223.388682 
L 723.5161 226.271266 
L 723.765737 226.271266 
L 724.01474 229.124569 
L 724.510855 229.124569 
L 724.757974 231.948889 
L 725.004472 230.556114 
L 725.25035 230.556114 
L 725.495613 229.092444 
L 725.984306 229.092444 
L 726.470573 226.53635 
L 727.195478 235.001608 
L 727.91506 231.853213 
L 728.153751 231.853213 
L 728.391862 230.461409 
L 728.629395 233.27215 
L 729.338561 229.010345 
L 729.808502 229.010345 
L 730.04263 231.835825 
L 731.435771 231.835825 
L 731.666048 230.844685 
L 731.895784 230.844685 
L 732.124983 229.378084 
L 732.809381 237.757623 
L 733.036456 236.220802 
L 733.263005 236.220802 
L 733.489032 238.973041 
L 733.714539 237.508916 
L 733.939528 237.508916 
L 734.164001 235.974622 
L 734.387961 238.729361 
L 734.611411 238.729361 
L 735.056787 235.984273 
L 735.278718 235.984273 
L 735.500148 234.633857 
L 735.721079 237.402215 
L 736.599852 237.402215 
L 736.81832 236.037396 
L 737.036301 238.791497 
L 737.253798 238.791497 
L 737.470814 237.412566 
L 737.68735 237.412566 
L 737.903409 236.047641 
L 738.118993 236.047641 
L 738.334103 238.801639 
L 738.548742 238.801639 
L 738.762911 241.527662 
L 739.614939 235.893564 
L 739.826793 238.649127 
L 740.038191 238.649127 
L 740.249133 241.376699 
L 740.459622 241.376699 
L 740.879248 238.329697 
L 741.088389 241.060514 
L 741.297085 241.060514 
L 741.505337 240.197341 
L 742.127451 240.197341 
L 742.54001 237.258389 
L 742.74564 237.258389 
L 742.950839 240.000088 
L 743.155609 240.000088 
L 743.359953 238.60888 
L 743.563871 238.60888 
L 743.970438 235.702864 
L 744.173091 235.702864 
L 744.375326 238.460363 
L 744.778547 238.460363 
L 744.979537 237.401933 
L 745.180115 240.142174 
L 745.380284 238.581132 
L 745.580045 241.309395 
L 746.37504 241.309395 
L 746.572785 244.009945 
L 746.967081 244.009945 
L 747.163636 246.683064 
L 747.163636 246.683064 
" style="fill:none;stroke:#d62728;stroke-linecap:square;stroke-width:1.5;"/>
   </g>
   <g id="line2d_40">
    <path clip-path="url(#pc13b17c5dd)" d="M -1 240.071281 
L 747.163636 240.071281 
L 747.163636 240.071281 
" style="fill:none;stroke:#000000;stroke-dasharray:5.55,2.4;stroke-dashoffset:0;stroke-width:1.5;"/>
   </g>
   <g id="line2d_41">
    <path clip-path="url(#pc13b17c5dd)" d="M -1 294.691776 
L 138.436364 294.691776 
L 206.352724 191.72535 
L 246.081248 191.72535 
L 274.269084 140.291013 
L 296.133268 140.291013 
L 313.997608 113.85395 
L 329.101691 290.109222 
L 342.185444 290.109222 
L 353.726132 199.815915 
L 364.049628 149.531591 
L 381.913968 149.531591 
L 389.75676 125.517593 
L 397.018052 133.477493 
L 403.778152 113.207383 
L 410.101804 101.142267 
L 416.041962 93.887984 
L 421.642492 110.525964 
L 426.940138 110.525964 
L 431.965988 100.173314 
L 436.746575 93.707961 
L 441.304727 93.707961 
L 445.660226 237.953347 
L 449.830328 184.463356 
L 453.830173 184.463356 
L 457.67312 156.000758 
L 461.371016 134.591236 
L 464.934412 134.591236 
L 468.37275 117.955278 
L 471.694512 119.484434 
L 474.907344 238.822496 
L 478.018164 238.822496 
L 481.033251 210.932241 
L 483.958322 182.769016 
L 486.798596 182.769016 
L 489.558852 154.14502 
L 492.243474 154.14502 
L 494.856498 134.299876 
L 497.401644 235.57201 
L 504.662936 235.57201 
L 506.968515 196.44659 
L 509.221087 169.879389 
L 511.423036 154.35172 
L 513.576587 144.782989 
L 515.68382 129.788352 
L 517.746688 118.564085 
L 521.746533 118.564085 
L 523.686846 206.040535 
L 525.58948 194.183762 
L 527.455872 169.75528 
L 529.287376 150.952814 
L 531.085272 136.417961 
L 532.850772 136.417961 
L 534.585022 127.042599 
L 536.28911 126.19591 
L 537.964067 119.139675 
L 539.610872 119.139675 
L 541.230456 112.031271 
L 542.823704 112.031271 
L 544.391459 106.468065 
L 545.934524 106.580579 
L 547.453665 102.174358 
L 550.423062 102.174358 
L 551.874682 98.730385 
L 553.30511 95.924827 
L 556.104804 95.924827 
L 557.475212 93.70259 
L 560.159835 93.70259 
L 561.475057 91.925876 
L 562.772859 91.925876 
L 564.053695 91.737488 
L 567.798709 91.737488 
L 569.015899 90.396619 
L 570.218155 90.396619 
L 571.405837 89.28 
L 572.579296 145.408 
L 573.738867 140.34009 
L 574.884875 136.010576 
L 576.017634 130.199895 
L 578.244607 130.199895 
L 579.339396 124.332145 
L 580.422088 120.279838 
L 581.492947 166.129735 
L 582.552228 156.3392 
L 583.60018 148.796497 
L 584.637043 189.319261 
L 585.663048 178.337685 
L 586.678421 178.337685 
L 587.683379 167.966873 
L 588.678135 167.966873 
L 589.662893 159.88428 
L 590.637852 164.550667 
L 591.603206 156.206297 
L 592.559141 156.206297 
L 593.50584 190.67798 
L 594.44348 184.118972 
L 595.372232 214.871427 
L 596.292263 202.439209 
L 597.203736 202.439209 
L 598.106808 192.287341 
L 599.001632 192.287341 
L 599.888358 220.006374 
L 600.767132 208.064771 
L 601.638094 233.583655 
L 602.501382 226.171571 
L 603.357131 249.406959 
L 604.205471 235.796561 
L 605.046528 235.796561 
L 605.880427 223.679328 
L 606.70729 245.698515 
L 608.340371 245.698515 
L 609.146816 233.582653 
L 613.850884 233.582653 
L 614.613399 224.090258 
L 615.370025 224.090258 
L 616.865971 207.080318 
L 617.605466 200.334471 
L 618.339422 219.18093 
L 619.791042 203.741494 
L 620.508867 197.114871 
L 621.22147 197.114871 
L 621.928929 214.725856 
L 623.328704 214.725856 
L 624.708764 200.857486 
L 625.391572 194.625677 
L 626.069655 191.697084 
L 628.736013 171.858337 
L 630.042467 202.922346 
L 630.689219 202.922346 
L 631.33173 197.414973 
L 631.970055 192.992608 
L 632.604249 192.992608 
L 633.860453 183.629077 
L 634.482567 197.279689 
L 635.715069 197.279689 
L 637.535231 187.26995 
L 638.134515 187.26995 
L 638.730156 184.833833 
L 640.495656 173.95855 
L 641.077157 173.95855 
L 641.655227 185.610328 
L 642.229906 182.050839 
L 642.801235 180.80657 
L 643.933994 174.386612 
L 645.053808 174.386612 
L 645.608951 171.497861 
L 646.160967 171.497861 
L 646.709891 168.785861 
L 647.255756 168.785861 
L 647.798598 167.203736 
L 648.338448 164.740557 
L 648.87534 164.740557 
L 649.940379 160.4383 
L 650.468588 158.985744 
L 650.993965 168.317242 
L 651.516541 168.317242 
L 652.036343 177.118841 
L 652.553403 174.691952 
L 653.067749 174.691952 
L 653.579408 172.399987 
L 654.08841 172.399987 
L 654.594781 170.233692 
L 655.098549 170.233692 
L 655.59974 168.184575 
L 657.579253 168.184575 
L 658.554212 164.550952 
L 659.038078 164.550952 
L 659.519566 162.859673 
L 659.9987 162.356766 
L 660.475501 162.356766 
L 660.949994 160.951789 
L 661.422201 162.146754 
L 661.892142 160.628424 
L 663.749688 160.628424 
L 664.208623 159.964767 
L 664.665419 159.964767 
L 665.120096 158.785077 
L 666.023168 158.785077 
L 666.471601 157.678649 
L 666.917992 156.996852 
L 667.362358 155.819535 
L 667.804718 155.819535 
L 669.119941 153.049894 
L 670.417743 153.049894 
L 670.846551 152.065932 
L 671.273491 152.065932 
L 672.121831 150.324279 
L 672.543262 154.980271 
L 672.962888 154.045564 
L 674.211091 154.045564 
L 674.62365 158.306255 
L 676.256731 154.835113 
L 676.660783 158.766344 
L 677.863039 158.766344 
L 679.050721 156.420879 
L 679.443438 156.72587 
L 680.22418 156.72587 
L 680.61223 155.96898 
L 680.99875 156.005805 
L 682.908802 152.416608 
L 683.286385 152.416608 
L 683.662518 152.036973 
L 684.037213 151.327712 
L 684.410481 151.327712 
L 685.152777 150.593518 
L 685.889491 150.540118 
L 686.255782 149.846062 
L 686.620708 149.411663 
L 686.98428 149.411663 
L 688.066972 147.469641 
L 688.782177 146.319003 
L 689.137831 145.667824 
L 689.492198 149.339873 
L 690.547676 147.485917 
L 690.896991 147.485917 
L 691.591906 146.252487 
L 691.937524 146.252487 
L 692.281927 145.772075 
L 692.967123 145.772075 
L 693.307932 145.539197 
L 693.64756 145.539197 
L 693.986015 145.22942 
L 694.323305 144.589308 
L 694.659438 144.589308 
L 694.994421 148.272313 
L 695.328263 147.934774 
L 697.633843 147.934774 
L 698.927361 145.304818 
L 699.24809 145.304818 
L 699.886415 144.029573 
L 700.204025 147.718263 
L 700.520609 147.718263 
L 700.836173 147.052871 
L 701.150724 150.710851 
L 702.088364 148.814703 
L 702.398927 148.814703 
L 702.708509 148.138173 
L 703.017116 148.138173 
L 703.324754 151.785129 
L 703.937147 151.785129 
L 704.545737 150.378902 
L 705.451591 150.378902 
L 706.050875 149.001098 
L 706.349148 149.001098 
L 707.238558 147.239039 
L 707.533242 150.895129 
L 707.827043 150.895129 
L 708.412016 149.592791 
L 708.703198 153.224972 
L 708.993517 152.994077 
L 709.282978 152.994077 
L 709.571587 152.275094 
L 710.146266 152.275094 
L 710.432347 151.563414 
L 710.717595 151.563414 
L 711.002015 151.192445 
L 711.850354 151.192445 
L 712.13151 150.491762 
L 712.411861 154.114812 
L 712.970168 154.114812 
L 713.525311 152.661497 
L 713.801708 152.661497 
L 714.077328 152.031793 
L 715.172117 152.031793 
L 715.443913 155.639199 
L 715.714958 155.639199 
L 715.985255 154.893348 
L 716.254808 158.471687 
L 716.523622 157.782965 
L 716.7917 161.331952 
L 717.059047 160.528276 
L 717.325667 160.528276 
L 717.591563 159.732763 
L 717.856739 163.261945 
L 718.1212 162.772145 
L 718.384948 162.772145 
L 718.910326 161.31221 
L 719.432901 161.31221 
L 719.693147 160.508734 
L 720.469763 160.508734 
L 720.727273 159.713419 
L 720.984109 159.713419 
L 721.240273 163.242798 
L 721.495768 162.419711 
L 722.00477 162.419711 
L 722.258283 161.938467 
L 722.763349 161.938467 
L 723.265825 160.66296 
L 723.5161 164.182694 
L 723.765737 164.182694 
L 724.01474 167.666674 
L 724.263112 166.798652 
L 724.510855 166.798652 
L 724.757974 170.25606 
L 725.495613 167.686146 
L 725.984306 167.686146 
L 726.470573 166.126888 
L 727.195478 166.126888 
L 727.435926 165.687251 
L 727.675786 164.925236 
L 727.91506 164.651633 
L 728.153751 164.651633 
L 728.391862 163.984328 
L 728.629395 163.984328 
L 729.338561 161.517698 
L 730.973588 161.517698 
L 731.435771 159.914754 
L 731.666048 159.538218 
L 732.124983 157.975284 
L 732.353648 157.975284 
L 732.58178 161.522318 
L 732.809381 161.522318 
L 733.036456 160.716707 
L 733.263005 160.716707 
L 733.489032 164.235895 
L 733.714539 163.488621 
L 733.939528 163.488621 
L 734.164001 162.663038 
L 734.387961 166.162455 
L 735.056787 163.630122 
L 735.278718 163.630122 
L 735.500148 162.889002 
L 735.721079 166.386124 
L 735.941512 166.386124 
L 736.161451 165.531109 
L 736.599852 165.531109 
L 736.81832 164.937386 
L 737.036301 168.413701 
L 737.253798 168.413701 
L 737.470814 167.790697 
L 737.68735 167.790697 
L 737.903409 166.921415 
L 738.548742 166.921415 
L 738.762911 170.377576 
L 739.189851 169.0083 
L 739.614939 167.338982 
L 739.826793 170.790902 
L 740.038191 170.790902 
L 740.249133 174.207759 
L 740.459622 174.207759 
L 740.879248 172.34832 
L 741.297085 172.34832 
L 741.505337 171.923175 
L 741.920518 171.923175 
L 742.74564 168.502493 
L 742.950839 168.502493 
L 743.359953 166.758371 
L 743.563871 166.758371 
L 743.970438 165.219593 
L 744.173091 165.219593 
L 744.375326 168.693041 
L 744.778547 168.693041 
L 744.979537 167.814593 
L 745.180115 167.814593 
L 745.380284 166.945067 
L 745.580045 170.400989 
L 745.779399 170.400989 
L 746.176895 168.618494 
L 746.967081 168.618494 
L 747.163636 172.057417 
L 747.163636 172.057417 
" style="fill:none;stroke:#9467bd;stroke-linecap:square;stroke-width:1.5;"/>
   </g>
   <g id="line2d_42">
    <path clip-path="url(#pc13b17c5dd)" d="M -1 162.666341 
L 747.163636 162.666341 
L 747.163636 162.666341 
" style="fill:none;stroke:#000000;stroke-dasharray:5.55,2.4;stroke-dashoffset:0;stroke-width:1.5;"/>
   </g>
   <g id="patch_3">
    <path d="M 108 512.64 
L 108 69.12 
" style="fill:none;stroke:#000000;stroke-linecap:square;stroke-linejoin:miter;stroke-width:0.8;"/>
   </g>
   <g id="patch_4">
    <path d="M 777.6 512.64 
L 777.6 69.12 
" style="fill:none;stroke:#000000;stroke-linecap:square;stroke-linejoin:miter;stroke-width:0.8;"/>
   </g>
   <g id="patch_5">
    <path d="M 108 512.64 
L 777.6 512.64 
" style="fill:none;stroke:#000000;stroke-linecap:square;stroke-linejoin:miter;stroke-width:0.8;"/>
   </g>
   <g id="patch_6">
    <path d="M 108 69.12 
L 777.6 69.12 
" style="fill:none;stroke:#000000;stroke-linecap:square;stroke-linejoin:miter;stroke-width:0.8;"/>
   </g>
   <g id="text_12">
    <!-- FVMC estimates through time vs true values -->
    <g transform="translate(309.2775 63.12)scale(0.12 -0.12)">
     <defs>
      <path d="M 628 4666 
L 1569 4666 
L 2759 1491 
L 3956 4666 
L 4897 4666 
L 4897 0 
L 4281 0 
L 4281 4097 
L 3078 897 
L 2444 897 
L 1241 4097 
L 1241 0 
L 628 0 
L 628 4666 
z
" id="DejaVuSans-4d" transform="scale(0.015625)"/>
      <path d="M 4122 4306 
L 4122 3641 
Q 3803 3938 3442 4084 
Q 3081 4231 2675 4231 
Q 1875 4231 1450 3742 
Q 1025 3253 1025 2328 
Q 1025 1406 1450 917 
Q 1875 428 2675 428 
Q 3081 428 3442 575 
Q 3803 722 4122 1019 
L 4122 359 
Q 3791 134 3420 21 
Q 3050 -91 2638 -91 
Q 1578 -91 968 557 
Q 359 1206 359 2328 
Q 359 3453 968 4101 
Q 1578 4750 2638 4750 
Q 3056 4750 3426 4639 
Q 3797 4528 4122 4306 
z
" id="DejaVuSans-43" transform="scale(0.015625)"/>
      <path d="M 3328 2828 
Q 3544 3216 3844 3400 
Q 4144 3584 4550 3584 
Q 5097 3584 5394 3201 
Q 5691 2819 5691 2113 
L 5691 0 
L 5113 0 
L 5113 2094 
Q 5113 2597 4934 2840 
Q 4756 3084 4391 3084 
Q 3944 3084 3684 2787 
Q 3425 2491 3425 1978 
L 3425 0 
L 2847 0 
L 2847 2094 
Q 2847 2600 2669 2842 
Q 2491 3084 2119 3084 
Q 1678 3084 1418 2786 
Q 1159 2488 1159 1978 
L 1159 0 
L 581 0 
L 581 3500 
L 1159 3500 
L 1159 2956 
Q 1356 3278 1631 3431 
Q 1906 3584 2284 3584 
Q 2666 3584 2933 3390 
Q 3200 3197 3328 2828 
z
" id="DejaVuSans-6d" transform="scale(0.015625)"/>
      <path d="M 3513 2113 
L 3513 0 
L 2938 0 
L 2938 2094 
Q 2938 2591 2744 2837 
Q 2550 3084 2163 3084 
Q 1697 3084 1428 2787 
Q 1159 2491 1159 1978 
L 1159 0 
L 581 0 
L 581 4863 
L 1159 4863 
L 1159 2956 
Q 1366 3272 1645 3428 
Q 1925 3584 2291 3584 
Q 2894 3584 3203 3211 
Q 3513 2838 3513 2113 
z
" id="DejaVuSans-68" transform="scale(0.015625)"/>
      <path d="M 2631 2963 
Q 2534 3019 2420 3045 
Q 2306 3072 2169 3072 
Q 1681 3072 1420 2755 
Q 1159 2438 1159 1844 
L 1159 0 
L 581 0 
L 581 3500 
L 1159 3500 
L 1159 2956 
Q 1341 3275 1631 3429 
Q 1922 3584 2338 3584 
Q 2397 3584 2469 3576 
Q 2541 3569 2628 3553 
L 2631 2963 
z
" id="DejaVuSans-72" transform="scale(0.015625)"/>
      <path d="M 191 3500 
L 800 3500 
L 1894 563 
L 2988 3500 
L 3597 3500 
L 2284 0 
L 1503 0 
L 191 3500 
z
" id="DejaVuSans-76" transform="scale(0.015625)"/>
     </defs>
     <use xlink:href="#DejaVuSans-46"/>
     <use x="57.519531" xlink:href="#DejaVuSans-56"/>
     <use x="125.927734" xlink:href="#DejaVuSans-4d"/>
     <use x="212.207031" xlink:href="#DejaVuSans-43"/>
     <use x="282.03125" xlink:href="#DejaVuSans-20"/>
     <use x="313.818359" xlink:href="#DejaVuSans-65"/>
     <use x="375.341797" xlink:href="#DejaVuSans-73"/>
     <use x="427.441406" xlink:href="#DejaVuSans-74"/>
     <use x="466.650391" xlink:href="#DejaVuSans-69"/>
     <use x="494.433594" xlink:href="#DejaVuSans-6d"/>
     <use x="591.845703" xlink:href="#DejaVuSans-61"/>
     <use x="653.125" xlink:href="#DejaVuSans-74"/>
     <use x="692.333984" xlink:href="#DejaVuSans-65"/>
     <use x="753.857422" xlink:href="#DejaVuSans-73"/>
     <use x="805.957031" xlink:href="#DejaVuSans-20"/>
     <use x="837.744141" xlink:href="#DejaVuSans-74"/>
     <use x="876.953125" xlink:href="#DejaVuSans-68"/>
     <use x="940.332031" xlink:href="#DejaVuSans-72"/>
     <use x="979.195312" xlink:href="#DejaVuSans-6f"/>
     <use x="1040.376953" xlink:href="#DejaVuSans-75"/>
     <use x="1103.755859" xlink:href="#DejaVuSans-67"/>
     <use x="1167.232422" xlink:href="#DejaVuSans-68"/>
     <use x="1230.611328" xlink:href="#DejaVuSans-20"/>
     <use x="1262.398438" xlink:href="#DejaVuSans-74"/>
     <use x="1301.607422" xlink:href="#DejaVuSans-69"/>
     <use x="1329.390625" xlink:href="#DejaVuSans-6d"/>
     <use x="1426.802734" xlink:href="#DejaVuSans-65"/>
     <use x="1488.326172" xlink:href="#DejaVuSans-20"/>
     <use x="1520.113281" xlink:href="#DejaVuSans-76"/>
     <use x="1579.292969" xlink:href="#DejaVuSans-73"/>
     <use x="1631.392578" xlink:href="#DejaVuSans-20"/>
     <use x="1663.179688" xlink:href="#DejaVuSans-74"/>
     <use x="1702.388672" xlink:href="#DejaVuSans-72"/>
     <use x="1743.501953" xlink:href="#DejaVuSans-75"/>
     <use x="1806.880859" xlink:href="#DejaVuSans-65"/>
     <use x="1868.404297" xlink:href="#DejaVuSans-20"/>
     <use x="1900.191406" xlink:href="#DejaVuSans-76"/>
     <use x="1959.371094" xlink:href="#DejaVuSans-61"/>
     <use x="2020.650391" xlink:href="#DejaVuSans-6c"/>
     <use x="2048.433594" xlink:href="#DejaVuSans-75"/>
     <use x="2111.8125" xlink:href="#DejaVuSans-65"/>
     <use x="2173.335938" xlink:href="#DejaVuSans-73"/>
    </g>
   </g>
   <g id="legend_1">
    <g id="patch_7">
     <path d="M 784.6 329.075312 
L 837.60625 329.075312 
Q 839.60625 329.075312 839.60625 327.075312 
L 839.60625 254.684687 
Q 839.60625 252.684687 837.60625 252.684687 
L 784.6 252.684687 
Q 782.6 252.684687 782.6 254.684687 
L 782.6 327.075312 
Q 782.6 329.075312 784.6 329.075312 
z
" style="fill:#ffffff;opacity:0.8;stroke:#cccccc;stroke-linejoin:miter;"/>
    </g>
    <g id="line2d_43">
     <path d="M 786.6 260.783125 
L 806.6 260.783125 
" style="fill:none;stroke:#1f77b4;stroke-linecap:square;stroke-width:1.5;"/>
    </g>
    <g id="line2d_44"/>
    <g id="text_13">
     <!-- V(1) -->
     <g transform="translate(814.6 264.283125)scale(0.1 -0.1)">
      <use xlink:href="#DejaVuSans-56"/>
      <use x="68.408203" xlink:href="#DejaVuSans-28"/>
      <use x="107.421875" xlink:href="#DejaVuSans-31"/>
      <use x="171.044922" xlink:href="#DejaVuSans-29"/>
     </g>
    </g>
    <g id="line2d_45">
     <path d="M 786.6 275.46125 
L 806.6 275.46125 
" style="fill:none;stroke:#ff7f0e;stroke-linecap:square;stroke-width:1.5;"/>
    </g>
    <g id="line2d_46"/>
    <g id="text_14">
     <!-- V(2) -->
     <g transform="translate(814.6 278.96125)scale(0.1 -0.1)">
      <use xlink:href="#DejaVuSans-56"/>
      <use x="68.408203" xlink:href="#DejaVuSans-28"/>
      <use x="107.421875" xlink:href="#DejaVuSans-32"/>
      <use x="171.044922" xlink:href="#DejaVuSans-29"/>
     </g>
    </g>
    <g id="line2d_47">
     <path d="M 786.6 290.139375 
L 806.6 290.139375 
" style="fill:none;stroke:#2ca02c;stroke-linecap:square;stroke-width:1.5;"/>
    </g>
    <g id="line2d_48"/>
    <g id="text_15">
     <!-- V(3) -->
     <g transform="translate(814.6 293.639375)scale(0.1 -0.1)">
      <defs>
       <path d="M 2597 2516 
Q 3050 2419 3304 2112 
Q 3559 1806 3559 1356 
Q 3559 666 3084 287 
Q 2609 -91 1734 -91 
Q 1441 -91 1130 -33 
Q 819 25 488 141 
L 488 750 
Q 750 597 1062 519 
Q 1375 441 1716 441 
Q 2309 441 2620 675 
Q 2931 909 2931 1356 
Q 2931 1769 2642 2001 
Q 2353 2234 1838 2234 
L 1294 2234 
L 1294 2753 
L 1863 2753 
Q 2328 2753 2575 2939 
Q 2822 3125 2822 3475 
Q 2822 3834 2567 4026 
Q 2313 4219 1838 4219 
Q 1578 4219 1281 4162 
Q 984 4106 628 3988 
L 628 4550 
Q 988 4650 1302 4700 
Q 1616 4750 1894 4750 
Q 2613 4750 3031 4423 
Q 3450 4097 3450 3541 
Q 3450 3153 3228 2886 
Q 3006 2619 2597 2516 
z
" id="DejaVuSans-33" transform="scale(0.015625)"/>
      </defs>
      <use xlink:href="#DejaVuSans-56"/>
      <use x="68.408203" xlink:href="#DejaVuSans-28"/>
      <use x="107.421875" xlink:href="#DejaVuSans-33"/>
      <use x="171.044922" xlink:href="#DejaVuSans-29"/>
     </g>
    </g>
    <g id="line2d_49">
     <path d="M 786.6 304.8175 
L 806.6 304.8175 
" style="fill:none;stroke:#d62728;stroke-linecap:square;stroke-width:1.5;"/>
    </g>
    <g id="line2d_50"/>
    <g id="text_16">
     <!-- V(4) -->
     <g transform="translate(814.6 308.3175)scale(0.1 -0.1)">
      <use xlink:href="#DejaVuSans-56"/>
      <use x="68.408203" xlink:href="#DejaVuSans-28"/>
      <use x="107.421875" xlink:href="#DejaVuSans-34"/>
      <use x="171.044922" xlink:href="#DejaVuSans-29"/>
     </g>
    </g>
    <g id="line2d_51">
     <path d="M 786.6 319.495625 
L 806.6 319.495625 
" style="fill:none;stroke:#9467bd;stroke-linecap:square;stroke-width:1.5;"/>
    </g>
    <g id="line2d_52"/>
    <g id="text_17">
     <!-- V(5) -->
     <g transform="translate(814.6 322.995625)scale(0.1 -0.1)">
      <defs>
       <path d="M 691 4666 
L 3169 4666 
L 3169 4134 
L 1269 4134 
L 1269 2991 
Q 1406 3038 1543 3061 
Q 1681 3084 1819 3084 
Q 2600 3084 3056 2656 
Q 3513 2228 3513 1497 
Q 3513 744 3044 326 
Q 2575 -91 1722 -91 
Q 1428 -91 1123 -41 
Q 819 9 494 109 
L 494 744 
Q 775 591 1075 516 
Q 1375 441 1709 441 
Q 2250 441 2565 725 
Q 2881 1009 2881 1497 
Q 2881 1984 2565 2268 
Q 2250 2553 1709 2553 
Q 1456 2553 1204 2497 
Q 953 2441 691 2322 
L 691 4666 
z
" id="DejaVuSans-35" transform="scale(0.015625)"/>
      </defs>
      <use xlink:href="#DejaVuSans-56"/>
      <use x="68.408203" xlink:href="#DejaVuSans-28"/>
      <use x="107.421875" xlink:href="#DejaVuSans-35"/>
      <use x="171.044922" xlink:href="#DejaVuSans-29"/>
     </g>
    </g>
   </g>
  </g>
 </g>
 <defs>
  <clipPath id="pc13b17c5dd">
   <rect height="443.52" width="669.6" x="108" y="69.12"/>
  </clipPath>
 </defs>
</svg>
