<?xml version="1.0" encoding="utf-8" standalone="no"?>
<!DOCTYPE svg PUBLIC "-//W3C//DTD SVG 1.1//EN"
  "http://www.w3.org/Graphics/SVG/1.1/DTD/svg11.dtd">
<svg height="576pt" version="1.1" viewBox="0 0 864 576" width="864pt" xmlns="http://www.w3.org/2000/svg" xmlns:xlink="http://www.w3.org/1999/xlink">
 <metadata>
  <rdf:RDF xmlns:cc="http://creativecommons.org/ns#" xmlns:dc="http://purl.org/dc/elements/1.1/" xmlns:rdf="http://www.w3.org/1999/02/22-rdf-syntax-ns#">
   <cc:Work>
    <dc:type rdf:resource="http://purl.org/dc/dcmitype/StillImage"/>
    <dc:date>2021-09-11T10:24:57.481859</dc:date>
    <dc:format>image/svg+xml</dc:format>
    <dc:creator>
     <cc:Agent>
      <dc:title>Matplotlib v3.4.3, https://matplotlib.org/</dc:title>
     </cc:Agent>
    </dc:creator>
   </cc:Work>
  </rdf:RDF>
 </metadata>
 <defs>
  <style type="text/css">*{stroke-linecap:butt;stroke-linejoin:round;}</style>
 </defs>
 <g id="figure_1">
  <g id="patch_1">
   <path d="M 0 576 
L 864 576 
L 864 0 
L 0 0 
z
" style="fill:#ffffff;"/>
  </g>
  <g id="axes_1">
   <g id="patch_2">
    <path d="M 108 512.64 
L 710.64 512.64 
L 710.64 69.12 
L 108 69.12 
z
" style="fill:#ffffff;"/>
   </g>
   <g id="matplotlib.axis_1">
    <g id="xtick_1">
     <g id="line2d_1">
      <defs>
       <path d="M 0 0 
L 0 3.5 
" id="m241fd3a97c" style="stroke:#000000;stroke-width:0.8;"/>
      </defs>
      <g>
       <use style="stroke:#000000;stroke-width:0.8;" x="135.392727" xlink:href="#m241fd3a97c" y="512.64"/>
      </g>
     </g>
     <g id="text_1">
      <!-- $\mathdefault{10^{0}}$ -->
      <g transform="translate(123.072727 530.277812)scale(0.14 -0.14)">
       <defs>
        <path d="M 794 531 
L 1825 531 
L 1825 4091 
L 703 3866 
L 703 4441 
L 1819 4666 
L 2450 4666 
L 2450 531 
L 3481 531 
L 3481 0 
L 794 0 
L 794 531 
z
" id="DejaVuSans-31" transform="scale(0.015625)"/>
        <path d="M 2034 4250 
Q 1547 4250 1301 3770 
Q 1056 3291 1056 2328 
Q 1056 1369 1301 889 
Q 1547 409 2034 409 
Q 2525 409 2770 889 
Q 3016 1369 3016 2328 
Q 3016 3291 2770 3770 
Q 2525 4250 2034 4250 
z
M 2034 4750 
Q 2819 4750 3233 4129 
Q 3647 3509 3647 2328 
Q 3647 1150 3233 529 
Q 2819 -91 2034 -91 
Q 1250 -91 836 529 
Q 422 1150 422 2328 
Q 422 3509 836 4129 
Q 1250 4750 2034 4750 
z
" id="DejaVuSans-30" transform="scale(0.015625)"/>
       </defs>
       <use transform="translate(0 0.765625)" xlink:href="#DejaVuSans-31"/>
       <use transform="translate(63.623047 0.765625)" xlink:href="#DejaVuSans-30"/>
       <use transform="translate(128.203125 39.046875)scale(0.7)" xlink:href="#DejaVuSans-30"/>
      </g>
     </g>
    </g>
    <g id="xtick_2">
     <g id="line2d_2">
      <g>
       <use style="stroke:#000000;stroke-width:0.8;" x="338.444666" xlink:href="#m241fd3a97c" y="512.64"/>
      </g>
     </g>
     <g id="text_2">
      <!-- $\mathdefault{10^{1}}$ -->
      <g transform="translate(326.124666 530.277812)scale(0.14 -0.14)">
       <use transform="translate(0 0.684375)" xlink:href="#DejaVuSans-31"/>
       <use transform="translate(63.623047 0.684375)" xlink:href="#DejaVuSans-30"/>
       <use transform="translate(128.203125 38.965625)scale(0.7)" xlink:href="#DejaVuSans-31"/>
      </g>
     </g>
    </g>
    <g id="xtick_3">
     <g id="line2d_3">
      <g>
       <use style="stroke:#000000;stroke-width:0.8;" x="541.496604" xlink:href="#m241fd3a97c" y="512.64"/>
      </g>
     </g>
     <g id="text_3">
      <!-- $\mathdefault{10^{2}}$ -->
      <g transform="translate(529.176604 530.277812)scale(0.14 -0.14)">
       <defs>
        <path d="M 1228 531 
L 3431 531 
L 3431 0 
L 469 0 
L 469 531 
Q 828 903 1448 1529 
Q 2069 2156 2228 2338 
Q 2531 2678 2651 2914 
Q 2772 3150 2772 3378 
Q 2772 3750 2511 3984 
Q 2250 4219 1831 4219 
Q 1534 4219 1204 4116 
Q 875 4013 500 3803 
L 500 4441 
Q 881 4594 1212 4672 
Q 1544 4750 1819 4750 
Q 2544 4750 2975 4387 
Q 3406 4025 3406 3419 
Q 3406 3131 3298 2873 
Q 3191 2616 2906 2266 
Q 2828 2175 2409 1742 
Q 1991 1309 1228 531 
z
" id="DejaVuSans-32" transform="scale(0.015625)"/>
       </defs>
       <use transform="translate(0 0.765625)" xlink:href="#DejaVuSans-31"/>
       <use transform="translate(63.623047 0.765625)" xlink:href="#DejaVuSans-30"/>
       <use transform="translate(128.203125 39.046875)scale(0.7)" xlink:href="#DejaVuSans-32"/>
      </g>
     </g>
    </g>
    <g id="xtick_4">
     <g id="line2d_4">
      <defs>
       <path d="M 0 0 
L 0 2 
" id="m73d258787f" style="stroke:#000000;stroke-width:0.6;"/>
      </defs>
      <g>
       <use style="stroke:#000000;stroke-width:0.6;" x="115.714961" xlink:href="#m73d258787f" y="512.64"/>
      </g>
     </g>
    </g>
    <g id="xtick_5">
     <g id="line2d_5">
      <g>
       <use style="stroke:#000000;stroke-width:0.6;" x="126.10158" xlink:href="#m73d258787f" y="512.64"/>
      </g>
     </g>
    </g>
    <g id="xtick_6">
     <g id="line2d_6">
      <g>
       <use style="stroke:#000000;stroke-width:0.6;" x="196.517451" xlink:href="#m73d258787f" y="512.64"/>
      </g>
     </g>
    </g>
    <g id="xtick_7">
     <g id="line2d_7">
      <g>
       <use style="stroke:#000000;stroke-width:0.6;" x="232.273123" xlink:href="#m73d258787f" y="512.64"/>
      </g>
     </g>
    </g>
    <g id="xtick_8">
     <g id="line2d_8">
      <g>
       <use style="stroke:#000000;stroke-width:0.6;" x="257.642175" xlink:href="#m73d258787f" y="512.64"/>
      </g>
     </g>
    </g>
    <g id="xtick_9">
     <g id="line2d_9">
      <g>
       <use style="stroke:#000000;stroke-width:0.6;" x="277.319941" xlink:href="#m73d258787f" y="512.64"/>
      </g>
     </g>
    </g>
    <g id="xtick_10">
     <g id="line2d_10">
      <g>
       <use style="stroke:#000000;stroke-width:0.6;" x="293.397847" xlink:href="#m73d258787f" y="512.64"/>
      </g>
     </g>
    </g>
    <g id="xtick_11">
     <g id="line2d_11">
      <g>
       <use style="stroke:#000000;stroke-width:0.6;" x="306.991522" xlink:href="#m73d258787f" y="512.64"/>
      </g>
     </g>
    </g>
    <g id="xtick_12">
     <g id="line2d_12">
      <g>
       <use style="stroke:#000000;stroke-width:0.6;" x="318.7669" xlink:href="#m73d258787f" y="512.64"/>
      </g>
     </g>
    </g>
    <g id="xtick_13">
     <g id="line2d_13">
      <g>
       <use style="stroke:#000000;stroke-width:0.6;" x="329.153518" xlink:href="#m73d258787f" y="512.64"/>
      </g>
     </g>
    </g>
    <g id="xtick_14">
     <g id="line2d_14">
      <g>
       <use style="stroke:#000000;stroke-width:0.6;" x="399.56939" xlink:href="#m73d258787f" y="512.64"/>
      </g>
     </g>
    </g>
    <g id="xtick_15">
     <g id="line2d_15">
      <g>
       <use style="stroke:#000000;stroke-width:0.6;" x="435.325061" xlink:href="#m73d258787f" y="512.64"/>
      </g>
     </g>
    </g>
    <g id="xtick_16">
     <g id="line2d_16">
      <g>
       <use style="stroke:#000000;stroke-width:0.6;" x="460.694114" xlink:href="#m73d258787f" y="512.64"/>
      </g>
     </g>
    </g>
    <g id="xtick_17">
     <g id="line2d_17">
      <g>
       <use style="stroke:#000000;stroke-width:0.6;" x="480.37188" xlink:href="#m73d258787f" y="512.64"/>
      </g>
     </g>
    </g>
    <g id="xtick_18">
     <g id="line2d_18">
      <g>
       <use style="stroke:#000000;stroke-width:0.6;" x="496.449785" xlink:href="#m73d258787f" y="512.64"/>
      </g>
     </g>
    </g>
    <g id="xtick_19">
     <g id="line2d_19">
      <g>
       <use style="stroke:#000000;stroke-width:0.6;" x="510.043461" xlink:href="#m73d258787f" y="512.64"/>
      </g>
     </g>
    </g>
    <g id="xtick_20">
     <g id="line2d_20">
      <g>
       <use style="stroke:#000000;stroke-width:0.6;" x="521.818838" xlink:href="#m73d258787f" y="512.64"/>
      </g>
     </g>
    </g>
    <g id="xtick_21">
     <g id="line2d_21">
      <g>
       <use style="stroke:#000000;stroke-width:0.6;" x="532.205457" xlink:href="#m73d258787f" y="512.64"/>
      </g>
     </g>
    </g>
    <g id="xtick_22">
     <g id="line2d_22">
      <g>
       <use style="stroke:#000000;stroke-width:0.6;" x="602.621328" xlink:href="#m73d258787f" y="512.64"/>
      </g>
     </g>
    </g>
    <g id="xtick_23">
     <g id="line2d_23">
      <g>
       <use style="stroke:#000000;stroke-width:0.6;" x="638.376999" xlink:href="#m73d258787f" y="512.64"/>
      </g>
     </g>
    </g>
    <g id="xtick_24">
     <g id="line2d_24">
      <g>
       <use style="stroke:#000000;stroke-width:0.6;" x="663.746052" xlink:href="#m73d258787f" y="512.64"/>
      </g>
     </g>
    </g>
    <g id="xtick_25">
     <g id="line2d_25">
      <g>
       <use style="stroke:#000000;stroke-width:0.6;" x="683.423818" xlink:href="#m73d258787f" y="512.64"/>
      </g>
     </g>
    </g>
    <g id="xtick_26">
     <g id="line2d_26">
      <g>
       <use style="stroke:#000000;stroke-width:0.6;" x="699.501723" xlink:href="#m73d258787f" y="512.64"/>
      </g>
     </g>
    </g>
    <g id="text_4">
     <!-- Episodes (log scale) -->
     <g transform="translate(339.560625 547.827188)scale(0.14 -0.14)">
      <defs>
       <path d="M 628 4666 
L 3578 4666 
L 3578 4134 
L 1259 4134 
L 1259 2753 
L 3481 2753 
L 3481 2222 
L 1259 2222 
L 1259 531 
L 3634 531 
L 3634 0 
L 628 0 
L 628 4666 
z
" id="DejaVuSans-45" transform="scale(0.015625)"/>
       <path d="M 1159 525 
L 1159 -1331 
L 581 -1331 
L 581 3500 
L 1159 3500 
L 1159 2969 
Q 1341 3281 1617 3432 
Q 1894 3584 2278 3584 
Q 2916 3584 3314 3078 
Q 3713 2572 3713 1747 
Q 3713 922 3314 415 
Q 2916 -91 2278 -91 
Q 1894 -91 1617 61 
Q 1341 213 1159 525 
z
M 3116 1747 
Q 3116 2381 2855 2742 
Q 2594 3103 2138 3103 
Q 1681 3103 1420 2742 
Q 1159 2381 1159 1747 
Q 1159 1113 1420 752 
Q 1681 391 2138 391 
Q 2594 391 2855 752 
Q 3116 1113 3116 1747 
z
" id="DejaVuSans-70" transform="scale(0.015625)"/>
       <path d="M 603 3500 
L 1178 3500 
L 1178 0 
L 603 0 
L 603 3500 
z
M 603 4863 
L 1178 4863 
L 1178 4134 
L 603 4134 
L 603 4863 
z
" id="DejaVuSans-69" transform="scale(0.015625)"/>
       <path d="M 2834 3397 
L 2834 2853 
Q 2591 2978 2328 3040 
Q 2066 3103 1784 3103 
Q 1356 3103 1142 2972 
Q 928 2841 928 2578 
Q 928 2378 1081 2264 
Q 1234 2150 1697 2047 
L 1894 2003 
Q 2506 1872 2764 1633 
Q 3022 1394 3022 966 
Q 3022 478 2636 193 
Q 2250 -91 1575 -91 
Q 1294 -91 989 -36 
Q 684 19 347 128 
L 347 722 
Q 666 556 975 473 
Q 1284 391 1588 391 
Q 1994 391 2212 530 
Q 2431 669 2431 922 
Q 2431 1156 2273 1281 
Q 2116 1406 1581 1522 
L 1381 1569 
Q 847 1681 609 1914 
Q 372 2147 372 2553 
Q 372 3047 722 3315 
Q 1072 3584 1716 3584 
Q 2034 3584 2315 3537 
Q 2597 3491 2834 3397 
z
" id="DejaVuSans-73" transform="scale(0.015625)"/>
       <path d="M 1959 3097 
Q 1497 3097 1228 2736 
Q 959 2375 959 1747 
Q 959 1119 1226 758 
Q 1494 397 1959 397 
Q 2419 397 2687 759 
Q 2956 1122 2956 1747 
Q 2956 2369 2687 2733 
Q 2419 3097 1959 3097 
z
M 1959 3584 
Q 2709 3584 3137 3096 
Q 3566 2609 3566 1747 
Q 3566 888 3137 398 
Q 2709 -91 1959 -91 
Q 1206 -91 779 398 
Q 353 888 353 1747 
Q 353 2609 779 3096 
Q 1206 3584 1959 3584 
z
" id="DejaVuSans-6f" transform="scale(0.015625)"/>
       <path d="M 2906 2969 
L 2906 4863 
L 3481 4863 
L 3481 0 
L 2906 0 
L 2906 525 
Q 2725 213 2448 61 
Q 2172 -91 1784 -91 
Q 1150 -91 751 415 
Q 353 922 353 1747 
Q 353 2572 751 3078 
Q 1150 3584 1784 3584 
Q 2172 3584 2448 3432 
Q 2725 3281 2906 2969 
z
M 947 1747 
Q 947 1113 1208 752 
Q 1469 391 1925 391 
Q 2381 391 2643 752 
Q 2906 1113 2906 1747 
Q 2906 2381 2643 2742 
Q 2381 3103 1925 3103 
Q 1469 3103 1208 2742 
Q 947 2381 947 1747 
z
" id="DejaVuSans-64" transform="scale(0.015625)"/>
       <path d="M 3597 1894 
L 3597 1613 
L 953 1613 
Q 991 1019 1311 708 
Q 1631 397 2203 397 
Q 2534 397 2845 478 
Q 3156 559 3463 722 
L 3463 178 
Q 3153 47 2828 -22 
Q 2503 -91 2169 -91 
Q 1331 -91 842 396 
Q 353 884 353 1716 
Q 353 2575 817 3079 
Q 1281 3584 2069 3584 
Q 2775 3584 3186 3129 
Q 3597 2675 3597 1894 
z
M 3022 2063 
Q 3016 2534 2758 2815 
Q 2500 3097 2075 3097 
Q 1594 3097 1305 2825 
Q 1016 2553 972 2059 
L 3022 2063 
z
" id="DejaVuSans-65" transform="scale(0.015625)"/>
       <path id="DejaVuSans-20" transform="scale(0.015625)"/>
       <path d="M 1984 4856 
Q 1566 4138 1362 3434 
Q 1159 2731 1159 2009 
Q 1159 1288 1364 580 
Q 1569 -128 1984 -844 
L 1484 -844 
Q 1016 -109 783 600 
Q 550 1309 550 2009 
Q 550 2706 781 3412 
Q 1013 4119 1484 4856 
L 1984 4856 
z
" id="DejaVuSans-28" transform="scale(0.015625)"/>
       <path d="M 603 4863 
L 1178 4863 
L 1178 0 
L 603 0 
L 603 4863 
z
" id="DejaVuSans-6c" transform="scale(0.015625)"/>
       <path d="M 2906 1791 
Q 2906 2416 2648 2759 
Q 2391 3103 1925 3103 
Q 1463 3103 1205 2759 
Q 947 2416 947 1791 
Q 947 1169 1205 825 
Q 1463 481 1925 481 
Q 2391 481 2648 825 
Q 2906 1169 2906 1791 
z
M 3481 434 
Q 3481 -459 3084 -895 
Q 2688 -1331 1869 -1331 
Q 1566 -1331 1297 -1286 
Q 1028 -1241 775 -1147 
L 775 -588 
Q 1028 -725 1275 -790 
Q 1522 -856 1778 -856 
Q 2344 -856 2625 -561 
Q 2906 -266 2906 331 
L 2906 616 
Q 2728 306 2450 153 
Q 2172 0 1784 0 
Q 1141 0 747 490 
Q 353 981 353 1791 
Q 353 2603 747 3093 
Q 1141 3584 1784 3584 
Q 2172 3584 2450 3431 
Q 2728 3278 2906 2969 
L 2906 3500 
L 3481 3500 
L 3481 434 
z
" id="DejaVuSans-67" transform="scale(0.015625)"/>
       <path d="M 3122 3366 
L 3122 2828 
Q 2878 2963 2633 3030 
Q 2388 3097 2138 3097 
Q 1578 3097 1268 2742 
Q 959 2388 959 1747 
Q 959 1106 1268 751 
Q 1578 397 2138 397 
Q 2388 397 2633 464 
Q 2878 531 3122 666 
L 3122 134 
Q 2881 22 2623 -34 
Q 2366 -91 2075 -91 
Q 1284 -91 818 406 
Q 353 903 353 1747 
Q 353 2603 823 3093 
Q 1294 3584 2113 3584 
Q 2378 3584 2631 3529 
Q 2884 3475 3122 3366 
z
" id="DejaVuSans-63" transform="scale(0.015625)"/>
       <path d="M 2194 1759 
Q 1497 1759 1228 1600 
Q 959 1441 959 1056 
Q 959 750 1161 570 
Q 1363 391 1709 391 
Q 2188 391 2477 730 
Q 2766 1069 2766 1631 
L 2766 1759 
L 2194 1759 
z
M 3341 1997 
L 3341 0 
L 2766 0 
L 2766 531 
Q 2569 213 2275 61 
Q 1981 -91 1556 -91 
Q 1019 -91 701 211 
Q 384 513 384 1019 
Q 384 1609 779 1909 
Q 1175 2209 1959 2209 
L 2766 2209 
L 2766 2266 
Q 2766 2663 2505 2880 
Q 2244 3097 1772 3097 
Q 1472 3097 1187 3025 
Q 903 2953 641 2809 
L 641 3341 
Q 956 3463 1253 3523 
Q 1550 3584 1831 3584 
Q 2591 3584 2966 3190 
Q 3341 2797 3341 1997 
z
" id="DejaVuSans-61" transform="scale(0.015625)"/>
       <path d="M 513 4856 
L 1013 4856 
Q 1481 4119 1714 3412 
Q 1947 2706 1947 2009 
Q 1947 1309 1714 600 
Q 1481 -109 1013 -844 
L 513 -844 
Q 928 -128 1133 580 
Q 1338 1288 1338 2009 
Q 1338 2731 1133 3434 
Q 928 4138 513 4856 
z
" id="DejaVuSans-29" transform="scale(0.015625)"/>
      </defs>
      <use xlink:href="#DejaVuSans-45"/>
      <use x="63.183594" xlink:href="#DejaVuSans-70"/>
      <use x="126.660156" xlink:href="#DejaVuSans-69"/>
      <use x="154.443359" xlink:href="#DejaVuSans-73"/>
      <use x="206.542969" xlink:href="#DejaVuSans-6f"/>
      <use x="267.724609" xlink:href="#DejaVuSans-64"/>
      <use x="331.201172" xlink:href="#DejaVuSans-65"/>
      <use x="392.724609" xlink:href="#DejaVuSans-73"/>
      <use x="444.824219" xlink:href="#DejaVuSans-20"/>
      <use x="476.611328" xlink:href="#DejaVuSans-28"/>
      <use x="515.625" xlink:href="#DejaVuSans-6c"/>
      <use x="543.408203" xlink:href="#DejaVuSans-6f"/>
      <use x="604.589844" xlink:href="#DejaVuSans-67"/>
      <use x="668.066406" xlink:href="#DejaVuSans-20"/>
      <use x="699.853516" xlink:href="#DejaVuSans-73"/>
      <use x="751.953125" xlink:href="#DejaVuSans-63"/>
      <use x="806.933594" xlink:href="#DejaVuSans-61"/>
      <use x="868.212891" xlink:href="#DejaVuSans-6c"/>
      <use x="895.996094" xlink:href="#DejaVuSans-65"/>
      <use x="957.519531" xlink:href="#DejaVuSans-29"/>
     </g>
    </g>
   </g>
   <g id="matplotlib.axis_2">
    <g id="ytick_1">
     <g id="line2d_27">
      <defs>
       <path d="M 0 0 
L -3.5 0 
" id="me93e98c7c0" style="stroke:#000000;stroke-width:0.8;"/>
      </defs>
      <g>
       <use style="stroke:#000000;stroke-width:0.8;" x="108" xlink:href="#me93e98c7c0" y="479.492574"/>
      </g>
     </g>
     <g id="text_5">
      <!-- 0.1 -->
      <g transform="translate(78.735625 484.81148)scale(0.14 -0.14)">
       <defs>
        <path d="M 684 794 
L 1344 794 
L 1344 0 
L 684 0 
L 684 794 
z
" id="DejaVuSans-2e" transform="scale(0.015625)"/>
       </defs>
       <use xlink:href="#DejaVuSans-30"/>
       <use x="63.623047" xlink:href="#DejaVuSans-2e"/>
       <use x="95.410156" xlink:href="#DejaVuSans-31"/>
      </g>
     </g>
    </g>
    <g id="ytick_2">
     <g id="line2d_28">
      <g>
       <use style="stroke:#000000;stroke-width:0.8;" x="108" xlink:href="#me93e98c7c0" y="427.68415"/>
      </g>
     </g>
     <g id="text_6">
      <!-- 0.2 -->
      <g transform="translate(78.735625 433.003056)scale(0.14 -0.14)">
       <use xlink:href="#DejaVuSans-30"/>
       <use x="63.623047" xlink:href="#DejaVuSans-2e"/>
       <use x="95.410156" xlink:href="#DejaVuSans-32"/>
      </g>
     </g>
    </g>
    <g id="ytick_3">
     <g id="line2d_29">
      <g>
       <use style="stroke:#000000;stroke-width:0.8;" x="108" xlink:href="#me93e98c7c0" y="375.875726"/>
      </g>
     </g>
     <g id="text_7">
      <!-- 0.3 -->
      <g transform="translate(78.735625 381.194633)scale(0.14 -0.14)">
       <defs>
        <path d="M 2597 2516 
Q 3050 2419 3304 2112 
Q 3559 1806 3559 1356 
Q 3559 666 3084 287 
Q 2609 -91 1734 -91 
Q 1441 -91 1130 -33 
Q 819 25 488 141 
L 488 750 
Q 750 597 1062 519 
Q 1375 441 1716 441 
Q 2309 441 2620 675 
Q 2931 909 2931 1356 
Q 2931 1769 2642 2001 
Q 2353 2234 1838 2234 
L 1294 2234 
L 1294 2753 
L 1863 2753 
Q 2328 2753 2575 2939 
Q 2822 3125 2822 3475 
Q 2822 3834 2567 4026 
Q 2313 4219 1838 4219 
Q 1578 4219 1281 4162 
Q 984 4106 628 3988 
L 628 4550 
Q 988 4650 1302 4700 
Q 1616 4750 1894 4750 
Q 2613 4750 3031 4423 
Q 3450 4097 3450 3541 
Q 3450 3153 3228 2886 
Q 3006 2619 2597 2516 
z
" id="DejaVuSans-33" transform="scale(0.015625)"/>
       </defs>
       <use xlink:href="#DejaVuSans-30"/>
       <use x="63.623047" xlink:href="#DejaVuSans-2e"/>
       <use x="95.410156" xlink:href="#DejaVuSans-33"/>
      </g>
     </g>
    </g>
    <g id="ytick_4">
     <g id="line2d_30">
      <g>
       <use style="stroke:#000000;stroke-width:0.8;" x="108" xlink:href="#me93e98c7c0" y="324.067303"/>
      </g>
     </g>
     <g id="text_8">
      <!-- 0.4 -->
      <g transform="translate(78.735625 329.386209)scale(0.14 -0.14)">
       <defs>
        <path d="M 2419 4116 
L 825 1625 
L 2419 1625 
L 2419 4116 
z
M 2253 4666 
L 3047 4666 
L 3047 1625 
L 3713 1625 
L 3713 1100 
L 3047 1100 
L 3047 0 
L 2419 0 
L 2419 1100 
L 313 1100 
L 313 1709 
L 2253 4666 
z
" id="DejaVuSans-34" transform="scale(0.015625)"/>
       </defs>
       <use xlink:href="#DejaVuSans-30"/>
       <use x="63.623047" xlink:href="#DejaVuSans-2e"/>
       <use x="95.410156" xlink:href="#DejaVuSans-34"/>
      </g>
     </g>
    </g>
    <g id="ytick_5">
     <g id="line2d_31">
      <g>
       <use style="stroke:#000000;stroke-width:0.8;" x="108" xlink:href="#me93e98c7c0" y="272.258879"/>
      </g>
     </g>
     <g id="text_9">
      <!-- 0.5 -->
      <g transform="translate(78.735625 277.577786)scale(0.14 -0.14)">
       <defs>
        <path d="M 691 4666 
L 3169 4666 
L 3169 4134 
L 1269 4134 
L 1269 2991 
Q 1406 3038 1543 3061 
Q 1681 3084 1819 3084 
Q 2600 3084 3056 2656 
Q 3513 2228 3513 1497 
Q 3513 744 3044 326 
Q 2575 -91 1722 -91 
Q 1428 -91 1123 -41 
Q 819 9 494 109 
L 494 744 
Q 775 591 1075 516 
Q 1375 441 1709 441 
Q 2250 441 2565 725 
Q 2881 1009 2881 1497 
Q 2881 1984 2565 2268 
Q 2250 2553 1709 2553 
Q 1456 2553 1204 2497 
Q 953 2441 691 2322 
L 691 4666 
z
" id="DejaVuSans-35" transform="scale(0.015625)"/>
       </defs>
       <use xlink:href="#DejaVuSans-30"/>
       <use x="63.623047" xlink:href="#DejaVuSans-2e"/>
       <use x="95.410156" xlink:href="#DejaVuSans-35"/>
      </g>
     </g>
    </g>
    <g id="ytick_6">
     <g id="line2d_32">
      <g>
       <use style="stroke:#000000;stroke-width:0.8;" x="108" xlink:href="#me93e98c7c0" y="220.450456"/>
      </g>
     </g>
     <g id="text_10">
      <!-- 0.6 -->
      <g transform="translate(78.735625 225.769362)scale(0.14 -0.14)">
       <defs>
        <path d="M 2113 2584 
Q 1688 2584 1439 2293 
Q 1191 2003 1191 1497 
Q 1191 994 1439 701 
Q 1688 409 2113 409 
Q 2538 409 2786 701 
Q 3034 994 3034 1497 
Q 3034 2003 2786 2293 
Q 2538 2584 2113 2584 
z
M 3366 4563 
L 3366 3988 
Q 3128 4100 2886 4159 
Q 2644 4219 2406 4219 
Q 1781 4219 1451 3797 
Q 1122 3375 1075 2522 
Q 1259 2794 1537 2939 
Q 1816 3084 2150 3084 
Q 2853 3084 3261 2657 
Q 3669 2231 3669 1497 
Q 3669 778 3244 343 
Q 2819 -91 2113 -91 
Q 1303 -91 875 529 
Q 447 1150 447 2328 
Q 447 3434 972 4092 
Q 1497 4750 2381 4750 
Q 2619 4750 2861 4703 
Q 3103 4656 3366 4563 
z
" id="DejaVuSans-36" transform="scale(0.015625)"/>
       </defs>
       <use xlink:href="#DejaVuSans-30"/>
       <use x="63.623047" xlink:href="#DejaVuSans-2e"/>
       <use x="95.410156" xlink:href="#DejaVuSans-36"/>
      </g>
     </g>
    </g>
    <g id="ytick_7">
     <g id="line2d_33">
      <g>
       <use style="stroke:#000000;stroke-width:0.8;" x="108" xlink:href="#me93e98c7c0" y="168.642032"/>
      </g>
     </g>
     <g id="text_11">
      <!-- 0.7 -->
      <g transform="translate(78.735625 173.960938)scale(0.14 -0.14)">
       <defs>
        <path d="M 525 4666 
L 3525 4666 
L 3525 4397 
L 1831 0 
L 1172 0 
L 2766 4134 
L 525 4134 
L 525 4666 
z
" id="DejaVuSans-37" transform="scale(0.015625)"/>
       </defs>
       <use xlink:href="#DejaVuSans-30"/>
       <use x="63.623047" xlink:href="#DejaVuSans-2e"/>
       <use x="95.410156" xlink:href="#DejaVuSans-37"/>
      </g>
     </g>
    </g>
    <g id="ytick_8">
     <g id="line2d_34">
      <g>
       <use style="stroke:#000000;stroke-width:0.8;" x="108" xlink:href="#me93e98c7c0" y="116.833609"/>
      </g>
     </g>
     <g id="text_12">
      <!-- 0.8 -->
      <g transform="translate(78.735625 122.152515)scale(0.14 -0.14)">
       <defs>
        <path d="M 2034 2216 
Q 1584 2216 1326 1975 
Q 1069 1734 1069 1313 
Q 1069 891 1326 650 
Q 1584 409 2034 409 
Q 2484 409 2743 651 
Q 3003 894 3003 1313 
Q 3003 1734 2745 1975 
Q 2488 2216 2034 2216 
z
M 1403 2484 
Q 997 2584 770 2862 
Q 544 3141 544 3541 
Q 544 4100 942 4425 
Q 1341 4750 2034 4750 
Q 2731 4750 3128 4425 
Q 3525 4100 3525 3541 
Q 3525 3141 3298 2862 
Q 3072 2584 2669 2484 
Q 3125 2378 3379 2068 
Q 3634 1759 3634 1313 
Q 3634 634 3220 271 
Q 2806 -91 2034 -91 
Q 1263 -91 848 271 
Q 434 634 434 1313 
Q 434 1759 690 2068 
Q 947 2378 1403 2484 
z
M 1172 3481 
Q 1172 3119 1398 2916 
Q 1625 2713 2034 2713 
Q 2441 2713 2670 2916 
Q 2900 3119 2900 3481 
Q 2900 3844 2670 4047 
Q 2441 4250 2034 4250 
Q 1625 4250 1398 4047 
Q 1172 3844 1172 3481 
z
" id="DejaVuSans-38" transform="scale(0.015625)"/>
       </defs>
       <use xlink:href="#DejaVuSans-30"/>
       <use x="63.623047" xlink:href="#DejaVuSans-2e"/>
       <use x="95.410156" xlink:href="#DejaVuSans-38"/>
      </g>
     </g>
    </g>
    <g id="text_13">
     <!-- State-Value Function -->
     <g transform="translate(71.824062 362.742656)rotate(-90)scale(0.14 -0.14)">
      <defs>
       <path d="M 3425 4513 
L 3425 3897 
Q 3066 4069 2747 4153 
Q 2428 4238 2131 4238 
Q 1616 4238 1336 4038 
Q 1056 3838 1056 3469 
Q 1056 3159 1242 3001 
Q 1428 2844 1947 2747 
L 2328 2669 
Q 3034 2534 3370 2195 
Q 3706 1856 3706 1288 
Q 3706 609 3251 259 
Q 2797 -91 1919 -91 
Q 1588 -91 1214 -16 
Q 841 59 441 206 
L 441 856 
Q 825 641 1194 531 
Q 1563 422 1919 422 
Q 2459 422 2753 634 
Q 3047 847 3047 1241 
Q 3047 1584 2836 1778 
Q 2625 1972 2144 2069 
L 1759 2144 
Q 1053 2284 737 2584 
Q 422 2884 422 3419 
Q 422 4038 858 4394 
Q 1294 4750 2059 4750 
Q 2388 4750 2728 4690 
Q 3069 4631 3425 4513 
z
" id="DejaVuSans-53" transform="scale(0.015625)"/>
       <path d="M 1172 4494 
L 1172 3500 
L 2356 3500 
L 2356 3053 
L 1172 3053 
L 1172 1153 
Q 1172 725 1289 603 
Q 1406 481 1766 481 
L 2356 481 
L 2356 0 
L 1766 0 
Q 1100 0 847 248 
Q 594 497 594 1153 
L 594 3053 
L 172 3053 
L 172 3500 
L 594 3500 
L 594 4494 
L 1172 4494 
z
" id="DejaVuSans-74" transform="scale(0.015625)"/>
       <path d="M 313 2009 
L 1997 2009 
L 1997 1497 
L 313 1497 
L 313 2009 
z
" id="DejaVuSans-2d" transform="scale(0.015625)"/>
       <path d="M 1831 0 
L 50 4666 
L 709 4666 
L 2188 738 
L 3669 4666 
L 4325 4666 
L 2547 0 
L 1831 0 
z
" id="DejaVuSans-56" transform="scale(0.015625)"/>
       <path d="M 544 1381 
L 544 3500 
L 1119 3500 
L 1119 1403 
Q 1119 906 1312 657 
Q 1506 409 1894 409 
Q 2359 409 2629 706 
Q 2900 1003 2900 1516 
L 2900 3500 
L 3475 3500 
L 3475 0 
L 2900 0 
L 2900 538 
Q 2691 219 2414 64 
Q 2138 -91 1772 -91 
Q 1169 -91 856 284 
Q 544 659 544 1381 
z
M 1991 3584 
L 1991 3584 
z
" id="DejaVuSans-75" transform="scale(0.015625)"/>
       <path d="M 628 4666 
L 3309 4666 
L 3309 4134 
L 1259 4134 
L 1259 2759 
L 3109 2759 
L 3109 2228 
L 1259 2228 
L 1259 0 
L 628 0 
L 628 4666 
z
" id="DejaVuSans-46" transform="scale(0.015625)"/>
       <path d="M 3513 2113 
L 3513 0 
L 2938 0 
L 2938 2094 
Q 2938 2591 2744 2837 
Q 2550 3084 2163 3084 
Q 1697 3084 1428 2787 
Q 1159 2491 1159 1978 
L 1159 0 
L 581 0 
L 581 3500 
L 1159 3500 
L 1159 2956 
Q 1366 3272 1645 3428 
Q 1925 3584 2291 3584 
Q 2894 3584 3203 3211 
Q 3513 2838 3513 2113 
z
" id="DejaVuSans-6e" transform="scale(0.015625)"/>
      </defs>
      <use xlink:href="#DejaVuSans-53"/>
      <use x="63.476562" xlink:href="#DejaVuSans-74"/>
      <use x="102.685547" xlink:href="#DejaVuSans-61"/>
      <use x="163.964844" xlink:href="#DejaVuSans-74"/>
      <use x="203.173828" xlink:href="#DejaVuSans-65"/>
      <use x="264.697266" xlink:href="#DejaVuSans-2d"/>
      <use x="294.90625" xlink:href="#DejaVuSans-56"/>
      <use x="355.564453" xlink:href="#DejaVuSans-61"/>
      <use x="416.84375" xlink:href="#DejaVuSans-6c"/>
      <use x="444.626953" xlink:href="#DejaVuSans-75"/>
      <use x="508.005859" xlink:href="#DejaVuSans-65"/>
      <use x="569.529297" xlink:href="#DejaVuSans-20"/>
      <use x="601.316406" xlink:href="#DejaVuSans-46"/>
      <use x="653.335938" xlink:href="#DejaVuSans-75"/>
      <use x="716.714844" xlink:href="#DejaVuSans-6e"/>
      <use x="780.09375" xlink:href="#DejaVuSans-63"/>
      <use x="835.074219" xlink:href="#DejaVuSans-74"/>
      <use x="874.283203" xlink:href="#DejaVuSans-69"/>
      <use x="902.066406" xlink:href="#DejaVuSans-6f"/>
      <use x="963.248047" xlink:href="#DejaVuSans-6e"/>
     </g>
    </g>
   </g>
   <g id="line2d_35">
    <path clip-path="url(#p5264c27e86)" d="M -1 486.270851 
L 135.392727 486.266678 
L 196.517451 470.419371 
L 232.273123 470.172697 
L 257.642175 461.992591 
L 277.319941 469.81608 
L 293.397847 468.595903 
L 306.991522 464.776854 
L 318.7669 482.063013 
L 329.153518 465.351052 
L 338.444666 468.099389 
L 346.849531 470.846526 
L 354.522571 441.133087 
L 361.581084 423.789418 
L 368.116246 455.240873 
L 374.200337 465.565559 
L 379.891624 465.357525 
L 385.237766 471.342241 
L 390.278242 468.588505 
L 395.046125 452.440455 
L 399.56939 446.951386 
L 403.871918 451.275771 
L 407.974255 453.562376 
L 411.894204 454.149037 
L 415.647295 453.183411 
L 419.247156 457.534788 
L 422.705808 462.216204 
L 426.033914 467.845201 
L 429.240971 458.809884 
L 432.335475 464.923375 
L 435.325061 449.560471 
L 438.21661 460.407284 
L 441.016348 471.67196 
L 443.729926 475.775765 
L 446.36249 468.824725 
L 448.918737 469.904443 
L 451.402967 473.228774 
L 453.819127 466.608039 
L 456.170849 470.556982 
L 458.46148 468.110515 
L 460.694114 468.342003 
L 462.871615 468.350754 
L 464.996642 470.503898 
L 467.071663 472.104449 
L 469.098979 469.66 
L 471.080733 471.961296 
L 473.018928 469.557044 
L 474.915438 467.83684 
L 476.772019 466.713589 
L 478.590317 457.101361 
L 480.37188 453.733493 
L 482.118161 463.839989 
L 483.830532 457.245125 
L 485.510285 463.366176 
L 487.158638 462.478266 
L 488.776745 466.295834 
L 490.365695 468.765079 
L 491.92652 457.448776 
L 493.460199 455.991806 
L 496.449785 442.813356 
L 497.907411 450.767754 
L 500.752313 449.193134 
L 502.141072 453.967453 
L 503.508298 452.544698 
L 504.85465 451.82851 
L 506.180755 441.420354 
L 507.487214 442.250153 
L 508.774599 439.575686 
L 510.043461 445.038375 
L 511.294323 447.78752 
L 512.527691 453.112742 
L 513.744046 450.019516 
L 514.943851 448.344147 
L 516.127551 449.625347 
L 517.295573 449.033041 
L 518.448326 443.863287 
L 519.586204 445.040783 
L 520.709586 443.548378 
L 521.818838 443.339838 
L 522.91431 447.188371 
L 525.065254 448.147073 
L 526.121366 449.768624 
L 527.16498 455.941528 
L 528.196387 456.845973 
L 529.215871 455.354887 
L 530.223703 451.086755 
L 531.220147 454.173678 
L 532.205457 453.35 
L 533.179879 454.350913 
L 534.143652 456.181782 
L 535.097005 458.398895 
L 536.040162 451.424752 
L 536.973339 454.158579 
L 537.896743 453.754119 
L 538.810579 451.338458 
L 539.715041 451.146222 
L 540.610322 448.960256 
L 541.496604 448.565368 
L 542.374067 449.023996 
L 543.242885 444.973879 
L 544.103227 445.217504 
L 544.955256 450.536993 
L 545.799132 448.0904 
L 546.635009 450.080592 
L 547.463037 453.717723 
L 548.283362 450.969305 
L 549.096127 450.987679 
L 550.699523 450.407531 
L 551.490419 451.622061 
L 552.274285 450.196355 
L 553.051244 452.092354 
L 554.584923 453.867135 
L 555.341875 453.463096 
L 556.092385 454.013166 
L 556.836561 451.397106 
L 557.574509 452.028199 
L 558.306334 452.17109 
L 559.032135 450.831095 
L 559.752011 451.726124 
L 560.466058 454.364331 
L 561.17437 455.438735 
L 561.877038 458.855429 
L 562.574151 458.456762 
L 563.265796 457.644246 
L 563.952059 458.868948 
L 564.633022 457.930729 
L 565.308768 458.486755 
L 565.979374 460.545852 
L 566.64492 459.214492 
L 567.305479 460.174533 
L 567.961128 459.018713 
L 568.611938 460.060212 
L 569.25798 459.75586 
L 569.899323 460.007385 
L 570.536036 459.499036 
L 571.168185 459.930402 
L 571.795834 459.780232 
L 573.037887 458.456133 
L 573.652415 457.128707 
L 574.262689 457.114832 
L 574.86877 456.938133 
L 575.470713 458.135146 
L 576.068575 458.139038 
L 576.662411 456.779145 
L 577.252275 456.150163 
L 577.83822 455.903007 
L 578.420297 457.280645 
L 578.998557 458.069826 
L 579.57305 457.512768 
L 580.143824 455.398428 
L 581.274408 453.983148 
L 581.83431 455.13369 
L 582.39068 455.569807 
L 582.943562 456.61083 
L 583.492999 457.907476 
L 584.581708 456.91959 
L 585.121064 456.858405 
L 585.65714 457.108441 
L 586.189978 456.215912 
L 586.719615 454.917602 
L 587.24609 455.521923 
L 587.769441 455.907048 
L 588.289704 456.80183 
L 588.806916 455.77056 
L 589.321111 454.434983 
L 589.832326 454.512709 
L 590.340595 452.501415 
L 590.845951 452.609027 
L 591.348427 451.686979 
L 591.848056 452.69141 
L 592.344871 452.976705 
L 593.330181 452.61572 
L 593.818738 452.613394 
L 595.268376 453.348816 
L 595.746341 453.774755 
L 596.22173 453.87855 
L 596.694569 454.619274 
L 597.164887 453.764186 
L 597.632709 454.155693 
L 598.098063 454.841829 
L 599.021467 453.775428 
L 599.935303 454.53831 
L 600.388694 455.127359 
L 600.839766 455.392905 
L 601.288542 454.94529 
L 601.735046 454.949014 
L 603.061151 455.328559 
L 603.498791 455.783553 
L 603.93427 455.890403 
L 604.367609 455.521621 
L 605.227951 455.525259 
L 605.654995 455.12753 
L 606.07998 455.466941 
L 606.502928 455.247412 
L 606.923856 454.876995 
L 607.342785 454.190826 
L 607.759733 453.000509 
L 608.174719 452.87701 
L 608.587761 453.362656 
L 609.815405 452.667974 
L 610.220851 452.829619 
L 611.824247 452.87788 
L 613.399009 452.168146 
L 613.788344 451.782559 
L 614.175968 451.984077 
L 614.561896 452.044513 
L 614.946142 451.774193 
L 615.328721 452.001384 
L 615.709648 452.023081 
L 616.466599 452.556589 
L 616.842652 452.52664 
L 617.217109 452.832237 
L 617.961285 452.813955 
L 618.331031 453.019638 
L 618.699233 452.904104 
L 619.065905 452.924097 
L 619.431058 452.59208 
L 620.156859 452.331717 
L 620.876735 452.310505 
L 621.234481 452.077517 
L 621.590782 452.364022 
L 622.299094 452.582001 
L 622.651128 452.461838 
L 623.698875 452.769478 
L 624.045375 452.578868 
L 624.39052 452.636454 
L 624.734319 452.520374 
L 625.417922 452.736502 
L 625.757746 452.816166 
L 626.096266 453.013359 
L 626.433492 453.040566 
L 626.769433 453.277944 
L 627.437499 453.439582 
L 627.769644 453.141182 
L 629.085852 453.460133 
L 629.411858 453.291527 
L 629.736662 453.382315 
L 630.060275 453.273625 
L 631.342979 453.535628 
L 631.66076 453.515591 
L 631.977401 453.314887 
L 632.292909 453.512 
L 632.607292 453.893936 
L 632.920558 453.928343 
L 633.232715 453.768344 
L 633.543771 453.795582 
L 634.162611 453.49872 
L 634.47041 453.479531 
L 634.777139 453.639638 
L 635.387414 454.262232 
L 635.993494 454.391368 
L 636.294979 454.113486 
L 636.595437 454.253634 
L 637.193299 454.268423 
L 637.787135 454.453182 
L 638.082561 454.188603 
L 639.254463 454.071077 
L 640.123281 454.448513 
L 640.410995 454.456408 
L 640.697774 454.669705 
L 640.983623 454.298414 
L 641.552556 454.198572 
L 641.835652 454.33943 
L 642.117842 454.691526 
L 642.679528 454.401059 
L 642.959034 454.432771 
L 643.237658 454.352314 
L 643.515404 454.543096 
L 643.792279 454.538454 
L 644.343432 454.178013 
L 644.617723 454.195826 
L 645.163758 453.830485 
L 645.435512 453.94349 
L 645.976522 454.511664 
L 646.514233 454.697041 
L 646.781864 454.892673 
L 647.048686 454.839582 
L 647.579918 454.51107 
L 647.844339 454.447773 
L 648.10797 454.550965 
L 648.370814 454.518817 
L 648.632878 454.004407 
L 649.15468 454.428784 
L 649.414428 454.44128 
L 649.93164 453.936779 
L 650.189112 453.956574 
L 650.445836 453.561104 
L 650.957051 453.819294 
L 651.211551 454.039101 
L 651.465319 453.909683 
L 651.718359 454.19149 
L 652.473151 453.778363 
L 652.723319 454.018302 
L 652.97278 454.010678 
L 653.963626 454.892596 
L 654.454905 455.130689 
L 654.943462 455.106102 
L 655.67126 454.743226 
L 655.91253 454.644139 
L 656.632407 454.773467 
L 657.10908 454.025366 
L 657.58319 454.338533 
L 657.819293 454.706 
L 658.054765 454.589137 
L 658.289611 454.613871 
L 658.523832 454.756278 
L 658.757433 454.511901 
L 658.990417 454.611351 
L 659.685698 454.489436 
L 659.916245 454.715314 
L 660.37554 454.893645 
L 660.604293 455.211109 
L 661.060027 454.813723 
L 661.287014 454.734135 
L 661.513418 454.780216 
L 661.739242 454.493126 
L 662.189163 454.327998 
L 662.6368 454.16562 
L 662.85977 454.112421 
L 663.304024 454.400131 
L 663.525315 454.717449 
L 663.746052 454.707404 
L 663.966238 454.982937 
L 664.404967 454.505692 
L 664.623515 454.445671 
L 664.841524 454.060814 
L 665.27593 454.669967 
L 665.708207 454.453852 
L 665.923554 454.492043 
L 666.138376 454.080984 
L 666.352675 454.160155 
L 666.566456 453.899453 
L 666.779719 454.210048 
L 666.992468 454.309251 
L 667.416432 453.906509 
L 667.838367 454.571577 
L 668.04858 454.596553 
L 668.258293 454.466447 
L 668.676229 454.747805 
L 669.092194 454.844738 
L 669.506206 455.205803 
L 669.918283 455.337167 
L 670.123602 455.617891 
L 670.940129 455.594137 
L 671.143085 455.870311 
L 671.547601 455.198936 
L 671.95027 455.045477 
L 672.150917 454.754845 
L 672.351109 454.712056 
L 672.550847 454.868305 
L 672.948971 454.822962 
L 673.147361 455.205404 
L 673.542807 455.331675 
L 673.739867 455.214115 
L 673.936488 455.333242 
L 674.132671 455.160468 
L 674.328419 455.272769 
L 674.718615 455.693167 
L 675.300692 456.211863 
L 675.878952 456.437042 
L 676.262363 456.698212 
L 676.453445 456.390237 
L 676.644114 456.345714 
L 676.834372 456.157518 
L 677.402694 456.03233 
L 677.591323 455.842724 
L 677.77955 455.880044 
L 678.154804 456.336001 
L 678.341833 456.207078 
L 678.528467 456.282073 
L 679.086009 456.802507 
L 679.455755 456.550999 
L 680.373394 457.071383 
L 680.737793 457.095282 
L 680.919429 457.448097 
L 681.100692 457.075071 
L 681.462104 457.281613 
L 681.82204 457.511399 
L 682.359205 457.783017 
L 682.537536 457.211465 
L 682.715506 457.264169 
L 682.893118 457.613974 
L 683.070373 457.526853 
L 683.247273 456.924935 
L 683.247273 456.924935 
" style="fill:none;stroke:#1f77b4;stroke-linecap:square;stroke-width:2;"/>
   </g>
   <g id="line2d_36">
    <path clip-path="url(#p5264c27e86)" d="M -1 454.415114 
L 683.247273 454.415114 
L 683.247273 454.415114 
" style="fill:none;stroke:#000000;stroke-dasharray:7.4,3.2;stroke-dashoffset:0;stroke-width:2;"/>
   </g>
   <g id="line2d_37">
    <path clip-path="url(#p5264c27e86)" d="M -1 439.004951 
L 135.392727 438.98611 
L 196.517451 428.376107 
L 232.273123 410.906909 
L 257.642175 417.406386 
L 277.319941 392.324487 
L 293.397847 388.413692 
L 306.991522 378.466427 
L 318.7669 395.812001 
L 329.153518 389.351827 
L 338.444666 391.985336 
L 346.849531 394.726143 
L 354.522571 349.95526 
L 361.581084 343.281277 
L 368.116246 375.982514 
L 374.200337 385.361653 
L 379.891624 386.185733 
L 385.237766 389.664765 
L 390.278242 401.892218 
L 395.046125 393.851184 
L 399.56939 399.381696 
L 403.871918 391.740625 
L 407.974255 388.542094 
L 411.894204 382.271038 
L 415.647295 381.459145 
L 419.247156 383.72929 
L 422.705808 389.02399 
L 426.033914 398.861459 
L 429.240971 391.278549 
L 432.335475 394.640542 
L 435.325061 368.493764 
L 438.21661 366.19072 
L 441.016348 383.187254 
L 443.729926 377.73887 
L 446.36249 365.552308 
L 448.918737 367.103268 
L 451.402967 364.944082 
L 453.819127 364.426153 
L 456.170849 365.642733 
L 458.46148 365.845388 
L 460.694114 357.668669 
L 462.871615 370.477414 
L 464.996642 381.792787 
L 467.071663 384.939818 
L 469.098979 381.012978 
L 471.080733 374.062325 
L 473.018928 374.514499 
L 474.915438 372.92204 
L 476.772019 381.562233 
L 478.590317 374.415871 
L 480.37188 372.943865 
L 482.118161 391.084561 
L 483.830532 392.340602 
L 485.510285 400.971714 
L 487.158638 403.130896 
L 488.776745 402.04633 
L 490.365695 395.342077 
L 491.92652 377.616011 
L 493.460199 376.827776 
L 494.967661 363.229906 
L 496.449785 356.929778 
L 497.907411 366.470213 
L 499.341334 364.591768 
L 500.752313 366.701272 
L 502.141072 376.084677 
L 503.508298 374.399256 
L 504.85465 370.389987 
L 506.180755 363.52036 
L 507.487214 369.150074 
L 508.774599 363.821746 
L 510.043461 370.986499 
L 511.294323 371.700406 
L 512.527691 373.287737 
L 513.744046 372.72826 
L 514.943851 368.986485 
L 516.127551 367.430944 
L 517.295573 368.280066 
L 518.448326 363.553631 
L 519.586204 365.286051 
L 520.709586 366.10739 
L 521.818838 366.207892 
L 523.99634 364.267518 
L 525.065254 363.824185 
L 526.121366 361.339734 
L 527.16498 367.593644 
L 528.196387 370.993165 
L 529.215871 369.064715 
L 530.223703 362.847534 
L 531.220147 368.930241 
L 532.205457 370.87979 
L 533.179879 373.710805 
L 534.143652 377.674161 
L 535.097005 380.03609 
L 536.040162 372.277077 
L 536.973339 371.38145 
L 537.896743 373.813014 
L 538.810579 370.262407 
L 539.715041 372.135561 
L 540.610322 373.076496 
L 541.496604 369.510896 
L 542.374067 371.640545 
L 543.242885 367.547706 
L 544.103227 368.551976 
L 544.955256 371.686239 
L 545.799132 369.302113 
L 546.635009 370.103469 
L 547.463037 373.989975 
L 548.283362 371.727048 
L 549.096127 370.856458 
L 549.901469 371.739422 
L 550.699523 371.248421 
L 551.490419 371.532464 
L 552.274285 372.125157 
L 553.051244 373.984722 
L 553.821418 374.780763 
L 554.584923 374.710633 
L 555.341875 375.615792 
L 556.092385 375.928905 
L 556.836561 372.939326 
L 557.574509 370.708227 
L 558.306334 372.422507 
L 559.032135 371.462103 
L 559.752011 372.162045 
L 560.466058 377.062028 
L 561.17437 377.653593 
L 561.877038 382.550664 
L 562.574151 381.393221 
L 563.265796 380.508895 
L 563.952059 382.0888 
L 564.633022 380.352224 
L 565.308768 380.244234 
L 565.979374 383.651281 
L 566.64492 383.423461 
L 567.305479 385.183464 
L 567.961128 382.958971 
L 569.25798 383.102339 
L 569.899323 382.274445 
L 570.536036 381.003863 
L 571.168185 380.075786 
L 571.795834 380.097021 
L 572.419047 380.666725 
L 573.037887 381.062909 
L 574.262689 378.608872 
L 574.86877 379.378211 
L 575.470713 380.864015 
L 576.068575 380.22108 
L 576.662411 378.812388 
L 577.252275 377.107601 
L 577.83822 378.077421 
L 578.420297 379.418598 
L 578.998557 379.221643 
L 579.57305 377.798241 
L 580.143824 375.567003 
L 580.710928 375.260327 
L 581.274408 374.11722 
L 582.39068 377.07987 
L 582.943562 378.019296 
L 583.492999 378.628436 
L 584.039034 378.084417 
L 584.581708 378.02123 
L 585.121064 378.44794 
L 585.65714 378.363037 
L 586.719615 376.872437 
L 587.24609 377.801883 
L 587.769441 376.711044 
L 588.289704 377.424303 
L 588.806916 376.868855 
L 589.321111 375.081659 
L 589.832326 374.135882 
L 590.340595 372.631243 
L 590.845951 371.994397 
L 591.348427 370.648809 
L 591.848056 372.039758 
L 592.344871 372.419476 
L 592.838902 371.419481 
L 593.330181 371.712767 
L 594.787806 373.469664 
L 595.268376 373.090772 
L 595.746341 373.448936 
L 596.22173 374.126321 
L 597.164887 374.064566 
L 597.632709 374.060371 
L 598.098063 374.940877 
L 599.021467 373.770647 
L 599.479569 373.895325 
L 600.388694 374.811412 
L 600.839766 375.551665 
L 601.288542 374.921445 
L 601.735046 374.948814 
L 602.1793 375.225682 
L 602.621328 374.979618 
L 603.061151 375.075407 
L 603.498791 376.045116 
L 604.367609 376.613577 
L 606.502928 375.582484 
L 606.923856 374.678418 
L 607.342785 374.314099 
L 607.759733 373.169261 
L 608.174719 372.656791 
L 608.587761 372.972956 
L 609.815405 372.290516 
L 610.220851 372.284382 
L 610.624441 372.540391 
L 611.426123 371.952889 
L 612.220581 372.322565 
L 612.615143 371.953723 
L 613.399009 371.594303 
L 613.788344 371.083801 
L 614.946142 371.31062 
L 615.328721 371.687084 
L 615.709648 371.531779 
L 616.088936 371.740632 
L 616.466599 372.268993 
L 616.842652 372.197233 
L 617.217109 372.498793 
L 617.589982 372.35379 
L 617.961285 372.081644 
L 618.699233 372.280259 
L 619.065905 372.171152 
L 619.431058 371.776588 
L 619.794705 371.620365 
L 620.156859 371.624339 
L 620.517532 371.337632 
L 620.876735 371.368991 
L 621.234481 370.900684 
L 622.299094 371.870642 
L 623.001762 372.06177 
L 623.698875 372.530964 
L 624.045375 371.987619 
L 625.076783 372.518011 
L 626.096266 373.210114 
L 626.433492 373.173645 
L 626.769433 373.545906 
L 627.104098 373.509103 
L 627.437499 373.655422 
L 627.769644 373.451493 
L 628.758637 373.885833 
L 629.085852 374.139857 
L 630.060275 373.849257 
L 631.66076 372.961917 
L 632.292909 372.8193 
L 632.920558 373.499842 
L 633.232715 373.077386 
L 633.543771 372.894486 
L 633.853734 372.471878 
L 634.162611 372.418036 
L 634.47041 372.71478 
L 634.777139 372.543945 
L 635.387414 373.139841 
L 635.690974 372.874847 
L 636.294979 372.732944 
L 636.894875 372.966411 
L 637.490717 372.790654 
L 637.787135 373.02687 
L 638.082561 372.789626 
L 638.376999 372.900229 
L 638.962944 372.831123 
L 639.254463 372.495999 
L 639.545021 372.366035 
L 640.123281 372.622158 
L 640.410995 372.47971 
L 640.697774 372.645643 
L 640.983623 371.997258 
L 641.268548 371.796619 
L 642.117842 372.393179 
L 642.959034 372.067082 
L 643.237658 372.206201 
L 643.792279 372.82023 
L 644.617723 373.014502 
L 645.163758 372.452435 
L 645.435512 372.879824 
L 645.706432 372.992602 
L 645.976522 372.93216 
L 646.245788 372.63908 
L 646.514233 372.788626 
L 646.781864 373.29445 
L 647.579918 373.161995 
L 647.844339 373.023542 
L 648.370814 373.467167 
L 648.632878 373.044235 
L 649.15468 373.419523 
L 649.414428 373.282398 
L 649.673413 372.86516 
L 649.93164 372.871102 
L 650.445836 372.547037 
L 650.957051 372.949772 
L 651.465319 372.536694 
L 651.718359 372.609028 
L 651.970675 372.269172 
L 652.473151 371.930231 
L 652.723319 372.148532 
L 652.97278 372.035109 
L 653.221537 372.101753 
L 653.963626 373.054206 
L 654.209608 373.172197 
L 654.454905 373.474029 
L 654.699522 373.334428 
L 654.943462 373.553907 
L 655.186729 373.612764 
L 655.67126 373.004994 
L 656.153143 373.414376 
L 656.3931 373.170232 
L 656.632407 373.292654 
L 657.10908 372.3687 
L 657.346454 372.774676 
L 657.58319 372.924785 
L 657.819293 373.215821 
L 658.054765 372.992855 
L 658.523832 373.231581 
L 658.757433 373.113321 
L 658.990417 373.231935 
L 659.222787 373.19813 
L 659.454546 372.977333 
L 659.685698 372.935481 
L 660.146192 373.209468 
L 660.37554 373.059296 
L 660.604293 373.544113 
L 660.832454 373.220516 
L 661.287014 373.277954 
L 661.513418 373.309054 
L 661.739242 373.009238 
L 663.082177 372.411497 
L 663.525315 373.212232 
L 663.746052 373.094828 
L 663.966238 373.523135 
L 664.841524 373.079288 
L 665.058994 373.230015 
L 665.27593 373.536606 
L 666.138376 372.362183 
L 666.352675 372.748221 
L 666.566456 372.440656 
L 666.779719 372.673234 
L 666.992468 372.740566 
L 667.204705 372.606978 
L 667.416432 372.291676 
L 667.838367 373.249003 
L 668.04858 373.024765 
L 668.467509 373.243309 
L 668.884457 373.222297 
L 669.092194 372.899597 
L 669.299443 372.94576 
L 669.506206 373.188171 
L 669.712485 372.886685 
L 670.328443 373.789575 
L 670.736705 373.574026 
L 670.940129 373.371913 
L 671.143085 373.515496 
L 671.345575 373.360632 
L 671.749165 372.662464 
L 671.95027 372.729212 
L 672.351109 372.200589 
L 672.948971 372.201166 
L 673.147361 372.299559 
L 673.345305 372.025712 
L 673.936488 372.68195 
L 674.132671 372.470188 
L 674.913068 374.266342 
L 675.107093 374.380475 
L 675.300692 374.253395 
L 675.68662 375.024797 
L 675.878952 374.875284 
L 676.262363 375.052888 
L 676.453445 374.471817 
L 676.644114 374.553519 
L 676.834372 374.24596 
L 677.402694 374.312121 
L 677.591323 374.024565 
L 677.77955 374.267004 
L 677.967377 374.711159 
L 678.154804 374.709422 
L 678.528467 374.237408 
L 678.714706 374.3065 
L 678.900553 374.636704 
L 679.271076 374.707992 
L 679.455755 374.695601 
L 679.823958 374.992237 
L 680.007484 374.879005 
L 680.190629 375.102217 
L 680.373394 375.051155 
L 680.737793 375.167961 
L 680.919429 375.831334 
L 681.100692 375.460616 
L 681.281583 375.481528 
L 681.642256 376.026488 
L 681.82204 376.070021 
L 682.001459 376.339393 
L 682.180514 376.110009 
L 682.359205 376.358302 
L 682.537536 375.695409 
L 682.715506 375.53015 
L 682.893118 376.060854 
L 683.247273 375.770372 
L 683.247273 375.770372 
" style="fill:none;stroke:#ff7f0e;stroke-linecap:square;stroke-width:2;"/>
   </g>
   <g id="line2d_38">
    <path clip-path="url(#p5264c27e86)" d="M -1 375.510125 
L 683.247273 375.510125 
L 683.247273 375.510125 
" style="fill:none;stroke:#000000;stroke-dasharray:7.4,3.2;stroke-dashoffset:0;stroke-width:2;"/>
   </g>
   <g id="line2d_39">
    <path clip-path="url(#p5264c27e86)" d="M -1 400.79325 
L 135.392727 400.759784 
L 196.517451 378.596238 
L 232.273123 332.298679 
L 257.642175 342.646656 
L 277.319941 332.970186 
L 293.397847 318.779559 
L 306.991522 313.099485 
L 318.7669 306.928341 
L 329.153518 293.765014 
L 338.444666 315.385829 
L 346.849531 299.917177 
L 354.522571 283.78698 
L 361.581084 265.580529 
L 368.116246 273.867508 
L 374.200337 287.909551 
L 379.891624 289.112445 
L 385.237766 295.059576 
L 390.278242 292.203654 
L 395.046125 299.796635 
L 399.56939 306.339058 
L 403.871918 307.510694 
L 407.974255 316.626856 
L 411.894204 309.332654 
L 415.647295 300.686516 
L 419.247156 301.635824 
L 422.705808 305.584411 
L 426.033914 318.43072 
L 429.240971 313.153176 
L 432.335475 315.784936 
L 435.325061 298.046544 
L 438.21661 299.484083 
L 441.016348 316.063034 
L 443.729926 310.659357 
L 446.36249 300.797546 
L 448.918737 287.820105 
L 451.402967 290.321788 
L 453.819127 290.831269 
L 456.170849 284.901424 
L 458.46148 285.429028 
L 460.694114 280.637008 
L 462.871615 291.950339 
L 464.996642 293.860824 
L 467.071663 299.627763 
L 469.098979 299.062568 
L 471.080733 290.408644 
L 473.018928 293.420341 
L 474.915438 289.300458 
L 476.772019 293.304928 
L 478.590317 285.893663 
L 480.37188 284.714237 
L 482.118161 292.730263 
L 483.830532 292.673575 
L 485.510285 303.505861 
L 487.158638 304.835992 
L 488.776745 303.308158 
L 490.365695 293.758831 
L 491.92652 286.500965 
L 493.460199 284.799932 
L 494.967661 277.230916 
L 496.449785 267.100265 
L 497.907411 275.248624 
L 499.341334 275.329424 
L 500.752313 279.031729 
L 502.141072 288.770464 
L 503.508298 291.380873 
L 504.85465 286.149677 
L 506.180755 281.839008 
L 507.487214 290.516877 
L 508.774599 284.774008 
L 510.043461 286.384365 
L 511.294323 288.849065 
L 512.527691 290.963441 
L 513.744046 294.686138 
L 514.943851 292.047057 
L 516.127551 287.367386 
L 517.295573 290.687989 
L 518.448326 287.283821 
L 520.709586 287.875229 
L 521.818838 287.921481 
L 522.91431 286.090521 
L 523.99634 284.831859 
L 525.065254 285.319994 
L 526.121366 280.471964 
L 527.16498 288.077093 
L 528.196387 290.221536 
L 529.215871 290.952354 
L 530.223703 285.375081 
L 531.220147 288.589221 
L 532.205457 290.34093 
L 534.143652 294.24571 
L 535.097005 296.050506 
L 536.040162 287.389214 
L 536.973339 284.131765 
L 537.896743 286.704043 
L 538.810579 285.677978 
L 539.715041 288.826212 
L 540.610322 288.722353 
L 541.496604 285.964418 
L 542.374067 286.916161 
L 543.242885 280.839528 
L 544.103227 282.164832 
L 544.955256 286.598248 
L 545.799132 285.782977 
L 546.635009 285.981428 
L 547.463037 291.62995 
L 548.283362 291.479705 
L 549.096127 291.898247 
L 549.901469 293.382143 
L 550.699523 292.713169 
L 551.490419 291.705143 
L 552.274285 291.384117 
L 553.051244 292.893625 
L 553.821418 293.580205 
L 554.584923 293.817799 
L 555.341875 293.580673 
L 556.092385 293.643906 
L 556.836561 291.433168 
L 557.574509 290.884059 
L 558.306334 292.392579 
L 559.032135 289.917061 
L 559.752011 290.402214 
L 560.466058 295.476343 
L 561.17437 296.683502 
L 561.877038 301.214287 
L 562.574151 300.92341 
L 563.265796 298.043644 
L 563.952059 298.501001 
L 564.633022 295.184666 
L 565.308768 295.278449 
L 565.979374 298.767193 
L 566.64492 299.380112 
L 567.305479 300.803101 
L 567.961128 298.746365 
L 568.611938 298.056934 
L 569.25798 298.473473 
L 569.899323 297.549232 
L 570.536036 297.139181 
L 571.168185 295.434123 
L 571.795834 294.371068 
L 572.419047 296.487663 
L 573.037887 294.314408 
L 573.652415 293.590004 
L 574.262689 293.192581 
L 574.86877 293.192619 
L 575.470713 294.059496 
L 576.068575 294.069166 
L 576.662411 293.401267 
L 577.252275 291.320771 
L 577.83822 291.848549 
L 578.420297 292.217536 
L 578.998557 291.743078 
L 580.143824 287.96807 
L 581.274408 286.958857 
L 582.39068 289.72456 
L 583.492999 292.406759 
L 584.039034 293.046494 
L 585.121064 295.58663 
L 585.65714 296.642525 
L 586.189978 296.786394 
L 586.719615 295.841555 
L 587.24609 296.112061 
L 587.769441 295.610663 
L 588.289704 296.860525 
L 588.806916 296.75738 
L 589.832326 293.577353 
L 590.340595 291.630573 
L 590.845951 291.001092 
L 591.348427 290.765117 
L 591.848056 291.796294 
L 592.344871 292.212087 
L 592.838902 291.225002 
L 593.330181 292.032706 
L 593.818738 293.60305 
L 594.304603 293.803536 
L 594.787806 293.796632 
L 595.268376 293.150837 
L 595.746341 292.961241 
L 596.22173 293.451426 
L 597.164887 293.138471 
L 597.632709 293.596587 
L 598.098063 294.513629 
L 598.560974 293.431645 
L 599.021467 293.275021 
L 599.479569 292.850958 
L 599.935303 293.365832 
L 600.388694 292.91498 
L 600.839766 293.755629 
L 601.288542 293.043342 
L 601.735046 293.178365 
L 602.1793 293.182973 
L 602.621328 292.571739 
L 603.061151 292.889369 
L 603.498791 294.04339 
L 603.93427 294.538133 
L 604.79883 294.589892 
L 605.227951 294.472197 
L 605.654995 294.187488 
L 607.342785 292.249348 
L 607.759733 291.381829 
L 608.174719 290.980918 
L 608.998877 291.375136 
L 609.408086 291.304554 
L 610.220851 291.383282 
L 610.624441 291.871687 
L 611.026193 291.360554 
L 611.426123 291.04864 
L 611.824247 290.929854 
L 612.220581 291.047963 
L 613.007947 289.891776 
L 613.399009 290.075393 
L 613.788344 289.740212 
L 614.175968 289.825445 
L 614.561896 290.233117 
L 614.946142 290.301875 
L 615.328721 290.875127 
L 615.709648 290.629176 
L 616.088936 290.753927 
L 616.466599 291.063395 
L 616.842652 291.017161 
L 617.217109 291.387959 
L 617.589982 291.371697 
L 617.961285 290.925383 
L 618.331031 290.936267 
L 618.699233 291.298758 
L 619.065905 291.339782 
L 620.156859 291.082272 
L 620.517532 290.687862 
L 620.876735 290.741992 
L 621.234481 290.165399 
L 621.590782 290.287662 
L 622.299094 291.033488 
L 623.351007 291.370767 
L 623.698875 291.598348 
L 624.045375 291.344617 
L 624.39052 291.401943 
L 626.096266 292.365259 
L 626.433492 292.200293 
L 626.769433 292.863286 
L 627.437499 292.91725 
L 627.769644 292.731699 
L 628.100542 292.975542 
L 628.430204 293.000052 
L 628.758637 293.14867 
L 629.085852 293.443359 
L 629.736662 293.130979 
L 630.382704 293.305531 
L 631.024048 292.956621 
L 631.342979 292.979641 
L 631.66076 292.79863 
L 632.292909 292.820405 
L 632.920558 293.254626 
L 633.853734 292.076339 
L 634.162611 292.066493 
L 634.47041 292.295867 
L 634.777139 292.215471 
L 635.387414 292.610559 
L 635.690974 292.524758 
L 635.993494 292.087257 
L 636.894875 291.865288 
L 637.193299 292.120179 
L 637.490717 292.125874 
L 637.787135 292.320006 
L 638.082561 292.167245 
L 638.376999 292.399624 
L 638.962944 292.352918 
L 639.254463 291.91302 
L 640.410995 291.259937 
L 640.697774 291.674784 
L 640.983623 290.881664 
L 641.268548 290.800396 
L 641.552556 290.931616 
L 641.835652 290.874706 
L 642.117842 291.253739 
L 642.399132 291.270711 
L 642.959034 290.760612 
L 643.237658 290.700742 
L 643.515404 290.971639 
L 643.792279 290.983719 
L 644.068286 291.206199 
L 644.343432 291.16321 
L 644.617723 291.329069 
L 644.891163 290.895695 
L 645.163758 290.894251 
L 645.435512 291.411776 
L 645.976522 291.450919 
L 646.245788 291.300713 
L 646.514233 291.572515 
L 646.781864 292.136232 
L 647.314702 292.132084 
L 647.844339 291.66157 
L 648.370814 291.690003 
L 648.632878 291.294232 
L 648.894165 291.286341 
L 649.414428 291.455598 
L 649.673413 291.165242 
L 650.189112 291.070659 
L 650.445836 290.881203 
L 650.957051 291.397492 
L 651.211551 290.938615 
L 651.718359 290.682751 
L 651.970675 290.253424 
L 652.473151 290.549985 
L 652.723319 290.598512 
L 652.97278 290.530666 
L 653.221537 290.323529 
L 653.963626 291.449847 
L 654.209608 291.221744 
L 654.454905 291.523932 
L 654.699522 291.274119 
L 654.943462 291.685638 
L 655.186729 291.379732 
L 655.429327 291.30682 
L 655.67126 290.882338 
L 655.91253 291.007472 
L 656.153143 291.306399 
L 656.3931 291.31387 
L 656.632407 291.16547 
L 656.871065 290.655659 
L 657.10908 290.411159 
L 657.346454 290.81495 
L 657.58319 290.573646 
L 657.819293 290.740068 
L 658.054765 290.467831 
L 658.757433 290.919262 
L 658.990417 291.261166 
L 659.222787 291.043325 
L 659.454546 290.475003 
L 659.685698 290.571078 
L 659.916245 290.502336 
L 660.146192 290.562579 
L 660.37554 290.467984 
L 660.604293 290.853609 
L 660.832454 290.721937 
L 661.060027 290.408693 
L 661.287014 290.657896 
L 661.513418 290.400793 
L 661.739242 289.83879 
L 662.189163 289.958277 
L 662.413266 289.734938 
L 662.6368 290.009893 
L 662.85977 290.056915 
L 663.082177 289.872016 
L 663.525315 290.332824 
L 664.185875 290.873702 
L 664.404967 290.952251 
L 664.841524 290.83925 
L 665.27593 291.360775 
L 665.492334 291.427653 
L 665.708207 290.919717 
L 666.138376 290.407143 
L 666.352675 290.844982 
L 666.566456 290.739973 
L 666.992468 291.523465 
L 667.204705 291.447161 
L 667.416432 290.951333 
L 667.838367 291.543134 
L 668.258293 291.617268 
L 668.676229 291.966834 
L 669.092194 291.513205 
L 669.506206 291.930521 
L 669.712485 291.402858 
L 670.328443 292.569083 
L 670.53281 292.470473 
L 670.940129 292.077399 
L 671.143085 292.10131 
L 671.547601 291.724243 
L 671.749165 291.176391 
L 671.95027 291.114928 
L 672.351109 290.546103 
L 673.147361 290.222425 
L 673.345305 289.932914 
L 673.542807 290.344509 
L 673.739867 290.472461 
L 673.936488 290.76144 
L 674.132671 290.717419 
L 674.328419 291.033123 
L 674.523733 291.83172 
L 674.913068 292.28454 
L 675.300692 292.159649 
L 675.493867 292.844273 
L 675.68662 293.029074 
L 675.878952 292.701677 
L 676.262363 292.825726 
L 676.453445 292.552287 
L 676.644114 292.710985 
L 676.834372 292.439255 
L 677.02422 292.72293 
L 677.21366 292.735347 
L 677.402694 292.527483 
L 677.591323 292.147703 
L 677.77955 292.353807 
L 677.967377 292.804645 
L 678.341833 291.957728 
L 678.714706 292.161144 
L 678.900553 292.729749 
L 679.086009 292.808103 
L 679.640049 292.307684 
L 679.823958 292.504341 
L 680.007484 292.194367 
L 680.373394 292.589152 
L 680.737793 292.895266 
L 680.919429 293.487047 
L 681.281583 292.78661 
L 681.642256 293.492999 
L 681.82204 293.599095 
L 682.001459 293.844603 
L 682.180514 293.656515 
L 682.359205 293.931719 
L 682.537536 293.216941 
L 682.715506 293.047657 
L 682.893118 293.393621 
L 683.070373 293.247888 
L 683.247273 292.915558 
L 683.247273 292.915558 
" style="fill:none;stroke:#2ca02c;stroke-linecap:square;stroke-width:2;"/>
   </g>
   <g id="line2d_40">
    <path clip-path="url(#p5264c27e86)" d="M -1 293.457845 
L 683.247273 293.457845 
L 683.247273 293.457845 
" style="fill:none;stroke:#000000;stroke-dasharray:7.4,3.2;stroke-dashoffset:0;stroke-width:2;"/>
   </g>
   <g id="line2d_41">
    <path clip-path="url(#p5264c27e86)" d="M -1 360.307531 
L 135.392727 360.2713 
L 196.517451 331.380952 
L 232.273123 274.232075 
L 257.642175 282.414503 
L 277.319941 265.832809 
L 293.397847 262.28693 
L 306.991522 254.460418 
L 318.7669 227.981001 
L 329.153518 226.277295 
L 338.444666 236.40232 
L 346.849531 229.413932 
L 354.522571 228.637475 
L 361.581084 198.806442 
L 368.116246 187.402348 
L 374.200337 212.325704 
L 379.891624 210.710125 
L 385.237766 193.694043 
L 390.278242 209.510463 
L 395.046125 223.058737 
L 399.56939 226.08106 
L 403.871918 239.775485 
L 407.974255 228.675995 
L 411.894204 213.561323 
L 415.647295 218.28792 
L 419.247156 208.529433 
L 422.705808 219.982179 
L 426.033914 229.465537 
L 429.240971 232.121632 
L 432.335475 240.655287 
L 435.325061 224.549261 
L 438.21661 223.188101 
L 441.016348 238.662456 
L 443.729926 231.901 
L 446.36249 223.10329 
L 451.402967 207.25929 
L 453.819127 202.374077 
L 458.46148 211.789695 
L 460.694114 209.479003 
L 462.871615 219.018964 
L 464.996642 210.240242 
L 467.071663 211.630705 
L 469.098979 220.424436 
L 471.080733 206.264872 
L 473.018928 210.396874 
L 474.915438 204.028358 
L 476.772019 207.743568 
L 478.590317 205.133237 
L 480.37188 204.728953 
L 482.118161 215.405358 
L 483.830532 209.318193 
L 485.510285 216.68002 
L 487.158638 218.709303 
L 488.776745 216.228821 
L 490.365695 204.62106 
L 491.92652 196.859642 
L 493.460199 193.733742 
L 494.967661 179.158744 
L 496.449785 174.332777 
L 497.907411 187.207919 
L 500.752313 202.180556 
L 502.141072 215.187837 
L 503.508298 218.111245 
L 504.85465 214.014239 
L 506.180755 205.268438 
L 507.487214 213.628295 
L 508.774599 206.323107 
L 510.043461 205.553017 
L 511.294323 206.45162 
L 512.527691 209.394864 
L 513.744046 207.47567 
L 514.943851 209.324998 
L 516.127551 204.608779 
L 517.295573 206.499818 
L 518.448326 203.735892 
L 519.586204 205.438068 
L 520.709586 207.563412 
L 521.818838 207.082585 
L 522.91431 204.599417 
L 523.99634 203.452122 
L 525.065254 204.372273 
L 526.121366 197.376844 
L 527.16498 204.081766 
L 528.196387 207.957007 
L 529.215871 208.693506 
L 530.223703 203.896194 
L 534.143652 212.611389 
L 535.097005 213.958449 
L 536.040162 203.500852 
L 536.973339 201.133852 
L 537.896743 203.073923 
L 539.715041 205.805539 
L 540.610322 205.762409 
L 541.496604 201.906154 
L 542.374067 203.652717 
L 543.242885 199.127326 
L 544.955256 204.467359 
L 545.799132 205.177977 
L 546.635009 203.594814 
L 547.463037 208.677442 
L 548.283362 206.770072 
L 549.096127 207.248549 
L 549.901469 209.050749 
L 550.699523 208.329853 
L 551.490419 209.5694 
L 552.274285 209.358066 
L 553.821418 211.258936 
L 554.584923 211.581568 
L 555.341875 211.32913 
L 556.092385 210.4766 
L 556.836561 206.302135 
L 557.574509 207.299028 
L 558.306334 207.092486 
L 559.032135 204.771482 
L 559.752011 205.466585 
L 560.466058 209.64097 
L 561.17437 210.0332 
L 561.877038 214.859477 
L 562.574151 215.307019 
L 563.265796 212.106118 
L 563.952059 211.760707 
L 564.633022 208.837625 
L 565.308768 207.867246 
L 565.979374 211.607466 
L 566.64492 212.661053 
L 567.305479 213.922161 
L 567.961128 212.504617 
L 568.611938 211.464741 
L 569.25798 212.560639 
L 569.899323 211.120175 
L 570.536036 210.12639 
L 571.168185 208.051909 
L 572.419047 211.031148 
L 573.037887 209.993173 
L 573.652415 210.219031 
L 574.262689 208.846267 
L 574.86877 207.87789 
L 575.470713 207.732875 
L 576.068575 207.346105 
L 576.662411 206.309285 
L 577.252275 204.408115 
L 577.83822 203.892384 
L 578.420297 204.102248 
L 578.998557 203.598799 
L 580.143824 200.479366 
L 580.710928 199.917255 
L 581.274408 200.734344 
L 582.39068 202.87663 
L 582.943562 203.880562 
L 583.492999 206.94534 
L 584.039034 207.94779 
L 585.121064 211.828489 
L 585.65714 212.280619 
L 586.189978 212.975807 
L 586.719615 212.431251 
L 587.24609 213.267998 
L 587.769441 212.86575 
L 588.289704 214.730355 
L 588.806916 214.605282 
L 590.340595 209.676739 
L 590.845951 208.940192 
L 591.348427 208.509061 
L 591.848056 209.590031 
L 592.344871 210.002774 
L 592.838902 208.877133 
L 593.330181 209.14097 
L 593.818738 211.074896 
L 594.304603 210.854985 
L 594.787806 210.422743 
L 595.268376 209.836306 
L 595.746341 209.79537 
L 596.22173 210.168789 
L 596.694569 210.325001 
L 597.164887 209.675461 
L 597.632709 209.79188 
L 598.098063 211.23802 
L 599.021467 210.781072 
L 599.479569 210.638117 
L 599.935303 211.428932 
L 600.388694 210.608666 
L 600.839766 211.165542 
L 601.288542 210.187246 
L 601.735046 210.912208 
L 602.621328 210.082942 
L 603.061151 210.687198 
L 603.498791 210.72216 
L 603.93427 211.26315 
L 604.367609 211.339474 
L 604.79883 211.286337 
L 605.227951 210.337725 
L 606.502928 210.217495 
L 607.342785 209.114396 
L 608.174719 208.543566 
L 608.587761 208.756163 
L 608.998877 208.425267 
L 609.408086 208.277401 
L 609.815405 208.669436 
L 610.220851 208.283234 
L 610.624441 208.696076 
L 611.426123 208.010799 
L 611.824247 207.453955 
L 612.220581 207.502195 
L 612.615143 206.907126 
L 613.007947 206.553441 
L 613.399009 206.739469 
L 613.788344 206.654026 
L 614.946142 207.120666 
L 615.328721 208.050421 
L 616.088936 207.536813 
L 616.466599 207.741714 
L 616.842652 207.623649 
L 617.217109 207.919042 
L 617.589982 207.873185 
L 617.961285 207.452065 
L 618.331031 207.456817 
L 619.065905 207.611055 
L 619.431058 207.688695 
L 619.794705 207.319736 
L 620.156859 207.148254 
L 620.517532 206.850185 
L 620.876735 206.733457 
L 621.234481 206.158616 
L 622.299094 206.30737 
L 622.651128 206.471281 
L 623.001762 206.508418 
L 624.045375 206.000773 
L 624.39052 206.149096 
L 624.734319 206.156227 
L 625.076783 206.021371 
L 625.417922 206.210991 
L 625.757746 206.227324 
L 626.096266 206.560625 
L 626.433492 206.27179 
L 626.769433 206.978619 
L 627.104098 206.965369 
L 627.437499 207.109486 
L 627.769644 207.074752 
L 628.100542 207.315316 
L 629.411858 207.581479 
L 629.736662 207.278399 
L 630.060275 207.430419 
L 631.342979 207.439481 
L 631.66076 207.166069 
L 632.292909 207.42351 
L 632.607292 207.376928 
L 632.920558 207.217204 
L 633.543771 206.470716 
L 633.853734 206.460647 
L 634.162611 206.327688 
L 634.47041 206.512953 
L 634.777139 206.479715 
L 635.387414 206.690722 
L 635.690974 206.494636 
L 635.993494 206.01147 
L 636.595437 205.970013 
L 636.894875 206.144945 
L 637.193299 206.491647 
L 637.490717 206.55344 
L 637.787135 206.854895 
L 638.082561 206.578823 
L 638.376999 206.982307 
L 638.670458 207.148419 
L 638.962944 207.015375 
L 639.254463 206.671448 
L 639.545021 206.791776 
L 639.834625 206.51091 
L 640.123281 206.488313 
L 640.410995 206.177569 
L 640.697774 206.304276 
L 640.983623 205.778975 
L 641.268548 205.665711 
L 641.552556 205.902148 
L 641.835652 205.925748 
L 642.117842 206.113991 
L 642.959034 205.662011 
L 644.068286 206.099909 
L 644.343432 206.060268 
L 644.617723 206.241938 
L 645.163758 205.72739 
L 645.435512 206.285489 
L 646.245788 206.209494 
L 646.514233 206.326855 
L 646.781864 206.85326 
L 647.048686 206.663672 
L 647.314702 206.738924 
L 647.844339 206.092709 
L 648.370814 206.27476 
L 648.632878 205.889811 
L 649.673413 205.674217 
L 649.93164 205.712037 
L 650.189112 205.459958 
L 650.445836 205.419988 
L 650.701814 205.565512 
L 650.957051 205.521289 
L 651.465319 205.294803 
L 651.970675 204.344958 
L 652.222271 204.89657 
L 652.473151 204.536233 
L 652.723319 204.646415 
L 653.221537 204.532096 
L 653.963626 205.294797 
L 654.209608 205.091954 
L 654.454905 205.252952 
L 654.699522 205.116964 
L 654.943462 205.621954 
L 655.186729 205.667366 
L 655.67126 205.387895 
L 656.3931 205.702891 
L 656.632407 205.760769 
L 657.10908 205.245339 
L 657.346454 205.3127 
L 657.58319 204.945185 
L 657.819293 205.186448 
L 658.054765 204.927381 
L 658.289611 205.119144 
L 658.523832 205.038558 
L 658.757433 205.209701 
L 658.990417 205.209849 
L 659.454546 204.638754 
L 659.685698 204.721689 
L 660.146192 204.375449 
L 660.604293 204.953387 
L 660.832454 204.879144 
L 661.060027 204.482128 
L 661.287014 204.593331 
L 661.96449 203.780996 
L 662.413266 203.753031 
L 662.6368 204.246807 
L 663.082177 204.051883 
L 663.966238 205.391491 
L 664.185875 205.434549 
L 664.404967 205.333571 
L 664.623515 205.462503 
L 664.841524 205.068621 
L 665.27593 205.782398 
L 665.492334 205.637632 
L 665.923554 205.017866 
L 666.138376 204.869748 
L 666.352675 205.183375 
L 666.566456 205.136928 
L 666.779719 205.695873 
L 666.992468 205.875559 
L 667.204705 205.8976 
L 667.416432 205.43645 
L 667.838367 205.860459 
L 668.258293 205.792316 
L 668.676229 206.181895 
L 669.092194 205.680091 
L 669.299443 205.63792 
L 669.506206 205.862133 
L 669.712485 205.241578 
L 670.328443 206.138747 
L 670.53281 205.800455 
L 670.736705 205.883048 
L 671.143085 205.730868 
L 671.345575 205.844049 
L 672.351109 204.492141 
L 672.750133 204.567673 
L 672.948971 204.586604 
L 673.345305 204.140056 
L 673.542807 204.578839 
L 673.936488 204.870246 
L 674.132671 204.623216 
L 674.328419 204.996946 
L 674.718615 205.946143 
L 674.913068 206.08363 
L 675.107093 205.711639 
L 675.300692 205.720857 
L 675.493867 206.303926 
L 675.68662 206.452893 
L 675.878952 206.2734 
L 676.262363 206.318919 
L 676.453445 205.911381 
L 676.644114 206.050789 
L 676.834372 205.669003 
L 677.402694 206.185231 
L 677.591323 206.084583 
L 677.77955 206.152403 
L 677.967377 206.499769 
L 678.154804 206.234598 
L 678.341833 205.702048 
L 678.714706 205.828649 
L 679.086009 206.564901 
L 679.271076 206.523064 
L 679.455755 206.310168 
L 679.823958 206.517777 
L 680.007484 206.090121 
L 680.190629 206.369273 
L 680.373394 206.293169 
L 680.919429 207.278019 
L 681.100692 206.780032 
L 681.281583 206.677452 
L 681.642256 207.05521 
L 681.82204 206.923841 
L 682.359205 207.727957 
L 682.715506 206.891973 
L 682.893118 207.314027 
L 683.070373 207.228031 
L 683.247273 206.935037 
L 683.247273 206.935037 
" style="fill:none;stroke:#d62728;stroke-linecap:square;stroke-width:2;"/>
   </g>
   <g id="line2d_42">
    <path clip-path="url(#p5264c27e86)" d="M -1 205.66894 
L 683.247273 205.66894 
L 683.247273 205.66894 
" style="fill:none;stroke:#000000;stroke-dasharray:7.4,3.2;stroke-dashoffset:0;stroke-width:2;"/>
   </g>
   <g id="line2d_43">
    <path clip-path="url(#p5264c27e86)" d="M -1 317.958225 
L 135.392727 317.920632 
L 196.517451 269.535756 
L 232.273123 207.391834 
L 257.642175 202.283387 
L 277.319941 187.653229 
L 293.397847 150.983137 
L 306.991522 158.407879 
L 318.7669 157.812874 
L 329.153518 154.585855 
L 338.444666 148.434759 
L 346.849531 154.326629 
L 354.522571 153.218917 
L 361.581084 120.951801 
L 368.116246 120.787578 
L 374.200337 125.956654 
L 379.891624 125.843018 
L 385.237766 129.797474 
L 390.278242 130.583178 
L 395.046125 134.168812 
L 399.56939 136.323626 
L 403.871918 123.701329 
L 407.974255 120.496418 
L 411.894204 126.523613 
L 415.647295 130.087087 
L 419.247156 126.490145 
L 422.705808 132.920136 
L 426.033914 127.568418 
L 429.240971 135.628781 
L 432.335475 132.287087 
L 435.325061 125.837968 
L 438.21661 128.304777 
L 441.016348 149.961678 
L 443.729926 144.831342 
L 446.36249 134.162267 
L 448.918737 119.603117 
L 451.402967 113.077709 
L 453.819127 111.295111 
L 456.170849 114.977326 
L 458.46148 122.180427 
L 460.694114 126.351902 
L 462.871615 126.273175 
L 464.996642 113.906641 
L 467.071663 108.446924 
L 469.098979 114.266281 
L 471.080733 110.099008 
L 473.018928 112.576006 
L 474.915438 107.261562 
L 476.772019 110.607117 
L 478.590317 104.388557 
L 480.37188 111.836581 
L 482.118161 118.153325 
L 483.830532 113.567831 
L 485.510285 115.994293 
L 487.158638 123.598081 
L 488.776745 118.498353 
L 490.365695 111.432832 
L 491.92652 111.507971 
L 493.460199 104.052308 
L 494.967661 98.06 
L 496.449785 89.28 
L 497.907411 92.632535 
L 499.341334 105.933265 
L 500.752313 111.362 
L 502.141072 120.296591 
L 503.508298 120.737396 
L 504.85465 115.40998 
L 506.180755 112.817956 
L 507.487214 118.452737 
L 508.774599 114.715516 
L 510.043461 111.550417 
L 511.294323 107.695845 
L 513.744046 113.036175 
L 514.943851 114.999864 
L 517.295573 109.641896 
L 518.448326 115.007478 
L 519.586204 121.751889 
L 520.709586 120.464709 
L 521.818838 117.796524 
L 522.91431 113.996634 
L 525.065254 109.153397 
L 526.121366 107.242384 
L 527.16498 108.902837 
L 528.196387 116.283018 
L 529.215871 117.807573 
L 530.223703 114.524487 
L 531.220147 116.90322 
L 532.205457 116.291894 
L 533.179879 119.876146 
L 534.143652 121.56626 
L 535.097005 124.475513 
L 536.040162 116.693276 
L 536.973339 113.322366 
L 537.896743 111.233155 
L 538.810579 110.513083 
L 539.715041 111.8603 
L 540.610322 109.574493 
L 541.496604 106.55453 
L 542.374067 106.713228 
L 543.242885 106.50357 
L 544.103227 109.575608 
L 544.955256 110.019347 
L 545.799132 109.221907 
L 546.635009 107.110068 
L 547.463037 109.303482 
L 548.283362 109.962791 
L 549.096127 110.398429 
L 549.901469 111.422312 
L 550.699523 110.680483 
L 551.490419 112.735634 
L 552.274285 112.128673 
L 553.051244 111.30081 
L 554.584923 111.555544 
L 555.341875 112.452181 
L 556.092385 112.117878 
L 556.836561 110.050865 
L 557.574509 111.526856 
L 558.306334 110.896995 
L 559.032135 110.659549 
L 559.752011 111.428588 
L 560.466058 113.517695 
L 561.877038 116.352417 
L 563.265796 115.429363 
L 563.952059 115.094262 
L 564.633022 114.419865 
L 565.308768 113.368322 
L 565.979374 115.724779 
L 566.64492 114.853496 
L 567.305479 118.161296 
L 567.961128 118.93508 
L 568.611938 119.247889 
L 569.25798 120.260667 
L 569.899323 118.835696 
L 570.536036 117.082753 
L 571.168185 116.653629 
L 571.795834 115.441018 
L 572.419047 116.054466 
L 573.037887 116.495481 
L 573.652415 115.087576 
L 574.262689 113.290097 
L 574.86877 112.137843 
L 575.470713 112.558024 
L 576.068575 112.638564 
L 576.662411 111.384579 
L 577.252275 109.696323 
L 577.83822 110.092365 
L 578.420297 111.168181 
L 580.143824 107.823144 
L 580.710928 107.101485 
L 581.274408 107.170947 
L 581.83431 107.118458 
L 582.39068 107.700153 
L 582.943562 107.759344 
L 583.492999 109.7455 
L 584.039034 109.915719 
L 584.581708 111.517292 
L 585.121064 112.675774 
L 585.65714 112.883785 
L 586.189978 112.450069 
L 586.719615 112.227634 
L 587.24609 112.930617 
L 587.769441 112.569486 
L 588.289704 112.754212 
L 588.806916 113.849131 
L 589.321111 112.956321 
L 589.832326 112.403929 
L 590.340595 110.635225 
L 590.845951 109.750072 
L 591.348427 109.765078 
L 591.848056 110.607649 
L 592.344871 109.838256 
L 593.330181 109.666013 
L 593.818738 110.80293 
L 594.787806 110.781695 
L 595.268376 110.194275 
L 595.746341 110.020433 
L 596.22173 109.648817 
L 596.694569 110.203365 
L 597.164887 109.279392 
L 597.632709 108.92292 
L 598.098063 110.251702 
L 599.021467 110.077914 
L 599.935303 110.672903 
L 600.388694 110.221664 
L 600.839766 110.251348 
L 601.288542 109.670685 
L 601.735046 109.973928 
L 602.1793 109.82398 
L 602.621328 109.817208 
L 603.061151 111.011123 
L 603.498791 110.929374 
L 603.93427 111.610649 
L 604.367609 112.007209 
L 604.79883 111.726846 
L 605.227951 111.088546 
L 605.654995 111.464469 
L 606.07998 111.125522 
L 606.502928 111.10922 
L 607.342785 110.405632 
L 608.174719 110.365248 
L 608.587761 110.116055 
L 608.998877 110.127256 
L 609.408086 109.604794 
L 609.815405 109.989261 
L 610.220851 109.842283 
L 610.624441 110.06344 
L 611.026193 109.587764 
L 611.426123 109.861241 
L 611.824247 109.521484 
L 612.220581 109.630806 
L 612.615143 109.282116 
L 613.007947 108.734485 
L 613.399009 108.469472 
L 613.788344 108.42383 
L 614.175968 108.881091 
L 614.561896 109.119897 
L 614.946142 108.988956 
L 615.328721 109.566977 
L 615.709648 109.55465 
L 616.088936 109.829591 
L 616.466599 110.397802 
L 616.842652 110.542925 
L 617.217109 110.485275 
L 617.589982 110.737622 
L 617.961285 110.452414 
L 619.431058 110.405625 
L 619.794705 109.99691 
L 620.156859 109.825532 
L 620.876735 109.788918 
L 621.234481 109.357378 
L 621.590782 109.318429 
L 621.945649 109.158383 
L 622.299094 109.198841 
L 622.651128 109.49758 
L 623.698875 109.359647 
L 624.39052 109.703818 
L 624.734319 109.49325 
L 625.076783 109.502814 
L 625.417922 109.817492 
L 625.757746 109.722879 
L 626.096266 110.213835 
L 626.433492 110.083963 
L 626.769433 110.774564 
L 627.104098 110.61952 
L 627.437499 110.748798 
L 627.769644 110.450458 
L 628.100542 110.336898 
L 630.060275 110.347009 
L 630.382704 110.534912 
L 631.024048 111.081105 
L 631.342979 111.015112 
L 631.66076 110.811742 
L 631.977401 110.944518 
L 632.292909 110.849062 
L 632.607292 111.236475 
L 633.853734 110.44697 
L 634.162611 110.545027 
L 634.47041 110.881686 
L 634.777139 110.941072 
L 635.082804 110.842047 
L 635.387414 110.577751 
L 635.690974 110.637052 
L 636.294979 110.248398 
L 636.894875 110.573683 
L 637.490717 111.162951 
L 638.082561 111.022951 
L 638.376999 111.529267 
L 638.670458 111.689632 
L 639.545021 111.495989 
L 639.834625 111.273747 
L 640.123281 111.322857 
L 640.697774 111.189401 
L 640.983623 111.166003 
L 641.268548 110.941021 
L 641.835652 110.953403 
L 642.679528 110.74276 
L 642.959034 110.429525 
L 644.068286 111.536123 
L 644.343432 111.461986 
L 644.617723 111.679462 
L 645.163758 111.419844 
L 645.435512 111.517574 
L 645.976522 111.297444 
L 646.245788 111.310558 
L 646.514233 111.53582 
L 646.781864 111.273864 
L 647.579918 111.037974 
L 647.844339 110.814374 
L 648.370814 111.198964 
L 648.632878 110.689119 
L 648.894165 110.541078 
L 649.15468 110.521208 
L 649.414428 110.342178 
L 649.93164 110.800779 
L 650.189112 110.658147 
L 651.211551 110.561865 
L 651.465319 110.378182 
L 651.970675 109.800687 
L 652.222271 110.383747 
L 652.473151 109.930747 
L 652.723319 109.92434 
L 652.97278 109.772762 
L 653.469595 109.937878 
L 653.716956 109.936146 
L 653.963626 110.371825 
L 654.209608 110.101803 
L 654.699522 109.994402 
L 655.186729 110.554089 
L 655.429327 110.66567 
L 655.91253 110.550399 
L 656.3931 110.856136 
L 656.632407 111.297938 
L 656.871065 110.919897 
L 657.10908 110.89809 
L 657.346454 111.139395 
L 657.58319 110.877763 
L 657.819293 110.911978 
L 658.289611 110.664854 
L 658.523832 110.604838 
L 658.757433 110.797768 
L 659.222787 110.198789 
L 659.454546 110.183155 
L 659.685698 110.519896 
L 660.146192 110.376904 
L 660.832454 110.825462 
L 661.060027 110.551727 
L 661.287014 110.601499 
L 661.96449 110.124363 
L 662.413266 110.60713 
L 662.85977 110.844812 
L 663.304024 110.948661 
L 663.525315 110.808527 
L 663.966238 111.71637 
L 664.185875 111.59607 
L 664.623515 111.77322 
L 664.841524 111.551189 
L 665.058994 111.705254 
L 665.27593 112.087717 
L 665.708207 111.755146 
L 665.923554 111.539367 
L 666.138376 111.51163 
L 666.352675 111.618106 
L 666.566456 111.325115 
L 667.204705 111.962029 
L 667.416432 111.559221 
L 667.838367 112.016779 
L 668.258293 111.870985 
L 668.467509 111.826592 
L 668.884457 112.096617 
L 669.299443 111.719518 
L 669.506206 112.096799 
L 669.712485 111.638387 
L 669.918283 111.61145 
L 670.328443 112.18004 
L 670.53281 112.021087 
L 670.736705 112.043053 
L 671.143085 111.681707 
L 671.345575 111.708762 
L 671.547601 111.479894 
L 671.749165 111.480577 
L 672.351109 110.786874 
L 672.750133 111.123514 
L 673.147361 111.113622 
L 673.345305 110.893162 
L 673.542807 111.242207 
L 673.739867 111.164316 
L 674.132671 111.363244 
L 674.523733 111.85682 
L 674.718615 112.316421 
L 674.913068 112.373985 
L 675.107093 112.081548 
L 675.300692 112.099103 
L 675.68662 112.446675 
L 675.878952 112.223842 
L 676.070866 112.297588 
L 676.262363 112.221955 
L 676.453445 111.948216 
L 676.644114 112.159205 
L 676.834372 112.032601 
L 677.21366 112.544847 
L 677.77955 112.518281 
L 677.967377 112.894333 
L 678.341833 112.398436 
L 678.528467 112.527477 
L 678.714706 112.232776 
L 678.900553 112.4946 
L 679.640049 112.662088 
L 679.823958 112.571978 
L 680.007484 112.138803 
L 680.373394 112.231433 
L 680.555782 112.463931 
L 680.737793 112.484986 
L 680.919429 112.857345 
L 681.281583 112.523058 
L 681.462104 112.782158 
L 681.82204 112.558391 
L 682.180514 112.710273 
L 682.359205 113.085787 
L 682.537536 112.735546 
L 682.715506 112.796026 
L 683.247273 112.504276 
L 683.247273 112.504276 
" style="fill:none;stroke:#9467bd;stroke-linecap:square;stroke-width:2;"/>
   </g>
   <g id="line2d_44">
    <path clip-path="url(#p5264c27e86)" d="M -1 111.30161 
L 683.247273 111.30161 
L 683.247273 111.30161 
" style="fill:none;stroke:#000000;stroke-dasharray:7.4,3.2;stroke-dashoffset:0;stroke-width:2;"/>
   </g>
   <g id="patch_3">
    <path d="M 108 512.64 
L 108 69.12 
" style="fill:none;stroke:#000000;stroke-linecap:square;stroke-linejoin:miter;stroke-width:0.8;"/>
   </g>
   <g id="patch_4">
    <path d="M 710.64 512.64 
L 710.64 69.12 
" style="fill:none;stroke:#000000;stroke-linecap:square;stroke-linejoin:miter;stroke-width:0.8;"/>
   </g>
   <g id="patch_5">
    <path d="M 108 512.64 
L 710.64 512.64 
" style="fill:none;stroke:#000000;stroke-linecap:square;stroke-linejoin:miter;stroke-width:0.8;"/>
   </g>
   <g id="patch_6">
    <path d="M 108 69.12 
L 710.64 69.12 
" style="fill:none;stroke:#000000;stroke-linecap:square;stroke-linejoin:miter;stroke-width:0.8;"/>
   </g>
   <g id="text_14">
    <!-- FVMC estimates through time vs true values averaged over 50 environments -->
    <g transform="translate(84.69675 63.12)scale(0.168 -0.168)">
     <defs>
      <path d="M 628 4666 
L 1569 4666 
L 2759 1491 
L 3956 4666 
L 4897 4666 
L 4897 0 
L 4281 0 
L 4281 4097 
L 3078 897 
L 2444 897 
L 1241 4097 
L 1241 0 
L 628 0 
L 628 4666 
z
" id="DejaVuSans-4d" transform="scale(0.015625)"/>
      <path d="M 4122 4306 
L 4122 3641 
Q 3803 3938 3442 4084 
Q 3081 4231 2675 4231 
Q 1875 4231 1450 3742 
Q 1025 3253 1025 2328 
Q 1025 1406 1450 917 
Q 1875 428 2675 428 
Q 3081 428 3442 575 
Q 3803 722 4122 1019 
L 4122 359 
Q 3791 134 3420 21 
Q 3050 -91 2638 -91 
Q 1578 -91 968 557 
Q 359 1206 359 2328 
Q 359 3453 968 4101 
Q 1578 4750 2638 4750 
Q 3056 4750 3426 4639 
Q 3797 4528 4122 4306 
z
" id="DejaVuSans-43" transform="scale(0.015625)"/>
      <path d="M 3328 2828 
Q 3544 3216 3844 3400 
Q 4144 3584 4550 3584 
Q 5097 3584 5394 3201 
Q 5691 2819 5691 2113 
L 5691 0 
L 5113 0 
L 5113 2094 
Q 5113 2597 4934 2840 
Q 4756 3084 4391 3084 
Q 3944 3084 3684 2787 
Q 3425 2491 3425 1978 
L 3425 0 
L 2847 0 
L 2847 2094 
Q 2847 2600 2669 2842 
Q 2491 3084 2119 3084 
Q 1678 3084 1418 2786 
Q 1159 2488 1159 1978 
L 1159 0 
L 581 0 
L 581 3500 
L 1159 3500 
L 1159 2956 
Q 1356 3278 1631 3431 
Q 1906 3584 2284 3584 
Q 2666 3584 2933 3390 
Q 3200 3197 3328 2828 
z
" id="DejaVuSans-6d" transform="scale(0.015625)"/>
      <path d="M 3513 2113 
L 3513 0 
L 2938 0 
L 2938 2094 
Q 2938 2591 2744 2837 
Q 2550 3084 2163 3084 
Q 1697 3084 1428 2787 
Q 1159 2491 1159 1978 
L 1159 0 
L 581 0 
L 581 4863 
L 1159 4863 
L 1159 2956 
Q 1366 3272 1645 3428 
Q 1925 3584 2291 3584 
Q 2894 3584 3203 3211 
Q 3513 2838 3513 2113 
z
" id="DejaVuSans-68" transform="scale(0.015625)"/>
      <path d="M 2631 2963 
Q 2534 3019 2420 3045 
Q 2306 3072 2169 3072 
Q 1681 3072 1420 2755 
Q 1159 2438 1159 1844 
L 1159 0 
L 581 0 
L 581 3500 
L 1159 3500 
L 1159 2956 
Q 1341 3275 1631 3429 
Q 1922 3584 2338 3584 
Q 2397 3584 2469 3576 
Q 2541 3569 2628 3553 
L 2631 2963 
z
" id="DejaVuSans-72" transform="scale(0.015625)"/>
      <path d="M 191 3500 
L 800 3500 
L 1894 563 
L 2988 3500 
L 3597 3500 
L 2284 0 
L 1503 0 
L 191 3500 
z
" id="DejaVuSans-76" transform="scale(0.015625)"/>
     </defs>
     <use xlink:href="#DejaVuSans-46"/>
     <use x="57.519531" xlink:href="#DejaVuSans-56"/>
     <use x="125.927734" xlink:href="#DejaVuSans-4d"/>
     <use x="212.207031" xlink:href="#DejaVuSans-43"/>
     <use x="282.03125" xlink:href="#DejaVuSans-20"/>
     <use x="313.818359" xlink:href="#DejaVuSans-65"/>
     <use x="375.341797" xlink:href="#DejaVuSans-73"/>
     <use x="427.441406" xlink:href="#DejaVuSans-74"/>
     <use x="466.650391" xlink:href="#DejaVuSans-69"/>
     <use x="494.433594" xlink:href="#DejaVuSans-6d"/>
     <use x="591.845703" xlink:href="#DejaVuSans-61"/>
     <use x="653.125" xlink:href="#DejaVuSans-74"/>
     <use x="692.333984" xlink:href="#DejaVuSans-65"/>
     <use x="753.857422" xlink:href="#DejaVuSans-73"/>
     <use x="805.957031" xlink:href="#DejaVuSans-20"/>
     <use x="837.744141" xlink:href="#DejaVuSans-74"/>
     <use x="876.953125" xlink:href="#DejaVuSans-68"/>
     <use x="940.332031" xlink:href="#DejaVuSans-72"/>
     <use x="979.195312" xlink:href="#DejaVuSans-6f"/>
     <use x="1040.376953" xlink:href="#DejaVuSans-75"/>
     <use x="1103.755859" xlink:href="#DejaVuSans-67"/>
     <use x="1167.232422" xlink:href="#DejaVuSans-68"/>
     <use x="1230.611328" xlink:href="#DejaVuSans-20"/>
     <use x="1262.398438" xlink:href="#DejaVuSans-74"/>
     <use x="1301.607422" xlink:href="#DejaVuSans-69"/>
     <use x="1329.390625" xlink:href="#DejaVuSans-6d"/>
     <use x="1426.802734" xlink:href="#DejaVuSans-65"/>
     <use x="1488.326172" xlink:href="#DejaVuSans-20"/>
     <use x="1520.113281" xlink:href="#DejaVuSans-76"/>
     <use x="1579.292969" xlink:href="#DejaVuSans-73"/>
     <use x="1631.392578" xlink:href="#DejaVuSans-20"/>
     <use x="1663.179688" xlink:href="#DejaVuSans-74"/>
     <use x="1702.388672" xlink:href="#DejaVuSans-72"/>
     <use x="1743.501953" xlink:href="#DejaVuSans-75"/>
     <use x="1806.880859" xlink:href="#DejaVuSans-65"/>
     <use x="1868.404297" xlink:href="#DejaVuSans-20"/>
     <use x="1900.191406" xlink:href="#DejaVuSans-76"/>
     <use x="1959.371094" xlink:href="#DejaVuSans-61"/>
     <use x="2020.650391" xlink:href="#DejaVuSans-6c"/>
     <use x="2048.433594" xlink:href="#DejaVuSans-75"/>
     <use x="2111.8125" xlink:href="#DejaVuSans-65"/>
     <use x="2173.335938" xlink:href="#DejaVuSans-73"/>
     <use x="2225.435547" xlink:href="#DejaVuSans-20"/>
     <use x="2257.222656" xlink:href="#DejaVuSans-61"/>
     <use x="2318.501953" xlink:href="#DejaVuSans-76"/>
     <use x="2377.681641" xlink:href="#DejaVuSans-65"/>
     <use x="2439.205078" xlink:href="#DejaVuSans-72"/>
     <use x="2480.318359" xlink:href="#DejaVuSans-61"/>
     <use x="2541.597656" xlink:href="#DejaVuSans-67"/>
     <use x="2605.074219" xlink:href="#DejaVuSans-65"/>
     <use x="2666.597656" xlink:href="#DejaVuSans-64"/>
     <use x="2730.074219" xlink:href="#DejaVuSans-20"/>
     <use x="2761.861328" xlink:href="#DejaVuSans-6f"/>
     <use x="2823.042969" xlink:href="#DejaVuSans-76"/>
     <use x="2882.222656" xlink:href="#DejaVuSans-65"/>
     <use x="2943.746094" xlink:href="#DejaVuSans-72"/>
     <use x="2984.859375" xlink:href="#DejaVuSans-20"/>
     <use x="3016.646484" xlink:href="#DejaVuSans-35"/>
     <use x="3080.269531" xlink:href="#DejaVuSans-30"/>
     <use x="3143.892578" xlink:href="#DejaVuSans-20"/>
     <use x="3175.679688" xlink:href="#DejaVuSans-65"/>
     <use x="3237.203125" xlink:href="#DejaVuSans-6e"/>
     <use x="3300.582031" xlink:href="#DejaVuSans-76"/>
     <use x="3359.761719" xlink:href="#DejaVuSans-69"/>
     <use x="3387.544922" xlink:href="#DejaVuSans-72"/>
     <use x="3426.408203" xlink:href="#DejaVuSans-6f"/>
     <use x="3487.589844" xlink:href="#DejaVuSans-6e"/>
     <use x="3550.96875" xlink:href="#DejaVuSans-6d"/>
     <use x="3648.380859" xlink:href="#DejaVuSans-65"/>
     <use x="3709.904297" xlink:href="#DejaVuSans-6e"/>
     <use x="3773.283203" xlink:href="#DejaVuSans-74"/>
     <use x="3812.492188" xlink:href="#DejaVuSans-73"/>
    </g>
   </g>
   <g id="legend_1">
    <g id="patch_7">
     <path d="M 720.44 395.726875 
L 820.673438 395.726875 
Q 823.473438 395.726875 823.473438 392.926875 
L 823.473438 188.833125 
Q 823.473438 186.033125 820.673438 186.033125 
L 720.44 186.033125 
Q 717.64 186.033125 717.64 188.833125 
L 717.64 392.926875 
Q 717.64 395.726875 720.44 395.726875 
z
" style="fill:#ffffff;opacity:0.8;stroke:#cccccc;stroke-linejoin:miter;"/>
    </g>
    <g id="line2d_45">
     <path d="M 723.24 197.370937 
L 751.24 197.370937 
" style="fill:none;stroke:#1f77b4;stroke-linecap:square;stroke-width:2;"/>
    </g>
    <g id="line2d_46"/>
    <g id="text_15">
     <!-- V(s=1) -->
     <g transform="translate(762.44 202.270938)scale(0.14 -0.14)">
      <defs>
       <path d="M 678 2906 
L 4684 2906 
L 4684 2381 
L 678 2381 
L 678 2906 
z
M 678 1631 
L 4684 1631 
L 4684 1100 
L 678 1100 
L 678 1631 
z
" id="DejaVuSans-3d" transform="scale(0.015625)"/>
      </defs>
      <use xlink:href="#DejaVuSans-56"/>
      <use x="68.408203" xlink:href="#DejaVuSans-28"/>
      <use x="107.421875" xlink:href="#DejaVuSans-73"/>
      <use x="159.521484" xlink:href="#DejaVuSans-3d"/>
      <use x="243.310547" xlink:href="#DejaVuSans-31"/>
      <use x="306.933594" xlink:href="#DejaVuSans-29"/>
     </g>
    </g>
    <g id="line2d_47">
     <path d="M 723.24 217.920312 
L 751.24 217.920312 
" style="fill:none;stroke:#000000;stroke-dasharray:7.4,3.2;stroke-dashoffset:0;stroke-width:2;"/>
    </g>
    <g id="line2d_48"/>
    <g id="text_16">
     <!-- V*(s=1) -->
     <g transform="translate(762.44 222.820312)scale(0.14 -0.14)">
      <defs>
       <path d="M 3009 3897 
L 1888 3291 
L 3009 2681 
L 2828 2375 
L 1778 3009 
L 1778 1831 
L 1422 1831 
L 1422 3009 
L 372 2375 
L 191 2681 
L 1313 3291 
L 191 3897 
L 372 4206 
L 1422 3572 
L 1422 4750 
L 1778 4750 
L 1778 3572 
L 2828 4206 
L 3009 3897 
z
" id="DejaVuSans-2a" transform="scale(0.015625)"/>
      </defs>
      <use xlink:href="#DejaVuSans-56"/>
      <use x="68.408203" xlink:href="#DejaVuSans-2a"/>
      <use x="118.408203" xlink:href="#DejaVuSans-28"/>
      <use x="157.421875" xlink:href="#DejaVuSans-73"/>
      <use x="209.521484" xlink:href="#DejaVuSans-3d"/>
      <use x="293.310547" xlink:href="#DejaVuSans-31"/>
      <use x="356.933594" xlink:href="#DejaVuSans-29"/>
     </g>
    </g>
    <g id="line2d_49">
     <path d="M 723.24 238.469688 
L 751.24 238.469688 
" style="fill:none;stroke:#ff7f0e;stroke-linecap:square;stroke-width:2;"/>
    </g>
    <g id="line2d_50"/>
    <g id="text_17">
     <!-- V(s=2) -->
     <g transform="translate(762.44 243.369688)scale(0.14 -0.14)">
      <use xlink:href="#DejaVuSans-56"/>
      <use x="68.408203" xlink:href="#DejaVuSans-28"/>
      <use x="107.421875" xlink:href="#DejaVuSans-73"/>
      <use x="159.521484" xlink:href="#DejaVuSans-3d"/>
      <use x="243.310547" xlink:href="#DejaVuSans-32"/>
      <use x="306.933594" xlink:href="#DejaVuSans-29"/>
     </g>
    </g>
    <g id="line2d_51">
     <path d="M 723.24 259.019063 
L 751.24 259.019063 
" style="fill:none;stroke:#000000;stroke-dasharray:7.4,3.2;stroke-dashoffset:0;stroke-width:2;"/>
    </g>
    <g id="line2d_52"/>
    <g id="text_18">
     <!-- V*(s=2) -->
     <g transform="translate(762.44 263.919062)scale(0.14 -0.14)">
      <use xlink:href="#DejaVuSans-56"/>
      <use x="68.408203" xlink:href="#DejaVuSans-2a"/>
      <use x="118.408203" xlink:href="#DejaVuSans-28"/>
      <use x="157.421875" xlink:href="#DejaVuSans-73"/>
      <use x="209.521484" xlink:href="#DejaVuSans-3d"/>
      <use x="293.310547" xlink:href="#DejaVuSans-32"/>
      <use x="356.933594" xlink:href="#DejaVuSans-29"/>
     </g>
    </g>
    <g id="line2d_53">
     <path d="M 723.24 279.568438 
L 751.24 279.568438 
" style="fill:none;stroke:#2ca02c;stroke-linecap:square;stroke-width:2;"/>
    </g>
    <g id="line2d_54"/>
    <g id="text_19">
     <!-- V(s=3) -->
     <g transform="translate(762.44 284.468437)scale(0.14 -0.14)">
      <use xlink:href="#DejaVuSans-56"/>
      <use x="68.408203" xlink:href="#DejaVuSans-28"/>
      <use x="107.421875" xlink:href="#DejaVuSans-73"/>
      <use x="159.521484" xlink:href="#DejaVuSans-3d"/>
      <use x="243.310547" xlink:href="#DejaVuSans-33"/>
      <use x="306.933594" xlink:href="#DejaVuSans-29"/>
     </g>
    </g>
    <g id="line2d_55">
     <path d="M 723.24 300.117813 
L 751.24 300.117813 
" style="fill:none;stroke:#000000;stroke-dasharray:7.4,3.2;stroke-dashoffset:0;stroke-width:2;"/>
    </g>
    <g id="line2d_56"/>
    <g id="text_20">
     <!-- V*(s=3) -->
     <g transform="translate(762.44 305.017812)scale(0.14 -0.14)">
      <use xlink:href="#DejaVuSans-56"/>
      <use x="68.408203" xlink:href="#DejaVuSans-2a"/>
      <use x="118.408203" xlink:href="#DejaVuSans-28"/>
      <use x="157.421875" xlink:href="#DejaVuSans-73"/>
      <use x="209.521484" xlink:href="#DejaVuSans-3d"/>
      <use x="293.310547" xlink:href="#DejaVuSans-33"/>
      <use x="356.933594" xlink:href="#DejaVuSans-29"/>
     </g>
    </g>
    <g id="line2d_57">
     <path d="M 723.24 320.667188 
L 751.24 320.667188 
" style="fill:none;stroke:#d62728;stroke-linecap:square;stroke-width:2;"/>
    </g>
    <g id="line2d_58"/>
    <g id="text_21">
     <!-- V(s=4) -->
     <g transform="translate(762.44 325.567188)scale(0.14 -0.14)">
      <use xlink:href="#DejaVuSans-56"/>
      <use x="68.408203" xlink:href="#DejaVuSans-28"/>
      <use x="107.421875" xlink:href="#DejaVuSans-73"/>
      <use x="159.521484" xlink:href="#DejaVuSans-3d"/>
      <use x="243.310547" xlink:href="#DejaVuSans-34"/>
      <use x="306.933594" xlink:href="#DejaVuSans-29"/>
     </g>
    </g>
    <g id="line2d_59">
     <path d="M 723.24 341.216563 
L 751.24 341.216563 
" style="fill:none;stroke:#000000;stroke-dasharray:7.4,3.2;stroke-dashoffset:0;stroke-width:2;"/>
    </g>
    <g id="line2d_60"/>
    <g id="text_22">
     <!-- V*(s=4) -->
     <g transform="translate(762.44 346.116562)scale(0.14 -0.14)">
      <use xlink:href="#DejaVuSans-56"/>
      <use x="68.408203" xlink:href="#DejaVuSans-2a"/>
      <use x="118.408203" xlink:href="#DejaVuSans-28"/>
      <use x="157.421875" xlink:href="#DejaVuSans-73"/>
      <use x="209.521484" xlink:href="#DejaVuSans-3d"/>
      <use x="293.310547" xlink:href="#DejaVuSans-34"/>
      <use x="356.933594" xlink:href="#DejaVuSans-29"/>
     </g>
    </g>
    <g id="line2d_61">
     <path d="M 723.24 361.765938 
L 751.24 361.765938 
" style="fill:none;stroke:#9467bd;stroke-linecap:square;stroke-width:2;"/>
    </g>
    <g id="line2d_62"/>
    <g id="text_23">
     <!-- V(s=5) -->
     <g transform="translate(762.44 366.665938)scale(0.14 -0.14)">
      <use xlink:href="#DejaVuSans-56"/>
      <use x="68.408203" xlink:href="#DejaVuSans-28"/>
      <use x="107.421875" xlink:href="#DejaVuSans-73"/>
      <use x="159.521484" xlink:href="#DejaVuSans-3d"/>
      <use x="243.310547" xlink:href="#DejaVuSans-35"/>
      <use x="306.933594" xlink:href="#DejaVuSans-29"/>
     </g>
    </g>
    <g id="line2d_63">
     <path d="M 723.24 382.315313 
L 751.24 382.315313 
" style="fill:none;stroke:#000000;stroke-dasharray:7.4,3.2;stroke-dashoffset:0;stroke-width:2;"/>
    </g>
    <g id="line2d_64"/>
    <g id="text_24">
     <!-- V*(s=5) -->
     <g transform="translate(762.44 387.215312)scale(0.14 -0.14)">
      <use xlink:href="#DejaVuSans-56"/>
      <use x="68.408203" xlink:href="#DejaVuSans-2a"/>
      <use x="118.408203" xlink:href="#DejaVuSans-28"/>
      <use x="157.421875" xlink:href="#DejaVuSans-73"/>
      <use x="209.521484" xlink:href="#DejaVuSans-3d"/>
      <use x="293.310547" xlink:href="#DejaVuSans-35"/>
      <use x="356.933594" xlink:href="#DejaVuSans-29"/>
     </g>
    </g>
   </g>
  </g>
 </g>
 <defs>
  <clipPath id="p5264c27e86">
   <rect height="443.52" width="602.64" x="108" y="69.12"/>
  </clipPath>
 </defs>
</svg>
