<?xml version="1.0" encoding="utf-8" standalone="no"?>
<!DOCTYPE svg PUBLIC "-//W3C//DTD SVG 1.1//EN"
  "http://www.w3.org/Graphics/SVG/1.1/DTD/svg11.dtd">
<svg height="576pt" version="1.1" viewBox="0 0 864 576" width="864pt" xmlns="http://www.w3.org/2000/svg" xmlns:xlink="http://www.w3.org/1999/xlink">
 <metadata>
  <rdf:RDF xmlns:cc="http://creativecommons.org/ns#" xmlns:dc="http://purl.org/dc/elements/1.1/" xmlns:rdf="http://www.w3.org/1999/02/22-rdf-syntax-ns#">
   <cc:Work>
    <dc:type rdf:resource="http://purl.org/dc/dcmitype/StillImage"/>
    <dc:date>2021-09-11T10:25:05.817139</dc:date>
    <dc:format>image/svg+xml</dc:format>
    <dc:creator>
     <cc:Agent>
      <dc:title>Matplotlib v3.4.3, https://matplotlib.org/</dc:title>
     </cc:Agent>
    </dc:creator>
   </cc:Work>
  </rdf:RDF>
 </metadata>
 <defs>
  <style type="text/css">*{stroke-linecap:butt;stroke-linejoin:round;}</style>
 </defs>
 <g id="figure_1">
  <g id="patch_1">
   <path d="M 0 576 
L 864 576 
L 864 0 
L 0 0 
z
" style="fill:#ffffff;"/>
  </g>
  <g id="axes_1">
   <g id="patch_2">
    <path d="M 108 512.64 
L 710.64 512.64 
L 710.64 69.12 
L 108 69.12 
z
" style="fill:#ffffff;"/>
   </g>
   <g id="matplotlib.axis_1">
    <g id="xtick_1">
     <g id="line2d_1">
      <defs>
       <path d="M 0 0 
L 0 3.5 
" id="mc8cfe154f5" style="stroke:#000000;stroke-width:0.8;"/>
      </defs>
      <g>
       <use style="stroke:#000000;stroke-width:0.8;" x="135.392727" xlink:href="#mc8cfe154f5" y="512.64"/>
      </g>
     </g>
     <g id="text_1">
      <!-- $\mathdefault{10^{0}}$ -->
      <g transform="translate(123.072727 530.277812)scale(0.14 -0.14)">
       <defs>
        <path d="M 794 531 
L 1825 531 
L 1825 4091 
L 703 3866 
L 703 4441 
L 1819 4666 
L 2450 4666 
L 2450 531 
L 3481 531 
L 3481 0 
L 794 0 
L 794 531 
z
" id="DejaVuSans-31" transform="scale(0.015625)"/>
        <path d="M 2034 4250 
Q 1547 4250 1301 3770 
Q 1056 3291 1056 2328 
Q 1056 1369 1301 889 
Q 1547 409 2034 409 
Q 2525 409 2770 889 
Q 3016 1369 3016 2328 
Q 3016 3291 2770 3770 
Q 2525 4250 2034 4250 
z
M 2034 4750 
Q 2819 4750 3233 4129 
Q 3647 3509 3647 2328 
Q 3647 1150 3233 529 
Q 2819 -91 2034 -91 
Q 1250 -91 836 529 
Q 422 1150 422 2328 
Q 422 3509 836 4129 
Q 1250 4750 2034 4750 
z
" id="DejaVuSans-30" transform="scale(0.015625)"/>
       </defs>
       <use transform="translate(0 0.765625)" xlink:href="#DejaVuSans-31"/>
       <use transform="translate(63.623047 0.765625)" xlink:href="#DejaVuSans-30"/>
       <use transform="translate(128.203125 39.046875)scale(0.7)" xlink:href="#DejaVuSans-30"/>
      </g>
     </g>
    </g>
    <g id="xtick_2">
     <g id="line2d_2">
      <g>
       <use style="stroke:#000000;stroke-width:0.8;" x="338.444666" xlink:href="#mc8cfe154f5" y="512.64"/>
      </g>
     </g>
     <g id="text_2">
      <!-- $\mathdefault{10^{1}}$ -->
      <g transform="translate(326.124666 530.277812)scale(0.14 -0.14)">
       <use transform="translate(0 0.684375)" xlink:href="#DejaVuSans-31"/>
       <use transform="translate(63.623047 0.684375)" xlink:href="#DejaVuSans-30"/>
       <use transform="translate(128.203125 38.965625)scale(0.7)" xlink:href="#DejaVuSans-31"/>
      </g>
     </g>
    </g>
    <g id="xtick_3">
     <g id="line2d_3">
      <g>
       <use style="stroke:#000000;stroke-width:0.8;" x="541.496604" xlink:href="#mc8cfe154f5" y="512.64"/>
      </g>
     </g>
     <g id="text_3">
      <!-- $\mathdefault{10^{2}}$ -->
      <g transform="translate(529.176604 530.277812)scale(0.14 -0.14)">
       <defs>
        <path d="M 1228 531 
L 3431 531 
L 3431 0 
L 469 0 
L 469 531 
Q 828 903 1448 1529 
Q 2069 2156 2228 2338 
Q 2531 2678 2651 2914 
Q 2772 3150 2772 3378 
Q 2772 3750 2511 3984 
Q 2250 4219 1831 4219 
Q 1534 4219 1204 4116 
Q 875 4013 500 3803 
L 500 4441 
Q 881 4594 1212 4672 
Q 1544 4750 1819 4750 
Q 2544 4750 2975 4387 
Q 3406 4025 3406 3419 
Q 3406 3131 3298 2873 
Q 3191 2616 2906 2266 
Q 2828 2175 2409 1742 
Q 1991 1309 1228 531 
z
" id="DejaVuSans-32" transform="scale(0.015625)"/>
       </defs>
       <use transform="translate(0 0.765625)" xlink:href="#DejaVuSans-31"/>
       <use transform="translate(63.623047 0.765625)" xlink:href="#DejaVuSans-30"/>
       <use transform="translate(128.203125 39.046875)scale(0.7)" xlink:href="#DejaVuSans-32"/>
      </g>
     </g>
    </g>
    <g id="xtick_4">
     <g id="line2d_4">
      <defs>
       <path d="M 0 0 
L 0 2 
" id="mddfe06b8b2" style="stroke:#000000;stroke-width:0.6;"/>
      </defs>
      <g>
       <use style="stroke:#000000;stroke-width:0.6;" x="115.714961" xlink:href="#mddfe06b8b2" y="512.64"/>
      </g>
     </g>
    </g>
    <g id="xtick_5">
     <g id="line2d_5">
      <g>
       <use style="stroke:#000000;stroke-width:0.6;" x="126.10158" xlink:href="#mddfe06b8b2" y="512.64"/>
      </g>
     </g>
    </g>
    <g id="xtick_6">
     <g id="line2d_6">
      <g>
       <use style="stroke:#000000;stroke-width:0.6;" x="196.517451" xlink:href="#mddfe06b8b2" y="512.64"/>
      </g>
     </g>
    </g>
    <g id="xtick_7">
     <g id="line2d_7">
      <g>
       <use style="stroke:#000000;stroke-width:0.6;" x="232.273123" xlink:href="#mddfe06b8b2" y="512.64"/>
      </g>
     </g>
    </g>
    <g id="xtick_8">
     <g id="line2d_8">
      <g>
       <use style="stroke:#000000;stroke-width:0.6;" x="257.642175" xlink:href="#mddfe06b8b2" y="512.64"/>
      </g>
     </g>
    </g>
    <g id="xtick_9">
     <g id="line2d_9">
      <g>
       <use style="stroke:#000000;stroke-width:0.6;" x="277.319941" xlink:href="#mddfe06b8b2" y="512.64"/>
      </g>
     </g>
    </g>
    <g id="xtick_10">
     <g id="line2d_10">
      <g>
       <use style="stroke:#000000;stroke-width:0.6;" x="293.397847" xlink:href="#mddfe06b8b2" y="512.64"/>
      </g>
     </g>
    </g>
    <g id="xtick_11">
     <g id="line2d_11">
      <g>
       <use style="stroke:#000000;stroke-width:0.6;" x="306.991522" xlink:href="#mddfe06b8b2" y="512.64"/>
      </g>
     </g>
    </g>
    <g id="xtick_12">
     <g id="line2d_12">
      <g>
       <use style="stroke:#000000;stroke-width:0.6;" x="318.7669" xlink:href="#mddfe06b8b2" y="512.64"/>
      </g>
     </g>
    </g>
    <g id="xtick_13">
     <g id="line2d_13">
      <g>
       <use style="stroke:#000000;stroke-width:0.6;" x="329.153518" xlink:href="#mddfe06b8b2" y="512.64"/>
      </g>
     </g>
    </g>
    <g id="xtick_14">
     <g id="line2d_14">
      <g>
       <use style="stroke:#000000;stroke-width:0.6;" x="399.56939" xlink:href="#mddfe06b8b2" y="512.64"/>
      </g>
     </g>
    </g>
    <g id="xtick_15">
     <g id="line2d_15">
      <g>
       <use style="stroke:#000000;stroke-width:0.6;" x="435.325061" xlink:href="#mddfe06b8b2" y="512.64"/>
      </g>
     </g>
    </g>
    <g id="xtick_16">
     <g id="line2d_16">
      <g>
       <use style="stroke:#000000;stroke-width:0.6;" x="460.694114" xlink:href="#mddfe06b8b2" y="512.64"/>
      </g>
     </g>
    </g>
    <g id="xtick_17">
     <g id="line2d_17">
      <g>
       <use style="stroke:#000000;stroke-width:0.6;" x="480.37188" xlink:href="#mddfe06b8b2" y="512.64"/>
      </g>
     </g>
    </g>
    <g id="xtick_18">
     <g id="line2d_18">
      <g>
       <use style="stroke:#000000;stroke-width:0.6;" x="496.449785" xlink:href="#mddfe06b8b2" y="512.64"/>
      </g>
     </g>
    </g>
    <g id="xtick_19">
     <g id="line2d_19">
      <g>
       <use style="stroke:#000000;stroke-width:0.6;" x="510.043461" xlink:href="#mddfe06b8b2" y="512.64"/>
      </g>
     </g>
    </g>
    <g id="xtick_20">
     <g id="line2d_20">
      <g>
       <use style="stroke:#000000;stroke-width:0.6;" x="521.818838" xlink:href="#mddfe06b8b2" y="512.64"/>
      </g>
     </g>
    </g>
    <g id="xtick_21">
     <g id="line2d_21">
      <g>
       <use style="stroke:#000000;stroke-width:0.6;" x="532.205457" xlink:href="#mddfe06b8b2" y="512.64"/>
      </g>
     </g>
    </g>
    <g id="xtick_22">
     <g id="line2d_22">
      <g>
       <use style="stroke:#000000;stroke-width:0.6;" x="602.621328" xlink:href="#mddfe06b8b2" y="512.64"/>
      </g>
     </g>
    </g>
    <g id="xtick_23">
     <g id="line2d_23">
      <g>
       <use style="stroke:#000000;stroke-width:0.6;" x="638.376999" xlink:href="#mddfe06b8b2" y="512.64"/>
      </g>
     </g>
    </g>
    <g id="xtick_24">
     <g id="line2d_24">
      <g>
       <use style="stroke:#000000;stroke-width:0.6;" x="663.746052" xlink:href="#mddfe06b8b2" y="512.64"/>
      </g>
     </g>
    </g>
    <g id="xtick_25">
     <g id="line2d_25">
      <g>
       <use style="stroke:#000000;stroke-width:0.6;" x="683.423818" xlink:href="#mddfe06b8b2" y="512.64"/>
      </g>
     </g>
    </g>
    <g id="xtick_26">
     <g id="line2d_26">
      <g>
       <use style="stroke:#000000;stroke-width:0.6;" x="699.501723" xlink:href="#mddfe06b8b2" y="512.64"/>
      </g>
     </g>
    </g>
    <g id="text_4">
     <!-- Episodes (log scale) -->
     <g transform="translate(339.560625 547.827188)scale(0.14 -0.14)">
      <defs>
       <path d="M 628 4666 
L 3578 4666 
L 3578 4134 
L 1259 4134 
L 1259 2753 
L 3481 2753 
L 3481 2222 
L 1259 2222 
L 1259 531 
L 3634 531 
L 3634 0 
L 628 0 
L 628 4666 
z
" id="DejaVuSans-45" transform="scale(0.015625)"/>
       <path d="M 1159 525 
L 1159 -1331 
L 581 -1331 
L 581 3500 
L 1159 3500 
L 1159 2969 
Q 1341 3281 1617 3432 
Q 1894 3584 2278 3584 
Q 2916 3584 3314 3078 
Q 3713 2572 3713 1747 
Q 3713 922 3314 415 
Q 2916 -91 2278 -91 
Q 1894 -91 1617 61 
Q 1341 213 1159 525 
z
M 3116 1747 
Q 3116 2381 2855 2742 
Q 2594 3103 2138 3103 
Q 1681 3103 1420 2742 
Q 1159 2381 1159 1747 
Q 1159 1113 1420 752 
Q 1681 391 2138 391 
Q 2594 391 2855 752 
Q 3116 1113 3116 1747 
z
" id="DejaVuSans-70" transform="scale(0.015625)"/>
       <path d="M 603 3500 
L 1178 3500 
L 1178 0 
L 603 0 
L 603 3500 
z
M 603 4863 
L 1178 4863 
L 1178 4134 
L 603 4134 
L 603 4863 
z
" id="DejaVuSans-69" transform="scale(0.015625)"/>
       <path d="M 2834 3397 
L 2834 2853 
Q 2591 2978 2328 3040 
Q 2066 3103 1784 3103 
Q 1356 3103 1142 2972 
Q 928 2841 928 2578 
Q 928 2378 1081 2264 
Q 1234 2150 1697 2047 
L 1894 2003 
Q 2506 1872 2764 1633 
Q 3022 1394 3022 966 
Q 3022 478 2636 193 
Q 2250 -91 1575 -91 
Q 1294 -91 989 -36 
Q 684 19 347 128 
L 347 722 
Q 666 556 975 473 
Q 1284 391 1588 391 
Q 1994 391 2212 530 
Q 2431 669 2431 922 
Q 2431 1156 2273 1281 
Q 2116 1406 1581 1522 
L 1381 1569 
Q 847 1681 609 1914 
Q 372 2147 372 2553 
Q 372 3047 722 3315 
Q 1072 3584 1716 3584 
Q 2034 3584 2315 3537 
Q 2597 3491 2834 3397 
z
" id="DejaVuSans-73" transform="scale(0.015625)"/>
       <path d="M 1959 3097 
Q 1497 3097 1228 2736 
Q 959 2375 959 1747 
Q 959 1119 1226 758 
Q 1494 397 1959 397 
Q 2419 397 2687 759 
Q 2956 1122 2956 1747 
Q 2956 2369 2687 2733 
Q 2419 3097 1959 3097 
z
M 1959 3584 
Q 2709 3584 3137 3096 
Q 3566 2609 3566 1747 
Q 3566 888 3137 398 
Q 2709 -91 1959 -91 
Q 1206 -91 779 398 
Q 353 888 353 1747 
Q 353 2609 779 3096 
Q 1206 3584 1959 3584 
z
" id="DejaVuSans-6f" transform="scale(0.015625)"/>
       <path d="M 2906 2969 
L 2906 4863 
L 3481 4863 
L 3481 0 
L 2906 0 
L 2906 525 
Q 2725 213 2448 61 
Q 2172 -91 1784 -91 
Q 1150 -91 751 415 
Q 353 922 353 1747 
Q 353 2572 751 3078 
Q 1150 3584 1784 3584 
Q 2172 3584 2448 3432 
Q 2725 3281 2906 2969 
z
M 947 1747 
Q 947 1113 1208 752 
Q 1469 391 1925 391 
Q 2381 391 2643 752 
Q 2906 1113 2906 1747 
Q 2906 2381 2643 2742 
Q 2381 3103 1925 3103 
Q 1469 3103 1208 2742 
Q 947 2381 947 1747 
z
" id="DejaVuSans-64" transform="scale(0.015625)"/>
       <path d="M 3597 1894 
L 3597 1613 
L 953 1613 
Q 991 1019 1311 708 
Q 1631 397 2203 397 
Q 2534 397 2845 478 
Q 3156 559 3463 722 
L 3463 178 
Q 3153 47 2828 -22 
Q 2503 -91 2169 -91 
Q 1331 -91 842 396 
Q 353 884 353 1716 
Q 353 2575 817 3079 
Q 1281 3584 2069 3584 
Q 2775 3584 3186 3129 
Q 3597 2675 3597 1894 
z
M 3022 2063 
Q 3016 2534 2758 2815 
Q 2500 3097 2075 3097 
Q 1594 3097 1305 2825 
Q 1016 2553 972 2059 
L 3022 2063 
z
" id="DejaVuSans-65" transform="scale(0.015625)"/>
       <path id="DejaVuSans-20" transform="scale(0.015625)"/>
       <path d="M 1984 4856 
Q 1566 4138 1362 3434 
Q 1159 2731 1159 2009 
Q 1159 1288 1364 580 
Q 1569 -128 1984 -844 
L 1484 -844 
Q 1016 -109 783 600 
Q 550 1309 550 2009 
Q 550 2706 781 3412 
Q 1013 4119 1484 4856 
L 1984 4856 
z
" id="DejaVuSans-28" transform="scale(0.015625)"/>
       <path d="M 603 4863 
L 1178 4863 
L 1178 0 
L 603 0 
L 603 4863 
z
" id="DejaVuSans-6c" transform="scale(0.015625)"/>
       <path d="M 2906 1791 
Q 2906 2416 2648 2759 
Q 2391 3103 1925 3103 
Q 1463 3103 1205 2759 
Q 947 2416 947 1791 
Q 947 1169 1205 825 
Q 1463 481 1925 481 
Q 2391 481 2648 825 
Q 2906 1169 2906 1791 
z
M 3481 434 
Q 3481 -459 3084 -895 
Q 2688 -1331 1869 -1331 
Q 1566 -1331 1297 -1286 
Q 1028 -1241 775 -1147 
L 775 -588 
Q 1028 -725 1275 -790 
Q 1522 -856 1778 -856 
Q 2344 -856 2625 -561 
Q 2906 -266 2906 331 
L 2906 616 
Q 2728 306 2450 153 
Q 2172 0 1784 0 
Q 1141 0 747 490 
Q 353 981 353 1791 
Q 353 2603 747 3093 
Q 1141 3584 1784 3584 
Q 2172 3584 2450 3431 
Q 2728 3278 2906 2969 
L 2906 3500 
L 3481 3500 
L 3481 434 
z
" id="DejaVuSans-67" transform="scale(0.015625)"/>
       <path d="M 3122 3366 
L 3122 2828 
Q 2878 2963 2633 3030 
Q 2388 3097 2138 3097 
Q 1578 3097 1268 2742 
Q 959 2388 959 1747 
Q 959 1106 1268 751 
Q 1578 397 2138 397 
Q 2388 397 2633 464 
Q 2878 531 3122 666 
L 3122 134 
Q 2881 22 2623 -34 
Q 2366 -91 2075 -91 
Q 1284 -91 818 406 
Q 353 903 353 1747 
Q 353 2603 823 3093 
Q 1294 3584 2113 3584 
Q 2378 3584 2631 3529 
Q 2884 3475 3122 3366 
z
" id="DejaVuSans-63" transform="scale(0.015625)"/>
       <path d="M 2194 1759 
Q 1497 1759 1228 1600 
Q 959 1441 959 1056 
Q 959 750 1161 570 
Q 1363 391 1709 391 
Q 2188 391 2477 730 
Q 2766 1069 2766 1631 
L 2766 1759 
L 2194 1759 
z
M 3341 1997 
L 3341 0 
L 2766 0 
L 2766 531 
Q 2569 213 2275 61 
Q 1981 -91 1556 -91 
Q 1019 -91 701 211 
Q 384 513 384 1019 
Q 384 1609 779 1909 
Q 1175 2209 1959 2209 
L 2766 2209 
L 2766 2266 
Q 2766 2663 2505 2880 
Q 2244 3097 1772 3097 
Q 1472 3097 1187 3025 
Q 903 2953 641 2809 
L 641 3341 
Q 956 3463 1253 3523 
Q 1550 3584 1831 3584 
Q 2591 3584 2966 3190 
Q 3341 2797 3341 1997 
z
" id="DejaVuSans-61" transform="scale(0.015625)"/>
       <path d="M 513 4856 
L 1013 4856 
Q 1481 4119 1714 3412 
Q 1947 2706 1947 2009 
Q 1947 1309 1714 600 
Q 1481 -109 1013 -844 
L 513 -844 
Q 928 -128 1133 580 
Q 1338 1288 1338 2009 
Q 1338 2731 1133 3434 
Q 928 4138 513 4856 
z
" id="DejaVuSans-29" transform="scale(0.015625)"/>
      </defs>
      <use xlink:href="#DejaVuSans-45"/>
      <use x="63.183594" xlink:href="#DejaVuSans-70"/>
      <use x="126.660156" xlink:href="#DejaVuSans-69"/>
      <use x="154.443359" xlink:href="#DejaVuSans-73"/>
      <use x="206.542969" xlink:href="#DejaVuSans-6f"/>
      <use x="267.724609" xlink:href="#DejaVuSans-64"/>
      <use x="331.201172" xlink:href="#DejaVuSans-65"/>
      <use x="392.724609" xlink:href="#DejaVuSans-73"/>
      <use x="444.824219" xlink:href="#DejaVuSans-20"/>
      <use x="476.611328" xlink:href="#DejaVuSans-28"/>
      <use x="515.625" xlink:href="#DejaVuSans-6c"/>
      <use x="543.408203" xlink:href="#DejaVuSans-6f"/>
      <use x="604.589844" xlink:href="#DejaVuSans-67"/>
      <use x="668.066406" xlink:href="#DejaVuSans-20"/>
      <use x="699.853516" xlink:href="#DejaVuSans-73"/>
      <use x="751.953125" xlink:href="#DejaVuSans-63"/>
      <use x="806.933594" xlink:href="#DejaVuSans-61"/>
      <use x="868.212891" xlink:href="#DejaVuSans-6c"/>
      <use x="895.996094" xlink:href="#DejaVuSans-65"/>
      <use x="957.519531" xlink:href="#DejaVuSans-29"/>
     </g>
    </g>
   </g>
   <g id="matplotlib.axis_2">
    <g id="ytick_1">
     <g id="line2d_27">
      <defs>
       <path d="M 0 0 
L -3.5 0 
" id="mbddd9a8a48" style="stroke:#000000;stroke-width:0.8;"/>
      </defs>
      <g>
       <use style="stroke:#000000;stroke-width:0.8;" x="108" xlink:href="#mbddd9a8a48" y="502.707922"/>
      </g>
     </g>
     <g id="text_5">
      <!-- 0.0 -->
      <g transform="translate(78.735625 508.026829)scale(0.14 -0.14)">
       <defs>
        <path d="M 684 794 
L 1344 794 
L 1344 0 
L 684 0 
L 684 794 
z
" id="DejaVuSans-2e" transform="scale(0.015625)"/>
       </defs>
       <use xlink:href="#DejaVuSans-30"/>
       <use x="63.623047" xlink:href="#DejaVuSans-2e"/>
       <use x="95.410156" xlink:href="#DejaVuSans-30"/>
      </g>
     </g>
    </g>
    <g id="ytick_2">
     <g id="line2d_28">
      <g>
       <use style="stroke:#000000;stroke-width:0.8;" x="108" xlink:href="#mbddd9a8a48" y="407.137335"/>
      </g>
     </g>
     <g id="text_6">
      <!-- 0.2 -->
      <g transform="translate(78.735625 412.456241)scale(0.14 -0.14)">
       <use xlink:href="#DejaVuSans-30"/>
       <use x="63.623047" xlink:href="#DejaVuSans-2e"/>
       <use x="95.410156" xlink:href="#DejaVuSans-32"/>
      </g>
     </g>
    </g>
    <g id="ytick_3">
     <g id="line2d_29">
      <g>
       <use style="stroke:#000000;stroke-width:0.8;" x="108" xlink:href="#mbddd9a8a48" y="311.566747"/>
      </g>
     </g>
     <g id="text_7">
      <!-- 0.4 -->
      <g transform="translate(78.735625 316.885653)scale(0.14 -0.14)">
       <defs>
        <path d="M 2419 4116 
L 825 1625 
L 2419 1625 
L 2419 4116 
z
M 2253 4666 
L 3047 4666 
L 3047 1625 
L 3713 1625 
L 3713 1100 
L 3047 1100 
L 3047 0 
L 2419 0 
L 2419 1100 
L 313 1100 
L 313 1709 
L 2253 4666 
z
" id="DejaVuSans-34" transform="scale(0.015625)"/>
       </defs>
       <use xlink:href="#DejaVuSans-30"/>
       <use x="63.623047" xlink:href="#DejaVuSans-2e"/>
       <use x="95.410156" xlink:href="#DejaVuSans-34"/>
      </g>
     </g>
    </g>
    <g id="ytick_4">
     <g id="line2d_30">
      <g>
       <use style="stroke:#000000;stroke-width:0.8;" x="108" xlink:href="#mbddd9a8a48" y="215.996159"/>
      </g>
     </g>
     <g id="text_8">
      <!-- 0.6 -->
      <g transform="translate(78.735625 221.315065)scale(0.14 -0.14)">
       <defs>
        <path d="M 2113 2584 
Q 1688 2584 1439 2293 
Q 1191 2003 1191 1497 
Q 1191 994 1439 701 
Q 1688 409 2113 409 
Q 2538 409 2786 701 
Q 3034 994 3034 1497 
Q 3034 2003 2786 2293 
Q 2538 2584 2113 2584 
z
M 3366 4563 
L 3366 3988 
Q 3128 4100 2886 4159 
Q 2644 4219 2406 4219 
Q 1781 4219 1451 3797 
Q 1122 3375 1075 2522 
Q 1259 2794 1537 2939 
Q 1816 3084 2150 3084 
Q 2853 3084 3261 2657 
Q 3669 2231 3669 1497 
Q 3669 778 3244 343 
Q 2819 -91 2113 -91 
Q 1303 -91 875 529 
Q 447 1150 447 2328 
Q 447 3434 972 4092 
Q 1497 4750 2381 4750 
Q 2619 4750 2861 4703 
Q 3103 4656 3366 4563 
z
" id="DejaVuSans-36" transform="scale(0.015625)"/>
       </defs>
       <use xlink:href="#DejaVuSans-30"/>
       <use x="63.623047" xlink:href="#DejaVuSans-2e"/>
       <use x="95.410156" xlink:href="#DejaVuSans-36"/>
      </g>
     </g>
    </g>
    <g id="ytick_5">
     <g id="line2d_31">
      <g>
       <use style="stroke:#000000;stroke-width:0.8;" x="108" xlink:href="#mbddd9a8a48" y="120.425571"/>
      </g>
     </g>
     <g id="text_9">
      <!-- 0.8 -->
      <g transform="translate(78.735625 125.744477)scale(0.14 -0.14)">
       <defs>
        <path d="M 2034 2216 
Q 1584 2216 1326 1975 
Q 1069 1734 1069 1313 
Q 1069 891 1326 650 
Q 1584 409 2034 409 
Q 2484 409 2743 651 
Q 3003 894 3003 1313 
Q 3003 1734 2745 1975 
Q 2488 2216 2034 2216 
z
M 1403 2484 
Q 997 2584 770 2862 
Q 544 3141 544 3541 
Q 544 4100 942 4425 
Q 1341 4750 2034 4750 
Q 2731 4750 3128 4425 
Q 3525 4100 3525 3541 
Q 3525 3141 3298 2862 
Q 3072 2584 2669 2484 
Q 3125 2378 3379 2068 
Q 3634 1759 3634 1313 
Q 3634 634 3220 271 
Q 2806 -91 2034 -91 
Q 1263 -91 848 271 
Q 434 634 434 1313 
Q 434 1759 690 2068 
Q 947 2378 1403 2484 
z
M 1172 3481 
Q 1172 3119 1398 2916 
Q 1625 2713 2034 2713 
Q 2441 2713 2670 2916 
Q 2900 3119 2900 3481 
Q 2900 3844 2670 4047 
Q 2441 4250 2034 4250 
Q 1625 4250 1398 4047 
Q 1172 3844 1172 3481 
z
" id="DejaVuSans-38" transform="scale(0.015625)"/>
       </defs>
       <use xlink:href="#DejaVuSans-30"/>
       <use x="63.623047" xlink:href="#DejaVuSans-2e"/>
       <use x="95.410156" xlink:href="#DejaVuSans-38"/>
      </g>
     </g>
    </g>
    <g id="text_10">
     <!-- State-Value Function -->
     <g transform="translate(71.824062 362.742656)rotate(-90)scale(0.14 -0.14)">
      <defs>
       <path d="M 3425 4513 
L 3425 3897 
Q 3066 4069 2747 4153 
Q 2428 4238 2131 4238 
Q 1616 4238 1336 4038 
Q 1056 3838 1056 3469 
Q 1056 3159 1242 3001 
Q 1428 2844 1947 2747 
L 2328 2669 
Q 3034 2534 3370 2195 
Q 3706 1856 3706 1288 
Q 3706 609 3251 259 
Q 2797 -91 1919 -91 
Q 1588 -91 1214 -16 
Q 841 59 441 206 
L 441 856 
Q 825 641 1194 531 
Q 1563 422 1919 422 
Q 2459 422 2753 634 
Q 3047 847 3047 1241 
Q 3047 1584 2836 1778 
Q 2625 1972 2144 2069 
L 1759 2144 
Q 1053 2284 737 2584 
Q 422 2884 422 3419 
Q 422 4038 858 4394 
Q 1294 4750 2059 4750 
Q 2388 4750 2728 4690 
Q 3069 4631 3425 4513 
z
" id="DejaVuSans-53" transform="scale(0.015625)"/>
       <path d="M 1172 4494 
L 1172 3500 
L 2356 3500 
L 2356 3053 
L 1172 3053 
L 1172 1153 
Q 1172 725 1289 603 
Q 1406 481 1766 481 
L 2356 481 
L 2356 0 
L 1766 0 
Q 1100 0 847 248 
Q 594 497 594 1153 
L 594 3053 
L 172 3053 
L 172 3500 
L 594 3500 
L 594 4494 
L 1172 4494 
z
" id="DejaVuSans-74" transform="scale(0.015625)"/>
       <path d="M 313 2009 
L 1997 2009 
L 1997 1497 
L 313 1497 
L 313 2009 
z
" id="DejaVuSans-2d" transform="scale(0.015625)"/>
       <path d="M 1831 0 
L 50 4666 
L 709 4666 
L 2188 738 
L 3669 4666 
L 4325 4666 
L 2547 0 
L 1831 0 
z
" id="DejaVuSans-56" transform="scale(0.015625)"/>
       <path d="M 544 1381 
L 544 3500 
L 1119 3500 
L 1119 1403 
Q 1119 906 1312 657 
Q 1506 409 1894 409 
Q 2359 409 2629 706 
Q 2900 1003 2900 1516 
L 2900 3500 
L 3475 3500 
L 3475 0 
L 2900 0 
L 2900 538 
Q 2691 219 2414 64 
Q 2138 -91 1772 -91 
Q 1169 -91 856 284 
Q 544 659 544 1381 
z
M 1991 3584 
L 1991 3584 
z
" id="DejaVuSans-75" transform="scale(0.015625)"/>
       <path d="M 628 4666 
L 3309 4666 
L 3309 4134 
L 1259 4134 
L 1259 2759 
L 3109 2759 
L 3109 2228 
L 1259 2228 
L 1259 0 
L 628 0 
L 628 4666 
z
" id="DejaVuSans-46" transform="scale(0.015625)"/>
       <path d="M 3513 2113 
L 3513 0 
L 2938 0 
L 2938 2094 
Q 2938 2591 2744 2837 
Q 2550 3084 2163 3084 
Q 1697 3084 1428 2787 
Q 1159 2491 1159 1978 
L 1159 0 
L 581 0 
L 581 3500 
L 1159 3500 
L 1159 2956 
Q 1366 3272 1645 3428 
Q 1925 3584 2291 3584 
Q 2894 3584 3203 3211 
Q 3513 2838 3513 2113 
z
" id="DejaVuSans-6e" transform="scale(0.015625)"/>
      </defs>
      <use xlink:href="#DejaVuSans-53"/>
      <use x="63.476562" xlink:href="#DejaVuSans-74"/>
      <use x="102.685547" xlink:href="#DejaVuSans-61"/>
      <use x="163.964844" xlink:href="#DejaVuSans-74"/>
      <use x="203.173828" xlink:href="#DejaVuSans-65"/>
      <use x="264.697266" xlink:href="#DejaVuSans-2d"/>
      <use x="294.90625" xlink:href="#DejaVuSans-56"/>
      <use x="355.564453" xlink:href="#DejaVuSans-61"/>
      <use x="416.84375" xlink:href="#DejaVuSans-6c"/>
      <use x="444.626953" xlink:href="#DejaVuSans-75"/>
      <use x="508.005859" xlink:href="#DejaVuSans-65"/>
      <use x="569.529297" xlink:href="#DejaVuSans-20"/>
      <use x="601.316406" xlink:href="#DejaVuSans-46"/>
      <use x="653.335938" xlink:href="#DejaVuSans-75"/>
      <use x="716.714844" xlink:href="#DejaVuSans-6e"/>
      <use x="780.09375" xlink:href="#DejaVuSans-63"/>
      <use x="835.074219" xlink:href="#DejaVuSans-74"/>
      <use x="874.283203" xlink:href="#DejaVuSans-69"/>
      <use x="902.066406" xlink:href="#DejaVuSans-6f"/>
      <use x="963.248047" xlink:href="#DejaVuSans-6e"/>
     </g>
    </g>
   </g>
   <g id="line2d_32">
    <path clip-path="url(#pc4c406aa0a)" d="M -1 444.560982 
L 135.392727 444.528773 
L 196.517451 448.102076 
L 232.273123 458.136233 
L 257.642175 453.888692 
L 277.319941 431.834686 
L 293.397847 435.63192 
L 306.991522 451.420693 
L 318.7669 456.094017 
L 329.153518 448.404559 
L 338.444666 434.000279 
L 346.849531 419.69604 
L 354.522571 418.522167 
L 361.581084 420.258311 
L 368.116246 424.390789 
L 374.200337 416.285681 
L 379.891624 399.234607 
L 385.237766 398.133406 
L 390.278242 370.976315 
L 395.046125 395.924656 
L 399.56939 410.506305 
L 403.871918 402.78937 
L 407.974255 415.048133 
L 411.894204 425.629175 
L 415.647295 410.135225 
L 419.247156 408.197705 
L 422.705808 413.914658 
L 426.033914 404.777915 
L 429.240971 409.614125 
L 432.335475 421.235401 
L 435.325061 433.293276 
L 438.21661 432.443485 
L 441.016348 417.258238 
L 443.729926 438.612187 
L 446.36249 437.087087 
L 448.918737 435.409481 
L 451.402967 421.409261 
L 453.819127 419.771794 
L 456.170849 425.894765 
L 458.46148 434.411298 
L 460.694114 448.461523 
L 462.871615 447.36947 
L 464.996642 432.894375 
L 467.071663 439.355765 
L 469.098979 431.793329 
L 471.080733 431.12293 
L 473.018928 423.114345 
L 474.915438 427.187979 
L 476.772019 429.327545 
L 478.590317 421.210426 
L 480.37188 421.963531 
L 482.118161 428.887402 
L 483.830532 418.384677 
L 485.510285 426.077643 
L 487.158638 418.531964 
L 488.776745 422.702199 
L 490.365695 418.587759 
L 491.92652 429.828778 
L 493.460199 434.352941 
L 494.967661 431.232142 
L 496.449785 427.262735 
L 497.907411 436.405814 
L 499.341334 421.2176 
L 500.752313 415.002504 
L 502.141072 423.711939 
L 503.508298 420.143816 
L 504.85465 425.745476 
L 506.180755 426.409021 
L 507.487214 430.971022 
L 508.774599 424.555493 
L 510.043461 421.908462 
L 511.294323 426.762131 
L 512.527691 428.507992 
L 513.744046 421.683527 
L 514.943851 419.656102 
L 516.127551 430.911878 
L 517.295573 434.74789 
L 518.448326 433.201613 
L 519.586204 434.62144 
L 520.709586 433.914329 
L 521.818838 434.828701 
L 522.91431 432.102239 
L 525.065254 436.569332 
L 526.121366 433.818733 
L 527.16498 435.310891 
L 528.196387 438.034916 
L 529.215871 434.406282 
L 530.223703 432.21377 
L 531.220147 438.207872 
L 533.179879 448.074037 
L 535.097005 442.960446 
L 536.040162 441.516815 
L 536.973339 431.277766 
L 537.896743 429.377473 
L 538.810579 431.790707 
L 539.715041 434.619092 
L 540.610322 431.265853 
L 541.496604 426.860835 
L 542.374067 429.111106 
L 543.242885 425.49312 
L 544.103227 427.34903 
L 544.955256 425.862022 
L 545.799132 425.315281 
L 546.635009 425.8528 
L 547.463037 431.018575 
L 548.283362 424.63259 
L 549.096127 421.988476 
L 549.901469 421.999608 
L 550.699523 421.63612 
L 551.490419 416.666632 
L 552.274285 416.261325 
L 553.051244 419.5201 
L 553.821418 420.702302 
L 554.584923 418.179771 
L 555.341875 419.435806 
L 556.092385 419.824373 
L 556.836561 419.458644 
L 557.574509 416.259162 
L 558.306334 421.335168 
L 559.032135 412.582736 
L 559.752011 414.793819 
L 560.466058 417.487325 
L 561.17437 420.810544 
L 561.877038 421.349038 
L 562.574151 419.825949 
L 563.265796 419.558241 
L 563.952059 422.993465 
L 564.633022 423.208533 
L 565.979374 426.502686 
L 566.64492 427.685068 
L 567.305479 429.375923 
L 567.961128 431.92321 
L 568.611938 431.770103 
L 569.25798 432.672106 
L 569.899323 432.980654 
L 570.536036 434.501129 
L 571.168185 432.805749 
L 571.795834 430.173348 
L 572.419047 430.981306 
L 573.037887 432.224146 
L 573.652415 431.412781 
L 574.262689 433.538395 
L 574.86877 434.121199 
L 575.470713 435.978687 
L 576.068575 435.159336 
L 576.662411 433.915194 
L 577.252275 434.042411 
L 577.83822 434.997228 
L 578.420297 434.852978 
L 578.998557 432.476859 
L 579.57305 427.989784 
L 580.143824 428.271533 
L 580.710928 428.890351 
L 581.274408 427.77055 
L 581.83431 428.755241 
L 582.39068 431.054106 
L 582.943562 430.799341 
L 583.492999 430.172402 
L 584.039034 431.285944 
L 584.581708 430.644171 
L 585.121064 427.56727 
L 585.65714 428.432854 
L 586.189978 427.781483 
L 586.719615 429.005942 
L 587.769441 433.045776 
L 588.289704 430.766385 
L 588.806916 429.837567 
L 589.321111 429.808971 
L 589.832326 431.532522 
L 590.340595 429.331496 
L 590.845951 428.592331 
L 591.348427 428.981554 
L 591.848056 427.478454 
L 592.344871 428.61579 
L 593.330181 430.302464 
L 593.818738 430.251761 
L 594.787806 430.665025 
L 595.268376 430.656233 
L 595.746341 430.481514 
L 596.22173 429.936643 
L 596.694569 428.649129 
L 597.164887 429.230403 
L 597.632709 428.654897 
L 598.098063 428.36805 
L 598.560974 428.569632 
L 599.021467 428.942449 
L 599.935303 427.452414 
L 600.388694 427.470268 
L 601.288542 426.936861 
L 601.735046 425.892169 
L 602.1793 426.504075 
L 602.621328 425.542597 
L 603.061151 424.973785 
L 603.498791 426.042145 
L 604.79883 424.694368 
L 605.227951 423.786782 
L 605.654995 424.65682 
L 606.07998 424.915785 
L 606.923856 426.093837 
L 607.342785 426.126789 
L 607.759733 426.471172 
L 608.587761 426.185105 
L 608.998877 426.206021 
L 609.408086 426.679933 
L 609.815405 426.845109 
L 610.220851 426.368387 
L 610.624441 426.54731 
L 611.026193 426.167976 
L 611.426123 427.172994 
L 611.824247 426.740452 
L 612.220581 427.464491 
L 612.615143 427.48617 
L 613.007947 428.035132 
L 613.788344 428.5836 
L 614.175968 428.263143 
L 614.561896 428.121483 
L 614.946142 428.230904 
L 615.328721 427.781139 
L 615.709648 428.505239 
L 616.088936 427.51707 
L 616.466599 426.911483 
L 617.217109 427.363355 
L 617.589982 427.443024 
L 617.961285 427.285219 
L 618.331031 427.400097 
L 618.699233 427.65427 
L 619.431058 427.677104 
L 620.517532 428.501569 
L 620.876735 429.15111 
L 621.234481 428.971632 
L 621.590782 429.135241 
L 621.945649 429.481371 
L 622.651128 429.329037 
L 623.351007 428.750025 
L 623.698875 428.749185 
L 624.39052 428.37485 
L 624.734319 427.274174 
L 625.076783 427.430127 
L 625.417922 427.225462 
L 625.757746 427.418215 
L 626.096266 427.389588 
L 626.433492 427.527883 
L 626.769433 427.493339 
L 627.437499 428.064076 
L 627.769644 427.228215 
L 628.430204 427.635448 
L 628.758637 427.712223 
L 629.085852 428.302616 
L 629.411858 428.077303 
L 629.736662 428.046936 
L 630.060275 427.856809 
L 630.382704 427.520794 
L 630.703959 427.893846 
L 631.024048 427.916972 
L 631.342979 428.18958 
L 631.977401 428.456675 
L 632.292909 428.900004 
L 632.607292 428.410019 
L 633.543771 428.413159 
L 634.777139 428.639938 
L 635.387414 428.051363 
L 635.690974 428.408037 
L 635.993494 427.890379 
L 636.595437 428.188442 
L 636.894875 428.142657 
L 637.193299 428.297302 
L 637.490717 428.735478 
L 637.787135 428.610539 
L 638.082561 428.304077 
L 638.376999 428.47426 
L 638.962944 428.146105 
L 639.254463 428.25509 
L 640.123281 429.019071 
L 640.410995 428.828608 
L 640.697774 428.292177 
L 640.983623 428.296199 
L 641.268548 427.862742 
L 641.552556 428.189596 
L 641.835652 428.240604 
L 642.117842 427.937313 
L 642.679528 428.132431 
L 642.959034 428.414808 
L 643.237658 428.396565 
L 643.792279 428.770455 
L 644.068286 428.645329 
L 644.343432 428.933581 
L 644.891163 427.831916 
L 645.163758 428.091609 
L 645.435512 428.165023 
L 645.706432 428.589673 
L 645.976522 428.560171 
L 646.245788 428.715192 
L 646.514233 428.512566 
L 646.781864 428.503782 
L 647.048686 428.002961 
L 647.314702 428.413056 
L 647.579918 427.986999 
L 647.844339 427.166698 
L 648.10797 427.036227 
L 648.370814 427.368324 
L 648.632878 427.37631 
L 649.15468 427.22833 
L 649.414428 426.758209 
L 649.673413 426.945179 
L 649.93164 426.793945 
L 650.189112 427.130531 
L 650.701814 428.222688 
L 650.957051 427.953798 
L 651.465319 426.84699 
L 652.473151 427.699321 
L 652.723319 427.647225 
L 652.97278 427.756058 
L 653.221537 427.662762 
L 653.469595 428.051062 
L 653.716956 428.158841 
L 653.963626 428.082003 
L 654.209608 428.508106 
L 654.454905 428.540368 
L 654.699522 428.086089 
L 654.943462 428.087089 
L 655.429327 428.728421 
L 655.67126 428.645101 
L 655.91253 428.815932 
L 656.3931 428.791559 
L 656.871065 428.486298 
L 657.10908 428.75253 
L 657.346454 428.702591 
L 657.58319 427.779178 
L 657.819293 427.54006 
L 658.289611 428.452808 
L 658.523832 428.525149 
L 658.757433 429.064709 
L 658.990417 429.182019 
L 659.222787 429.60535 
L 659.685698 429.834903 
L 659.916245 429.860369 
L 660.604293 429.459665 
L 660.832454 428.586249 
L 661.060027 429.201989 
L 661.287014 429.048908 
L 661.513418 429.439095 
L 661.739242 429.020171 
L 661.96449 429.420942 
L 662.413266 429.741397 
L 662.6368 429.922488 
L 662.85977 430.251286 
L 663.082177 430.328881 
L 663.304024 430.65673 
L 663.525315 430.767662 
L 663.746052 430.64279 
L 663.966238 430.68457 
L 664.185875 431.392197 
L 664.404967 431.379222 
L 664.841524 432.101092 
L 665.058994 431.904225 
L 665.492334 430.453726 
L 665.708207 430.440994 
L 666.138376 430.742719 
L 666.352675 430.739292 
L 666.566456 430.480537 
L 666.779719 430.663734 
L 667.416432 429.557825 
L 667.627652 429.739331 
L 667.838367 429.2841 
L 668.04858 429.473377 
L 668.258293 429.298847 
L 668.467509 429.321673 
L 668.676229 429.848652 
L 669.506206 429.216183 
L 670.123602 429.974306 
L 670.328443 429.680471 
L 670.53281 430.097695 
L 670.736705 430.126772 
L 671.143085 428.772413 
L 671.547601 428.949112 
L 671.749165 428.899053 
L 671.95027 428.629455 
L 672.150917 428.577472 
L 672.351109 428.351807 
L 672.750133 428.508471 
L 672.948971 427.649978 
L 673.345305 428.101546 
L 673.542807 427.844602 
L 673.739867 428.062576 
L 673.936488 427.913722 
L 674.132671 427.94393 
L 674.523733 428.426037 
L 674.718615 428.421538 
L 674.913068 428.835425 
L 675.300692 428.531105 
L 675.493867 428.639905 
L 675.68662 428.347546 
L 675.878952 428.318399 
L 676.070866 428.705656 
L 676.262363 428.539075 
L 676.453445 427.493431 
L 676.644114 428.04983 
L 677.02422 427.089653 
L 677.21366 426.150194 
L 677.591323 426.962741 
L 677.77955 427.134802 
L 677.967377 426.837258 
L 678.341833 427.128782 
L 678.528467 427.193022 
L 678.900553 427.6438 
L 679.086009 427.461532 
L 679.271076 427.896316 
L 679.455755 427.858771 
L 679.640049 428.068806 
L 679.823958 428.59625 
L 680.007484 427.655181 
L 680.190629 427.767355 
L 680.737793 428.701389 
L 680.919429 428.377991 
L 681.281583 429.571913 
L 681.82204 429.430726 
L 682.537536 430.895494 
L 682.893118 430.593942 
L 683.070373 430.892355 
L 683.247273 430.60112 
L 683.247273 430.60112 
" style="fill:none;stroke:#1f77b4;stroke-linecap:square;stroke-width:2;"/>
   </g>
   <g id="line2d_33">
    <path clip-path="url(#pc4c406aa0a)" d="M -1 431.792533 
L 683.247273 431.792533 
L 683.247273 431.792533 
" style="fill:none;stroke:#000000;stroke-dasharray:7.4,3.2;stroke-dashoffset:0;stroke-width:2;"/>
   </g>
   <g id="line2d_34">
    <path clip-path="url(#pc4c406aa0a)" d="M -1 398.777426 
L 135.392727 398.735512 
L 196.517451 395.495623 
L 232.273123 399.533995 
L 257.642175 369.425781 
L 277.319941 375.995963 
L 293.397847 378.531858 
L 306.991522 380.53445 
L 318.7669 364.426385 
L 329.153518 340.311067 
L 338.444666 344.602853 
L 346.849531 309.621539 
L 354.522571 311.957917 
L 361.581084 347.389534 
L 368.116246 350.699079 
L 374.200337 339.214027 
L 379.891624 319.288977 
L 385.237766 325.74878 
L 390.278242 282.317372 
L 395.046125 327.267787 
L 399.56939 324.438777 
L 403.871918 328.869734 
L 407.974255 341.565405 
L 411.894204 337.858241 
L 415.647295 333.844563 
L 419.247156 327.977141 
L 422.705808 336.727705 
L 426.033914 326.246338 
L 429.240971 318.031342 
L 432.335475 342.133244 
L 435.325061 357.897744 
L 438.21661 344.078661 
L 441.016348 343.62792 
L 443.729926 355.371997 
L 446.36249 357.229182 
L 448.918737 359.515761 
L 451.402967 335.220766 
L 453.819127 340.948172 
L 456.170849 362.221202 
L 458.46148 370.121711 
L 460.694114 388.541153 
L 462.871615 376.28804 
L 464.996642 350.28909 
L 467.071663 353.98135 
L 469.098979 348.060626 
L 471.080733 346.006235 
L 473.018928 342.089402 
L 474.915438 341.678606 
L 476.772019 343.917315 
L 478.590317 337.293529 
L 480.37188 331.899783 
L 482.118161 342.94185 
L 483.830532 325.207301 
L 485.510285 333.94809 
L 487.158638 333.46139 
L 488.776745 348.569407 
L 490.365695 330.83327 
L 491.92652 358.354149 
L 493.460199 366.590685 
L 494.967661 363.434644 
L 496.449785 355.928056 
L 497.907411 358.533558 
L 499.341334 332.469787 
L 500.752313 325.85636 
L 502.141072 331.201268 
L 503.508298 343.168543 
L 506.180755 355.271132 
L 507.487214 355.910163 
L 508.774599 343.00128 
L 510.043461 342.024291 
L 511.294323 345.478362 
L 512.527691 354.064411 
L 513.744046 348.7902 
L 514.943851 347.510862 
L 516.127551 362.518437 
L 517.295573 371.003513 
L 518.448326 361.823482 
L 520.709586 356.372072 
L 521.818838 364.946255 
L 522.91431 358.682605 
L 523.99634 357.947584 
L 525.065254 364.786304 
L 526.121366 359.479954 
L 527.16498 355.45627 
L 528.196387 362.043186 
L 529.215871 350.513515 
L 530.223703 349.703359 
L 531.220147 364.342025 
L 532.205457 371.492702 
L 533.179879 387.012599 
L 535.097005 373.426145 
L 536.973339 347.805905 
L 537.896743 347.245679 
L 538.810579 354.193179 
L 539.715041 363.207793 
L 541.496604 342.302299 
L 542.374067 339.054518 
L 543.242885 339.471793 
L 544.103227 344.925355 
L 544.955256 347.687477 
L 545.799132 344.510713 
L 546.635009 342.551372 
L 547.463037 351.780108 
L 548.283362 346.84984 
L 549.096127 347.158884 
L 549.901469 341.984099 
L 550.699523 340.695989 
L 551.490419 337.302618 
L 552.274285 337.24265 
L 553.051244 344.007567 
L 553.821418 344.701198 
L 554.584923 337.781339 
L 556.092385 341.100563 
L 556.836561 344.07576 
L 557.574509 336.781357 
L 558.306334 347.021606 
L 559.032135 338.706285 
L 559.752011 342.123348 
L 561.17437 354.077888 
L 561.877038 350.585539 
L 562.574151 348.296915 
L 563.265796 347.353182 
L 563.952059 357.615153 
L 564.633022 357.032048 
L 565.308768 356.243399 
L 565.979374 361.329217 
L 566.64492 361.932266 
L 567.305479 358.721553 
L 567.961128 360.845373 
L 569.25798 363.55015 
L 569.899323 362.297143 
L 570.536036 369.552209 
L 571.168185 367.070237 
L 571.795834 360.818313 
L 572.419047 361.74818 
L 573.037887 363.75398 
L 573.652415 362.058719 
L 574.262689 368.572244 
L 574.86877 366.655347 
L 575.470713 369.198859 
L 576.068575 363.767747 
L 576.662411 360.655865 
L 577.252275 359.782851 
L 577.83822 362.30592 
L 578.420297 361.996996 
L 578.998557 359.802309 
L 579.57305 352.359587 
L 580.143824 354.39788 
L 580.710928 354.481194 
L 581.274408 352.550977 
L 581.83431 353.553373 
L 582.39068 363.873558 
L 582.943562 363.149437 
L 583.492999 364.650693 
L 584.039034 365.796479 
L 584.581708 362.450057 
L 585.121064 357.868513 
L 585.65714 356.733538 
L 586.189978 357.388484 
L 586.719615 357.497394 
L 587.24609 360.819174 
L 587.769441 366.632683 
L 588.289704 362.025724 
L 588.806916 360.706481 
L 589.321111 360.122962 
L 589.832326 363.348983 
L 590.340595 356.859437 
L 590.845951 358.259142 
L 591.348427 360.746618 
L 591.848056 357.515424 
L 592.344871 357.087366 
L 592.838902 359.104891 
L 593.330181 360.460414 
L 593.818738 360.564264 
L 594.787806 363.078381 
L 595.268376 363.677784 
L 595.746341 363.166617 
L 596.22173 360.72904 
L 596.694569 357.242438 
L 597.164887 357.214522 
L 598.098063 353.882648 
L 598.560974 355.277087 
L 599.021467 354.593788 
L 599.479569 353.6906 
L 599.935303 353.337592 
L 600.388694 353.256795 
L 600.839766 352.879757 
L 601.288542 352.089005 
L 601.735046 349.530462 
L 602.1793 348.980947 
L 602.621328 349.796857 
L 603.061151 349.551849 
L 603.498791 352.017603 
L 603.93427 351.524961 
L 604.79883 350.936044 
L 605.227951 349.827233 
L 605.654995 350.254743 
L 606.07998 349.562706 
L 606.502928 351.283687 
L 606.923856 352.057153 
L 607.342785 351.361784 
L 607.759733 351.264898 
L 608.174719 350.773687 
L 608.587761 350.891119 
L 608.998877 350.166419 
L 609.408086 350.012665 
L 609.815405 350.19223 
L 610.220851 350.010499 
L 610.624441 350.327886 
L 611.026193 348.945211 
L 611.426123 351.254223 
L 611.824247 350.479803 
L 612.220581 352.490476 
L 612.615143 352.034025 
L 613.399009 353.881865 
L 613.788344 353.862772 
L 614.561896 353.116248 
L 614.946142 354.154816 
L 615.328721 352.681093 
L 615.709648 354.230868 
L 616.088936 353.241783 
L 616.466599 351.772196 
L 616.842652 351.267145 
L 617.217109 352.163223 
L 617.589982 351.740475 
L 617.961285 351.696882 
L 618.331031 351.484001 
L 618.699233 352.158925 
L 619.065905 351.393017 
L 619.431058 351.163033 
L 619.794705 351.76411 
L 620.517532 351.966518 
L 620.876735 353.602383 
L 621.590782 353.765197 
L 621.945649 354.20585 
L 622.299094 353.931264 
L 622.651128 354.555883 
L 623.001762 354.580486 
L 623.351007 354.347881 
L 623.698875 354.368737 
L 624.045375 353.963964 
L 624.39052 353.786842 
L 624.734319 351.939149 
L 625.076783 352.942796 
L 625.417922 352.877475 
L 625.757746 352.581209 
L 626.096266 352.501427 
L 626.433492 352.922477 
L 626.769433 352.742117 
L 627.104098 354.481483 
L 627.437499 354.812985 
L 627.769644 353.696759 
L 628.758637 355.239689 
L 629.085852 356.283942 
L 629.411858 355.772775 
L 629.736662 355.809941 
L 630.060275 355.326014 
L 630.382704 355.068741 
L 630.703959 355.388913 
L 631.024048 354.742443 
L 631.342979 354.940139 
L 631.66076 354.783643 
L 631.977401 355.190057 
L 632.292909 356.215301 
L 632.607292 355.546594 
L 633.232715 354.821167 
L 633.853734 355.080903 
L 634.47041 354.627539 
L 634.777139 354.552332 
L 635.387414 353.212943 
L 635.690974 353.114392 
L 635.993494 352.079897 
L 636.595437 351.997368 
L 636.894875 352.736393 
L 637.193299 353.08352 
L 637.490717 353.847065 
L 637.787135 353.832962 
L 638.082561 353.07287 
L 638.376999 353.680881 
L 638.670458 353.959053 
L 638.962944 353.328505 
L 639.545021 354.30953 
L 639.834625 354.740136 
L 640.123281 354.720362 
L 640.410995 354.310849 
L 640.697774 353.016335 
L 640.983623 353.470961 
L 641.268548 353.040217 
L 641.552556 353.517275 
L 641.835652 353.584325 
L 642.117842 352.974953 
L 642.399132 353.498475 
L 642.679528 353.410428 
L 642.959034 354.493926 
L 643.237658 354.506214 
L 643.515404 354.760009 
L 643.792279 355.498942 
L 644.068286 355.058087 
L 644.343432 355.39595 
L 644.617723 354.41077 
L 644.891163 353.929621 
L 645.163758 354.513664 
L 645.706432 356.040963 
L 645.976522 356.597631 
L 646.245788 357.470548 
L 646.781864 356.550863 
L 647.048686 355.274262 
L 647.314702 355.582759 
L 647.844339 353.519184 
L 648.10797 353.300006 
L 648.370814 354.049142 
L 648.632878 354.026181 
L 648.894165 354.74315 
L 649.15468 354.531739 
L 649.414428 353.480491 
L 649.673413 353.795834 
L 649.93164 351.901842 
L 650.189112 352.477594 
L 650.701814 354.953895 
L 650.957051 353.904926 
L 651.211551 353.929715 
L 651.465319 353.10557 
L 651.970675 352.813727 
L 652.473151 353.899681 
L 652.723319 353.321942 
L 652.97278 353.12287 
L 653.221537 353.175916 
L 653.716956 353.603583 
L 653.963626 353.52078 
L 654.209608 354.233466 
L 654.454905 354.183595 
L 654.699522 353.37578 
L 654.943462 353.129355 
L 655.429327 354.968962 
L 655.67126 355.052391 
L 655.91253 354.440171 
L 656.3931 354.171704 
L 656.632407 354.601836 
L 656.871065 353.715969 
L 657.10908 354.842534 
L 657.346454 354.648825 
L 657.58319 353.171608 
L 657.819293 352.557557 
L 658.054765 353.496484 
L 658.289611 353.683382 
L 658.523832 353.555683 
L 658.757433 354.99751 
L 658.990417 354.933396 
L 659.222787 355.915922 
L 659.454546 355.78762 
L 659.685698 356.008889 
L 659.916245 355.702498 
L 660.146192 355.77002 
L 660.604293 355.243319 
L 660.832454 353.387015 
L 661.287014 355.59407 
L 661.513418 355.732851 
L 661.739242 354.759531 
L 661.96449 355.168203 
L 662.189163 354.957275 
L 662.413266 355.426494 
L 662.85977 356.885383 
L 663.082177 357.204783 
L 663.304024 357.932932 
L 663.525315 358.214413 
L 663.746052 357.870446 
L 663.966238 357.091181 
L 664.185875 359.089242 
L 664.404967 358.797782 
L 664.841524 360.053601 
L 665.058994 359.540519 
L 665.27593 357.972142 
L 665.492334 358.130744 
L 665.708207 358.146832 
L 666.138376 358.601007 
L 666.566456 358.707169 
L 666.779719 358.1115 
L 666.992468 358.301364 
L 667.416432 356.875332 
L 667.627652 356.73691 
L 667.838367 355.875421 
L 668.04858 356.321527 
L 668.258293 356.282852 
L 668.467509 355.908805 
L 668.676229 355.880778 
L 668.884457 355.688847 
L 669.092194 355.257622 
L 669.506206 353.119654 
L 670.123602 353.978995 
L 670.328443 353.62525 
L 670.53281 354.386797 
L 670.736705 355.755643 
L 670.940129 355.057599 
L 671.143085 353.911827 
L 671.345575 354.332647 
L 671.547601 354.428412 
L 671.749165 354.823337 
L 671.95027 353.944773 
L 672.150917 353.85977 
L 672.351109 353.363596 
L 672.550847 353.680556 
L 672.750133 353.785607 
L 673.147361 353.103388 
L 673.345305 353.742522 
L 673.542807 352.921846 
L 673.739867 353.486142 
L 673.936488 353.28283 
L 674.523733 354.357553 
L 674.718615 353.948512 
L 675.107093 355.004198 
L 675.300692 354.487175 
L 675.493867 354.596678 
L 675.68662 354.407068 
L 675.878952 354.613633 
L 676.070866 355.013704 
L 676.262363 354.798583 
L 676.453445 353.304671 
L 676.644114 353.866515 
L 677.02422 352.909367 
L 677.21366 351.081284 
L 677.402694 352.626818 
L 677.591323 353.158257 
L 677.77955 353.251859 
L 677.967377 352.732252 
L 678.154804 353.158929 
L 678.341833 353.945579 
L 678.528467 353.975357 
L 678.714706 355.029318 
L 678.900553 355.242239 
L 679.086009 354.384957 
L 679.271076 355.670263 
L 679.455755 355.034681 
L 679.640049 355.046603 
L 679.823958 355.801902 
L 680.007484 354.650489 
L 680.190629 354.79905 
L 680.737793 356.006935 
L 680.919429 355.322834 
L 681.281583 357.152276 
L 681.462104 356.41817 
L 681.642256 356.5188 
L 682.537536 360.736721 
L 682.893118 359.917354 
L 683.070373 360.352961 
L 683.247273 359.822265 
L 683.247273 359.822265 
" style="fill:none;stroke:#ff7f0e;stroke-linecap:square;stroke-width:2;"/>
   </g>
   <g id="line2d_35">
    <path clip-path="url(#pc4c406aa0a)" d="M -1 359.014829 
L 683.247273 359.014829 
L 683.247273 359.014829 
" style="fill:none;stroke:#000000;stroke-dasharray:7.4,3.2;stroke-dashoffset:0;stroke-width:2;"/>
   </g>
   <g id="line2d_36">
    <path clip-path="url(#pc4c406aa0a)" d="M -1 323.507561 
L 135.392727 323.447024 
L 196.517451 325.986987 
L 232.273123 338.403485 
L 257.642175 307.104751 
L 277.319941 312.893752 
L 293.397847 321.02846 
L 306.991522 296.134322 
L 318.7669 273.752191 
L 329.153518 258.01789 
L 338.444666 271.48924 
L 346.849531 225.285644 
L 354.522571 230.173071 
L 361.581084 269.890485 
L 368.116246 275.378098 
L 374.200337 250.460742 
L 379.891624 212.864104 
L 385.237766 207.468337 
L 390.278242 188.660487 
L 395.046125 250.91202 
L 399.56939 245.081424 
L 403.871918 225.210197 
L 407.974255 212.837558 
L 411.894204 242.266423 
L 415.647295 268.042764 
L 419.247156 245.924513 
L 422.705808 270.872175 
L 426.033914 266.841542 
L 429.240971 256.790488 
L 432.335475 270.181045 
L 435.325061 274.671523 
L 438.21661 259.68869 
L 441.016348 278.616285 
L 443.729926 279.21141 
L 446.36249 277.470508 
L 448.918737 293.865634 
L 451.402967 267.735846 
L 453.819127 270.734398 
L 456.170849 296.267177 
L 458.46148 302.397223 
L 460.694114 307.07301 
L 462.871615 267.007747 
L 464.996642 261.509467 
L 467.071663 261.381535 
L 469.098979 254.502174 
L 471.080733 243.762457 
L 473.018928 264.706251 
L 474.915438 261.615636 
L 476.772019 253.941359 
L 478.590317 251.757621 
L 480.37188 251.99864 
L 482.118161 252.621761 
L 483.830532 242.999616 
L 485.510285 257.464905 
L 487.158638 248.56004 
L 488.776745 267.725319 
L 490.365695 232.774114 
L 491.92652 258.907096 
L 493.460199 272.935836 
L 494.967661 281.668207 
L 496.449785 271.327472 
L 497.907411 275.784804 
L 499.341334 252.775771 
L 500.752313 252.49814 
L 502.141072 262.487713 
L 503.508298 283.693581 
L 504.85465 280.606276 
L 506.180755 287.377711 
L 507.487214 267.27432 
L 508.774599 267.590228 
L 510.043461 272.731993 
L 511.294323 274.589164 
L 512.527691 279.913992 
L 513.744046 291.912993 
L 514.943851 285.585259 
L 516.127551 297.832207 
L 517.295573 297.204664 
L 518.448326 277.712048 
L 519.586204 277.69509 
L 520.709586 266.637971 
L 521.818838 274.71441 
L 522.91431 278.902594 
L 523.99634 280.806143 
L 525.065254 295.0851 
L 526.121366 283.135 
L 527.16498 276.037379 
L 528.196387 270.724535 
L 529.215871 250.372825 
L 530.223703 251.95272 
L 531.220147 276.546108 
L 532.205457 276.072086 
L 533.179879 291.690773 
L 534.143652 295.172735 
L 535.097005 284.05352 
L 536.040162 270.683349 
L 536.973339 267.437526 
L 537.896743 266.917284 
L 538.810579 276.83782 
L 539.715041 283.614508 
L 540.610322 271.946897 
L 541.496604 264.309391 
L 542.374067 264.010764 
L 543.242885 269.095154 
L 544.103227 269.181311 
L 544.955256 273.189783 
L 545.799132 269.700396 
L 546.635009 267.668535 
L 547.463037 277.534876 
L 548.283362 276.481253 
L 549.096127 275.861029 
L 549.901469 268.930777 
L 550.699523 270.991349 
L 551.490419 264.722953 
L 552.274285 263.584335 
L 553.051244 266.125054 
L 553.821418 267.347773 
L 554.584923 263.162387 
L 556.092385 269.710371 
L 556.836561 275.504714 
L 557.574509 269.205014 
L 558.306334 276.398359 
L 559.032135 271.536743 
L 559.752011 273.71086 
L 560.466058 282.172943 
L 561.17437 284.334436 
L 561.877038 274.846201 
L 562.574151 275.287546 
L 563.265796 280.336845 
L 563.952059 294.026264 
L 564.633022 289.149633 
L 565.308768 286.109268 
L 565.979374 289.98452 
L 566.64492 292.115483 
L 567.305479 283.956903 
L 567.961128 287.468493 
L 568.611938 289.550386 
L 569.25798 284.136443 
L 569.899323 282.653377 
L 570.536036 298.253332 
L 571.168185 296.444676 
L 571.795834 288.082384 
L 572.419047 286.079544 
L 573.037887 286.572206 
L 573.652415 288.48453 
L 574.262689 292.356264 
L 574.86877 288.045123 
L 575.470713 291.092006 
L 576.068575 283.351907 
L 576.662411 280.249263 
L 577.252275 277.861665 
L 577.83822 279.720543 
L 578.420297 280.728507 
L 578.998557 283.467515 
L 579.57305 275.037101 
L 580.143824 276.784798 
L 580.710928 276.574973 
L 581.274408 270.212834 
L 581.83431 274.626414 
L 582.39068 287.48139 
L 582.943562 287.060282 
L 583.492999 289.986788 
L 584.039034 290.186763 
L 585.121064 279.1846 
L 585.65714 276.239866 
L 586.189978 278.492792 
L 586.719615 275.180886 
L 587.24609 277.53896 
L 587.769441 282.219705 
L 588.289704 278.778786 
L 588.806916 278.678392 
L 589.321111 274.964966 
L 589.832326 277.977004 
L 590.340595 273.364173 
L 590.845951 274.837449 
L 591.348427 277.482956 
L 591.848056 275.55486 
L 592.344871 274.783743 
L 592.838902 276.7541 
L 593.330181 277.357352 
L 593.818738 279.894333 
L 594.787806 285.880853 
L 595.268376 286.216911 
L 595.746341 285.243854 
L 596.22173 282.711144 
L 596.694569 278.871036 
L 597.164887 278.225859 
L 597.632709 277.936386 
L 598.098063 274.449842 
L 598.560974 275.078803 
L 599.021467 273.280615 
L 599.479569 272.102255 
L 599.935303 271.994864 
L 600.388694 271.379906 
L 600.839766 271.205015 
L 601.735046 265.166551 
L 602.1793 265.951846 
L 602.621328 268.944154 
L 603.061151 269.817081 
L 603.498791 272.00488 
L 603.93427 272.812074 
L 604.367609 274.058116 
L 605.227951 275.113353 
L 605.654995 275.160777 
L 606.07998 274.362352 
L 606.923856 277.941414 
L 607.342785 277.566265 
L 607.759733 275.88357 
L 608.174719 275.40169 
L 608.587761 275.270049 
L 608.998877 274.258453 
L 609.408086 272.844718 
L 609.815405 272.047383 
L 610.220851 271.818529 
L 610.624441 273.617742 
L 611.026193 271.640703 
L 611.426123 274.282984 
L 611.824247 273.821003 
L 612.220581 275.267996 
L 612.615143 274.76845 
L 613.399009 277.458979 
L 613.788344 276.659592 
L 614.175968 274.760023 
L 614.561896 274.368029 
L 614.946142 275.998798 
L 615.328721 274.204055 
L 615.709648 276.544724 
L 616.088936 276.748941 
L 616.842652 273.301166 
L 617.217109 274.883958 
L 617.589982 274.510275 
L 617.961285 275.106576 
L 618.331031 274.956206 
L 618.699233 275.038616 
L 619.065905 274.59662 
L 620.156859 274.440976 
L 620.517532 274.037475 
L 620.876735 275.444813 
L 621.234481 275.796779 
L 621.590782 275.761992 
L 621.945649 276.259471 
L 622.299094 276.231244 
L 622.651128 277.029069 
L 623.001762 277.443607 
L 624.045375 277.343955 
L 624.39052 277.523069 
L 624.734319 276.482434 
L 625.076783 277.70227 
L 625.417922 277.449265 
L 625.757746 276.965214 
L 626.096266 276.965033 
L 626.433492 277.404829 
L 626.769433 277.091217 
L 627.104098 278.930108 
L 627.437499 278.617692 
L 627.769644 278.553902 
L 628.430204 280.289749 
L 628.758637 280.369153 
L 629.085852 280.965748 
L 629.411858 280.372151 
L 629.736662 280.57742 
L 630.060275 279.700023 
L 630.703959 280.121333 
L 631.024048 278.954504 
L 631.342979 278.842657 
L 631.66076 278.189307 
L 631.977401 278.855134 
L 632.292909 280.494636 
L 632.607292 280.550761 
L 632.920558 279.381157 
L 633.232715 278.677627 
L 633.543771 278.52932 
L 633.853734 278.256452 
L 634.162611 278.426626 
L 634.47041 277.371214 
L 634.777139 277.303759 
L 635.993494 274.143995 
L 636.294979 273.802279 
L 636.595437 273.102413 
L 636.894875 274.504432 
L 637.787135 275.793637 
L 638.082561 275.390855 
L 638.670458 277.858168 
L 638.962944 276.800794 
L 639.254463 277.236902 
L 639.545021 278.541067 
L 639.834625 278.878136 
L 640.123281 278.96273 
L 640.410995 278.415802 
L 640.697774 277.409889 
L 640.983623 277.835297 
L 641.268548 277.238306 
L 641.835652 277.686527 
L 642.117842 277.130365 
L 642.399132 278.474673 
L 642.679528 277.820525 
L 642.959034 279.235001 
L 643.237658 279.526437 
L 643.515404 280.202049 
L 643.792279 280.567253 
L 644.068286 279.785833 
L 644.343432 279.830457 
L 644.891163 278.664562 
L 645.435512 280.965432 
L 645.706432 281.10856 
L 645.976522 282.10594 
L 646.245788 282.347808 
L 646.514233 282.769321 
L 646.781864 282.201553 
L 647.048686 280.785123 
L 647.314702 280.723122 
L 647.579918 280.409966 
L 648.10797 279.451303 
L 648.370814 280.399661 
L 648.632878 280.398275 
L 648.894165 281.620084 
L 649.414428 280.02672 
L 649.673413 280.198277 
L 649.93164 277.505351 
L 650.189112 277.668028 
L 650.445836 278.668165 
L 650.701814 280.292444 
L 650.957051 278.5376 
L 651.211551 279.69319 
L 651.465319 279.27225 
L 651.718359 279.357257 
L 651.970675 278.801308 
L 652.222271 278.973186 
L 652.473151 279.752956 
L 652.723319 279.600721 
L 652.97278 279.7447 
L 653.221537 278.800518 
L 653.716956 279.544755 
L 653.963626 279.304123 
L 654.209608 280.028013 
L 654.454905 280.235736 
L 654.943462 277.68931 
L 655.186729 278.700592 
L 655.429327 279.168124 
L 655.67126 280.058913 
L 656.153143 278.686049 
L 656.3931 278.26145 
L 656.632407 278.917253 
L 656.871065 278.128143 
L 657.10908 279.200745 
L 657.346454 278.616756 
L 657.58319 277.492804 
L 657.819293 277.142735 
L 658.054765 278.700379 
L 658.289611 278.740054 
L 658.523832 277.92762 
L 658.757433 279.083469 
L 658.990417 278.493946 
L 659.222787 279.111805 
L 659.685698 279.404696 
L 659.916245 278.642318 
L 660.146192 279.137278 
L 660.37554 278.70588 
L 660.604293 278.641303 
L 660.832454 276.890253 
L 661.287014 280.11037 
L 661.513418 279.952795 
L 661.739242 278.878874 
L 661.96449 278.754969 
L 662.189163 277.948031 
L 662.413266 278.046371 
L 663.082177 280.682366 
L 663.304024 281.911152 
L 663.525315 281.777302 
L 663.746052 281.505481 
L 663.966238 279.879796 
L 664.185875 282.283676 
L 664.404967 281.690617 
L 664.623515 281.571604 
L 664.841524 282.095337 
L 665.058994 281.390276 
L 665.27593 279.775773 
L 665.492334 280.58041 
L 665.708207 280.526936 
L 666.138376 281.18642 
L 666.352675 281.209701 
L 666.566456 281.356858 
L 666.779719 281.032622 
L 666.992468 282.384905 
L 667.204705 281.538233 
L 667.627652 280.792842 
L 667.838367 279.739378 
L 668.04858 280.286164 
L 668.258293 280.240868 
L 668.676229 279.423942 
L 668.884457 280.864261 
L 669.506206 276.918871 
L 670.123602 277.784987 
L 670.53281 278.260958 
L 670.736705 280.071692 
L 670.940129 279.963816 
L 671.143085 279.204676 
L 671.547601 279.028338 
L 671.749165 279.139525 
L 671.95027 278.001558 
L 672.150917 278.144091 
L 672.351109 277.924776 
L 672.948971 279.726015 
L 673.147361 279.013123 
L 673.345305 280.34137 
L 673.542807 279.874949 
L 673.739867 280.35889 
L 673.936488 279.821367 
L 674.132671 281.117981 
L 674.523733 280.955286 
L 674.718615 280.179715 
L 674.913068 280.128995 
L 675.107093 280.600416 
L 675.493867 280.644514 
L 675.68662 281.134052 
L 675.878952 281.205393 
L 676.070866 280.871188 
L 676.262363 281.270663 
L 676.453445 279.758163 
L 676.644114 279.879435 
L 677.02422 278.444511 
L 677.21366 276.608416 
L 677.402694 278.451044 
L 677.591323 278.954469 
L 677.77955 278.475778 
L 677.967377 277.431038 
L 678.154804 278.06793 
L 678.341833 279.346557 
L 678.528467 279.073291 
L 678.714706 280.537892 
L 678.900553 280.44287 
L 679.086009 279.329685 
L 679.271076 280.25818 
L 679.455755 279.420177 
L 679.640049 279.147831 
L 679.823958 279.750233 
L 680.007484 278.47816 
L 680.190629 278.391421 
L 680.737793 279.79315 
L 680.919429 279.134679 
L 681.100692 280.497864 
L 681.281583 280.797981 
L 681.462104 279.704392 
L 681.82204 280.712682 
L 682.001459 281.978035 
L 682.180514 282.00184 
L 682.537536 285.11615 
L 682.715506 284.813261 
L 682.893118 284.905243 
L 683.070373 285.358816 
L 683.247273 285.374475 
L 683.247273 285.374475 
" style="fill:none;stroke:#2ca02c;stroke-linecap:square;stroke-width:2;"/>
   </g>
   <g id="line2d_37">
    <path clip-path="url(#pc4c406aa0a)" d="M -1 283.334234 
L 683.247273 283.334234 
L 683.247273 283.334234 
" style="fill:none;stroke:#000000;stroke-dasharray:7.4,3.2;stroke-dashoffset:0;stroke-width:2;"/>
   </g>
   <g id="line2d_38">
    <path clip-path="url(#pc4c406aa0a)" d="M -1 297.211 
L 135.392727 297.14348 
L 196.517451 279.212194 
L 232.273123 261.29842 
L 257.642175 237.475327 
L 277.319941 223.449136 
L 293.397847 232.014646 
L 306.991522 198.515747 
L 318.7669 182.951604 
L 329.153518 173.174765 
L 338.444666 190.575561 
L 346.849531 165.346421 
L 354.522571 174.842782 
L 361.581084 193.58104 
L 368.116246 189.857952 
L 374.200337 160.999748 
L 379.891624 160.0472 
L 385.237766 136.859889 
L 390.278242 120.71391 
L 395.046125 167.764753 
L 399.56939 182.711481 
L 407.974255 143.814296 
L 411.894204 160.802663 
L 415.647295 181.009102 
L 419.247156 171.913512 
L 422.705808 199.223675 
L 426.033914 188.111747 
L 429.240971 173.107394 
L 432.335475 197.662672 
L 435.325061 196.112256 
L 438.21661 177.710021 
L 441.016348 200.448681 
L 443.729926 178.483553 
L 446.36249 188.371641 
L 448.918737 213.420758 
L 451.402967 198.098842 
L 453.819127 213.501487 
L 456.170849 219.979107 
L 458.46148 228.939334 
L 460.694114 233.318928 
L 462.871615 184.304317 
L 464.996642 177.533748 
L 467.071663 166.197674 
L 469.098979 161.353862 
L 471.080733 166.060901 
L 473.018928 167.581314 
L 474.915438 174.442268 
L 476.772019 169.130961 
L 478.590317 164.268555 
L 480.37188 167.502156 
L 482.118161 174.718351 
L 483.830532 167.1782 
L 485.510285 187.858006 
L 487.158638 167.198134 
L 488.776745 183.38153 
L 490.365695 161.508918 
L 491.92652 179.169245 
L 494.967661 206.495532 
L 496.449785 194.163269 
L 497.907411 192.432969 
L 499.341334 185.603233 
L 500.752313 180.593713 
L 502.141072 193.731736 
L 503.508298 211.546564 
L 504.85465 207.778167 
L 506.180755 212.058909 
L 507.487214 191.24625 
L 508.774599 193.617772 
L 511.294323 199.362011 
L 512.527691 202.219367 
L 513.744046 221.34103 
L 514.943851 220.677541 
L 516.127551 226.073701 
L 517.295573 218.806694 
L 518.448326 194.315787 
L 519.586204 194.374397 
L 520.709586 189.832137 
L 521.818838 195.196763 
L 522.91431 203.365233 
L 523.99634 203.917911 
L 525.065254 220.8442 
L 526.121366 213.219747 
L 527.16498 208.079061 
L 528.196387 196.523857 
L 529.215871 180.117404 
L 530.223703 184.553946 
L 531.220147 199.375785 
L 532.205457 195.13921 
L 533.179879 201.820055 
L 534.143652 206.730999 
L 535.097005 200.591264 
L 536.040162 191.655464 
L 536.973339 187.614908 
L 537.896743 182.223494 
L 538.810579 186.652364 
L 539.715041 191.868014 
L 540.610322 190.086226 
L 541.496604 186.17711 
L 543.242885 202.885187 
L 544.103227 197.95825 
L 544.955256 200.866106 
L 545.799132 196.234149 
L 546.635009 195.851812 
L 547.463037 201.996193 
L 548.283362 193.322684 
L 549.096127 196.60909 
L 549.901469 193.467799 
L 550.699523 200.345073 
L 551.490419 191.884598 
L 552.274285 189.060007 
L 553.051244 193.863579 
L 554.584923 192.302767 
L 555.341875 200.085709 
L 556.092385 199.273732 
L 556.836561 205.736879 
L 557.574509 196.882125 
L 558.306334 197.969666 
L 559.032135 192.502806 
L 559.752011 194.970063 
L 560.466058 202.145052 
L 561.17437 206.62217 
L 561.877038 198.694457 
L 562.574151 199.675326 
L 563.265796 203.135262 
L 563.952059 210.798292 
L 564.633022 203.541175 
L 565.308768 202.531921 
L 565.979374 202.805193 
L 566.64492 208.408927 
L 567.305479 203.852997 
L 567.961128 206.794591 
L 568.611938 206.357828 
L 569.25798 200.959631 
L 569.899323 200.418757 
L 570.536036 210.400326 
L 571.168185 216.639401 
L 571.795834 211.109081 
L 572.419047 207.650696 
L 573.037887 207.213504 
L 573.652415 209.900699 
L 574.262689 206.505083 
L 574.86877 205.236659 
L 575.470713 209.409868 
L 576.068575 203.164713 
L 576.662411 201.693231 
L 577.252275 199.661215 
L 577.83822 198.379674 
L 578.420297 198.991224 
L 578.998557 203.783633 
L 579.57305 196.001108 
L 580.710928 195.325015 
L 581.274408 192.80295 
L 581.83431 195.710585 
L 582.39068 202.307972 
L 582.943562 202.647593 
L 583.492999 204.439627 
L 584.039034 203.421836 
L 584.581708 198.347376 
L 585.121064 194.392365 
L 585.65714 192.477071 
L 586.189978 191.34844 
L 586.719615 186.495635 
L 587.24609 188.571684 
L 587.769441 192.357375 
L 588.289704 191.32429 
L 588.806916 191.314783 
L 589.321111 187.641731 
L 589.832326 188.782757 
L 590.340595 186.3858 
L 590.845951 186.08472 
L 591.348427 186.460331 
L 591.848056 186.030987 
L 592.344871 185.778138 
L 592.838902 184.654643 
L 593.330181 185.672795 
L 593.818738 190.277558 
L 594.787806 194.269433 
L 595.268376 192.785308 
L 595.746341 192.3101 
L 596.22173 192.966332 
L 596.694569 191.844109 
L 597.164887 191.558442 
L 597.632709 191.60776 
L 598.098063 187.978257 
L 598.560974 186.327033 
L 599.021467 185.406383 
L 599.479569 185.834422 
L 600.388694 183.22423 
L 600.839766 182.837476 
L 601.288542 180.404924 
L 601.735046 178.945439 
L 602.1793 182.226498 
L 602.621328 183.924695 
L 603.498791 185.701104 
L 603.93427 186.902992 
L 604.79883 191.791756 
L 605.654995 192.882307 
L 606.07998 192.481801 
L 607.342785 195.250285 
L 607.759733 193.634816 
L 608.174719 193.494139 
L 608.587761 192.724646 
L 608.998877 192.316749 
L 609.408086 190.921985 
L 609.815405 190.642334 
L 610.220851 189.607119 
L 610.624441 190.960705 
L 611.026193 189.620427 
L 611.426123 191.768852 
L 612.615143 192.258915 
L 613.007947 192.979279 
L 613.399009 194.404557 
L 614.561896 191.250506 
L 614.946142 192.473776 
L 615.328721 191.880626 
L 616.088936 193.902324 
L 616.466599 192.207507 
L 616.842652 191.273293 
L 617.217109 193.29005 
L 617.589982 192.868275 
L 617.961285 193.631639 
L 618.699233 194.091514 
L 619.065905 194.62223 
L 619.431058 194.329711 
L 619.794705 193.748454 
L 620.156859 193.904448 
L 620.517532 193.692539 
L 620.876735 193.994075 
L 621.234481 194.02415 
L 621.590782 194.204861 
L 622.299094 195.529463 
L 622.651128 195.271522 
L 623.001762 195.793087 
L 623.698875 195.271924 
L 624.39052 196.053771 
L 624.734319 196.131742 
L 625.076783 197.297876 
L 625.417922 196.457514 
L 625.757746 196.005924 
L 626.433492 196.565533 
L 626.769433 196.255769 
L 627.104098 197.432285 
L 627.769644 197.014312 
L 628.100542 198.275527 
L 628.430204 198.655366 
L 628.758637 198.342373 
L 629.085852 199.036994 
L 629.411858 199.157274 
L 629.736662 199.658385 
L 630.060275 198.764328 
L 630.382704 199.322583 
L 630.703959 199.500448 
L 631.024048 198.952637 
L 631.342979 199.151118 
L 631.66076 198.488609 
L 631.977401 198.715416 
L 632.292909 199.418515 
L 632.607292 199.341854 
L 632.920558 199.018713 
L 633.543771 198.135011 
L 633.853734 197.997427 
L 634.162611 198.388723 
L 634.777139 197.12302 
L 635.993494 194.854452 
L 636.294979 194.553169 
L 636.595437 194.038624 
L 636.894875 194.750561 
L 637.193299 194.728284 
L 637.490717 194.819547 
L 637.787135 195.129068 
L 638.082561 195.078245 
L 638.376999 196.106236 
L 638.670458 197.809219 
L 638.962944 197.131227 
L 639.254463 196.965456 
L 640.123281 199.678466 
L 640.410995 199.554049 
L 640.697774 199.259654 
L 640.983623 199.362955 
L 641.268548 198.285461 
L 641.552556 198.349235 
L 641.835652 198.624726 
L 642.117842 198.454645 
L 642.399132 199.749145 
L 642.679528 198.922719 
L 643.237658 200.460014 
L 643.515404 200.574068 
L 643.792279 201.056565 
L 644.068286 199.75483 
L 644.617723 198.7964 
L 644.891163 198.089422 
L 645.435512 199.372238 
L 645.706432 198.732514 
L 645.976522 199.177359 
L 646.245788 199.214639 
L 646.514233 200.4645 
L 646.781864 200.225205 
L 647.048686 199.526005 
L 647.314702 199.383849 
L 647.579918 200.290416 
L 647.844339 200.044522 
L 648.10797 199.558673 
L 648.370814 199.359887 
L 648.632878 199.540167 
L 648.894165 201.339411 
L 649.15468 201.186499 
L 649.414428 200.277265 
L 649.673413 200.108397 
L 649.93164 198.492973 
L 650.189112 197.966911 
L 650.445836 199.280083 
L 650.701814 199.970838 
L 650.957051 198.980256 
L 651.211551 200.668338 
L 651.465319 200.421795 
L 651.718359 201.306984 
L 651.970675 201.329426 
L 652.222271 201.63743 
L 652.473151 203.254692 
L 652.723319 203.980839 
L 652.97278 204.271206 
L 653.221537 203.051541 
L 653.469595 203.181202 
L 653.963626 201.855086 
L 654.454905 202.499207 
L 654.699522 201.653292 
L 654.943462 200.35394 
L 655.186729 201.397433 
L 655.429327 201.210019 
L 655.67126 202.247953 
L 655.91253 202.090759 
L 656.153143 201.799762 
L 656.3931 201.968307 
L 656.632407 202.305634 
L 656.871065 202.193989 
L 657.10908 202.24567 
L 657.819293 200.049907 
L 658.054765 200.78908 
L 658.523832 199.70077 
L 658.757433 200.023818 
L 658.990417 199.251618 
L 659.222787 199.153585 
L 659.685698 199.792422 
L 659.916245 198.636384 
L 660.146192 199.365464 
L 660.37554 199.365249 
L 660.832454 197.572052 
L 661.060027 198.874371 
L 661.287014 199.409599 
L 661.739242 198.275779 
L 661.96449 198.028183 
L 662.413266 196.795112 
L 662.85977 198.143356 
L 663.304024 202.135855 
L 663.525315 202.610198 
L 663.966238 201.343681 
L 664.185875 202.914593 
L 664.404967 202.573992 
L 664.623515 202.012265 
L 664.841524 201.88307 
L 665.058994 201.364308 
L 665.27593 200.012712 
L 665.492334 200.532405 
L 665.708207 200.494688 
L 666.352675 201.704951 
L 666.566456 201.481499 
L 666.779719 201.553968 
L 666.992468 202.90193 
L 667.416432 202.235683 
L 667.838367 201.112923 
L 668.04858 201.383647 
L 668.258293 201.41501 
L 668.467509 200.664275 
L 668.676229 200.941063 
L 668.884457 202.19658 
L 669.506206 200.182131 
L 669.712485 200.513045 
L 670.328443 202.578173 
L 670.53281 202.349686 
L 670.736705 203.445217 
L 670.940129 203.654774 
L 671.345575 202.670517 
L 671.547601 202.708931 
L 671.749165 202.562413 
L 671.95027 201.771636 
L 672.150917 202.174815 
L 672.351109 201.995927 
L 672.550847 202.150709 
L 672.948971 203.697316 
L 673.147361 203.164799 
L 673.345305 204.649443 
L 673.936488 203.385022 
L 674.132671 204.306457 
L 674.328419 203.942418 
L 674.523733 204.498613 
L 675.107093 203.163196 
L 675.300692 203.435959 
L 675.493867 203.437101 
L 675.68662 203.798246 
L 675.878952 203.503003 
L 676.070866 202.954326 
L 676.262363 203.069726 
L 676.453445 202.070636 
L 676.644114 202.110461 
L 677.21366 199.187683 
L 677.591323 200.261308 
L 677.77955 200.24087 
L 677.967377 198.923959 
L 678.154804 199.487366 
L 678.341833 200.969473 
L 678.528467 200.381089 
L 678.714706 201.783113 
L 678.900553 201.694243 
L 679.086009 200.449414 
L 679.455755 199.508238 
L 679.640049 199.558709 
L 679.823958 200.347222 
L 680.190629 198.949989 
L 680.555782 199.78002 
L 680.737793 200.629524 
L 680.919429 200.51293 
L 681.281583 201.956799 
L 681.462104 201.242875 
L 681.642256 201.28712 
L 681.82204 200.651035 
L 682.001459 201.943816 
L 682.180514 202.090395 
L 682.359205 202.472725 
L 682.537536 204.735941 
L 682.715506 204.34604 
L 682.893118 204.538116 
L 683.070373 205.401286 
L 683.247273 205.677686 
L 683.247273 205.677686 
" style="fill:none;stroke:#d62728;stroke-linecap:square;stroke-width:2;"/>
   </g>
   <g id="line2d_39">
    <path clip-path="url(#pc4c406aa0a)" d="M -1 202.362486 
L 683.247273 202.362486 
L 683.247273 202.362486 
" style="fill:none;stroke:#000000;stroke-dasharray:7.4,3.2;stroke-dashoffset:0;stroke-width:2;"/>
   </g>
   <g id="line2d_40">
    <path clip-path="url(#pc4c406aa0a)" d="M -1 288.295111 
L 135.392727 288.236644 
L 196.517451 261.600269 
L 232.273123 230.927442 
L 257.642175 199.099309 
L 277.319941 179.188642 
L 293.397847 174.258895 
L 306.991522 151.400851 
L 318.7669 132.577436 
L 329.153518 114.800553 
L 338.444666 126.115863 
L 346.849531 112.907107 
L 354.522571 122.46694 
L 361.581084 122.02961 
L 368.116246 111.793366 
L 374.200337 104.059734 
L 379.891624 94.519472 
L 385.237766 95.57226 
L 390.278242 90.331122 
L 395.046125 107.732802 
L 399.56939 117.082638 
L 403.871918 108.578005 
L 407.974255 103.864944 
L 411.894204 101.357036 
L 415.647295 103.734523 
L 419.247156 98.297037 
L 422.705808 104.611553 
L 429.240971 98.083444 
L 432.335475 127.838537 
L 435.325061 115.318608 
L 438.21661 105.241203 
L 441.016348 107.501822 
L 443.729926 107.000089 
L 446.36249 108.137055 
L 448.918737 121.402501 
L 451.402967 114.069662 
L 453.819127 115.712235 
L 456.170849 116.842445 
L 458.46148 124.433723 
L 460.694114 133.670039 
L 462.871615 120.792238 
L 464.996642 118.941026 
L 467.071663 102.667829 
L 469.098979 90.671253 
L 471.080733 98.185984 
L 473.018928 89.28 
L 474.915438 99.654553 
L 476.772019 94.153486 
L 478.590317 97.166141 
L 480.37188 92.557753 
L 482.118161 95.736915 
L 483.830532 93.630332 
L 485.510285 105.809566 
L 487.158638 100.137512 
L 488.776745 112.730807 
L 490.365695 102.669318 
L 491.92652 106.459275 
L 493.460199 112.741488 
L 494.967661 124.331678 
L 496.449785 119.374651 
L 497.907411 113.229707 
L 499.341334 118.689428 
L 500.752313 104.308164 
L 502.141072 114.667981 
L 503.508298 127.85867 
L 504.85465 123.880252 
L 506.180755 129.266781 
L 507.487214 119.943859 
L 508.774599 115.405722 
L 510.043461 113.344962 
L 511.294323 108.71788 
L 512.527691 108.864395 
L 513.744046 118.979873 
L 514.943851 119.385683 
L 516.127551 122.954036 
L 517.295573 123.570281 
L 518.448326 113.46713 
L 519.586204 114.042188 
L 520.709586 113.796182 
L 521.818838 110.359723 
L 522.91431 115.880355 
L 523.99634 112.760862 
L 525.065254 127.851483 
L 526.121366 123.539525 
L 527.16498 124.250495 
L 528.196387 119.509587 
L 529.215871 111.201973 
L 530.223703 110.812139 
L 531.220147 112.293098 
L 532.205457 113.062315 
L 533.179879 113.508584 
L 534.143652 115.830403 
L 535.097005 114.89078 
L 536.040162 106.741793 
L 536.973339 104.75262 
L 537.896743 99.289165 
L 539.715041 106.01375 
L 540.610322 104.928546 
L 541.496604 108.202519 
L 542.374067 118.120102 
L 543.242885 123.075309 
L 544.103227 119.634277 
L 544.955256 121.614589 
L 545.799132 117.31607 
L 546.635009 116.531729 
L 547.463037 120.332787 
L 548.283362 116.16387 
L 549.096127 117.397856 
L 549.901469 116.492609 
L 550.699523 119.133429 
L 551.490419 114.773852 
L 552.274285 111.912045 
L 553.051244 118.635099 
L 553.821418 115.582926 
L 554.584923 115.490238 
L 555.341875 118.924708 
L 556.092385 114.881412 
L 556.836561 119.825599 
L 557.574509 115.879085 
L 558.306334 112.824508 
L 559.032135 108.028929 
L 559.752011 109.461902 
L 560.466058 115.569399 
L 561.17437 117.56379 
L 561.877038 113.444607 
L 562.574151 113.940151 
L 563.265796 113.776874 
L 563.952059 113.971853 
L 564.633022 111.613431 
L 565.308768 111.867572 
L 565.979374 109.972674 
L 566.64492 113.868808 
L 567.305479 112.544927 
L 567.961128 112.949017 
L 568.611938 110.910012 
L 569.25798 110.534595 
L 569.899323 111.869433 
L 570.536036 115.464043 
L 571.168185 121.926112 
L 571.795834 119.364111 
L 573.037887 116.376784 
L 573.652415 117.166852 
L 574.262689 114.53391 
L 574.86877 113.285659 
L 575.470713 117.052691 
L 576.068575 114.595173 
L 576.662411 115.788134 
L 577.252275 114.4216 
L 577.83822 112.506405 
L 578.420297 111.939379 
L 578.998557 112.188161 
L 579.57305 109.766943 
L 580.143824 108.680241 
L 581.274408 109.025485 
L 581.83431 110.113702 
L 582.39068 112.109926 
L 582.943562 112.377705 
L 583.492999 114.114661 
L 584.039034 113.574349 
L 584.581708 111.2814 
L 585.121064 110.01534 
L 585.65714 110.042319 
L 586.189978 108.487272 
L 586.719615 105.195745 
L 587.24609 105.84391 
L 587.769441 108.419863 
L 588.289704 106.886869 
L 588.806916 106.980276 
L 589.321111 105.695258 
L 589.832326 104.863641 
L 590.340595 104.828536 
L 590.845951 103.413248 
L 591.348427 103.711582 
L 591.848056 103.295435 
L 592.838902 101.603304 
L 593.330181 101.955025 
L 593.818738 104.016069 
L 594.787806 104.998867 
L 595.268376 103.828033 
L 595.746341 103.18866 
L 596.22173 104.065969 
L 597.164887 103.913095 
L 597.632709 103.805908 
L 598.560974 101.616423 
L 599.021467 101.588551 
L 599.479569 102.079132 
L 599.935303 101.924094 
L 600.388694 101.174801 
L 600.839766 101.129059 
L 601.288542 100.535683 
L 601.735046 100.562267 
L 602.1793 101.887278 
L 602.621328 101.926339 
L 603.498791 102.746808 
L 604.367609 104.639738 
L 604.79883 106.767874 
L 605.227951 106.457268 
L 605.654995 106.745119 
L 606.07998 106.828145 
L 606.502928 107.182821 
L 606.923856 107.22913 
L 607.342785 108.584675 
L 607.759733 108.279999 
L 608.587761 108.365444 
L 609.408086 107.096399 
L 609.815405 107.249847 
L 610.220851 106.800857 
L 611.026193 106.342289 
L 611.426123 107.115401 
L 611.824247 107.36789 
L 612.220581 107.431762 
L 612.615143 108.010946 
L 613.007947 108.22576 
L 613.399009 108.86436 
L 613.788344 108.474508 
L 614.175968 108.439203 
L 614.561896 107.915555 
L 614.946142 108.378681 
L 615.328721 107.967937 
L 615.709648 107.763509 
L 616.088936 108.773196 
L 616.466599 108.050187 
L 616.842652 107.638514 
L 617.217109 108.351567 
L 617.589982 108.095815 
L 617.961285 108.577249 
L 618.331031 108.697088 
L 619.065905 109.3733 
L 619.794705 108.869946 
L 620.876735 108.394975 
L 621.234481 108.291651 
L 621.590782 108.66753 
L 621.945649 108.75191 
L 622.299094 108.959177 
L 622.651128 108.934036 
L 623.001762 109.416426 
L 623.351007 109.360799 
L 623.698875 109.108283 
L 624.734319 108.818771 
L 625.076783 109.290556 
L 625.757746 108.502246 
L 626.433492 108.934798 
L 626.769433 108.657475 
L 627.104098 108.930762 
L 627.437499 108.991075 
L 627.769644 109.207599 
L 628.100542 110.281846 
L 628.430204 110.317809 
L 628.758637 110.035353 
L 629.085852 110.656219 
L 629.411858 110.635994 
L 629.736662 111.09414 
L 630.060275 110.601957 
L 630.382704 111.157091 
L 630.703959 111.324849 
L 631.024048 111.289612 
L 631.342979 111.500233 
L 631.66076 111.140806 
L 631.977401 111.010627 
L 632.292909 111.175002 
L 632.607292 111.021526 
L 632.920558 111.379696 
L 633.232715 111.034866 
L 633.543771 111.024768 
L 634.162611 111.336599 
L 634.47041 111.360031 
L 635.387414 110.792192 
L 635.690974 110.242129 
L 635.993494 110.254982 
L 636.595437 109.705586 
L 636.894875 109.848481 
L 637.193299 109.68514 
L 637.490717 109.682995 
L 638.082561 110.004286 
L 638.376999 110.315741 
L 638.670458 111.061702 
L 639.545021 110.140085 
L 640.123281 111.183182 
L 640.697774 110.926699 
L 640.983623 110.661323 
L 641.268548 110.191487 
L 641.835652 110.114311 
L 642.117842 110.340738 
L 642.399132 110.716093 
L 642.679528 110.426378 
L 642.959034 110.64751 
L 643.237658 111.111644 
L 643.515404 110.88534 
L 643.792279 111.575617 
L 644.068286 110.836373 
L 644.343432 110.550405 
L 644.617723 110.090976 
L 645.163758 109.847563 
L 645.435512 110.016036 
L 645.706432 109.406812 
L 645.976522 109.241562 
L 646.245788 109.256199 
L 646.514233 109.651667 
L 646.781864 109.735529 
L 647.314702 109.17095 
L 647.579918 109.854071 
L 648.370814 108.635205 
L 648.632878 109.127054 
L 648.894165 110.200456 
L 649.15468 110.718543 
L 649.414428 110.09862 
L 649.673413 109.986585 
L 649.93164 109.345686 
L 650.189112 109.126875 
L 650.445836 110.134713 
L 650.701814 110.320219 
L 650.957051 110.246321 
L 651.211551 110.857001 
L 651.465319 111.039941 
L 651.718359 111.679891 
L 651.970675 111.757665 
L 652.222271 112.303155 
L 652.473151 113.373289 
L 652.723319 113.795214 
L 652.97278 113.723097 
L 653.716956 112.181924 
L 653.963626 111.874572 
L 654.209608 111.787737 
L 654.454905 112.0939 
L 654.699522 111.591891 
L 654.943462 111.413854 
L 655.186729 112.139867 
L 655.429327 112.171717 
L 655.91253 112.675087 
L 656.153143 112.745777 
L 656.871065 113.346036 
L 657.10908 113.284661 
L 657.346454 113.016816 
L 657.819293 112.144677 
L 658.054765 112.221286 
L 658.289611 111.842047 
L 658.523832 111.921042 
L 658.757433 111.718314 
L 659.222787 110.907691 
L 659.454546 110.917208 
L 659.685698 111.154477 
L 659.916245 110.623264 
L 660.146192 110.809376 
L 660.37554 110.845437 
L 660.832454 110.150147 
L 661.060027 110.746255 
L 661.287014 110.836818 
L 661.513418 110.17455 
L 662.189163 109.741772 
L 662.413266 109.392004 
L 662.6368 109.646647 
L 662.85977 110.202375 
L 663.082177 111.834061 
L 663.525315 113.13587 
L 663.746052 112.960482 
L 663.966238 112.941214 
L 664.185875 113.499086 
L 665.058994 113.210588 
L 665.27593 112.720611 
L 665.492334 113.052166 
L 665.708207 112.934404 
L 666.352675 114.084128 
L 666.566456 114.013066 
L 666.779719 114.177346 
L 666.992468 114.957904 
L 667.204705 115.138924 
L 667.416432 115.074631 
L 667.838367 114.699287 
L 668.04858 114.798664 
L 668.258293 114.733646 
L 668.467509 114.184732 
L 668.884457 114.991793 
L 669.092194 115.156243 
L 669.299443 114.778819 
L 669.506206 115.165173 
L 669.712485 114.908062 
L 670.123602 115.392955 
L 670.328443 116.177367 
L 670.53281 116.236217 
L 670.736705 116.533457 
L 670.940129 116.580758 
L 671.143085 116.300017 
L 671.345575 116.26668 
L 671.749165 116.580998 
L 671.95027 116.260308 
L 672.150917 116.589543 
L 672.351109 116.1821 
L 672.750133 116.564124 
L 672.948971 117.089298 
L 673.147361 116.813267 
L 673.345305 117.269189 
L 673.739867 116.893159 
L 673.936488 116.663757 
L 674.132671 116.613796 
L 674.328419 116.42232 
L 674.523733 116.591294 
L 674.718615 116.295168 
L 674.913068 116.246059 
L 675.107093 116.001805 
L 675.493867 115.999396 
L 675.68662 116.235648 
L 675.878952 116.107742 
L 676.834372 114.426389 
L 677.02422 114.47994 
L 677.21366 113.941345 
L 677.591323 114.074784 
L 677.77955 114.483675 
L 677.967377 114.018903 
L 678.154804 114.242239 
L 678.341833 114.901827 
L 678.528467 114.565998 
L 678.714706 115.25339 
L 679.455755 113.776649 
L 679.823958 114.222708 
L 680.190629 113.4724 
L 680.555782 113.669391 
L 681.281583 114.842757 
L 681.462104 114.504858 
L 681.82204 114.345387 
L 682.001459 115.017561 
L 682.180514 115.210891 
L 682.359205 115.109905 
L 682.537536 116.329419 
L 682.893118 116.290138 
L 683.247273 116.977141 
L 683.247273 116.977141 
" style="fill:none;stroke:#9467bd;stroke-linecap:square;stroke-width:2;"/>
   </g>
   <g id="line2d_41">
    <path clip-path="url(#pc4c406aa0a)" d="M -1 115.323154 
L 683.247273 115.323154 
L 683.247273 115.323154 
" style="fill:none;stroke:#000000;stroke-dasharray:7.4,3.2;stroke-dashoffset:0;stroke-width:2;"/>
   </g>
   <g id="patch_3">
    <path d="M 108 512.64 
L 108 69.12 
" style="fill:none;stroke:#000000;stroke-linecap:square;stroke-linejoin:miter;stroke-width:0.8;"/>
   </g>
   <g id="patch_4">
    <path d="M 710.64 512.64 
L 710.64 69.12 
" style="fill:none;stroke:#000000;stroke-linecap:square;stroke-linejoin:miter;stroke-width:0.8;"/>
   </g>
   <g id="patch_5">
    <path d="M 108 512.64 
L 710.64 512.64 
" style="fill:none;stroke:#000000;stroke-linecap:square;stroke-linejoin:miter;stroke-width:0.8;"/>
   </g>
   <g id="patch_6">
    <path d="M 108 69.12 
L 710.64 69.12 
" style="fill:none;stroke:#000000;stroke-linecap:square;stroke-linejoin:miter;stroke-width:0.8;"/>
   </g>
   <g id="text_11">
    <!-- EVMC estimates through time vs true values averaged over 50 environments -->
    <g transform="translate(84.220312 63.12)scale(0.168 -0.168)">
     <defs>
      <path d="M 628 4666 
L 1569 4666 
L 2759 1491 
L 3956 4666 
L 4897 4666 
L 4897 0 
L 4281 0 
L 4281 4097 
L 3078 897 
L 2444 897 
L 1241 4097 
L 1241 0 
L 628 0 
L 628 4666 
z
" id="DejaVuSans-4d" transform="scale(0.015625)"/>
      <path d="M 4122 4306 
L 4122 3641 
Q 3803 3938 3442 4084 
Q 3081 4231 2675 4231 
Q 1875 4231 1450 3742 
Q 1025 3253 1025 2328 
Q 1025 1406 1450 917 
Q 1875 428 2675 428 
Q 3081 428 3442 575 
Q 3803 722 4122 1019 
L 4122 359 
Q 3791 134 3420 21 
Q 3050 -91 2638 -91 
Q 1578 -91 968 557 
Q 359 1206 359 2328 
Q 359 3453 968 4101 
Q 1578 4750 2638 4750 
Q 3056 4750 3426 4639 
Q 3797 4528 4122 4306 
z
" id="DejaVuSans-43" transform="scale(0.015625)"/>
      <path d="M 3328 2828 
Q 3544 3216 3844 3400 
Q 4144 3584 4550 3584 
Q 5097 3584 5394 3201 
Q 5691 2819 5691 2113 
L 5691 0 
L 5113 0 
L 5113 2094 
Q 5113 2597 4934 2840 
Q 4756 3084 4391 3084 
Q 3944 3084 3684 2787 
Q 3425 2491 3425 1978 
L 3425 0 
L 2847 0 
L 2847 2094 
Q 2847 2600 2669 2842 
Q 2491 3084 2119 3084 
Q 1678 3084 1418 2786 
Q 1159 2488 1159 1978 
L 1159 0 
L 581 0 
L 581 3500 
L 1159 3500 
L 1159 2956 
Q 1356 3278 1631 3431 
Q 1906 3584 2284 3584 
Q 2666 3584 2933 3390 
Q 3200 3197 3328 2828 
z
" id="DejaVuSans-6d" transform="scale(0.015625)"/>
      <path d="M 3513 2113 
L 3513 0 
L 2938 0 
L 2938 2094 
Q 2938 2591 2744 2837 
Q 2550 3084 2163 3084 
Q 1697 3084 1428 2787 
Q 1159 2491 1159 1978 
L 1159 0 
L 581 0 
L 581 4863 
L 1159 4863 
L 1159 2956 
Q 1366 3272 1645 3428 
Q 1925 3584 2291 3584 
Q 2894 3584 3203 3211 
Q 3513 2838 3513 2113 
z
" id="DejaVuSans-68" transform="scale(0.015625)"/>
      <path d="M 2631 2963 
Q 2534 3019 2420 3045 
Q 2306 3072 2169 3072 
Q 1681 3072 1420 2755 
Q 1159 2438 1159 1844 
L 1159 0 
L 581 0 
L 581 3500 
L 1159 3500 
L 1159 2956 
Q 1341 3275 1631 3429 
Q 1922 3584 2338 3584 
Q 2397 3584 2469 3576 
Q 2541 3569 2628 3553 
L 2631 2963 
z
" id="DejaVuSans-72" transform="scale(0.015625)"/>
      <path d="M 191 3500 
L 800 3500 
L 1894 563 
L 2988 3500 
L 3597 3500 
L 2284 0 
L 1503 0 
L 191 3500 
z
" id="DejaVuSans-76" transform="scale(0.015625)"/>
      <path d="M 691 4666 
L 3169 4666 
L 3169 4134 
L 1269 4134 
L 1269 2991 
Q 1406 3038 1543 3061 
Q 1681 3084 1819 3084 
Q 2600 3084 3056 2656 
Q 3513 2228 3513 1497 
Q 3513 744 3044 326 
Q 2575 -91 1722 -91 
Q 1428 -91 1123 -41 
Q 819 9 494 109 
L 494 744 
Q 775 591 1075 516 
Q 1375 441 1709 441 
Q 2250 441 2565 725 
Q 2881 1009 2881 1497 
Q 2881 1984 2565 2268 
Q 2250 2553 1709 2553 
Q 1456 2553 1204 2497 
Q 953 2441 691 2322 
L 691 4666 
z
" id="DejaVuSans-35" transform="scale(0.015625)"/>
     </defs>
     <use xlink:href="#DejaVuSans-45"/>
     <use x="63.183594" xlink:href="#DejaVuSans-56"/>
     <use x="131.591797" xlink:href="#DejaVuSans-4d"/>
     <use x="217.871094" xlink:href="#DejaVuSans-43"/>
     <use x="287.695312" xlink:href="#DejaVuSans-20"/>
     <use x="319.482422" xlink:href="#DejaVuSans-65"/>
     <use x="381.005859" xlink:href="#DejaVuSans-73"/>
     <use x="433.105469" xlink:href="#DejaVuSans-74"/>
     <use x="472.314453" xlink:href="#DejaVuSans-69"/>
     <use x="500.097656" xlink:href="#DejaVuSans-6d"/>
     <use x="597.509766" xlink:href="#DejaVuSans-61"/>
     <use x="658.789062" xlink:href="#DejaVuSans-74"/>
     <use x="697.998047" xlink:href="#DejaVuSans-65"/>
     <use x="759.521484" xlink:href="#DejaVuSans-73"/>
     <use x="811.621094" xlink:href="#DejaVuSans-20"/>
     <use x="843.408203" xlink:href="#DejaVuSans-74"/>
     <use x="882.617188" xlink:href="#DejaVuSans-68"/>
     <use x="945.996094" xlink:href="#DejaVuSans-72"/>
     <use x="984.859375" xlink:href="#DejaVuSans-6f"/>
     <use x="1046.041016" xlink:href="#DejaVuSans-75"/>
     <use x="1109.419922" xlink:href="#DejaVuSans-67"/>
     <use x="1172.896484" xlink:href="#DejaVuSans-68"/>
     <use x="1236.275391" xlink:href="#DejaVuSans-20"/>
     <use x="1268.0625" xlink:href="#DejaVuSans-74"/>
     <use x="1307.271484" xlink:href="#DejaVuSans-69"/>
     <use x="1335.054688" xlink:href="#DejaVuSans-6d"/>
     <use x="1432.466797" xlink:href="#DejaVuSans-65"/>
     <use x="1493.990234" xlink:href="#DejaVuSans-20"/>
     <use x="1525.777344" xlink:href="#DejaVuSans-76"/>
     <use x="1584.957031" xlink:href="#DejaVuSans-73"/>
     <use x="1637.056641" xlink:href="#DejaVuSans-20"/>
     <use x="1668.84375" xlink:href="#DejaVuSans-74"/>
     <use x="1708.052734" xlink:href="#DejaVuSans-72"/>
     <use x="1749.166016" xlink:href="#DejaVuSans-75"/>
     <use x="1812.544922" xlink:href="#DejaVuSans-65"/>
     <use x="1874.068359" xlink:href="#DejaVuSans-20"/>
     <use x="1905.855469" xlink:href="#DejaVuSans-76"/>
     <use x="1965.035156" xlink:href="#DejaVuSans-61"/>
     <use x="2026.314453" xlink:href="#DejaVuSans-6c"/>
     <use x="2054.097656" xlink:href="#DejaVuSans-75"/>
     <use x="2117.476562" xlink:href="#DejaVuSans-65"/>
     <use x="2179" xlink:href="#DejaVuSans-73"/>
     <use x="2231.099609" xlink:href="#DejaVuSans-20"/>
     <use x="2262.886719" xlink:href="#DejaVuSans-61"/>
     <use x="2324.166016" xlink:href="#DejaVuSans-76"/>
     <use x="2383.345703" xlink:href="#DejaVuSans-65"/>
     <use x="2444.869141" xlink:href="#DejaVuSans-72"/>
     <use x="2485.982422" xlink:href="#DejaVuSans-61"/>
     <use x="2547.261719" xlink:href="#DejaVuSans-67"/>
     <use x="2610.738281" xlink:href="#DejaVuSans-65"/>
     <use x="2672.261719" xlink:href="#DejaVuSans-64"/>
     <use x="2735.738281" xlink:href="#DejaVuSans-20"/>
     <use x="2767.525391" xlink:href="#DejaVuSans-6f"/>
     <use x="2828.707031" xlink:href="#DejaVuSans-76"/>
     <use x="2887.886719" xlink:href="#DejaVuSans-65"/>
     <use x="2949.410156" xlink:href="#DejaVuSans-72"/>
     <use x="2990.523438" xlink:href="#DejaVuSans-20"/>
     <use x="3022.310547" xlink:href="#DejaVuSans-35"/>
     <use x="3085.933594" xlink:href="#DejaVuSans-30"/>
     <use x="3149.556641" xlink:href="#DejaVuSans-20"/>
     <use x="3181.34375" xlink:href="#DejaVuSans-65"/>
     <use x="3242.867188" xlink:href="#DejaVuSans-6e"/>
     <use x="3306.246094" xlink:href="#DejaVuSans-76"/>
     <use x="3365.425781" xlink:href="#DejaVuSans-69"/>
     <use x="3393.208984" xlink:href="#DejaVuSans-72"/>
     <use x="3432.072266" xlink:href="#DejaVuSans-6f"/>
     <use x="3493.253906" xlink:href="#DejaVuSans-6e"/>
     <use x="3556.632812" xlink:href="#DejaVuSans-6d"/>
     <use x="3654.044922" xlink:href="#DejaVuSans-65"/>
     <use x="3715.568359" xlink:href="#DejaVuSans-6e"/>
     <use x="3778.947266" xlink:href="#DejaVuSans-74"/>
     <use x="3818.15625" xlink:href="#DejaVuSans-73"/>
    </g>
   </g>
   <g id="legend_1">
    <g id="patch_7">
     <path d="M 720.44 395.726875 
L 820.673438 395.726875 
Q 823.473438 395.726875 823.473438 392.926875 
L 823.473438 188.833125 
Q 823.473438 186.033125 820.673438 186.033125 
L 720.44 186.033125 
Q 717.64 186.033125 717.64 188.833125 
L 717.64 392.926875 
Q 717.64 395.726875 720.44 395.726875 
z
" style="fill:#ffffff;opacity:0.8;stroke:#cccccc;stroke-linejoin:miter;"/>
    </g>
    <g id="line2d_42">
     <path d="M 723.24 197.370937 
L 751.24 197.370937 
" style="fill:none;stroke:#1f77b4;stroke-linecap:square;stroke-width:2;"/>
    </g>
    <g id="line2d_43"/>
    <g id="text_12">
     <!-- V(s=1) -->
     <g transform="translate(762.44 202.270938)scale(0.14 -0.14)">
      <defs>
       <path d="M 678 2906 
L 4684 2906 
L 4684 2381 
L 678 2381 
L 678 2906 
z
M 678 1631 
L 4684 1631 
L 4684 1100 
L 678 1100 
L 678 1631 
z
" id="DejaVuSans-3d" transform="scale(0.015625)"/>
      </defs>
      <use xlink:href="#DejaVuSans-56"/>
      <use x="68.408203" xlink:href="#DejaVuSans-28"/>
      <use x="107.421875" xlink:href="#DejaVuSans-73"/>
      <use x="159.521484" xlink:href="#DejaVuSans-3d"/>
      <use x="243.310547" xlink:href="#DejaVuSans-31"/>
      <use x="306.933594" xlink:href="#DejaVuSans-29"/>
     </g>
    </g>
    <g id="line2d_44">
     <path d="M 723.24 217.920312 
L 751.24 217.920312 
" style="fill:none;stroke:#000000;stroke-dasharray:7.4,3.2;stroke-dashoffset:0;stroke-width:2;"/>
    </g>
    <g id="line2d_45"/>
    <g id="text_13">
     <!-- V*(s=1) -->
     <g transform="translate(762.44 222.820312)scale(0.14 -0.14)">
      <defs>
       <path d="M 3009 3897 
L 1888 3291 
L 3009 2681 
L 2828 2375 
L 1778 3009 
L 1778 1831 
L 1422 1831 
L 1422 3009 
L 372 2375 
L 191 2681 
L 1313 3291 
L 191 3897 
L 372 4206 
L 1422 3572 
L 1422 4750 
L 1778 4750 
L 1778 3572 
L 2828 4206 
L 3009 3897 
z
" id="DejaVuSans-2a" transform="scale(0.015625)"/>
      </defs>
      <use xlink:href="#DejaVuSans-56"/>
      <use x="68.408203" xlink:href="#DejaVuSans-2a"/>
      <use x="118.408203" xlink:href="#DejaVuSans-28"/>
      <use x="157.421875" xlink:href="#DejaVuSans-73"/>
      <use x="209.521484" xlink:href="#DejaVuSans-3d"/>
      <use x="293.310547" xlink:href="#DejaVuSans-31"/>
      <use x="356.933594" xlink:href="#DejaVuSans-29"/>
     </g>
    </g>
    <g id="line2d_46">
     <path d="M 723.24 238.469688 
L 751.24 238.469688 
" style="fill:none;stroke:#ff7f0e;stroke-linecap:square;stroke-width:2;"/>
    </g>
    <g id="line2d_47"/>
    <g id="text_14">
     <!-- V(s=2) -->
     <g transform="translate(762.44 243.369688)scale(0.14 -0.14)">
      <use xlink:href="#DejaVuSans-56"/>
      <use x="68.408203" xlink:href="#DejaVuSans-28"/>
      <use x="107.421875" xlink:href="#DejaVuSans-73"/>
      <use x="159.521484" xlink:href="#DejaVuSans-3d"/>
      <use x="243.310547" xlink:href="#DejaVuSans-32"/>
      <use x="306.933594" xlink:href="#DejaVuSans-29"/>
     </g>
    </g>
    <g id="line2d_48">
     <path d="M 723.24 259.019063 
L 751.24 259.019063 
" style="fill:none;stroke:#000000;stroke-dasharray:7.4,3.2;stroke-dashoffset:0;stroke-width:2;"/>
    </g>
    <g id="line2d_49"/>
    <g id="text_15">
     <!-- V*(s=2) -->
     <g transform="translate(762.44 263.919062)scale(0.14 -0.14)">
      <use xlink:href="#DejaVuSans-56"/>
      <use x="68.408203" xlink:href="#DejaVuSans-2a"/>
      <use x="118.408203" xlink:href="#DejaVuSans-28"/>
      <use x="157.421875" xlink:href="#DejaVuSans-73"/>
      <use x="209.521484" xlink:href="#DejaVuSans-3d"/>
      <use x="293.310547" xlink:href="#DejaVuSans-32"/>
      <use x="356.933594" xlink:href="#DejaVuSans-29"/>
     </g>
    </g>
    <g id="line2d_50">
     <path d="M 723.24 279.568438 
L 751.24 279.568438 
" style="fill:none;stroke:#2ca02c;stroke-linecap:square;stroke-width:2;"/>
    </g>
    <g id="line2d_51"/>
    <g id="text_16">
     <!-- V(s=3) -->
     <g transform="translate(762.44 284.468437)scale(0.14 -0.14)">
      <defs>
       <path d="M 2597 2516 
Q 3050 2419 3304 2112 
Q 3559 1806 3559 1356 
Q 3559 666 3084 287 
Q 2609 -91 1734 -91 
Q 1441 -91 1130 -33 
Q 819 25 488 141 
L 488 750 
Q 750 597 1062 519 
Q 1375 441 1716 441 
Q 2309 441 2620 675 
Q 2931 909 2931 1356 
Q 2931 1769 2642 2001 
Q 2353 2234 1838 2234 
L 1294 2234 
L 1294 2753 
L 1863 2753 
Q 2328 2753 2575 2939 
Q 2822 3125 2822 3475 
Q 2822 3834 2567 4026 
Q 2313 4219 1838 4219 
Q 1578 4219 1281 4162 
Q 984 4106 628 3988 
L 628 4550 
Q 988 4650 1302 4700 
Q 1616 4750 1894 4750 
Q 2613 4750 3031 4423 
Q 3450 4097 3450 3541 
Q 3450 3153 3228 2886 
Q 3006 2619 2597 2516 
z
" id="DejaVuSans-33" transform="scale(0.015625)"/>
      </defs>
      <use xlink:href="#DejaVuSans-56"/>
      <use x="68.408203" xlink:href="#DejaVuSans-28"/>
      <use x="107.421875" xlink:href="#DejaVuSans-73"/>
      <use x="159.521484" xlink:href="#DejaVuSans-3d"/>
      <use x="243.310547" xlink:href="#DejaVuSans-33"/>
      <use x="306.933594" xlink:href="#DejaVuSans-29"/>
     </g>
    </g>
    <g id="line2d_52">
     <path d="M 723.24 300.117813 
L 751.24 300.117813 
" style="fill:none;stroke:#000000;stroke-dasharray:7.4,3.2;stroke-dashoffset:0;stroke-width:2;"/>
    </g>
    <g id="line2d_53"/>
    <g id="text_17">
     <!-- V*(s=3) -->
     <g transform="translate(762.44 305.017812)scale(0.14 -0.14)">
      <use xlink:href="#DejaVuSans-56"/>
      <use x="68.408203" xlink:href="#DejaVuSans-2a"/>
      <use x="118.408203" xlink:href="#DejaVuSans-28"/>
      <use x="157.421875" xlink:href="#DejaVuSans-73"/>
      <use x="209.521484" xlink:href="#DejaVuSans-3d"/>
      <use x="293.310547" xlink:href="#DejaVuSans-33"/>
      <use x="356.933594" xlink:href="#DejaVuSans-29"/>
     </g>
    </g>
    <g id="line2d_54">
     <path d="M 723.24 320.667188 
L 751.24 320.667188 
" style="fill:none;stroke:#d62728;stroke-linecap:square;stroke-width:2;"/>
    </g>
    <g id="line2d_55"/>
    <g id="text_18">
     <!-- V(s=4) -->
     <g transform="translate(762.44 325.567188)scale(0.14 -0.14)">
      <use xlink:href="#DejaVuSans-56"/>
      <use x="68.408203" xlink:href="#DejaVuSans-28"/>
      <use x="107.421875" xlink:href="#DejaVuSans-73"/>
      <use x="159.521484" xlink:href="#DejaVuSans-3d"/>
      <use x="243.310547" xlink:href="#DejaVuSans-34"/>
      <use x="306.933594" xlink:href="#DejaVuSans-29"/>
     </g>
    </g>
    <g id="line2d_56">
     <path d="M 723.24 341.216563 
L 751.24 341.216563 
" style="fill:none;stroke:#000000;stroke-dasharray:7.4,3.2;stroke-dashoffset:0;stroke-width:2;"/>
    </g>
    <g id="line2d_57"/>
    <g id="text_19">
     <!-- V*(s=4) -->
     <g transform="translate(762.44 346.116562)scale(0.14 -0.14)">
      <use xlink:href="#DejaVuSans-56"/>
      <use x="68.408203" xlink:href="#DejaVuSans-2a"/>
      <use x="118.408203" xlink:href="#DejaVuSans-28"/>
      <use x="157.421875" xlink:href="#DejaVuSans-73"/>
      <use x="209.521484" xlink:href="#DejaVuSans-3d"/>
      <use x="293.310547" xlink:href="#DejaVuSans-34"/>
      <use x="356.933594" xlink:href="#DejaVuSans-29"/>
     </g>
    </g>
    <g id="line2d_58">
     <path d="M 723.24 361.765938 
L 751.24 361.765938 
" style="fill:none;stroke:#9467bd;stroke-linecap:square;stroke-width:2;"/>
    </g>
    <g id="line2d_59"/>
    <g id="text_20">
     <!-- V(s=5) -->
     <g transform="translate(762.44 366.665938)scale(0.14 -0.14)">
      <use xlink:href="#DejaVuSans-56"/>
      <use x="68.408203" xlink:href="#DejaVuSans-28"/>
      <use x="107.421875" xlink:href="#DejaVuSans-73"/>
      <use x="159.521484" xlink:href="#DejaVuSans-3d"/>
      <use x="243.310547" xlink:href="#DejaVuSans-35"/>
      <use x="306.933594" xlink:href="#DejaVuSans-29"/>
     </g>
    </g>
    <g id="line2d_60">
     <path d="M 723.24 382.315313 
L 751.24 382.315313 
" style="fill:none;stroke:#000000;stroke-dasharray:7.4,3.2;stroke-dashoffset:0;stroke-width:2;"/>
    </g>
    <g id="line2d_61"/>
    <g id="text_21">
     <!-- V*(s=5) -->
     <g transform="translate(762.44 387.215312)scale(0.14 -0.14)">
      <use xlink:href="#DejaVuSans-56"/>
      <use x="68.408203" xlink:href="#DejaVuSans-2a"/>
      <use x="118.408203" xlink:href="#DejaVuSans-28"/>
      <use x="157.421875" xlink:href="#DejaVuSans-73"/>
      <use x="209.521484" xlink:href="#DejaVuSans-3d"/>
      <use x="293.310547" xlink:href="#DejaVuSans-35"/>
      <use x="356.933594" xlink:href="#DejaVuSans-29"/>
     </g>
    </g>
   </g>
  </g>
 </g>
 <defs>
  <clipPath id="pc4c406aa0a">
   <rect height="443.52" width="602.64" x="108" y="69.12"/>
  </clipPath>
 </defs>
</svg>
