<?xml version="1.0" encoding="utf-8" standalone="no"?>
<!DOCTYPE svg PUBLIC "-//W3C//DTD SVG 1.1//EN"
  "http://www.w3.org/Graphics/SVG/1.1/DTD/svg11.dtd">
<svg height="576pt" version="1.1" viewBox="0 0 864 576" width="864pt" xmlns="http://www.w3.org/2000/svg" xmlns:xlink="http://www.w3.org/1999/xlink">
 <metadata>
  <rdf:RDF xmlns:cc="http://creativecommons.org/ns#" xmlns:dc="http://purl.org/dc/elements/1.1/" xmlns:rdf="http://www.w3.org/1999/02/22-rdf-syntax-ns#">
   <cc:Work>
    <dc:type rdf:resource="http://purl.org/dc/dcmitype/StillImage"/>
    <dc:date>2021-09-10T14:37:08.812915</dc:date>
    <dc:format>image/svg+xml</dc:format>
    <dc:creator>
     <cc:Agent>
      <dc:title>Matplotlib v3.4.3, https://matplotlib.org/</dc:title>
     </cc:Agent>
    </dc:creator>
   </cc:Work>
  </rdf:RDF>
 </metadata>
 <defs>
  <style type="text/css">*{stroke-linecap:butt;stroke-linejoin:round;}</style>
 </defs>
 <g id="figure_1">
  <g id="patch_1">
   <path d="M 0 576 
L 864 576 
L 864 0 
L 0 0 
z
" style="fill:#ffffff;"/>
  </g>
  <g id="axes_1">
   <g id="patch_2">
    <path d="M 108 512.64 
L 777.6 512.64 
L 777.6 69.12 
L 108 69.12 
z
" style="fill:#ffffff;"/>
   </g>
   <g id="matplotlib.axis_1">
    <g id="xtick_1">
     <g id="line2d_1">
      <defs>
       <path d="M 0 0 
L 0 3.5 
" id="mfee0a67c7d" style="stroke:#000000;stroke-width:0.8;"/>
      </defs>
      <g>
       <use style="stroke:#000000;stroke-width:0.8;" x="138.436364" xlink:href="#mfee0a67c7d" y="512.64"/>
      </g>
     </g>
     <g id="text_1">
      <!-- $\mathdefault{10^{0}}$ -->
      <g transform="translate(129.636364 527.238438)scale(0.1 -0.1)">
       <defs>
        <path d="M 794 531 
L 1825 531 
L 1825 4091 
L 703 3866 
L 703 4441 
L 1819 4666 
L 2450 4666 
L 2450 531 
L 3481 531 
L 3481 0 
L 794 0 
L 794 531 
z
" id="DejaVuSans-31" transform="scale(0.015625)"/>
        <path d="M 2034 4250 
Q 1547 4250 1301 3770 
Q 1056 3291 1056 2328 
Q 1056 1369 1301 889 
Q 1547 409 2034 409 
Q 2525 409 2770 889 
Q 3016 1369 3016 2328 
Q 3016 3291 2770 3770 
Q 2525 4250 2034 4250 
z
M 2034 4750 
Q 2819 4750 3233 4129 
Q 3647 3509 3647 2328 
Q 3647 1150 3233 529 
Q 2819 -91 2034 -91 
Q 1250 -91 836 529 
Q 422 1150 422 2328 
Q 422 3509 836 4129 
Q 1250 4750 2034 4750 
z
" id="DejaVuSans-30" transform="scale(0.015625)"/>
       </defs>
       <use transform="translate(0 0.765625)" xlink:href="#DejaVuSans-31"/>
       <use transform="translate(63.623047 0.765625)" xlink:href="#DejaVuSans-30"/>
       <use transform="translate(128.203125 39.046875)scale(0.7)" xlink:href="#DejaVuSans-30"/>
      </g>
     </g>
    </g>
    <g id="xtick_2">
     <g id="line2d_2">
      <g>
       <use style="stroke:#000000;stroke-width:0.8;" x="364.049628" xlink:href="#mfee0a67c7d" y="512.64"/>
      </g>
     </g>
     <g id="text_2">
      <!-- $\mathdefault{10^{1}}$ -->
      <g transform="translate(355.249628 527.238438)scale(0.1 -0.1)">
       <use transform="translate(0 0.684375)" xlink:href="#DejaVuSans-31"/>
       <use transform="translate(63.623047 0.684375)" xlink:href="#DejaVuSans-30"/>
       <use transform="translate(128.203125 38.965625)scale(0.7)" xlink:href="#DejaVuSans-31"/>
      </g>
     </g>
    </g>
    <g id="xtick_3">
     <g id="line2d_3">
      <g>
       <use style="stroke:#000000;stroke-width:0.8;" x="589.662893" xlink:href="#mfee0a67c7d" y="512.64"/>
      </g>
     </g>
     <g id="text_3">
      <!-- $\mathdefault{10^{2}}$ -->
      <g transform="translate(580.862893 527.238438)scale(0.1 -0.1)">
       <defs>
        <path d="M 1228 531 
L 3431 531 
L 3431 0 
L 469 0 
L 469 531 
Q 828 903 1448 1529 
Q 2069 2156 2228 2338 
Q 2531 2678 2651 2914 
Q 2772 3150 2772 3378 
Q 2772 3750 2511 3984 
Q 2250 4219 1831 4219 
Q 1534 4219 1204 4116 
Q 875 4013 500 3803 
L 500 4441 
Q 881 4594 1212 4672 
Q 1544 4750 1819 4750 
Q 2544 4750 2975 4387 
Q 3406 4025 3406 3419 
Q 3406 3131 3298 2873 
Q 3191 2616 2906 2266 
Q 2828 2175 2409 1742 
Q 1991 1309 1228 531 
z
" id="DejaVuSans-32" transform="scale(0.015625)"/>
       </defs>
       <use transform="translate(0 0.765625)" xlink:href="#DejaVuSans-31"/>
       <use transform="translate(63.623047 0.765625)" xlink:href="#DejaVuSans-30"/>
       <use transform="translate(128.203125 39.046875)scale(0.7)" xlink:href="#DejaVuSans-32"/>
      </g>
     </g>
    </g>
    <g id="xtick_4">
     <g id="line2d_4">
      <defs>
       <path d="M 0 0 
L 0 2 
" id="mca9d196df8" style="stroke:#000000;stroke-width:0.6;"/>
      </defs>
      <g>
       <use style="stroke:#000000;stroke-width:0.6;" x="116.572179" xlink:href="#mca9d196df8" y="512.64"/>
      </g>
     </g>
    </g>
    <g id="xtick_5">
     <g id="line2d_5">
      <g>
       <use style="stroke:#000000;stroke-width:0.6;" x="128.112867" xlink:href="#mca9d196df8" y="512.64"/>
      </g>
     </g>
    </g>
    <g id="xtick_6">
     <g id="line2d_6">
      <g>
       <use style="stroke:#000000;stroke-width:0.6;" x="206.352724" xlink:href="#mca9d196df8" y="512.64"/>
      </g>
     </g>
    </g>
    <g id="xtick_7">
     <g id="line2d_7">
      <g>
       <use style="stroke:#000000;stroke-width:0.6;" x="246.081248" xlink:href="#mca9d196df8" y="512.64"/>
      </g>
     </g>
    </g>
    <g id="xtick_8">
     <g id="line2d_8">
      <g>
       <use style="stroke:#000000;stroke-width:0.6;" x="274.269084" xlink:href="#mca9d196df8" y="512.64"/>
      </g>
     </g>
    </g>
    <g id="xtick_9">
     <g id="line2d_9">
      <g>
       <use style="stroke:#000000;stroke-width:0.6;" x="296.133268" xlink:href="#mca9d196df8" y="512.64"/>
      </g>
     </g>
    </g>
    <g id="xtick_10">
     <g id="line2d_10">
      <g>
       <use style="stroke:#000000;stroke-width:0.6;" x="313.997608" xlink:href="#mca9d196df8" y="512.64"/>
      </g>
     </g>
    </g>
    <g id="xtick_11">
     <g id="line2d_11">
      <g>
       <use style="stroke:#000000;stroke-width:0.6;" x="329.101691" xlink:href="#mca9d196df8" y="512.64"/>
      </g>
     </g>
    </g>
    <g id="xtick_12">
     <g id="line2d_12">
      <g>
       <use style="stroke:#000000;stroke-width:0.6;" x="342.185444" xlink:href="#mca9d196df8" y="512.64"/>
      </g>
     </g>
    </g>
    <g id="xtick_13">
     <g id="line2d_13">
      <g>
       <use style="stroke:#000000;stroke-width:0.6;" x="353.726132" xlink:href="#mca9d196df8" y="512.64"/>
      </g>
     </g>
    </g>
    <g id="xtick_14">
     <g id="line2d_14">
      <g>
       <use style="stroke:#000000;stroke-width:0.6;" x="431.965988" xlink:href="#mca9d196df8" y="512.64"/>
      </g>
     </g>
    </g>
    <g id="xtick_15">
     <g id="line2d_15">
      <g>
       <use style="stroke:#000000;stroke-width:0.6;" x="471.694512" xlink:href="#mca9d196df8" y="512.64"/>
      </g>
     </g>
    </g>
    <g id="xtick_16">
     <g id="line2d_16">
      <g>
       <use style="stroke:#000000;stroke-width:0.6;" x="499.882349" xlink:href="#mca9d196df8" y="512.64"/>
      </g>
     </g>
    </g>
    <g id="xtick_17">
     <g id="line2d_17">
      <g>
       <use style="stroke:#000000;stroke-width:0.6;" x="521.746533" xlink:href="#mca9d196df8" y="512.64"/>
      </g>
     </g>
    </g>
    <g id="xtick_18">
     <g id="line2d_18">
      <g>
       <use style="stroke:#000000;stroke-width:0.6;" x="539.610872" xlink:href="#mca9d196df8" y="512.64"/>
      </g>
     </g>
    </g>
    <g id="xtick_19">
     <g id="line2d_19">
      <g>
       <use style="stroke:#000000;stroke-width:0.6;" x="554.714956" xlink:href="#mca9d196df8" y="512.64"/>
      </g>
     </g>
    </g>
    <g id="xtick_20">
     <g id="line2d_20">
      <g>
       <use style="stroke:#000000;stroke-width:0.6;" x="567.798709" xlink:href="#mca9d196df8" y="512.64"/>
      </g>
     </g>
    </g>
    <g id="xtick_21">
     <g id="line2d_21">
      <g>
       <use style="stroke:#000000;stroke-width:0.6;" x="579.339396" xlink:href="#mca9d196df8" y="512.64"/>
      </g>
     </g>
    </g>
    <g id="xtick_22">
     <g id="line2d_22">
      <g>
       <use style="stroke:#000000;stroke-width:0.6;" x="657.579253" xlink:href="#mca9d196df8" y="512.64"/>
      </g>
     </g>
    </g>
    <g id="xtick_23">
     <g id="line2d_23">
      <g>
       <use style="stroke:#000000;stroke-width:0.6;" x="697.307777" xlink:href="#mca9d196df8" y="512.64"/>
      </g>
     </g>
    </g>
    <g id="xtick_24">
     <g id="line2d_24">
      <g>
       <use style="stroke:#000000;stroke-width:0.6;" x="725.495613" xlink:href="#mca9d196df8" y="512.64"/>
      </g>
     </g>
    </g>
    <g id="xtick_25">
     <g id="line2d_25">
      <g>
       <use style="stroke:#000000;stroke-width:0.6;" x="747.359798" xlink:href="#mca9d196df8" y="512.64"/>
      </g>
     </g>
    </g>
    <g id="xtick_26">
     <g id="line2d_26">
      <g>
       <use style="stroke:#000000;stroke-width:0.6;" x="765.224137" xlink:href="#mca9d196df8" y="512.64"/>
      </g>
     </g>
    </g>
    <g id="text_4">
     <!-- Episodes (log scale) -->
     <g transform="translate(392.971875 540.916563)scale(0.1 -0.1)">
      <defs>
       <path d="M 628 4666 
L 3578 4666 
L 3578 4134 
L 1259 4134 
L 1259 2753 
L 3481 2753 
L 3481 2222 
L 1259 2222 
L 1259 531 
L 3634 531 
L 3634 0 
L 628 0 
L 628 4666 
z
" id="DejaVuSans-45" transform="scale(0.015625)"/>
       <path d="M 1159 525 
L 1159 -1331 
L 581 -1331 
L 581 3500 
L 1159 3500 
L 1159 2969 
Q 1341 3281 1617 3432 
Q 1894 3584 2278 3584 
Q 2916 3584 3314 3078 
Q 3713 2572 3713 1747 
Q 3713 922 3314 415 
Q 2916 -91 2278 -91 
Q 1894 -91 1617 61 
Q 1341 213 1159 525 
z
M 3116 1747 
Q 3116 2381 2855 2742 
Q 2594 3103 2138 3103 
Q 1681 3103 1420 2742 
Q 1159 2381 1159 1747 
Q 1159 1113 1420 752 
Q 1681 391 2138 391 
Q 2594 391 2855 752 
Q 3116 1113 3116 1747 
z
" id="DejaVuSans-70" transform="scale(0.015625)"/>
       <path d="M 603 3500 
L 1178 3500 
L 1178 0 
L 603 0 
L 603 3500 
z
M 603 4863 
L 1178 4863 
L 1178 4134 
L 603 4134 
L 603 4863 
z
" id="DejaVuSans-69" transform="scale(0.015625)"/>
       <path d="M 2834 3397 
L 2834 2853 
Q 2591 2978 2328 3040 
Q 2066 3103 1784 3103 
Q 1356 3103 1142 2972 
Q 928 2841 928 2578 
Q 928 2378 1081 2264 
Q 1234 2150 1697 2047 
L 1894 2003 
Q 2506 1872 2764 1633 
Q 3022 1394 3022 966 
Q 3022 478 2636 193 
Q 2250 -91 1575 -91 
Q 1294 -91 989 -36 
Q 684 19 347 128 
L 347 722 
Q 666 556 975 473 
Q 1284 391 1588 391 
Q 1994 391 2212 530 
Q 2431 669 2431 922 
Q 2431 1156 2273 1281 
Q 2116 1406 1581 1522 
L 1381 1569 
Q 847 1681 609 1914 
Q 372 2147 372 2553 
Q 372 3047 722 3315 
Q 1072 3584 1716 3584 
Q 2034 3584 2315 3537 
Q 2597 3491 2834 3397 
z
" id="DejaVuSans-73" transform="scale(0.015625)"/>
       <path d="M 1959 3097 
Q 1497 3097 1228 2736 
Q 959 2375 959 1747 
Q 959 1119 1226 758 
Q 1494 397 1959 397 
Q 2419 397 2687 759 
Q 2956 1122 2956 1747 
Q 2956 2369 2687 2733 
Q 2419 3097 1959 3097 
z
M 1959 3584 
Q 2709 3584 3137 3096 
Q 3566 2609 3566 1747 
Q 3566 888 3137 398 
Q 2709 -91 1959 -91 
Q 1206 -91 779 398 
Q 353 888 353 1747 
Q 353 2609 779 3096 
Q 1206 3584 1959 3584 
z
" id="DejaVuSans-6f" transform="scale(0.015625)"/>
       <path d="M 2906 2969 
L 2906 4863 
L 3481 4863 
L 3481 0 
L 2906 0 
L 2906 525 
Q 2725 213 2448 61 
Q 2172 -91 1784 -91 
Q 1150 -91 751 415 
Q 353 922 353 1747 
Q 353 2572 751 3078 
Q 1150 3584 1784 3584 
Q 2172 3584 2448 3432 
Q 2725 3281 2906 2969 
z
M 947 1747 
Q 947 1113 1208 752 
Q 1469 391 1925 391 
Q 2381 391 2643 752 
Q 2906 1113 2906 1747 
Q 2906 2381 2643 2742 
Q 2381 3103 1925 3103 
Q 1469 3103 1208 2742 
Q 947 2381 947 1747 
z
" id="DejaVuSans-64" transform="scale(0.015625)"/>
       <path d="M 3597 1894 
L 3597 1613 
L 953 1613 
Q 991 1019 1311 708 
Q 1631 397 2203 397 
Q 2534 397 2845 478 
Q 3156 559 3463 722 
L 3463 178 
Q 3153 47 2828 -22 
Q 2503 -91 2169 -91 
Q 1331 -91 842 396 
Q 353 884 353 1716 
Q 353 2575 817 3079 
Q 1281 3584 2069 3584 
Q 2775 3584 3186 3129 
Q 3597 2675 3597 1894 
z
M 3022 2063 
Q 3016 2534 2758 2815 
Q 2500 3097 2075 3097 
Q 1594 3097 1305 2825 
Q 1016 2553 972 2059 
L 3022 2063 
z
" id="DejaVuSans-65" transform="scale(0.015625)"/>
       <path id="DejaVuSans-20" transform="scale(0.015625)"/>
       <path d="M 1984 4856 
Q 1566 4138 1362 3434 
Q 1159 2731 1159 2009 
Q 1159 1288 1364 580 
Q 1569 -128 1984 -844 
L 1484 -844 
Q 1016 -109 783 600 
Q 550 1309 550 2009 
Q 550 2706 781 3412 
Q 1013 4119 1484 4856 
L 1984 4856 
z
" id="DejaVuSans-28" transform="scale(0.015625)"/>
       <path d="M 603 4863 
L 1178 4863 
L 1178 0 
L 603 0 
L 603 4863 
z
" id="DejaVuSans-6c" transform="scale(0.015625)"/>
       <path d="M 2906 1791 
Q 2906 2416 2648 2759 
Q 2391 3103 1925 3103 
Q 1463 3103 1205 2759 
Q 947 2416 947 1791 
Q 947 1169 1205 825 
Q 1463 481 1925 481 
Q 2391 481 2648 825 
Q 2906 1169 2906 1791 
z
M 3481 434 
Q 3481 -459 3084 -895 
Q 2688 -1331 1869 -1331 
Q 1566 -1331 1297 -1286 
Q 1028 -1241 775 -1147 
L 775 -588 
Q 1028 -725 1275 -790 
Q 1522 -856 1778 -856 
Q 2344 -856 2625 -561 
Q 2906 -266 2906 331 
L 2906 616 
Q 2728 306 2450 153 
Q 2172 0 1784 0 
Q 1141 0 747 490 
Q 353 981 353 1791 
Q 353 2603 747 3093 
Q 1141 3584 1784 3584 
Q 2172 3584 2450 3431 
Q 2728 3278 2906 2969 
L 2906 3500 
L 3481 3500 
L 3481 434 
z
" id="DejaVuSans-67" transform="scale(0.015625)"/>
       <path d="M 3122 3366 
L 3122 2828 
Q 2878 2963 2633 3030 
Q 2388 3097 2138 3097 
Q 1578 3097 1268 2742 
Q 959 2388 959 1747 
Q 959 1106 1268 751 
Q 1578 397 2138 397 
Q 2388 397 2633 464 
Q 2878 531 3122 666 
L 3122 134 
Q 2881 22 2623 -34 
Q 2366 -91 2075 -91 
Q 1284 -91 818 406 
Q 353 903 353 1747 
Q 353 2603 823 3093 
Q 1294 3584 2113 3584 
Q 2378 3584 2631 3529 
Q 2884 3475 3122 3366 
z
" id="DejaVuSans-63" transform="scale(0.015625)"/>
       <path d="M 2194 1759 
Q 1497 1759 1228 1600 
Q 959 1441 959 1056 
Q 959 750 1161 570 
Q 1363 391 1709 391 
Q 2188 391 2477 730 
Q 2766 1069 2766 1631 
L 2766 1759 
L 2194 1759 
z
M 3341 1997 
L 3341 0 
L 2766 0 
L 2766 531 
Q 2569 213 2275 61 
Q 1981 -91 1556 -91 
Q 1019 -91 701 211 
Q 384 513 384 1019 
Q 384 1609 779 1909 
Q 1175 2209 1959 2209 
L 2766 2209 
L 2766 2266 
Q 2766 2663 2505 2880 
Q 2244 3097 1772 3097 
Q 1472 3097 1187 3025 
Q 903 2953 641 2809 
L 641 3341 
Q 956 3463 1253 3523 
Q 1550 3584 1831 3584 
Q 2591 3584 2966 3190 
Q 3341 2797 3341 1997 
z
" id="DejaVuSans-61" transform="scale(0.015625)"/>
       <path d="M 513 4856 
L 1013 4856 
Q 1481 4119 1714 3412 
Q 1947 2706 1947 2009 
Q 1947 1309 1714 600 
Q 1481 -109 1013 -844 
L 513 -844 
Q 928 -128 1133 580 
Q 1338 1288 1338 2009 
Q 1338 2731 1133 3434 
Q 928 4138 513 4856 
z
" id="DejaVuSans-29" transform="scale(0.015625)"/>
      </defs>
      <use xlink:href="#DejaVuSans-45"/>
      <use x="63.183594" xlink:href="#DejaVuSans-70"/>
      <use x="126.660156" xlink:href="#DejaVuSans-69"/>
      <use x="154.443359" xlink:href="#DejaVuSans-73"/>
      <use x="206.542969" xlink:href="#DejaVuSans-6f"/>
      <use x="267.724609" xlink:href="#DejaVuSans-64"/>
      <use x="331.201172" xlink:href="#DejaVuSans-65"/>
      <use x="392.724609" xlink:href="#DejaVuSans-73"/>
      <use x="444.824219" xlink:href="#DejaVuSans-20"/>
      <use x="476.611328" xlink:href="#DejaVuSans-28"/>
      <use x="515.625" xlink:href="#DejaVuSans-6c"/>
      <use x="543.408203" xlink:href="#DejaVuSans-6f"/>
      <use x="604.589844" xlink:href="#DejaVuSans-67"/>
      <use x="668.066406" xlink:href="#DejaVuSans-20"/>
      <use x="699.853516" xlink:href="#DejaVuSans-73"/>
      <use x="751.953125" xlink:href="#DejaVuSans-63"/>
      <use x="806.933594" xlink:href="#DejaVuSans-61"/>
      <use x="868.212891" xlink:href="#DejaVuSans-6c"/>
      <use x="895.996094" xlink:href="#DejaVuSans-65"/>
      <use x="957.519531" xlink:href="#DejaVuSans-29"/>
     </g>
    </g>
   </g>
   <g id="matplotlib.axis_2">
    <g id="ytick_1">
     <g id="line2d_27">
      <defs>
       <path d="M 0 0 
L -3.5 0 
" id="mb3f13a211e" style="stroke:#000000;stroke-width:0.8;"/>
      </defs>
      <g>
       <use style="stroke:#000000;stroke-width:0.8;" x="108" xlink:href="#mb3f13a211e" y="492.48"/>
      </g>
     </g>
     <g id="text_5">
      <!-- 0.0 -->
      <g transform="translate(85.096875 496.279219)scale(0.1 -0.1)">
       <defs>
        <path d="M 684 794 
L 1344 794 
L 1344 0 
L 684 0 
L 684 794 
z
" id="DejaVuSans-2e" transform="scale(0.015625)"/>
       </defs>
       <use xlink:href="#DejaVuSans-30"/>
       <use x="63.623047" xlink:href="#DejaVuSans-2e"/>
       <use x="95.410156" xlink:href="#DejaVuSans-30"/>
      </g>
     </g>
    </g>
    <g id="ytick_2">
     <g id="line2d_28">
      <g>
       <use style="stroke:#000000;stroke-width:0.8;" x="108" xlink:href="#mb3f13a211e" y="411.246394"/>
      </g>
     </g>
     <g id="text_6">
      <!-- 0.2 -->
      <g transform="translate(85.096875 415.045613)scale(0.1 -0.1)">
       <use xlink:href="#DejaVuSans-30"/>
       <use x="63.623047" xlink:href="#DejaVuSans-2e"/>
       <use x="95.410156" xlink:href="#DejaVuSans-32"/>
      </g>
     </g>
    </g>
    <g id="ytick_3">
     <g id="line2d_29">
      <g>
       <use style="stroke:#000000;stroke-width:0.8;" x="108" xlink:href="#mb3f13a211e" y="330.012788"/>
      </g>
     </g>
     <g id="text_7">
      <!-- 0.4 -->
      <g transform="translate(85.096875 333.812007)scale(0.1 -0.1)">
       <defs>
        <path d="M 2419 4116 
L 825 1625 
L 2419 1625 
L 2419 4116 
z
M 2253 4666 
L 3047 4666 
L 3047 1625 
L 3713 1625 
L 3713 1100 
L 3047 1100 
L 3047 0 
L 2419 0 
L 2419 1100 
L 313 1100 
L 313 1709 
L 2253 4666 
z
" id="DejaVuSans-34" transform="scale(0.015625)"/>
       </defs>
       <use xlink:href="#DejaVuSans-30"/>
       <use x="63.623047" xlink:href="#DejaVuSans-2e"/>
       <use x="95.410156" xlink:href="#DejaVuSans-34"/>
      </g>
     </g>
    </g>
    <g id="ytick_4">
     <g id="line2d_30">
      <g>
       <use style="stroke:#000000;stroke-width:0.8;" x="108" xlink:href="#mb3f13a211e" y="248.779182"/>
      </g>
     </g>
     <g id="text_8">
      <!-- 0.6 -->
      <g transform="translate(85.096875 252.578401)scale(0.1 -0.1)">
       <defs>
        <path d="M 2113 2584 
Q 1688 2584 1439 2293 
Q 1191 2003 1191 1497 
Q 1191 994 1439 701 
Q 1688 409 2113 409 
Q 2538 409 2786 701 
Q 3034 994 3034 1497 
Q 3034 2003 2786 2293 
Q 2538 2584 2113 2584 
z
M 3366 4563 
L 3366 3988 
Q 3128 4100 2886 4159 
Q 2644 4219 2406 4219 
Q 1781 4219 1451 3797 
Q 1122 3375 1075 2522 
Q 1259 2794 1537 2939 
Q 1816 3084 2150 3084 
Q 2853 3084 3261 2657 
Q 3669 2231 3669 1497 
Q 3669 778 3244 343 
Q 2819 -91 2113 -91 
Q 1303 -91 875 529 
Q 447 1150 447 2328 
Q 447 3434 972 4092 
Q 1497 4750 2381 4750 
Q 2619 4750 2861 4703 
Q 3103 4656 3366 4563 
z
" id="DejaVuSans-36" transform="scale(0.015625)"/>
       </defs>
       <use xlink:href="#DejaVuSans-30"/>
       <use x="63.623047" xlink:href="#DejaVuSans-2e"/>
       <use x="95.410156" xlink:href="#DejaVuSans-36"/>
      </g>
     </g>
    </g>
    <g id="ytick_5">
     <g id="line2d_31">
      <g>
       <use style="stroke:#000000;stroke-width:0.8;" x="108" xlink:href="#mb3f13a211e" y="167.545577"/>
      </g>
     </g>
     <g id="text_9">
      <!-- 0.8 -->
      <g transform="translate(85.096875 171.344795)scale(0.1 -0.1)">
       <defs>
        <path d="M 2034 2216 
Q 1584 2216 1326 1975 
Q 1069 1734 1069 1313 
Q 1069 891 1326 650 
Q 1584 409 2034 409 
Q 2484 409 2743 651 
Q 3003 894 3003 1313 
Q 3003 1734 2745 1975 
Q 2488 2216 2034 2216 
z
M 1403 2484 
Q 997 2584 770 2862 
Q 544 3141 544 3541 
Q 544 4100 942 4425 
Q 1341 4750 2034 4750 
Q 2731 4750 3128 4425 
Q 3525 4100 3525 3541 
Q 3525 3141 3298 2862 
Q 3072 2584 2669 2484 
Q 3125 2378 3379 2068 
Q 3634 1759 3634 1313 
Q 3634 634 3220 271 
Q 2806 -91 2034 -91 
Q 1263 -91 848 271 
Q 434 634 434 1313 
Q 434 1759 690 2068 
Q 947 2378 1403 2484 
z
M 1172 3481 
Q 1172 3119 1398 2916 
Q 1625 2713 2034 2713 
Q 2441 2713 2670 2916 
Q 2900 3119 2900 3481 
Q 2900 3844 2670 4047 
Q 2441 4250 2034 4250 
Q 1625 4250 1398 4047 
Q 1172 3844 1172 3481 
z
" id="DejaVuSans-38" transform="scale(0.015625)"/>
       </defs>
       <use xlink:href="#DejaVuSans-30"/>
       <use x="63.623047" xlink:href="#DejaVuSans-2e"/>
       <use x="95.410156" xlink:href="#DejaVuSans-38"/>
      </g>
     </g>
    </g>
    <g id="ytick_6">
     <g id="line2d_32">
      <g>
       <use style="stroke:#000000;stroke-width:0.8;" x="108" xlink:href="#mb3f13a211e" y="86.311971"/>
      </g>
     </g>
     <g id="text_10">
      <!-- 1.0 -->
      <g transform="translate(85.096875 90.111189)scale(0.1 -0.1)">
       <use xlink:href="#DejaVuSans-31"/>
       <use x="63.623047" xlink:href="#DejaVuSans-2e"/>
       <use x="95.410156" xlink:href="#DejaVuSans-30"/>
      </g>
     </g>
    </g>
    <g id="text_11">
     <!-- State-Value Function -->
     <g transform="translate(79.017187 342.210469)rotate(-90)scale(0.1 -0.1)">
      <defs>
       <path d="M 3425 4513 
L 3425 3897 
Q 3066 4069 2747 4153 
Q 2428 4238 2131 4238 
Q 1616 4238 1336 4038 
Q 1056 3838 1056 3469 
Q 1056 3159 1242 3001 
Q 1428 2844 1947 2747 
L 2328 2669 
Q 3034 2534 3370 2195 
Q 3706 1856 3706 1288 
Q 3706 609 3251 259 
Q 2797 -91 1919 -91 
Q 1588 -91 1214 -16 
Q 841 59 441 206 
L 441 856 
Q 825 641 1194 531 
Q 1563 422 1919 422 
Q 2459 422 2753 634 
Q 3047 847 3047 1241 
Q 3047 1584 2836 1778 
Q 2625 1972 2144 2069 
L 1759 2144 
Q 1053 2284 737 2584 
Q 422 2884 422 3419 
Q 422 4038 858 4394 
Q 1294 4750 2059 4750 
Q 2388 4750 2728 4690 
Q 3069 4631 3425 4513 
z
" id="DejaVuSans-53" transform="scale(0.015625)"/>
       <path d="M 1172 4494 
L 1172 3500 
L 2356 3500 
L 2356 3053 
L 1172 3053 
L 1172 1153 
Q 1172 725 1289 603 
Q 1406 481 1766 481 
L 2356 481 
L 2356 0 
L 1766 0 
Q 1100 0 847 248 
Q 594 497 594 1153 
L 594 3053 
L 172 3053 
L 172 3500 
L 594 3500 
L 594 4494 
L 1172 4494 
z
" id="DejaVuSans-74" transform="scale(0.015625)"/>
       <path d="M 313 2009 
L 1997 2009 
L 1997 1497 
L 313 1497 
L 313 2009 
z
" id="DejaVuSans-2d" transform="scale(0.015625)"/>
       <path d="M 1831 0 
L 50 4666 
L 709 4666 
L 2188 738 
L 3669 4666 
L 4325 4666 
L 2547 0 
L 1831 0 
z
" id="DejaVuSans-56" transform="scale(0.015625)"/>
       <path d="M 544 1381 
L 544 3500 
L 1119 3500 
L 1119 1403 
Q 1119 906 1312 657 
Q 1506 409 1894 409 
Q 2359 409 2629 706 
Q 2900 1003 2900 1516 
L 2900 3500 
L 3475 3500 
L 3475 0 
L 2900 0 
L 2900 538 
Q 2691 219 2414 64 
Q 2138 -91 1772 -91 
Q 1169 -91 856 284 
Q 544 659 544 1381 
z
M 1991 3584 
L 1991 3584 
z
" id="DejaVuSans-75" transform="scale(0.015625)"/>
       <path d="M 628 4666 
L 3309 4666 
L 3309 4134 
L 1259 4134 
L 1259 2759 
L 3109 2759 
L 3109 2228 
L 1259 2228 
L 1259 0 
L 628 0 
L 628 4666 
z
" id="DejaVuSans-46" transform="scale(0.015625)"/>
       <path d="M 3513 2113 
L 3513 0 
L 2938 0 
L 2938 2094 
Q 2938 2591 2744 2837 
Q 2550 3084 2163 3084 
Q 1697 3084 1428 2787 
Q 1159 2491 1159 1978 
L 1159 0 
L 581 0 
L 581 3500 
L 1159 3500 
L 1159 2956 
Q 1366 3272 1645 3428 
Q 1925 3584 2291 3584 
Q 2894 3584 3203 3211 
Q 3513 2838 3513 2113 
z
" id="DejaVuSans-6e" transform="scale(0.015625)"/>
      </defs>
      <use xlink:href="#DejaVuSans-53"/>
      <use x="63.476562" xlink:href="#DejaVuSans-74"/>
      <use x="102.685547" xlink:href="#DejaVuSans-61"/>
      <use x="163.964844" xlink:href="#DejaVuSans-74"/>
      <use x="203.173828" xlink:href="#DejaVuSans-65"/>
      <use x="264.697266" xlink:href="#DejaVuSans-2d"/>
      <use x="294.90625" xlink:href="#DejaVuSans-56"/>
      <use x="355.564453" xlink:href="#DejaVuSans-61"/>
      <use x="416.84375" xlink:href="#DejaVuSans-6c"/>
      <use x="444.626953" xlink:href="#DejaVuSans-75"/>
      <use x="508.005859" xlink:href="#DejaVuSans-65"/>
      <use x="569.529297" xlink:href="#DejaVuSans-20"/>
      <use x="601.316406" xlink:href="#DejaVuSans-46"/>
      <use x="653.335938" xlink:href="#DejaVuSans-75"/>
      <use x="716.714844" xlink:href="#DejaVuSans-6e"/>
      <use x="780.09375" xlink:href="#DejaVuSans-63"/>
      <use x="835.074219" xlink:href="#DejaVuSans-74"/>
      <use x="874.283203" xlink:href="#DejaVuSans-69"/>
      <use x="902.066406" xlink:href="#DejaVuSans-6f"/>
      <use x="963.248047" xlink:href="#DejaVuSans-6e"/>
     </g>
    </g>
   </g>
   <g id="line2d_33">
    <path clip-path="url(#pb3c5185bf8)" d="M -1 492.48 
L 274.269084 492.48 
L 296.133268 315.669722 
L 313.997608 396.152365 
L 329.101691 463.14184 
L 342.185444 483.317857 
L 353.726132 489.548142 
L 364.049628 333.740537 
L 373.388367 190.532115 
L 389.75676 430.503488 
L 397.018052 470.289623 
L 403.778152 479.0636 
L 410.101804 487.475581 
L 421.642492 487.475581 
L 426.940138 490.502598 
L 436.746575 491.966142 
L 441.304727 491.966142 
L 445.660226 492.145412 
L 449.830328 492.145412 
L 453.830173 219.788521 
L 457.67312 310.55985 
L 461.371016 370.175742 
L 464.934412 370.175742 
L 468.37275 453.616127 
L 471.694512 453.616127 
L 474.907344 473.859841 
L 478.018164 479.502519 
L 481.033251 479.502519 
L 483.958322 371.001845 
L 492.243474 371.001845 
L 494.856498 404.515728 
L 497.401644 479.342163 
L 499.882349 394.02812 
L 504.662936 394.02812 
L 506.968515 419.145318 
L 509.221087 339.570472 
L 511.423036 339.570472 
L 513.576587 404.952976 
L 515.68382 425.928161 
L 517.746688 267.251595 
L 521.746533 267.251595 
L 523.686846 357.237935 
L 525.58948 357.237935 
L 527.455872 386.743243 
L 529.287376 386.743243 
L 531.085272 331.430535 
L 532.850772 331.430535 
L 534.585022 364.434349 
L 536.28911 316.159021 
L 537.964067 379.243642 
L 541.230456 379.243642 
L 542.823704 418.095176 
L 544.391459 443.261278 
L 545.934524 452.301186 
L 547.453665 452.301186 
L 548.949611 459.453376 
L 550.423062 366.831961 
L 551.874682 406.446764 
L 553.30511 361.127962 
L 556.104804 361.127962 
L 557.475212 382.414423 
L 558.826717 427.13656 
L 560.159835 427.13656 
L 561.475057 445.781702 
L 562.772859 458.916805 
L 564.053695 477.57561 
L 565.318004 485.770345 
L 566.566207 485.770345 
L 569.015899 487.539197 
L 570.218155 488.813724 
L 571.405837 489.313917 
L 572.579296 490.425974 
L 573.738867 490.425974 
L 578.244607 491.438301 
L 582.552228 491.856393 
L 583.60018 491.856393 
L 584.637043 492.044915 
L 588.678135 492.324591 
L 589.662893 453.15138 
L 591.603206 460.77525 
L 592.559141 425.786923 
L 593.50584 438.244672 
L 594.44348 438.244672 
L 595.372232 443.407516 
L 596.292263 319.110631 
L 597.203736 319.110631 
L 599.001632 348.951641 
L 599.888358 393.200122 
L 600.767132 409.662185 
L 601.638094 384.102806 
L 602.501382 384.102806 
L 603.357131 393.064327 
L 605.046528 393.064327 
L 605.880427 400.907847 
L 606.70729 321.362827 
L 607.527233 357.691373 
L 608.340371 341.275622 
L 609.146816 341.275622 
L 609.946679 362.5341 
L 610.740065 409.391801 
L 611.527078 415.267024 
L 612.30782 415.267024 
L 613.850884 434.222244 
L 614.613399 434.222244 
L 615.370025 438.031668 
L 616.865971 438.031668 
L 618.339422 444.564381 
L 619.06792 450.183914 
L 619.791042 457.29674 
L 620.508867 461.29973 
L 621.22147 473.097417 
L 622.631316 475.220596 
L 623.328704 476.170712 
L 624.021164 477.890558 
L 624.708764 478.668949 
L 626.069655 478.668949 
L 626.743078 479.372019 
L 627.411903 479.372019 
L 628.076195 480.018737 
L 628.736013 481.19987 
L 629.391417 481.739259 
L 630.042467 466.606142 
L 631.33173 466.606142 
L 631.970055 470.950852 
L 633.234364 472.798622 
L 633.860453 472.798622 
L 634.482567 474.424346 
L 635.715069 474.424346 
L 636.325554 446.262748 
L 636.93226 448.094394 
L 637.535231 434.603565 
L 638.134515 436.826606 
L 639.910683 436.826606 
L 640.495656 438.83456 
L 641.077157 438.83456 
L 642.801235 444.186702 
L 643.369252 445.797977 
L 643.933994 452.977272 
L 644.495501 455.490715 
L 645.053808 426.256053 
L 645.608951 428.331512 
L 646.160967 428.331512 
L 646.709891 430.279983 
L 647.798598 430.279983 
L 648.338448 435.532704 
L 649.409307 438.711418 
L 649.940379 429.624008 
L 653.067749 429.624008 
L 653.579408 432.700972 
L 654.594781 432.700972 
L 655.098549 435.494717 
L 655.59974 435.494717 
L 656.09838 438.076793 
L 657.088111 438.076793 
L 657.579253 441.568263 
L 658.067946 442.664277 
L 658.554212 444.753438 
L 659.038078 444.753438 
L 660.475501 447.590833 
L 660.949994 440.823976 
L 661.422201 446.522815 
L 661.892142 446.522815 
L 662.35984 447.382202 
L 663.288592 447.382202 
L 663.749688 448.186844 
L 665.120096 448.186844 
L 665.572672 448.929181 
L 666.917992 448.929181 
L 667.362358 449.61479 
L 668.683492 449.61479 
L 669.119941 450.873162 
L 669.554454 450.873162 
L 669.987049 441.496649 
L 670.417743 442.215995 
L 670.846551 442.215995 
L 671.273491 443.581285 
L 672.121831 444.878925 
L 672.543262 444.878925 
L 672.962888 437.84208 
L 673.380725 433.793584 
L 673.796788 419.724058 
L 674.211091 420.61575 
L 674.62365 422.339465 
L 675.034479 418.538135 
L 675.851005 420.24409 
L 676.256731 422.672433 
L 676.660783 422.672433 
L 677.863039 424.912876 
L 678.260535 427.015127 
L 678.656425 420.586376 
L 679.050721 420.586376 
L 679.443438 421.31665 
L 679.834586 422.755021 
L 680.22418 419.5001 
L 680.61223 419.5001 
L 680.99875 416.434407 
L 682.149243 416.434407 
L 682.529759 417.206856 
L 682.908802 417.206856 
L 683.286385 417.971459 
L 683.662518 420.218982 
L 684.037213 421.67954 
L 684.410481 418.667467 
L 684.782332 420.159384 
L 685.152777 420.893996 
L 686.255782 420.893996 
L 686.620708 421.621146 
L 686.98428 418.377743 
L 688.066972 418.377743 
L 688.782177 419.875516 
L 689.492198 414.058804 
L 689.845289 414.058804 
L 690.896991 416.424352 
L 691.591906 416.424352 
L 692.281927 417.961607 
L 692.625124 417.961607 
L 693.307932 419.467791 
L 693.64756 419.467791 
L 693.986015 420.209428 
L 694.323305 422.389444 
L 694.659438 423.806131 
L 695.660972 423.806131 
L 695.992555 424.503701 
L 696.323019 424.503701 
L 696.980623 425.877654 
L 697.633843 425.877654 
L 697.958827 426.554182 
L 698.282736 428.542811 
L 698.927361 429.835125 
L 699.24809 432.952785 
L 699.567772 434.748402 
L 699.886415 434.748402 
L 700.204025 435.915287 
L 700.836173 435.915287 
L 701.464269 438.178778 
L 701.776813 431.468316 
L 702.088364 432.088055 
L 703.324754 432.088055 
L 703.631429 433.308712 
L 704.241914 434.504696 
L 704.545737 434.504696 
L 704.84862 431.209292 
L 705.150569 431.209292 
L 705.451591 419.315552 
L 705.751691 413.141738 
L 706.050875 413.947633 
L 706.349148 415.534948 
L 706.942984 415.534948 
L 707.238558 416.316534 
L 707.827043 420.106976 
L 708.119966 421.569797 
L 708.412016 418.558839 
L 708.993517 418.558839 
L 709.282978 420.052952 
L 710.432347 420.052952 
L 710.717595 420.788645 
L 711.002015 420.788645 
L 711.285612 424.356522 
L 711.56839 424.356522 
L 711.850354 425.048501 
L 712.13151 425.048501 
L 712.411861 425.733451 
L 712.691412 425.733451 
L 712.970168 427.082548 
L 713.525311 427.082548 
L 713.801708 423.939834 
L 714.352174 423.939834 
L 715.443913 426.682534 
L 715.714958 429.315483 
L 716.254808 429.315483 
L 716.7917 430.592179 
L 717.059047 431.843071 
L 717.325667 433.672163 
L 717.591563 434.269516 
L 717.856739 434.269516 
L 718.1212 434.860801 
L 718.384948 436.025414 
L 718.910326 437.166488 
L 719.432901 437.166488 
L 719.693147 437.728347 
L 719.952703 437.728347 
L 720.211574 438.284498 
L 720.727273 438.284498 
L 720.984109 438.835001 
L 721.240273 440.453183 
L 721.495768 440.453183 
L 721.7506 440.981656 
L 722.00477 442.022553 
L 722.258283 442.535086 
L 722.511141 442.535086 
L 722.763349 443.544584 
L 723.014909 443.544584 
L 723.265825 445.502782 
L 723.5161 445.979963 
L 723.765737 445.979963 
L 724.263112 446.919833 
L 724.510855 446.919833 
L 724.757974 447.840706 
L 725.004472 447.840706 
L 725.740264 449.187235 
L 726.470573 449.187235 
L 726.712804 449.62699 
L 726.954438 449.62699 
L 727.195478 450.062279 
L 728.153751 450.062279 
L 728.629395 450.919636 
L 728.866354 452.17329 
L 729.102742 452.17329 
L 729.338561 452.987979 
L 729.573813 449.504827 
L 729.808502 449.941356 
L 730.04263 443.596356 
L 730.2762 444.092902 
L 731.204952 444.092902 
L 731.435771 444.584405 
L 731.666048 444.584405 
L 732.124983 446.500993 
L 733.036456 446.500993 
L 733.263005 447.887933 
L 733.939528 449.233037 
L 734.387961 442.299143 
L 734.611411 442.808866 
L 735.278718 442.808866 
L 735.500148 445.280859 
L 735.721079 445.760294 
L 736.161451 445.760294 
L 736.81832 447.169578 
L 737.036301 447.169578 
L 737.470814 448.085403 
L 738.118993 448.085403 
L 738.334103 449.861895 
L 738.762911 449.861895 
L 738.976614 450.294798 
L 739.189851 443.494823 
L 739.402626 443.9924 
L 739.614939 445.455011 
L 739.826793 441.96951 
L 740.038191 442.482581 
L 740.459622 444.970813 
L 740.66966 444.970813 
L 740.879248 446.871938 
L 741.088389 447.335212 
L 741.297085 448.247689 
L 741.505337 448.247689 
L 741.713148 448.696988 
L 741.920518 450.875946 
L 742.127451 450.875946 
L 742.333948 452.130917 
L 742.54001 452.540772 
L 742.74564 449.433572 
L 743.155609 450.732052 
L 743.767365 450.732052 
L 743.970438 451.156115 
L 744.375326 451.156115 
L 744.577144 447.691571 
L 744.778547 448.146519 
L 744.979537 441.531621 
L 745.180115 441.531621 
L 745.779399 444.558943 
L 746.176895 444.558943 
L 746.967081 446.476549 
L 747.163636 443.636522 
L 747.163636 443.636522 
" style="fill:none;stroke:#1f77b4;stroke-linecap:square;stroke-width:1.5;"/>
   </g>
   <g id="line2d_34">
    <path clip-path="url(#pb3c5185bf8)" d="M -1 432.202953 
L 747.163636 432.202953 
L 747.163636 432.202953 
" style="fill:none;stroke:#000000;stroke-dasharray:5.55,2.4;stroke-dashoffset:0;stroke-width:1.5;"/>
   </g>
   <g id="line2d_35">
    <path clip-path="url(#pb3c5185bf8)" d="M -1 302.465238 
L 138.436364 302.34773 
L 206.352724 479.063077 
L 246.081248 301.189888 
L 274.269084 438.678283 
L 296.133268 162.813879 
L 313.997608 312.875296 
L 329.101691 489.6797 
L 342.185444 492.327379 
L 353.726132 492.431162 
L 364.049628 169.940083 
L 373.388367 119.252296 
L 381.913968 364.489883 
L 389.75676 416.70545 
L 397.018052 476.245844 
L 403.778152 476.245844 
L 410.101804 490.221267 
L 416.041962 217.281539 
L 421.642492 217.281539 
L 426.940138 383.74053 
L 431.965988 383.74053 
L 436.746575 447.935009 
L 449.830328 447.935009 
L 453.830173 142.230639 
L 457.67312 258.818806 
L 464.934412 258.818806 
L 468.37275 383.673145 
L 471.694512 383.673145 
L 474.907344 417.166139 
L 481.033251 417.166139 
L 483.958322 214.599905 
L 492.243474 214.599905 
L 494.856498 416.080602 
L 497.401644 486.42594 
L 502.301795 172.469859 
L 504.662936 139.709892 
L 506.968515 383.879108 
L 509.221087 312.171905 
L 511.423036 312.171905 
L 513.576587 433.401366 
L 515.68382 458.32406 
L 517.746688 165.065146 
L 521.746533 165.065146 
L 523.686846 295.878416 
L 525.58948 295.878416 
L 527.455872 372.30465 
L 529.287376 372.30465 
L 531.085272 211.789562 
L 532.850772 211.789562 
L 534.585022 315.045237 
L 536.28911 245.99508 
L 537.964067 365.623359 
L 541.230456 365.623359 
L 542.823704 409.148028 
L 544.391459 437.341157 
L 545.934524 447.468402 
L 547.453665 388.516851 
L 548.949611 434.739487 
L 550.423062 209.744988 
L 551.874682 332.286309 
L 553.30511 222.522974 
L 556.104804 222.522974 
L 557.475212 266.271284 
L 558.826717 358.185009 
L 560.159835 317.378466 
L 561.475057 386.69148 
L 562.772859 402.795031 
L 564.053695 474.794331 
L 565.318004 485.692893 
L 567.798709 485.692893 
L 569.015899 486.6483 
L 570.218155 488.752338 
L 571.405837 488.752338 
L 572.579296 490.38646 
L 573.738867 441.601571 
L 574.884875 453.985522 
L 576.017634 458.918701 
L 577.137448 466.8529 
L 578.244607 470.035896 
L 579.339396 470.035896 
L 580.422088 477.204641 
L 581.492947 479.014899 
L 582.552228 435.521318 
L 583.60018 435.521318 
L 584.637043 461.21937 
L 586.678421 461.21937 
L 587.683379 478.421698 
L 588.678135 483.508421 
L 589.662893 409.451362 
L 590.637852 409.451362 
L 591.603206 448.748532 
L 592.559141 384.50077 
L 593.50584 421.072594 
L 594.44348 421.072594 
L 595.372232 453.298786 
L 596.292263 305.939398 
L 599.001632 305.939398 
L 599.888358 403.227498 
L 600.767132 410.962347 
L 601.638094 361.78072 
L 602.501382 361.78072 
L 603.357131 382.501674 
L 604.205471 359.372556 
L 605.046528 359.372556 
L 605.880427 396.664314 
L 606.70729 288.667241 
L 607.527233 366.02073 
L 608.340371 333.19546 
L 609.146816 333.19546 
L 609.946679 355.589962 
L 610.740065 417.073718 
L 611.527078 440.22086 
L 612.30782 440.22086 
L 613.850884 453.050096 
L 614.613399 430.013386 
L 615.370025 434.098024 
L 616.865971 434.098024 
L 618.339422 441.102695 
L 619.791042 459.146023 
L 620.508867 461.09956 
L 621.22147 476.158306 
L 622.631316 477.946194 
L 623.328704 479.502299 
L 624.021164 481.499976 
L 625.391572 481.499976 
L 626.069655 462.094476 
L 626.743078 463.641291 
L 627.411903 463.641291 
L 629.391417 467.643053 
L 630.042467 371.076948 
L 631.33173 371.076948 
L 631.970055 396.000143 
L 632.604249 396.000143 
L 633.234364 400.200144 
L 633.860453 400.200144 
L 634.482567 411.394444 
L 635.100756 411.394444 
L 635.715069 398.915442 
L 636.325554 341.038877 
L 636.93226 341.038877 
L 637.535231 322.766868 
L 638.134515 335.553887 
L 639.910683 335.553887 
L 640.495656 341.215725 
L 641.077157 341.215725 
L 641.655227 346.505129 
L 642.229906 346.505129 
L 642.801235 356.231805 
L 643.369252 360.777638 
L 643.933994 401.269701 
L 644.495501 412.507332 
L 645.053808 370.887895 
L 645.608951 378.389865 
L 646.160967 378.389865 
L 646.709891 385.21544 
L 647.798598 385.21544 
L 648.338448 397.119967 
L 648.87534 397.119967 
L 649.409307 404.931926 
L 649.940379 371.039352 
L 650.468588 371.039352 
L 650.993965 336.587737 
L 652.036343 324.480027 
L 653.067749 324.480027 
L 653.579408 332.704062 
L 654.594781 332.704062 
L 655.098549 340.171117 
L 655.59974 340.171117 
L 656.09838 347.072426 
L 657.088111 347.072426 
L 657.579253 353.362221 
L 658.067946 356.35711 
L 658.554212 362.065804 
L 659.519566 362.065804 
L 660.475501 367.246715 
L 660.949994 352.189328 
L 661.422201 367.666594 
L 661.892142 367.666594 
L 662.35984 370.00057 
L 663.288592 370.00057 
L 663.749688 372.185868 
L 664.665419 372.185868 
L 665.120096 367.658053 
L 666.023168 367.658053 
L 666.471601 359.601846 
L 666.917992 355.424569 
L 667.362358 357.582198 
L 667.804718 353.686479 
L 668.683492 353.686479 
L 669.119941 361.715845 
L 669.554454 361.715845 
L 669.987049 351.527112 
L 670.846551 351.527112 
L 671.273491 355.355729 
L 672.121831 369.342148 
L 672.543262 369.342148 
L 672.962888 352.547456 
L 673.380725 343.603819 
L 673.796788 321.956157 
L 674.211091 326.110401 
L 674.62365 332.060103 
L 675.034479 326.633571 
L 675.443593 330.48967 
L 675.851005 330.48967 
L 676.256731 335.935273 
L 677.063177 335.935273 
L 677.463924 337.62812 
L 677.863039 337.62812 
L 678.260535 351.637036 
L 678.656425 346.677236 
L 679.050721 344.312801 
L 679.443438 347.307593 
L 679.834586 351.686667 
L 680.22418 342.303285 
L 680.61223 342.303285 
L 680.99875 335.1787 
L 681.383751 335.1787 
L 681.767245 332.773322 
L 682.149243 332.773322 
L 682.529759 334.395576 
L 682.908802 332.077817 
L 683.286385 333.707136 
L 683.662518 341.608816 
L 684.037213 346.159792 
L 684.410481 337.37822 
L 684.782332 340.513176 
L 685.152777 342.056811 
L 686.255782 342.056811 
L 686.620708 343.584766 
L 686.98428 338.707392 
L 688.066972 338.707392 
L 688.425227 340.26937 
L 688.782177 340.26937 
L 689.137831 331.923866 
L 689.492198 327.59296 
L 689.845289 327.59296 
L 690.197112 330.925697 
L 691.937524 330.925697 
L 692.281927 332.566719 
L 693.986015 332.566719 
L 694.323305 335.798926 
L 694.659438 345.108819 
L 694.994421 345.108819 
L 695.660972 340.200641 
L 695.992555 344.794093 
L 696.323019 344.794093 
L 696.652373 346.294244 
L 697.958827 346.294244 
L 698.282736 354.980512 
L 698.927361 357.759685 
L 699.567772 368.325885 
L 699.886415 360.7766 
L 700.204025 366.046837 
L 700.520609 363.327909 
L 700.836173 363.327909 
L 701.150724 368.496053 
L 701.464269 375.863103 
L 701.776813 370.333312 
L 702.088364 372.802171 
L 703.324754 372.802171 
L 703.631429 375.221128 
L 703.937147 376.41221 
L 704.241914 379.913354 
L 704.545737 379.913354 
L 704.84862 374.458647 
L 705.150569 374.458647 
L 705.451591 362.219268 
L 705.751691 354.725851 
L 706.349148 360.238215 
L 706.646516 357.578289 
L 706.942984 352.575024 
L 707.238558 352.575024 
L 707.827043 359.537702 
L 708.119966 363.547859 
L 708.412016 361.088582 
L 708.993517 361.088582 
L 709.282978 363.744298 
L 711.002015 363.744298 
L 711.285612 375.04622 
L 711.56839 375.04622 
L 711.850354 377.41982 
L 712.13151 372.169338 
L 712.411861 373.391419 
L 712.691412 373.391419 
L 712.970168 378.156862 
L 713.248133 378.156862 
L 713.525311 375.314925 
L 713.801708 367.194555 
L 714.352174 367.194555 
L 714.899564 369.726855 
L 715.443913 369.726855 
L 715.714958 378.193573 
L 716.254808 378.193573 
L 716.523622 379.354462 
L 716.7917 379.354462 
L 717.059047 383.881288 
L 717.325667 392.398754 
L 717.856739 392.398754 
L 718.1212 394.42162 
L 718.647989 399.301711 
L 718.910326 400.248189 
L 719.432901 400.248189 
L 719.693147 401.185053 
L 719.952703 401.185053 
L 720.211574 402.112401 
L 720.469763 396.209001 
L 720.984109 396.209001 
L 721.240273 399.112982 
L 721.495768 399.112982 
L 722.00477 403.759596 
L 722.258283 404.660792 
L 722.511141 404.660792 
L 722.763349 406.435816 
L 723.014909 406.435816 
L 723.265825 410.717993 
L 723.5161 410.717993 
L 723.765737 407.624973 
L 724.510855 407.624973 
L 724.757974 410.184595 
L 725.004472 407.017328 
L 725.25035 407.885434 
L 725.495613 409.59528 
L 725.740264 410.437199 
L 725.984306 407.267367 
L 728.153751 407.267367 
L 728.391862 408.132932 
L 728.629395 408.132932 
L 728.866354 413.950647 
L 729.102742 413.950647 
L 729.338561 418.616813 
L 729.573813 412.379822 
L 729.808502 413.193457 
L 730.04263 402.239095 
L 730.2762 403.155736 
L 730.509215 403.155736 
L 730.741677 392.087362 
L 731.204952 392.087362 
L 731.435771 394.116523 
L 731.666048 394.116523 
L 732.124983 396.10467 
L 732.353648 396.10467 
L 732.809381 390.16656 
L 733.036456 390.16656 
L 733.263005 393.252809 
L 733.939528 396.245962 
L 734.164001 393.299944 
L 734.387961 387.417715 
L 734.611411 388.484907 
L 734.834352 388.484907 
L 735.056787 385.695802 
L 735.278718 385.695802 
L 735.500148 394.070954 
L 735.721079 396.060022 
L 735.941512 393.036229 
L 736.161451 393.036229 
L 736.380897 394.04635 
L 737.253798 394.04635 
L 737.470814 396.035915 
L 738.118993 396.035915 
L 738.334103 403.600085 
L 738.976614 403.600085 
L 739.189851 391.846843 
L 739.614939 397.826404 
L 739.826793 391.852685 
L 740.038191 392.874828 
L 740.459622 400.686925 
L 740.66966 400.686925 
L 741.088389 407.886313 
L 741.297085 409.596142 
L 741.505337 409.596142 
L 741.713148 410.438052 
L 741.920518 416.096775 
L 742.127451 412.949118 
L 742.54001 415.348139 
L 742.74564 404.156029 
L 742.950839 408.551665 
L 743.359953 408.551665 
L 743.767365 402.28231 
L 744.173091 402.28231 
L 744.375326 399.274977 
L 744.577144 390.431861 
L 744.778547 390.431861 
L 744.979537 377.086765 
L 745.180115 377.086765 
L 745.580045 382.829563 
L 745.779399 388.286557 
L 745.978349 388.286557 
L 746.176895 385.341725 
L 746.967081 389.628965 
L 747.163636 384.780603 
L 747.163636 384.780603 
" style="fill:none;stroke:#ff7f0e;stroke-linecap:square;stroke-width:1.5;"/>
   </g>
   <g id="line2d_36">
    <path clip-path="url(#pb3c5185bf8)" d="M -1 370.342966 
L 747.163636 370.342966 
L 747.163636 370.342966 
" style="fill:none;stroke:#000000;stroke-dasharray:5.55,2.4;stroke-dashoffset:0;stroke-width:1.5;"/>
   </g>
   <g id="line2d_37">
    <path clip-path="url(#pb3c5185bf8)" d="M -1 199.191793 
L 138.436364 199.010419 
L 206.352724 452.29991 
L 246.081248 199.958447 
L 274.269084 337.34504 
L 296.133268 130.991475 
L 313.997608 130.991475 
L 329.101691 486.843864 
L 342.185444 491.496379 
L 353.726132 491.923583 
L 364.049628 168.416787 
L 373.388367 122.121346 
L 381.913968 418.105109 
L 389.75676 418.105109 
L 397.018052 447.976402 
L 403.778152 447.976402 
L 410.101804 488.698281 
L 416.041962 116.944301 
L 421.642492 108.437177 
L 426.940138 251.072778 
L 449.830328 251.072778 
L 453.830173 111.180215 
L 457.67312 322.778751 
L 461.371016 322.778751 
L 464.934412 251.654225 
L 478.018164 251.654225 
L 481.033251 204.738019 
L 483.958322 138.329439 
L 492.243474 138.329439 
L 494.856498 455.510395 
L 497.401644 486.958433 
L 499.882349 158.559168 
L 502.301795 116.940309 
L 504.662936 108.931926 
L 506.968515 426.966285 
L 509.221087 343.437454 
L 511.423036 343.437454 
L 513.576587 407.166478 
L 515.68382 443.156525 
L 517.746688 141.787942 
L 519.767019 132.620384 
L 521.746533 132.620384 
L 523.686846 213.625647 
L 525.58948 213.625647 
L 527.455872 359.213803 
L 529.287376 359.213803 
L 531.085272 184.04933 
L 532.850772 184.04933 
L 534.585022 369.232039 
L 536.28911 244.434367 
L 537.964067 293.700068 
L 539.610872 293.700068 
L 541.230456 261.254674 
L 542.823704 305.073511 
L 544.391459 340.036953 
L 545.934524 368.035875 
L 547.453665 251.404071 
L 548.949611 358.587867 
L 550.423062 165.732868 
L 551.874682 307.349659 
L 553.30511 176.606873 
L 554.714956 176.606873 
L 556.104804 163.073733 
L 557.475212 216.456183 
L 558.826717 260.493142 
L 560.159835 234.405165 
L 561.475057 274.309921 
L 562.772859 274.309921 
L 564.053695 422.459296 
L 565.318004 449.103144 
L 566.566207 397.584196 
L 567.798709 397.584196 
L 569.015899 410.942482 
L 570.218155 447.583488 
L 571.405837 447.583488 
L 572.579296 458.833879 
L 573.738867 282.465767 
L 576.017634 387.178524 
L 577.137448 400.463691 
L 579.339396 400.463691 
L 580.422088 411.540374 
L 581.492947 411.540374 
L 582.552228 375.463739 
L 583.60018 375.463739 
L 584.637043 410.838892 
L 586.678421 410.838892 
L 587.683379 446.347667 
L 588.678135 463.039752 
L 589.662893 361.126076 
L 590.637852 361.126076 
L 591.603206 436.607524 
L 592.559141 403.255751 
L 593.50584 433.475392 
L 594.44348 400.688093 
L 595.372232 455.171624 
L 596.292263 367.644012 
L 599.001632 367.644012 
L 599.888358 420.663361 
L 600.767132 420.663361 
L 601.638094 309.852072 
L 602.501382 292.420683 
L 603.357131 324.137918 
L 604.205471 305.435808 
L 605.046528 305.435808 
L 605.880427 346.306068 
L 606.70729 311.420118 
L 607.527233 380.138159 
L 608.340371 309.268115 
L 609.146816 309.268115 
L 609.946679 322.635006 
L 610.740065 356.667065 
L 611.527078 427.249516 
L 612.30782 404.630026 
L 613.08239 404.630026 
L 613.850884 410.557081 
L 614.613399 371.451477 
L 615.370025 386.761892 
L 616.120853 367.941081 
L 617.605466 367.941081 
L 619.06792 395.636795 
L 619.791042 406.823613 
L 620.508867 406.823613 
L 621.22147 424.945508 
L 622.631316 424.945508 
L 624.021164 438.53543 
L 625.391572 438.53543 
L 626.069655 374.832817 
L 626.743078 391.900655 
L 628.736013 391.900655 
L 629.391417 401.289608 
L 630.042467 313.367837 
L 631.33173 313.367837 
L 631.970055 343.444162 
L 633.860453 343.444162 
L 634.482567 361.523426 
L 635.715069 340.597991 
L 636.325554 273.742679 
L 636.93226 273.742679 
L 637.535231 260.608978 
L 638.134515 269.515172 
L 639.910683 250.675217 
L 640.495656 267.808907 
L 642.229906 267.808907 
L 642.801235 289.886184 
L 643.369252 303.179485 
L 643.933994 356.927782 
L 644.495501 365.552572 
L 645.053808 336.481552 
L 645.608951 346.106319 
L 646.160967 346.106319 
L 646.709891 354.863295 
L 647.798598 354.863295 
L 648.338448 358.851624 
L 648.87534 358.851624 
L 649.409307 369.798552 
L 649.940379 302.427376 
L 650.468588 302.427376 
L 650.993965 255.260818 
L 651.516541 243.456639 
L 652.036343 236.013987 
L 653.067749 236.013987 
L 653.579408 242.370089 
L 654.08841 242.370089 
L 654.594781 238.815751 
L 655.098549 244.814113 
L 656.09838 244.814113 
L 656.594495 241.420287 
L 657.579253 241.420287 
L 658.067946 246.825031 
L 659.519566 246.825031 
L 660.475501 256.584064 
L 660.949994 245.681551 
L 661.422201 250.443332 
L 664.665419 250.443332 
L 665.120096 245.308 
L 666.023168 245.308 
L 666.471601 238.689712 
L 666.917992 230.401519 
L 667.362358 230.401519 
L 667.804718 224.531893 
L 668.24509 224.531893 
L 668.683492 222.577129 
L 669.119941 238.191322 
L 669.987049 230.726871 
L 670.846551 230.726871 
L 671.273491 234.306265 
L 671.698579 254.470674 
L 672.121831 281.401063 
L 672.543262 278.961083 
L 672.962888 265.199444 
L 673.380725 257.388881 
L 673.796788 244.267052 
L 674.211091 256.2135 
L 674.62365 264.662851 
L 675.034479 260.825991 
L 675.443593 274.05757 
L 675.851005 274.05757 
L 676.256731 276.533078 
L 677.063177 276.533078 
L 677.463924 278.868291 
L 677.863039 278.868291 
L 678.260535 298.193005 
L 678.656425 296.17197 
L 679.050721 288.870665 
L 679.443438 292.986067 
L 679.834586 300.969006 
L 680.61223 286.64709 
L 680.99875 281.083631 
L 681.383751 281.083631 
L 681.767245 279.187299 
L 682.529759 279.187299 
L 682.908802 277.390697 
L 683.286385 277.390697 
L 683.662518 283.87879 
L 684.037213 285.997701 
L 684.410481 276.322682 
L 685.152777 280.691706 
L 685.521826 277.164411 
L 686.255782 277.164411 
L 686.620708 283.65933 
L 686.98428 281.736834 
L 687.707402 281.736834 
L 688.066972 279.833867 
L 688.782177 279.833867 
L 689.492198 263.179337 
L 689.845289 261.464872 
L 690.197112 270.709162 
L 691.937524 270.709162 
L 692.281927 272.961847 
L 693.307932 272.961847 
L 693.64756 269.432255 
L 694.323305 269.432255 
L 694.659438 286.92603 
L 695.328263 274.641955 
L 695.660972 267.894451 
L 695.992555 274.668994 
L 696.323019 274.668994 
L 696.652373 279.071444 
L 697.307777 279.071444 
L 697.633843 277.276019 
L 697.958827 277.276019 
L 698.282736 300.137018 
L 698.605579 305.938976 
L 699.24809 305.938976 
L 699.567772 309.709389 
L 699.886415 298.677113 
L 700.204025 302.594304 
L 700.520609 300.479473 
L 700.836173 300.479473 
L 701.150724 308.162557 
L 701.464269 319.114586 
L 701.776813 316.831947 
L 702.088364 323.860671 
L 702.398927 319.3023 
L 702.708509 319.3023 
L 703.017116 317.098222 
L 703.324754 317.098222 
L 703.631429 318.879699 
L 703.937147 318.879699 
L 704.241914 322.388551 
L 704.545737 322.388551 
L 704.84862 317.859935 
L 705.150569 317.859935 
L 705.751691 309.456496 
L 706.050875 313.155812 
L 706.349148 313.155812 
L 706.942984 296.980679 
L 707.238558 296.980679 
L 707.533242 300.932159 
L 707.827043 302.877846 
L 708.119966 306.710131 
L 708.412016 302.65299 
L 708.703198 300.537562 
L 709.571587 300.537562 
L 709.859348 298.443623 
L 710.146266 298.443623 
L 710.432347 296.370953 
L 710.717595 296.370953 
L 711.002015 294.319336 
L 711.285612 317.168867 
L 711.56839 314.905992 
L 711.850354 322.011785 
L 712.13151 313.676475 
L 712.691412 313.676475 
L 712.970168 317.290496 
L 713.248133 312.864923 
L 713.525311 310.645765 
L 713.801708 304.358395 
L 714.352174 304.358395 
L 714.626251 308.160755 
L 715.443913 308.160755 
L 715.714958 319.112891 
L 716.7917 319.112891 
L 717.059047 322.617029 
L 717.325667 335.939489 
L 717.591563 335.939489 
L 717.856739 333.485947 
L 718.1212 335.100963 
L 718.384948 339.848246 
L 718.647989 350.375797 
L 718.910326 354.66232 
L 719.171962 352.018597 
L 719.952703 352.018597 
L 720.211574 354.857637 
L 720.469763 347.236631 
L 721.495768 347.236631 
L 721.7506 351.617846 
L 722.00477 353.048683 
L 722.511141 353.048683 
L 722.763349 354.464986 
L 723.014909 354.464986 
L 723.265825 357.254579 
L 723.5161 357.254579 
L 723.765737 354.664993 
L 724.263112 354.664993 
L 724.510855 352.021242 
L 724.757974 356.258131 
L 725.004472 351.044935 
L 725.25035 351.044935 
L 725.495613 353.903655 
L 725.740264 355.311273 
L 725.984306 345.481195 
L 726.227741 342.930731 
L 727.91506 342.930731 
L 728.153751 340.406174 
L 728.391862 341.950896 
L 728.629395 341.950896 
L 728.866354 352.33342 
L 729.102742 352.33342 
L 729.338561 359.308122 
L 729.573813 356.697676 
L 729.808502 356.697676 
L 730.04263 345.778219 
L 730.509215 345.778219 
L 730.741677 332.421896 
L 730.973588 330.004085 
L 731.204952 330.004085 
L 731.435771 338.090055 
L 731.666048 333.244077 
L 732.353648 333.244077 
L 732.58178 330.817914 
L 732.809381 326.277455 
L 733.036456 326.277455 
L 733.263005 327.965693 
L 733.489032 327.965693 
L 733.714539 332.928209 
L 733.939528 332.928209 
L 734.164001 330.585723 
L 734.387961 325.969489 
L 734.611411 327.660855 
L 734.834352 325.291405 
L 735.278718 318.716055 
L 735.500148 337.174902 
L 735.721079 340.313967 
L 735.941512 337.81599 
L 736.81832 337.81599 
L 737.036301 332.975551 
L 737.253798 332.975551 
L 737.470814 339.358273 
L 737.68735 339.358273 
L 737.903409 336.870004 
L 738.118993 336.870004 
L 738.334103 343.096886 
L 738.548742 340.729977 
L 738.976614 340.729977 
L 739.189851 335.830639 
L 739.614939 348.116747 
L 739.826793 340.999858 
L 740.038191 342.53855 
L 740.249133 348.5386 
L 740.459622 350.000715 
L 740.66966 350.000715 
L 740.879248 351.447979 
L 741.088389 355.70216 
L 741.505337 355.70216 
L 741.713148 357.091509 
L 741.920518 363.829415 
L 742.127451 358.463186 
L 742.333948 358.463186 
L 742.54001 359.82449 
L 742.74564 344.232681 
L 742.950839 351.610535 
L 743.359953 351.610535 
L 743.563871 348.99781 
L 743.767365 341.553564 
L 744.173091 341.553564 
L 744.577144 330.075689 
L 744.778547 330.075689 
L 744.979537 313.478784 
L 745.180115 313.478784 
L 745.380284 315.297027 
L 745.580045 320.641689 
L 745.779399 329.193599 
L 745.978349 326.80858 
L 746.176895 320.033664 
L 746.37504 321.785324 
L 746.572785 326.934268 
L 746.770131 326.934268 
L 746.967081 328.615834 
L 747.163636 317.258621 
L 747.163636 317.258621 
" style="fill:none;stroke:#2ca02c;stroke-linecap:square;stroke-width:1.5;"/>
   </g>
   <g id="line2d_38">
    <path clip-path="url(#pb3c5185bf8)" d="M -1 306.015565 
L 747.163636 306.015565 
L 747.163636 306.015565 
" style="fill:none;stroke:#000000;stroke-dasharray:5.55,2.4;stroke-dashoffset:0;stroke-width:1.5;"/>
   </g>
   <g id="line2d_39">
    <path clip-path="url(#pb3c5185bf8)" d="M -1 196.229286 
L 206.352724 196.04608 
L 246.081248 121.266629 
L 274.269084 295.611869 
L 296.133268 128.408291 
L 313.997608 128.408291 
L 329.101691 458.708459 
L 353.726132 458.708459 
L 364.049628 112.882141 
L 373.388367 99.871564 
L 381.913968 357.843693 
L 403.778152 357.843693 
L 410.101804 473.747425 
L 416.041962 108.335608 
L 421.642492 99.219259 
L 426.940138 245.278445 
L 449.830328 245.278445 
L 453.830173 111.828455 
L 457.67312 323.067256 
L 461.371016 323.067256 
L 464.934412 198.893722 
L 478.018164 198.893722 
L 481.033251 166.518255 
L 483.958322 144.154269 
L 486.798596 119.194582 
L 489.558852 119.194582 
L 492.243474 111.117947 
L 494.856498 387.629628 
L 497.401644 470.981015 
L 499.882349 137.236721 
L 502.301795 121.836932 
L 504.662936 109.51455 
L 506.968515 334.20373 
L 509.221087 272.963254 
L 513.576587 272.963254 
L 515.68382 365.567777 
L 517.746688 162.047147 
L 519.767019 134.046788 
L 521.746533 117.769462 
L 523.686846 117.769462 
L 525.58948 111.698348 
L 527.455872 259.722118 
L 529.287376 223.349567 
L 531.085272 176.984178 
L 532.850772 176.984178 
L 534.585022 293.043472 
L 536.28911 165.544876 
L 539.610872 165.544876 
L 541.230456 121.9161 
L 542.823704 121.9161 
L 544.391459 191.050257 
L 545.934524 191.050257 
L 547.453665 141.157535 
L 548.949611 203.69609 
L 550.423062 138.312885 
L 551.874682 199.415303 
L 553.30511 146.190673 
L 554.714956 146.190673 
L 556.104804 130.427198 
L 557.475212 238.264918 
L 558.826717 278.822502 
L 560.159835 249.224092 
L 562.772859 249.224092 
L 564.053695 343.016913 
L 565.318004 365.067762 
L 566.566207 222.923367 
L 569.015899 222.923367 
L 570.218155 292.458085 
L 571.405837 292.458085 
L 572.579296 319.323507 
L 573.738867 210.445882 
L 574.884875 210.445882 
L 576.017634 305.574264 
L 577.137448 349.760496 
L 581.492947 349.760496 
L 582.552228 293.59131 
L 583.60018 270.250349 
L 584.637043 295.378666 
L 586.678421 295.378666 
L 587.683379 335.614234 
L 588.678135 352.275425 
L 589.662893 301.117211 
L 590.637852 301.117211 
L 591.603206 353.599726 
L 592.559141 304.415063 
L 593.50584 354.565445 
L 594.44348 329.019503 
L 595.372232 419.052458 
L 596.292263 340.312321 
L 599.001632 340.312321 
L 599.888358 404.939769 
L 600.767132 404.939769 
L 601.638094 299.856705 
L 602.501382 241.109176 
L 603.357131 280.961293 
L 604.205471 265.446619 
L 605.880427 265.446619 
L 606.70729 251.848483 
L 607.527233 287.241447 
L 608.340371 220.113656 
L 609.146816 210.498717 
L 609.946679 210.498717 
L 610.740065 249.551089 
L 611.527078 347.089566 
L 612.30782 313.110427 
L 613.850884 313.110427 
L 614.613399 273.468698 
L 615.370025 287.789658 
L 616.120853 263.672833 
L 617.605466 263.672833 
L 618.339422 290.917095 
L 622.631316 290.917095 
L 623.328704 302.012969 
L 625.391572 302.012969 
L 626.069655 272.336877 
L 626.743078 304.274463 
L 627.411903 293.554629 
L 628.736013 293.554629 
L 629.391417 303.066768 
L 630.042467 270.80502 
L 630.689219 262.443056 
L 631.33173 262.443056 
L 631.970055 282.643803 
L 633.234364 282.643803 
L 633.860453 274.403774 
L 634.482567 292.417335 
L 635.100756 269.195445 
L 635.715069 255.183824 
L 636.325554 218.74131 
L 636.93226 218.74131 
L 637.535231 203.18288 
L 638.134515 203.18288 
L 638.730156 195.103843 
L 639.910683 187.509752 
L 640.495656 198.512968 
L 641.077157 194.671919 
L 642.229906 194.671919 
L 642.801235 204.764799 
L 643.933994 265.110004 
L 644.495501 265.110004 
L 645.053808 245.516576 
L 645.608951 253.256414 
L 646.160967 253.256414 
L 646.709891 260.522683 
L 647.255756 250.731092 
L 648.87534 250.731092 
L 649.409307 257.521449 
L 649.940379 224.567289 
L 650.468588 224.567289 
L 650.993965 207.622138 
L 651.516541 199.378386 
L 652.036343 194.19009 
L 652.553403 194.19009 
L 653.067749 191.576587 
L 653.579408 191.576587 
L 654.594781 186.735812 
L 656.09838 186.735812 
L 657.088111 182.469533 
L 657.579253 182.469533 
L 658.067946 189.143353 
L 660.475501 189.143353 
L 660.949994 184.770388 
L 662.825317 184.770388 
L 663.288592 183.059584 
L 663.749688 183.059584 
L 664.208623 181.431542 
L 664.665419 181.431542 
L 665.120096 178.49151 
L 666.023168 178.49151 
L 666.917992 170.468493 
L 667.362358 170.468493 
L 667.804718 168.127155 
L 668.24509 168.127155 
L 668.683492 166.959235 
L 669.119941 176.515379 
L 669.987049 169.136778 
L 670.846551 169.136778 
L 671.273491 173.558398 
L 671.698579 190.38847 
L 672.121831 228.120372 
L 672.543262 226.323111 
L 672.962888 216.704669 
L 673.380725 213.629726 
L 673.796788 207.979485 
L 674.211091 218.312265 
L 674.62365 221.620276 
L 675.034479 218.797008 
L 675.443593 240.429138 
L 677.063177 240.429138 
L 677.463924 245.850932 
L 677.863039 245.850932 
L 678.260535 250.9935 
L 678.656425 247.777788 
L 679.050721 240.863324 
L 679.443438 240.863324 
L 679.834586 245.949062 
L 680.22418 241.80195 
L 680.61223 232.937884 
L 680.99875 231.489758 
L 681.383751 231.489758 
L 681.767245 230.056341 
L 682.529759 230.056341 
L 682.908802 227.313496 
L 683.286385 227.313496 
L 683.662518 240.510089 
L 684.037213 240.510089 
L 684.410481 234.308867 
L 684.782332 236.931295 
L 685.152777 236.931295 
L 685.521826 232.748583 
L 686.255782 229.870866 
L 686.620708 247.983945 
L 686.98428 246.382985 
L 687.707402 246.382985 
L 688.066972 244.798288 
L 688.782177 244.798288 
L 689.492198 231.087551 
L 689.845289 228.323863 
L 690.197112 236.292039 
L 690.896991 236.292039 
L 691.245064 232.12861 
L 692.281927 232.12861 
L 692.625124 230.688704 
L 693.307932 230.688704 
L 693.64756 227.933077 
L 694.323305 227.933077 
L 694.659438 235.913042 
L 695.328263 224.498527 
L 695.660972 219.830923 
L 695.992555 222.600414 
L 696.323019 222.600414 
L 696.652373 225.341773 
L 696.980623 225.341773 
L 697.307777 223.970806 
L 697.633843 219.094748 
L 697.958827 219.094748 
L 698.282736 240.536526 
L 698.605579 248.136312 
L 699.567772 248.136312 
L 699.886415 239.770074 
L 700.204025 239.770074 
L 700.520609 238.252548 
L 700.836173 238.252548 
L 701.150724 243.391055 
L 701.464269 245.921229 
L 701.776813 244.341221 
L 702.088364 254.270731 
L 702.398927 251.038459 
L 702.708509 249.406472 
L 703.324754 243.201907 
L 704.241914 243.201907 
L 704.545737 241.649522 
L 704.84862 238.672352 
L 705.150569 238.672352 
L 705.751691 231.605731 
L 706.349148 231.605731 
L 706.942984 222.932512 
L 707.238558 222.932512 
L 707.827043 228.380671 
L 708.119966 228.380671 
L 708.412016 223.328149 
L 708.703198 220.721296 
L 709.282978 220.721296 
L 709.859348 218.086677 
L 710.146266 218.086677 
L 710.432347 216.789405 
L 710.717595 216.789405 
L 711.002015 214.314715 
L 711.285612 233.500757 
L 711.56839 232.046913 
L 711.850354 242.468391 
L 712.13151 238.118655 
L 712.970168 238.118655 
L 713.248133 233.900126 
L 713.801708 230.999134 
L 714.077328 230.999134 
L 714.352174 228.237233 
L 714.626251 233.578172 
L 715.443913 233.578172 
L 715.714958 251.435546 
L 717.059047 251.435546 
L 717.325667 261.08117 
L 717.591563 261.08117 
L 717.856739 257.711243 
L 718.1212 257.711243 
L 718.384948 264.79296 
L 718.647989 280.497339 
L 718.910326 284.781984 
L 719.171962 280.933011 
L 719.432901 278.997364 
L 719.693147 278.997364 
L 719.952703 277.081379 
L 720.211574 283.578802 
L 720.469763 279.754148 
L 720.727273 277.830475 
L 722.258283 277.830475 
L 722.511141 275.926343 
L 723.014909 275.926343 
L 723.265825 278.126032 
L 723.5161 278.126032 
L 723.765737 274.411591 
L 724.263112 274.411591 
L 724.510855 270.772227 
L 724.757974 273.02427 
L 725.004472 269.491801 
L 725.25035 269.491801 
L 725.495613 276.218161 
L 725.740264 276.218161 
L 725.984306 268.043654 
L 726.227741 264.533 
L 726.712804 264.533 
L 726.954438 262.76394 
L 727.91506 262.76394 
L 728.153751 259.360001 
L 728.629395 259.360001 
L 728.866354 268.68852 
L 729.102742 266.877249 
L 729.338561 266.877249 
L 729.573813 263.39017 
L 729.808502 263.39017 
L 730.04263 253.57134 
L 730.509215 253.57134 
L 730.741677 247.734245 
L 730.973588 246.135821 
L 731.204952 246.135821 
L 731.435771 258.39568 
L 731.666048 255.080033 
L 732.353648 255.080033 
L 732.58178 253.406993 
L 732.809381 247.503736 
L 733.489032 247.503736 
L 733.714539 257.306694 
L 733.939528 257.306694 
L 734.387961 249.622699 
L 734.611411 249.622699 
L 735.278718 237.89764 
L 735.500148 257.864695 
L 735.721079 262.606797 
L 735.941512 260.857302 
L 736.81832 260.857302 
L 737.036301 255.952871 
L 737.253798 255.952871 
L 737.470814 263.087628 
L 737.903409 257.95741 
L 738.334103 257.95741 
L 738.548742 251.721347 
L 738.976614 251.721347 
L 739.189851 250.082423 
L 739.614939 264.485538 
L 739.826793 258.442819 
L 740.038191 258.442819 
L 740.249133 260.820101 
L 740.459622 260.820101 
L 740.66966 259.088755 
L 741.505337 259.088755 
L 741.920518 270.703983 
L 742.127451 267.139558 
L 742.333948 267.139558 
L 742.54001 269.428501 
L 742.74564 259.339402 
L 742.950839 261.707577 
L 743.359953 261.707577 
L 743.563871 259.967216 
L 743.767365 255.244988 
L 744.173091 255.244988 
L 744.375326 245.814042 
L 744.577144 244.235123 
L 744.778547 244.235123 
L 744.979537 235.659863 
L 745.180115 234.184087 
L 745.380284 234.184087 
L 745.580045 236.807783 
L 745.779399 241.975492 
L 745.978349 240.435564 
L 746.176895 237.561786 
L 746.37504 237.561786 
L 746.572785 242.714255 
L 746.770131 242.714255 
L 746.967081 245.251304 
L 747.163636 234.490363 
L 747.163636 234.490363 
" style="fill:none;stroke:#d62728;stroke-linecap:square;stroke-width:1.5;"/>
   </g>
   <g id="line2d_40">
    <path clip-path="url(#pb3c5185bf8)" d="M -1 237.19076 
L 747.163636 237.19076 
L 747.163636 237.19076 
" style="fill:none;stroke:#000000;stroke-dasharray:5.55,2.4;stroke-dashoffset:0;stroke-width:1.5;"/>
   </g>
   <g id="line2d_41">
    <path clip-path="url(#pb3c5185bf8)" d="M -1 292.672692 
L 206.352724 292.549128 
L 246.081248 144.72509 
L 274.269084 308.052756 
L 296.133268 152.41426 
L 313.997608 152.41426 
L 329.101691 388.907405 
L 353.726132 388.907405 
L 364.049628 113.483938 
L 373.388367 97.393324 
L 381.913968 261.117128 
L 403.778152 261.117128 
L 410.101804 406.179898 
L 416.041962 174.059166 
L 421.642492 140.9554 
L 436.746575 140.9554 
L 441.304727 121.591243 
L 445.660226 121.591243 
L 449.830328 109.474427 
L 453.830173 113.895776 
L 461.371016 113.895776 
L 464.934412 100.73515 
L 468.37275 100.73515 
L 471.694512 96.225378 
L 478.018164 96.225378 
L 481.033251 93.26785 
L 483.958322 91.224879 
L 486.798596 92.076472 
L 489.558852 90.43558 
L 492.243474 89.28 
L 494.856498 89.28 
L 497.401644 278.5559 
L 499.882349 172.146978 
L 502.301795 149.552445 
L 504.662936 133.163984 
L 506.968515 133.163984 
L 509.221087 121.396611 
L 511.423036 112.721552 
L 513.576587 112.721552 
L 515.68382 203.727774 
L 517.746688 165.73697 
L 519.767019 134.568464 
L 521.746533 116.449029 
L 523.686846 116.449029 
L 525.58948 109.770434 
L 527.455872 193.264898 
L 529.287376 170.29362 
L 531.085272 152.536153 
L 532.850772 138.750818 
L 534.585022 138.750818 
L 536.28911 117.342367 
L 537.964067 117.342367 
L 539.610872 111.27494 
L 541.230456 103.125418 
L 542.823704 103.125418 
L 544.391459 175.765254 
L 545.934524 175.765254 
L 547.453665 147.537881 
L 548.949611 147.537881 
L 550.423062 128.474805 
L 551.874682 128.474805 
L 556.104804 111.644975 
L 557.475212 173.361793 
L 558.826717 173.361793 
L 560.159835 159.689455 
L 562.772859 159.689455 
L 564.053695 209.56162 
L 565.318004 209.56162 
L 566.566207 152.912292 
L 572.579296 152.912292 
L 573.738867 139.191322 
L 576.017634 139.191322 
L 577.137448 183.763338 
L 581.492947 183.763338 
L 582.552228 163.183795 
L 583.60018 147.361101 
L 588.678135 147.361101 
L 589.662893 140.977563 
L 591.603206 140.977563 
L 592.559141 131.339812 
L 593.50584 198.797997 
L 594.44348 187.921197 
L 595.372232 288.355917 
L 597.203736 252.527569 
L 599.001632 252.527569 
L 599.888358 341.113578 
L 600.767132 341.113578 
L 601.638094 319.37467 
L 602.501382 267.739688 
L 603.357131 286.323071 
L 605.046528 255.317127 
L 605.880427 255.317127 
L 606.70729 242.190285 
L 607.527233 242.190285 
L 608.340371 212.153646 
L 609.146816 202.827609 
L 609.946679 202.827609 
L 611.527078 242.642557 
L 612.30782 222.1584 
L 613.850884 222.1584 
L 614.613399 199.165312 
L 615.370025 199.165312 
L 616.865971 185.208895 
L 617.605466 185.208895 
L 618.339422 204.082019 
L 624.708764 204.082019 
L 626.069655 192.126262 
L 626.743078 207.416159 
L 627.411903 195.966604 
L 629.391417 195.966604 
L 630.689219 177.557093 
L 631.33173 173.394058 
L 633.234364 173.394058 
L 633.860453 169.662023 
L 634.482567 169.662023 
L 635.100756 160.93009 
L 635.715069 155.269416 
L 636.325554 153.165849 
L 636.93226 153.165849 
L 637.535231 148.217916 
L 638.134515 148.217916 
L 639.910683 141.557899 
L 640.495656 141.557899 
L 641.077157 139.595594 
L 642.801235 139.595594 
L 643.369252 151.369355 
L 644.495501 151.369355 
L 645.053808 146.078573 
L 645.608951 146.078573 
L 646.160967 144.234568 
L 646.709891 144.234568 
L 647.255756 141.056737 
L 647.798598 139.445133 
L 649.409307 139.445133 
L 649.940379 141.418763 
L 652.036343 135.786109 
L 653.067749 133.307364 
L 653.579408 133.307364 
L 654.594781 131.059464 
L 655.098549 131.059464 
L 655.59974 130.017755 
L 656.09838 130.017755 
L 657.088111 128.082753 
L 657.579253 128.082753 
L 658.067946 135.927396 
L 658.554212 135.927396 
L 659.038078 134.892199 
L 660.475501 134.892199 
L 660.949994 133.752888 
L 661.422201 133.752888 
L 661.892142 132.851765 
L 662.35984 132.851765 
L 663.288592 131.167057 
L 663.749688 131.167057 
L 664.208623 129.744605 
L 665.120096 128.266941 
L 665.572672 128.266941 
L 666.023168 127.574709 
L 666.471601 126.50086 
L 666.917992 125.858199 
L 667.362358 125.858199 
L 668.683492 124.075379 
L 669.119941 124.075379 
L 669.987049 122.079381 
L 670.417743 122.079381 
L 670.846551 121.582558 
L 671.273491 121.582558 
L 671.698579 126.575719 
L 672.121831 150.188762 
L 672.543262 149.355325 
L 672.962888 148.231979 
L 673.380725 147.448966 
L 673.796788 147.68777 
L 674.211091 151.913521 
L 674.62365 151.913521 
L 675.034479 150.732603 
L 675.443593 162.582015 
L 676.256731 162.582015 
L 676.660783 161.731024 
L 677.063177 161.731024 
L 677.463924 165.307686 
L 678.260535 165.307686 
L 679.050721 161.972582 
L 679.834586 161.972582 
L 680.22418 160.758809 
L 680.61223 158.545486 
L 682.149243 155.654993 
L 682.529759 155.654993 
L 682.908802 154.334683 
L 683.286385 154.334683 
L 683.662518 167.86589 
L 684.037213 167.86589 
L 684.410481 166.378422 
L 685.152777 166.378422 
L 685.521826 164.841367 
L 686.255782 163.254112 
L 686.620708 179.638761 
L 688.066972 175.9042 
L 688.782177 175.9042 
L 689.492198 172.06685 
L 689.845289 171.195777 
L 690.896991 171.195777 
L 691.245064 168.87584 
L 691.591906 168.03718 
L 692.281927 168.03718 
L 692.625124 167.207039 
L 693.307932 167.207039 
L 693.64756 166.38533 
L 694.659438 166.38533 
L 694.994421 165.571968 
L 695.328263 163.574679 
L 695.660972 162.789867 
L 695.992555 162.789867 
L 696.323019 162.013026 
L 696.980623 162.013026 
L 697.307777 161.244077 
L 697.633843 159.301602 
L 697.958827 159.301602 
L 698.282736 162.685932 
L 699.567772 162.685932 
L 699.886415 160.78638 
L 700.204025 160.78638 
L 700.836173 159.281085 
L 701.150724 162.665624 
L 701.464269 162.665624 
L 701.776813 161.890045 
L 702.088364 168.57201 
L 702.708509 166.90935 
L 703.324754 163.845063 
L 704.241914 163.845063 
L 705.150569 161.506305 
L 705.451591 159.478647 
L 705.751691 158.735441 
L 706.349148 158.735441 
L 706.942984 156.536955 
L 708.119966 156.536955 
L 708.703198 153.592416 
L 708.993517 152.909001 
L 709.282978 152.909001 
L 709.571587 151.644194 
L 710.432347 149.673471 
L 710.717595 149.673471 
L 711.002015 149.029863 
L 711.285612 149.029863 
L 711.56839 148.392792 
L 711.850354 155.347567 
L 712.13151 154.033471 
L 712.411861 154.033471 
L 712.691412 153.345575 
L 712.970168 153.345575 
L 714.077328 150.663162 
L 714.352174 149.443748 
L 714.626251 152.928211 
L 715.443913 152.928211 
L 715.714958 169.826751 
L 716.254808 168.13873 
L 717.059047 168.13873 
L 717.325667 171.433295 
L 717.591563 171.433295 
L 717.856739 169.873722 
L 718.1212 169.873722 
L 718.384948 173.150663 
L 718.647989 179.605026 
L 718.910326 179.605026 
L 719.432901 177.719364 
L 719.693147 177.719364 
L 719.952703 175.953083 
L 720.211574 179.168272 
L 720.727273 177.291438 
L 721.240273 177.291438 
L 721.495768 176.367295 
L 722.258283 176.367295 
L 722.511141 175.452539 
L 722.763349 175.452539 
L 723.014909 174.547075 
L 723.5161 174.547075 
L 723.765737 172.844914 
L 724.263112 172.844914 
L 724.510855 171.965937 
L 724.757974 171.965937 
L 725.004472 170.473663 
L 725.25035 170.473663 
L 725.495613 176.982134 
L 725.740264 176.982134 
L 725.984306 174.949119 
L 726.470573 173.157563 
L 726.712804 173.157563 
L 726.954438 172.275411 
L 727.195478 172.275411 
L 728.153751 168.835502 
L 728.629395 168.835502 
L 728.866354 175.377083 
L 729.102742 174.472386 
L 729.338561 174.472386 
L 729.573813 172.771734 
L 729.808502 172.771734 
L 730.04263 169.93891 
L 730.2762 169.93891 
L 730.509215 169.089452 
L 730.973588 166.672941 
L 731.204952 165.856658 
L 731.435771 169.174404 
L 731.666048 168.332711 
L 732.124983 168.332711 
L 732.58178 166.674888 
L 732.809381 164.64433 
L 733.036456 163.848652 
L 733.489032 163.848652 
L 733.714539 167.186795 
L 733.939528 167.186795 
L 734.387961 164.345635 
L 734.611411 164.345635 
L 735.278718 160.101511 
L 735.721079 166.819627 
L 736.161451 165.192386 
L 736.81832 165.192386 
L 737.036301 164.391142 
L 737.470814 164.391142 
L 737.68735 162.276464 
L 738.118993 160.741051 
L 738.334103 160.741051 
L 738.548742 158.312374 
L 738.762911 157.581015 
L 738.976614 157.581015 
L 739.189851 156.857084 
L 739.402626 160.266245 
L 739.614939 160.266245 
L 739.826793 158.737459 
L 740.459622 158.737459 
L 740.66966 158.001782 
L 741.297085 158.001782 
L 741.505337 157.273577 
L 741.713148 160.678507 
L 741.920518 160.678507 
L 742.127451 159.923114 
L 742.333948 159.923114 
L 742.54001 163.30113 
L 742.74564 161.219333 
L 743.155609 161.219333 
L 743.767365 158.959779 
L 743.970438 158.959779 
L 744.173091 158.221843 
L 744.375326 155.689718 
L 744.577144 154.984998 
L 744.778547 154.984998 
L 745.180115 152.743394 
L 745.779399 152.743394 
L 746.176895 151.400665 
L 746.770131 151.400665 
L 746.967081 154.865251 
L 747.163636 152.538852 
L 747.163636 152.538852 
" style="fill:none;stroke:#9467bd;stroke-linecap:square;stroke-width:1.5;"/>
   </g>
   <g id="line2d_42">
    <path clip-path="url(#pb3c5185bf8)" d="M -1 163.208597 
L 747.163636 163.208597 
L 747.163636 163.208597 
" style="fill:none;stroke:#000000;stroke-dasharray:5.55,2.4;stroke-dashoffset:0;stroke-width:1.5;"/>
   </g>
   <g id="patch_3">
    <path d="M 108 512.64 
L 108 69.12 
" style="fill:none;stroke:#000000;stroke-linecap:square;stroke-linejoin:miter;stroke-width:0.8;"/>
   </g>
   <g id="patch_4">
    <path d="M 777.6 512.64 
L 777.6 69.12 
" style="fill:none;stroke:#000000;stroke-linecap:square;stroke-linejoin:miter;stroke-width:0.8;"/>
   </g>
   <g id="patch_5">
    <path d="M 108 512.64 
L 777.6 512.64 
" style="fill:none;stroke:#000000;stroke-linecap:square;stroke-linejoin:miter;stroke-width:0.8;"/>
   </g>
   <g id="patch_6">
    <path d="M 108 69.12 
L 777.6 69.12 
" style="fill:none;stroke:#000000;stroke-linecap:square;stroke-linejoin:miter;stroke-width:0.8;"/>
   </g>
   <g id="text_12">
    <!-- EVMC estimates through time vs true values -->
    <g transform="translate(308.937188 63.12)scale(0.12 -0.12)">
     <defs>
      <path d="M 628 4666 
L 1569 4666 
L 2759 1491 
L 3956 4666 
L 4897 4666 
L 4897 0 
L 4281 0 
L 4281 4097 
L 3078 897 
L 2444 897 
L 1241 4097 
L 1241 0 
L 628 0 
L 628 4666 
z
" id="DejaVuSans-4d" transform="scale(0.015625)"/>
      <path d="M 4122 4306 
L 4122 3641 
Q 3803 3938 3442 4084 
Q 3081 4231 2675 4231 
Q 1875 4231 1450 3742 
Q 1025 3253 1025 2328 
Q 1025 1406 1450 917 
Q 1875 428 2675 428 
Q 3081 428 3442 575 
Q 3803 722 4122 1019 
L 4122 359 
Q 3791 134 3420 21 
Q 3050 -91 2638 -91 
Q 1578 -91 968 557 
Q 359 1206 359 2328 
Q 359 3453 968 4101 
Q 1578 4750 2638 4750 
Q 3056 4750 3426 4639 
Q 3797 4528 4122 4306 
z
" id="DejaVuSans-43" transform="scale(0.015625)"/>
      <path d="M 3328 2828 
Q 3544 3216 3844 3400 
Q 4144 3584 4550 3584 
Q 5097 3584 5394 3201 
Q 5691 2819 5691 2113 
L 5691 0 
L 5113 0 
L 5113 2094 
Q 5113 2597 4934 2840 
Q 4756 3084 4391 3084 
Q 3944 3084 3684 2787 
Q 3425 2491 3425 1978 
L 3425 0 
L 2847 0 
L 2847 2094 
Q 2847 2600 2669 2842 
Q 2491 3084 2119 3084 
Q 1678 3084 1418 2786 
Q 1159 2488 1159 1978 
L 1159 0 
L 581 0 
L 581 3500 
L 1159 3500 
L 1159 2956 
Q 1356 3278 1631 3431 
Q 1906 3584 2284 3584 
Q 2666 3584 2933 3390 
Q 3200 3197 3328 2828 
z
" id="DejaVuSans-6d" transform="scale(0.015625)"/>
      <path d="M 3513 2113 
L 3513 0 
L 2938 0 
L 2938 2094 
Q 2938 2591 2744 2837 
Q 2550 3084 2163 3084 
Q 1697 3084 1428 2787 
Q 1159 2491 1159 1978 
L 1159 0 
L 581 0 
L 581 4863 
L 1159 4863 
L 1159 2956 
Q 1366 3272 1645 3428 
Q 1925 3584 2291 3584 
Q 2894 3584 3203 3211 
Q 3513 2838 3513 2113 
z
" id="DejaVuSans-68" transform="scale(0.015625)"/>
      <path d="M 2631 2963 
Q 2534 3019 2420 3045 
Q 2306 3072 2169 3072 
Q 1681 3072 1420 2755 
Q 1159 2438 1159 1844 
L 1159 0 
L 581 0 
L 581 3500 
L 1159 3500 
L 1159 2956 
Q 1341 3275 1631 3429 
Q 1922 3584 2338 3584 
Q 2397 3584 2469 3576 
Q 2541 3569 2628 3553 
L 2631 2963 
z
" id="DejaVuSans-72" transform="scale(0.015625)"/>
      <path d="M 191 3500 
L 800 3500 
L 1894 563 
L 2988 3500 
L 3597 3500 
L 2284 0 
L 1503 0 
L 191 3500 
z
" id="DejaVuSans-76" transform="scale(0.015625)"/>
     </defs>
     <use xlink:href="#DejaVuSans-45"/>
     <use x="63.183594" xlink:href="#DejaVuSans-56"/>
     <use x="131.591797" xlink:href="#DejaVuSans-4d"/>
     <use x="217.871094" xlink:href="#DejaVuSans-43"/>
     <use x="287.695312" xlink:href="#DejaVuSans-20"/>
     <use x="319.482422" xlink:href="#DejaVuSans-65"/>
     <use x="381.005859" xlink:href="#DejaVuSans-73"/>
     <use x="433.105469" xlink:href="#DejaVuSans-74"/>
     <use x="472.314453" xlink:href="#DejaVuSans-69"/>
     <use x="500.097656" xlink:href="#DejaVuSans-6d"/>
     <use x="597.509766" xlink:href="#DejaVuSans-61"/>
     <use x="658.789062" xlink:href="#DejaVuSans-74"/>
     <use x="697.998047" xlink:href="#DejaVuSans-65"/>
     <use x="759.521484" xlink:href="#DejaVuSans-73"/>
     <use x="811.621094" xlink:href="#DejaVuSans-20"/>
     <use x="843.408203" xlink:href="#DejaVuSans-74"/>
     <use x="882.617188" xlink:href="#DejaVuSans-68"/>
     <use x="945.996094" xlink:href="#DejaVuSans-72"/>
     <use x="984.859375" xlink:href="#DejaVuSans-6f"/>
     <use x="1046.041016" xlink:href="#DejaVuSans-75"/>
     <use x="1109.419922" xlink:href="#DejaVuSans-67"/>
     <use x="1172.896484" xlink:href="#DejaVuSans-68"/>
     <use x="1236.275391" xlink:href="#DejaVuSans-20"/>
     <use x="1268.0625" xlink:href="#DejaVuSans-74"/>
     <use x="1307.271484" xlink:href="#DejaVuSans-69"/>
     <use x="1335.054688" xlink:href="#DejaVuSans-6d"/>
     <use x="1432.466797" xlink:href="#DejaVuSans-65"/>
     <use x="1493.990234" xlink:href="#DejaVuSans-20"/>
     <use x="1525.777344" xlink:href="#DejaVuSans-76"/>
     <use x="1584.957031" xlink:href="#DejaVuSans-73"/>
     <use x="1637.056641" xlink:href="#DejaVuSans-20"/>
     <use x="1668.84375" xlink:href="#DejaVuSans-74"/>
     <use x="1708.052734" xlink:href="#DejaVuSans-72"/>
     <use x="1749.166016" xlink:href="#DejaVuSans-75"/>
     <use x="1812.544922" xlink:href="#DejaVuSans-65"/>
     <use x="1874.068359" xlink:href="#DejaVuSans-20"/>
     <use x="1905.855469" xlink:href="#DejaVuSans-76"/>
     <use x="1965.035156" xlink:href="#DejaVuSans-61"/>
     <use x="2026.314453" xlink:href="#DejaVuSans-6c"/>
     <use x="2054.097656" xlink:href="#DejaVuSans-75"/>
     <use x="2117.476562" xlink:href="#DejaVuSans-65"/>
     <use x="2179" xlink:href="#DejaVuSans-73"/>
    </g>
   </g>
   <g id="legend_1">
    <g id="patch_7">
     <path d="M 784.6 329.075312 
L 837.60625 329.075312 
Q 839.60625 329.075312 839.60625 327.075312 
L 839.60625 254.684687 
Q 839.60625 252.684687 837.60625 252.684687 
L 784.6 252.684687 
Q 782.6 252.684687 782.6 254.684687 
L 782.6 327.075312 
Q 782.6 329.075312 784.6 329.075312 
z
" style="fill:#ffffff;opacity:0.8;stroke:#cccccc;stroke-linejoin:miter;"/>
    </g>
    <g id="line2d_43">
     <path d="M 786.6 260.783125 
L 806.6 260.783125 
" style="fill:none;stroke:#1f77b4;stroke-linecap:square;stroke-width:1.5;"/>
    </g>
    <g id="line2d_44"/>
    <g id="text_13">
     <!-- V(1) -->
     <g transform="translate(814.6 264.283125)scale(0.1 -0.1)">
      <use xlink:href="#DejaVuSans-56"/>
      <use x="68.408203" xlink:href="#DejaVuSans-28"/>
      <use x="107.421875" xlink:href="#DejaVuSans-31"/>
      <use x="171.044922" xlink:href="#DejaVuSans-29"/>
     </g>
    </g>
    <g id="line2d_45">
     <path d="M 786.6 275.46125 
L 806.6 275.46125 
" style="fill:none;stroke:#ff7f0e;stroke-linecap:square;stroke-width:1.5;"/>
    </g>
    <g id="line2d_46"/>
    <g id="text_14">
     <!-- V(2) -->
     <g transform="translate(814.6 278.96125)scale(0.1 -0.1)">
      <use xlink:href="#DejaVuSans-56"/>
      <use x="68.408203" xlink:href="#DejaVuSans-28"/>
      <use x="107.421875" xlink:href="#DejaVuSans-32"/>
      <use x="171.044922" xlink:href="#DejaVuSans-29"/>
     </g>
    </g>
    <g id="line2d_47">
     <path d="M 786.6 290.139375 
L 806.6 290.139375 
" style="fill:none;stroke:#2ca02c;stroke-linecap:square;stroke-width:1.5;"/>
    </g>
    <g id="line2d_48"/>
    <g id="text_15">
     <!-- V(3) -->
     <g transform="translate(814.6 293.639375)scale(0.1 -0.1)">
      <defs>
       <path d="M 2597 2516 
Q 3050 2419 3304 2112 
Q 3559 1806 3559 1356 
Q 3559 666 3084 287 
Q 2609 -91 1734 -91 
Q 1441 -91 1130 -33 
Q 819 25 488 141 
L 488 750 
Q 750 597 1062 519 
Q 1375 441 1716 441 
Q 2309 441 2620 675 
Q 2931 909 2931 1356 
Q 2931 1769 2642 2001 
Q 2353 2234 1838 2234 
L 1294 2234 
L 1294 2753 
L 1863 2753 
Q 2328 2753 2575 2939 
Q 2822 3125 2822 3475 
Q 2822 3834 2567 4026 
Q 2313 4219 1838 4219 
Q 1578 4219 1281 4162 
Q 984 4106 628 3988 
L 628 4550 
Q 988 4650 1302 4700 
Q 1616 4750 1894 4750 
Q 2613 4750 3031 4423 
Q 3450 4097 3450 3541 
Q 3450 3153 3228 2886 
Q 3006 2619 2597 2516 
z
" id="DejaVuSans-33" transform="scale(0.015625)"/>
      </defs>
      <use xlink:href="#DejaVuSans-56"/>
      <use x="68.408203" xlink:href="#DejaVuSans-28"/>
      <use x="107.421875" xlink:href="#DejaVuSans-33"/>
      <use x="171.044922" xlink:href="#DejaVuSans-29"/>
     </g>
    </g>
    <g id="line2d_49">
     <path d="M 786.6 304.8175 
L 806.6 304.8175 
" style="fill:none;stroke:#d62728;stroke-linecap:square;stroke-width:1.5;"/>
    </g>
    <g id="line2d_50"/>
    <g id="text_16">
     <!-- V(4) -->
     <g transform="translate(814.6 308.3175)scale(0.1 -0.1)">
      <use xlink:href="#DejaVuSans-56"/>
      <use x="68.408203" xlink:href="#DejaVuSans-28"/>
      <use x="107.421875" xlink:href="#DejaVuSans-34"/>
      <use x="171.044922" xlink:href="#DejaVuSans-29"/>
     </g>
    </g>
    <g id="line2d_51">
     <path d="M 786.6 319.495625 
L 806.6 319.495625 
" style="fill:none;stroke:#9467bd;stroke-linecap:square;stroke-width:1.5;"/>
    </g>
    <g id="line2d_52"/>
    <g id="text_17">
     <!-- V(5) -->
     <g transform="translate(814.6 322.995625)scale(0.1 -0.1)">
      <defs>
       <path d="M 691 4666 
L 3169 4666 
L 3169 4134 
L 1269 4134 
L 1269 2991 
Q 1406 3038 1543 3061 
Q 1681 3084 1819 3084 
Q 2600 3084 3056 2656 
Q 3513 2228 3513 1497 
Q 3513 744 3044 326 
Q 2575 -91 1722 -91 
Q 1428 -91 1123 -41 
Q 819 9 494 109 
L 494 744 
Q 775 591 1075 516 
Q 1375 441 1709 441 
Q 2250 441 2565 725 
Q 2881 1009 2881 1497 
Q 2881 1984 2565 2268 
Q 2250 2553 1709 2553 
Q 1456 2553 1204 2497 
Q 953 2441 691 2322 
L 691 4666 
z
" id="DejaVuSans-35" transform="scale(0.015625)"/>
      </defs>
      <use xlink:href="#DejaVuSans-56"/>
      <use x="68.408203" xlink:href="#DejaVuSans-28"/>
      <use x="107.421875" xlink:href="#DejaVuSans-35"/>
      <use x="171.044922" xlink:href="#DejaVuSans-29"/>
     </g>
    </g>
   </g>
  </g>
 </g>
 <defs>
  <clipPath id="pb3c5185bf8">
   <rect height="443.52" width="669.6" x="108" y="69.12"/>
  </clipPath>
 </defs>
</svg>
