<?xml version="1.0" encoding="utf-8" standalone="no"?>
<!DOCTYPE svg PUBLIC "-//W3C//DTD SVG 1.1//EN"
  "http://www.w3.org/Graphics/SVG/1.1/DTD/svg11.dtd">
<svg height="576pt" version="1.1" viewBox="0 0 864 576" width="864pt" xmlns="http://www.w3.org/2000/svg" xmlns:xlink="http://www.w3.org/1999/xlink">
 <metadata>
  <rdf:RDF xmlns:cc="http://creativecommons.org/ns#" xmlns:dc="http://purl.org/dc/elements/1.1/" xmlns:rdf="http://www.w3.org/1999/02/22-rdf-syntax-ns#">
   <cc:Work>
    <dc:type rdf:resource="http://purl.org/dc/dcmitype/StillImage"/>
    <dc:date>2021-09-11T13:31:40.629703</dc:date>
    <dc:format>image/svg+xml</dc:format>
    <dc:creator>
     <cc:Agent>
      <dc:title>Matplotlib v3.4.3, https://matplotlib.org/</dc:title>
     </cc:Agent>
    </dc:creator>
   </cc:Work>
  </rdf:RDF>
 </metadata>
 <defs>
  <style type="text/css">*{stroke-linecap:butt;stroke-linejoin:round;}</style>
 </defs>
 <g id="figure_1">
  <g id="patch_1">
   <path d="M 0 576 
L 864 576 
L 864 0 
L 0 0 
z
" style="fill:#ffffff;"/>
  </g>
  <g id="axes_1">
   <g id="patch_2">
    <path d="M 108 512.64 
L 777.6 512.64 
L 777.6 69.12 
L 108 69.12 
z
" style="fill:#ffffff;"/>
   </g>
   <g id="matplotlib.axis_1">
    <g id="xtick_1">
     <g id="line2d_1">
      <defs>
       <path d="M 0 0 
L 0 3.5 
" id="m7b7e160336" style="stroke:#000000;stroke-width:0.8;"/>
      </defs>
      <g>
       <use style="stroke:#000000;stroke-width:0.8;" x="138.436364" xlink:href="#m7b7e160336" y="512.64"/>
      </g>
     </g>
     <g id="text_1">
      <!-- 0 -->
      <g transform="translate(133.982614 530.277812)scale(0.14 -0.14)">
       <defs>
        <path d="M 2034 4250 
Q 1547 4250 1301 3770 
Q 1056 3291 1056 2328 
Q 1056 1369 1301 889 
Q 1547 409 2034 409 
Q 2525 409 2770 889 
Q 3016 1369 3016 2328 
Q 3016 3291 2770 3770 
Q 2525 4250 2034 4250 
z
M 2034 4750 
Q 2819 4750 3233 4129 
Q 3647 3509 3647 2328 
Q 3647 1150 3233 529 
Q 2819 -91 2034 -91 
Q 1250 -91 836 529 
Q 422 1150 422 2328 
Q 422 3509 836 4129 
Q 1250 4750 2034 4750 
z
" id="DejaVuSans-30" transform="scale(0.015625)"/>
       </defs>
       <use xlink:href="#DejaVuSans-30"/>
      </g>
     </g>
    </g>
    <g id="xtick_2">
     <g id="line2d_2">
      <g>
       <use style="stroke:#000000;stroke-width:0.8;" x="260.303686" xlink:href="#m7b7e160336" y="512.64"/>
      </g>
     </g>
     <g id="text_2">
      <!-- 200 -->
      <g transform="translate(246.942436 530.277812)scale(0.14 -0.14)">
       <defs>
        <path d="M 1228 531 
L 3431 531 
L 3431 0 
L 469 0 
L 469 531 
Q 828 903 1448 1529 
Q 2069 2156 2228 2338 
Q 2531 2678 2651 2914 
Q 2772 3150 2772 3378 
Q 2772 3750 2511 3984 
Q 2250 4219 1831 4219 
Q 1534 4219 1204 4116 
Q 875 4013 500 3803 
L 500 4441 
Q 881 4594 1212 4672 
Q 1544 4750 1819 4750 
Q 2544 4750 2975 4387 
Q 3406 4025 3406 3419 
Q 3406 3131 3298 2873 
Q 3191 2616 2906 2266 
Q 2828 2175 2409 1742 
Q 1991 1309 1228 531 
z
" id="DejaVuSans-32" transform="scale(0.015625)"/>
       </defs>
       <use xlink:href="#DejaVuSans-32"/>
       <use x="63.623047" xlink:href="#DejaVuSans-30"/>
       <use x="127.246094" xlink:href="#DejaVuSans-30"/>
      </g>
     </g>
    </g>
    <g id="xtick_3">
     <g id="line2d_3">
      <g>
       <use style="stroke:#000000;stroke-width:0.8;" x="382.171007" xlink:href="#m7b7e160336" y="512.64"/>
      </g>
     </g>
     <g id="text_3">
      <!-- 400 -->
      <g transform="translate(368.809757 530.277812)scale(0.14 -0.14)">
       <defs>
        <path d="M 2419 4116 
L 825 1625 
L 2419 1625 
L 2419 4116 
z
M 2253 4666 
L 3047 4666 
L 3047 1625 
L 3713 1625 
L 3713 1100 
L 3047 1100 
L 3047 0 
L 2419 0 
L 2419 1100 
L 313 1100 
L 313 1709 
L 2253 4666 
z
" id="DejaVuSans-34" transform="scale(0.015625)"/>
       </defs>
       <use xlink:href="#DejaVuSans-34"/>
       <use x="63.623047" xlink:href="#DejaVuSans-30"/>
       <use x="127.246094" xlink:href="#DejaVuSans-30"/>
      </g>
     </g>
    </g>
    <g id="xtick_4">
     <g id="line2d_4">
      <g>
       <use style="stroke:#000000;stroke-width:0.8;" x="504.038329" xlink:href="#m7b7e160336" y="512.64"/>
      </g>
     </g>
     <g id="text_4">
      <!-- 600 -->
      <g transform="translate(490.677079 530.277812)scale(0.14 -0.14)">
       <defs>
        <path d="M 2113 2584 
Q 1688 2584 1439 2293 
Q 1191 2003 1191 1497 
Q 1191 994 1439 701 
Q 1688 409 2113 409 
Q 2538 409 2786 701 
Q 3034 994 3034 1497 
Q 3034 2003 2786 2293 
Q 2538 2584 2113 2584 
z
M 3366 4563 
L 3366 3988 
Q 3128 4100 2886 4159 
Q 2644 4219 2406 4219 
Q 1781 4219 1451 3797 
Q 1122 3375 1075 2522 
Q 1259 2794 1537 2939 
Q 1816 3084 2150 3084 
Q 2853 3084 3261 2657 
Q 3669 2231 3669 1497 
Q 3669 778 3244 343 
Q 2819 -91 2113 -91 
Q 1303 -91 875 529 
Q 447 1150 447 2328 
Q 447 3434 972 4092 
Q 1497 4750 2381 4750 
Q 2619 4750 2861 4703 
Q 3103 4656 3366 4563 
z
" id="DejaVuSans-36" transform="scale(0.015625)"/>
       </defs>
       <use xlink:href="#DejaVuSans-36"/>
       <use x="63.623047" xlink:href="#DejaVuSans-30"/>
       <use x="127.246094" xlink:href="#DejaVuSans-30"/>
      </g>
     </g>
    </g>
    <g id="xtick_5">
     <g id="line2d_5">
      <g>
       <use style="stroke:#000000;stroke-width:0.8;" x="625.905651" xlink:href="#m7b7e160336" y="512.64"/>
      </g>
     </g>
     <g id="text_5">
      <!-- 800 -->
      <g transform="translate(612.544401 530.277812)scale(0.14 -0.14)">
       <defs>
        <path d="M 2034 2216 
Q 1584 2216 1326 1975 
Q 1069 1734 1069 1313 
Q 1069 891 1326 650 
Q 1584 409 2034 409 
Q 2484 409 2743 651 
Q 3003 894 3003 1313 
Q 3003 1734 2745 1975 
Q 2488 2216 2034 2216 
z
M 1403 2484 
Q 997 2584 770 2862 
Q 544 3141 544 3541 
Q 544 4100 942 4425 
Q 1341 4750 2034 4750 
Q 2731 4750 3128 4425 
Q 3525 4100 3525 3541 
Q 3525 3141 3298 2862 
Q 3072 2584 2669 2484 
Q 3125 2378 3379 2068 
Q 3634 1759 3634 1313 
Q 3634 634 3220 271 
Q 2806 -91 2034 -91 
Q 1263 -91 848 271 
Q 434 634 434 1313 
Q 434 1759 690 2068 
Q 947 2378 1403 2484 
z
M 1172 3481 
Q 1172 3119 1398 2916 
Q 1625 2713 2034 2713 
Q 2441 2713 2670 2916 
Q 2900 3119 2900 3481 
Q 2900 3844 2670 4047 
Q 2441 4250 2034 4250 
Q 1625 4250 1398 4047 
Q 1172 3844 1172 3481 
z
" id="DejaVuSans-38" transform="scale(0.015625)"/>
       </defs>
       <use xlink:href="#DejaVuSans-38"/>
       <use x="63.623047" xlink:href="#DejaVuSans-30"/>
       <use x="127.246094" xlink:href="#DejaVuSans-30"/>
      </g>
     </g>
    </g>
    <g id="xtick_6">
     <g id="line2d_6">
      <g>
       <use style="stroke:#000000;stroke-width:0.8;" x="747.772973" xlink:href="#m7b7e160336" y="512.64"/>
      </g>
     </g>
     <g id="text_6">
      <!-- 1000 -->
      <g transform="translate(729.957973 530.277812)scale(0.14 -0.14)">
       <defs>
        <path d="M 794 531 
L 1825 531 
L 1825 4091 
L 703 3866 
L 703 4441 
L 1819 4666 
L 2450 4666 
L 2450 531 
L 3481 531 
L 3481 0 
L 794 0 
L 794 531 
z
" id="DejaVuSans-31" transform="scale(0.015625)"/>
       </defs>
       <use xlink:href="#DejaVuSans-31"/>
       <use x="63.623047" xlink:href="#DejaVuSans-30"/>
       <use x="127.246094" xlink:href="#DejaVuSans-30"/>
       <use x="190.869141" xlink:href="#DejaVuSans-30"/>
      </g>
     </g>
    </g>
    <g id="text_7">
     <!-- Episodes -->
     <g transform="translate(411.660937 547.827188)scale(0.14 -0.14)">
      <defs>
       <path d="M 628 4666 
L 3578 4666 
L 3578 4134 
L 1259 4134 
L 1259 2753 
L 3481 2753 
L 3481 2222 
L 1259 2222 
L 1259 531 
L 3634 531 
L 3634 0 
L 628 0 
L 628 4666 
z
" id="DejaVuSans-45" transform="scale(0.015625)"/>
       <path d="M 1159 525 
L 1159 -1331 
L 581 -1331 
L 581 3500 
L 1159 3500 
L 1159 2969 
Q 1341 3281 1617 3432 
Q 1894 3584 2278 3584 
Q 2916 3584 3314 3078 
Q 3713 2572 3713 1747 
Q 3713 922 3314 415 
Q 2916 -91 2278 -91 
Q 1894 -91 1617 61 
Q 1341 213 1159 525 
z
M 3116 1747 
Q 3116 2381 2855 2742 
Q 2594 3103 2138 3103 
Q 1681 3103 1420 2742 
Q 1159 2381 1159 1747 
Q 1159 1113 1420 752 
Q 1681 391 2138 391 
Q 2594 391 2855 752 
Q 3116 1113 3116 1747 
z
" id="DejaVuSans-70" transform="scale(0.015625)"/>
       <path d="M 603 3500 
L 1178 3500 
L 1178 0 
L 603 0 
L 603 3500 
z
M 603 4863 
L 1178 4863 
L 1178 4134 
L 603 4134 
L 603 4863 
z
" id="DejaVuSans-69" transform="scale(0.015625)"/>
       <path d="M 2834 3397 
L 2834 2853 
Q 2591 2978 2328 3040 
Q 2066 3103 1784 3103 
Q 1356 3103 1142 2972 
Q 928 2841 928 2578 
Q 928 2378 1081 2264 
Q 1234 2150 1697 2047 
L 1894 2003 
Q 2506 1872 2764 1633 
Q 3022 1394 3022 966 
Q 3022 478 2636 193 
Q 2250 -91 1575 -91 
Q 1294 -91 989 -36 
Q 684 19 347 128 
L 347 722 
Q 666 556 975 473 
Q 1284 391 1588 391 
Q 1994 391 2212 530 
Q 2431 669 2431 922 
Q 2431 1156 2273 1281 
Q 2116 1406 1581 1522 
L 1381 1569 
Q 847 1681 609 1914 
Q 372 2147 372 2553 
Q 372 3047 722 3315 
Q 1072 3584 1716 3584 
Q 2034 3584 2315 3537 
Q 2597 3491 2834 3397 
z
" id="DejaVuSans-73" transform="scale(0.015625)"/>
       <path d="M 1959 3097 
Q 1497 3097 1228 2736 
Q 959 2375 959 1747 
Q 959 1119 1226 758 
Q 1494 397 1959 397 
Q 2419 397 2687 759 
Q 2956 1122 2956 1747 
Q 2956 2369 2687 2733 
Q 2419 3097 1959 3097 
z
M 1959 3584 
Q 2709 3584 3137 3096 
Q 3566 2609 3566 1747 
Q 3566 888 3137 398 
Q 2709 -91 1959 -91 
Q 1206 -91 779 398 
Q 353 888 353 1747 
Q 353 2609 779 3096 
Q 1206 3584 1959 3584 
z
" id="DejaVuSans-6f" transform="scale(0.015625)"/>
       <path d="M 2906 2969 
L 2906 4863 
L 3481 4863 
L 3481 0 
L 2906 0 
L 2906 525 
Q 2725 213 2448 61 
Q 2172 -91 1784 -91 
Q 1150 -91 751 415 
Q 353 922 353 1747 
Q 353 2572 751 3078 
Q 1150 3584 1784 3584 
Q 2172 3584 2448 3432 
Q 2725 3281 2906 2969 
z
M 947 1747 
Q 947 1113 1208 752 
Q 1469 391 1925 391 
Q 2381 391 2643 752 
Q 2906 1113 2906 1747 
Q 2906 2381 2643 2742 
Q 2381 3103 1925 3103 
Q 1469 3103 1208 2742 
Q 947 2381 947 1747 
z
" id="DejaVuSans-64" transform="scale(0.015625)"/>
       <path d="M 3597 1894 
L 3597 1613 
L 953 1613 
Q 991 1019 1311 708 
Q 1631 397 2203 397 
Q 2534 397 2845 478 
Q 3156 559 3463 722 
L 3463 178 
Q 3153 47 2828 -22 
Q 2503 -91 2169 -91 
Q 1331 -91 842 396 
Q 353 884 353 1716 
Q 353 2575 817 3079 
Q 1281 3584 2069 3584 
Q 2775 3584 3186 3129 
Q 3597 2675 3597 1894 
z
M 3022 2063 
Q 3016 2534 2758 2815 
Q 2500 3097 2075 3097 
Q 1594 3097 1305 2825 
Q 1016 2553 972 2059 
L 3022 2063 
z
" id="DejaVuSans-65" transform="scale(0.015625)"/>
      </defs>
      <use xlink:href="#DejaVuSans-45"/>
      <use x="63.183594" xlink:href="#DejaVuSans-70"/>
      <use x="126.660156" xlink:href="#DejaVuSans-69"/>
      <use x="154.443359" xlink:href="#DejaVuSans-73"/>
      <use x="206.542969" xlink:href="#DejaVuSans-6f"/>
      <use x="267.724609" xlink:href="#DejaVuSans-64"/>
      <use x="331.201172" xlink:href="#DejaVuSans-65"/>
      <use x="392.724609" xlink:href="#DejaVuSans-73"/>
     </g>
    </g>
   </g>
   <g id="matplotlib.axis_2">
    <g id="ytick_1">
     <g id="line2d_7">
      <defs>
       <path d="M 0 0 
L -3.5 0 
" id="ma74881fd18" style="stroke:#000000;stroke-width:0.8;"/>
      </defs>
      <g>
       <use style="stroke:#000000;stroke-width:0.8;" x="108" xlink:href="#ma74881fd18" y="492.48"/>
      </g>
     </g>
     <g id="text_8">
      <!-- 0.0 -->
      <g transform="translate(78.735625 497.798906)scale(0.14 -0.14)">
       <defs>
        <path d="M 684 794 
L 1344 794 
L 1344 0 
L 684 0 
L 684 794 
z
" id="DejaVuSans-2e" transform="scale(0.015625)"/>
       </defs>
       <use xlink:href="#DejaVuSans-30"/>
       <use x="63.623047" xlink:href="#DejaVuSans-2e"/>
       <use x="95.410156" xlink:href="#DejaVuSans-30"/>
      </g>
     </g>
    </g>
    <g id="ytick_2">
     <g id="line2d_8">
      <g>
       <use style="stroke:#000000;stroke-width:0.8;" x="108" xlink:href="#ma74881fd18" y="404.814979"/>
      </g>
     </g>
     <g id="text_9">
      <!-- 0.2 -->
      <g transform="translate(78.735625 410.133885)scale(0.14 -0.14)">
       <use xlink:href="#DejaVuSans-30"/>
       <use x="63.623047" xlink:href="#DejaVuSans-2e"/>
       <use x="95.410156" xlink:href="#DejaVuSans-32"/>
      </g>
     </g>
    </g>
    <g id="ytick_3">
     <g id="line2d_9">
      <g>
       <use style="stroke:#000000;stroke-width:0.8;" x="108" xlink:href="#ma74881fd18" y="317.149958"/>
      </g>
     </g>
     <g id="text_10">
      <!-- 0.4 -->
      <g transform="translate(78.735625 322.468864)scale(0.14 -0.14)">
       <use xlink:href="#DejaVuSans-30"/>
       <use x="63.623047" xlink:href="#DejaVuSans-2e"/>
       <use x="95.410156" xlink:href="#DejaVuSans-34"/>
      </g>
     </g>
    </g>
    <g id="ytick_4">
     <g id="line2d_10">
      <g>
       <use style="stroke:#000000;stroke-width:0.8;" x="108" xlink:href="#ma74881fd18" y="229.484936"/>
      </g>
     </g>
     <g id="text_11">
      <!-- 0.6 -->
      <g transform="translate(78.735625 234.803843)scale(0.14 -0.14)">
       <use xlink:href="#DejaVuSans-30"/>
       <use x="63.623047" xlink:href="#DejaVuSans-2e"/>
       <use x="95.410156" xlink:href="#DejaVuSans-36"/>
      </g>
     </g>
    </g>
    <g id="ytick_5">
     <g id="line2d_11">
      <g>
       <use style="stroke:#000000;stroke-width:0.8;" x="108" xlink:href="#ma74881fd18" y="141.819915"/>
      </g>
     </g>
     <g id="text_12">
      <!-- 0.8 -->
      <g transform="translate(78.735625 147.138821)scale(0.14 -0.14)">
       <use xlink:href="#DejaVuSans-30"/>
       <use x="63.623047" xlink:href="#DejaVuSans-2e"/>
       <use x="95.410156" xlink:href="#DejaVuSans-38"/>
      </g>
     </g>
    </g>
    <g id="text_13">
     <!-- Reward -->
     <g transform="translate(71.824062 316.949531)rotate(-90)scale(0.14 -0.14)">
      <defs>
       <path d="M 2841 2188 
Q 3044 2119 3236 1894 
Q 3428 1669 3622 1275 
L 4263 0 
L 3584 0 
L 2988 1197 
Q 2756 1666 2539 1819 
Q 2322 1972 1947 1972 
L 1259 1972 
L 1259 0 
L 628 0 
L 628 4666 
L 2053 4666 
Q 2853 4666 3247 4331 
Q 3641 3997 3641 3322 
Q 3641 2881 3436 2590 
Q 3231 2300 2841 2188 
z
M 1259 4147 
L 1259 2491 
L 2053 2491 
Q 2509 2491 2742 2702 
Q 2975 2913 2975 3322 
Q 2975 3731 2742 3939 
Q 2509 4147 2053 4147 
L 1259 4147 
z
" id="DejaVuSans-52" transform="scale(0.015625)"/>
       <path d="M 269 3500 
L 844 3500 
L 1563 769 
L 2278 3500 
L 2956 3500 
L 3675 769 
L 4391 3500 
L 4966 3500 
L 4050 0 
L 3372 0 
L 2619 2869 
L 1863 0 
L 1184 0 
L 269 3500 
z
" id="DejaVuSans-77" transform="scale(0.015625)"/>
       <path d="M 2194 1759 
Q 1497 1759 1228 1600 
Q 959 1441 959 1056 
Q 959 750 1161 570 
Q 1363 391 1709 391 
Q 2188 391 2477 730 
Q 2766 1069 2766 1631 
L 2766 1759 
L 2194 1759 
z
M 3341 1997 
L 3341 0 
L 2766 0 
L 2766 531 
Q 2569 213 2275 61 
Q 1981 -91 1556 -91 
Q 1019 -91 701 211 
Q 384 513 384 1019 
Q 384 1609 779 1909 
Q 1175 2209 1959 2209 
L 2766 2209 
L 2766 2266 
Q 2766 2663 2505 2880 
Q 2244 3097 1772 3097 
Q 1472 3097 1187 3025 
Q 903 2953 641 2809 
L 641 3341 
Q 956 3463 1253 3523 
Q 1550 3584 1831 3584 
Q 2591 3584 2966 3190 
Q 3341 2797 3341 1997 
z
" id="DejaVuSans-61" transform="scale(0.015625)"/>
       <path d="M 2631 2963 
Q 2534 3019 2420 3045 
Q 2306 3072 2169 3072 
Q 1681 3072 1420 2755 
Q 1159 2438 1159 1844 
L 1159 0 
L 581 0 
L 581 3500 
L 1159 3500 
L 1159 2956 
Q 1341 3275 1631 3429 
Q 1922 3584 2338 3584 
Q 2397 3584 2469 3576 
Q 2541 3569 2628 3553 
L 2631 2963 
z
" id="DejaVuSans-72" transform="scale(0.015625)"/>
      </defs>
      <use xlink:href="#DejaVuSans-52"/>
      <use x="64.982422" xlink:href="#DejaVuSans-65"/>
      <use x="126.505859" xlink:href="#DejaVuSans-77"/>
      <use x="208.292969" xlink:href="#DejaVuSans-61"/>
      <use x="269.572266" xlink:href="#DejaVuSans-72"/>
      <use x="308.935547" xlink:href="#DejaVuSans-64"/>
     </g>
    </g>
   </g>
   <g id="line2d_12">
    <path clip-path="url(#pb52c648e35)" d="M 138.436364 492.48 
L 139.655037 492.48 
L 140.264373 475.29078 
L 141.483047 476.612519 
L 142.70172 444.128273 
L 144.52973 449.596551 
L 145.748403 452.89401 
L 147.576413 407.799105 
L 149.404423 367.804153 
L 150.013759 355.504182 
L 150.623096 360.875782 
L 152.451106 326.187565 
L 153.060442 315.519617 
L 153.669779 322.45924 
L 155.497789 292.115693 
L 157.325799 265.203812 
L 159.153808 290.90733 
L 160.372482 272.702606 
L 160.981818 281.321328 
L 161.591155 272.41284 
L 162.200491 281.042925 
L 162.809828 272.145355 
L 164.028501 289.087657 
L 165.856511 262.518229 
L 167.684521 238.953636 
L 169.512531 218.054052 
L 170.731204 239.155624 
L 172.559214 218.233197 
L 173.16855 211.798753 
L 173.777887 222.805861 
L 175.605897 203.73249 
L 177.433907 186.816197 
L 179.261916 171.813032 
L 180.48059 162.765886 
L 181.089926 175.695851 
L 181.699263 170.929539 
L 183.527273 207.294889 
L 184.136609 201.289399 
L 184.745946 212.708638 
L 186.573956 194.777199 
L 188.401966 228.445528 
L 190.229975 208.734345 
L 190.839312 219.861626 
L 192.667322 201.121229 
L 193.276658 212.547063 
L 195.104668 194.633897 
L 196.323342 183.831975 
L 196.932678 195.935819 
L 198.760688 179.901281 
L 200.588698 165.68015 
L 201.198034 161.306611 
L 201.807371 174.293802 
L 202.416708 169.582473 
L 203.026044 182.245121 
L 204.854054 167.758916 
L 206.682064 154.91101 
L 208.510074 143.516122 
L 210.338084 133.409925 
L 211.556757 127.315728 
L 212.166093 141.635896 
L 213.994103 131.742341 
L 215.822113 122.967685 
L 216.43145 120.269144 
L 217.650123 148.88974 
L 219.478133 138.175821 
L 221.306143 128.673578 
L 222.524816 122.943576 
L 223.134152 137.4352 
L 224.352826 131.031486 
L 225.571499 158.824528 
L 226.790172 150.776113 
L 228.008845 177.050922 
L 229.836855 163.152148 
L 231.664865 150.825239 
L 232.274201 164.223465 
L 233.492875 155.759907 
L 234.102211 168.964617 
L 235.320885 160.136495 
L 236.539558 185.691551 
L 238.367568 170.815576 
L 238.976904 166.240648 
L 239.586241 179.034348 
L 240.195577 174.137114 
L 241.414251 198.615614 
L 243.24226 182.278008 
L 245.07027 167.788084 
L 246.89828 154.936879 
L 248.116953 180.891752 
L 249.944963 166.558605 
L 250.5543 179.339836 
L 252.38231 165.1822 
L 252.991646 178.017408 
L 254.210319 168.493186 
L 254.819656 181.198551 
L 256.647666 166.830706 
L 257.257002 179.601267 
L 259.085012 165.414065 
L 259.694349 161.050961 
L 260.303686 174.048178 
L 260.913022 169.34648 
L 261.522359 182.018383 
L 262.741032 172.186512 
L 263.350369 184.747041 
L 265.178378 169.977884 
L 267.006388 156.879027 
L 268.834398 145.261569 
L 269.443735 158.877978 
L 270.662408 150.825453 
L 272.490418 189.46445 
L 274.318428 174.161783 
L 274.927764 186.644851 
L 276.755774 171.661064 
L 277.974447 162.625603 
L 279.19312 187.989263 
L 279.802457 182.740856 
L 280.411794 194.887489 
L 281.02113 189.368564 
L 281.630467 201.255287 
L 283.458477 184.619151 
L 284.67715 208.29165 
L 286.50516 190.859745 
L 288.33317 175.39928 
L 288.942506 187.833818 
L 290.770516 172.715566 
L 291.379853 185.255348 
L 293.207862 170.428705 
L 295.035872 157.278863 
L 295.645209 153.234785 
L 296.254545 166.538519 
L 298.082555 153.828633 
L 299.301229 146.16437 
L 299.910565 159.745375 
L 301.129238 151.626153 
L 301.738575 164.992971 
L 303.566585 152.457876 
L 304.175921 165.792077 
L 304.785258 161.414148 
L 306.613268 198.855629 
L 307.222604 210.370311 
L 309.050614 192.703322 
L 310.269287 215.754201 
L 312.097297 197.478328 
L 312.706634 209.047021 
L 314.534644 191.529689 
L 316.362654 175.993457 
L 316.97199 171.215474 
L 317.581327 183.814083 
L 319.409337 169.150438 
L 320.62801 160.308028 
L 321.237346 173.33438 
L 323.065356 159.855924 
L 324.893366 147.901797 
L 326.721376 137.299608 
L 327.330713 134.039031 
L 327.940049 148.095539 
L 328.549386 144.411592 
L 329.158722 158.061334 
L 330.986732 146.310164 
L 332.814742 135.887978 
L 333.424079 132.682759 
L 334.642752 160.348829 
L 336.470762 148.338958 
L 338.298771 137.687329 
L 340.126781 128.240332 
L 340.736118 125.33502 
L 341.345455 139.732863 
L 343.173464 130.054529 
L 343.782801 127.078072 
L 345.610811 168.402749 
L 347.438821 155.48203 
L 348.048157 151.508417 
L 348.657494 164.879852 
L 349.26683 160.537696 
L 349.876167 173.555042 
L 351.704177 160.05163 
L 353.532187 148.075371 
L 354.141523 161.581434 
L 355.969533 149.432163 
L 357.797543 138.656899 
L 359.625553 129.10025 
L 360.234889 126.161216 
L 360.844226 140.526659 
L 361.453563 137.139531 
L 362.062899 151.074451 
L 363.890909 140.113454 
L 365.109582 133.503799 
L 366.937592 174.101767 
L 367.546929 169.397968 
L 368.156265 182.067851 
L 369.984275 167.601694 
L 370.593612 180.34202 
L 372.421622 166.071044 
L 373.030958 161.682175 
L 373.640295 174.654639 
L 374.249631 169.929159 
L 374.858968 182.578211 
L 376.686978 168.054336 
L 378.514988 155.17302 
L 380.342998 143.748501 
L 381.561671 136.859334 
L 382.171007 150.805243 
L 382.780344 147.015033 
L 383.389681 160.562679 
L 385.21769 148.528623 
L 387.0457 137.855543 
L 387.655037 134.573165 
L 388.87371 162.093875 
L 390.70172 149.88665 
L 391.920393 176.229853 
L 392.52973 171.442599 
L 393.139066 184.032301 
L 394.967076 169.343977 
L 396.185749 194.191038 
L 398.013759 178.353824 
L 398.623096 190.672498 
L 400.451106 175.233209 
L 402.279115 161.540007 
L 403.497789 153.28279 
L 404.107125 166.584641 
L 404.716462 162.175632 
L 405.325799 175.128744 
L 405.935135 170.384672 
L 407.153808 195.151709 
L 408.981818 179.20585 
L 410.809828 165.063367 
L 412.637838 152.520311 
L 414.465848 141.395797 
L 415.684521 134.687538 
L 416.293857 148.718615 
L 416.903194 145.010234 
L 417.512531 158.636499 
L 418.121867 154.539181 
L 418.731204 167.791763 
L 420.559214 154.940142 
L 421.16855 168.176999 
L 422.99656 155.281811 
L 424.82457 143.844988 
L 425.433907 140.327729 
L 426.043243 154.137622 
L 427.871253 142.8302 
L 429.089926 136.011645 
L 429.699263 149.990796 
L 430.917936 142.621638 
L 431.527273 156.341574 
L 433.355283 144.784898 
L 435.183292 134.535211 
L 437.011302 125.444699 
L 438.839312 117.382267 
L 440.667322 110.231646 
L 441.276658 108.032557 
L 442.495332 137.594068 
L 444.323342 128.157618 
L 444.932678 142.44477 
L 446.760688 132.459736 
L 447.979361 126.438603 
L 448.588698 140.793167 
L 450.416708 130.99492 
L 451.026044 145.170805 
L 452.854054 134.877474 
L 454.682064 125.748254 
L 455.2914 122.940671 
L 456.510074 151.355844 
L 458.338084 140.363024 
L 458.94742 136.982313 
L 460.77543 177.186882 
L 461.384767 172.362098 
L 462.60344 196.977085 
L 464.43145 180.824787 
L 465.040786 175.85734 
L 465.650123 188.273915 
L 466.868796 177.961033 
L 467.478133 190.295111 
L 469.306143 174.898502 
L 470.524816 199.318456 
L 471.134152 193.625767 
L 471.743489 205.345541 
L 473.571499 188.246823 
L 474.180835 200.177535 
L 476.008845 183.663286 
L 477.836855 169.016696 
L 479.664865 156.026543 
L 480.883538 148.193275 
L 481.492875 161.694715 
L 483.320885 149.532633 
L 483.930221 162.981549 
L 485.758231 150.673934 
L 487.586241 139.758233 
L 488.195577 136.401239 
L 489.414251 163.781382 
L 491.24226 151.383311 
L 492.460934 177.61143 
L 493.07027 172.769997 
L 493.679607 185.307644 
L 495.507617 170.475087 
L 496.72629 161.53082 
L 497.944963 186.978662 
L 499.163636 176.765377 
L 499.772973 189.146342 
L 501.600983 173.879652 
L 503.428993 160.33953 
L 505.257002 148.33071 
L 507.085012 137.680013 
L 508.913022 128.233844 
L 510.741032 119.855977 
L 511.959705 114.803991 
L 513.787715 157.51679 
L 515.615725 145.827204 
L 517.443735 135.459638 
L 518.053071 149.460437 
L 518.662408 145.722965 
L 519.271744 159.32128 
L 521.099754 147.427618 
L 522.927764 136.879055 
L 524.146437 130.518105 
L 524.755774 144.712689 
L 526.583784 134.471168 
L 527.802457 128.295368 
L 529.02113 156.2988 
L 529.630467 152.293157 
L 530.239803 165.633817 
L 532.067813 153.026247 
L 533.895823 141.844514 
L 535.723833 131.927365 
L 537.551843 123.131784 
L 539.379853 115.330929 
L 539.989189 112.931869 
L 540.598526 127.816109 
L 542.426536 119.485485 
L 544.254545 112.097003 
L 546.082555 105.544112 
L 547.910565 99.732313 
L 549.738575 94.577791 
L 550.347912 92.99258 
L 550.957248 108.658753 
L 551.566585 106.521347 
L 552.175921 121.65698 
L 553.394595 116.466508 
L 554.003931 131.212135 
L 554.613268 128.190283 
L 555.831941 156.201795 
L 557.050614 148.355051 
L 557.659951 161.850147 
L 558.269287 157.626804 
L 558.878624 170.758302 
L 560.706634 157.571185 
L 561.925307 149.619144 
L 562.534644 163.064668 
L 563.753317 154.690214 
L 564.362654 167.936872 
L 566.190663 155.06884 
L 567.409337 147.309214 
L 568.018673 160.845323 
L 569.237346 152.641522 
L 570.45602 178.772893 
L 572.284029 164.679375 
L 574.112039 152.179746 
L 575.940049 141.093748 
L 577.768059 131.261506 
L 579.596069 122.541229 
L 580.205405 119.859412 
L 580.814742 134.471984 
L 582.642752 125.388623 
L 584.470762 117.332533 
L 585.080098 114.854978 
L 585.689435 129.663803 
L 587.517445 121.124217 
L 589.345455 113.550404 
L 589.954791 128.410388 
L 591.173464 122.700623 
L 591.782801 137.201775 
L 593.610811 127.809692 
L 595.438821 119.479794 
L 596.657494 114.456733 
L 597.26683 129.281175 
L 597.876167 126.335047 
L 598.485504 140.693672 
L 600.313514 130.906677 
L 600.92285 145.086023 
L 602.75086 134.80228 
L 603.969533 128.60102 
L 604.57887 142.870784 
L 606.40688 132.83757 
L 607.625553 160.491736 
L 608.234889 156.321664 
L 608.844226 169.504344 
L 609.453563 164.980836 
L 610.062899 177.823941 
L 611.890909 163.837743 
L 612.500246 176.725675 
L 614.328256 162.863685 
L 616.156265 150.569399 
L 617.374939 143.15575 
L 617.984275 156.85474 
L 619.812285 145.240029 
L 621.640295 134.938869 
L 623.468305 125.802706 
L 624.077641 140.182207 
L 625.905651 130.453055 
L 626.514988 144.65019 
L 628.342998 134.415737 
L 628.952334 148.457473 
L 630.780344 137.79244 
L 631.389681 134.512536 
L 631.999017 148.550476 
L 632.608354 144.848688 
L 633.21769 158.481289 
L 635.0457 146.682625 
L 635.655037 160.243306 
L 637.483047 148.245369 
L 639.311057 137.604324 
L 641.139066 128.166714 
L 642.967076 119.796439 
L 643.576413 134.411481 
L 644.185749 131.264164 
L 645.404423 159.039315 
L 647.232432 147.177541 
L 647.841769 143.529594 
L 648.451106 157.213924 
L 650.279115 145.558591 
L 652.107125 135.221404 
L 652.716462 149.231545 
L 653.325799 145.503049 
L 653.935135 159.109988 
L 655.763145 147.240222 
L 656.981818 140.082565 
L 657.591155 153.902072 
L 658.200491 149.990418 
L 658.809828 163.421382 
L 659.419165 159.136422 
L 660.637838 184.768377 
L 662.465848 169.996808 
L 663.684521 161.089317 
L 665.512531 198.567535 
L 666.121867 192.904294 
L 666.731204 204.652361 
L 668.559214 187.632037 
L 669.16855 182.397639 
L 669.777887 194.557732 
L 670.387224 189.051738 
L 670.99656 200.950885 
L 672.82457 184.349175 
L 673.433907 196.432737 
L 674.043243 190.853214 
L 675.261916 214.046354 
L 677.089926 195.963628 
L 678.917936 179.925945 
L 679.527273 174.993747 
L 680.136609 187.444188 
L 681.964619 172.370001 
L 682.573956 184.923335 
L 684.401966 170.13424 
L 686.229975 157.0177 
L 688.057985 145.384559 
L 689.885995 135.067053 
L 690.495332 149.083247 
L 692.323342 138.347443 
L 692.932678 135.045775 
L 694.760688 175.469354 
L 695.370025 187.901144 
L 697.198034 172.775278 
L 699.026044 159.360053 
L 700.854054 147.462007 
L 702.682064 136.909555 
L 703.2914 150.853494 
L 703.900737 147.061392 
L 704.510074 160.607219 
L 706.338084 148.568126 
L 708.166093 137.890579 
L 708.77543 151.796046 
L 710.60344 140.753442 
L 712.43145 130.959686 
L 714.259459 122.273544 
L 714.868796 119.602224 
L 715.478133 134.224882 
L 717.306143 125.169466 
L 719.134152 117.138162 
L 720.962162 110.015147 
L 722.180835 105.719857 
L 724.008845 149.460014 
L 724.618182 162.911779 
L 726.446192 150.612054 
L 727.664865 176.899478 
L 729.492875 163.017831 
L 730.102211 158.748697 
L 731.930221 196.491624 
L 733.758231 180.394228 
L 734.367568 192.632886 
L 736.195577 176.971889 
L 738.023587 163.082054 
L 739.851597 150.763072 
L 741.679607 139.83729 
L 742.89828 133.248871 
L 743.507617 147.336366 
L 745.335627 136.798123 
L 747.163636 127.45169 
L 747.163636 127.45169 
" style="fill:none;stroke:#1f77b4;stroke-linecap:square;stroke-width:1.5;"/>
   </g>
   <g id="line2d_13">
    <path clip-path="url(#pb52c648e35)" d="M 138.436364 492.48 
L 139.655037 492.48 
L 140.264373 475.29078 
L 141.483047 476.612519 
L 142.092383 460.045554 
L 142.70172 461.317493 
L 143.920393 430.009335 
L 145.748403 437.074377 
L 146.35774 422.057926 
L 148.185749 430.022223 
L 150.013759 437.085808 
L 151.841769 443.350545 
L 153.669779 448.90678 
L 155.497789 453.834639 
L 157.325799 458.205188 
L 159.153808 462.081455 
L 160.981818 465.519341 
L 162.809828 468.568423 
L 164.637838 471.272673 
L 165.247174 454.915113 
L 167.075184 459.163468 
L 168.903194 462.931359 
L 169.512531 446.90091 
L 170.731204 450.405646 
L 171.949877 419.936537 
L 173.777887 428.14075 
L 175.605897 435.417118 
L 177.433907 441.870573 
L 179.261916 447.594184 
L 181.089926 452.670489 
L 181.699263 437.042427 
L 182.3086 439.216449 
L 184.136609 395.668391 
L 184.745946 399.464925 
L 185.355283 385.923355 
L 187.183292 397.974246 
L 188.401966 371.536772 
L 190.229975 385.214696 
L 191.448649 393.462701 
L 192.057985 380.156513 
L 193.885995 392.859598 
L 195.714005 404.126043 
L 196.323342 407.590904 
L 196.932678 393.730669 
L 198.760688 404.898602 
L 200.588698 414.803511 
L 201.198034 417.849648 
L 201.807371 403.587108 
L 203.635381 413.64034 
L 204.244717 416.732091 
L 205.463391 388.85226 
L 206.072727 392.916093 
L 206.682064 379.63134 
L 208.510074 392.393819 
L 210.338084 403.712942 
L 212.166093 413.751942 
L 213.994103 422.655594 
L 214.60344 408.204586 
L 216.43145 417.735609 
L 217.650123 423.482967 
L 218.259459 408.999513 
L 220.087469 418.440635 
L 221.915479 377.242192 
L 222.524816 381.761322 
L 223.743489 356.570516 
L 225.571499 371.94103 
L 227.399509 385.573235 
L 228.008845 389.765657 
L 229.227518 363.95937 
L 231.055528 378.494251 
L 232.883538 391.385328 
L 234.711548 402.818504 
L 236.539558 412.95866 
L 238.367568 421.952027 
L 240.195577 429.9283 
L 242.023587 437.002507 
L 243.851597 443.276665 
L 244.460934 428.016988 
L 246.288943 435.307352 
L 246.89828 437.549417 
L 248.116953 408.068869 
L 249.944963 417.615241 
L 251.772973 426.081978 
L 252.38231 428.685822 
L 252.991646 413.998334 
L 254.819656 422.874121 
L 255.428993 408.414543 
L 257.257002 417.921822 
L 258.475676 389.950509 
L 259.694349 397.83436 
L 260.913022 371.407642 
L 262.741032 385.10017 
L 264.569042 397.244159 
L 265.787715 404.567176 
L 266.397052 390.825518 
L 268.225061 402.322005 
L 270.053071 412.518312 
L 271.881081 421.561479 
L 272.490418 407.153378 
L 273.709091 413.714441 
L 275.537101 373.050501 
L 277.365111 386.557232 
L 277.974447 373.521846 
L 279.802457 386.97527 
L 281.02113 395.087899 
L 282.239803 368.872366 
L 282.84914 373.719724 
L 283.458477 361.18777 
L 285.286486 376.036101 
L 285.895823 380.602529 
L 286.50516 367.800661 
L 288.33317 381.901116 
L 290.161179 394.406897 
L 291.379853 401.948082 
L 291.989189 388.309133 
L 293.817199 400.090208 
L 295.645209 410.538917 
L 296.254545 396.563073 
L 297.473219 403.938461 
L 299.301229 364.380123 
L 299.910565 369.403648 
L 301.738575 333.750982 
L 302.957248 312.251859 
L 303.566585 319.319629 
L 305.394595 289.331153 
L 307.222604 262.734186 
L 308.441278 246.695794 
L 309.050614 256.33439 
L 310.269287 240.788101 
L 311.487961 260.141572 
L 312.097297 252.063664 
L 312.706634 261.491755 
L 314.534644 238.04325 
L 316.362654 217.246625 
L 318.190663 198.801969 
L 320.018673 182.443287 
L 321.846683 167.934671 
L 323.674693 155.066889 
L 324.284029 168.298775 
L 326.112039 155.389815 
L 327.330713 147.605507 
L 327.940049 161.129997 
L 329.768059 149.031781 
L 331.596069 138.301797 
L 332.205405 135.001919 
L 333.424079 162.48966 
L 334.642752 154.159421 
L 335.252088 167.426894 
L 336.470762 158.717014 
L 337.080098 171.805758 
L 338.908108 158.50018 
L 340.736118 146.699379 
L 342.564128 136.233176 
L 343.173464 150.20364 
L 345.001474 139.341126 
L 346.829484 129.707095 
L 348.048157 157.601974 
L 349.876167 145.902755 
L 351.704177 135.526645 
L 353.532187 126.324008 
L 355.360197 118.162132 
L 357.188206 110.923313 
L 359.016216 104.503159 
L 360.844226 98.809084 
L 362.672236 93.758974 
L 364.500246 89.28 
L 365.718919 120.28346 
L 366.328256 117.690183 
L 366.937592 132.387823 
L 368.156265 126.372219 
L 368.765602 140.729387 
L 370.593612 130.938352 
L 372.421622 122.254622 
L 374.249631 114.552968 
L 374.858968 112.184416 
L 375.468305 127.097969 
L 376.077641 124.237456 
L 376.686978 138.67834 
L 378.514988 129.119266 
L 379.124324 143.368706 
L 379.733661 139.870126 
L 380.342998 153.697964 
L 382.171007 142.440264 
L 383.999017 132.45574 
L 384.608354 129.385118 
L 385.21769 143.624133 
L 387.0457 133.505721 
L 388.264373 127.404158 
L 389.483047 155.476118 
L 391.311057 144.01732 
L 393.139066 133.854441 
L 393.748403 130.728968 
L 394.967076 158.545272 
L 396.795086 146.739372 
L 398.013759 173.32458 
L 399.841769 159.847232 
L 401.669779 147.894089 
L 402.888452 140.686154 
L 403.497789 154.481991 
L 405.325799 143.135622 
L 407.153808 133.072458 
L 407.763145 147.166871 
L 409.591155 136.647797 
L 410.809828 130.304629 
L 411.419165 144.507585 
L 413.247174 134.289259 
L 415.075184 125.226563 
L 416.293857 119.761613 
L 417.512531 148.421235 
L 419.340541 137.760301 
L 419.949877 151.670877 
L 421.777887 140.642428 
L 422.387224 137.25076 
L 422.99656 151.181319 
L 424.82457 140.208236 
L 426.65258 130.47614 
L 427.261916 144.67237 
L 429.089926 134.435408 
L 430.3086 128.262358 
L 431.527273 156.268329 
L 432.136609 152.26388 
L 433.355283 178.424289 
L 434.573956 168.86878 
L 435.183292 181.559416 
L 436.401966 171.762836 
L 437.620639 196.423902 
L 439.448649 180.334166 
L 441.276658 166.064078 
L 443.104668 153.407848 
L 444.932678 142.182958 
L 446.760688 132.227534 
L 448.588698 123.398005 
L 449.807371 118.07366 
L 450.416708 132.756262 
L 451.026044 129.673855 
L 451.635381 143.901547 
L 453.463391 133.751761 
L 455.2914 124.749852 
L 457.11941 116.766003 
L 457.728747 114.310665 
L 458.338084 129.140835 
L 460.166093 120.660394 
L 461.994103 113.139037 
L 462.60344 128.015153 
L 464.43145 119.662019 
L 466.259459 112.253572 
L 466.868796 109.975192 
L 467.478133 124.975381 
L 468.087469 122.198107 
L 468.696806 136.718965 
L 470.524816 127.381484 
L 472.352826 119.100014 
L 472.962162 116.553147 
L 473.571499 131.295376 
L 475.399509 122.571269 
L 477.227518 114.833804 
L 477.836855 129.643459 
L 478.446192 126.683123 
L 479.055528 141.028099 
L 479.664865 137.621306 
L 480.274201 151.537334 
L 481.492875 144.049257 
L 482.102211 157.713207 
L 482.711548 153.652097 
L 483.320885 166.939466 
L 485.148894 154.184235 
L 486.976904 142.871541 
L 488.195577 136.049807 
L 488.804914 150.027462 
L 490.632924 139.184873 
L 492.460934 129.568513 
L 494.288943 121.039704 
L 494.89828 135.60599 
L 495.507617 132.411829 
L 496.116953 146.532149 
L 497.944963 136.084859 
L 498.5543 132.871919 
L 499.772973 160.523444 
L 501.600983 148.493825 
L 502.819656 141.239774 
L 503.428993 155.0139 
L 505.257002 143.607376 
L 505.866339 140.099436 
L 506.475676 153.918282 
L 508.303686 142.635665 
L 510.131695 182.200876 
L 511.959705 167.719674 
L 513.787715 154.876207 
L 515.006388 147.131392 
L 516.225061 173.686456 
L 516.834398 168.998944 
L 517.443735 181.684476 
L 519.271744 167.261676 
L 521.099754 154.470005 
L 521.709091 150.536079 
L 523.537101 189.207802 
L 525.365111 173.934161 
L 525.974447 169.236935 
L 526.583784 181.913134 
L 528.411794 167.464474 
L 530.239803 154.649868 
L 530.84914 167.898109 
L 532.067813 159.151994 
L 533.286486 184.782752 
L 535.114496 170.009557 
L 535.723833 182.655457 
L 536.942506 172.774598 
L 538.161179 197.357866 
L 539.989189 181.162504 
L 541.207862 205.100797 
L 542.426536 193.494038 
L 543.035872 205.218977 
L 544.863882 188.134573 
L 546.691892 172.982307 
L 548.519902 159.543669 
L 550.347912 147.624856 
L 552.175921 137.053987 
L 552.785258 133.803042 
L 553.394595 147.868805 
L 554.613268 140.662814 
L 555.222604 154.459567 
L 557.050614 143.115734 
L 557.659951 139.627074 
L 558.269287 153.464444 
L 560.097297 142.233154 
L 561.315971 135.460508 
L 561.925307 149.461272 
L 562.534644 145.723767 
L 563.14398 159.322051 
L 564.362654 151.23538 
L 564.97199 164.617522 
L 565.581327 160.285654 
L 566.190663 173.312883 
L 568.018673 159.836858 
L 569.846683 147.884888 
L 571.674693 137.284611 
L 573.502703 127.883159 
L 574.721376 122.213934 
L 575.330713 136.734172 
L 577.158722 127.394971 
L 577.768059 141.712031 
L 578.377396 138.278418 
L 579.596069 165.514218 
L 580.814742 156.95141 
L 582.033415 182.751378 
L 583.861425 168.207919 
L 585.689435 155.309234 
L 587.517445 143.869309 
L 589.345455 133.723169 
L 591.173464 124.724494 
L 591.782801 121.957058 
L 592.392138 136.48737 
L 594.220147 127.176081 
L 594.829484 124.312505 
L 595.438821 138.750446 
L 596.048157 135.432973 
L 596.657494 149.434817 
L 598.485504 138.659253 
L 600.313514 129.102337 
L 602.141523 120.626249 
L 603.360197 115.515034 
L 603.969533 130.297974 
L 605.797543 121.686667 
L 607.625553 114.049245 
L 608.234889 128.889667 
L 608.844226 125.958891 
L 610.062899 154.141983 
L 611.281572 146.453626 
L 611.890909 160.023287 
L 613.718919 148.050233 
L 615.546929 137.431256 
L 617.374939 128.01322 
L 619.202948 119.660304 
L 619.812285 134.280684 
L 620.421622 131.138496 
L 621.030958 145.308751 
L 622.858968 134.999819 
L 623.468305 131.82943 
L 624.686978 159.561116 
L 625.296314 155.427538 
L 625.905651 168.645282 
L 627.733661 155.697134 
L 628.952334 147.889195 
L 629.561671 161.40256 
L 631.389681 149.273519 
L 631.999017 145.543376 
L 633.21769 172.220549 
L 635.0457 158.86806 
L 636.87371 147.025655 
L 637.483047 160.572884 
L 639.311057 148.537674 
L 639.920393 162.025608 
L 641.748403 149.826104 
L 642.35774 163.263511 
L 642.967076 158.984742 
L 643.576413 172.062987 
L 644.795086 162.996621 
L 646.623096 200.259134 
L 648.451106 183.735657 
L 650.279115 169.080882 
L 650.888452 181.7632 
L 652.716462 167.331497 
L 654.544472 154.53193 
L 656.372482 143.179914 
L 656.981818 139.688736 
L 657.591155 153.523688 
L 658.200491 149.626873 
L 659.419165 175.99005 
L 661.247174 162.211255 
L 661.856511 157.97375 
L 662.465848 171.091643 
L 664.293857 157.866826 
L 666.121867 146.137654 
L 666.731204 159.719707 
L 668.559214 147.780986 
L 670.387224 137.192459 
L 672.215233 127.801429 
L 674.043243 119.472466 
L 674.65258 116.910992 
L 675.261916 131.639189 
L 677.089926 122.876199 
L 678.3086 117.591977 
L 680.136609 159.989472 
L 680.745946 155.839096 
L 681.355283 169.0407 
L 681.964619 164.535375 
L 682.573956 177.395948 
L 683.183292 172.562966 
L 683.792629 185.108732 
L 685.620639 170.29867 
L 687.448649 157.163534 
L 688.057985 153.12398 
L 689.885995 191.503027 
L 691.714005 175.969811 
L 692.323342 188.381975 
L 693.542015 178.060784 
L 694.151351 190.39095 
L 694.760688 185.048359 
L 695.370025 197.104502 
L 697.198034 180.937794 
L 697.807371 193.155135 
L 699.635381 177.435076 
L 700.854054 167.955631 
L 701.463391 180.682077 
L 702.072727 175.720226 
L 703.2914 200.076995 
L 705.11941 183.574116 
L 706.338084 207.326971 
L 708.166093 190.004166 
L 708.77543 184.676743 
L 709.384767 196.747459 
L 709.994103 191.155594 
L 710.60344 202.972237 
L 711.822113 191.529151 
L 713.040786 214.670315 
L 714.868796 196.517023 
L 715.478133 208.123415 
L 716.696806 196.284236 
L 717.915479 219.059765 
L 719.743489 200.410054 
L 721.571499 183.869508 
L 722.180835 178.782661 
L 722.790172 191.084517 
L 724.618182 175.598632 
L 726.446192 161.864103 
L 728.274201 149.682864 
L 730.102211 138.879247 
L 730.711548 152.745943 
L 732.539558 141.595911 
L 734.367568 131.706878 
L 736.195577 122.936233 
L 737.414251 117.647394 
L 739.24226 160.038622 
L 741.07027 197.635667 
L 742.89828 181.408887 
L 744.116953 205.328234 
L 745.944963 188.231473 
L 747.163636 177.921856 
L 747.163636 177.921856 
" style="fill:none;stroke:#ff7f0e;stroke-linecap:square;stroke-width:1.5;"/>
   </g>
   <g id="line2d_14">
    <path clip-path="url(#pb52c648e35)" d="M 138.436364 492.48 
L 139.655037 492.48 
L 140.264373 475.29078 
L 141.483047 476.612519 
L 142.092383 460.045554 
L 142.70172 461.317493 
L 143.920393 430.009335 
L 145.748403 437.074377 
L 146.35774 422.057926 
L 148.185749 430.022223 
L 150.013759 437.085808 
L 151.841769 443.350545 
L 153.669779 448.90678 
L 155.497789 453.834639 
L 157.325799 458.205188 
L 159.153808 462.081455 
L 160.981818 465.519341 
L 162.809828 468.568423 
L 164.637838 471.272673 
L 165.247174 454.915113 
L 167.075184 459.163468 
L 168.903194 462.931359 
L 169.512531 446.90091 
L 170.731204 450.405646 
L 171.949877 419.936537 
L 173.777887 428.14075 
L 175.605897 435.417118 
L 177.433907 441.870573 
L 179.261916 447.594184 
L 181.089926 452.670489 
L 181.699263 437.042427 
L 182.3086 439.216449 
L 184.136609 395.668391 
L 184.745946 399.464925 
L 185.355283 385.923355 
L 187.183292 397.974246 
L 188.401966 371.536772 
L 190.229975 385.214696 
L 191.448649 393.462701 
L 192.057985 380.156513 
L 193.885995 392.859598 
L 195.714005 404.126043 
L 196.323342 407.590904 
L 196.932678 393.730669 
L 198.760688 404.898602 
L 200.588698 414.803511 
L 201.198034 417.849648 
L 201.807371 403.587108 
L 203.635381 413.64034 
L 204.244717 416.732091 
L 205.463391 388.85226 
L 206.072727 392.916093 
L 206.682064 379.63134 
L 208.510074 392.393819 
L 210.338084 403.712942 
L 212.166093 413.751942 
L 213.994103 422.655594 
L 214.60344 408.204586 
L 216.43145 417.735609 
L 217.650123 423.482967 
L 218.259459 408.999513 
L 220.087469 418.440635 
L 221.915479 377.242192 
L 222.524816 381.761322 
L 223.743489 356.570516 
L 225.571499 371.94103 
L 227.399509 385.573235 
L 228.008845 389.765657 
L 229.227518 363.95937 
L 231.055528 378.494251 
L 232.883538 391.385328 
L 234.711548 402.818504 
L 236.539558 412.95866 
L 238.367568 421.952027 
L 240.195577 429.9283 
L 242.023587 437.002507 
L 243.851597 443.276665 
L 244.460934 428.016988 
L 246.288943 435.307352 
L 246.89828 437.549417 
L 248.116953 408.068869 
L 249.944963 417.615241 
L 251.772973 426.081978 
L 252.38231 428.685822 
L 252.991646 413.998334 
L 254.819656 422.874121 
L 255.428993 408.414543 
L 257.257002 417.921822 
L 258.475676 389.950509 
L 259.694349 397.83436 
L 260.913022 371.407642 
L 262.741032 385.10017 
L 264.569042 397.244159 
L 265.787715 404.567176 
L 266.397052 390.825518 
L 268.225061 402.322005 
L 270.053071 412.518312 
L 271.881081 421.561479 
L 272.490418 407.153378 
L 273.709091 413.714441 
L 275.537101 373.050501 
L 277.365111 386.557232 
L 277.974447 373.521846 
L 279.802457 386.97527 
L 281.02113 395.087899 
L 282.239803 368.872366 
L 282.84914 373.719724 
L 283.458477 361.18777 
L 285.286486 376.036101 
L 285.895823 380.602529 
L 286.50516 367.800661 
L 288.33317 381.901116 
L 290.161179 394.406897 
L 291.379853 401.948082 
L 291.989189 388.309133 
L 293.817199 400.090208 
L 295.645209 410.538917 
L 296.254545 396.563073 
L 298.082555 407.410678 
L 298.691892 393.55751 
L 300.519902 404.745026 
L 301.738575 411.491276 
L 302.347912 397.478084 
L 304.175921 408.222208 
L 304.785258 394.337215 
L 306.613268 405.436551 
L 307.831941 412.129627 
L 308.441278 398.091402 
L 309.050614 401.792916 
L 310.878624 362.477226 
L 311.487961 350.386154 
L 313.315971 366.456081 
L 314.534644 342.442149 
L 316.362654 359.410493 
L 316.97199 364.628905 
L 318.190663 340.755471 
L 318.8 346.705453 
L 319.409337 335.232882 
L 320.018673 341.399435 
L 320.62801 330.134943 
L 322.45602 348.495156 
L 324.284029 364.778943 
L 326.112039 379.221135 
L 326.721376 366.47344 
L 327.330713 371.414873 
L 328.549386 347.019642 
L 330.377396 363.470301 
L 330.986732 368.529505 
L 331.596069 356.201088 
L 332.814742 366.680051 
L 333.424079 354.424163 
L 335.252088 370.037416 
L 337.080098 383.884908 
L 338.298771 392.235165 
L 339.517445 366.238989 
L 341.345455 380.516059 
L 343.173464 393.178482 
L 345.001474 404.408864 
L 346.829484 414.369159 
L 348.657494 423.203008 
L 350.485504 431.037803 
L 351.09484 416.258081 
L 352.92285 424.878304 
L 353.532187 427.529351 
L 354.141523 412.887216 
L 355.969533 421.888663 
L 357.188206 427.316678 
L 359.016216 385.11441 
L 359.625553 372.135605 
L 361.453563 385.745805 
L 363.281572 397.816776 
L 363.890909 384.33984 
L 365.718919 396.569817 
L 367.546929 407.41666 
L 368.156265 393.563257 
L 369.984275 404.750123 
L 370.593612 408.19051 
L 371.202948 394.306761 
L 373.030958 405.409541 
L 374.858968 415.256667 
L 375.468305 401.095813 
L 376.077641 404.679506 
L 376.686978 390.933443 
L 378.514988 402.417725 
L 379.733661 409.342929 
L 380.342998 395.413986 
L 382.171007 406.391546 
L 383.999017 416.127613 
L 385.21769 421.998615 
L 385.827027 407.573371 
L 387.655037 417.175781 
L 388.87371 422.966186 
L 390.092383 394.606994 
L 391.920393 405.67582 
L 393.748403 415.492831 
L 394.35774 418.511936 
L 395.576413 390.495247 
L 397.404423 402.029086 
L 399.232432 412.258519 
L 399.841769 415.40446 
L 400.451106 401.23781 
L 401.060442 404.815935 
L 401.669779 391.064522 
L 403.497789 402.533979 
L 405.325799 412.706313 
L 407.153808 421.728219 
L 408.372482 427.168571 
L 408.981818 412.540584 
L 410.809828 421.581233 
L 412.637838 429.599441 
L 413.247174 432.065345 
L 413.856511 417.245327 
L 415.684521 425.753899 
L 417.512531 433.300205 
L 418.731204 437.850746 
L 419.949877 408.347028 
L 421.777887 417.861942 
L 422.387224 420.788141 
L 422.99656 406.410366 
L 423.605897 409.785646 
L 424.215233 395.839342 
L 426.043243 406.768797 
L 426.65258 410.130021 
L 427.871253 382.757846 
L 429.699263 395.166737 
L 430.3086 381.793724 
L 432.136609 394.31165 
L 432.745946 398.16139 
L 433.355283 384.670939 
L 435.183292 396.863471 
L 436.401966 404.21576 
L 437.011302 390.487883 
L 438.229975 398.330414 
L 438.839312 384.833335 
L 440.667322 397.007501 
L 441.276658 400.751521 
L 441.885995 387.159496 
L 443.714005 399.070587 
L 444.323342 385.544482 
L 444.932678 389.738032 
L 445.542015 376.577909 
L 447.370025 389.685712 
L 449.198034 401.311104 
L 450.416708 374.617047 
L 452.244717 387.946611 
L 452.854054 374.85674 
L 454.682064 388.159196 
L 456.510074 399.957228 
L 457.728747 373.367275 
L 459.556757 386.838181 
L 461.384767 398.785611 
L 462.60344 405.990101 
L 463.212776 392.192642 
L 463.822113 396.125479 
L 464.43145 382.714868 
L 465.650123 391.155094 
L 466.259459 377.9394 
L 467.478133 386.746827 
L 468.087469 373.704007 
L 469.915479 387.13683 
L 470.524816 391.267935 
L 471.134152 378.047815 
L 471.743489 382.535352 
L 472.352826 369.657687 
L 472.962162 374.474248 
L 474.180835 349.843771 
L 476.008845 365.975038 
L 477.836855 380.28196 
L 478.446192 384.681883 
L 479.664865 359.266505 
L 480.274201 364.490564 
L 480.883538 352.320537 
L 482.711548 368.171698 
L 484.539558 382.230191 
L 486.367568 394.698756 
L 488.195577 405.757204 
L 489.414251 412.425624 
L 490.632924 384.876932 
L 491.851597 393.150909 
L 492.460934 379.856948 
L 493.679607 388.516929 
L 494.288943 375.404692 
L 496.116953 388.645179 
L 497.335627 396.629402 
L 497.944963 383.199029 
L 499.772973 395.558024 
L 500.991646 369.306342 
L 502.819656 383.236514 
L 503.428993 387.520572 
L 504.647666 361.886917 
L 505.257002 367.008215 
L 507.085012 331.626457 
L 508.913022 349.817989 
L 509.522359 355.412577 
L 510.131695 343.598551 
L 511.959705 360.436113 
L 513.787715 375.369452 
L 515.615725 388.613924 
L 517.443735 400.360529 
L 519.271744 410.778666 
L 519.881081 396.79342 
L 521.099754 404.151096 
L 521.709091 390.425755 
L 522.927764 398.273063 
L 523.537101 384.778233 
L 525.365111 396.958631 
L 527.19312 407.761501 
L 529.02113 417.342635 
L 529.630467 403.099978 
L 530.84914 409.972721 
L 531.458477 396.019081 
L 532.067813 399.801862 
L 532.67715 386.247079 
L 534.50516 398.261359 
L 535.114496 401.956208 
L 535.723833 388.316941 
L 537.551843 400.097132 
L 538.770516 407.200775 
L 539.989189 380.05384 
L 541.207862 388.698681 
L 541.817199 375.579317 
L 542.426536 380.163658 
L 543.035872 367.379 
L 544.863882 381.527142 
L 546.691892 394.075218 
L 547.301229 380.745009 
L 549.129238 393.381539 
L 549.738575 397.267753 
L 550.347912 383.812347 
L 552.175921 396.10198 
L 554.003931 407.001733 
L 555.831941 416.668791 
L 557.659951 425.242565 
L 559.487961 432.8467 
L 561.315971 439.590854 
L 561.925307 441.664938 
L 562.534644 426.468465 
L 563.14398 429.057153 
L 563.753317 414.355104 
L 565.581327 423.190542 
L 566.190663 408.718556 
L 568.018673 418.191452 
L 569.846683 426.593023 
L 571.674693 434.044429 
L 572.284029 436.33602 
L 573.502703 406.948775 
L 575.330713 416.621822 
L 575.940049 402.407433 
L 577.768059 412.594078 
L 579.596069 421.628677 
L 580.205405 424.40716 
L 580.814742 409.887464 
L 582.642752 419.228164 
L 583.861425 391.156401 
L 585.080098 398.947528 
L 585.689435 385.426248 
L 586.298771 389.624434 
L 586.908108 376.468766 
L 588.126781 385.389276 
L 588.736118 372.399693 
L 589.345455 377.108724 
L 591.173464 340.584662 
L 592.392138 352.264427 
L 593.001474 340.573857 
L 594.829484 357.753493 
L 595.438821 345.847666 
L 597.26683 362.430867 
L 599.09484 377.138613 
L 600.313514 386.007616 
L 601.532187 360.490298 
L 602.141523 365.666364 
L 602.75086 353.450228 
L 603.360197 358.902376 
L 604.57887 335.469275 
L 605.797543 347.54238 
L 606.40688 336.036988 
L 608.234889 353.729716 
L 609.453563 364.398711 
L 610.672236 340.542978 
L 611.281572 346.501292 
L 611.890909 335.036728 
L 612.500246 341.210974 
L 613.109582 329.953872 
L 614.937592 348.334563 
L 616.765602 364.636512 
L 618.593612 379.094812 
L 619.202948 383.54129 
L 620.421622 358.213617 
L 622.249631 373.398306 
L 622.858968 360.878957 
L 624.686978 375.762213 
L 625.905651 384.737053 
L 626.514988 371.773046 
L 627.733661 381.054627 
L 628.342998 368.23503 
L 629.561671 377.78866 
L 630.171007 365.09714 
L 631.999017 379.503346 
L 632.608354 383.933803 
L 633.21769 371.001297 
L 634.436364 380.34222 
L 635.0457 367.55056 
L 636.87371 381.6793 
L 637.483047 368.835206 
L 638.70172 378.342687 
L 639.311057 365.62944 
L 641.139066 379.975447 
L 642.967076 392.699009 
L 643.576413 379.422769 
L 645.404423 392.208836 
L 647.232432 403.548879 
L 647.841769 407.036374 
L 648.451106 393.197885 
L 649.669779 400.832034 
L 650.279115 387.236852 
L 651.497789 395.329366 
L 652.107125 381.949975 
L 653.935135 394.450231 
L 655.763145 405.536786 
L 657.591155 415.369521 
L 658.200491 418.393461 
L 658.809828 404.109596 
L 659.419165 407.575102 
L 660.028501 393.715486 
L 660.637838 397.588604 
L 661.247174 384.120615 
L 661.856511 388.370003 
L 662.465848 375.263528 
L 664.293857 388.519979 
L 666.121867 400.277209 
L 666.731204 403.893004 
L 667.340541 390.177784 
L 667.949877 394.189636 
L 668.559214 380.85494 
L 669.16855 385.232394 
L 669.777887 372.248962 
L 671.605897 385.846342 
L 672.82457 394.045777 
L 673.433907 380.716723 
L 674.043243 385.099597 
L 674.65258 372.121373 
L 675.261916 376.841319 
L 676.48059 352.02883 
L 678.3086 367.91298 
L 679.527273 377.491375 
L 680.136609 364.811513 
L 681.964619 379.250022 
L 683.792629 392.055625 
L 685.011302 366.073255 
L 686.839312 380.369068 
L 688.667322 393.048115 
L 689.276658 379.758185 
L 689.885995 384.178648 
L 690.495332 371.23654 
L 691.714005 380.559374 
L 692.323342 367.759199 
L 693.542015 377.349418 
L 694.151351 364.675123 
L 695.979361 379.129057 
L 696.588698 366.384972 
L 698.416708 380.645532 
L 699.026044 367.841978 
L 700.854054 381.93776 
L 702.682064 394.439397 
L 704.510074 405.527177 
L 706.338084 415.360999 
L 706.94742 401.196054 
L 708.77543 411.519698 
L 710.60344 420.675803 
L 712.43145 428.796409 
L 713.040786 414.104585 
L 714.868796 422.968355 
L 715.478133 425.694302 
L 716.087469 411.124129 
L 717.915479 420.32497 
L 719.743489 428.485254 
L 721.571499 435.72266 
L 723.399509 442.141561 
L 724.618182 446.01226 
L 725.227518 430.645304 
L 726.446192 435.399991 
L 727.664865 406.08472 
L 728.883538 412.727956 
L 729.492875 398.666267 
L 731.320885 409.276014 
L 731.930221 395.349696 
L 733.148894 402.818385 
L 734.367568 376.008428 
L 734.976904 380.575941 
L 735.586241 367.775115 
L 737.414251 381.878459 
L 739.24226 394.386803 
L 741.07027 405.480531 
L 742.89828 415.319628 
L 743.507617 418.345525 
L 744.72629 390.341632 
L 746.5543 401.892844 
L 747.163636 405.445281 
L 747.163636 405.445281 
" style="fill:none;stroke:#2ca02c;stroke-linecap:square;stroke-width:1.5;"/>
   </g>
   <g id="line2d_15">
    <path clip-path="url(#pb52c648e35)" d="M 138.436364 492.48 
L 139.0457 475.29078 
L 140.264373 476.612519 
L 142.092383 428.835199 
L 142.70172 431.331074 
L 144.52973 388.674803 
L 145.139066 392.745595 
L 145.748403 379.467528 
L 147.576413 392.248533 
L 148.795086 366.251329 
L 149.404423 371.201473 
L 150.013759 358.768274 
L 150.623096 364.011871 
L 151.232432 351.860617 
L 152.451106 362.673334 
L 154.279115 327.781824 
L 155.497789 340.446044 
L 157.325799 308.068302 
L 159.153808 328.924114 
L 159.763145 318.14885 
L 161.591155 337.864615 
L 162.809828 316.049181 
L 163.419165 322.968036 
L 164.028501 312.426345 
L 164.637838 319.487272 
L 165.856511 299.084936 
L 167.684521 320.956711 
L 168.293857 327.683114 
L 170.121867 296.74878 
L 170.731204 304.424514 
L 171.340541 294.610019 
L 172.559214 309.824935 
L 173.16855 299.798659 
L 173.777887 307.35479 
L 175.605897 278.719462 
L 176.215233 287.102229 
L 177.433907 269.190092 
L 178.043243 277.946559 
L 179.871253 252.637119 
L 181.089926 271.079478 
L 181.699263 262.572632 
L 182.3086 271.588607 
L 182.917936 263.061795 
L 183.527273 272.058587 
L 184.745946 255.303209 
L 185.355283 264.604259 
L 185.964619 256.351343 
L 186.573956 265.61129 
L 188.401966 241.696892 
L 189.011302 234.342304 
L 190.839312 263.536066 
L 191.448649 272.514259 
L 192.057985 263.951147 
L 193.885995 289.796334 
L 194.495332 280.555493 
L 195.104668 288.866258 
L 196.323342 270.818479 
L 198.151351 295.887013 
L 199.979361 318.120453 
L 200.588698 324.958082 
L 201.198034 314.338349 
L 201.807371 321.324296 
L 202.416708 310.847065 
L 203.026044 317.969925 
L 204.244717 297.684263 
L 206.072727 319.714445 
L 207.2914 299.294641 
L 207.900737 306.870538 
L 208.510074 296.96012 
L 210.338084 319.072198 
L 210.94742 325.872504 
L 211.556757 315.216911 
L 212.166093 322.168405 
L 212.77543 311.658071 
L 213.384767 318.749127 
L 213.994103 308.372883 
L 214.60344 315.59277 
L 215.822113 295.489896 
L 216.43145 303.214998 
L 217.650123 284.063894 
L 218.868796 300.089739 
L 220.696806 272.276043 
L 221.306143 280.911492 
L 221.915479 272.019077 
L 222.524816 280.664603 
L 223.743489 263.247478 
L 224.352826 272.236989 
L 224.962162 263.68475 
L 226.790172 289.560064 
L 227.399509 280.328489 
L 228.618182 296.641562 
L 230.446192 269.217833 
L 231.055528 277.973212 
L 231.664865 269.196024 
L 233.492875 294.448047 
L 234.102211 302.214006 
L 235.930221 274.160069 
L 236.539558 265.532415 
L 237.148894 274.432321 
L 237.758231 265.79399 
L 238.367568 274.683638 
L 240.195577 249.743213 
L 242.023587 227.623395 
L 243.24226 247.989147 
L 244.460934 233.084553 
L 245.07027 243.256923 
L 246.89828 221.870664 
L 247.507617 232.482795 
L 248.116953 225.489544 
L 249.944963 255.684498 
L 250.5543 247.781376 
L 251.163636 257.377401 
L 251.772973 249.407891 
L 252.38231 258.94013 
L 253.600983 243.193476 
L 255.428993 271.386226 
L 256.038329 280.05657 
L 257.866339 254.508501 
L 258.475676 263.840716 
L 259.085012 255.617743 
L 260.913022 282.405385 
L 261.522359 290.643606 
L 262.131695 281.369538 
L 263.350369 297.602561 
L 263.959705 288.055594 
L 264.569042 296.072237 
L 265.178378 286.585283 
L 266.397052 302.417249 
L 268.225061 274.340326 
L 269.443735 257.409497 
L 270.053071 266.627948 
L 271.271744 250.290151 
L 272.490418 268.912977 
L 273.099754 260.491091 
L 273.709091 269.588695 
L 274.318428 261.140311 
L 275.537101 278.92883 
L 276.146437 270.114166 
L 277.974447 295.262353 
L 279.802457 267.994605 
L 280.411794 276.797954 
L 281.630467 259.678149 
L 282.239803 268.807633 
L 284.067813 244.531749 
L 284.67715 237.06599 
L 285.286486 247.082225 
L 285.895823 239.516448 
L 286.50516 249.436587 
L 287.114496 241.778481 
L 287.723833 251.609913 
L 288.942506 236.426905 
L 290.161179 256.115725 
L 290.770516 248.195692 
L 291.379853 257.775469 
L 291.989189 249.790348 
L 293.207862 268.451606 
L 295.035872 244.215985 
L 295.645209 253.951829 
L 296.863882 238.588743 
L 298.691892 267.302259 
L 299.910565 284.616964 
L 301.129238 266.895929 
L 302.347912 284.241878 
L 302.957248 275.218859 
L 303.566585 283.738904 
L 304.175921 274.735609 
L 304.785258 283.274605 
L 306.613268 257.362596 
L 307.222604 249.393666 
L 309.050614 276.885213 
L 310.269287 293.463052 
L 310.878624 284.078418 
L 311.487961 292.251029 
L 313.315971 265.323842 
L 315.14398 241.441953 
L 316.362654 227.040795 
L 318.190663 257.060312 
L 318.8 249.103237 
L 320.018673 267.817328 
L 320.62801 259.438409 
L 321.237346 268.577295 
L 322.45602 252.089606 
L 323.065356 261.51668 
L 324.893366 238.065357 
L 325.502703 248.042401 
L 326.721376 233.133712 
L 327.330713 243.304155 
L 327.940049 235.886536 
L 329.158722 255.616907 
L 329.768059 247.716436 
L 330.377396 257.315007 
L 331.596069 241.693314 
L 332.205405 251.528086 
L 333.424079 236.35137 
L 334.033415 246.39563 
L 335.252088 231.613567 
L 335.861425 241.843623 
L 337.689435 220.617199 
L 339.517445 201.791352 
L 341.345455 234.666423 
L 341.954791 244.776759 
L 343.782801 223.218616 
L 344.392138 216.588667 
L 345.610811 237.802917 
L 346.220147 230.601034 
L 347.438821 250.737825 
L 348.657494 235.621875 
L 349.26683 245.694743 
L 349.876167 238.183376 
L 350.485504 248.155793 
L 351.09484 240.547914 
L 351.704177 250.427604 
L 352.313514 242.730635 
L 353.532187 261.934738 
L 354.141523 253.786509 
L 354.75086 263.147038 
L 356.57887 239.511331 
L 357.797543 225.258626 
L 359.625553 255.479695 
L 361.453563 282.28295 
L 363.281572 306.054924 
L 364.500246 320.389801 
L 365.109582 309.949217 
L 365.718919 317.107286 
L 366.328256 306.795428 
L 368.156265 327.795194 
L 369.984275 346.420017 
L 371.202948 323.946728 
L 373.030958 343.006789 
L 374.858968 359.911276 
L 376.077641 370.10495 
L 377.905651 334.372971 
L 379.733661 302.682056 
L 381.561671 274.575185 
L 383.389681 299.218859 
L 385.21769 271.503655 
L 387.0457 246.922867 
L 387.655037 256.552558 
L 388.264373 248.615395 
L 389.483047 267.366999 
L 390.092383 259.00574 
L 390.70172 268.161593 
L 392.52973 243.958771 
L 393.139066 236.515482 
L 394.35774 256.19749 
L 394.967076 248.274251 
L 395.576413 257.850947 
L 396.185749 249.862867 
L 396.795086 259.377264 
L 398.623096 236.167895 
L 400.451106 265.155194 
L 402.279115 241.292377 
L 402.888452 233.953653 
L 404.716462 263.191369 
L 405.325799 254.99386 
L 406.544472 273.255001 
L 407.763145 256.407626 
L 409.591155 283.105938 
L 411.419165 257.213004 
L 412.028501 249.249941 
L 413.247174 267.952752 
L 413.856511 259.568522 
L 414.465848 268.702306 
L 415.075184 260.288682 
L 415.684521 269.394224 
L 417.512531 245.051999 
L 418.121867 237.565838 
L 418.731204 247.562472 
L 419.340541 239.977861 
L 419.949877 249.879906 
L 421.16855 234.829924 
L 422.387224 254.641541 
L 423.605897 239.22542 
L 425.433907 267.866932 
L 426.043243 259.486068 
L 426.65258 268.623085 
L 427.871253 252.131875 
L 429.699263 279.313747 
L 430.3086 287.673208 
L 432.136609 261.263745 
L 432.745946 253.141829 
L 433.964619 271.545379 
L 435.183292 254.829463 
L 435.792629 264.149092 
L 436.401966 255.914026 
L 437.620639 274.104412 
L 439.448649 249.229495 
L 440.057985 241.57951 
L 441.885995 269.954789 
L 443.104668 287.065532 
L 443.714005 277.931782 
L 445.542015 302.195846 
L 446.151351 309.657969 
L 446.760688 299.638241 
L 447.370025 307.200663 
L 447.979361 297.277299 
L 448.588698 304.932307 
L 449.807371 285.649154 
L 451.026044 301.553102 
L 451.635381 291.851211 
L 453.463391 314.541075 
L 454.682064 294.519069 
L 455.900737 309.740979 
L 456.510074 299.717995 
L 458.338084 321.518174 
L 459.556757 334.664028 
L 460.166093 323.66367 
L 461.994103 342.755743 
L 462.60344 348.627282 
L 464.43145 315.324294 
L 466.259459 285.787665 
L 468.087469 259.591444 
L 468.696806 251.535109 
L 469.306143 260.983928 
L 470.524816 245.08012 
L 471.743489 264.103563 
L 472.962162 247.959874 
L 473.571499 257.548899 
L 475.399509 234.546307 
L 477.227518 263.716997 
L 477.836855 255.498876 
L 479.664865 282.299961 
L 480.274201 290.542316 
L 481.492875 272.365659 
L 482.102211 280.997594 
L 482.711548 272.101802 
L 483.320885 280.744084 
L 483.930221 271.858233 
L 485.148894 288.822614 
L 485.758231 279.619958 
L 487.586241 303.6931 
L 488.195577 293.907288 
L 489.414251 309.176239 
L 491.24226 280.334917 
L 493.07027 254.755369 
L 494.288943 273.034848 
L 495.507617 256.204402 
L 496.116953 265.470112 
L 497.335627 249.221344 
L 497.944963 258.760899 
L 499.772973 235.621238 
L 500.38231 228.50491 
L 502.210319 258.358845 
L 502.819656 250.350847 
L 503.428993 259.846108 
L 504.647666 244.02979 
L 506.475676 272.127958 
L 507.085012 280.769214 
L 508.303686 263.344046 
L 508.913022 272.329769 
L 509.522359 263.773892 
L 510.741032 281.359905 
L 512.569042 255.664437 
L 513.178378 264.951322 
L 513.787715 256.684795 
L 515.006388 274.815914 
L 516.834398 249.860531 
L 518.053071 268.516391 
L 518.662408 260.110058 
L 519.271744 269.222605 
L 521.099754 244.899789 
L 521.709091 237.419597 
L 522.318428 247.421966 
L 524.146437 225.564667 
L 524.755774 236.031935 
L 525.365111 228.899502 
L 527.19312 258.708811 
L 527.802457 250.687088 
L 528.411794 260.169163 
L 529.630467 244.328005 
L 531.458477 272.392446 
L 532.67715 255.611396 
L 533.286486 264.900361 
L 534.50516 248.695404 
L 535.723833 267.440856 
L 537.551843 243.319545 
L 538.161179 253.090543 
L 539.379853 237.793684 
L 539.989189 247.781383 
L 540.598526 240.188187 
L 541.207862 250.081984 
L 541.817199 242.398569 
L 543.035872 261.628206 
L 543.645209 253.491997 
L 544.863882 271.868622 
L 545.473219 263.330829 
L 546.691892 280.950911 
L 547.910565 263.511771 
L 549.129238 281.11794 
L 550.347912 263.665957 
L 550.957248 272.639056 
L 552.175921 255.839044 
L 554.003931 282.601659 
L 555.831941 256.765756 
L 557.659951 233.851732 
L 559.487961 213.529141 
L 560.097297 207.279171 
L 560.706634 218.463517 
L 561.925307 205.829252 
L 563.753317 238.247662 
L 564.97199 224.092124 
L 566.8 254.445117 
L 568.62801 231.793544 
L 569.846683 218.134286 
L 570.45602 228.892941 
L 572.284029 209.131159 
L 574.112039 191.604311 
L 575.940049 176.05964 
L 577.158722 200.390309 
L 578.377396 189.145756 
L 579.596069 212.470189 
L 580.205405 206.261746 
L 580.814742 217.485991 
L 582.642752 199.014264 
L 583.861425 187.875519 
L 585.080098 211.297625 
L 585.689435 205.135165 
L 586.908108 227.230115 
L 588.736118 207.656388 
L 589.954791 195.853121 
L 590.564128 207.485547 
L 591.782801 195.695416 
L 593.001474 218.516223 
L 594.220147 205.877904 
L 596.048157 238.290812 
L 597.26683 224.131957 
L 597.876167 234.655409 
L 598.485504 227.576958 
L 600.313514 257.535838 
L 600.92285 249.560115 
L 602.141523 268.239076 
L 602.75086 259.843617 
L 603.360197 268.966613 
L 603.969533 260.542624 
L 605.188206 278.377101 
L 607.016216 253.018969 
L 608.844226 230.528684 
L 610.672236 260.153742 
L 612.500246 286.428392 
L 613.718919 302.272422 
L 614.328256 292.542322 
L 615.546929 307.916231 
L 617.374939 279.217408 
L 619.202948 303.336076 
L 619.812285 293.564265 
L 621.030958 308.859592 
L 621.640295 298.871173 
L 622.858968 313.758433 
L 623.468305 303.577902 
L 624.077641 310.985828 
L 625.296314 291.237198 
L 627.124324 313.996502 
L 627.733661 303.806635 
L 629.561671 325.144415 
L 631.389681 344.069025 
L 633.21769 311.281547 
L 633.827027 318.387368 
L 635.655037 288.504325 
L 636.264373 296.503371 
L 638.092383 269.095271 
L 638.70172 277.855457 
L 640.52973 252.55632 
L 641.748403 237.300539 
L 642.967076 256.922182 
L 643.576413 248.970523 
L 644.185749 258.519915 
L 645.404423 242.805572 
L 647.232432 271.042191 
L 649.060442 296.085425 
L 649.669779 286.597953 
L 650.279115 294.671759 
L 650.888452 285.239725 
L 651.497789 293.366795 
L 652.716462 274.972954 
L 653.935135 291.697833 
L 654.544472 282.382423 
L 655.153808 290.621544 
L 655.763145 281.348342 
L 656.372482 289.628015 
L 656.981818 280.393775 
L 658.809828 304.379403 
L 660.028501 318.843117 
L 661.856511 288.908531 
L 663.684521 262.35936 
L 664.293857 271.383699 
L 664.903194 262.864922 
L 666.121867 280.52083 
L 666.731204 271.643734 
L 667.340541 280.30398 
L 667.949877 271.435388 
L 668.559214 280.103805 
L 669.777887 262.729801 
L 670.99656 280.396099 
L 671.605897 271.523895 
L 672.215233 280.18884 
L 672.82457 271.324764 
L 673.433907 279.997518 
L 675.261916 254.456127 
L 677.089926 231.803308 
L 677.699263 242.025924 
L 678.3086 234.658432 
L 678.917936 244.769082 
L 680.745946 223.211807 
L 681.355283 233.771344 
L 682.573956 219.960006 
L 683.183292 230.647065 
L 684.401966 217.075964 
L 686.229975 248.222441 
L 686.839312 257.801169 
L 688.667322 234.770046 
L 689.276658 244.876319 
L 689.885995 237.397047 
L 690.495332 247.4003 
L 692.323342 225.545451 
L 693.542015 246.070984 
L 694.151351 238.544863 
L 694.760688 248.503103 
L 695.979361 233.558989 
L 696.588698 243.712754 
L 697.198034 236.279112 
L 699.026044 265.253833 
L 700.854054 241.379861 
L 701.463391 251.226925 
L 703.2914 228.939309 
L 703.900737 239.274238 
L 704.510074 232.014656 
L 706.338084 261.47166 
L 707.556757 245.530348 
L 708.166093 255.214648 
L 708.77543 247.329952 
L 709.384767 256.943679 
L 711.212776 234.009534 
L 712.43145 220.17988 
L 714.259459 250.975324 
L 714.868796 260.446096 
L 715.478133 252.356245 
L 716.087469 261.772862 
L 716.696806 253.630981 
L 717.306143 262.99761 
L 717.915479 254.807699 
L 718.524816 264.128181 
L 720.352826 240.381513 
L 720.962162 233.078509 
L 721.571499 243.251116 
L 723.399509 221.865514 
L 725.227518 252.470323 
L 726.446192 270.925508 
L 727.664865 254.257256 
L 729.492875 281.198761 
L 730.102211 272.29508 
L 730.711548 280.929783 
L 732.539558 255.282959 
L 734.367568 232.53663 
L 736.195577 212.362769 
L 736.804914 223.347759 
L 738.632924 204.213102 
L 739.24226 198.328466 
L 739.851597 209.863821 
L 741.679607 192.254113 
L 742.89828 181.63518 
L 743.507617 193.825173 
L 744.116953 188.347907 
L 745.944963 222.743349 
L 746.5543 233.321256 
L 747.163636 226.295125 
L 747.163636 226.295125 
" style="fill:none;stroke:#d62728;stroke-linecap:square;stroke-width:1.5;"/>
   </g>
   <g id="patch_3">
    <path d="M 108 512.64 
L 108 69.12 
" style="fill:none;stroke:#000000;stroke-linecap:square;stroke-linejoin:miter;stroke-width:0.8;"/>
   </g>
   <g id="patch_4">
    <path d="M 777.6 512.64 
L 777.6 69.12 
" style="fill:none;stroke:#000000;stroke-linecap:square;stroke-linejoin:miter;stroke-width:0.8;"/>
   </g>
   <g id="patch_5">
    <path d="M 108 512.64 
L 777.6 512.64 
" style="fill:none;stroke:#000000;stroke-linecap:square;stroke-linejoin:miter;stroke-width:0.8;"/>
   </g>
   <g id="patch_6">
    <path d="M 108 69.12 
L 777.6 69.12 
" style="fill:none;stroke:#000000;stroke-linecap:square;stroke-linejoin:miter;stroke-width:0.8;"/>
   </g>
   <g id="text_14">
    <!-- Epsilon Greedy Agent for Two Armed Bandit -->
    <g transform="translate(259.1235 63.12)scale(0.168 -0.168)">
     <defs>
      <path d="M 603 4863 
L 1178 4863 
L 1178 0 
L 603 0 
L 603 4863 
z
" id="DejaVuSans-6c" transform="scale(0.015625)"/>
      <path d="M 3513 2113 
L 3513 0 
L 2938 0 
L 2938 2094 
Q 2938 2591 2744 2837 
Q 2550 3084 2163 3084 
Q 1697 3084 1428 2787 
Q 1159 2491 1159 1978 
L 1159 0 
L 581 0 
L 581 3500 
L 1159 3500 
L 1159 2956 
Q 1366 3272 1645 3428 
Q 1925 3584 2291 3584 
Q 2894 3584 3203 3211 
Q 3513 2838 3513 2113 
z
" id="DejaVuSans-6e" transform="scale(0.015625)"/>
      <path id="DejaVuSans-20" transform="scale(0.015625)"/>
      <path d="M 3809 666 
L 3809 1919 
L 2778 1919 
L 2778 2438 
L 4434 2438 
L 4434 434 
Q 4069 175 3628 42 
Q 3188 -91 2688 -91 
Q 1594 -91 976 548 
Q 359 1188 359 2328 
Q 359 3472 976 4111 
Q 1594 4750 2688 4750 
Q 3144 4750 3555 4637 
Q 3966 4525 4313 4306 
L 4313 3634 
Q 3963 3931 3569 4081 
Q 3175 4231 2741 4231 
Q 1884 4231 1454 3753 
Q 1025 3275 1025 2328 
Q 1025 1384 1454 906 
Q 1884 428 2741 428 
Q 3075 428 3337 486 
Q 3600 544 3809 666 
z
" id="DejaVuSans-47" transform="scale(0.015625)"/>
      <path d="M 2059 -325 
Q 1816 -950 1584 -1140 
Q 1353 -1331 966 -1331 
L 506 -1331 
L 506 -850 
L 844 -850 
Q 1081 -850 1212 -737 
Q 1344 -625 1503 -206 
L 1606 56 
L 191 3500 
L 800 3500 
L 1894 763 
L 2988 3500 
L 3597 3500 
L 2059 -325 
z
" id="DejaVuSans-79" transform="scale(0.015625)"/>
      <path d="M 2188 4044 
L 1331 1722 
L 3047 1722 
L 2188 4044 
z
M 1831 4666 
L 2547 4666 
L 4325 0 
L 3669 0 
L 3244 1197 
L 1141 1197 
L 716 0 
L 50 0 
L 1831 4666 
z
" id="DejaVuSans-41" transform="scale(0.015625)"/>
      <path d="M 2906 1791 
Q 2906 2416 2648 2759 
Q 2391 3103 1925 3103 
Q 1463 3103 1205 2759 
Q 947 2416 947 1791 
Q 947 1169 1205 825 
Q 1463 481 1925 481 
Q 2391 481 2648 825 
Q 2906 1169 2906 1791 
z
M 3481 434 
Q 3481 -459 3084 -895 
Q 2688 -1331 1869 -1331 
Q 1566 -1331 1297 -1286 
Q 1028 -1241 775 -1147 
L 775 -588 
Q 1028 -725 1275 -790 
Q 1522 -856 1778 -856 
Q 2344 -856 2625 -561 
Q 2906 -266 2906 331 
L 2906 616 
Q 2728 306 2450 153 
Q 2172 0 1784 0 
Q 1141 0 747 490 
Q 353 981 353 1791 
Q 353 2603 747 3093 
Q 1141 3584 1784 3584 
Q 2172 3584 2450 3431 
Q 2728 3278 2906 2969 
L 2906 3500 
L 3481 3500 
L 3481 434 
z
" id="DejaVuSans-67" transform="scale(0.015625)"/>
      <path d="M 1172 4494 
L 1172 3500 
L 2356 3500 
L 2356 3053 
L 1172 3053 
L 1172 1153 
Q 1172 725 1289 603 
Q 1406 481 1766 481 
L 2356 481 
L 2356 0 
L 1766 0 
Q 1100 0 847 248 
Q 594 497 594 1153 
L 594 3053 
L 172 3053 
L 172 3500 
L 594 3500 
L 594 4494 
L 1172 4494 
z
" id="DejaVuSans-74" transform="scale(0.015625)"/>
      <path d="M 2375 4863 
L 2375 4384 
L 1825 4384 
Q 1516 4384 1395 4259 
Q 1275 4134 1275 3809 
L 1275 3500 
L 2222 3500 
L 2222 3053 
L 1275 3053 
L 1275 0 
L 697 0 
L 697 3053 
L 147 3053 
L 147 3500 
L 697 3500 
L 697 3744 
Q 697 4328 969 4595 
Q 1241 4863 1831 4863 
L 2375 4863 
z
" id="DejaVuSans-66" transform="scale(0.015625)"/>
      <path d="M -19 4666 
L 3928 4666 
L 3928 4134 
L 2272 4134 
L 2272 0 
L 1638 0 
L 1638 4134 
L -19 4134 
L -19 4666 
z
" id="DejaVuSans-54" transform="scale(0.015625)"/>
      <path d="M 3328 2828 
Q 3544 3216 3844 3400 
Q 4144 3584 4550 3584 
Q 5097 3584 5394 3201 
Q 5691 2819 5691 2113 
L 5691 0 
L 5113 0 
L 5113 2094 
Q 5113 2597 4934 2840 
Q 4756 3084 4391 3084 
Q 3944 3084 3684 2787 
Q 3425 2491 3425 1978 
L 3425 0 
L 2847 0 
L 2847 2094 
Q 2847 2600 2669 2842 
Q 2491 3084 2119 3084 
Q 1678 3084 1418 2786 
Q 1159 2488 1159 1978 
L 1159 0 
L 581 0 
L 581 3500 
L 1159 3500 
L 1159 2956 
Q 1356 3278 1631 3431 
Q 1906 3584 2284 3584 
Q 2666 3584 2933 3390 
Q 3200 3197 3328 2828 
z
" id="DejaVuSans-6d" transform="scale(0.015625)"/>
      <path d="M 1259 2228 
L 1259 519 
L 2272 519 
Q 2781 519 3026 730 
Q 3272 941 3272 1375 
Q 3272 1813 3026 2020 
Q 2781 2228 2272 2228 
L 1259 2228 
z
M 1259 4147 
L 1259 2741 
L 2194 2741 
Q 2656 2741 2882 2914 
Q 3109 3088 3109 3444 
Q 3109 3797 2882 3972 
Q 2656 4147 2194 4147 
L 1259 4147 
z
M 628 4666 
L 2241 4666 
Q 2963 4666 3353 4366 
Q 3744 4066 3744 3513 
Q 3744 3084 3544 2831 
Q 3344 2578 2956 2516 
Q 3422 2416 3680 2098 
Q 3938 1781 3938 1306 
Q 3938 681 3513 340 
Q 3088 0 2303 0 
L 628 0 
L 628 4666 
z
" id="DejaVuSans-42" transform="scale(0.015625)"/>
     </defs>
     <use xlink:href="#DejaVuSans-45"/>
     <use x="63.183594" xlink:href="#DejaVuSans-70"/>
     <use x="126.660156" xlink:href="#DejaVuSans-73"/>
     <use x="178.759766" xlink:href="#DejaVuSans-69"/>
     <use x="206.542969" xlink:href="#DejaVuSans-6c"/>
     <use x="234.326172" xlink:href="#DejaVuSans-6f"/>
     <use x="295.507812" xlink:href="#DejaVuSans-6e"/>
     <use x="358.886719" xlink:href="#DejaVuSans-20"/>
     <use x="390.673828" xlink:href="#DejaVuSans-47"/>
     <use x="468.164062" xlink:href="#DejaVuSans-72"/>
     <use x="507.027344" xlink:href="#DejaVuSans-65"/>
     <use x="568.550781" xlink:href="#DejaVuSans-65"/>
     <use x="630.074219" xlink:href="#DejaVuSans-64"/>
     <use x="693.550781" xlink:href="#DejaVuSans-79"/>
     <use x="752.730469" xlink:href="#DejaVuSans-20"/>
     <use x="784.517578" xlink:href="#DejaVuSans-41"/>
     <use x="852.925781" xlink:href="#DejaVuSans-67"/>
     <use x="916.402344" xlink:href="#DejaVuSans-65"/>
     <use x="977.925781" xlink:href="#DejaVuSans-6e"/>
     <use x="1041.304688" xlink:href="#DejaVuSans-74"/>
     <use x="1080.513672" xlink:href="#DejaVuSans-20"/>
     <use x="1112.300781" xlink:href="#DejaVuSans-66"/>
     <use x="1147.505859" xlink:href="#DejaVuSans-6f"/>
     <use x="1208.6875" xlink:href="#DejaVuSans-72"/>
     <use x="1249.800781" xlink:href="#DejaVuSans-20"/>
     <use x="1281.587891" xlink:href="#DejaVuSans-54"/>
     <use x="1326.171875" xlink:href="#DejaVuSans-77"/>
     <use x="1407.958984" xlink:href="#DejaVuSans-6f"/>
     <use x="1469.140625" xlink:href="#DejaVuSans-20"/>
     <use x="1500.927734" xlink:href="#DejaVuSans-41"/>
     <use x="1569.335938" xlink:href="#DejaVuSans-72"/>
     <use x="1608.699219" xlink:href="#DejaVuSans-6d"/>
     <use x="1706.111328" xlink:href="#DejaVuSans-65"/>
     <use x="1767.634766" xlink:href="#DejaVuSans-64"/>
     <use x="1831.111328" xlink:href="#DejaVuSans-20"/>
     <use x="1862.898438" xlink:href="#DejaVuSans-42"/>
     <use x="1931.501953" xlink:href="#DejaVuSans-61"/>
     <use x="1992.78125" xlink:href="#DejaVuSans-6e"/>
     <use x="2056.160156" xlink:href="#DejaVuSans-64"/>
     <use x="2119.636719" xlink:href="#DejaVuSans-69"/>
     <use x="2147.419922" xlink:href="#DejaVuSans-74"/>
    </g>
   </g>
   <g id="legend_1">
    <g id="patch_7">
     <path d="M 369.376563 505.64 
L 516.223438 505.64 
Q 519.023438 505.64 519.023438 502.84 
L 519.023438 422.0425 
Q 519.023438 419.2425 516.223438 419.2425 
L 369.376563 419.2425 
Q 366.576563 419.2425 366.576563 422.0425 
L 366.576563 502.84 
Q 366.576563 505.64 369.376563 505.64 
z
" style="fill:#ffffff;opacity:0.8;stroke:#cccccc;stroke-linejoin:miter;"/>
    </g>
    <g id="line2d_16">
     <path d="M 372.176563 430.580313 
L 400.176563 430.580313 
" style="fill:none;stroke:#1f77b4;stroke-linecap:square;stroke-width:1.5;"/>
    </g>
    <g id="line2d_17"/>
    <g id="text_15">
     <!-- Epsilon = 0.1 -->
     <g transform="translate(411.376563 435.480313)scale(0.14 -0.14)">
      <defs>
       <path d="M 678 2906 
L 4684 2906 
L 4684 2381 
L 678 2381 
L 678 2906 
z
M 678 1631 
L 4684 1631 
L 4684 1100 
L 678 1100 
L 678 1631 
z
" id="DejaVuSans-3d" transform="scale(0.015625)"/>
      </defs>
      <use xlink:href="#DejaVuSans-45"/>
      <use x="63.183594" xlink:href="#DejaVuSans-70"/>
      <use x="126.660156" xlink:href="#DejaVuSans-73"/>
      <use x="178.759766" xlink:href="#DejaVuSans-69"/>
      <use x="206.542969" xlink:href="#DejaVuSans-6c"/>
      <use x="234.326172" xlink:href="#DejaVuSans-6f"/>
      <use x="295.507812" xlink:href="#DejaVuSans-6e"/>
      <use x="358.886719" xlink:href="#DejaVuSans-20"/>
      <use x="390.673828" xlink:href="#DejaVuSans-3d"/>
      <use x="474.462891" xlink:href="#DejaVuSans-20"/>
      <use x="506.25" xlink:href="#DejaVuSans-30"/>
      <use x="569.873047" xlink:href="#DejaVuSans-2e"/>
      <use x="601.660156" xlink:href="#DejaVuSans-31"/>
     </g>
    </g>
    <g id="line2d_18">
     <path d="M 372.176563 451.129688 
L 400.176563 451.129688 
" style="fill:none;stroke:#ff7f0e;stroke-linecap:square;stroke-width:1.5;"/>
    </g>
    <g id="line2d_19"/>
    <g id="text_16">
     <!-- Epsilon = 0.01 -->
     <g transform="translate(411.376563 456.029688)scale(0.14 -0.14)">
      <use xlink:href="#DejaVuSans-45"/>
      <use x="63.183594" xlink:href="#DejaVuSans-70"/>
      <use x="126.660156" xlink:href="#DejaVuSans-73"/>
      <use x="178.759766" xlink:href="#DejaVuSans-69"/>
      <use x="206.542969" xlink:href="#DejaVuSans-6c"/>
      <use x="234.326172" xlink:href="#DejaVuSans-6f"/>
      <use x="295.507812" xlink:href="#DejaVuSans-6e"/>
      <use x="358.886719" xlink:href="#DejaVuSans-20"/>
      <use x="390.673828" xlink:href="#DejaVuSans-3d"/>
      <use x="474.462891" xlink:href="#DejaVuSans-20"/>
      <use x="506.25" xlink:href="#DejaVuSans-30"/>
      <use x="569.873047" xlink:href="#DejaVuSans-2e"/>
      <use x="601.660156" xlink:href="#DejaVuSans-30"/>
      <use x="665.283203" xlink:href="#DejaVuSans-31"/>
     </g>
    </g>
    <g id="line2d_20">
     <path d="M 372.176563 471.679063 
L 400.176563 471.679063 
" style="fill:none;stroke:#2ca02c;stroke-linecap:square;stroke-width:1.5;"/>
    </g>
    <g id="line2d_21"/>
    <g id="text_17">
     <!-- Epsilon = 0 -->
     <g transform="translate(411.376563 476.579063)scale(0.14 -0.14)">
      <use xlink:href="#DejaVuSans-45"/>
      <use x="63.183594" xlink:href="#DejaVuSans-70"/>
      <use x="126.660156" xlink:href="#DejaVuSans-73"/>
      <use x="178.759766" xlink:href="#DejaVuSans-69"/>
      <use x="206.542969" xlink:href="#DejaVuSans-6c"/>
      <use x="234.326172" xlink:href="#DejaVuSans-6f"/>
      <use x="295.507812" xlink:href="#DejaVuSans-6e"/>
      <use x="358.886719" xlink:href="#DejaVuSans-20"/>
      <use x="390.673828" xlink:href="#DejaVuSans-3d"/>
      <use x="474.462891" xlink:href="#DejaVuSans-20"/>
      <use x="506.25" xlink:href="#DejaVuSans-30"/>
     </g>
    </g>
    <g id="line2d_22">
     <path d="M 372.176563 492.228438 
L 400.176563 492.228438 
" style="fill:none;stroke:#d62728;stroke-linecap:square;stroke-width:1.5;"/>
    </g>
    <g id="line2d_23"/>
    <g id="text_18">
     <!-- Epsilon = 1 -->
     <g transform="translate(411.376563 497.128438)scale(0.14 -0.14)">
      <use xlink:href="#DejaVuSans-45"/>
      <use x="63.183594" xlink:href="#DejaVuSans-70"/>
      <use x="126.660156" xlink:href="#DejaVuSans-73"/>
      <use x="178.759766" xlink:href="#DejaVuSans-69"/>
      <use x="206.542969" xlink:href="#DejaVuSans-6c"/>
      <use x="234.326172" xlink:href="#DejaVuSans-6f"/>
      <use x="295.507812" xlink:href="#DejaVuSans-6e"/>
      <use x="358.886719" xlink:href="#DejaVuSans-20"/>
      <use x="390.673828" xlink:href="#DejaVuSans-3d"/>
      <use x="474.462891" xlink:href="#DejaVuSans-20"/>
      <use x="506.25" xlink:href="#DejaVuSans-31"/>
     </g>
    </g>
   </g>
  </g>
 </g>
 <defs>
  <clipPath id="pb52c648e35">
   <rect height="443.52" width="669.6" x="108" y="69.12"/>
  </clipPath>
 </defs>
</svg>
