<?xml version="1.0" encoding="utf-8" standalone="no"?>
<!DOCTYPE svg PUBLIC "-//W3C//DTD SVG 1.1//EN"
  "http://www.w3.org/Graphics/SVG/1.1/DTD/svg11.dtd">
<svg height="576pt" version="1.1" viewBox="0 0 864 576" width="864pt" xmlns="http://www.w3.org/2000/svg" xmlns:xlink="http://www.w3.org/1999/xlink">
 <metadata>
  <rdf:RDF xmlns:cc="http://creativecommons.org/ns#" xmlns:dc="http://purl.org/dc/elements/1.1/" xmlns:rdf="http://www.w3.org/1999/02/22-rdf-syntax-ns#">
   <cc:Work>
    <dc:type rdf:resource="http://purl.org/dc/dcmitype/StillImage"/>
    <dc:date>2021-09-11T13:32:40.341927</dc:date>
    <dc:format>image/svg+xml</dc:format>
    <dc:creator>
     <cc:Agent>
      <dc:title>Matplotlib v3.4.3, https://matplotlib.org/</dc:title>
     </cc:Agent>
    </dc:creator>
   </cc:Work>
  </rdf:RDF>
 </metadata>
 <defs>
  <style type="text/css">*{stroke-linecap:butt;stroke-linejoin:round;}</style>
 </defs>
 <g id="figure_1">
  <g id="patch_1">
   <path d="M 0 576 
L 864 576 
L 864 0 
L 0 0 
z
" style="fill:#ffffff;"/>
  </g>
  <g id="axes_1">
   <g id="patch_2">
    <path d="M 108 512.64 
L 777.6 512.64 
L 777.6 69.12 
L 108 69.12 
z
" style="fill:#ffffff;"/>
   </g>
   <g id="matplotlib.axis_1">
    <g id="xtick_1">
     <g id="line2d_1">
      <defs>
       <path d="M 0 0 
L 0 3.5 
" id="m6bf980f9e9" style="stroke:#000000;stroke-width:0.8;"/>
      </defs>
      <g>
       <use style="stroke:#000000;stroke-width:0.8;" x="138.436364" xlink:href="#m6bf980f9e9" y="512.64"/>
      </g>
     </g>
     <g id="text_1">
      <!-- 0 -->
      <g transform="translate(133.982614 530.277812)scale(0.14 -0.14)">
       <defs>
        <path d="M 2034 4250 
Q 1547 4250 1301 3770 
Q 1056 3291 1056 2328 
Q 1056 1369 1301 889 
Q 1547 409 2034 409 
Q 2525 409 2770 889 
Q 3016 1369 3016 2328 
Q 3016 3291 2770 3770 
Q 2525 4250 2034 4250 
z
M 2034 4750 
Q 2819 4750 3233 4129 
Q 3647 3509 3647 2328 
Q 3647 1150 3233 529 
Q 2819 -91 2034 -91 
Q 1250 -91 836 529 
Q 422 1150 422 2328 
Q 422 3509 836 4129 
Q 1250 4750 2034 4750 
z
" id="DejaVuSans-30" transform="scale(0.015625)"/>
       </defs>
       <use xlink:href="#DejaVuSans-30"/>
      </g>
     </g>
    </g>
    <g id="xtick_2">
     <g id="line2d_2">
      <g>
       <use style="stroke:#000000;stroke-width:0.8;" x="260.303686" xlink:href="#m6bf980f9e9" y="512.64"/>
      </g>
     </g>
     <g id="text_2">
      <!-- 200 -->
      <g transform="translate(246.942436 530.277812)scale(0.14 -0.14)">
       <defs>
        <path d="M 1228 531 
L 3431 531 
L 3431 0 
L 469 0 
L 469 531 
Q 828 903 1448 1529 
Q 2069 2156 2228 2338 
Q 2531 2678 2651 2914 
Q 2772 3150 2772 3378 
Q 2772 3750 2511 3984 
Q 2250 4219 1831 4219 
Q 1534 4219 1204 4116 
Q 875 4013 500 3803 
L 500 4441 
Q 881 4594 1212 4672 
Q 1544 4750 1819 4750 
Q 2544 4750 2975 4387 
Q 3406 4025 3406 3419 
Q 3406 3131 3298 2873 
Q 3191 2616 2906 2266 
Q 2828 2175 2409 1742 
Q 1991 1309 1228 531 
z
" id="DejaVuSans-32" transform="scale(0.015625)"/>
       </defs>
       <use xlink:href="#DejaVuSans-32"/>
       <use x="63.623047" xlink:href="#DejaVuSans-30"/>
       <use x="127.246094" xlink:href="#DejaVuSans-30"/>
      </g>
     </g>
    </g>
    <g id="xtick_3">
     <g id="line2d_3">
      <g>
       <use style="stroke:#000000;stroke-width:0.8;" x="382.171007" xlink:href="#m6bf980f9e9" y="512.64"/>
      </g>
     </g>
     <g id="text_3">
      <!-- 400 -->
      <g transform="translate(368.809757 530.277812)scale(0.14 -0.14)">
       <defs>
        <path d="M 2419 4116 
L 825 1625 
L 2419 1625 
L 2419 4116 
z
M 2253 4666 
L 3047 4666 
L 3047 1625 
L 3713 1625 
L 3713 1100 
L 3047 1100 
L 3047 0 
L 2419 0 
L 2419 1100 
L 313 1100 
L 313 1709 
L 2253 4666 
z
" id="DejaVuSans-34" transform="scale(0.015625)"/>
       </defs>
       <use xlink:href="#DejaVuSans-34"/>
       <use x="63.623047" xlink:href="#DejaVuSans-30"/>
       <use x="127.246094" xlink:href="#DejaVuSans-30"/>
      </g>
     </g>
    </g>
    <g id="xtick_4">
     <g id="line2d_4">
      <g>
       <use style="stroke:#000000;stroke-width:0.8;" x="504.038329" xlink:href="#m6bf980f9e9" y="512.64"/>
      </g>
     </g>
     <g id="text_4">
      <!-- 600 -->
      <g transform="translate(490.677079 530.277812)scale(0.14 -0.14)">
       <defs>
        <path d="M 2113 2584 
Q 1688 2584 1439 2293 
Q 1191 2003 1191 1497 
Q 1191 994 1439 701 
Q 1688 409 2113 409 
Q 2538 409 2786 701 
Q 3034 994 3034 1497 
Q 3034 2003 2786 2293 
Q 2538 2584 2113 2584 
z
M 3366 4563 
L 3366 3988 
Q 3128 4100 2886 4159 
Q 2644 4219 2406 4219 
Q 1781 4219 1451 3797 
Q 1122 3375 1075 2522 
Q 1259 2794 1537 2939 
Q 1816 3084 2150 3084 
Q 2853 3084 3261 2657 
Q 3669 2231 3669 1497 
Q 3669 778 3244 343 
Q 2819 -91 2113 -91 
Q 1303 -91 875 529 
Q 447 1150 447 2328 
Q 447 3434 972 4092 
Q 1497 4750 2381 4750 
Q 2619 4750 2861 4703 
Q 3103 4656 3366 4563 
z
" id="DejaVuSans-36" transform="scale(0.015625)"/>
       </defs>
       <use xlink:href="#DejaVuSans-36"/>
       <use x="63.623047" xlink:href="#DejaVuSans-30"/>
       <use x="127.246094" xlink:href="#DejaVuSans-30"/>
      </g>
     </g>
    </g>
    <g id="xtick_5">
     <g id="line2d_5">
      <g>
       <use style="stroke:#000000;stroke-width:0.8;" x="625.905651" xlink:href="#m6bf980f9e9" y="512.64"/>
      </g>
     </g>
     <g id="text_5">
      <!-- 800 -->
      <g transform="translate(612.544401 530.277812)scale(0.14 -0.14)">
       <defs>
        <path d="M 2034 2216 
Q 1584 2216 1326 1975 
Q 1069 1734 1069 1313 
Q 1069 891 1326 650 
Q 1584 409 2034 409 
Q 2484 409 2743 651 
Q 3003 894 3003 1313 
Q 3003 1734 2745 1975 
Q 2488 2216 2034 2216 
z
M 1403 2484 
Q 997 2584 770 2862 
Q 544 3141 544 3541 
Q 544 4100 942 4425 
Q 1341 4750 2034 4750 
Q 2731 4750 3128 4425 
Q 3525 4100 3525 3541 
Q 3525 3141 3298 2862 
Q 3072 2584 2669 2484 
Q 3125 2378 3379 2068 
Q 3634 1759 3634 1313 
Q 3634 634 3220 271 
Q 2806 -91 2034 -91 
Q 1263 -91 848 271 
Q 434 634 434 1313 
Q 434 1759 690 2068 
Q 947 2378 1403 2484 
z
M 1172 3481 
Q 1172 3119 1398 2916 
Q 1625 2713 2034 2713 
Q 2441 2713 2670 2916 
Q 2900 3119 2900 3481 
Q 2900 3844 2670 4047 
Q 2441 4250 2034 4250 
Q 1625 4250 1398 4047 
Q 1172 3844 1172 3481 
z
" id="DejaVuSans-38" transform="scale(0.015625)"/>
       </defs>
       <use xlink:href="#DejaVuSans-38"/>
       <use x="63.623047" xlink:href="#DejaVuSans-30"/>
       <use x="127.246094" xlink:href="#DejaVuSans-30"/>
      </g>
     </g>
    </g>
    <g id="xtick_6">
     <g id="line2d_6">
      <g>
       <use style="stroke:#000000;stroke-width:0.8;" x="747.772973" xlink:href="#m6bf980f9e9" y="512.64"/>
      </g>
     </g>
     <g id="text_6">
      <!-- 1000 -->
      <g transform="translate(729.957973 530.277812)scale(0.14 -0.14)">
       <defs>
        <path d="M 794 531 
L 1825 531 
L 1825 4091 
L 703 3866 
L 703 4441 
L 1819 4666 
L 2450 4666 
L 2450 531 
L 3481 531 
L 3481 0 
L 794 0 
L 794 531 
z
" id="DejaVuSans-31" transform="scale(0.015625)"/>
       </defs>
       <use xlink:href="#DejaVuSans-31"/>
       <use x="63.623047" xlink:href="#DejaVuSans-30"/>
       <use x="127.246094" xlink:href="#DejaVuSans-30"/>
       <use x="190.869141" xlink:href="#DejaVuSans-30"/>
      </g>
     </g>
    </g>
    <g id="text_7">
     <!-- Episodes -->
     <g transform="translate(411.660937 547.827188)scale(0.14 -0.14)">
      <defs>
       <path d="M 628 4666 
L 3578 4666 
L 3578 4134 
L 1259 4134 
L 1259 2753 
L 3481 2753 
L 3481 2222 
L 1259 2222 
L 1259 531 
L 3634 531 
L 3634 0 
L 628 0 
L 628 4666 
z
" id="DejaVuSans-45" transform="scale(0.015625)"/>
       <path d="M 1159 525 
L 1159 -1331 
L 581 -1331 
L 581 3500 
L 1159 3500 
L 1159 2969 
Q 1341 3281 1617 3432 
Q 1894 3584 2278 3584 
Q 2916 3584 3314 3078 
Q 3713 2572 3713 1747 
Q 3713 922 3314 415 
Q 2916 -91 2278 -91 
Q 1894 -91 1617 61 
Q 1341 213 1159 525 
z
M 3116 1747 
Q 3116 2381 2855 2742 
Q 2594 3103 2138 3103 
Q 1681 3103 1420 2742 
Q 1159 2381 1159 1747 
Q 1159 1113 1420 752 
Q 1681 391 2138 391 
Q 2594 391 2855 752 
Q 3116 1113 3116 1747 
z
" id="DejaVuSans-70" transform="scale(0.015625)"/>
       <path d="M 603 3500 
L 1178 3500 
L 1178 0 
L 603 0 
L 603 3500 
z
M 603 4863 
L 1178 4863 
L 1178 4134 
L 603 4134 
L 603 4863 
z
" id="DejaVuSans-69" transform="scale(0.015625)"/>
       <path d="M 2834 3397 
L 2834 2853 
Q 2591 2978 2328 3040 
Q 2066 3103 1784 3103 
Q 1356 3103 1142 2972 
Q 928 2841 928 2578 
Q 928 2378 1081 2264 
Q 1234 2150 1697 2047 
L 1894 2003 
Q 2506 1872 2764 1633 
Q 3022 1394 3022 966 
Q 3022 478 2636 193 
Q 2250 -91 1575 -91 
Q 1294 -91 989 -36 
Q 684 19 347 128 
L 347 722 
Q 666 556 975 473 
Q 1284 391 1588 391 
Q 1994 391 2212 530 
Q 2431 669 2431 922 
Q 2431 1156 2273 1281 
Q 2116 1406 1581 1522 
L 1381 1569 
Q 847 1681 609 1914 
Q 372 2147 372 2553 
Q 372 3047 722 3315 
Q 1072 3584 1716 3584 
Q 2034 3584 2315 3537 
Q 2597 3491 2834 3397 
z
" id="DejaVuSans-73" transform="scale(0.015625)"/>
       <path d="M 1959 3097 
Q 1497 3097 1228 2736 
Q 959 2375 959 1747 
Q 959 1119 1226 758 
Q 1494 397 1959 397 
Q 2419 397 2687 759 
Q 2956 1122 2956 1747 
Q 2956 2369 2687 2733 
Q 2419 3097 1959 3097 
z
M 1959 3584 
Q 2709 3584 3137 3096 
Q 3566 2609 3566 1747 
Q 3566 888 3137 398 
Q 2709 -91 1959 -91 
Q 1206 -91 779 398 
Q 353 888 353 1747 
Q 353 2609 779 3096 
Q 1206 3584 1959 3584 
z
" id="DejaVuSans-6f" transform="scale(0.015625)"/>
       <path d="M 2906 2969 
L 2906 4863 
L 3481 4863 
L 3481 0 
L 2906 0 
L 2906 525 
Q 2725 213 2448 61 
Q 2172 -91 1784 -91 
Q 1150 -91 751 415 
Q 353 922 353 1747 
Q 353 2572 751 3078 
Q 1150 3584 1784 3584 
Q 2172 3584 2448 3432 
Q 2725 3281 2906 2969 
z
M 947 1747 
Q 947 1113 1208 752 
Q 1469 391 1925 391 
Q 2381 391 2643 752 
Q 2906 1113 2906 1747 
Q 2906 2381 2643 2742 
Q 2381 3103 1925 3103 
Q 1469 3103 1208 2742 
Q 947 2381 947 1747 
z
" id="DejaVuSans-64" transform="scale(0.015625)"/>
       <path d="M 3597 1894 
L 3597 1613 
L 953 1613 
Q 991 1019 1311 708 
Q 1631 397 2203 397 
Q 2534 397 2845 478 
Q 3156 559 3463 722 
L 3463 178 
Q 3153 47 2828 -22 
Q 2503 -91 2169 -91 
Q 1331 -91 842 396 
Q 353 884 353 1716 
Q 353 2575 817 3079 
Q 1281 3584 2069 3584 
Q 2775 3584 3186 3129 
Q 3597 2675 3597 1894 
z
M 3022 2063 
Q 3016 2534 2758 2815 
Q 2500 3097 2075 3097 
Q 1594 3097 1305 2825 
Q 1016 2553 972 2059 
L 3022 2063 
z
" id="DejaVuSans-65" transform="scale(0.015625)"/>
      </defs>
      <use xlink:href="#DejaVuSans-45"/>
      <use x="63.183594" xlink:href="#DejaVuSans-70"/>
      <use x="126.660156" xlink:href="#DejaVuSans-69"/>
      <use x="154.443359" xlink:href="#DejaVuSans-73"/>
      <use x="206.542969" xlink:href="#DejaVuSans-6f"/>
      <use x="267.724609" xlink:href="#DejaVuSans-64"/>
      <use x="331.201172" xlink:href="#DejaVuSans-65"/>
      <use x="392.724609" xlink:href="#DejaVuSans-73"/>
     </g>
    </g>
   </g>
   <g id="matplotlib.axis_2">
    <g id="ytick_1">
     <g id="line2d_7">
      <defs>
       <path d="M 0 0 
L -3.5 0 
" id="m9f9e1cf652" style="stroke:#000000;stroke-width:0.8;"/>
      </defs>
      <g>
       <use style="stroke:#000000;stroke-width:0.8;" x="108" xlink:href="#m9f9e1cf652" y="461.877457"/>
      </g>
     </g>
     <g id="text_8">
      <!-- 0.4 -->
      <g transform="translate(78.735625 467.196364)scale(0.14 -0.14)">
       <defs>
        <path d="M 684 794 
L 1344 794 
L 1344 0 
L 684 0 
L 684 794 
z
" id="DejaVuSans-2e" transform="scale(0.015625)"/>
       </defs>
       <use xlink:href="#DejaVuSans-30"/>
       <use x="63.623047" xlink:href="#DejaVuSans-2e"/>
       <use x="95.410156" xlink:href="#DejaVuSans-34"/>
      </g>
     </g>
    </g>
    <g id="ytick_2">
     <g id="line2d_8">
      <g>
       <use style="stroke:#000000;stroke-width:0.8;" x="108" xlink:href="#m9f9e1cf652" y="399.777881"/>
      </g>
     </g>
     <g id="text_9">
      <!-- 0.5 -->
      <g transform="translate(78.735625 405.096787)scale(0.14 -0.14)">
       <defs>
        <path d="M 691 4666 
L 3169 4666 
L 3169 4134 
L 1269 4134 
L 1269 2991 
Q 1406 3038 1543 3061 
Q 1681 3084 1819 3084 
Q 2600 3084 3056 2656 
Q 3513 2228 3513 1497 
Q 3513 744 3044 326 
Q 2575 -91 1722 -91 
Q 1428 -91 1123 -41 
Q 819 9 494 109 
L 494 744 
Q 775 591 1075 516 
Q 1375 441 1709 441 
Q 2250 441 2565 725 
Q 2881 1009 2881 1497 
Q 2881 1984 2565 2268 
Q 2250 2553 1709 2553 
Q 1456 2553 1204 2497 
Q 953 2441 691 2322 
L 691 4666 
z
" id="DejaVuSans-35" transform="scale(0.015625)"/>
       </defs>
       <use xlink:href="#DejaVuSans-30"/>
       <use x="63.623047" xlink:href="#DejaVuSans-2e"/>
       <use x="95.410156" xlink:href="#DejaVuSans-35"/>
      </g>
     </g>
    </g>
    <g id="ytick_3">
     <g id="line2d_9">
      <g>
       <use style="stroke:#000000;stroke-width:0.8;" x="108" xlink:href="#m9f9e1cf652" y="337.678305"/>
      </g>
     </g>
     <g id="text_10">
      <!-- 0.6 -->
      <g transform="translate(78.735625 342.997211)scale(0.14 -0.14)">
       <use xlink:href="#DejaVuSans-30"/>
       <use x="63.623047" xlink:href="#DejaVuSans-2e"/>
       <use x="95.410156" xlink:href="#DejaVuSans-36"/>
      </g>
     </g>
    </g>
    <g id="ytick_4">
     <g id="line2d_10">
      <g>
       <use style="stroke:#000000;stroke-width:0.8;" x="108" xlink:href="#m9f9e1cf652" y="275.578729"/>
      </g>
     </g>
     <g id="text_11">
      <!-- 0.7 -->
      <g transform="translate(78.735625 280.897635)scale(0.14 -0.14)">
       <defs>
        <path d="M 525 4666 
L 3525 4666 
L 3525 4397 
L 1831 0 
L 1172 0 
L 2766 4134 
L 525 4134 
L 525 4666 
z
" id="DejaVuSans-37" transform="scale(0.015625)"/>
       </defs>
       <use xlink:href="#DejaVuSans-30"/>
       <use x="63.623047" xlink:href="#DejaVuSans-2e"/>
       <use x="95.410156" xlink:href="#DejaVuSans-37"/>
      </g>
     </g>
    </g>
    <g id="ytick_5">
     <g id="line2d_11">
      <g>
       <use style="stroke:#000000;stroke-width:0.8;" x="108" xlink:href="#m9f9e1cf652" y="213.479152"/>
      </g>
     </g>
     <g id="text_12">
      <!-- 0.8 -->
      <g transform="translate(78.735625 218.798059)scale(0.14 -0.14)">
       <use xlink:href="#DejaVuSans-30"/>
       <use x="63.623047" xlink:href="#DejaVuSans-2e"/>
       <use x="95.410156" xlink:href="#DejaVuSans-38"/>
      </g>
     </g>
    </g>
    <g id="ytick_6">
     <g id="line2d_12">
      <g>
       <use style="stroke:#000000;stroke-width:0.8;" x="108" xlink:href="#m9f9e1cf652" y="151.379576"/>
      </g>
     </g>
     <g id="text_13">
      <!-- 0.9 -->
      <g transform="translate(78.735625 156.698482)scale(0.14 -0.14)">
       <defs>
        <path d="M 703 97 
L 703 672 
Q 941 559 1184 500 
Q 1428 441 1663 441 
Q 2288 441 2617 861 
Q 2947 1281 2994 2138 
Q 2813 1869 2534 1725 
Q 2256 1581 1919 1581 
Q 1219 1581 811 2004 
Q 403 2428 403 3163 
Q 403 3881 828 4315 
Q 1253 4750 1959 4750 
Q 2769 4750 3195 4129 
Q 3622 3509 3622 2328 
Q 3622 1225 3098 567 
Q 2575 -91 1691 -91 
Q 1453 -91 1209 -44 
Q 966 3 703 97 
z
M 1959 2075 
Q 2384 2075 2632 2365 
Q 2881 2656 2881 3163 
Q 2881 3666 2632 3958 
Q 2384 4250 1959 4250 
Q 1534 4250 1286 3958 
Q 1038 3666 1038 3163 
Q 1038 2656 1286 2365 
Q 1534 2075 1959 2075 
z
" id="DejaVuSans-39" transform="scale(0.015625)"/>
       </defs>
       <use xlink:href="#DejaVuSans-30"/>
       <use x="63.623047" xlink:href="#DejaVuSans-2e"/>
       <use x="95.410156" xlink:href="#DejaVuSans-39"/>
      </g>
     </g>
    </g>
    <g id="ytick_7">
     <g id="line2d_13">
      <g>
       <use style="stroke:#000000;stroke-width:0.8;" x="108" xlink:href="#m9f9e1cf652" y="89.28"/>
      </g>
     </g>
     <g id="text_14">
      <!-- 1.0 -->
      <g transform="translate(78.735625 94.598906)scale(0.14 -0.14)">
       <use xlink:href="#DejaVuSans-31"/>
       <use x="63.623047" xlink:href="#DejaVuSans-2e"/>
       <use x="95.410156" xlink:href="#DejaVuSans-30"/>
      </g>
     </g>
    </g>
    <g id="text_15">
     <!-- Reward -->
     <g transform="translate(71.824062 316.949531)rotate(-90)scale(0.14 -0.14)">
      <defs>
       <path d="M 2841 2188 
Q 3044 2119 3236 1894 
Q 3428 1669 3622 1275 
L 4263 0 
L 3584 0 
L 2988 1197 
Q 2756 1666 2539 1819 
Q 2322 1972 1947 1972 
L 1259 1972 
L 1259 0 
L 628 0 
L 628 4666 
L 2053 4666 
Q 2853 4666 3247 4331 
Q 3641 3997 3641 3322 
Q 3641 2881 3436 2590 
Q 3231 2300 2841 2188 
z
M 1259 4147 
L 1259 2491 
L 2053 2491 
Q 2509 2491 2742 2702 
Q 2975 2913 2975 3322 
Q 2975 3731 2742 3939 
Q 2509 4147 2053 4147 
L 1259 4147 
z
" id="DejaVuSans-52" transform="scale(0.015625)"/>
       <path d="M 269 3500 
L 844 3500 
L 1563 769 
L 2278 3500 
L 2956 3500 
L 3675 769 
L 4391 3500 
L 4966 3500 
L 4050 0 
L 3372 0 
L 2619 2869 
L 1863 0 
L 1184 0 
L 269 3500 
z
" id="DejaVuSans-77" transform="scale(0.015625)"/>
       <path d="M 2194 1759 
Q 1497 1759 1228 1600 
Q 959 1441 959 1056 
Q 959 750 1161 570 
Q 1363 391 1709 391 
Q 2188 391 2477 730 
Q 2766 1069 2766 1631 
L 2766 1759 
L 2194 1759 
z
M 3341 1997 
L 3341 0 
L 2766 0 
L 2766 531 
Q 2569 213 2275 61 
Q 1981 -91 1556 -91 
Q 1019 -91 701 211 
Q 384 513 384 1019 
Q 384 1609 779 1909 
Q 1175 2209 1959 2209 
L 2766 2209 
L 2766 2266 
Q 2766 2663 2505 2880 
Q 2244 3097 1772 3097 
Q 1472 3097 1187 3025 
Q 903 2953 641 2809 
L 641 3341 
Q 956 3463 1253 3523 
Q 1550 3584 1831 3584 
Q 2591 3584 2966 3190 
Q 3341 2797 3341 1997 
z
" id="DejaVuSans-61" transform="scale(0.015625)"/>
       <path d="M 2631 2963 
Q 2534 3019 2420 3045 
Q 2306 3072 2169 3072 
Q 1681 3072 1420 2755 
Q 1159 2438 1159 1844 
L 1159 0 
L 581 0 
L 581 3500 
L 1159 3500 
L 1159 2956 
Q 1341 3275 1631 3429 
Q 1922 3584 2338 3584 
Q 2397 3584 2469 3576 
Q 2541 3569 2628 3553 
L 2631 2963 
z
" id="DejaVuSans-72" transform="scale(0.015625)"/>
      </defs>
      <use xlink:href="#DejaVuSans-52"/>
      <use x="64.982422" xlink:href="#DejaVuSans-65"/>
      <use x="126.505859" xlink:href="#DejaVuSans-77"/>
      <use x="208.292969" xlink:href="#DejaVuSans-61"/>
      <use x="269.572266" xlink:href="#DejaVuSans-72"/>
      <use x="308.935547" xlink:href="#DejaVuSans-64"/>
     </g>
    </g>
   </g>
   <g id="line2d_14">
    <path clip-path="url(#p33ae5bbc43)" d="M 138.436364 89.28 
L 139.0457 89.28 
L 139.655037 113.632775 
L 141.483047 110.878628 
L 142.70172 156.968373 
L 143.311057 154.313927 
L 143.920393 176.116352 
L 144.52973 172.711005 
L 145.748403 214.046242 
L 146.967076 204.452529 
L 148.795086 261.657979 
L 150.013759 248.403232 
L 150.623096 266.51588 
L 151.841769 252.887593 
L 153.060442 288.057771 
L 154.279115 272.773052 
L 154.888452 289.930021 
L 155.497789 282.061393 
L 156.716462 314.988296 
L 157.325799 306.13699 
L 157.935135 321.985569 
L 159.763145 295.668022 
L 160.981818 279.798124 
L 162.809828 328.482458 
L 163.419165 343.454744 
L 164.637838 323.910358 
L 166.465848 367.605873 
L 167.075184 381.043908 
L 168.903194 348.047231 
L 170.121867 375.900252 
L 171.949877 343.485291 
L 173.777887 314.736259 
L 175.605897 289.238564 
L 176.82457 321.613589 
L 178.043243 303.748645 
L 178.65258 319.690885 
L 180.48059 293.632852 
L 182.3086 270.52182 
L 182.917936 263.414298 
L 183.527273 280.938277 
L 184.136609 273.422266 
L 184.745946 290.553776 
L 185.964619 275.07713 
L 186.573956 292.143743 
L 187.183292 284.188302 
L 189.011302 332.376134 
L 190.229975 313.683621 
L 190.839312 329.236254 
L 192.667322 302.0987 
L 193.276658 318.105643 
L 195.104668 292.226891 
L 195.714005 284.26819 
L 196.323342 300.974369 
L 197.542015 284.696448 
L 199.370025 332.826811 
L 200.588698 361.850183 
L 201.198034 351.161156 
L 201.807371 365.244082 
L 203.026044 344.024237 
L 204.854054 385.444998 
L 206.072727 410.422374 
L 207.900737 374.103176 
L 208.510074 387.286415 
L 209.11941 375.599889 
L 210.94742 413.449641 
L 212.77543 376.788078 
L 213.384767 365.513251 
L 213.994103 379.03335 
L 215.822113 346.264055 
L 217.040786 326.503651 
L 217.650123 341.553537 
L 218.868796 322.155342 
L 220.696806 366.049338 
L 222.524816 334.748454 
L 223.134152 349.475015 
L 224.352826 329.467709 
L 224.962162 344.401358 
L 225.571499 334.396599 
L 226.790172 363.299264 
L 228.618182 332.309396 
L 229.227518 347.131607 
L 229.836855 337.019779 
L 231.664865 379.2327 
L 232.883538 356.937222 
L 233.492875 370.793635 
L 234.102211 359.753885 
L 234.711548 373.499841 
L 235.320885 362.353965 
L 237.148894 401.701748 
L 237.758231 389.449915 
L 239.586241 425.733315 
L 240.195577 412.539068 
L 240.804914 424.215016 
L 241.414251 411.08031 
L 242.632924 434.086496 
L 243.851597 407.573117 
L 244.460934 419.443809 
L 245.07027 406.496209 
L 245.679607 418.409132 
L 246.288943 405.502107 
L 246.89828 417.454016 
L 248.72629 380.339583 
L 250.5543 347.422561 
L 251.772973 327.573076 
L 253.600983 370.85436 
L 254.819656 349.203122 
L 255.428993 363.362833 
L 256.647666 342.287644 
L 257.257002 356.718551 
L 258.475676 336.154264 
L 259.694349 364.921776 
L 261.522359 333.748412 
L 262.131695 348.51419 
L 262.741032 338.348144 
L 264.569042 380.410836 
L 266.397052 417.716499 
L 267.006388 429.189412 
L 268.834398 390.747779 
L 270.053071 415.317405 
L 271.881081 378.44461 
L 273.099754 356.20973 
L 274.927764 396.252388 
L 275.537101 384.214255 
L 276.146437 397.000981 
L 277.365111 373.339237 
L 279.19312 411.444655 
L 280.411794 434.422825 
L 281.02113 420.887812 
L 282.239803 443.139865 
L 282.84914 429.263008 
L 283.458477 440.283116 
L 284.067813 426.518288 
L 285.895823 458.609487 
L 287.114496 430.210449 
L 287.723833 441.193402 
L 288.942506 414.133548 
L 290.770516 447.625384 
L 292.598526 407.098758 
L 293.817199 430.4111 
L 295.035872 404.180335 
L 296.254545 427.717084 
L 296.863882 414.445042 
L 298.691892 447.901649 
L 299.910565 468.076514 
L 300.519902 453.221749 
L 301.129238 463.302298 
L 301.738575 448.634757 
L 302.957248 468.75325 
L 304.175921 439.574223 
L 304.785258 450.18997 
L 306.003931 422.438338 
L 306.613268 433.72608 
L 307.222604 420.218391 
L 308.441278 442.521918 
L 309.050614 428.669294 
L 310.878624 460.517227 
L 311.487961 470.31168 
L 312.097297 455.369261 
L 312.706634 465.365594 
L 314.534644 422.832661 
L 315.753317 444.935168 
L 316.362654 430.987907 
L 316.97199 441.940372 
L 317.581327 428.110553 
L 318.190663 439.175855 
L 319.409337 412.271138 
L 320.018673 423.957593 
L 320.62801 410.832982 
L 321.237346 422.575836 
L 322.45602 396.947552 
L 323.065356 409.234933 
L 323.674693 396.68768 
L 324.284029 408.985252 
L 324.893366 396.447791 
L 325.502703 408.754771 
L 326.721376 384.189237 
L 328.549386 421.067587 
L 329.158722 408.056309 
L 330.986732 442.235443 
L 332.205405 462.846002 
L 332.814742 448.196354 
L 333.424079 458.473978 
L 334.033415 443.995783 
L 334.642752 454.438135 
L 335.861425 426.359847 
L 337.080098 448.191136 
L 337.689435 434.11619 
L 338.298771 444.945977 
L 339.517445 417.597574 
L 340.736118 440.102625 
L 341.954791 413.126645 
L 342.564128 424.779551 
L 344.392138 386.836647 
L 346.220147 423.415591 
L 346.829484 434.66501 
L 348.657494 395.604121 
L 349.876167 372.049787 
L 351.704177 410.301033 
L 353.532187 444.226302 
L 354.141523 430.30684 
L 354.75086 441.286013 
L 355.360197 427.481856 
L 357.188206 459.464081 
L 357.797543 469.299833 
L 359.016216 440.078777 
L 359.625553 450.674737 
L 360.844226 422.88583 
L 362.672236 455.387838 
L 363.281572 465.383442 
L 363.890909 450.634288 
L 364.500246 460.816306 
L 366.328256 418.79787 
L 366.937592 430.228375 
L 368.156265 404.01166 
L 369.374939 427.56138 
L 369.984275 414.295443 
L 371.202948 437.054407 
L 373.030958 397.723292 
L 373.640295 409.980252 
L 374.249631 397.403772 
L 376.077641 432.787641 
L 377.905651 464.169815 
L 378.514988 473.821028 
L 379.733661 444.252322 
L 381.561671 474.337912 
L 382.780344 492.48 
L 384.608354 446.880597 
L 385.21769 457.209819 
L 385.827027 442.781199 
L 387.0457 463.349793 
L 387.655037 448.680389 
L 388.87371 468.795374 
L 390.70172 425.874554 
L 392.52973 387.807811 
L 393.139066 376.100838 
L 394.35774 401.796719 
L 396.185749 366.453029 
L 396.795086 379.936273 
L 397.404423 368.537988 
L 398.013759 381.939469 
L 398.623096 370.462627 
L 400.451106 408.893372 
L 402.279115 442.977838 
L 404.107125 402.976821 
L 405.325799 426.606113 
L 407.153808 388.456635 
L 408.981818 354.621626 
L 410.200491 381.969118 
L 411.419165 359.463226 
L 412.028501 373.220581 
L 412.637838 362.085656 
L 414.465848 401.463783 
L 415.075184 413.574057 
L 416.903194 376.898424 
L 417.512531 389.972045 
L 419.340541 355.965652 
L 419.949877 369.860166 
L 421.777887 338.128301 
L 422.387224 352.722319 
L 422.99656 342.391247 
L 423.605897 356.818091 
L 424.215233 346.326401 
L 426.043243 387.486802 
L 426.65258 375.792418 
L 427.261916 388.909412 
L 427.871253 377.159239 
L 429.699263 414.832638 
L 431.527273 448.245411 
L 432.745946 468.393842 
L 434.573956 425.518433 
L 435.792629 399.663883 
L 437.011302 423.547918 
L 438.229975 397.844887 
L 440.057985 433.178869 
L 440.667322 444.045413 
L 441.276658 430.133044 
L 442.495332 451.674199 
L 443.714005 423.80844 
L 444.323342 435.042452 
L 444.932678 421.483141 
L 445.542015 432.808341 
L 447.370025 393.957431 
L 449.198034 359.500315 
L 450.416708 386.472668 
L 452.244717 352.862032 
L 452.854054 366.878257 
L 454.682064 335.483627 
L 456.510074 307.639534 
L 457.728747 338.599644 
L 459.556757 310.403148 
L 461.384767 285.395501 
L 462.60344 270.315493 
L 463.212776 287.568837 
L 463.822113 279.792804 
L 464.43145 296.674489 
L 465.650123 280.7272 
L 466.259459 297.572242 
L 467.478133 281.555922 
L 468.087469 298.368465 
L 469.915479 274.721864 
L 470.524816 267.449634 
L 471.134152 284.815365 
L 471.743489 277.147311 
L 472.352826 294.132741 
L 472.962162 286.0993 
L 474.180835 318.715714 
L 476.008845 292.767967 
L 477.836855 269.754748 
L 478.446192 262.677307 
L 479.664865 297.09472 
L 480.274201 288.945123 
L 480.883538 305.467893 
L 482.711548 281.018392 
L 484.539558 259.333977 
L 486.367568 240.101934 
L 488.195577 223.044915 
L 489.414251 212.759262 
L 490.632924 251.015048 
L 491.851597 238.578674 
L 492.460934 257.076599 
L 493.679607 244.174131 
L 494.288943 262.452626 
L 496.116953 242.867883 
L 497.335627 231.057973 
L 497.944963 249.850827 
L 499.772973 231.691269 
L 500.991646 268.491307 
L 502.819656 248.223627 
L 503.428993 241.990544 
L 504.647666 277.998634 
L 505.257002 270.597903 
L 507.085012 320.322724 
L 508.913022 294.193235 
L 509.522359 286.157422 
L 510.131695 302.789513 
L 511.959705 278.64292 
L 513.787715 257.227156 
L 515.615725 238.233381 
L 517.443735 221.387684 
L 519.271744 206.447129 
L 519.881081 226.205115 
L 521.099754 215.676463 
L 521.709091 235.072514 
L 522.927764 223.862017 
L 523.537101 242.937066 
L 525.365111 225.559411 
L 527.19312 210.14706 
L 529.02113 196.47775 
L 529.630467 216.626692 
L 530.84914 206.834559 
L 531.458477 226.577351 
L 532.067813 221.193141 
L 532.67715 240.372852 
L 534.50516 223.285194 
L 535.114496 218.030088 
L 535.723833 237.33384 
L 537.551843 220.589875 
L 538.770516 210.492999 
L 539.989189 248.923046 
L 541.207862 236.647533 
L 541.817199 255.221189 
L 542.426536 248.713691 
L 543.035872 266.814165 
L 544.863882 246.736159 
L 546.691892 228.92885 
L 547.301229 247.8052 
L 549.129238 229.876989 
L 549.738575 224.363382 
L 550.347912 243.418769 
L 552.175921 225.986637 
L 554.003931 210.52597 
L 555.831941 196.813807 
L 557.659951 184.652405 
L 559.487961 173.866381 
L 561.315971 164.30019 
L 561.925307 161.358222 
L 562.534644 182.8844 
L 563.14398 179.213639 
L 563.753317 200.039604 
L 565.581327 187.513385 
L 566.190663 208.01387 
L 568.018673 194.585811 
L 569.846683 182.676381 
L 571.674693 172.113833 
L 572.284029 168.865448 
L 573.502703 210.496383 
L 575.330713 196.787567 
L 575.940049 216.924359 
L 577.768059 202.488579 
L 579.596069 189.685395 
L 580.205405 185.747929 
L 580.814742 206.317648 
L 582.642752 193.08142 
L 583.861425 232.850305 
L 585.080098 221.810681 
L 585.689435 240.966174 
L 586.298771 235.017697 
L 586.908108 253.655268 
L 588.126781 241.015878 
L 588.736118 259.418227 
L 589.345455 252.746139 
L 591.173464 304.489883 
L 592.392138 287.941642 
L 593.001474 304.503764 
L 594.829484 280.1633 
L 595.438821 297.030455 
L 597.26683 273.535176 
L 599.09484 252.697066 
L 600.313514 240.131355 
L 601.532187 276.282405 
L 602.141523 268.948978 
L 602.75086 286.25591 
L 603.360197 278.531365 
L 604.57887 311.729704 
L 605.797543 294.624767 
L 606.40688 310.924806 
L 608.234889 285.858162 
L 609.453563 270.742579 
L 610.672236 304.539825 
L 611.281572 296.098263 
L 611.890909 312.340518 
L 612.500246 303.593046 
L 613.109582 319.541388 
L 614.937592 293.500263 
L 616.765602 270.404226 
L 618.593612 249.920207 
L 619.202948 243.620591 
L 620.421622 279.503341 
L 622.249631 257.990269 
L 622.858968 275.726955 
L 624.686978 254.640968 
L 625.905651 241.925784 
L 626.514988 260.29245 
L 627.733661 247.142704 
L 628.342998 265.304784 
L 629.561671 251.769622 
L 630.171007 269.750255 
L 631.999017 249.340196 
L 632.608354 243.063326 
L 633.21769 261.385382 
L 634.436364 248.151596 
L 635.0457 266.274113 
L 636.87371 246.257183 
L 637.483047 264.45399 
L 638.70172 250.984249 
L 639.311057 268.995681 
L 641.139066 248.670959 
L 642.967076 230.644837 
L 643.576413 249.453893 
L 645.404423 231.339225 
L 647.232432 215.273214 
L 647.841769 210.332303 
L 648.451106 229.937929 
L 649.669779 219.122248 
L 650.279115 238.38317 
L 651.497789 226.918105 
L 652.107125 245.873308 
L 653.935135 228.163582 
L 655.763145 212.456716 
L 657.591155 198.526198 
L 658.200491 194.242034 
L 658.809828 214.478651 
L 659.419165 209.5689 
L 660.028501 229.204463 
L 660.637838 223.717229 
L 661.247174 242.797956 
L 661.856511 236.777644 
L 662.465848 255.346197 
L 664.293857 236.565147 
L 666.121867 219.908117 
L 666.731204 214.785445 
L 667.340541 234.216438 
L 667.949877 228.532656 
L 668.559214 247.424543 
L 669.16855 241.222796 
L 669.777887 259.61703 
L 671.605897 240.352975 
L 672.82457 228.736445 
L 673.433907 247.62034 
L 674.043243 241.410915 
L 674.65258 259.797771 
L 675.261916 253.1108 
L 676.48059 288.263815 
L 678.3086 265.759988 
L 679.527273 252.189824 
L 680.136609 270.153978 
L 681.964619 249.69826 
L 683.792629 231.555956 
L 685.011302 268.366399 
L 686.839312 248.112845 
L 688.667322 230.149842 
L 689.276658 248.978309 
L 689.885995 242.715631 
L 690.495332 261.051322 
L 691.714005 247.843224 
L 692.323342 265.977833 
L 693.542015 252.390918 
L 694.151351 270.347186 
L 695.979361 249.869618 
L 696.588698 267.924761 
L 698.416708 247.721153 
L 699.026044 265.86055 
L 700.854054 245.890392 
L 702.682064 228.178734 
L 704.510074 212.470155 
L 706.338084 198.538117 
L 706.94742 218.60626 
L 708.77543 203.980267 
L 710.60344 191.008383 
L 712.43145 179.503538 
L 713.040786 200.318135 
L 714.868796 187.760415 
L 715.478133 183.898438 
L 716.087469 204.540686 
L 717.915479 191.505422 
L 719.743489 179.944365 
L 721.571499 169.690791 
L 723.399509 160.596833 
L 724.618182 155.113032 
L 725.227518 176.884119 
L 726.446192 170.147932 
L 727.664865 211.680252 
L 728.883538 202.268468 
L 729.492875 222.190323 
L 731.320885 207.158995 
L 731.930221 226.889064 
L 733.148894 216.307821 
L 734.367568 254.290747 
L 734.976904 247.819737 
L 735.586241 265.955267 
L 737.414251 245.974397 
L 739.24226 228.253239 
L 741.07027 212.536234 
L 742.89828 198.596723 
L 743.507617 194.309793 
L 744.72629 233.984223 
L 746.5543 217.619079 
L 747.163636 212.586174 
L 747.163636 212.586174 
" style="fill:none;stroke:#1f77b4;stroke-linecap:square;stroke-width:1.5;"/>
   </g>
   <g id="line2d_15">
    <path clip-path="url(#p33ae5bbc43)" d="M 138.436364 89.28 
L 139.0457 89.28 
L 139.655037 113.632775 
L 141.483047 110.878628 
L 142.70172 156.968373 
L 143.311057 154.313927 
L 143.920393 176.116352 
L 144.52973 172.711005 
L 145.748403 214.046242 
L 146.967076 204.452529 
L 148.795086 261.657979 
L 150.013759 248.403232 
L 150.623096 266.51588 
L 151.841769 252.887593 
L 153.060442 288.057771 
L 154.279115 272.773052 
L 154.888452 289.930021 
L 155.497789 282.061393 
L 156.716462 314.988296 
L 157.325799 306.13699 
L 157.935135 321.985569 
L 159.763145 295.668022 
L 160.981818 279.798124 
L 162.809828 328.482458 
L 163.419165 343.454744 
L 164.637838 323.910358 
L 166.465848 367.605873 
L 167.075184 381.043908 
L 168.903194 348.047231 
L 170.121867 375.900252 
L 171.949877 343.485291 
L 173.777887 314.736259 
L 175.605897 289.238564 
L 176.82457 321.613589 
L 178.043243 303.748645 
L 178.65258 319.690885 
L 180.48059 293.632852 
L 182.3086 270.52182 
L 182.917936 263.414298 
L 183.527273 280.938277 
L 184.136609 273.422266 
L 184.745946 290.553776 
L 185.964619 275.07713 
L 186.573956 292.143743 
L 187.183292 284.188302 
L 189.011302 332.376134 
L 190.229975 313.683621 
L 190.839312 329.236254 
L 192.667322 302.0987 
L 193.276658 318.105643 
L 195.104668 292.226891 
L 195.714005 284.26819 
L 196.323342 300.974369 
L 197.542015 284.696448 
L 199.370025 332.826811 
L 200.588698 361.850183 
L 201.198034 351.161156 
L 201.807371 365.244082 
L 203.026044 344.024237 
L 204.854054 385.444998 
L 206.072727 410.422374 
L 207.900737 374.103176 
L 208.510074 387.286415 
L 209.11941 375.599889 
L 210.94742 413.449641 
L 212.77543 376.788078 
L 213.384767 365.513251 
L 213.994103 379.03335 
L 215.822113 346.264055 
L 217.040786 326.503651 
L 217.650123 341.553537 
L 218.868796 322.155342 
L 220.696806 366.049338 
L 222.524816 334.748454 
L 223.134152 349.475015 
L 224.352826 329.467709 
L 224.962162 344.401358 
L 225.571499 334.396599 
L 226.790172 363.299264 
L 228.618182 332.309396 
L 229.227518 347.131607 
L 229.836855 337.019779 
L 231.664865 379.2327 
L 232.883538 356.937222 
L 233.492875 370.793635 
L 234.102211 359.753885 
L 234.711548 373.499841 
L 235.320885 362.353965 
L 237.148894 401.701748 
L 237.758231 389.449915 
L 239.586241 425.733315 
L 240.195577 412.539068 
L 240.804914 424.215016 
L 241.414251 411.08031 
L 242.632924 434.086496 
L 243.851597 407.573117 
L 244.460934 419.443809 
L 245.07027 406.496209 
L 245.679607 418.409132 
L 246.288943 405.502107 
L 246.89828 417.454016 
L 248.72629 380.339583 
L 250.5543 347.422561 
L 251.772973 327.573076 
L 253.600983 370.85436 
L 254.819656 349.203122 
L 255.428993 363.362833 
L 256.647666 342.287644 
L 257.257002 356.718551 
L 258.475676 336.154264 
L 259.694349 364.921776 
L 261.522359 333.748412 
L 262.131695 348.51419 
L 262.741032 338.348144 
L 264.569042 380.410836 
L 266.397052 417.716499 
L 267.006388 429.189412 
L 268.834398 390.747779 
L 270.053071 415.317405 
L 271.881081 378.44461 
L 273.099754 356.20973 
L 274.927764 396.252388 
L 275.537101 384.214255 
L 276.146437 397.000981 
L 277.365111 373.339237 
L 279.19312 411.444655 
L 280.411794 434.422825 
L 281.02113 420.887812 
L 282.239803 443.139865 
L 282.84914 429.263008 
L 283.458477 440.283116 
L 284.067813 426.518288 
L 285.895823 458.609487 
L 287.114496 430.210449 
L 287.723833 441.193402 
L 288.942506 414.133548 
L 290.770516 447.625384 
L 292.598526 407.098758 
L 293.817199 430.4111 
L 295.035872 404.180335 
L 296.254545 427.717084 
L 296.863882 414.445042 
L 298.691892 447.901649 
L 299.910565 468.076514 
L 300.519902 453.221749 
L 301.129238 463.302298 
L 301.738575 448.634757 
L 302.957248 468.75325 
L 304.175921 439.574223 
L 304.785258 450.18997 
L 306.003931 422.438338 
L 306.613268 433.72608 
L 307.222604 420.218391 
L 308.441278 442.521918 
L 309.050614 428.669294 
L 310.878624 460.517227 
L 311.487961 470.31168 
L 312.097297 455.369261 
L 312.706634 465.365594 
L 314.534644 422.832661 
L 315.753317 444.935168 
L 316.362654 430.987907 
L 316.97199 441.940372 
L 317.581327 428.110553 
L 318.190663 439.175855 
L 319.409337 412.271138 
L 320.018673 423.957593 
L 320.62801 410.832982 
L 321.237346 422.575836 
L 322.45602 396.947552 
L 323.065356 409.234933 
L 323.674693 396.68768 
L 324.284029 408.985252 
L 324.893366 396.447791 
L 325.502703 408.754771 
L 326.721376 384.189237 
L 328.549386 421.067587 
L 329.158722 408.056309 
L 330.986732 442.235443 
L 332.205405 462.846002 
L 332.814742 448.196354 
L 333.424079 458.473978 
L 334.033415 443.995783 
L 334.642752 454.438135 
L 336.470762 413.14103 
L 337.080098 424.793372 
L 338.298771 398.994574 
L 340.126781 434.198533 
L 341.954791 395.1904 
L 343.782801 360.593844 
L 344.392138 349.954085 
L 345.001474 364.084347 
L 345.610811 353.307706 
L 346.829484 380.75623 
L 348.657494 347.792088 
L 349.876167 327.914188 
L 351.09484 357.315309 
L 351.704177 346.80412 
L 353.532187 387.910494 
L 354.141523 376.199494 
L 354.75086 389.300524 
L 355.360197 377.535013 
L 355.969533 390.58367 
L 357.188206 367.415376 
L 357.797543 380.860881 
L 358.40688 369.426337 
L 359.625553 395.635443 
L 361.453563 360.988555 
L 362.672236 340.095932 
L 363.281572 354.612788 
L 363.890909 344.207581 
L 364.500246 358.563196 
L 366.328256 328.108948 
L 367.546929 309.744553 
L 368.156265 325.45166 
L 369.984275 298.742119 
L 370.593612 290.527918 
L 371.202948 306.988618 
L 373.030958 282.367133 
L 374.858968 260.530183 
L 375.468305 278.167265 
L 376.077641 270.759921 
L 376.686978 287.995836 
L 378.514988 265.522316 
L 379.733661 251.970427 
L 380.342998 269.943185 
L 382.171007 249.511307 
L 383.999017 231.390146 
L 385.21769 220.462799 
L 385.827027 239.671151 
L 387.655037 222.66285 
L 388.87371 212.406576 
L 390.092383 250.689481 
L 391.920393 232.435077 
L 393.748403 216.245131 
L 394.35774 211.266106 
L 395.576413 249.636707 
L 397.404423 231.501364 
L 399.232432 215.417016 
L 399.841769 210.470466 
L 400.451106 230.070674 
L 401.060442 224.549471 
L 401.669779 243.597561 
L 403.497789 226.145208 
L 405.325799 210.666607 
L 407.153808 196.93854 
L 408.372482 188.660298 
L 408.981818 209.115806 
L 410.809828 195.563125 
L 412.637838 183.543167 
L 413.247174 179.846572 
L 413.856511 200.647717 
L 415.684521 188.052723 
L 417.512531 176.882145 
L 418.731204 170.146109 
L 419.949877 211.67857 
L 421.777887 197.836056 
L 422.387224 193.578955 
L 422.99656 213.841575 
L 423.605897 208.956808 
L 424.215233 228.616375 
L 426.043243 212.8583 
L 426.65258 208.012093 
L 427.871253 246.632905 
L 429.699263 228.837274 
L 430.3086 247.717215 
L 432.136609 229.798955 
L 432.745946 224.288408 
L 433.355283 243.346735 
L 435.183292 225.922749 
L 436.401966 215.41581 
L 437.011302 234.822082 
L 438.229975 223.630842 
L 438.839312 242.714956 
L 440.667322 225.362421 
L 441.276658 220.025855 
L 441.885995 239.251342 
L 443.714005 222.290519 
L 444.323342 241.427195 
L 444.932678 235.460639 
L 445.542015 254.08084 
L 447.370025 235.442893 
L 449.198034 218.912783 
L 450.416708 256.695403 
L 452.244717 237.761766 
L 452.854054 256.291727 
L 454.682064 237.403743 
L 456.510074 220.651872 
L 457.728747 258.300768 
L 459.556757 239.185575 
L 461.384767 222.23219 
L 462.60344 212.00903 
L 463.212776 231.548902 
L 463.822113 225.96973 
L 464.43145 244.962123 
L 465.650123 232.991179 
L 466.259459 251.708222 
L 467.478133 239.218547 
L 468.087469 257.691379 
L 469.915479 238.645103 
L 470.524816 232.787648 
L 471.134152 251.512672 
L 471.743489 245.150607 
L 472.352826 263.390809 
L 472.962162 256.562934 
L 474.180835 291.450503 
L 476.008845 268.586281 
L 477.836855 248.30786 
L 478.446192 242.071473 
L 479.664865 278.073341 
L 480.274201 270.66968 
L 480.883538 287.909135 
L 482.711548 265.445419 
L 484.539558 245.52221 
L 486.367568 227.852192 
L 488.195577 212.180542 
L 489.414251 202.730289 
L 490.632924 241.757238 
L 491.851597 230.032729 
L 492.460934 248.865789 
L 493.679607 236.594679 
L 494.288943 255.170408 
L 496.116953 236.409238 
L 497.335627 225.095956 
L 497.944963 244.122615 
L 499.772973 226.610882 
L 500.991646 263.801568 
L 502.819656 244.064268 
L 503.428993 237.994297 
L 504.647666 274.309673 
L 505.257002 267.053608 
L 507.085012 317.179266 
L 508.913022 291.405282 
L 509.522359 283.4788 
L 510.131695 300.215936 
L 511.959705 276.360399 
L 513.787715 255.202773 
L 515.615725 236.437944 
L 517.443735 219.795299 
L 519.271744 205.034833 
L 519.881081 224.848203 
L 521.099754 214.423889 
L 521.709091 233.869061 
L 522.927764 222.751101 
L 523.537101 241.869715 
L 525.365111 224.612771 
L 527.19312 209.30748 
L 529.02113 195.733121 
L 529.630467 215.911264 
L 530.84914 206.174142 
L 531.458477 225.942833 
L 532.067813 220.583507 
L 532.67715 239.787124 
L 534.50516 222.765708 
L 535.114496 217.530975 
L 535.723833 236.8543 
L 537.551843 220.164568 
L 538.770516 210.100395 
L 539.989189 248.560631 
L 541.207862 236.312985 
L 541.817199 254.899761 
L 542.426536 248.404868 
L 543.035872 266.517452 
L 544.863882 246.473003 
L 546.691892 228.695455 
L 547.301229 247.580958 
L 549.129238 229.678108 
L 549.738575 224.172299 
L 550.347912 243.23518 
L 552.175921 225.823811 
L 554.003931 210.381558 
L 555.831941 196.685728 
L 557.659951 184.53881 
L 559.487961 173.765634 
L 561.315971 164.210836 
L 561.925307 161.272372 
L 562.534644 182.801916 
L 563.14398 179.13439 
L 563.753317 199.963464 
L 565.581327 187.445855 
L 566.190663 207.948989 
L 568.018673 194.528267 
L 569.846683 182.625345 
L 571.674693 172.068569 
L 572.284029 168.821959 
L 573.502703 210.456238 
L 575.330713 196.751962 
L 575.940049 216.89015 
L 577.768059 202.458239 
L 579.596069 189.658487 
L 580.205405 185.722075 
L 580.814742 206.292808 
L 582.642752 193.05939 
L 583.861425 232.829968 
L 585.080098 221.791909 
L 585.689435 240.948138 
L 586.298771 235.000368 
L 586.908108 253.638619 
L 588.126781 241.000509 
L 588.736118 259.40346 
L 589.345455 252.731952 
L 591.173464 304.4773 
L 592.392138 287.930026 
L 593.001474 304.492604 
L 594.829484 280.153402 
L 595.438821 297.020946 
L 597.26683 273.526742 
L 599.09484 252.689585 
L 600.313514 240.12445 
L 601.532187 276.276031 
L 602.141523 268.942853 
L 602.75086 286.250026 
L 603.360197 278.525712 
L 604.57887 311.724485 
L 605.797543 294.61995 
L 606.40688 310.920177 
L 608.234889 285.854057 
L 609.453563 270.738789 
L 610.672236 304.536327 
L 611.281572 296.094902 
L 611.890909 312.337289 
L 612.500246 303.589944 
L 613.109582 319.538408 
L 614.937592 293.497619 
L 616.765602 270.401881 
L 618.593612 249.918127 
L 619.202948 243.618593 
L 620.421622 279.501497 
L 622.249631 257.988633 
L 622.858968 275.725383 
L 624.686978 254.639574 
L 625.905651 241.924498 
L 626.514988 260.291214 
L 627.733661 247.141563 
L 628.342998 265.303688 
L 629.561671 251.76861 
L 630.171007 269.749283 
L 631.999017 249.339334 
L 632.608354 243.062497 
L 633.21769 261.384586 
L 634.436364 248.150861 
L 635.0457 266.273407 
L 636.87371 246.256557 
L 637.483047 264.453389 
L 638.70172 250.983693 
L 639.311057 268.995147 
L 641.139066 248.670486 
L 642.967076 230.644417 
L 643.576413 249.453489 
L 645.404423 231.338868 
L 647.232432 215.272896 
L 647.841769 210.331999 
L 648.451106 229.937636 
L 649.669779 219.121978 
L 650.279115 238.382911 
L 651.497789 226.917866 
L 652.107125 245.873077 
L 653.935135 228.163378 
L 655.763145 212.456535 
L 657.591155 198.526038 
L 658.200491 194.241879 
L 658.809828 214.478502 
L 659.419165 209.568757 
L 660.028501 229.204326 
L 660.637838 223.717097 
L 661.247174 242.797829 
L 661.856511 236.777522 
L 662.465848 255.346081 
L 664.293857 236.565044 
L 666.121867 219.908025 
L 666.731204 214.785357 
L 667.340541 234.216353 
L 667.949877 228.532575 
L 668.559214 247.424465 
L 669.16855 241.222721 
L 669.777887 259.616958 
L 671.605897 240.352911 
L 672.82457 228.736386 
L 673.433907 247.620283 
L 674.043243 241.41086 
L 674.65258 259.797719 
L 675.261916 253.11075 
L 676.48059 288.263769 
L 678.3086 265.759947 
L 679.527273 252.189785 
L 680.136609 270.153941 
L 681.964619 249.698228 
L 683.792629 231.555928 
L 685.011302 268.366372 
L 686.839312 248.112822 
L 688.667322 230.149821 
L 689.276658 248.978289 
L 689.885995 242.715611 
L 690.495332 261.051304 
L 691.714005 247.843206 
L 692.323342 265.977816 
L 693.542015 252.390902 
L 694.151351 270.347171 
L 695.979361 249.869605 
L 696.588698 267.924748 
L 698.416708 247.721142 
L 699.026044 265.860539 
L 700.854054 245.890383 
L 702.682064 228.178726 
L 704.510074 212.470147 
L 706.338084 198.538111 
L 706.94742 218.606254 
L 708.77543 203.980262 
L 710.60344 191.008378 
L 712.43145 179.503534 
L 713.040786 200.318131 
L 714.868796 187.760411 
L 715.478133 183.898435 
L 716.087469 204.540683 
L 717.915479 191.505419 
L 719.743489 179.944362 
L 721.571499 169.690789 
L 723.399509 160.596831 
L 724.618182 155.11303 
L 725.227518 176.884117 
L 726.446192 170.14793 
L 727.664865 211.680251 
L 728.883538 202.268467 
L 729.492875 222.190321 
L 731.320885 207.158994 
L 731.930221 226.889063 
L 733.148894 216.30782 
L 734.367568 254.290746 
L 734.976904 247.819736 
L 735.586241 265.955266 
L 737.414251 245.974397 
L 739.24226 228.253239 
L 741.07027 212.536233 
L 742.89828 198.596722 
L 743.507617 194.309792 
L 744.72629 233.984223 
L 746.5543 217.619078 
L 747.163636 212.586173 
L 747.163636 212.586173 
" style="fill:none;stroke:#ff7f0e;stroke-linecap:square;stroke-width:1.5;"/>
   </g>
   <g id="patch_3">
    <path d="M 108 512.64 
L 108 69.12 
" style="fill:none;stroke:#000000;stroke-linecap:square;stroke-linejoin:miter;stroke-width:0.8;"/>
   </g>
   <g id="patch_4">
    <path d="M 777.6 512.64 
L 777.6 69.12 
" style="fill:none;stroke:#000000;stroke-linecap:square;stroke-linejoin:miter;stroke-width:0.8;"/>
   </g>
   <g id="patch_5">
    <path d="M 108 512.64 
L 777.6 512.64 
" style="fill:none;stroke:#000000;stroke-linecap:square;stroke-linejoin:miter;stroke-width:0.8;"/>
   </g>
   <g id="patch_6">
    <path d="M 108 69.12 
L 777.6 69.12 
" style="fill:none;stroke:#000000;stroke-linecap:square;stroke-linejoin:miter;stroke-width:0.8;"/>
   </g>
   <g id="text_16">
    <!-- Softmax Agent for Two Armed Bandit -->
    <g transform="translate(287.477438 63.12)scale(0.168 -0.168)">
     <defs>
      <path d="M 3425 4513 
L 3425 3897 
Q 3066 4069 2747 4153 
Q 2428 4238 2131 4238 
Q 1616 4238 1336 4038 
Q 1056 3838 1056 3469 
Q 1056 3159 1242 3001 
Q 1428 2844 1947 2747 
L 2328 2669 
Q 3034 2534 3370 2195 
Q 3706 1856 3706 1288 
Q 3706 609 3251 259 
Q 2797 -91 1919 -91 
Q 1588 -91 1214 -16 
Q 841 59 441 206 
L 441 856 
Q 825 641 1194 531 
Q 1563 422 1919 422 
Q 2459 422 2753 634 
Q 3047 847 3047 1241 
Q 3047 1584 2836 1778 
Q 2625 1972 2144 2069 
L 1759 2144 
Q 1053 2284 737 2584 
Q 422 2884 422 3419 
Q 422 4038 858 4394 
Q 1294 4750 2059 4750 
Q 2388 4750 2728 4690 
Q 3069 4631 3425 4513 
z
" id="DejaVuSans-53" transform="scale(0.015625)"/>
      <path d="M 2375 4863 
L 2375 4384 
L 1825 4384 
Q 1516 4384 1395 4259 
Q 1275 4134 1275 3809 
L 1275 3500 
L 2222 3500 
L 2222 3053 
L 1275 3053 
L 1275 0 
L 697 0 
L 697 3053 
L 147 3053 
L 147 3500 
L 697 3500 
L 697 3744 
Q 697 4328 969 4595 
Q 1241 4863 1831 4863 
L 2375 4863 
z
" id="DejaVuSans-66" transform="scale(0.015625)"/>
      <path d="M 1172 4494 
L 1172 3500 
L 2356 3500 
L 2356 3053 
L 1172 3053 
L 1172 1153 
Q 1172 725 1289 603 
Q 1406 481 1766 481 
L 2356 481 
L 2356 0 
L 1766 0 
Q 1100 0 847 248 
Q 594 497 594 1153 
L 594 3053 
L 172 3053 
L 172 3500 
L 594 3500 
L 594 4494 
L 1172 4494 
z
" id="DejaVuSans-74" transform="scale(0.015625)"/>
      <path d="M 3328 2828 
Q 3544 3216 3844 3400 
Q 4144 3584 4550 3584 
Q 5097 3584 5394 3201 
Q 5691 2819 5691 2113 
L 5691 0 
L 5113 0 
L 5113 2094 
Q 5113 2597 4934 2840 
Q 4756 3084 4391 3084 
Q 3944 3084 3684 2787 
Q 3425 2491 3425 1978 
L 3425 0 
L 2847 0 
L 2847 2094 
Q 2847 2600 2669 2842 
Q 2491 3084 2119 3084 
Q 1678 3084 1418 2786 
Q 1159 2488 1159 1978 
L 1159 0 
L 581 0 
L 581 3500 
L 1159 3500 
L 1159 2956 
Q 1356 3278 1631 3431 
Q 1906 3584 2284 3584 
Q 2666 3584 2933 3390 
Q 3200 3197 3328 2828 
z
" id="DejaVuSans-6d" transform="scale(0.015625)"/>
      <path d="M 3513 3500 
L 2247 1797 
L 3578 0 
L 2900 0 
L 1881 1375 
L 863 0 
L 184 0 
L 1544 1831 
L 300 3500 
L 978 3500 
L 1906 2253 
L 2834 3500 
L 3513 3500 
z
" id="DejaVuSans-78" transform="scale(0.015625)"/>
      <path id="DejaVuSans-20" transform="scale(0.015625)"/>
      <path d="M 2188 4044 
L 1331 1722 
L 3047 1722 
L 2188 4044 
z
M 1831 4666 
L 2547 4666 
L 4325 0 
L 3669 0 
L 3244 1197 
L 1141 1197 
L 716 0 
L 50 0 
L 1831 4666 
z
" id="DejaVuSans-41" transform="scale(0.015625)"/>
      <path d="M 2906 1791 
Q 2906 2416 2648 2759 
Q 2391 3103 1925 3103 
Q 1463 3103 1205 2759 
Q 947 2416 947 1791 
Q 947 1169 1205 825 
Q 1463 481 1925 481 
Q 2391 481 2648 825 
Q 2906 1169 2906 1791 
z
M 3481 434 
Q 3481 -459 3084 -895 
Q 2688 -1331 1869 -1331 
Q 1566 -1331 1297 -1286 
Q 1028 -1241 775 -1147 
L 775 -588 
Q 1028 -725 1275 -790 
Q 1522 -856 1778 -856 
Q 2344 -856 2625 -561 
Q 2906 -266 2906 331 
L 2906 616 
Q 2728 306 2450 153 
Q 2172 0 1784 0 
Q 1141 0 747 490 
Q 353 981 353 1791 
Q 353 2603 747 3093 
Q 1141 3584 1784 3584 
Q 2172 3584 2450 3431 
Q 2728 3278 2906 2969 
L 2906 3500 
L 3481 3500 
L 3481 434 
z
" id="DejaVuSans-67" transform="scale(0.015625)"/>
      <path d="M 3513 2113 
L 3513 0 
L 2938 0 
L 2938 2094 
Q 2938 2591 2744 2837 
Q 2550 3084 2163 3084 
Q 1697 3084 1428 2787 
Q 1159 2491 1159 1978 
L 1159 0 
L 581 0 
L 581 3500 
L 1159 3500 
L 1159 2956 
Q 1366 3272 1645 3428 
Q 1925 3584 2291 3584 
Q 2894 3584 3203 3211 
Q 3513 2838 3513 2113 
z
" id="DejaVuSans-6e" transform="scale(0.015625)"/>
      <path d="M -19 4666 
L 3928 4666 
L 3928 4134 
L 2272 4134 
L 2272 0 
L 1638 0 
L 1638 4134 
L -19 4134 
L -19 4666 
z
" id="DejaVuSans-54" transform="scale(0.015625)"/>
      <path d="M 1259 2228 
L 1259 519 
L 2272 519 
Q 2781 519 3026 730 
Q 3272 941 3272 1375 
Q 3272 1813 3026 2020 
Q 2781 2228 2272 2228 
L 1259 2228 
z
M 1259 4147 
L 1259 2741 
L 2194 2741 
Q 2656 2741 2882 2914 
Q 3109 3088 3109 3444 
Q 3109 3797 2882 3972 
Q 2656 4147 2194 4147 
L 1259 4147 
z
M 628 4666 
L 2241 4666 
Q 2963 4666 3353 4366 
Q 3744 4066 3744 3513 
Q 3744 3084 3544 2831 
Q 3344 2578 2956 2516 
Q 3422 2416 3680 2098 
Q 3938 1781 3938 1306 
Q 3938 681 3513 340 
Q 3088 0 2303 0 
L 628 0 
L 628 4666 
z
" id="DejaVuSans-42" transform="scale(0.015625)"/>
     </defs>
     <use xlink:href="#DejaVuSans-53"/>
     <use x="63.476562" xlink:href="#DejaVuSans-6f"/>
     <use x="124.658203" xlink:href="#DejaVuSans-66"/>
     <use x="158.113281" xlink:href="#DejaVuSans-74"/>
     <use x="197.322266" xlink:href="#DejaVuSans-6d"/>
     <use x="294.734375" xlink:href="#DejaVuSans-61"/>
     <use x="356.013672" xlink:href="#DejaVuSans-78"/>
     <use x="415.193359" xlink:href="#DejaVuSans-20"/>
     <use x="446.980469" xlink:href="#DejaVuSans-41"/>
     <use x="515.388672" xlink:href="#DejaVuSans-67"/>
     <use x="578.865234" xlink:href="#DejaVuSans-65"/>
     <use x="640.388672" xlink:href="#DejaVuSans-6e"/>
     <use x="703.767578" xlink:href="#DejaVuSans-74"/>
     <use x="742.976562" xlink:href="#DejaVuSans-20"/>
     <use x="774.763672" xlink:href="#DejaVuSans-66"/>
     <use x="809.96875" xlink:href="#DejaVuSans-6f"/>
     <use x="871.150391" xlink:href="#DejaVuSans-72"/>
     <use x="912.263672" xlink:href="#DejaVuSans-20"/>
     <use x="944.050781" xlink:href="#DejaVuSans-54"/>
     <use x="988.634766" xlink:href="#DejaVuSans-77"/>
     <use x="1070.421875" xlink:href="#DejaVuSans-6f"/>
     <use x="1131.603516" xlink:href="#DejaVuSans-20"/>
     <use x="1163.390625" xlink:href="#DejaVuSans-41"/>
     <use x="1231.798828" xlink:href="#DejaVuSans-72"/>
     <use x="1271.162109" xlink:href="#DejaVuSans-6d"/>
     <use x="1368.574219" xlink:href="#DejaVuSans-65"/>
     <use x="1430.097656" xlink:href="#DejaVuSans-64"/>
     <use x="1493.574219" xlink:href="#DejaVuSans-20"/>
     <use x="1525.361328" xlink:href="#DejaVuSans-42"/>
     <use x="1593.964844" xlink:href="#DejaVuSans-61"/>
     <use x="1655.244141" xlink:href="#DejaVuSans-6e"/>
     <use x="1718.623047" xlink:href="#DejaVuSans-64"/>
     <use x="1782.099609" xlink:href="#DejaVuSans-69"/>
     <use x="1809.882812" xlink:href="#DejaVuSans-74"/>
    </g>
   </g>
   <g id="legend_1">
    <g id="patch_7">
     <path d="M 597.142187 121.41875 
L 767.8 121.41875 
Q 770.6 121.41875 770.6 118.61875 
L 770.6 78.92 
Q 770.6 76.12 767.8 76.12 
L 597.142187 76.12 
Q 594.342188 76.12 594.342188 78.92 
L 594.342188 118.61875 
Q 594.342188 121.41875 597.142187 121.41875 
z
" style="fill:#ffffff;opacity:0.8;stroke:#cccccc;stroke-linejoin:miter;"/>
    </g>
    <g id="line2d_16">
     <path d="M 599.942188 87.457813 
L 627.942188 87.457813 
" style="fill:none;stroke:#1f77b4;stroke-linecap:square;stroke-width:1.5;"/>
    </g>
    <g id="line2d_17"/>
    <g id="text_17">
     <!-- Decay type = lin -->
     <g transform="translate(639.142188 92.357813)scale(0.14 -0.14)">
      <defs>
       <path d="M 1259 4147 
L 1259 519 
L 2022 519 
Q 2988 519 3436 956 
Q 3884 1394 3884 2338 
Q 3884 3275 3436 3711 
Q 2988 4147 2022 4147 
L 1259 4147 
z
M 628 4666 
L 1925 4666 
Q 3281 4666 3915 4102 
Q 4550 3538 4550 2338 
Q 4550 1131 3912 565 
Q 3275 0 1925 0 
L 628 0 
L 628 4666 
z
" id="DejaVuSans-44" transform="scale(0.015625)"/>
       <path d="M 3122 3366 
L 3122 2828 
Q 2878 2963 2633 3030 
Q 2388 3097 2138 3097 
Q 1578 3097 1268 2742 
Q 959 2388 959 1747 
Q 959 1106 1268 751 
Q 1578 397 2138 397 
Q 2388 397 2633 464 
Q 2878 531 3122 666 
L 3122 134 
Q 2881 22 2623 -34 
Q 2366 -91 2075 -91 
Q 1284 -91 818 406 
Q 353 903 353 1747 
Q 353 2603 823 3093 
Q 1294 3584 2113 3584 
Q 2378 3584 2631 3529 
Q 2884 3475 3122 3366 
z
" id="DejaVuSans-63" transform="scale(0.015625)"/>
       <path d="M 2059 -325 
Q 1816 -950 1584 -1140 
Q 1353 -1331 966 -1331 
L 506 -1331 
L 506 -850 
L 844 -850 
Q 1081 -850 1212 -737 
Q 1344 -625 1503 -206 
L 1606 56 
L 191 3500 
L 800 3500 
L 1894 763 
L 2988 3500 
L 3597 3500 
L 2059 -325 
z
" id="DejaVuSans-79" transform="scale(0.015625)"/>
       <path d="M 678 2906 
L 4684 2906 
L 4684 2381 
L 678 2381 
L 678 2906 
z
M 678 1631 
L 4684 1631 
L 4684 1100 
L 678 1100 
L 678 1631 
z
" id="DejaVuSans-3d" transform="scale(0.015625)"/>
       <path d="M 603 4863 
L 1178 4863 
L 1178 0 
L 603 0 
L 603 4863 
z
" id="DejaVuSans-6c" transform="scale(0.015625)"/>
      </defs>
      <use xlink:href="#DejaVuSans-44"/>
      <use x="77.001953" xlink:href="#DejaVuSans-65"/>
      <use x="138.525391" xlink:href="#DejaVuSans-63"/>
      <use x="193.505859" xlink:href="#DejaVuSans-61"/>
      <use x="254.785156" xlink:href="#DejaVuSans-79"/>
      <use x="313.964844" xlink:href="#DejaVuSans-20"/>
      <use x="345.751953" xlink:href="#DejaVuSans-74"/>
      <use x="384.960938" xlink:href="#DejaVuSans-79"/>
      <use x="444.140625" xlink:href="#DejaVuSans-70"/>
      <use x="507.617188" xlink:href="#DejaVuSans-65"/>
      <use x="569.140625" xlink:href="#DejaVuSans-20"/>
      <use x="600.927734" xlink:href="#DejaVuSans-3d"/>
      <use x="684.716797" xlink:href="#DejaVuSans-20"/>
      <use x="716.503906" xlink:href="#DejaVuSans-6c"/>
      <use x="744.287109" xlink:href="#DejaVuSans-69"/>
      <use x="772.070312" xlink:href="#DejaVuSans-6e"/>
     </g>
    </g>
    <g id="line2d_18">
     <path d="M 599.942188 108.007188 
L 627.942188 108.007188 
" style="fill:none;stroke:#ff7f0e;stroke-linecap:square;stroke-width:1.5;"/>
    </g>
    <g id="line2d_19"/>
    <g id="text_18">
     <!-- Decay type = exp -->
     <g transform="translate(639.142188 112.907188)scale(0.14 -0.14)">
      <use xlink:href="#DejaVuSans-44"/>
      <use x="77.001953" xlink:href="#DejaVuSans-65"/>
      <use x="138.525391" xlink:href="#DejaVuSans-63"/>
      <use x="193.505859" xlink:href="#DejaVuSans-61"/>
      <use x="254.785156" xlink:href="#DejaVuSans-79"/>
      <use x="313.964844" xlink:href="#DejaVuSans-20"/>
      <use x="345.751953" xlink:href="#DejaVuSans-74"/>
      <use x="384.960938" xlink:href="#DejaVuSans-79"/>
      <use x="444.140625" xlink:href="#DejaVuSans-70"/>
      <use x="507.617188" xlink:href="#DejaVuSans-65"/>
      <use x="569.140625" xlink:href="#DejaVuSans-20"/>
      <use x="600.927734" xlink:href="#DejaVuSans-3d"/>
      <use x="684.716797" xlink:href="#DejaVuSans-20"/>
      <use x="716.503906" xlink:href="#DejaVuSans-65"/>
      <use x="776.277344" xlink:href="#DejaVuSans-78"/>
      <use x="835.457031" xlink:href="#DejaVuSans-70"/>
     </g>
    </g>
   </g>
  </g>
 </g>
 <defs>
  <clipPath id="p33ae5bbc43">
   <rect height="443.52" width="669.6" x="108" y="69.12"/>
  </clipPath>
 </defs>
</svg>
