<?xml version="1.0" encoding="utf-8" standalone="no"?>
<!DOCTYPE svg PUBLIC "-//W3C//DTD SVG 1.1//EN"
  "http://www.w3.org/Graphics/SVG/1.1/DTD/svg11.dtd">
<svg height="576pt" version="1.1" viewBox="0 0 864 576" width="864pt" xmlns="http://www.w3.org/2000/svg" xmlns:xlink="http://www.w3.org/1999/xlink">
 <metadata>
  <rdf:RDF xmlns:cc="http://creativecommons.org/ns#" xmlns:dc="http://purl.org/dc/elements/1.1/" xmlns:rdf="http://www.w3.org/1999/02/22-rdf-syntax-ns#">
   <cc:Work>
    <dc:type rdf:resource="http://purl.org/dc/dcmitype/StillImage"/>
    <dc:date>2021-09-11T13:32:33.450909</dc:date>
    <dc:format>image/svg+xml</dc:format>
    <dc:creator>
     <cc:Agent>
      <dc:title>Matplotlib v3.4.3, https://matplotlib.org/</dc:title>
     </cc:Agent>
    </dc:creator>
   </cc:Work>
  </rdf:RDF>
 </metadata>
 <defs>
  <style type="text/css">*{stroke-linecap:butt;stroke-linejoin:round;}</style>
 </defs>
 <g id="figure_1">
  <g id="patch_1">
   <path d="M 0 576 
L 864 576 
L 864 0 
L 0 0 
z
" style="fill:#ffffff;"/>
  </g>
  <g id="axes_1">
   <g id="patch_2">
    <path d="M 108 512.64 
L 777.6 512.64 
L 777.6 69.12 
L 108 69.12 
z
" style="fill:#ffffff;"/>
   </g>
   <g id="matplotlib.axis_1">
    <g id="xtick_1">
     <g id="line2d_1">
      <defs>
       <path d="M 0 0 
L 0 3.5 
" id="m9dfdfcf62a" style="stroke:#000000;stroke-width:0.8;"/>
      </defs>
      <g>
       <use style="stroke:#000000;stroke-width:0.8;" x="138.436364" xlink:href="#m9dfdfcf62a" y="512.64"/>
      </g>
     </g>
     <g id="text_1">
      <!-- 0 -->
      <g transform="translate(133.982614 530.277812)scale(0.14 -0.14)">
       <defs>
        <path d="M 2034 4250 
Q 1547 4250 1301 3770 
Q 1056 3291 1056 2328 
Q 1056 1369 1301 889 
Q 1547 409 2034 409 
Q 2525 409 2770 889 
Q 3016 1369 3016 2328 
Q 3016 3291 2770 3770 
Q 2525 4250 2034 4250 
z
M 2034 4750 
Q 2819 4750 3233 4129 
Q 3647 3509 3647 2328 
Q 3647 1150 3233 529 
Q 2819 -91 2034 -91 
Q 1250 -91 836 529 
Q 422 1150 422 2328 
Q 422 3509 836 4129 
Q 1250 4750 2034 4750 
z
" id="DejaVuSans-30" transform="scale(0.015625)"/>
       </defs>
       <use xlink:href="#DejaVuSans-30"/>
      </g>
     </g>
    </g>
    <g id="xtick_2">
     <g id="line2d_2">
      <g>
       <use style="stroke:#000000;stroke-width:0.8;" x="260.303686" xlink:href="#m9dfdfcf62a" y="512.64"/>
      </g>
     </g>
     <g id="text_2">
      <!-- 200 -->
      <g transform="translate(246.942436 530.277812)scale(0.14 -0.14)">
       <defs>
        <path d="M 1228 531 
L 3431 531 
L 3431 0 
L 469 0 
L 469 531 
Q 828 903 1448 1529 
Q 2069 2156 2228 2338 
Q 2531 2678 2651 2914 
Q 2772 3150 2772 3378 
Q 2772 3750 2511 3984 
Q 2250 4219 1831 4219 
Q 1534 4219 1204 4116 
Q 875 4013 500 3803 
L 500 4441 
Q 881 4594 1212 4672 
Q 1544 4750 1819 4750 
Q 2544 4750 2975 4387 
Q 3406 4025 3406 3419 
Q 3406 3131 3298 2873 
Q 3191 2616 2906 2266 
Q 2828 2175 2409 1742 
Q 1991 1309 1228 531 
z
" id="DejaVuSans-32" transform="scale(0.015625)"/>
       </defs>
       <use xlink:href="#DejaVuSans-32"/>
       <use x="63.623047" xlink:href="#DejaVuSans-30"/>
       <use x="127.246094" xlink:href="#DejaVuSans-30"/>
      </g>
     </g>
    </g>
    <g id="xtick_3">
     <g id="line2d_3">
      <g>
       <use style="stroke:#000000;stroke-width:0.8;" x="382.171007" xlink:href="#m9dfdfcf62a" y="512.64"/>
      </g>
     </g>
     <g id="text_3">
      <!-- 400 -->
      <g transform="translate(368.809757 530.277812)scale(0.14 -0.14)">
       <defs>
        <path d="M 2419 4116 
L 825 1625 
L 2419 1625 
L 2419 4116 
z
M 2253 4666 
L 3047 4666 
L 3047 1625 
L 3713 1625 
L 3713 1100 
L 3047 1100 
L 3047 0 
L 2419 0 
L 2419 1100 
L 313 1100 
L 313 1709 
L 2253 4666 
z
" id="DejaVuSans-34" transform="scale(0.015625)"/>
       </defs>
       <use xlink:href="#DejaVuSans-34"/>
       <use x="63.623047" xlink:href="#DejaVuSans-30"/>
       <use x="127.246094" xlink:href="#DejaVuSans-30"/>
      </g>
     </g>
    </g>
    <g id="xtick_4">
     <g id="line2d_4">
      <g>
       <use style="stroke:#000000;stroke-width:0.8;" x="504.038329" xlink:href="#m9dfdfcf62a" y="512.64"/>
      </g>
     </g>
     <g id="text_4">
      <!-- 600 -->
      <g transform="translate(490.677079 530.277812)scale(0.14 -0.14)">
       <defs>
        <path d="M 2113 2584 
Q 1688 2584 1439 2293 
Q 1191 2003 1191 1497 
Q 1191 994 1439 701 
Q 1688 409 2113 409 
Q 2538 409 2786 701 
Q 3034 994 3034 1497 
Q 3034 2003 2786 2293 
Q 2538 2584 2113 2584 
z
M 3366 4563 
L 3366 3988 
Q 3128 4100 2886 4159 
Q 2644 4219 2406 4219 
Q 1781 4219 1451 3797 
Q 1122 3375 1075 2522 
Q 1259 2794 1537 2939 
Q 1816 3084 2150 3084 
Q 2853 3084 3261 2657 
Q 3669 2231 3669 1497 
Q 3669 778 3244 343 
Q 2819 -91 2113 -91 
Q 1303 -91 875 529 
Q 447 1150 447 2328 
Q 447 3434 972 4092 
Q 1497 4750 2381 4750 
Q 2619 4750 2861 4703 
Q 3103 4656 3366 4563 
z
" id="DejaVuSans-36" transform="scale(0.015625)"/>
       </defs>
       <use xlink:href="#DejaVuSans-36"/>
       <use x="63.623047" xlink:href="#DejaVuSans-30"/>
       <use x="127.246094" xlink:href="#DejaVuSans-30"/>
      </g>
     </g>
    </g>
    <g id="xtick_5">
     <g id="line2d_5">
      <g>
       <use style="stroke:#000000;stroke-width:0.8;" x="625.905651" xlink:href="#m9dfdfcf62a" y="512.64"/>
      </g>
     </g>
     <g id="text_5">
      <!-- 800 -->
      <g transform="translate(612.544401 530.277812)scale(0.14 -0.14)">
       <defs>
        <path d="M 2034 2216 
Q 1584 2216 1326 1975 
Q 1069 1734 1069 1313 
Q 1069 891 1326 650 
Q 1584 409 2034 409 
Q 2484 409 2743 651 
Q 3003 894 3003 1313 
Q 3003 1734 2745 1975 
Q 2488 2216 2034 2216 
z
M 1403 2484 
Q 997 2584 770 2862 
Q 544 3141 544 3541 
Q 544 4100 942 4425 
Q 1341 4750 2034 4750 
Q 2731 4750 3128 4425 
Q 3525 4100 3525 3541 
Q 3525 3141 3298 2862 
Q 3072 2584 2669 2484 
Q 3125 2378 3379 2068 
Q 3634 1759 3634 1313 
Q 3634 634 3220 271 
Q 2806 -91 2034 -91 
Q 1263 -91 848 271 
Q 434 634 434 1313 
Q 434 1759 690 2068 
Q 947 2378 1403 2484 
z
M 1172 3481 
Q 1172 3119 1398 2916 
Q 1625 2713 2034 2713 
Q 2441 2713 2670 2916 
Q 2900 3119 2900 3481 
Q 2900 3844 2670 4047 
Q 2441 4250 2034 4250 
Q 1625 4250 1398 4047 
Q 1172 3844 1172 3481 
z
" id="DejaVuSans-38" transform="scale(0.015625)"/>
       </defs>
       <use xlink:href="#DejaVuSans-38"/>
       <use x="63.623047" xlink:href="#DejaVuSans-30"/>
       <use x="127.246094" xlink:href="#DejaVuSans-30"/>
      </g>
     </g>
    </g>
    <g id="xtick_6">
     <g id="line2d_6">
      <g>
       <use style="stroke:#000000;stroke-width:0.8;" x="747.772973" xlink:href="#m9dfdfcf62a" y="512.64"/>
      </g>
     </g>
     <g id="text_6">
      <!-- 1000 -->
      <g transform="translate(729.957973 530.277812)scale(0.14 -0.14)">
       <defs>
        <path d="M 794 531 
L 1825 531 
L 1825 4091 
L 703 3866 
L 703 4441 
L 1819 4666 
L 2450 4666 
L 2450 531 
L 3481 531 
L 3481 0 
L 794 0 
L 794 531 
z
" id="DejaVuSans-31" transform="scale(0.015625)"/>
       </defs>
       <use xlink:href="#DejaVuSans-31"/>
       <use x="63.623047" xlink:href="#DejaVuSans-30"/>
       <use x="127.246094" xlink:href="#DejaVuSans-30"/>
       <use x="190.869141" xlink:href="#DejaVuSans-30"/>
      </g>
     </g>
    </g>
    <g id="text_7">
     <!-- Episodes -->
     <g transform="translate(411.660937 547.827188)scale(0.14 -0.14)">
      <defs>
       <path d="M 628 4666 
L 3578 4666 
L 3578 4134 
L 1259 4134 
L 1259 2753 
L 3481 2753 
L 3481 2222 
L 1259 2222 
L 1259 531 
L 3634 531 
L 3634 0 
L 628 0 
L 628 4666 
z
" id="DejaVuSans-45" transform="scale(0.015625)"/>
       <path d="M 1159 525 
L 1159 -1331 
L 581 -1331 
L 581 3500 
L 1159 3500 
L 1159 2969 
Q 1341 3281 1617 3432 
Q 1894 3584 2278 3584 
Q 2916 3584 3314 3078 
Q 3713 2572 3713 1747 
Q 3713 922 3314 415 
Q 2916 -91 2278 -91 
Q 1894 -91 1617 61 
Q 1341 213 1159 525 
z
M 3116 1747 
Q 3116 2381 2855 2742 
Q 2594 3103 2138 3103 
Q 1681 3103 1420 2742 
Q 1159 2381 1159 1747 
Q 1159 1113 1420 752 
Q 1681 391 2138 391 
Q 2594 391 2855 752 
Q 3116 1113 3116 1747 
z
" id="DejaVuSans-70" transform="scale(0.015625)"/>
       <path d="M 603 3500 
L 1178 3500 
L 1178 0 
L 603 0 
L 603 3500 
z
M 603 4863 
L 1178 4863 
L 1178 4134 
L 603 4134 
L 603 4863 
z
" id="DejaVuSans-69" transform="scale(0.015625)"/>
       <path d="M 2834 3397 
L 2834 2853 
Q 2591 2978 2328 3040 
Q 2066 3103 1784 3103 
Q 1356 3103 1142 2972 
Q 928 2841 928 2578 
Q 928 2378 1081 2264 
Q 1234 2150 1697 2047 
L 1894 2003 
Q 2506 1872 2764 1633 
Q 3022 1394 3022 966 
Q 3022 478 2636 193 
Q 2250 -91 1575 -91 
Q 1294 -91 989 -36 
Q 684 19 347 128 
L 347 722 
Q 666 556 975 473 
Q 1284 391 1588 391 
Q 1994 391 2212 530 
Q 2431 669 2431 922 
Q 2431 1156 2273 1281 
Q 2116 1406 1581 1522 
L 1381 1569 
Q 847 1681 609 1914 
Q 372 2147 372 2553 
Q 372 3047 722 3315 
Q 1072 3584 1716 3584 
Q 2034 3584 2315 3537 
Q 2597 3491 2834 3397 
z
" id="DejaVuSans-73" transform="scale(0.015625)"/>
       <path d="M 1959 3097 
Q 1497 3097 1228 2736 
Q 959 2375 959 1747 
Q 959 1119 1226 758 
Q 1494 397 1959 397 
Q 2419 397 2687 759 
Q 2956 1122 2956 1747 
Q 2956 2369 2687 2733 
Q 2419 3097 1959 3097 
z
M 1959 3584 
Q 2709 3584 3137 3096 
Q 3566 2609 3566 1747 
Q 3566 888 3137 398 
Q 2709 -91 1959 -91 
Q 1206 -91 779 398 
Q 353 888 353 1747 
Q 353 2609 779 3096 
Q 1206 3584 1959 3584 
z
" id="DejaVuSans-6f" transform="scale(0.015625)"/>
       <path d="M 2906 2969 
L 2906 4863 
L 3481 4863 
L 3481 0 
L 2906 0 
L 2906 525 
Q 2725 213 2448 61 
Q 2172 -91 1784 -91 
Q 1150 -91 751 415 
Q 353 922 353 1747 
Q 353 2572 751 3078 
Q 1150 3584 1784 3584 
Q 2172 3584 2448 3432 
Q 2725 3281 2906 2969 
z
M 947 1747 
Q 947 1113 1208 752 
Q 1469 391 1925 391 
Q 2381 391 2643 752 
Q 2906 1113 2906 1747 
Q 2906 2381 2643 2742 
Q 2381 3103 1925 3103 
Q 1469 3103 1208 2742 
Q 947 2381 947 1747 
z
" id="DejaVuSans-64" transform="scale(0.015625)"/>
       <path d="M 3597 1894 
L 3597 1613 
L 953 1613 
Q 991 1019 1311 708 
Q 1631 397 2203 397 
Q 2534 397 2845 478 
Q 3156 559 3463 722 
L 3463 178 
Q 3153 47 2828 -22 
Q 2503 -91 2169 -91 
Q 1331 -91 842 396 
Q 353 884 353 1716 
Q 353 2575 817 3079 
Q 1281 3584 2069 3584 
Q 2775 3584 3186 3129 
Q 3597 2675 3597 1894 
z
M 3022 2063 
Q 3016 2534 2758 2815 
Q 2500 3097 2075 3097 
Q 1594 3097 1305 2825 
Q 1016 2553 972 2059 
L 3022 2063 
z
" id="DejaVuSans-65" transform="scale(0.015625)"/>
      </defs>
      <use xlink:href="#DejaVuSans-45"/>
      <use x="63.183594" xlink:href="#DejaVuSans-70"/>
      <use x="126.660156" xlink:href="#DejaVuSans-69"/>
      <use x="154.443359" xlink:href="#DejaVuSans-73"/>
      <use x="206.542969" xlink:href="#DejaVuSans-6f"/>
      <use x="267.724609" xlink:href="#DejaVuSans-64"/>
      <use x="331.201172" xlink:href="#DejaVuSans-65"/>
      <use x="392.724609" xlink:href="#DejaVuSans-73"/>
     </g>
    </g>
   </g>
   <g id="matplotlib.axis_2">
    <g id="ytick_1">
     <g id="line2d_7">
      <defs>
       <path d="M 0 0 
L -3.5 0 
" id="mc49ae4b15f" style="stroke:#000000;stroke-width:0.8;"/>
      </defs>
      <g>
       <use style="stroke:#000000;stroke-width:0.8;" x="108" xlink:href="#mc49ae4b15f" y="492.48"/>
      </g>
     </g>
     <g id="text_8">
      <!-- 0.0 -->
      <g transform="translate(78.735625 497.798906)scale(0.14 -0.14)">
       <defs>
        <path d="M 684 794 
L 1344 794 
L 1344 0 
L 684 0 
L 684 794 
z
" id="DejaVuSans-2e" transform="scale(0.015625)"/>
       </defs>
       <use xlink:href="#DejaVuSans-30"/>
       <use x="63.623047" xlink:href="#DejaVuSans-2e"/>
       <use x="95.410156" xlink:href="#DejaVuSans-30"/>
      </g>
     </g>
    </g>
    <g id="ytick_2">
     <g id="line2d_8">
      <g>
       <use style="stroke:#000000;stroke-width:0.8;" x="108" xlink:href="#mc49ae4b15f" y="405.568541"/>
      </g>
     </g>
     <g id="text_9">
      <!-- 0.2 -->
      <g transform="translate(78.735625 410.887447)scale(0.14 -0.14)">
       <use xlink:href="#DejaVuSans-30"/>
       <use x="63.623047" xlink:href="#DejaVuSans-2e"/>
       <use x="95.410156" xlink:href="#DejaVuSans-32"/>
      </g>
     </g>
    </g>
    <g id="ytick_3">
     <g id="line2d_9">
      <g>
       <use style="stroke:#000000;stroke-width:0.8;" x="108" xlink:href="#mc49ae4b15f" y="318.657082"/>
      </g>
     </g>
     <g id="text_10">
      <!-- 0.4 -->
      <g transform="translate(78.735625 323.975988)scale(0.14 -0.14)">
       <use xlink:href="#DejaVuSans-30"/>
       <use x="63.623047" xlink:href="#DejaVuSans-2e"/>
       <use x="95.410156" xlink:href="#DejaVuSans-34"/>
      </g>
     </g>
    </g>
    <g id="ytick_4">
     <g id="line2d_10">
      <g>
       <use style="stroke:#000000;stroke-width:0.8;" x="108" xlink:href="#mc49ae4b15f" y="231.745623"/>
      </g>
     </g>
     <g id="text_11">
      <!-- 0.6 -->
      <g transform="translate(78.735625 237.064529)scale(0.14 -0.14)">
       <use xlink:href="#DejaVuSans-30"/>
       <use x="63.623047" xlink:href="#DejaVuSans-2e"/>
       <use x="95.410156" xlink:href="#DejaVuSans-36"/>
      </g>
     </g>
    </g>
    <g id="ytick_5">
     <g id="line2d_11">
      <g>
       <use style="stroke:#000000;stroke-width:0.8;" x="108" xlink:href="#mc49ae4b15f" y="144.834164"/>
      </g>
     </g>
     <g id="text_12">
      <!-- 0.8 -->
      <g transform="translate(78.735625 150.15307)scale(0.14 -0.14)">
       <use xlink:href="#DejaVuSans-30"/>
       <use x="63.623047" xlink:href="#DejaVuSans-2e"/>
       <use x="95.410156" xlink:href="#DejaVuSans-38"/>
      </g>
     </g>
    </g>
    <g id="text_13">
     <!-- Reward -->
     <g transform="translate(71.824062 316.949531)rotate(-90)scale(0.14 -0.14)">
      <defs>
       <path d="M 2841 2188 
Q 3044 2119 3236 1894 
Q 3428 1669 3622 1275 
L 4263 0 
L 3584 0 
L 2988 1197 
Q 2756 1666 2539 1819 
Q 2322 1972 1947 1972 
L 1259 1972 
L 1259 0 
L 628 0 
L 628 4666 
L 2053 4666 
Q 2853 4666 3247 4331 
Q 3641 3997 3641 3322 
Q 3641 2881 3436 2590 
Q 3231 2300 2841 2188 
z
M 1259 4147 
L 1259 2491 
L 2053 2491 
Q 2509 2491 2742 2702 
Q 2975 2913 2975 3322 
Q 2975 3731 2742 3939 
Q 2509 4147 2053 4147 
L 1259 4147 
z
" id="DejaVuSans-52" transform="scale(0.015625)"/>
       <path d="M 269 3500 
L 844 3500 
L 1563 769 
L 2278 3500 
L 2956 3500 
L 3675 769 
L 4391 3500 
L 4966 3500 
L 4050 0 
L 3372 0 
L 2619 2869 
L 1863 0 
L 1184 0 
L 269 3500 
z
" id="DejaVuSans-77" transform="scale(0.015625)"/>
       <path d="M 2194 1759 
Q 1497 1759 1228 1600 
Q 959 1441 959 1056 
Q 959 750 1161 570 
Q 1363 391 1709 391 
Q 2188 391 2477 730 
Q 2766 1069 2766 1631 
L 2766 1759 
L 2194 1759 
z
M 3341 1997 
L 3341 0 
L 2766 0 
L 2766 531 
Q 2569 213 2275 61 
Q 1981 -91 1556 -91 
Q 1019 -91 701 211 
Q 384 513 384 1019 
Q 384 1609 779 1909 
Q 1175 2209 1959 2209 
L 2766 2209 
L 2766 2266 
Q 2766 2663 2505 2880 
Q 2244 3097 1772 3097 
Q 1472 3097 1187 3025 
Q 903 2953 641 2809 
L 641 3341 
Q 956 3463 1253 3523 
Q 1550 3584 1831 3584 
Q 2591 3584 2966 3190 
Q 3341 2797 3341 1997 
z
" id="DejaVuSans-61" transform="scale(0.015625)"/>
       <path d="M 2631 2963 
Q 2534 3019 2420 3045 
Q 2306 3072 2169 3072 
Q 1681 3072 1420 2755 
Q 1159 2438 1159 1844 
L 1159 0 
L 581 0 
L 581 3500 
L 1159 3500 
L 1159 2956 
Q 1341 3275 1631 3429 
Q 1922 3584 2338 3584 
Q 2397 3584 2469 3576 
Q 2541 3569 2628 3553 
L 2631 2963 
z
" id="DejaVuSans-72" transform="scale(0.015625)"/>
      </defs>
      <use xlink:href="#DejaVuSans-52"/>
      <use x="64.982422" xlink:href="#DejaVuSans-65"/>
      <use x="126.505859" xlink:href="#DejaVuSans-77"/>
      <use x="208.292969" xlink:href="#DejaVuSans-61"/>
      <use x="269.572266" xlink:href="#DejaVuSans-72"/>
      <use x="308.935547" xlink:href="#DejaVuSans-64"/>
     </g>
    </g>
   </g>
   <g id="line2d_12">
    <path clip-path="url(#p232862ba02)" d="M 138.436364 492.48 
L 139.0457 475.438537 
L 140.264373 476.748915 
L 142.092383 429.382285 
L 142.70172 431.856706 
L 144.52973 389.567104 
L 145.139066 393.602904 
L 145.748403 380.438975 
L 147.576413 393.110115 
L 148.795086 367.336381 
L 149.404423 372.243974 
L 150.013759 359.91765 
L 150.623096 365.116173 
L 151.232432 353.069371 
L 151.841769 358.536454 
L 153.669779 324.538916 
L 154.279115 314.083378 
L 156.107125 334.258922 
L 156.716462 340.463671 
L 158.544472 308.510051 
L 160.372482 329.315904 
L 160.981818 318.673033 
L 162.809828 338.329516 
L 164.637838 355.762974 
L 166.465848 322.079099 
L 167.075184 328.761487 
L 167.684521 318.140358 
L 169.512531 337.857083 
L 170.731204 349.746581 
L 171.340541 338.302507 
L 171.949877 344.348684 
L 172.559214 333.116292 
L 174.387224 351.139333 
L 176.215233 317.978363 
L 176.82457 324.821564 
L 178.043243 304.298776 
L 178.65258 311.678432 
L 179.871253 292.166265 
L 181.699263 314.820498 
L 182.3086 304.746075 
L 183.527273 319.181594 
L 184.136609 308.936147 
L 184.745946 316.133945 
L 185.355283 306.008014 
L 185.964619 313.320641 
L 187.183292 293.682199 
L 187.792629 301.478192 
L 189.620639 273.933586 
L 190.839312 257.323753 
L 191.448649 266.545567 
L 193.276658 242.951623 
L 193.885995 252.73705 
L 195.714005 230.704764 
L 196.932678 217.418946 
L 198.760688 248.526634 
L 199.979361 233.87043 
L 200.588698 244.011982 
L 201.198034 236.714363 
L 201.807371 246.744388 
L 203.026044 232.225228 
L 203.635381 242.431297 
L 205.463391 221.564527 
L 206.682064 242.396167 
L 207.2914 235.161913 
L 207.900737 245.252819 
L 209.11941 230.84835 
L 210.338084 250.966124 
L 210.94742 243.395794 
L 212.77543 271.565663 
L 213.384767 280.22897 
L 213.994103 271.511077 
L 215.822113 296.501283 
L 217.040786 278.15614 
L 217.650123 286.560998 
L 218.259459 277.59479 
L 219.478133 294.118067 
L 221.306143 267.405846 
L 221.915479 259.190821 
L 223.743489 285.57437 
L 225.571499 308.974105 
L 227.399509 280.581759 
L 228.008845 288.891494 
L 229.836855 262.770366 
L 231.055528 280.433544 
L 232.274201 263.323906 
L 233.492875 280.944521 
L 234.102211 272.198568 
L 235.320885 289.136778 
L 235.930221 280.06956 
L 236.539558 288.399381 
L 237.758231 270.677222 
L 238.976904 287.732415 
L 240.804914 261.742371 
L 241.414251 270.790906 
L 242.632924 254.422724 
L 243.24226 263.758303 
L 244.460934 247.930883 
L 245.07027 257.521045 
L 246.288943 242.173229 
L 247.507617 261.420194 
L 248.116953 253.4399 
L 248.72629 262.814021 
L 249.944963 247.059211 
L 250.5543 256.683555 
L 251.163636 248.889012 
L 251.772973 258.4416 
L 252.991646 243.023 
L 254.819656 271.235029 
L 255.428993 262.86984 
L 256.038329 271.87416 
L 257.866339 247.677586 
L 259.085012 233.086669 
L 259.694349 243.258956 
L 260.303686 235.990868 
L 261.522359 255.713215 
L 262.131695 247.956725 
L 263.959705 275.610781 
L 264.569042 284.115456 
L 265.787715 266.722703 
L 266.397052 275.57593 
L 267.006388 267.04051 
L 267.615725 275.881274 
L 269.443735 251.231521 
L 271.271744 229.3695 
L 271.881081 222.646097 
L 272.490418 233.227818 
L 274.318428 213.401904 
L 274.927764 207.304681 
L 276.755774 239.556229 
L 277.365111 249.474808 
L 279.19312 227.811461 
L 279.802457 238.19062 
L 280.411794 231.12129 
L 282.239803 260.679328 
L 283.458477 245.088661 
L 285.286486 273.067077 
L 285.895823 264.630043 
L 286.50516 273.565336 
L 288.33317 249.1775 
L 290.161179 227.547777 
L 290.770516 220.895813 
L 291.379853 231.546173 
L 293.207862 211.910443 
L 295.035872 194.495391 
L 296.863882 179.049873 
L 297.473219 174.299788 
L 298.082555 186.777443 
L 298.691892 181.724316 
L 299.301229 193.910814 
L 301.129238 178.531407 
L 302.347912 202.672014 
L 302.957248 196.995571 
L 303.566585 208.583195 
L 305.394595 191.544434 
L 306.613268 181.269792 
L 307.222604 193.474114 
L 308.441278 183.051091 
L 309.050614 195.185558 
L 310.878624 179.661986 
L 311.487961 174.887897 
L 312.097297 187.342489 
L 313.315971 177.390948 
L 313.925307 189.747382 
L 315.14398 179.610921 
L 315.753317 191.880296 
L 317.581327 176.730529 
L 319.409337 163.294106 
L 321.237346 151.377258 
L 321.846683 147.712374 
L 322.45602 161.232673 
L 323.674693 153.288807 
L 324.284029 166.590423 
L 326.112039 154.300782 
L 327.940049 143.401023 
L 328.549386 140.048932 
L 329.158722 153.869759 
L 330.986732 143.018746 
L 332.814742 133.394915 
L 333.424079 147.476683 
L 334.033415 143.964762 
L 334.642752 157.632026 
L 335.861425 149.965027 
L 336.470762 163.396987 
L 338.298771 151.468504 
L 340.126781 140.889058 
L 341.954791 131.506082 
L 342.564128 128.620459 
L 343.782801 156.598894 
L 344.392138 152.729239 
L 345.001474 166.052798 
L 346.220147 157.738297 
L 346.829484 170.865422 
L 348.657494 158.092306 
L 350.485504 195.909467 
L 352.313514 180.304025 
L 354.141523 166.463462 
L 354.75086 162.206962 
L 355.360197 175.158846 
L 357.188206 161.90017 
L 357.797543 157.822622 
L 358.40688 170.946441 
L 359.625553 162.25565 
L 360.844226 187.647757 
L 362.062899 177.672743 
L 362.672236 190.018126 
L 364.500246 175.078958 
L 365.109582 187.526058 
L 366.937592 172.868728 
L 368.765602 209.014768 
L 369.984275 197.39677 
L 370.593612 208.968661 
L 372.421622 191.886306 
L 373.640295 181.585376 
L 374.249631 193.777322 
L 374.858968 188.44969 
L 375.468305 200.372447 
L 376.077641 194.786183 
L 376.686978 206.46045 
L 377.296314 200.63544 
L 378.514988 223.076391 
L 380.342998 204.39854 
L 382.171007 187.833037 
L 382.780344 182.738514 
L 383.999017 206.555622 
L 385.827027 189.746167 
L 386.436364 184.57662 
L 387.0457 196.651262 
L 387.655037 191.210926 
L 388.87371 214.376561 
L 390.70172 196.682606 
L 391.311057 191.241041 
L 391.920393 203.054334 
L 393.748403 186.640853 
L 394.35774 181.593082 
L 394.967076 193.784726 
L 396.795086 178.41958 
L 397.404423 173.694212 
L 398.623096 198.206768 
L 399.841769 187.419835 
L 400.451106 199.382978 
L 401.060442 193.835517 
L 402.279115 216.799337 
L 404.107125 198.831382 
L 405.935135 182.89549 
L 407.153808 206.700527 
L 408.981818 189.874684 
L 410.809828 174.951739 
L 412.637838 161.716486 
L 413.856511 187.150051 
L 415.684521 172.535245 
L 416.293857 185.082098 
L 418.121867 170.701165 
L 419.340541 162.029234 
L 419.949877 174.988087 
L 421.777887 161.748723 
L 422.387224 174.718577 
L 424.215233 161.509693 
L 425.433907 153.544527 
L 426.043243 166.836114 
L 427.871253 154.518687 
L 428.48059 150.73061 
L 429.089926 164.132547 
L 430.3086 155.9657 
L 430.917936 169.162339 
L 432.745946 156.581831 
L 433.355283 152.712845 
L 433.964619 166.037048 
L 434.573956 161.797269 
L 435.183292 174.76522 
L 435.792629 170.18316 
L 437.620639 206.632921 
L 439.448649 189.814724 
L 441.276658 174.89856 
L 443.104668 161.669321 
L 444.932678 149.936226 
L 445.542015 146.327853 
L 446.151351 159.902447 
L 447.979361 148.369175 
L 449.807371 138.140243 
L 451.635381 129.068141 
L 452.854054 123.597519 
L 453.463391 138.063499 
L 455.2914 129.000075 
L 455.900737 126.212727 
L 456.510074 140.57615 
L 458.338084 131.228561 
L 458.94742 145.395284 
L 460.77543 135.502681 
L 461.384767 132.460329 
L 462.60344 160.143503 
L 464.43145 148.582969 
L 466.259459 138.329859 
L 468.087469 129.236312 
L 469.306143 123.752759 
L 469.915479 138.21265 
L 471.134152 132.038875 
L 472.352826 159.754456 
L 474.180835 148.23792 
L 476.008845 138.023833 
L 477.836855 128.964896 
L 479.664865 120.930467 
L 481.492875 113.804683 
L 483.320885 107.48478 
L 484.539558 103.673778 
L 486.367568 147.645335 
L 486.976904 144.1268 
L 487.586241 157.78771 
L 489.414251 146.493601 
L 491.24226 136.476786 
L 493.07027 127.59281 
L 494.288943 122.235631 
L 494.89828 136.755018 
L 495.507617 133.663555 
L 496.116953 147.734788 
L 496.72629 144.212746 
L 497.335627 157.870285 
L 499.163636 146.566838 
L 500.991646 136.54174 
L 502.819656 127.650418 
L 503.428993 124.915997 
L 504.038329 139.330272 
L 505.866339 130.123584 
L 507.694349 121.958116 
L 509.522359 114.71611 
L 511.350369 108.293131 
L 513.178378 102.59655 
L 514.397052 99.161422 
L 515.615725 129.405065 
L 516.225061 126.601835 
L 516.834398 140.949998 
L 518.662408 131.56013 
L 519.271744 128.672388 
L 519.881081 142.939353 
L 521.709091 133.324501 
L 523.537101 124.797028 
L 524.146437 122.174506 
L 525.365111 150.648592 
L 527.19312 140.161873 
L 527.802457 153.97827 
L 529.630467 143.114985 
L 531.458477 133.48027 
L 532.067813 147.558691 
L 532.67715 144.043554 
L 533.286486 157.707729 
L 535.114496 146.422665 
L 536.942506 136.413872 
L 537.551843 150.37725 
L 538.770516 143.268096 
L 539.379853 156.962681 
L 541.207862 145.761878 
L 543.035872 135.827815 
L 543.645209 132.772713 
L 544.254545 146.878881 
L 546.082555 136.818493 
L 547.910565 127.895872 
L 549.738575 119.982343 
L 551.566585 112.963786 
L 553.394595 106.738983 
L 554.003931 121.866082 
L 554.613268 119.358498 
L 555.222604 133.990714 
L 556.441278 128.141578 
L 557.050614 142.42936 
L 558.269287 135.931347 
L 558.878624 149.913647 
L 559.487961 146.306159 
L 560.706634 172.924678 
L 562.534644 159.918673 
L 564.362654 148.383566 
L 564.97199 144.836081 
L 565.581327 158.469176 
L 566.8 150.737806 
L 567.409337 164.13946 
L 568.018673 159.974097 
L 569.237346 185.541641 
L 571.065356 171.108736 
L 572.893366 158.308102 
L 574.721376 146.95514 
L 576.549386 136.886128 
L 577.768059 130.814354 
L 578.377396 144.99732 
L 580.205405 135.149725 
L 580.814742 149.162677 
L 582.642752 138.844005 
L 584.470762 129.692311 
L 586.298771 121.575617 
L 588.126781 114.37687 
L 588.736118 112.162981 
L 589.345455 127.077374 
L 591.173464 119.256413 
L 593.001474 112.319953 
L 594.220147 108.137158 
L 594.829484 123.209427 
L 596.657494 115.825906 
L 597.26683 113.555192 
L 597.876167 128.414988 
L 599.09484 122.99459 
L 600.313514 151.405617 
L 601.532187 144.217389 
L 602.75086 170.996521 
L 604.57887 158.208578 
L 605.188206 171.317261 
L 605.797543 166.870416 
L 606.40688 179.639419 
L 608.234889 165.874019 
L 610.062899 153.665399 
L 610.672236 166.952246 
L 612.500246 154.621685 
L 614.328256 143.685634 
L 614.937592 157.363845 
L 616.765602 146.117673 
L 618.593612 136.143372 
L 619.812285 130.128711 
L 620.421622 144.338566 
L 621.030958 140.949708 
L 621.640295 154.73521 
L 622.858968 147.290957 
L 623.468305 160.827783 
L 625.296314 149.189861 
L 625.905651 145.610757 
L 626.514988 159.213472 
L 628.342998 147.758119 
L 630.171007 137.598294 
L 630.780344 151.515224 
L 632.608354 140.930494 
L 634.436364 131.542831 
L 636.264373 123.216855 
L 638.092383 115.832494 
L 638.70172 113.561522 
L 639.311057 128.42107 
L 641.139066 120.448145 
L 642.35774 115.640345 
L 644.185749 158.258557 
L 644.795086 154.323818 
L 645.404423 167.584845 
L 646.013759 163.284369 
L 646.623096 176.194001 
L 647.232432 171.555911 
L 647.841769 184.14117 
L 649.669779 169.866649 
L 651.497789 157.206488 
L 652.107125 153.313006 
L 653.935135 191.670676 
L 655.763145 176.544615 
L 656.372482 188.934238 
L 657.591155 178.860303 
L 658.200491 191.159114 
L 658.809828 185.934157 
L 659.419165 197.955563 
L 661.247174 182.118721 
L 661.856511 194.289751 
L 663.684521 178.867489 
L 664.293857 191.166019 
L 666.121867 176.097032 
L 667.949877 162.732253 
L 669.777887 150.878948 
L 671.605897 140.366177 
L 672.215233 137.1331 
L 674.043243 177.320616 
L 674.65258 189.679807 
L 676.48059 174.778902 
L 678.3086 161.563195 
L 680.136609 149.842103 
L 681.964619 139.446593 
L 682.573956 153.29104 
L 683.183292 149.551105 
L 683.792629 162.999297 
L 685.620639 151.115791 
L 687.448649 140.576234 
L 689.276658 131.228636 
L 690.495332 125.591886 
L 691.714005 153.803198 
L 693.542015 142.959713 
L 694.151351 156.666391 
L 695.370025 149.073643 
L 695.979361 162.540559 
L 697.807371 150.708933 
L 698.416708 164.11172 
L 699.026044 159.947445 
L 700.244717 185.517038 
L 702.072727 171.086915 
L 703.900737 158.288749 
L 705.728747 146.937976 
L 707.556757 136.870905 
L 709.384767 127.942356 
L 709.994103 125.196487 
L 711.212776 153.438203 
L 713.040786 142.635997 
L 714.259459 136.122095 
L 714.868796 150.096915 
L 715.478133 146.48224 
L 716.087469 160.050779 
L 717.915479 148.500732 
L 719.743489 138.256922 
L 720.352826 135.106561 
L 720.962162 149.121205 
L 722.180835 142.108633 
L 722.790172 155.848687 
L 724.618182 144.77387 
L 725.836855 138.095579 
L 726.446192 151.993008 
L 728.274201 141.354244 
L 730.102211 131.918657 
L 731.930221 123.550177 
L 732.539558 138.018013 
L 734.367568 128.959734 
L 734.976904 143.215431 
L 735.586241 139.870618 
L 736.804914 166.983988 
L 738.632924 154.649838 
L 739.24226 150.856617 
L 741.07027 189.492089 
L 742.89828 174.612413 
L 744.72629 161.415535 
L 746.5543 149.711142 
L 747.163636 146.111596 
L 747.163636 146.111596 
" style="fill:none;stroke:#1f77b4;stroke-linecap:square;stroke-width:1.5;"/>
   </g>
   <g id="line2d_13">
    <path clip-path="url(#p232862ba02)" d="M 138.436364 492.48 
L 139.0457 475.438537 
L 140.264373 476.748915 
L 142.092383 429.382285 
L 143.920393 387.372526 
L 145.748403 350.113808 
L 146.35774 338.655333 
L 147.576413 350.48345 
L 149.404423 317.396656 
L 150.013759 307.221207 
L 151.232432 321.466405 
L 151.841769 311.131358 
L 152.451106 318.243069 
L 153.060442 308.034427 
L 153.669779 315.267587 
L 154.279115 305.175631 
L 154.888452 312.5209 
L 156.107125 292.943953 
L 156.716462 300.768896 
L 157.935135 282.095602 
L 158.544472 290.345971 
L 159.153808 281.231333 
L 160.981818 305.122238 
L 161.591155 295.428139 
L 162.200491 303.155663 
L 162.809828 293.538684 
L 164.637838 316.037705 
L 165.247174 322.957011 
L 167.075184 292.983285 
L 167.684521 300.806686 
L 168.293857 291.281824 
L 169.512531 306.752656 
L 170.121867 296.994619 
L 170.731204 304.660712 
L 172.559214 276.756184 
L 174.387224 252.007484 
L 175.605897 237.083625 
L 176.215233 247.099169 
L 176.82457 239.680484 
L 177.433907 249.594191 
L 179.261916 227.917342 
L 180.48059 214.845859 
L 181.089926 225.733473 
L 182.917936 206.755122 
L 184.745946 189.923105 
L 186.573956 174.994684 
L 187.183292 187.445088 
L 188.401966 177.485659 
L 189.011302 189.838378 
L 190.839312 174.919539 
L 191.448649 170.331428 
L 192.057985 182.964705 
L 193.276658 173.349788 
L 194.495332 197.888827 
L 196.323342 182.059533 
L 198.151351 168.020432 
L 198.760688 180.744337 
L 199.979361 171.300152 
L 200.588698 183.89544 
L 201.807371 174.208955 
L 202.416708 186.690172 
L 204.244717 172.127376 
L 206.072727 159.21154 
L 207.2914 151.423087 
L 207.900737 164.797868 
L 209.728747 152.710954 
L 211.556757 141.990995 
L 212.166093 138.694199 
L 213.384767 165.898029 
L 215.212776 153.686693 
L 217.040786 142.856384 
L 218.259459 136.325536 
L 218.868796 150.292378 
L 220.087469 143.18975 
L 221.306143 170.047901 
L 222.524816 161.426202 
L 223.743489 186.882088 
L 225.571499 172.297587 
L 227.399509 159.362502 
L 228.008845 172.425933 
L 229.836855 159.476333 
L 231.664865 147.991251 
L 233.492875 137.805061 
L 234.102211 151.713882 
L 235.930221 141.106685 
L 236.539558 154.886031 
L 237.148894 151.083548 
L 237.758231 164.471644 
L 239.586241 152.421624 
L 241.414251 141.734386 
L 243.24226 132.255808 
L 243.851597 146.382247 
L 245.679607 136.378025 
L 247.507617 127.505218 
L 249.335627 119.63587 
L 250.5543 114.890529 
L 251.163636 129.697959 
L 252.991646 121.580626 
L 254.819656 114.381312 
L 256.038329 110.040012 
L 256.647666 125.037659 
L 258.475676 117.447377 
L 259.085012 115.113076 
L 259.694349 129.911779 
L 260.913022 124.376287 
L 261.522359 138.811726 
L 262.131695 135.639608 
L 262.741032 149.633349 
L 263.959705 142.581396 
L 264.569042 156.30291 
L 265.787715 148.738111 
L 266.397052 162.218185 
L 268.225061 150.423018 
L 270.053071 139.96181 
L 270.662408 153.786052 
L 272.490418 142.944506 
L 274.318428 133.329071 
L 276.146437 124.801082 
L 277.974447 117.237555 
L 279.802457 110.529416 
L 280.411794 125.50787 
L 282.239803 117.86441 
L 284.067813 160.231094 
L 285.895823 148.660654 
L 287.723833 138.398759 
L 288.33317 135.242835 
L 288.942506 149.252135 
L 290.770516 138.923347 
L 292.598526 129.76268 
L 294.426536 121.638027 
L 296.254545 114.432222 
L 296.863882 112.216163 
L 298.082555 141.455981 
L 299.301229 135.032815 
L 301.129238 175.45786 
L 302.347912 199.834803 
L 304.175921 183.78543 
L 306.003931 169.551142 
L 307.831941 156.926662 
L 309.659951 145.729933 
L 310.269287 159.327975 
L 312.097297 147.859672 
L 313.925307 137.688362 
L 315.753317 128.667364 
L 317.581327 120.666585 
L 319.409337 113.570644 
L 320.018673 128.429834 
L 321.846683 120.455918 
L 323.674693 113.383802 
L 325.502703 107.111498 
L 326.112039 105.182526 
L 326.721376 120.370662 
L 327.330713 117.921723 
L 327.940049 132.610282 
L 329.768059 124.163584 
L 330.986732 119.07009 
L 331.596069 133.713616 
L 333.424079 125.142137 
L 335.252088 117.540039 
L 337.080098 110.797691 
L 337.689435 125.765625 
L 338.298771 123.105118 
L 338.908108 137.590407 
L 340.736118 128.580488 
L 341.345455 125.809594 
L 343.173464 167.277728 
L 345.001474 154.910358 
L 346.829484 143.941659 
L 348.657494 134.213453 
L 349.26683 148.263121 
L 351.09484 138.046184 
L 352.313514 131.885209 
L 352.92285 146.026181 
L 354.75086 136.062228 
L 356.57887 127.225136 
L 358.40688 119.387463 
L 359.016216 116.977081 
L 359.625553 131.702685 
L 360.234889 128.809353 
L 360.844226 143.070947 
L 362.672236 133.441212 
L 363.281572 147.521165 
L 365.109582 137.388138 
L 366.937592 128.401094 
L 368.765602 120.430428 
L 369.374939 117.979145 
L 369.984275 132.665453 
L 370.593612 129.734365 
L 371.202948 143.959684 
L 373.030958 134.229438 
L 373.640295 148.27848 
L 374.249631 144.735116 
L 374.858968 158.372171 
L 376.686978 147.011963 
L 378.514988 136.936524 
L 380.342998 128.000554 
L 382.171007 120.075187 
L 383.999017 113.046129 
L 385.21769 108.807496 
L 385.827027 123.853477 
L 387.655037 116.397118 
L 389.483047 109.784027 
L 390.70172 105.796228 
L 391.311057 120.960298 
L 392.52973 116.113116 
L 393.139066 130.872602 
L 394.967076 122.622424 
L 396.795086 115.30529 
L 398.623096 108.815678 
L 399.232432 106.819875 
L 399.841769 121.943801 
L 401.669779 114.703415 
L 402.888452 143.75198 
L 404.716462 134.045224 
L 405.325799 148.10149 
L 407.153808 137.902832 
L 407.763145 134.766357 
L 408.372482 148.794343 
L 410.200491 138.517328 
L 412.028501 129.402579 
L 413.856511 121.318652 
L 415.684521 114.148966 
L 416.903194 109.825532 
L 417.512531 124.831589 
L 418.121867 122.207711 
L 418.731204 136.728193 
L 419.340541 133.637782 
L 419.949877 147.710026 
L 421.777887 137.55564 
L 422.387224 151.474243 
L 424.215233 140.894148 
L 426.043243 131.510595 
L 427.871253 123.188264 
L 429.699263 115.807137 
L 431.527273 109.260769 
L 433.355283 103.454755 
L 433.964619 101.669184 
L 434.573956 116.995098 
L 436.401966 110.314379 
L 437.620639 139.700432 
L 439.448649 130.451882 
L 441.276658 122.249285 
L 441.885995 136.768136 
L 443.714005 127.85121 
L 444.932678 155.888795 
L 446.760688 144.809442 
L 447.370025 141.402119 
L 448.588698 168.397727 
L 450.416708 155.903691 
L 452.244717 144.822653 
L 453.463391 138.140612 
L 454.072727 152.036274 
L 455.900737 141.392617 
L 457.11941 168.388956 
L 457.728747 164.056946 
L 458.338084 176.936281 
L 460.166093 163.476589 
L 461.994103 151.539103 
L 463.822113 140.951673 
L 465.650123 131.561615 
L 467.478133 123.233514 
L 468.696806 118.211537 
L 469.306143 132.888732 
L 469.915479 129.948888 
L 470.524816 144.165794 
L 471.743489 137.534261 
L 472.352826 151.453702 
L 472.962162 147.785819 
L 473.571499 161.303238 
L 474.790172 153.353947 
L 475.399509 166.653008 
L 477.227518 154.356289 
L 479.055528 143.450253 
L 479.664865 157.137694 
L 481.492875 145.917098 
L 483.320885 135.965481 
L 484.539558 163.379131 
L 485.148894 159.243585 
L 485.758231 172.31168 
L 487.586241 159.375001 
L 489.414251 147.90138 
L 491.24226 137.725353 
L 491.851597 134.595838 
L 493.07027 162.114804 
L 494.89828 150.331328 
L 495.507617 163.748923 
L 497.335627 151.780639 
L 499.163636 141.165892 
L 500.991646 131.751607 
L 502.210319 126.074644 
L 502.819656 140.443482 
L 504.647666 131.110897 
L 505.257002 145.282235 
L 505.866339 141.856371 
L 506.475676 155.606317 
L 508.303686 144.55891 
L 510.131695 134.760896 
L 511.350369 128.852538 
L 511.959705 143.112439 
L 512.569042 139.771665 
L 513.787715 166.892644 
L 514.397052 162.619313 
L 515.006388 175.555027 
L 516.834398 162.251545 
L 518.662408 150.452605 
L 519.271744 163.865444 
L 521.099754 151.883981 
L 522.318428 144.65897 
L 522.927764 158.29901 
L 523.537101 154.362684 
L 524.146437 167.622187 
L 525.974447 155.21586 
L 526.583784 151.400442 
L 527.802457 177.627244 
L 529.630467 164.089408 
L 531.458477 152.082617 
L 533.286486 141.433719 
L 534.50516 135.012264 
L 535.114496 149.030607 
L 536.942506 138.726872 
L 538.770516 129.588425 
L 539.379853 126.778005 
L 539.989189 141.119259 
L 541.817199 131.710248 
L 543.035872 126.036466 
L 543.645209 140.4068 
L 545.473219 131.078364 
L 547.301229 122.804916 
L 547.910565 137.301978 
L 549.738575 128.324678 
L 550.957248 156.325856 
L 551.566585 152.466909 
L 552.175921 165.800755 
L 554.003931 153.600421 
L 555.831941 142.779869 
L 557.659951 133.183053 
L 559.487961 124.671578 
L 560.097297 139.095437 
L 561.315971 132.853782 
L 561.925307 146.956771 
L 563.14398 140.110629 
L 563.753317 153.929036 
L 564.97199 146.546773 
L 566.190663 173.146791 
L 568.018673 160.115666 
L 569.237346 152.257691 
L 569.846683 165.599742 
L 571.674693 153.422142 
L 573.502703 142.621751 
L 575.330713 133.042818 
L 575.940049 147.138394 
L 577.158722 140.278287 
L 577.768059 154.090119 
L 578.377396 150.318848 
L 578.986732 163.736932 
L 580.814742 151.770004 
L 582.642752 141.15646 
L 584.470762 131.743242 
L 585.689435 126.066922 
L 586.298771 140.436062 
L 588.126781 131.104317 
L 589.954791 122.827933 
L 591.782801 115.487557 
L 592.392138 113.230112 
L 593.001474 128.102657 
L 594.220147 122.706274 
L 594.829484 137.207205 
L 596.657494 128.240623 
L 598.485504 120.288105 
L 600.313514 113.234968 
L 602.141523 106.979496 
L 603.969533 101.431479 
L 604.57887 99.725253 
L 605.188206 115.1274 
L 605.797543 112.884078 
L 606.40688 127.770193 
L 608.234889 119.870878 
L 610.062899 112.864926 
L 611.890909 106.651304 
L 613.718919 101.140404 
L 614.328256 99.445592 
L 614.937592 114.858706 
L 616.765602 108.4196 
L 618.593612 102.708716 
L 619.202948 117.993865 
L 621.030958 111.200191 
L 622.858968 105.17484 
L 624.686978 99.830919 
L 626.514988 95.091361 
L 627.124324 93.633767 
L 627.733661 109.274796 
L 629.561671 103.467195 
L 631.389681 98.316397 
L 631.999017 96.732331 
L 632.608354 112.251847 
L 634.436364 106.10756 
L 635.0457 121.259421 
L 636.87371 114.096434 
L 637.483047 128.935005 
L 638.092383 126.150209 
L 638.70172 140.516083 
L 639.920393 134.165189 
L 641.748403 174.688357 
L 643.576413 161.482891 
L 645.404423 149.77088 
L 647.232432 139.383425 
L 649.060442 130.170726 
L 650.888452 121.999926 
L 651.497789 119.487094 
L 652.716462 148.167825 
L 654.544472 137.961665 
L 656.372482 128.909758 
L 657.591155 156.865947 
L 658.200491 152.98582 
L 658.809828 166.299318 
L 660.637838 154.042599 
L 662.465848 143.172039 
L 664.293857 133.530872 
L 666.121867 124.98006 
L 667.949877 117.396292 
L 669.777887 110.6702 
L 671.605897 104.704788 
L 673.433907 99.414026 
L 675.261916 94.721617 
L 677.089926 90.55989 
L 677.699263 89.28 
L 679.527273 134.879403 
L 680.136609 148.902956 
L 681.964619 138.613657 
L 683.183292 132.409047 
L 683.792629 146.529477 
L 684.401966 143.054702 
L 685.620639 169.923237 
L 687.448649 157.256676 
L 689.276658 146.022624 
L 689.885995 142.567725 
L 690.495332 156.289775 
L 692.323342 145.165073 
L 692.932678 158.785266 
L 694.760688 147.37834 
L 695.979361 140.499783 
L 696.588698 154.302929 
L 698.416708 143.402927 
L 700.244717 133.735648 
L 701.463391 127.906125 
L 702.682064 155.939487 
L 704.510074 144.854401 
L 706.338084 135.022969 
L 708.166093 126.30341 
L 708.77543 140.663277 
L 709.384767 137.418548 
L 711.212776 177.573782 
L 711.822113 172.881583 
L 712.43145 185.414854 
L 714.259459 170.996288 
L 715.478133 162.301664 
L 716.087469 175.249834 
L 716.696806 170.64877 
L 717.306143 183.269603 
L 719.134152 169.093651 
L 720.962162 156.520911 
L 722.790172 145.370069 
L 724.618182 135.480318 
L 725.836855 129.516642 
L 726.446192 143.750499 
L 728.274201 134.043911 
L 730.102211 125.435078 
L 731.930221 117.79985 
L 733.148894 113.195687 
L 734.976904 156.090375 
L 736.804914 194.133941 
L 738.632924 178.729301 
L 739.851597 202.854691 
L 741.679607 186.463788 
L 742.89828 176.579814 
L 743.507617 188.968057 
L 745.335627 174.147645 
L 747.163636 161.00333 
L 747.163636 161.00333 
" style="fill:none;stroke:#ff7f0e;stroke-linecap:square;stroke-width:1.5;"/>
   </g>
   <g id="patch_3">
    <path d="M 108 512.64 
L 108 69.12 
" style="fill:none;stroke:#000000;stroke-linecap:square;stroke-linejoin:miter;stroke-width:0.8;"/>
   </g>
   <g id="patch_4">
    <path d="M 777.6 512.64 
L 777.6 69.12 
" style="fill:none;stroke:#000000;stroke-linecap:square;stroke-linejoin:miter;stroke-width:0.8;"/>
   </g>
   <g id="patch_5">
    <path d="M 108 512.64 
L 777.6 512.64 
" style="fill:none;stroke:#000000;stroke-linecap:square;stroke-linejoin:miter;stroke-width:0.8;"/>
   </g>
   <g id="patch_6">
    <path d="M 108 69.12 
L 777.6 69.12 
" style="fill:none;stroke:#000000;stroke-linecap:square;stroke-linejoin:miter;stroke-width:0.8;"/>
   </g>
   <g id="text_14">
    <!-- Decaying Epsilon Greedy Agent for Two Armed Bandit -->
    <g transform="translate(217.089375 63.12)scale(0.168 -0.168)">
     <defs>
      <path d="M 1259 4147 
L 1259 519 
L 2022 519 
Q 2988 519 3436 956 
Q 3884 1394 3884 2338 
Q 3884 3275 3436 3711 
Q 2988 4147 2022 4147 
L 1259 4147 
z
M 628 4666 
L 1925 4666 
Q 3281 4666 3915 4102 
Q 4550 3538 4550 2338 
Q 4550 1131 3912 565 
Q 3275 0 1925 0 
L 628 0 
L 628 4666 
z
" id="DejaVuSans-44" transform="scale(0.015625)"/>
      <path d="M 3122 3366 
L 3122 2828 
Q 2878 2963 2633 3030 
Q 2388 3097 2138 3097 
Q 1578 3097 1268 2742 
Q 959 2388 959 1747 
Q 959 1106 1268 751 
Q 1578 397 2138 397 
Q 2388 397 2633 464 
Q 2878 531 3122 666 
L 3122 134 
Q 2881 22 2623 -34 
Q 2366 -91 2075 -91 
Q 1284 -91 818 406 
Q 353 903 353 1747 
Q 353 2603 823 3093 
Q 1294 3584 2113 3584 
Q 2378 3584 2631 3529 
Q 2884 3475 3122 3366 
z
" id="DejaVuSans-63" transform="scale(0.015625)"/>
      <path d="M 2059 -325 
Q 1816 -950 1584 -1140 
Q 1353 -1331 966 -1331 
L 506 -1331 
L 506 -850 
L 844 -850 
Q 1081 -850 1212 -737 
Q 1344 -625 1503 -206 
L 1606 56 
L 191 3500 
L 800 3500 
L 1894 763 
L 2988 3500 
L 3597 3500 
L 2059 -325 
z
" id="DejaVuSans-79" transform="scale(0.015625)"/>
      <path d="M 3513 2113 
L 3513 0 
L 2938 0 
L 2938 2094 
Q 2938 2591 2744 2837 
Q 2550 3084 2163 3084 
Q 1697 3084 1428 2787 
Q 1159 2491 1159 1978 
L 1159 0 
L 581 0 
L 581 3500 
L 1159 3500 
L 1159 2956 
Q 1366 3272 1645 3428 
Q 1925 3584 2291 3584 
Q 2894 3584 3203 3211 
Q 3513 2838 3513 2113 
z
" id="DejaVuSans-6e" transform="scale(0.015625)"/>
      <path d="M 2906 1791 
Q 2906 2416 2648 2759 
Q 2391 3103 1925 3103 
Q 1463 3103 1205 2759 
Q 947 2416 947 1791 
Q 947 1169 1205 825 
Q 1463 481 1925 481 
Q 2391 481 2648 825 
Q 2906 1169 2906 1791 
z
M 3481 434 
Q 3481 -459 3084 -895 
Q 2688 -1331 1869 -1331 
Q 1566 -1331 1297 -1286 
Q 1028 -1241 775 -1147 
L 775 -588 
Q 1028 -725 1275 -790 
Q 1522 -856 1778 -856 
Q 2344 -856 2625 -561 
Q 2906 -266 2906 331 
L 2906 616 
Q 2728 306 2450 153 
Q 2172 0 1784 0 
Q 1141 0 747 490 
Q 353 981 353 1791 
Q 353 2603 747 3093 
Q 1141 3584 1784 3584 
Q 2172 3584 2450 3431 
Q 2728 3278 2906 2969 
L 2906 3500 
L 3481 3500 
L 3481 434 
z
" id="DejaVuSans-67" transform="scale(0.015625)"/>
      <path id="DejaVuSans-20" transform="scale(0.015625)"/>
      <path d="M 603 4863 
L 1178 4863 
L 1178 0 
L 603 0 
L 603 4863 
z
" id="DejaVuSans-6c" transform="scale(0.015625)"/>
      <path d="M 3809 666 
L 3809 1919 
L 2778 1919 
L 2778 2438 
L 4434 2438 
L 4434 434 
Q 4069 175 3628 42 
Q 3188 -91 2688 -91 
Q 1594 -91 976 548 
Q 359 1188 359 2328 
Q 359 3472 976 4111 
Q 1594 4750 2688 4750 
Q 3144 4750 3555 4637 
Q 3966 4525 4313 4306 
L 4313 3634 
Q 3963 3931 3569 4081 
Q 3175 4231 2741 4231 
Q 1884 4231 1454 3753 
Q 1025 3275 1025 2328 
Q 1025 1384 1454 906 
Q 1884 428 2741 428 
Q 3075 428 3337 486 
Q 3600 544 3809 666 
z
" id="DejaVuSans-47" transform="scale(0.015625)"/>
      <path d="M 2188 4044 
L 1331 1722 
L 3047 1722 
L 2188 4044 
z
M 1831 4666 
L 2547 4666 
L 4325 0 
L 3669 0 
L 3244 1197 
L 1141 1197 
L 716 0 
L 50 0 
L 1831 4666 
z
" id="DejaVuSans-41" transform="scale(0.015625)"/>
      <path d="M 1172 4494 
L 1172 3500 
L 2356 3500 
L 2356 3053 
L 1172 3053 
L 1172 1153 
Q 1172 725 1289 603 
Q 1406 481 1766 481 
L 2356 481 
L 2356 0 
L 1766 0 
Q 1100 0 847 248 
Q 594 497 594 1153 
L 594 3053 
L 172 3053 
L 172 3500 
L 594 3500 
L 594 4494 
L 1172 4494 
z
" id="DejaVuSans-74" transform="scale(0.015625)"/>
      <path d="M 2375 4863 
L 2375 4384 
L 1825 4384 
Q 1516 4384 1395 4259 
Q 1275 4134 1275 3809 
L 1275 3500 
L 2222 3500 
L 2222 3053 
L 1275 3053 
L 1275 0 
L 697 0 
L 697 3053 
L 147 3053 
L 147 3500 
L 697 3500 
L 697 3744 
Q 697 4328 969 4595 
Q 1241 4863 1831 4863 
L 2375 4863 
z
" id="DejaVuSans-66" transform="scale(0.015625)"/>
      <path d="M -19 4666 
L 3928 4666 
L 3928 4134 
L 2272 4134 
L 2272 0 
L 1638 0 
L 1638 4134 
L -19 4134 
L -19 4666 
z
" id="DejaVuSans-54" transform="scale(0.015625)"/>
      <path d="M 3328 2828 
Q 3544 3216 3844 3400 
Q 4144 3584 4550 3584 
Q 5097 3584 5394 3201 
Q 5691 2819 5691 2113 
L 5691 0 
L 5113 0 
L 5113 2094 
Q 5113 2597 4934 2840 
Q 4756 3084 4391 3084 
Q 3944 3084 3684 2787 
Q 3425 2491 3425 1978 
L 3425 0 
L 2847 0 
L 2847 2094 
Q 2847 2600 2669 2842 
Q 2491 3084 2119 3084 
Q 1678 3084 1418 2786 
Q 1159 2488 1159 1978 
L 1159 0 
L 581 0 
L 581 3500 
L 1159 3500 
L 1159 2956 
Q 1356 3278 1631 3431 
Q 1906 3584 2284 3584 
Q 2666 3584 2933 3390 
Q 3200 3197 3328 2828 
z
" id="DejaVuSans-6d" transform="scale(0.015625)"/>
      <path d="M 1259 2228 
L 1259 519 
L 2272 519 
Q 2781 519 3026 730 
Q 3272 941 3272 1375 
Q 3272 1813 3026 2020 
Q 2781 2228 2272 2228 
L 1259 2228 
z
M 1259 4147 
L 1259 2741 
L 2194 2741 
Q 2656 2741 2882 2914 
Q 3109 3088 3109 3444 
Q 3109 3797 2882 3972 
Q 2656 4147 2194 4147 
L 1259 4147 
z
M 628 4666 
L 2241 4666 
Q 2963 4666 3353 4366 
Q 3744 4066 3744 3513 
Q 3744 3084 3544 2831 
Q 3344 2578 2956 2516 
Q 3422 2416 3680 2098 
Q 3938 1781 3938 1306 
Q 3938 681 3513 340 
Q 3088 0 2303 0 
L 628 0 
L 628 4666 
z
" id="DejaVuSans-42" transform="scale(0.015625)"/>
     </defs>
     <use xlink:href="#DejaVuSans-44"/>
     <use x="77.001953" xlink:href="#DejaVuSans-65"/>
     <use x="138.525391" xlink:href="#DejaVuSans-63"/>
     <use x="193.505859" xlink:href="#DejaVuSans-61"/>
     <use x="254.785156" xlink:href="#DejaVuSans-79"/>
     <use x="313.964844" xlink:href="#DejaVuSans-69"/>
     <use x="341.748047" xlink:href="#DejaVuSans-6e"/>
     <use x="405.126953" xlink:href="#DejaVuSans-67"/>
     <use x="468.603516" xlink:href="#DejaVuSans-20"/>
     <use x="500.390625" xlink:href="#DejaVuSans-45"/>
     <use x="563.574219" xlink:href="#DejaVuSans-70"/>
     <use x="627.050781" xlink:href="#DejaVuSans-73"/>
     <use x="679.150391" xlink:href="#DejaVuSans-69"/>
     <use x="706.933594" xlink:href="#DejaVuSans-6c"/>
     <use x="734.716797" xlink:href="#DejaVuSans-6f"/>
     <use x="795.898438" xlink:href="#DejaVuSans-6e"/>
     <use x="859.277344" xlink:href="#DejaVuSans-20"/>
     <use x="891.064453" xlink:href="#DejaVuSans-47"/>
     <use x="968.554688" xlink:href="#DejaVuSans-72"/>
     <use x="1007.417969" xlink:href="#DejaVuSans-65"/>
     <use x="1068.941406" xlink:href="#DejaVuSans-65"/>
     <use x="1130.464844" xlink:href="#DejaVuSans-64"/>
     <use x="1193.941406" xlink:href="#DejaVuSans-79"/>
     <use x="1253.121094" xlink:href="#DejaVuSans-20"/>
     <use x="1284.908203" xlink:href="#DejaVuSans-41"/>
     <use x="1353.316406" xlink:href="#DejaVuSans-67"/>
     <use x="1416.792969" xlink:href="#DejaVuSans-65"/>
     <use x="1478.316406" xlink:href="#DejaVuSans-6e"/>
     <use x="1541.695312" xlink:href="#DejaVuSans-74"/>
     <use x="1580.904297" xlink:href="#DejaVuSans-20"/>
     <use x="1612.691406" xlink:href="#DejaVuSans-66"/>
     <use x="1647.896484" xlink:href="#DejaVuSans-6f"/>
     <use x="1709.078125" xlink:href="#DejaVuSans-72"/>
     <use x="1750.191406" xlink:href="#DejaVuSans-20"/>
     <use x="1781.978516" xlink:href="#DejaVuSans-54"/>
     <use x="1826.5625" xlink:href="#DejaVuSans-77"/>
     <use x="1908.349609" xlink:href="#DejaVuSans-6f"/>
     <use x="1969.53125" xlink:href="#DejaVuSans-20"/>
     <use x="2001.318359" xlink:href="#DejaVuSans-41"/>
     <use x="2069.726562" xlink:href="#DejaVuSans-72"/>
     <use x="2109.089844" xlink:href="#DejaVuSans-6d"/>
     <use x="2206.501953" xlink:href="#DejaVuSans-65"/>
     <use x="2268.025391" xlink:href="#DejaVuSans-64"/>
     <use x="2331.501953" xlink:href="#DejaVuSans-20"/>
     <use x="2363.289062" xlink:href="#DejaVuSans-42"/>
     <use x="2431.892578" xlink:href="#DejaVuSans-61"/>
     <use x="2493.171875" xlink:href="#DejaVuSans-6e"/>
     <use x="2556.550781" xlink:href="#DejaVuSans-64"/>
     <use x="2620.027344" xlink:href="#DejaVuSans-69"/>
     <use x="2647.810547" xlink:href="#DejaVuSans-74"/>
    </g>
   </g>
   <g id="legend_1">
    <g id="patch_7">
     <path d="M 597.142187 505.64 
L 767.8 505.64 
Q 770.6 505.64 770.6 502.84 
L 770.6 463.14125 
Q 770.6 460.34125 767.8 460.34125 
L 597.142187 460.34125 
Q 594.342188 460.34125 594.342188 463.14125 
L 594.342188 502.84 
Q 594.342188 505.64 597.142187 505.64 
z
" style="fill:#ffffff;opacity:0.8;stroke:#cccccc;stroke-linejoin:miter;"/>
    </g>
    <g id="line2d_14">
     <path d="M 599.942188 471.679063 
L 627.942188 471.679063 
" style="fill:none;stroke:#1f77b4;stroke-linecap:square;stroke-width:1.5;"/>
    </g>
    <g id="line2d_15"/>
    <g id="text_15">
     <!-- Decay type = lin -->
     <g transform="translate(639.142188 476.579063)scale(0.14 -0.14)">
      <defs>
       <path d="M 678 2906 
L 4684 2906 
L 4684 2381 
L 678 2381 
L 678 2906 
z
M 678 1631 
L 4684 1631 
L 4684 1100 
L 678 1100 
L 678 1631 
z
" id="DejaVuSans-3d" transform="scale(0.015625)"/>
      </defs>
      <use xlink:href="#DejaVuSans-44"/>
      <use x="77.001953" xlink:href="#DejaVuSans-65"/>
      <use x="138.525391" xlink:href="#DejaVuSans-63"/>
      <use x="193.505859" xlink:href="#DejaVuSans-61"/>
      <use x="254.785156" xlink:href="#DejaVuSans-79"/>
      <use x="313.964844" xlink:href="#DejaVuSans-20"/>
      <use x="345.751953" xlink:href="#DejaVuSans-74"/>
      <use x="384.960938" xlink:href="#DejaVuSans-79"/>
      <use x="444.140625" xlink:href="#DejaVuSans-70"/>
      <use x="507.617188" xlink:href="#DejaVuSans-65"/>
      <use x="569.140625" xlink:href="#DejaVuSans-20"/>
      <use x="600.927734" xlink:href="#DejaVuSans-3d"/>
      <use x="684.716797" xlink:href="#DejaVuSans-20"/>
      <use x="716.503906" xlink:href="#DejaVuSans-6c"/>
      <use x="744.287109" xlink:href="#DejaVuSans-69"/>
      <use x="772.070312" xlink:href="#DejaVuSans-6e"/>
     </g>
    </g>
    <g id="line2d_16">
     <path d="M 599.942188 492.228438 
L 627.942188 492.228438 
" style="fill:none;stroke:#ff7f0e;stroke-linecap:square;stroke-width:1.5;"/>
    </g>
    <g id="line2d_17"/>
    <g id="text_16">
     <!-- Decay type = exp -->
     <g transform="translate(639.142188 497.128438)scale(0.14 -0.14)">
      <defs>
       <path d="M 3513 3500 
L 2247 1797 
L 3578 0 
L 2900 0 
L 1881 1375 
L 863 0 
L 184 0 
L 1544 1831 
L 300 3500 
L 978 3500 
L 1906 2253 
L 2834 3500 
L 3513 3500 
z
" id="DejaVuSans-78" transform="scale(0.015625)"/>
      </defs>
      <use xlink:href="#DejaVuSans-44"/>
      <use x="77.001953" xlink:href="#DejaVuSans-65"/>
      <use x="138.525391" xlink:href="#DejaVuSans-63"/>
      <use x="193.505859" xlink:href="#DejaVuSans-61"/>
      <use x="254.785156" xlink:href="#DejaVuSans-79"/>
      <use x="313.964844" xlink:href="#DejaVuSans-20"/>
      <use x="345.751953" xlink:href="#DejaVuSans-74"/>
      <use x="384.960938" xlink:href="#DejaVuSans-79"/>
      <use x="444.140625" xlink:href="#DejaVuSans-70"/>
      <use x="507.617188" xlink:href="#DejaVuSans-65"/>
      <use x="569.140625" xlink:href="#DejaVuSans-20"/>
      <use x="600.927734" xlink:href="#DejaVuSans-3d"/>
      <use x="684.716797" xlink:href="#DejaVuSans-20"/>
      <use x="716.503906" xlink:href="#DejaVuSans-65"/>
      <use x="776.277344" xlink:href="#DejaVuSans-78"/>
      <use x="835.457031" xlink:href="#DejaVuSans-70"/>
     </g>
    </g>
   </g>
  </g>
 </g>
 <defs>
  <clipPath id="p232862ba02">
   <rect height="443.52" width="669.6" x="108" y="69.12"/>
  </clipPath>
 </defs>
</svg>
