<?xml version="1.0" encoding="utf-8" standalone="no"?>
<!DOCTYPE svg PUBLIC "-//W3C//DTD SVG 1.1//EN"
  "http://www.w3.org/Graphics/SVG/1.1/DTD/svg11.dtd">
<svg height="576pt" version="1.1" viewBox="0 0 864 576" width="864pt" xmlns="http://www.w3.org/2000/svg" xmlns:xlink="http://www.w3.org/1999/xlink">
 <metadata>
  <rdf:RDF xmlns:cc="http://creativecommons.org/ns#" xmlns:dc="http://purl.org/dc/elements/1.1/" xmlns:rdf="http://www.w3.org/1999/02/22-rdf-syntax-ns#">
   <cc:Work>
    <dc:type rdf:resource="http://purl.org/dc/dcmitype/StillImage"/>
    <dc:date>2021-09-10T21:14:22.680841</dc:date>
    <dc:format>image/svg+xml</dc:format>
    <dc:creator>
     <cc:Agent>
      <dc:title>Matplotlib v3.4.3, https://matplotlib.org/</dc:title>
     </cc:Agent>
    </dc:creator>
   </cc:Work>
  </rdf:RDF>
 </metadata>
 <defs>
  <style type="text/css">*{stroke-linecap:butt;stroke-linejoin:round;}</style>
 </defs>
 <g id="figure_1">
  <g id="patch_1">
   <path d="M 0 576 
L 864 576 
L 864 0 
L 0 0 
z
" style="fill:#ffffff;"/>
  </g>
  <g id="axes_1">
   <g id="patch_2">
    <path d="M 108 512.64 
L 777.6 512.64 
L 777.6 69.12 
L 108 69.12 
z
" style="fill:#ffffff;"/>
   </g>
   <g id="matplotlib.axis_1">
    <g id="xtick_1">
     <g id="line2d_1">
      <defs>
       <path d="M 0 0 
L 0 3.5 
" id="m1b53624381" style="stroke:#000000;stroke-width:0.8;"/>
      </defs>
      <g>
       <use style="stroke:#000000;stroke-width:0.8;" x="138.436364" xlink:href="#m1b53624381" y="512.64"/>
      </g>
     </g>
     <g id="text_1">
      <!-- 0 -->
      <g transform="translate(133.982614 530.277812)scale(0.14 -0.14)">
       <defs>
        <path d="M 2034 4250 
Q 1547 4250 1301 3770 
Q 1056 3291 1056 2328 
Q 1056 1369 1301 889 
Q 1547 409 2034 409 
Q 2525 409 2770 889 
Q 3016 1369 3016 2328 
Q 3016 3291 2770 3770 
Q 2525 4250 2034 4250 
z
M 2034 4750 
Q 2819 4750 3233 4129 
Q 3647 3509 3647 2328 
Q 3647 1150 3233 529 
Q 2819 -91 2034 -91 
Q 1250 -91 836 529 
Q 422 1150 422 2328 
Q 422 3509 836 4129 
Q 1250 4750 2034 4750 
z
" id="DejaVuSans-30" transform="scale(0.015625)"/>
       </defs>
       <use xlink:href="#DejaVuSans-30"/>
      </g>
     </g>
    </g>
    <g id="xtick_2">
     <g id="line2d_2">
      <g>
       <use style="stroke:#000000;stroke-width:0.8;" x="260.303686" xlink:href="#m1b53624381" y="512.64"/>
      </g>
     </g>
     <g id="text_2">
      <!-- 200 -->
      <g transform="translate(246.942436 530.277812)scale(0.14 -0.14)">
       <defs>
        <path d="M 1228 531 
L 3431 531 
L 3431 0 
L 469 0 
L 469 531 
Q 828 903 1448 1529 
Q 2069 2156 2228 2338 
Q 2531 2678 2651 2914 
Q 2772 3150 2772 3378 
Q 2772 3750 2511 3984 
Q 2250 4219 1831 4219 
Q 1534 4219 1204 4116 
Q 875 4013 500 3803 
L 500 4441 
Q 881 4594 1212 4672 
Q 1544 4750 1819 4750 
Q 2544 4750 2975 4387 
Q 3406 4025 3406 3419 
Q 3406 3131 3298 2873 
Q 3191 2616 2906 2266 
Q 2828 2175 2409 1742 
Q 1991 1309 1228 531 
z
" id="DejaVuSans-32" transform="scale(0.015625)"/>
       </defs>
       <use xlink:href="#DejaVuSans-32"/>
       <use x="63.623047" xlink:href="#DejaVuSans-30"/>
       <use x="127.246094" xlink:href="#DejaVuSans-30"/>
      </g>
     </g>
    </g>
    <g id="xtick_3">
     <g id="line2d_3">
      <g>
       <use style="stroke:#000000;stroke-width:0.8;" x="382.171007" xlink:href="#m1b53624381" y="512.64"/>
      </g>
     </g>
     <g id="text_3">
      <!-- 400 -->
      <g transform="translate(368.809757 530.277812)scale(0.14 -0.14)">
       <defs>
        <path d="M 2419 4116 
L 825 1625 
L 2419 1625 
L 2419 4116 
z
M 2253 4666 
L 3047 4666 
L 3047 1625 
L 3713 1625 
L 3713 1100 
L 3047 1100 
L 3047 0 
L 2419 0 
L 2419 1100 
L 313 1100 
L 313 1709 
L 2253 4666 
z
" id="DejaVuSans-34" transform="scale(0.015625)"/>
       </defs>
       <use xlink:href="#DejaVuSans-34"/>
       <use x="63.623047" xlink:href="#DejaVuSans-30"/>
       <use x="127.246094" xlink:href="#DejaVuSans-30"/>
      </g>
     </g>
    </g>
    <g id="xtick_4">
     <g id="line2d_4">
      <g>
       <use style="stroke:#000000;stroke-width:0.8;" x="504.038329" xlink:href="#m1b53624381" y="512.64"/>
      </g>
     </g>
     <g id="text_4">
      <!-- 600 -->
      <g transform="translate(490.677079 530.277812)scale(0.14 -0.14)">
       <defs>
        <path d="M 2113 2584 
Q 1688 2584 1439 2293 
Q 1191 2003 1191 1497 
Q 1191 994 1439 701 
Q 1688 409 2113 409 
Q 2538 409 2786 701 
Q 3034 994 3034 1497 
Q 3034 2003 2786 2293 
Q 2538 2584 2113 2584 
z
M 3366 4563 
L 3366 3988 
Q 3128 4100 2886 4159 
Q 2644 4219 2406 4219 
Q 1781 4219 1451 3797 
Q 1122 3375 1075 2522 
Q 1259 2794 1537 2939 
Q 1816 3084 2150 3084 
Q 2853 3084 3261 2657 
Q 3669 2231 3669 1497 
Q 3669 778 3244 343 
Q 2819 -91 2113 -91 
Q 1303 -91 875 529 
Q 447 1150 447 2328 
Q 447 3434 972 4092 
Q 1497 4750 2381 4750 
Q 2619 4750 2861 4703 
Q 3103 4656 3366 4563 
z
" id="DejaVuSans-36" transform="scale(0.015625)"/>
       </defs>
       <use xlink:href="#DejaVuSans-36"/>
       <use x="63.623047" xlink:href="#DejaVuSans-30"/>
       <use x="127.246094" xlink:href="#DejaVuSans-30"/>
      </g>
     </g>
    </g>
    <g id="xtick_5">
     <g id="line2d_5">
      <g>
       <use style="stroke:#000000;stroke-width:0.8;" x="625.905651" xlink:href="#m1b53624381" y="512.64"/>
      </g>
     </g>
     <g id="text_5">
      <!-- 800 -->
      <g transform="translate(612.544401 530.277812)scale(0.14 -0.14)">
       <defs>
        <path d="M 2034 2216 
Q 1584 2216 1326 1975 
Q 1069 1734 1069 1313 
Q 1069 891 1326 650 
Q 1584 409 2034 409 
Q 2484 409 2743 651 
Q 3003 894 3003 1313 
Q 3003 1734 2745 1975 
Q 2488 2216 2034 2216 
z
M 1403 2484 
Q 997 2584 770 2862 
Q 544 3141 544 3541 
Q 544 4100 942 4425 
Q 1341 4750 2034 4750 
Q 2731 4750 3128 4425 
Q 3525 4100 3525 3541 
Q 3525 3141 3298 2862 
Q 3072 2584 2669 2484 
Q 3125 2378 3379 2068 
Q 3634 1759 3634 1313 
Q 3634 634 3220 271 
Q 2806 -91 2034 -91 
Q 1263 -91 848 271 
Q 434 634 434 1313 
Q 434 1759 690 2068 
Q 947 2378 1403 2484 
z
M 1172 3481 
Q 1172 3119 1398 2916 
Q 1625 2713 2034 2713 
Q 2441 2713 2670 2916 
Q 2900 3119 2900 3481 
Q 2900 3844 2670 4047 
Q 2441 4250 2034 4250 
Q 1625 4250 1398 4047 
Q 1172 3844 1172 3481 
z
" id="DejaVuSans-38" transform="scale(0.015625)"/>
       </defs>
       <use xlink:href="#DejaVuSans-38"/>
       <use x="63.623047" xlink:href="#DejaVuSans-30"/>
       <use x="127.246094" xlink:href="#DejaVuSans-30"/>
      </g>
     </g>
    </g>
    <g id="xtick_6">
     <g id="line2d_6">
      <g>
       <use style="stroke:#000000;stroke-width:0.8;" x="747.772973" xlink:href="#m1b53624381" y="512.64"/>
      </g>
     </g>
     <g id="text_6">
      <!-- 1000 -->
      <g transform="translate(729.957973 530.277812)scale(0.14 -0.14)">
       <defs>
        <path d="M 794 531 
L 1825 531 
L 1825 4091 
L 703 3866 
L 703 4441 
L 1819 4666 
L 2450 4666 
L 2450 531 
L 3481 531 
L 3481 0 
L 794 0 
L 794 531 
z
" id="DejaVuSans-31" transform="scale(0.015625)"/>
       </defs>
       <use xlink:href="#DejaVuSans-31"/>
       <use x="63.623047" xlink:href="#DejaVuSans-30"/>
       <use x="127.246094" xlink:href="#DejaVuSans-30"/>
       <use x="190.869141" xlink:href="#DejaVuSans-30"/>
      </g>
     </g>
    </g>
    <g id="text_7">
     <!-- Episodes -->
     <g transform="translate(411.660937 547.827188)scale(0.14 -0.14)">
      <defs>
       <path d="M 628 4666 
L 3578 4666 
L 3578 4134 
L 1259 4134 
L 1259 2753 
L 3481 2753 
L 3481 2222 
L 1259 2222 
L 1259 531 
L 3634 531 
L 3634 0 
L 628 0 
L 628 4666 
z
" id="DejaVuSans-45" transform="scale(0.015625)"/>
       <path d="M 1159 525 
L 1159 -1331 
L 581 -1331 
L 581 3500 
L 1159 3500 
L 1159 2969 
Q 1341 3281 1617 3432 
Q 1894 3584 2278 3584 
Q 2916 3584 3314 3078 
Q 3713 2572 3713 1747 
Q 3713 922 3314 415 
Q 2916 -91 2278 -91 
Q 1894 -91 1617 61 
Q 1341 213 1159 525 
z
M 3116 1747 
Q 3116 2381 2855 2742 
Q 2594 3103 2138 3103 
Q 1681 3103 1420 2742 
Q 1159 2381 1159 1747 
Q 1159 1113 1420 752 
Q 1681 391 2138 391 
Q 2594 391 2855 752 
Q 3116 1113 3116 1747 
z
" id="DejaVuSans-70" transform="scale(0.015625)"/>
       <path d="M 603 3500 
L 1178 3500 
L 1178 0 
L 603 0 
L 603 3500 
z
M 603 4863 
L 1178 4863 
L 1178 4134 
L 603 4134 
L 603 4863 
z
" id="DejaVuSans-69" transform="scale(0.015625)"/>
       <path d="M 2834 3397 
L 2834 2853 
Q 2591 2978 2328 3040 
Q 2066 3103 1784 3103 
Q 1356 3103 1142 2972 
Q 928 2841 928 2578 
Q 928 2378 1081 2264 
Q 1234 2150 1697 2047 
L 1894 2003 
Q 2506 1872 2764 1633 
Q 3022 1394 3022 966 
Q 3022 478 2636 193 
Q 2250 -91 1575 -91 
Q 1294 -91 989 -36 
Q 684 19 347 128 
L 347 722 
Q 666 556 975 473 
Q 1284 391 1588 391 
Q 1994 391 2212 530 
Q 2431 669 2431 922 
Q 2431 1156 2273 1281 
Q 2116 1406 1581 1522 
L 1381 1569 
Q 847 1681 609 1914 
Q 372 2147 372 2553 
Q 372 3047 722 3315 
Q 1072 3584 1716 3584 
Q 2034 3584 2315 3537 
Q 2597 3491 2834 3397 
z
" id="DejaVuSans-73" transform="scale(0.015625)"/>
       <path d="M 1959 3097 
Q 1497 3097 1228 2736 
Q 959 2375 959 1747 
Q 959 1119 1226 758 
Q 1494 397 1959 397 
Q 2419 397 2687 759 
Q 2956 1122 2956 1747 
Q 2956 2369 2687 2733 
Q 2419 3097 1959 3097 
z
M 1959 3584 
Q 2709 3584 3137 3096 
Q 3566 2609 3566 1747 
Q 3566 888 3137 398 
Q 2709 -91 1959 -91 
Q 1206 -91 779 398 
Q 353 888 353 1747 
Q 353 2609 779 3096 
Q 1206 3584 1959 3584 
z
" id="DejaVuSans-6f" transform="scale(0.015625)"/>
       <path d="M 2906 2969 
L 2906 4863 
L 3481 4863 
L 3481 0 
L 2906 0 
L 2906 525 
Q 2725 213 2448 61 
Q 2172 -91 1784 -91 
Q 1150 -91 751 415 
Q 353 922 353 1747 
Q 353 2572 751 3078 
Q 1150 3584 1784 3584 
Q 2172 3584 2448 3432 
Q 2725 3281 2906 2969 
z
M 947 1747 
Q 947 1113 1208 752 
Q 1469 391 1925 391 
Q 2381 391 2643 752 
Q 2906 1113 2906 1747 
Q 2906 2381 2643 2742 
Q 2381 3103 1925 3103 
Q 1469 3103 1208 2742 
Q 947 2381 947 1747 
z
" id="DejaVuSans-64" transform="scale(0.015625)"/>
       <path d="M 3597 1894 
L 3597 1613 
L 953 1613 
Q 991 1019 1311 708 
Q 1631 397 2203 397 
Q 2534 397 2845 478 
Q 3156 559 3463 722 
L 3463 178 
Q 3153 47 2828 -22 
Q 2503 -91 2169 -91 
Q 1331 -91 842 396 
Q 353 884 353 1716 
Q 353 2575 817 3079 
Q 1281 3584 2069 3584 
Q 2775 3584 3186 3129 
Q 3597 2675 3597 1894 
z
M 3022 2063 
Q 3016 2534 2758 2815 
Q 2500 3097 2075 3097 
Q 1594 3097 1305 2825 
Q 1016 2553 972 2059 
L 3022 2063 
z
" id="DejaVuSans-65" transform="scale(0.015625)"/>
      </defs>
      <use xlink:href="#DejaVuSans-45"/>
      <use x="63.183594" xlink:href="#DejaVuSans-70"/>
      <use x="126.660156" xlink:href="#DejaVuSans-69"/>
      <use x="154.443359" xlink:href="#DejaVuSans-73"/>
      <use x="206.542969" xlink:href="#DejaVuSans-6f"/>
      <use x="267.724609" xlink:href="#DejaVuSans-64"/>
      <use x="331.201172" xlink:href="#DejaVuSans-65"/>
      <use x="392.724609" xlink:href="#DejaVuSans-73"/>
     </g>
    </g>
   </g>
   <g id="matplotlib.axis_2">
    <g id="ytick_1">
     <g id="line2d_7">
      <defs>
       <path d="M 0 0 
L -3.5 0 
" id="mb654836a24" style="stroke:#000000;stroke-width:0.8;"/>
      </defs>
      <g>
       <use style="stroke:#000000;stroke-width:0.8;" x="108" xlink:href="#mb654836a24" y="492.48"/>
      </g>
     </g>
     <g id="text_8">
      <!-- 0.0 -->
      <g transform="translate(78.735625 497.798906)scale(0.14 -0.14)">
       <defs>
        <path d="M 684 794 
L 1344 794 
L 1344 0 
L 684 0 
L 684 794 
z
" id="DejaVuSans-2e" transform="scale(0.015625)"/>
       </defs>
       <use xlink:href="#DejaVuSans-30"/>
       <use x="63.623047" xlink:href="#DejaVuSans-2e"/>
       <use x="95.410156" xlink:href="#DejaVuSans-30"/>
      </g>
     </g>
    </g>
    <g id="ytick_2">
     <g id="line2d_8">
      <g>
       <use style="stroke:#000000;stroke-width:0.8;" x="108" xlink:href="#mb654836a24" y="406.481798"/>
      </g>
     </g>
     <g id="text_9">
      <!-- 0.2 -->
      <g transform="translate(78.735625 411.800704)scale(0.14 -0.14)">
       <use xlink:href="#DejaVuSans-30"/>
       <use x="63.623047" xlink:href="#DejaVuSans-2e"/>
       <use x="95.410156" xlink:href="#DejaVuSans-32"/>
      </g>
     </g>
    </g>
    <g id="ytick_3">
     <g id="line2d_9">
      <g>
       <use style="stroke:#000000;stroke-width:0.8;" x="108" xlink:href="#mb654836a24" y="320.483595"/>
      </g>
     </g>
     <g id="text_10">
      <!-- 0.4 -->
      <g transform="translate(78.735625 325.802501)scale(0.14 -0.14)">
       <use xlink:href="#DejaVuSans-30"/>
       <use x="63.623047" xlink:href="#DejaVuSans-2e"/>
       <use x="95.410156" xlink:href="#DejaVuSans-34"/>
      </g>
     </g>
    </g>
    <g id="ytick_4">
     <g id="line2d_10">
      <g>
       <use style="stroke:#000000;stroke-width:0.8;" x="108" xlink:href="#mb654836a24" y="234.485393"/>
      </g>
     </g>
     <g id="text_11">
      <!-- 0.6 -->
      <g transform="translate(78.735625 239.804299)scale(0.14 -0.14)">
       <use xlink:href="#DejaVuSans-30"/>
       <use x="63.623047" xlink:href="#DejaVuSans-2e"/>
       <use x="95.410156" xlink:href="#DejaVuSans-36"/>
      </g>
     </g>
    </g>
    <g id="ytick_5">
     <g id="line2d_11">
      <g>
       <use style="stroke:#000000;stroke-width:0.8;" x="108" xlink:href="#mb654836a24" y="148.48719"/>
      </g>
     </g>
     <g id="text_12">
      <!-- 0.8 -->
      <g transform="translate(78.735625 153.806096)scale(0.14 -0.14)">
       <use xlink:href="#DejaVuSans-30"/>
       <use x="63.623047" xlink:href="#DejaVuSans-2e"/>
       <use x="95.410156" xlink:href="#DejaVuSans-38"/>
      </g>
     </g>
    </g>
    <g id="text_13">
     <!-- Reward -->
     <g transform="translate(71.824062 316.949531)rotate(-90)scale(0.14 -0.14)">
      <defs>
       <path d="M 2841 2188 
Q 3044 2119 3236 1894 
Q 3428 1669 3622 1275 
L 4263 0 
L 3584 0 
L 2988 1197 
Q 2756 1666 2539 1819 
Q 2322 1972 1947 1972 
L 1259 1972 
L 1259 0 
L 628 0 
L 628 4666 
L 2053 4666 
Q 2853 4666 3247 4331 
Q 3641 3997 3641 3322 
Q 3641 2881 3436 2590 
Q 3231 2300 2841 2188 
z
M 1259 4147 
L 1259 2491 
L 2053 2491 
Q 2509 2491 2742 2702 
Q 2975 2913 2975 3322 
Q 2975 3731 2742 3939 
Q 2509 4147 2053 4147 
L 1259 4147 
z
" id="DejaVuSans-52" transform="scale(0.015625)"/>
       <path d="M 269 3500 
L 844 3500 
L 1563 769 
L 2278 3500 
L 2956 3500 
L 3675 769 
L 4391 3500 
L 4966 3500 
L 4050 0 
L 3372 0 
L 2619 2869 
L 1863 0 
L 1184 0 
L 269 3500 
z
" id="DejaVuSans-77" transform="scale(0.015625)"/>
       <path d="M 2194 1759 
Q 1497 1759 1228 1600 
Q 959 1441 959 1056 
Q 959 750 1161 570 
Q 1363 391 1709 391 
Q 2188 391 2477 730 
Q 2766 1069 2766 1631 
L 2766 1759 
L 2194 1759 
z
M 3341 1997 
L 3341 0 
L 2766 0 
L 2766 531 
Q 2569 213 2275 61 
Q 1981 -91 1556 -91 
Q 1019 -91 701 211 
Q 384 513 384 1019 
Q 384 1609 779 1909 
Q 1175 2209 1959 2209 
L 2766 2209 
L 2766 2266 
Q 2766 2663 2505 2880 
Q 2244 3097 1772 3097 
Q 1472 3097 1187 3025 
Q 903 2953 641 2809 
L 641 3341 
Q 956 3463 1253 3523 
Q 1550 3584 1831 3584 
Q 2591 3584 2966 3190 
Q 3341 2797 3341 1997 
z
" id="DejaVuSans-61" transform="scale(0.015625)"/>
       <path d="M 2631 2963 
Q 2534 3019 2420 3045 
Q 2306 3072 2169 3072 
Q 1681 3072 1420 2755 
Q 1159 2438 1159 1844 
L 1159 0 
L 581 0 
L 581 3500 
L 1159 3500 
L 1159 2956 
Q 1341 3275 1631 3429 
Q 1922 3584 2338 3584 
Q 2397 3584 2469 3576 
Q 2541 3569 2628 3553 
L 2631 2963 
z
" id="DejaVuSans-72" transform="scale(0.015625)"/>
      </defs>
      <use xlink:href="#DejaVuSans-52"/>
      <use x="64.982422" xlink:href="#DejaVuSans-65"/>
      <use x="126.505859" xlink:href="#DejaVuSans-77"/>
      <use x="208.292969" xlink:href="#DejaVuSans-61"/>
      <use x="269.572266" xlink:href="#DejaVuSans-72"/>
      <use x="308.935547" xlink:href="#DejaVuSans-64"/>
     </g>
    </g>
   </g>
   <g id="line2d_12">
    <path clip-path="url(#p9b7da941fc)" d="M 138.436364 492.48 
L 140.264373 443.850701 
L 142.092383 400.721072 
L 143.311057 407.776737 
L 145.139066 368.726848 
L 145.748403 356.71752 
L 146.35774 362.041539 
L 148.185749 328.164016 
L 148.795086 334.60778 
L 149.404423 323.936455 
L 150.623096 336.896358 
L 152.451106 305.862598 
L 154.279115 278.338562 
L 154.888452 286.736265 
L 156.716462 261.375298 
L 158.544472 238.882498 
L 160.372482 218.933493 
L 160.981818 212.798414 
L 161.591155 223.76632 
L 163.419165 205.52686 
L 165.247174 189.35017 
L 167.075184 175.002962 
L 168.903194 162.278334 
L 169.512531 158.365026 
L 170.121867 171.467574 
L 171.949877 159.142776 
L 173.777887 148.211836 
L 175.605897 138.517117 
L 177.433907 129.91881 
L 178.043243 127.274504 
L 178.65258 141.596288 
L 179.261916 138.494041 
L 179.871253 152.375843 
L 180.48059 148.850868 
L 181.089926 162.326521 
L 181.699263 158.411323 
L 182.3086 171.512056 
L 184.136609 159.182227 
L 185.964619 148.246826 
L 187.792629 138.548149 
L 189.620639 129.946333 
L 191.448649 122.317328 
L 192.057985 119.971119 
L 192.667322 134.57931 
L 194.495332 126.426345 
L 196.323342 119.195429 
L 197.542015 114.835072 
L 198.151351 129.644677 
L 199.979361 122.049788 
L 200.588698 119.71407 
L 201.198034 134.332342 
L 203.026044 126.207307 
L 204.244717 121.307782 
L 204.854054 135.863556 
L 205.463391 132.986122 
L 206.072727 147.083921 
L 207.2914 140.57912 
L 207.900737 154.379155 
L 208.510074 150.775619 
L 209.11941 164.17579 
L 209.728747 160.188073 
L 210.338084 173.219129 
L 212.166093 160.696241 
L 212.77543 173.707369 
L 214.60344 161.129264 
L 216.43145 149.973665 
L 218.259459 140.079694 
L 220.087469 131.304669 
L 221.915479 123.522045 
L 223.134152 118.829 
L 223.743489 133.48198 
L 224.962162 128.02308 
L 226.180835 156.047449 
L 227.399509 148.853412 
L 228.008845 162.328964 
L 228.618182 158.413671 
L 229.227518 171.514311 
L 229.836855 167.238808 
L 230.446192 179.993365 
L 232.274201 166.704353 
L 233.492875 191.754384 
L 235.320885 177.135275 
L 237.148894 164.169495 
L 238.976904 201.299364 
L 240.804914 185.600777 
L 242.632924 171.677602 
L 244.460934 159.329051 
L 245.679607 151.88268 
L 246.288943 165.239437 
L 248.116953 153.619003 
L 249.944963 143.312767 
L 250.5543 157.0056 
L 252.38231 146.316361 
L 254.210319 136.836008 
L 255.428993 131.119206 
L 256.038329 145.290217 
L 257.866339 135.925915 
L 259.694349 127.620657 
L 261.522359 120.254672 
L 263.350369 113.721734 
L 265.178378 107.92763 
L 266.397052 137.497208 
L 268.225061 129.014247 
L 270.053071 121.490655 
L 271.271744 116.953811 
L 271.881081 131.680328 
L 272.490418 128.966942 
L 273.099754 143.222356 
L 274.927764 134.091916 
L 275.537101 148.146351 
L 276.755774 141.559856 
L 277.365111 155.32143 
L 279.19312 144.822661 
L 281.02113 135.511236 
L 282.84914 127.252876 
L 284.067813 122.272954 
L 284.67715 136.790877 
L 286.50516 128.387797 
L 288.33317 120.935053 
L 290.161179 114.325168 
L 290.770516 112.292377 
L 291.379853 127.201695 
L 292.598526 122.225708 
L 293.207862 136.745485 
L 295.035872 128.347538 
L 295.645209 142.627243 
L 297.473219 133.564106 
L 298.082555 130.776847 
L 298.691892 144.961284 
L 300.519902 135.634182 
L 302.347912 127.361917 
L 303.566585 155.437126 
L 304.175921 151.792101 
L 304.785258 165.15241 
L 305.394595 161.126394 
L 306.613268 186.605333 
L 307.831941 177.061593 
L 308.441278 189.430942 
L 309.050614 184.452826 
L 309.659951 196.532323 
L 311.487961 181.372859 
L 312.097297 176.710746 
L 312.706634 189.093854 
L 314.534644 174.775634 
L 315.753317 166.141521 
L 316.362654 178.939108 
L 318.190663 165.769326 
L 318.8 161.719117 
L 320.62801 199.126108 
L 321.237346 210.630182 
L 323.065356 193.876338 
L 324.893366 179.017249 
L 326.721376 165.83863 
L 328.549386 154.150431 
L 330.377396 143.784094 
L 331.596069 137.533028 
L 332.205405 151.452517 
L 334.033415 141.391297 
L 335.861425 132.467939 
L 337.689435 124.553756 
L 339.517445 117.534618 
L 341.345455 111.309301 
L 343.173464 105.788029 
L 345.001474 100.891177 
L 346.829484 96.548129 
L 348.657494 92.696253 
L 350.485504 89.28 
L 351.09484 105.091765 
L 352.92285 100.273657 
L 354.75086 96.000446 
L 356.57887 92.21051 
L 357.188206 107.907352 
L 357.797543 106.12624 
L 358.40688 121.277368 
L 359.625553 116.756923 
L 360.234889 131.491162 
L 362.062899 123.687447 
L 362.672236 138.1499 
L 364.500246 129.593123 
L 366.328256 122.004064 
L 367.546929 117.427741 
L 368.156265 132.135673 
L 369.374939 126.780296 
L 369.984275 141.12146 
L 370.593612 138.037834 
L 371.202948 151.937527 
L 371.812285 148.429741 
L 373.640295 187.339678 
L 375.468305 173.219844 
L 377.296314 160.696875 
L 377.905651 173.707978 
L 378.514988 169.346449 
L 379.124324 182.018353 
L 380.952334 168.500328 
L 382.171007 160.348745 
L 382.780344 173.3735 
L 383.389681 169.025088 
L 384.608354 193.896669 
L 386.436364 179.03528 
L 388.264373 165.854622 
L 390.092383 154.164614 
L 391.920393 143.796673 
L 393.748403 134.601282 
L 394.967076 162.11983 
L 396.795086 150.852203 
L 397.404423 147.386979 
L 398.013759 160.920039 
L 399.841769 149.788102 
L 401.669779 139.915117 
L 403.497789 131.158705 
L 405.325799 123.392589 
L 406.544472 118.709497 
L 407.763145 147.45002 
L 409.591155 137.841458 
L 411.419165 177.948863 
L 412.028501 190.283418 
L 412.637838 185.271871 
L 413.247174 197.319249 
L 414.465848 186.951678 
L 415.075184 198.933181 
L 416.903194 183.502194 
L 417.512531 178.756578 
L 418.121867 191.059458 
L 419.949877 176.51894 
L 421.777887 163.622864 
L 422.99656 155.846326 
L 423.605897 169.047647 
L 424.82457 160.853978 
L 425.433907 173.85892 
L 426.043243 169.491472 
L 427.261916 194.327191 
L 428.48059 184.18969 
L 429.699263 207.895212 
L 431.527273 191.450676 
L 433.355283 176.865914 
L 434.573956 168.071071 
L 435.792629 193.01601 
L 437.620639 178.254219 
L 438.229975 190.576798 
L 440.057985 176.090867 
L 441.885995 163.243203 
L 443.714005 151.84853 
L 445.542015 141.742524 
L 446.760688 168.711957 
L 448.588698 156.698802 
L 450.416708 146.04426 
L 452.244717 136.594681 
L 454.072727 128.213789 
L 454.682064 142.498739 
L 456.510074 133.450135 
L 458.338084 125.424873 
L 458.94742 122.956799 
L 459.556757 137.447905 
L 461.384767 128.970519 
L 463.212776 121.451873 
L 465.040786 114.783539 
L 466.259459 110.762428 
L 466.868796 125.731744 
L 468.696806 118.579383 
L 469.306143 116.37976 
L 469.915479 131.128789 
L 471.134152 125.850834 
L 471.743489 140.228448 
L 473.571499 131.436601 
L 475.399509 123.639056 
L 477.227518 116.723365 
L 478.446192 112.553094 
L 479.055528 127.452188 
L 480.274201 122.45694 
L 481.492875 150.909309 
L 482.102211 147.441846 
L 482.711548 160.972754 
L 483.320885 157.110645 
L 485.148894 195.038826 
L 485.758231 206.703185 
L 487.586241 190.39346 
L 488.195577 202.239991 
L 489.414251 191.494047 
L 490.023587 203.297418 
L 490.632924 197.775518 
L 491.24226 209.332557 
L 493.07027 192.725466 
L 494.89828 177.996533 
L 496.72629 164.933351 
L 497.335627 177.778318 
L 497.944963 173.257167 
L 498.5543 185.77571 
L 500.38231 171.832751 
L 500.991646 184.407153 
L 502.819656 170.61897 
L 503.428993 183.240971 
L 505.257002 169.584675 
L 507.085012 157.472822 
L 508.913022 146.730743 
L 510.741032 137.203526 
L 511.350369 151.135937 
L 513.178378 141.110521 
L 515.006388 132.218916 
L 515.615725 146.346802 
L 517.443735 136.863006 
L 519.271744 177.081068 
L 521.099754 164.121419 
L 522.927764 152.627426 
L 524.755774 142.433331 
L 525.365111 156.160652 
L 527.19312 145.566971 
L 527.802457 142.309011 
L 529.630467 181.911164 
L 531.458477 168.405261 
L 532.67715 160.260988 
L 533.286486 173.289185 
L 535.114496 160.758374 
L 536.33317 153.202097 
L 536.942506 166.507113 
L 538.770516 154.743312 
L 539.379853 151.125495 
L 539.989189 164.511946 
L 540.598526 160.511046 
L 541.207862 173.529437 
L 543.035872 160.971455 
L 544.863882 149.833703 
L 546.691892 139.955561 
L 548.519902 131.194575 
L 549.129238 145.362631 
L 550.957248 135.990139 
L 552.785258 127.677618 
L 554.613268 120.305191 
L 556.441278 113.766539 
L 557.050614 111.755655 
L 557.659951 126.686021 
L 558.269287 124.16849 
L 558.878624 138.612079 
L 560.706634 130.003033 
L 562.534644 122.367616 
L 563.753317 117.763338 
L 564.362654 132.458109 
L 566.190663 124.545038 
L 568.018673 117.526886 
L 569.846683 111.302444 
L 570.45602 126.250583 
L 572.284029 119.039545 
L 574.112039 112.64403 
L 575.940049 106.971808 
L 577.158722 103.551368 
L 577.768059 118.803471 
L 578.377396 116.59506 
L 578.986732 131.335646 
L 579.596069 128.635777 
L 580.205405 142.904178 
L 580.814742 139.750641 
L 581.424079 153.583165 
L 583.252088 143.280982 
L 585.080098 134.143912 
L 586.908108 126.040187 
L 588.736118 118.852943 
L 589.345455 116.642592 
L 589.954791 131.381314 
L 591.782801 123.590022 
L 592.392138 121.193903 
L 593.001474 135.754142 
L 593.610811 132.880999 
L 594.220147 146.98292 
L 596.048157 137.427184 
L 596.657494 151.350824 
L 597.876167 144.517926 
L 598.485504 158.163498 
L 600.313514 147.343308 
L 600.92285 144.015687 
L 601.532187 157.680955 
L 603.360197 146.915337 
L 605.188206 185.996543 
L 605.797543 181.15311 
L 606.40688 193.362008 
L 608.234889 178.561086 
L 609.453563 169.635896 
L 610.062899 182.296449 
L 611.890909 168.746973 
L 612.500246 164.579993 
L 613.109582 177.438817 
L 614.328256 168.599922 
L 615.546929 193.504196 
L 617.374939 178.687193 
L 619.202948 165.545902 
L 621.030958 153.890808 
L 621.640295 150.306423 
L 622.858968 176.617348 
L 624.686978 163.710143 
L 626.514988 152.262662 
L 627.733661 145.35965 
L 628.342998 158.972213 
L 628.952334 155.188557 
L 629.561671 168.415672 
L 630.171007 164.261684 
L 630.780344 177.132991 
L 632.608354 164.16747 
L 633.21769 160.180078 
L 633.827027 173.211448 
L 635.655037 160.689429 
L 637.483047 149.583572 
L 639.311057 139.733718 
L 640.52973 133.7941 
L 641.139066 147.860214 
L 641.748403 144.512323 
L 642.967076 171.268776 
L 644.795086 158.966461 
L 646.013759 151.54797 
L 646.623096 164.917854 
L 647.232432 160.901036 
L 647.841769 173.904132 
L 649.669779 161.303775 
L 651.497789 150.128439 
L 652.107125 163.553991 
L 652.716462 159.590657 
L 653.325799 172.645141 
L 655.153808 160.187168 
L 655.763145 156.355867 
L 656.372482 169.537205 
L 658.200491 157.43072 
L 658.809828 170.569908 
L 660.637838 158.34663 
L 661.856511 150.975801 
L 663.075184 177.235255 
L 664.903194 164.258168 
L 665.512531 177.129612 
L 666.731204 168.314493 
L 667.340541 181.026866 
L 667.949877 176.378322 
L 668.559214 188.774466 
L 670.387224 174.492367 
L 672.215233 161.825484 
L 672.82457 157.929935 
L 673.433907 171.049545 
L 675.261916 158.772024 
L 677.089926 147.883014 
L 678.917936 138.225482 
L 679.527273 135.255424 
L 680.136609 149.264231 
L 681.964619 139.450493 
L 683.792629 130.746627 
L 684.401966 144.932249 
L 686.229975 135.608431 
L 686.839312 149.603395 
L 688.667322 139.751299 
L 689.885995 166.873844 
L 691.714005 155.068569 
L 692.323342 151.437997 
L 692.932678 164.812193 
L 693.542015 160.799518 
L 694.151351 173.806596 
L 694.760688 169.4412 
L 695.370025 182.109388 
L 697.198034 168.581067 
L 699.026044 156.582715 
L 700.244717 149.347519 
L 700.854054 162.803695 
L 701.463391 158.869785 
L 702.072727 171.952538 
L 703.900737 159.572894 
L 704.510074 155.765682 
L 705.11941 168.970165 
L 706.94742 156.927809 
L 707.556757 153.224326 
L 708.166093 166.52847 
L 709.994103 154.762254 
L 710.60344 168.006087 
L 712.43145 156.072762 
L 714.259459 145.489021 
L 716.087469 136.102235 
L 716.696806 150.077834 
L 717.306143 146.642977 
L 717.915479 160.205214 
L 719.743489 149.154118 
L 721.571499 139.352833 
L 722.790172 166.506018 
L 724.618182 154.742341 
L 726.446192 144.309063 
L 728.274201 135.055723 
L 728.883538 149.072361 
L 730.102211 142.414663 
L 730.711548 156.142715 
L 731.320885 152.47002 
L 731.930221 165.803744 
L 733.758231 154.11949 
L 734.976904 147.0737 
L 736.195577 173.6332 
L 737.414251 165.086933 
L 738.023587 177.925876 
L 738.632924 173.39894 
L 739.851597 197.9342 
L 741.679607 182.616192 
L 743.507617 169.030555 
L 745.335627 156.981369 
L 745.944963 170.138178 
L 747.163636 161.860655 
L 747.163636 161.860655 
" style="fill:none;stroke:#1f77b4;stroke-linecap:square;stroke-width:1.5;"/>
   </g>
   <g id="line2d_13">
    <path clip-path="url(#p9b7da941fc)" d="M 138.436364 492.48 
L 140.264373 443.850701 
L 142.092383 400.721072 
L 142.70172 404.319461 
L 143.311057 390.914345 
L 143.920393 394.897311 
L 145.748403 357.304005 
L 146.35774 362.605025 
L 148.185749 328.663774 
L 150.013759 347.190367 
L 150.623096 352.887999 
L 152.451106 320.045684 
L 154.279115 290.91763 
L 155.497789 306.416466 
L 157.325799 278.829791 
L 159.153808 254.362997 
L 160.981818 232.663244 
L 161.591155 242.852137 
L 163.419165 222.45419 
L 165.247174 204.363125 
L 167.075184 188.318045 
L 168.903194 174.087565 
L 169.512531 169.71115 
L 170.121867 182.368752 
L 171.949877 168.811099 
L 173.777887 156.786732 
L 175.605897 146.122246 
L 177.433907 136.663846 
L 178.043243 133.755028 
L 179.871253 174.324583 
L 180.48059 169.938874 
L 181.089926 182.587545 
L 181.699263 177.877798 
L 182.3086 190.215139 
L 184.136609 175.770109 
L 185.964619 162.958721 
L 187.792629 151.596221 
L 189.620639 141.51875 
L 191.448649 132.580977 
L 192.057985 129.832271 
L 192.667322 144.053751 
L 194.495332 134.829285 
L 196.323342 126.648049 
L 197.542015 121.714634 
L 198.151351 136.254453 
L 199.979361 127.912039 
L 200.588698 125.346429 
L 201.198034 139.743824 
L 203.026044 131.006784 
L 204.244717 125.738211 
L 204.854054 140.120242 
L 205.463391 137.075879 
L 206.682064 164.404147 
L 207.2914 160.407474 
L 207.900737 173.429926 
L 208.510074 169.079301 
L 209.11941 181.761681 
L 209.728747 177.084321 
L 210.338084 189.452779 
L 212.166093 175.093967 
L 212.77543 187.540478 
L 214.60344 173.397935 
L 216.43145 160.854825 
L 218.259459 149.730263 
L 220.087469 139.863819 
L 221.915479 131.113209 
L 223.134152 125.836452 
L 223.743489 140.214631 
L 224.962162 134.238034 
L 226.180835 161.784513 
L 227.399509 154.149333 
L 228.008845 167.417202 
L 228.618182 163.30237 
L 229.227518 176.211297 
L 229.836855 171.751598 
L 230.446192 184.329183 
L 232.274201 170.549817 
L 234.102211 206.958111 
L 235.930221 190.619555 
L 237.148894 180.767147 
L 238.976904 216.019925 
L 240.804914 198.656534 
L 242.632924 183.256835 
L 244.460934 169.598745 
L 245.679607 161.362701 
L 246.288943 174.347693 
L 248.116953 161.697172 
L 249.944963 150.477345 
L 250.5543 163.889214 
L 252.38231 152.421482 
L 254.210319 142.250678 
L 255.428993 136.117522 
L 256.038329 150.092521 
L 257.866339 140.185109 
L 259.694349 131.398162 
L 261.522359 123.604965 
L 263.350369 116.693129 
L 265.178378 110.562979 
L 266.397052 139.929917 
L 268.225061 131.171831 
L 270.053071 123.40423 
L 271.271744 118.720244 
L 271.881081 133.377489 
L 272.490418 130.597548 
L 273.099754 144.789017 
L 274.927764 135.481397 
L 275.537101 149.481342 
L 276.755774 142.792196 
L 277.365111 156.505443 
L 279.19312 145.872769 
L 281.02113 136.442584 
L 282.84914 128.078894 
L 284.067813 123.035456 
L 284.67715 137.523477 
L 286.50516 129.037545 
L 288.33317 121.511319 
L 290.161179 114.836261 
L 290.770516 112.783427 
L 291.379853 127.673489 
L 292.598526 122.661224 
L 293.207862 137.163921 
L 295.035872 128.718653 
L 295.645209 142.983803 
L 297.473219 133.880342 
L 298.082555 131.080681 
L 298.691892 145.253204 
L 300.519902 135.893087 
L 302.347912 127.591542 
L 303.566585 155.649094 
L 304.175921 151.995756 
L 306.003931 190.502399 
L 306.613268 202.344657 
L 307.831941 191.590665 
L 308.441278 203.390247 
L 309.050614 197.864707 
L 309.659951 209.418248 
L 311.487961 192.801466 
L 312.097297 187.691173 
L 312.706634 199.643676 
L 314.534644 184.132337 
L 315.753317 174.778754 
L 316.362654 187.237626 
L 318.190663 173.129334 
L 318.8 168.790497 
L 320.62801 205.397759 
L 321.237346 216.655886 
L 323.065356 199.220572 
L 324.893366 183.757084 
L 326.721376 170.042419 
L 328.549386 157.878797 
L 330.377396 147.090805 
L 331.596069 140.585475 
L 332.205405 154.385261 
L 334.033415 143.992366 
L 335.861425 134.774843 
L 337.689435 126.599764 
L 339.517445 119.349235 
L 341.345455 112.918696 
L 343.173464 107.215411 
L 345.001474 102.157132 
L 346.829484 97.670912 
L 348.657494 93.692056 
L 350.485504 90.163184 
L 351.09484 105.940314 
L 352.92285 101.02624 
L 354.75086 96.667918 
L 356.57887 92.802494 
L 357.188206 108.476122 
L 357.797543 106.672705 
L 358.40688 121.802403 
L 359.625553 117.241586 
L 360.234889 131.956818 
L 362.062899 124.10044 
L 362.672236 138.546697 
L 364.500246 129.945045 
L 366.328256 122.316186 
L 367.546929 117.715863 
L 368.156265 132.412496 
L 369.374939 127.035833 
L 369.984275 141.366977 
L 370.593612 138.273722 
L 371.202948 152.164164 
L 371.812285 148.647491 
L 373.640295 187.532801 
L 375.468305 173.391126 
L 377.296314 160.848787 
L 377.905651 173.853933 
L 378.514988 169.48668 
L 379.124324 182.153085 
L 380.952334 168.619822 
L 382.171007 160.459051 
L 382.780344 173.47948 
L 383.389681 169.126912 
L 384.608354 193.990663 
L 386.436364 179.118645 
L 388.264373 165.928559 
L 390.092383 154.230189 
L 391.920393 143.854832 
L 393.748403 134.652863 
L 394.967076 162.167445 
L 396.795086 150.894433 
L 397.404423 147.427553 
L 398.623096 173.959844 
L 400.451106 161.353186 
L 402.279115 150.172263 
L 404.107125 140.255832 
L 405.935135 131.460887 
L 406.544472 128.756107 
L 407.763145 156.724111 
L 409.591155 146.066707 
L 411.419165 185.243888 
L 412.028501 197.292363 
L 412.637838 192.005956 
L 413.247174 203.789252 
L 414.465848 192.924179 
L 415.075184 204.671466 
L 416.903194 188.591516 
L 417.512531 183.646319 
L 418.121867 195.757443 
L 419.949877 180.685613 
L 421.777887 167.318313 
L 422.99656 159.257619 
L 423.605897 172.325163 
L 424.82457 163.879475 
L 425.433907 176.76577 
L 426.043243 172.284327 
L 427.261916 196.905294 
L 428.48059 186.569554 
L 429.699263 210.092079 
L 431.527273 193.399091 
L 433.355283 178.593976 
L 434.573956 169.666256 
L 435.792629 194.488536 
L 437.620639 179.560211 
L 438.229975 191.831575 
L 440.057985 177.203736 
L 441.885995 164.230214 
L 443.714005 152.723917 
L 445.542015 142.518909 
L 446.760688 169.428643 
L 448.588698 157.334436 
L 450.416708 146.608008 
L 452.244717 137.094672 
L 454.072727 128.657235 
L 454.682064 142.924794 
L 456.510074 133.828007 
L 458.338084 125.760009 
L 458.94742 123.278792 
L 459.556757 137.757271 
L 461.384767 129.244898 
L 463.212776 121.695221 
L 465.040786 114.999366 
L 466.259459 110.961659 
L 466.868796 125.923163 
L 468.696806 118.749153 
L 469.306143 116.542872 
L 469.915479 131.285505 
L 471.134152 125.9955 
L 471.743489 140.367441 
L 473.571499 131.559874 
L 475.399509 123.748388 
L 477.227518 116.820332 
L 478.446192 112.642605 
L 479.055528 127.538189 
L 480.274201 122.536328 
L 481.492875 150.982593 
L 482.102211 147.512255 
L 482.711548 161.040402 
L 483.320885 157.175641 
L 485.148894 195.096471 
L 485.758231 206.75857 
L 487.586241 190.442581 
L 488.195577 202.287185 
L 489.414251 191.537612 
L 490.023587 203.339275 
L 490.632924 197.815734 
L 491.24226 209.371195 
L 493.07027 192.759735 
L 494.89828 178.026926 
L 496.72629 164.960307 
L 497.335627 177.804216 
L 497.944963 173.282051 
L 498.5543 185.799617 
L 500.38231 171.853955 
L 500.991646 184.427525 
L 502.819656 170.637038 
L 503.428993 183.25833 
L 505.257002 169.600072 
L 507.085012 157.486477 
L 508.913022 146.742854 
L 510.741032 137.214268 
L 511.350369 151.146257 
L 513.178378 141.119673 
L 515.006388 132.227034 
L 515.615725 146.354601 
L 517.443735 136.869924 
L 518.662408 164.214028 
L 519.271744 160.224811 
L 519.881081 173.254426 
L 521.709091 160.727546 
L 523.537101 149.617379 
L 524.755774 142.917772 
L 525.365111 156.626094 
L 527.19312 145.979775 
L 527.802457 142.705627 
L 529.630467 182.262925 
L 530.239803 194.4283 
L 532.067813 179.506788 
L 532.67715 174.917854 
L 533.286486 187.371272 
L 535.114496 173.247865 
L 536.33317 164.731227 
L 536.942506 177.58412 
L 538.770516 164.567579 
L 539.379853 160.564497 
L 539.989189 173.580791 
L 540.598526 169.22425 
L 541.207862 181.900946 
L 543.035872 168.396199 
L 544.863882 156.418755 
L 546.691892 145.795884 
L 548.519902 136.374394 
L 549.129238 150.33932 
L 550.957248 140.403996 
L 552.785258 131.592295 
L 554.613268 123.777142 
L 556.441278 116.845835 
L 557.050614 114.714194 
L 557.659951 129.528539 
L 558.269287 126.899537 
L 558.878624 141.236026 
L 560.706634 132.330227 
L 562.534644 124.431619 
L 563.753317 119.668633 
L 564.362654 134.288687 
L 566.190663 126.168589 
L 568.018673 118.966824 
L 569.846683 112.579533 
L 570.45602 127.477591 
L 572.284029 120.127785 
L 574.112039 113.609197 
L 575.940049 107.827821 
L 577.158722 104.341559 
L 577.768059 119.562674 
L 578.377396 117.32449 
L 578.986732 132.036471 
L 579.596069 129.309119 
L 580.205405 143.551114 
L 580.814742 140.372207 
L 581.424079 154.180356 
L 583.252088 143.810635 
L 585.080098 134.613664 
L 586.908108 126.456813 
L 588.736118 119.222452 
L 589.345455 116.99761 
L 589.954791 131.72241 
L 591.782801 123.892542 
L 592.392138 121.484559 
L 593.001474 136.0334 
L 593.610811 133.149305 
L 594.220147 147.240705 
L 596.048157 137.655815 
L 596.657494 151.570489 
L 597.876167 144.7207 
L 598.485504 158.35832 
L 600.313514 147.516097 
L 600.92285 144.181701 
L 601.532187 157.840457 
L 603.360197 147.056801 
L 605.188206 186.122009 
L 605.797543 181.273655 
L 606.40688 193.477825 
L 608.234889 178.663806 
L 609.453563 169.730717 
L 610.062899 182.387552 
L 611.890909 168.827773 
L 612.500246 164.657624 
L 613.109582 177.513404 
L 614.328256 168.668773 
L 615.546929 193.567753 
L 617.374939 178.743563 
L 619.202948 165.595896 
L 621.030958 153.935148 
L 621.640295 150.349024 
L 622.858968 176.656673 
L 624.686978 163.745021 
L 626.514988 152.293596 
L 627.733661 145.388205 
L 628.342998 158.999648 
L 628.952334 155.214916 
L 629.561671 168.440998 
L 630.171007 164.286017 
L 630.780344 177.156369 
L 632.608354 164.188204 
L 633.21769 160.2 
L 633.827027 173.230588 
L 635.655037 160.706404 
L 637.483047 149.598628 
L 639.311057 139.747071 
L 640.52973 133.806426 
L 641.139066 147.872057 
L 641.748403 144.523701 
L 642.967076 171.27928 
L 644.795086 158.975777 
L 646.013759 151.55657 
L 646.623096 164.926116 
L 647.232432 160.908974 
L 647.841769 173.911759 
L 649.669779 161.310539 
L 651.497789 150.134439 
L 652.107125 163.559755 
L 652.716462 159.596195 
L 653.325799 172.650462 
L 655.153808 160.191887 
L 655.763145 156.360401 
L 656.372482 169.541562 
L 658.200491 157.434584 
L 658.809828 170.57362 
L 660.637838 158.349923 
L 661.856511 150.97884 
L 663.075184 177.23806 
L 664.903194 164.260656 
L 665.512531 177.132003 
L 666.731204 168.3167 
L 667.340541 181.028986 
L 667.949877 176.380359 
L 668.559214 188.776423 
L 670.387224 174.494103 
L 672.215233 161.827023 
L 672.82457 157.931414 
L 673.433907 171.050967 
L 675.261916 158.773284 
L 677.089926 147.884132 
L 678.917936 138.226474 
L 679.527273 135.256376 
L 680.136609 149.265146 
L 681.964619 139.451304 
L 683.792629 130.747347 
L 684.401966 144.932941 
L 686.229975 135.609044 
L 686.839312 149.603984 
L 688.667322 139.751822 
L 689.885995 166.874327 
L 691.714005 155.068997 
L 692.323342 151.438408 
L 692.932678 164.812588 
L 693.542015 160.799898 
L 694.151351 173.806961 
L 694.760688 169.44155 
L 695.370025 182.109724 
L 697.198034 168.581366 
L 699.026044 156.58298 
L 700.244717 149.347764 
L 700.854054 162.80393 
L 701.463391 158.87001 
L 702.072727 171.952755 
L 703.900737 159.573086 
L 704.510074 155.765867 
L 705.11941 168.970343 
L 706.94742 156.927966 
L 707.556757 153.224477 
L 708.166093 166.528615 
L 709.994103 154.762383 
L 710.60344 168.006211 
L 712.43145 156.072872 
L 714.259459 145.489118 
L 716.087469 136.102322 
L 716.696806 150.077917 
L 717.306143 146.643057 
L 717.915479 160.20529 
L 719.743489 149.154186 
L 721.571499 139.352893 
L 722.790172 166.506073 
L 724.618182 154.74239 
L 726.446192 144.309107 
L 728.274201 135.055762 
L 728.883538 149.072399 
L 730.102211 142.414697 
L 730.711548 156.142748 
L 731.320885 152.470052 
L 731.930221 165.803775 
L 733.758231 154.119518 
L 734.976904 147.073725 
L 736.804914 186.137019 
L 737.414251 181.288076 
L 738.023587 193.491681 
L 738.632924 188.354321 
L 739.851597 211.739609 
L 741.679607 194.860296 
L 743.507617 179.889927 
L 745.335627 166.612614 
L 745.944963 179.391727 
L 747.163636 170.402666 
L 747.163636 170.402666 
" style="fill:none;stroke:#ff7f0e;stroke-linecap:square;stroke-width:1.5;"/>
   </g>
   <g id="line2d_14">
    <path clip-path="url(#p9b7da941fc)" d="M 138.436364 492.48 
L 139.655037 459.416485 
L 140.264373 460.713093 
L 141.483047 430.092247 
L 142.70172 434.88946 
L 143.920393 406.254283 
L 144.52973 409.635684 
L 146.35774 370.37556 
L 146.967076 358.301577 
L 147.576413 363.563476 
L 148.185749 351.756633 
L 150.013759 367.671567 
L 151.232432 344.20501 
L 151.841769 350.019715 
L 153.060442 327.910471 
L 153.669779 334.364178 
L 154.279115 323.702405 
L 155.497789 336.680306 
L 156.716462 315.596775 
L 157.325799 322.533372 
L 159.153808 293.123976 
L 159.763145 300.941859 
L 160.981818 282.606382 
L 162.200491 298.7443 
L 163.419165 280.577802 
L 164.028501 288.887692 
L 165.856511 263.283412 
L 166.465848 272.271513 
L 168.293857 248.546419 
L 168.903194 258.112442 
L 169.512531 250.440934 
L 170.731204 269.052165 
L 172.559214 245.69116 
L 173.16855 238.506761 
L 173.777887 248.466496 
L 175.605897 227.4336 
L 176.215233 220.965184 
L 176.82457 231.612824 
L 178.043243 218.6083 
L 179.871253 249.58148 
L 181.089926 235.195283 
L 182.3086 254.978806 
L 183.527273 240.177589 
L 184.136609 250.071801 
L 185.964619 228.857356 
L 186.573956 222.333107 
L 187.183292 232.927102 
L 189.011302 213.651616 
L 189.620639 207.723669 
L 190.229975 218.890584 
L 192.057985 201.20254 
L 193.276658 223.599884 
L 195.104668 205.379248 
L 195.714005 199.775708 
L 196.323342 211.254308 
L 197.542015 199.815221 
L 198.760688 222.319241 
L 200.588698 204.243437 
L 201.807371 226.406956 
L 203.635381 207.868857 
L 205.463391 191.427301 
L 206.072727 186.370897 
L 206.682064 198.375176 
L 207.2914 193.046305 
L 207.900737 204.788803 
L 209.728747 188.695582 
L 210.338084 183.746304 
L 210.94742 195.853508 
L 212.166093 185.598643 
L 212.77543 197.633206 
L 213.384767 192.333433 
L 213.994103 204.103886 
L 215.822113 188.088125 
L 217.040786 178.430368 
L 217.650123 190.74604 
L 219.478133 176.240968 
L 221.306143 163.376329 
L 221.915479 176.282355 
L 223.134152 167.532385 
L 224.352826 192.518745 
L 224.962162 187.419539 
L 226.790172 221.919973 
L 227.399509 215.667777 
L 228.008845 226.523158 
L 229.227518 213.909996 
L 230.446192 235.33022 
L 232.274201 215.782955 
L 233.492875 203.995645 
L 234.102211 215.308757 
L 235.930221 198.025795 
L 237.148894 187.603895 
L 237.758231 199.559821 
L 238.976904 189.019965 
L 239.586241 200.920358 
L 241.414251 185.264634 
L 242.632924 175.823985 
L 243.24226 188.241868 
L 245.07027 174.020002 
L 245.679607 169.646237 
L 246.89828 194.470056 
L 248.72629 179.543821 
L 249.944963 170.543065 
L 251.163636 195.297923 
L 252.991646 180.278062 
L 253.600983 175.658882 
L 254.210319 188.08324 
L 255.428993 178.425858 
L 256.038329 190.741707 
L 257.257002 180.879906 
L 257.866339 193.099517 
L 259.694349 178.328282 
L 261.522359 165.227581 
L 262.131695 161.198616 
L 262.741032 174.190043 
L 264.569042 161.557351 
L 265.178378 157.672317 
L 265.787715 170.80203 
L 266.397052 166.55446 
L 267.006388 179.335854 
L 268.834398 166.121203 
L 270.662408 154.401046 
L 271.271744 150.796652 
L 273.099754 189.438905 
L 273.709091 184.460477 
L 274.318428 196.539674 
L 274.927764 191.282785 
L 275.537101 203.09444 
L 276.755774 192.282794 
L 277.974447 215.366009 
L 279.802457 198.076572 
L 281.02113 187.650768 
L 281.630467 199.604855 
L 283.458477 184.097907 
L 284.067813 179.32893 
L 284.67715 191.609364 
L 285.286486 186.54582 
L 285.895823 198.543238 
L 287.723833 183.156352 
L 289.551843 169.509626 
L 291.379853 157.40626 
L 291.989189 170.546407 
L 292.598526 166.308861 
L 293.207862 179.099886 
L 295.035872 165.911921 
L 296.254545 191.022885 
L 298.082555 176.486503 
L 299.301229 200.78435 
L 301.129238 185.144008 
L 302.347912 175.712634 
L 302.957248 188.134884 
L 303.566585 183.207594 
L 304.785258 206.988632 
L 305.394595 201.321979 
L 306.003931 212.739941 
L 306.613268 206.847747 
L 307.222604 218.049012 
L 307.831941 211.948618 
L 308.441278 222.949849 
L 309.659951 210.611451 
L 310.269287 221.66512 
L 312.097297 203.663293 
L 312.706634 214.989439 
L 313.925307 203.263145 
L 314.534644 214.604982 
L 315.753317 202.908251 
L 316.362654 214.264005 
L 318.190663 197.099198 
L 320.018673 230.504923 
L 320.62801 240.778456 
L 321.237346 233.786712 
L 321.846683 243.931547 
L 323.674693 223.411526 
L 325.502703 205.212191 
L 326.112039 216.477596 
L 327.940049 199.062445 
L 329.768059 183.61684 
L 331.596069 169.918036 
L 332.814742 194.720955 
L 334.642752 179.766345 
L 336.470762 166.503008 
L 337.689435 158.505006 
L 338.298771 171.602064 
L 340.126781 159.262057 
L 341.954791 148.317627 
L 343.782801 138.610943 
L 345.001474 132.75766 
L 345.610811 146.864418 
L 347.438821 137.322084 
L 349.26683 128.858928 
L 350.485504 123.755511 
L 351.704177 152.108028 
L 353.532187 141.972674 
L 355.360197 132.983565 
L 356.57887 127.56299 
L 358.40688 168.832826 
L 359.625553 160.655676 
L 360.844226 186.17081 
L 362.062899 176.660482 
L 362.672236 189.045561 
L 364.500246 174.732803 
L 365.109582 170.331084 
L 365.718919 182.964375 
L 367.546929 169.339361 
L 368.156265 182.011543 
L 369.374939 172.821035 
L 371.202948 208.972468 
L 371.812285 203.228018 
L 372.421622 214.571233 
L 373.640295 202.877097 
L 374.249631 214.234073 
L 376.077641 197.072651 
L 377.296314 186.724042 
L 379.124324 221.303132 
L 380.952334 203.342244 
L 382.171007 192.511544 
L 383.999017 226.436103 
L 385.21769 246.89315 
L 387.0457 226.038191 
L 388.87371 207.541797 
L 390.70172 191.13723 
L 392.52973 176.587917 
L 393.139066 188.975842 
L 393.748403 184.015573 
L 394.967076 207.734483 
L 396.185749 196.566048 
L 396.795086 208.170517 
L 397.404423 202.457516 
L 398.013759 213.830946 
L 399.841769 196.715116 
L 401.669779 181.534979 
L 402.888452 172.381115 
L 403.497789 184.934013 
L 405.325799 171.086245 
L 406.544472 162.735821 
L 408.372482 200.02783 
L 409.591155 189.451986 
L 410.809828 212.752872 
L 412.028501 201.198555 
L 413.247174 223.596206 
L 414.465848 211.208107 
L 415.684521 232.836088 
L 417.512531 213.570895 
L 418.121867 224.508507 
L 419.949877 206.185111 
L 420.559214 217.412361 
L 422.387224 199.891495 
L 422.99656 194.503161 
L 423.605897 206.188527 
L 424.82457 195.138966 
L 426.65258 228.766381 
L 427.261916 239.108092 
L 429.089926 219.133574 
L 429.699263 212.990649 
L 430.3086 223.951015 
L 432.136609 205.690668 
L 433.964619 189.495452 
L 434.573956 184.514806 
L 435.183292 196.591873 
L 435.792629 191.332936 
L 436.401966 203.142625 
L 437.620639 192.327274 
L 438.229975 204.097969 
L 439.448649 193.209159 
L 440.057985 204.94527 
L 441.885995 188.834354 
L 443.714005 174.545482 
L 445.542015 161.872592 
L 447.370025 199.262226 
L 449.198034 183.794026 
L 451.026044 170.075184 
L 452.854054 157.907857 
L 454.072727 150.570766 
L 455.2914 176.861364 
L 457.11941 163.926562 
L 458.94742 152.454606 
L 459.556757 165.788935 
L 460.77543 157.84584 
L 461.384767 170.968749 
L 463.212776 158.700365 
L 465.040786 147.819459 
L 466.259459 141.2581 
L 466.868796 155.031508 
L 468.696806 144.565526 
L 469.915479 138.254374 
L 470.524816 152.145575 
L 471.134152 148.62963 
L 471.743489 162.113959 
L 473.571499 150.846996 
L 475.399509 140.854257 
L 476.618182 134.828477 
L 477.227518 148.854027 
L 478.446192 142.213117 
L 479.055528 155.949073 
L 480.274201 148.7626 
L 482.102211 187.634892 
L 482.711548 199.589602 
L 483.320885 194.213107 
L 483.930221 205.909848 
L 485.758231 189.689844 
L 486.367568 201.563968 
L 487.586241 190.870006 
L 488.804914 214.061854 
L 489.414251 208.11782 
L 490.023587 219.269279 
L 490.632924 213.121032 
L 491.851597 234.601921 
L 493.679607 215.137023 
L 495.507617 197.873483 
L 496.72629 187.463295 
L 497.335627 199.424735 
L 497.944963 194.054705 
L 499.163636 217.001671 
L 500.38231 205.12065 
L 500.991646 216.389644 
L 502.819656 198.984441 
L 504.038329 221.552342 
L 505.866339 203.56327 
L 507.694349 187.608649 
L 509.522359 173.458397 
L 510.741032 164.92557 
L 511.350369 177.770842 
L 512.569042 168.906416 
L 513.178378 181.595576 
L 515.006388 168.125365 
L 515.615725 180.845154 
L 517.443735 167.459811 
L 518.662408 192.451752 
L 519.271744 187.355173 
L 519.881081 199.320852 
L 521.709091 183.846022 
L 523.537101 170.121299 
L 524.755774 161.845074 
L 525.974447 187.268751 
L 527.802457 173.156939 
L 529.02113 197.710808 
L 529.630467 192.407991 
L 530.239803 204.175521 
L 532.067813 188.151659 
L 532.67715 183.223711 
L 533.286486 195.351408 
L 535.114496 180.325498 
L 536.942506 166.998924 
L 537.551843 179.762888 
L 539.379853 166.499942 
L 539.989189 179.283474 
L 540.598526 174.703298 
L 541.817199 199.138261 
L 543.645209 183.684082 
L 545.473219 169.977673 
L 547.301229 157.821374 
L 548.519902 150.490933 
L 549.129238 163.902269 
L 550.957248 152.43306 
L 551.566585 148.905841 
L 552.175921 162.379338 
L 554.003931 151.082363 
L 555.831941 141.063005 
L 557.050614 135.021174 
L 557.659951 149.039167 
L 558.269287 145.645042 
L 559.487961 172.314397 
L 561.315971 159.893829 
L 563.14398 148.877949 
L 563.753317 145.490147 
L 564.362654 159.097592 
L 566.190663 148.171762 
L 568.018673 138.481575 
L 569.846683 129.887288 
L 571.065356 157.768312 
L 572.893366 146.992815 
L 574.721376 137.43596 
L 576.549386 128.959925 
L 577.158722 126.353221 
L 577.768059 140.711134 
L 578.377396 137.643599 
L 580.205405 177.773381 
L 580.814742 173.252424 
L 581.424079 185.771153 
L 582.033415 180.936558 
L 582.642752 193.153948 
L 584.470762 178.376557 
L 586.298771 165.270396 
L 588.126781 153.64646 
L 589.345455 146.637043 
L 589.954791 160.199512 
L 591.782801 149.149062 
L 592.392138 145.750627 
L 594.220147 184.963555 
L 596.048157 171.112446 
L 596.657494 183.715095 
L 597.876167 174.393595 
L 599.09484 198.852373 
L 600.92285 183.430525 
L 601.532187 195.550113 
L 603.360197 180.50173 
L 603.969533 192.736172 
L 605.188206 182.72101 
L 606.40688 206.539463 
L 607.016216 200.890425 
L 607.625553 212.32531 
L 609.453563 195.379758 
L 610.062899 207.030748 
L 611.890909 190.683977 
L 612.500246 185.656722 
L 613.109582 197.689008 
L 614.328256 187.293005 
L 614.937592 199.261122 
L 615.546929 193.897509 
L 616.156265 205.606626 
L 617.984275 189.420915 
L 619.812285 175.065706 
L 621.640295 162.333982 
L 622.249631 175.280885 
L 622.858968 170.857673 
L 623.468305 183.470314 
L 625.296314 169.788081 
L 627.124324 157.653223 
L 627.733661 153.921292 
L 628.342998 167.198105 
L 628.952334 163.091865 
L 630.780344 200.343606 
L 632.608354 184.75311 
L 633.21769 179.958438 
L 634.436364 203.989316 
L 636.264373 187.986512 
L 638.092383 173.793525 
L 639.920393 161.205677 
L 640.52973 157.334434 
L 641.139066 170.477398 
L 641.748403 166.242558 
L 643.576413 203.137976 
L 645.404423 187.231454 
L 646.013759 182.339592 
L 646.623096 194.501961 
L 647.232432 189.324982 
L 648.451106 212.635633 
L 650.279115 195.654985 
L 651.497789 185.415385 
L 652.107125 197.457134 
L 652.716462 192.164266 
L 653.325799 203.941354 
L 655.153808 187.943974 
L 655.763145 183.024171 
L 656.981818 206.819313 
L 658.200491 195.721249 
L 658.809828 207.358847 
L 660.637838 190.97497 
L 661.856511 181.095233 
L 663.684521 216.310906 
L 664.903194 204.483 
L 665.512531 215.777 
L 666.731204 203.990148 
L 668.559214 236.616549 
L 670.387224 216.923809 
L 672.215233 199.458195 
L 672.82457 194.086854 
L 673.433907 205.788546 
L 675.261916 189.58226 
L 677.089926 175.208804 
L 678.917936 162.460897 
L 680.136609 154.773707 
L 680.745946 168.017091 
L 682.573956 156.082521 
L 683.792629 148.885786 
L 684.401966 162.360069 
L 686.229975 151.065273 
L 687.448649 177.317848 
L 688.667322 168.488254 
L 689.885995 193.401114 
L 691.714005 178.59577 
L 692.323342 174.042563 
L 694.151351 210.055849 
L 694.760688 204.268913 
L 695.370025 215.571309 
L 697.198034 198.258654 
L 699.026044 182.903952 
L 700.244717 173.644824 
L 702.072727 209.703092 
L 703.900737 193.054096 
L 704.510074 187.933896 
L 705.11941 199.87688 
L 706.94742 184.339167 
L 707.556757 179.560729 
L 708.77543 203.622187 
L 709.994103 192.769961 
L 710.60344 204.523296 
L 712.43145 188.460103 
L 714.259459 174.213556 
L 716.087469 161.578205 
L 717.915479 199.001132 
L 719.743489 183.562461 
L 721.571499 169.869807 
L 723.399509 206.355006 
L 725.227518 190.084657 
L 727.055528 175.654384 
L 728.274201 166.9527 
L 728.883538 179.718476 
L 730.102211 170.70429 
L 730.711548 183.322946 
L 731.320885 178.584359 
L 732.539558 202.720894 
L 734.367568 186.861541 
L 734.976904 181.984186 
L 736.195577 205.859297 
L 737.414251 194.835052 
L 739.24226 228.496837 
L 739.851597 238.849118 
L 741.679607 218.903888 
L 743.507617 201.214339 
L 745.335627 185.525368 
L 746.5543 209.128185 
L 747.163636 203.377628 
L 747.163636 203.377628 
" style="fill:none;stroke:#2ca02c;stroke-linecap:square;stroke-width:1.5;"/>
   </g>
   <g id="line2d_15">
    <path clip-path="url(#p9b7da941fc)" d="M 138.436364 492.48 
L 139.655037 459.416485 
L 140.264373 460.713093 
L 140.87371 445.096462 
L 141.483047 446.95464 
L 142.70172 417.391729 
L 143.920393 423.165529 
L 145.139066 395.431847 
L 146.967076 406.407387 
L 147.576413 392.920391 
L 149.404423 404.179961 
L 150.013759 407.642708 
L 151.232432 381.102629 
L 151.841769 385.47037 
L 153.060442 360.6352 
L 153.669779 365.805584 
L 154.279115 353.910816 
L 155.497789 364.565886 
L 156.107125 352.719733 
L 156.716462 358.200528 
L 157.325799 346.603997 
L 157.935135 352.324624 
L 159.153808 330.038147 
L 159.763145 336.408416 
L 161.591155 305.429838 
L 162.200491 295.902746 
L 162.809828 303.611658 
L 164.028501 285.070891 
L 164.637838 293.204582 
L 165.856511 275.464052 
L 166.465848 283.974481 
L 167.075184 275.288776 
L 167.684521 283.806078 
L 168.903194 266.788232 
L 170.121867 284.142463 
L 170.731204 275.45017 
L 171.340541 283.961143 
L 171.949877 275.275961 
L 172.559214 283.793766 
L 173.777887 266.776867 
L 174.387224 275.62797 
L 175.605897 259.238967 
L 176.215233 268.385674 
L 177.433907 252.553557 
L 178.65258 271.002341 
L 180.48059 247.420783 
L 182.3086 226.506151 
L 182.917936 220.074106 
L 183.527273 230.75669 
L 184.745946 217.817997 
L 185.355283 228.589056 
L 186.573956 215.81704 
L 187.183292 226.666568 
L 188.401966 214.042378 
L 189.011302 224.961501 
L 190.229975 212.46842 
L 190.839312 223.449267 
L 192.057985 211.072467 
L 193.276658 232.710878 
L 193.885995 226.03551 
L 194.495332 236.484313 
L 195.714005 223.105203 
L 196.323342 233.668921 
L 198.151351 214.309539 
L 199.370025 202.635525 
L 199.979361 214.001975 
L 200.588698 208.060289 
L 201.807371 229.930317 
L 202.416708 223.36399 
L 203.026044 233.917559 
L 204.244717 220.735816 
L 206.072727 251.468387 
L 206.682064 260.919823 
L 207.2914 253.138221 
L 209.11941 280.206282 
L 210.94742 304.213115 
L 212.77543 276.875625 
L 213.384767 268.468306 
L 213.994103 277.253078 
L 215.822113 252.9646 
L 216.43145 262.357361 
L 217.650123 246.988782 
L 218.259459 256.615888 
L 220.087469 234.661348 
L 220.696806 244.771883 
L 221.915479 230.755513 
L 222.524816 241.019218 
L 223.134152 234.018033 
L 224.352826 253.892079 
L 224.962162 246.386075 
L 225.571499 256.036817 
L 226.790172 241.154247 
L 228.618182 269.57762 
L 229.227518 278.31889 
L 231.055528 253.909876 
L 231.664865 263.265567 
L 232.274201 255.391975 
L 232.883538 264.689545 
L 234.102211 249.141636 
L 234.711548 258.684317 
L 235.930221 243.598171 
L 236.539558 253.358243 
L 237.148894 245.873174 
L 237.758231 255.54403 
L 238.367568 247.973244 
L 239.586241 266.774225 
L 240.804914 251.066017 
L 241.414251 260.533232 
L 242.632924 245.304917 
L 243.24226 254.998057 
L 245.07027 233.226483 
L 246.288943 253.161394 
L 246.89828 245.684045 
L 247.507617 255.362318 
L 249.335627 233.549548 
L 251.163636 262.832966 
L 252.991646 240.175313 
L 253.600983 250.069614 
L 255.428993 228.855416 
L 256.647666 216.062919 
L 257.257002 226.902804 
L 259.085012 208.308628 
L 259.694349 219.452603 
L 261.522359 201.700998 
L 262.131695 213.104096 
L 263.959705 196.070468 
L 264.569042 207.694371 
L 265.178378 202.000042 
L 265.787715 213.391413 
L 267.006388 201.787997 
L 267.615725 213.187684 
L 269.443735 196.144602 
L 270.053071 207.765598 
L 271.271744 196.594771 
L 273.099754 230.057543 
L 273.709091 240.34862 
L 274.927764 226.67237 
L 276.146437 247.111249 
L 277.974447 226.231624 
L 278.583784 236.672737 
L 280.411794 216.973642 
L 281.02113 210.91542 
L 281.630467 221.957169 
L 283.458477 203.922313 
L 284.67715 226.110524 
L 285.286486 219.693993 
L 285.895823 230.391484 
L 287.723833 211.40276 
L 288.33317 222.425396 
L 290.161179 204.337587 
L 291.379853 226.493866 
L 291.989189 220.062303 
L 293.207862 241.009453 
L 293.817199 234.008651 
L 294.426536 244.144782 
L 295.035872 237.021026 
L 296.254545 256.664161 
L 298.082555 234.704161 
L 299.301229 221.461933 
L 299.910565 232.090093 
L 301.738575 212.909266 
L 302.957248 201.342924 
L 304.785258 234.26871 
L 306.003931 254.123481 
L 307.222604 239.388033 
L 308.441278 258.849161 
L 310.269287 236.642051 
L 310.878624 246.674912 
L 312.097297 232.512211 
L 313.315971 252.502045 
L 315.14398 231.012754 
L 316.362654 251.117887 
L 316.97199 243.720675 
L 317.581327 253.475943 
L 318.8 238.790287 
L 319.409337 248.738903 
L 320.62801 234.417495 
L 321.846683 254.260825 
L 323.065356 239.514816 
L 323.674693 249.43502 
L 325.502703 228.29259 
L 326.112039 238.652881 
L 327.940049 218.729844 
L 328.549386 212.602752 
L 329.158722 223.57833 
L 330.986732 205.360131 
L 332.814742 189.202297 
L 333.424079 201.09554 
L 335.252088 185.420004 
L 335.861425 197.461573 
L 337.689435 182.197016 
L 338.298771 177.502584 
L 338.908108 189.854639 
L 340.736118 175.450379 
L 341.345455 171.020521 
L 341.954791 183.626775 
L 343.782801 169.926847 
L 344.392138 182.57599 
L 346.220147 168.9949 
L 346.829484 164.818198 
L 347.438821 177.66768 
L 349.26683 164.641689 
L 349.876167 160.635701 
L 351.09484 186.152371 
L 351.704177 181.302827 
L 352.313514 193.505853 
L 354.141523 178.688664 
L 354.75086 174.131814 
L 355.360197 186.616056 
L 356.57887 177.071491 
L 358.40688 212.742224 
L 359.016216 206.849941 
L 360.234889 228.813036 
L 360.844226 222.290525 
L 361.453563 232.88619 
L 362.062899 226.203947 
L 362.672236 236.646145 
L 363.281572 229.816453 
L 363.890909 240.116984 
L 365.718919 220.028367 
L 366.328256 213.850352 
L 366.937592 224.777005 
L 367.546929 218.412769 
L 368.765602 239.486758 
L 369.374939 232.545669 
L 371.202948 261.942619 
L 371.812285 254.120908 
L 372.421622 263.468323 
L 373.640295 248.014318 
L 374.249631 257.601208 
L 376.077641 235.535234 
L 376.686978 228.749106 
L 377.905651 249.028299 
L 379.733661 227.931867 
L 380.342998 238.306304 
L 382.171007 218.422463 
L 383.999017 249.416659 
L 385.21769 235.043136 
L 385.827027 245.138699 
L 387.655037 224.482157 
L 388.264373 218.129484 
L 388.87371 228.888328 
L 390.70172 210.069601 
L 391.311057 204.282126 
L 391.920393 215.584003 
L 393.748403 198.269913 
L 394.35774 209.807563 
L 394.967076 204.030364 
L 395.576413 215.342115 
L 397.404423 198.05538 
L 398.623096 220.694721 
L 399.841769 208.529728 
L 400.451106 219.665032 
L 402.279115 201.889403 
L 403.497789 191.170417 
L 404.107125 202.986479 
L 405.935135 187.09709 
L 407.153808 177.515536 
L 408.372482 201.734257 
L 410.200491 185.986486 
L 410.809828 198.00584 
L 412.028501 187.585474 
L 413.247174 211.029882 
L 415.075184 194.230835 
L 415.684521 205.92688 
L 417.512531 189.70495 
L 418.731204 212.986384 
L 420.559214 195.966068 
L 421.16855 207.594065 
L 422.99656 191.183587 
L 424.215233 214.351323 
L 424.82457 208.395938 
L 426.65258 240.524072 
L 427.871253 259.897846 
L 428.48059 252.156322 
L 429.089926 261.58078 
L 429.699263 253.773258 
L 430.3086 263.134307 
L 432.136609 240.442574 
L 432.745946 233.464002 
L 433.355283 243.621492 
L 434.573956 229.693579 
L 435.183292 239.998929 
L 436.401966 226.349568 
L 437.011302 236.786056 
L 437.620639 229.950877 
L 438.229975 240.246136 
L 438.839312 233.275268 
L 439.448649 243.440159 
L 441.276658 222.975711 
L 441.885995 216.682114 
L 442.495332 227.497718 
L 444.323342 208.83626 
L 446.151351 192.285298 
L 447.370025 215.36832 
L 448.588698 203.612892 
L 449.198034 214.941014 
L 451.026044 197.699642 
L 452.244717 187.302821 
L 452.854054 199.270553 
L 454.072727 188.75294 
L 455.2914 212.107577 
L 457.11941 195.186649 
L 458.338084 184.983061 
L 459.556757 208.627578 
L 460.77543 197.39047 
L 461.384767 208.962608 
L 463.212776 192.397356 
L 464.43145 182.408246 
L 465.040786 194.567923 
L 466.259459 184.411911 
L 467.478133 208.100346 
L 469.306143 191.63261 
L 470.524816 214.765819 
L 471.134152 208.794179 
L 472.352826 230.607775 
L 474.180835 211.59459 
L 474.790172 205.747312 
L 475.399509 216.991731 
L 477.227518 199.518435 
L 479.055528 184.02126 
L 479.664865 179.255288 
L 481.492875 214.679048 
L 482.711548 236.040136 
L 483.930221 222.695181 
L 484.539558 233.274977 
L 485.758231 220.142644 
L 486.367568 230.822541 
L 487.586241 217.878784 
L 488.804914 238.993834 
L 489.414251 232.072075 
L 491.24226 261.522586 
L 492.460934 246.218195 
L 493.07027 255.875521 
L 494.89828 234.004711 
L 496.116953 220.816266 
L 497.335627 241.705442 
L 497.944963 234.677346 
L 499.163636 254.500695 
L 500.38231 239.736242 
L 501.600983 259.170595 
L 502.819656 244.047058 
L 504.038329 263.149937 
L 505.866339 240.456436 
L 506.475676 250.339713 
L 508.303686 229.094969 
L 510.131695 210.252872 
L 511.350369 231.954305 
L 512.569042 218.923523 
L 513.178378 229.651228 
L 515.006388 210.746222 
L 516.225061 232.409719 
L 517.443735 219.343919 
L 518.053071 230.055138 
L 519.271744 217.17039 
L 519.881081 227.966845 
L 521.709091 209.252332 
L 523.537101 192.654314 
L 524.146437 204.412184 
L 524.755774 198.846569 
L 525.365111 210.361605 
L 525.974447 204.562679 
L 526.583784 215.853554 
L 527.802457 204.060816 
L 528.411794 215.371372 
L 529.02113 209.375984 
L 530.239803 231.144844 
L 532.067813 212.070919 
L 533.286486 233.632556 
L 535.114496 214.277286 
L 535.723833 225.187197 
L 536.33317 218.806875 
L 536.942506 229.539154 
L 537.551843 222.988167 
L 538.161179 233.556475 
L 539.379853 220.402496 
L 541.207862 251.172763 
L 543.035872 229.833806 
L 543.645209 240.133657 
L 545.473219 220.043154 
L 546.691892 207.928262 
L 547.301229 219.087154 
L 548.519902 207.045772 
L 549.129238 218.239272 
L 549.738575 212.131417 
L 550.347912 223.125479 
L 552.175921 204.958495 
L 554.003931 188.846083 
L 554.613268 200.753296 
L 556.441278 185.116465 
L 557.050614 180.307545 
L 558.878624 215.612301 
L 559.487961 226.469858 
L 561.315971 207.924645 
L 563.14398 191.47678 
L 564.362654 214.621972 
L 566.190663 197.416681 
L 566.8 208.987792 
L 568.62801 192.419691 
L 569.846683 182.428865 
L 571.065356 206.269782 
L 572.893366 190.009072 
L 573.502703 185.008284 
L 574.112039 197.065999 
L 575.940049 181.846179 
L 577.158722 172.668386 
L 578.986732 208.837083 
L 580.205405 230.647381 
L 580.814742 224.052934 
L 582.033415 244.693231 
L 583.861425 224.087069 
L 584.470762 217.749889 
L 585.080098 228.523619 
L 586.908108 209.746139 
L 588.736118 193.092274 
L 589.954791 216.113245 
L 591.782801 198.739301 
L 593.001474 221.326052 
L 593.610811 215.097147 
L 594.829484 236.426086 
L 596.048157 223.051454 
L 597.26683 243.768758 
L 597.876167 236.659748 
L 598.485504 246.691914 
L 599.09484 239.46827 
L 599.704177 249.390299 
L 600.92285 235.018802 
L 601.532187 245.11532 
L 602.141523 237.953503 
L 602.75086 247.934934 
L 603.360197 240.662544 
L 604.57887 260.02567 
L 605.188206 252.279134 
L 606.40688 270.74902 
L 607.016216 262.58196 
L 607.625553 271.597569 
L 609.453563 247.948694 
L 610.672236 266.751563 
L 612.500246 243.65074 
L 613.718919 262.784094 
L 614.328256 254.929384 
L 616.156265 281.794875 
L 617.984275 256.992749 
L 619.202948 242.036673 
L 619.812285 251.85798 
L 621.640295 230.441529 
L 622.249631 240.717548 
L 622.858968 233.728192 
L 623.468305 243.875322 
L 625.296314 223.36166 
L 627.124324 205.167965 
L 628.342998 194.196879 
L 629.561671 217.132913 
L 630.171007 211.068445 
L 631.389681 232.707165 
L 633.21769 213.456552 
L 634.436364 234.911642 
L 636.264373 215.411716 
L 637.483047 203.652952 
L 638.092383 214.979503 
L 639.920393 197.733778 
L 640.52973 192.43006 
L 642.35774 226.363835 
L 643.576413 246.826439 
L 645.404423 225.979024 
L 646.013759 219.56765 
L 647.841769 250.432333 
L 648.451106 243.062006 
L 649.060442 252.843104 
L 650.888452 231.315242 
L 651.497789 224.694604 
L 653.325799 254.979461 
L 654.544472 240.178194 
L 655.153808 250.072383 
L 655.763145 242.716171 
L 656.372482 252.510831 
L 657.591155 237.899386 
L 658.809828 257.474981 
L 660.637838 235.423282 
L 661.247174 228.641545 
L 663.075184 258.480028 
L 663.684521 267.656497 
L 664.903194 251.880449 
L 666.121867 270.380991 
L 666.731204 262.228363 
L 667.340541 271.257839 
L 667.949877 263.070825 
L 669.16855 280.7109 
L 670.99656 256.031364 
L 672.215233 241.149213 
L 673.433907 260.474918 
L 675.261916 238.083945 
L 675.871253 248.060261 
L 677.699263 227.073308 
L 679.527273 208.459849 
L 680.745946 230.299153 
L 682.573956 211.320871 
L 684.401966 194.488914 
L 685.011302 206.174839 
L 686.229975 195.126331 
L 686.839312 206.787259 
L 688.057985 195.69166 
L 689.885995 229.256568 
L 690.495332 239.579056 
L 692.323342 219.551274 
L 694.151351 250.41781 
L 694.760688 243.048052 
L 695.979361 262.227748 
L 697.807371 239.638541 
L 699.635381 219.604032 
L 700.854054 240.586421 
L 701.463391 233.602208 
L 702.682064 253.508228 
L 704.510074 231.905145 
L 705.728747 251.941658 
L 707.556757 230.515744 
L 708.77543 250.659093 
L 709.994103 236.190034 
L 710.60344 246.240621 
L 711.212776 239.034675 
L 711.822113 248.973707 
L 713.650123 227.88345 
L 715.478133 209.178369 
L 716.087469 203.425844 
L 717.915479 236.116064 
L 718.524816 229.307159 
L 719.134152 239.627663 
L 720.962162 219.594385 
L 721.571499 213.433389 
L 722.180835 224.376393 
L 722.790172 218.027867 
L 723.399509 228.790696 
L 725.227518 209.983011 
L 727.055528 193.302358 
L 727.664865 188.172422 
L 728.883538 211.571697 
L 730.102211 200.108206 
L 731.930221 233.17363 
L 733.148894 220.04909 
L 733.758231 230.732655 
L 734.976904 217.795811 
L 736.804914 248.860878 
L 737.414251 241.552176 
L 738.023587 251.392483 
L 739.851597 230.028677 
L 740.460934 240.320886 
L 742.288943 220.209208 
L 744.116953 202.372036 
L 744.72629 196.886426 
L 745.944963 219.615651 
L 747.163636 207.533632 
L 747.163636 207.533632 
" style="fill:none;stroke:#d62728;stroke-linecap:square;stroke-width:1.5;"/>
   </g>
   <g id="patch_3">
    <path d="M 108 512.64 
L 108 69.12 
" style="fill:none;stroke:#000000;stroke-linecap:square;stroke-linejoin:miter;stroke-width:0.8;"/>
   </g>
   <g id="patch_4">
    <path d="M 777.6 512.64 
L 777.6 69.12 
" style="fill:none;stroke:#000000;stroke-linecap:square;stroke-linejoin:miter;stroke-width:0.8;"/>
   </g>
   <g id="patch_5">
    <path d="M 108 512.64 
L 777.6 512.64 
" style="fill:none;stroke:#000000;stroke-linecap:square;stroke-linejoin:miter;stroke-width:0.8;"/>
   </g>
   <g id="patch_6">
    <path d="M 108 69.12 
L 777.6 69.12 
" style="fill:none;stroke:#000000;stroke-linecap:square;stroke-linejoin:miter;stroke-width:0.8;"/>
   </g>
   <g id="text_14">
    <!-- UCB Agent for Two Armed Bandit -->
    <g transform="translate(304.578 63.12)scale(0.168 -0.168)">
     <defs>
      <path d="M 556 4666 
L 1191 4666 
L 1191 1831 
Q 1191 1081 1462 751 
Q 1734 422 2344 422 
Q 2950 422 3222 751 
Q 3494 1081 3494 1831 
L 3494 4666 
L 4128 4666 
L 4128 1753 
Q 4128 841 3676 375 
Q 3225 -91 2344 -91 
Q 1459 -91 1007 375 
Q 556 841 556 1753 
L 556 4666 
z
" id="DejaVuSans-55" transform="scale(0.015625)"/>
      <path d="M 4122 4306 
L 4122 3641 
Q 3803 3938 3442 4084 
Q 3081 4231 2675 4231 
Q 1875 4231 1450 3742 
Q 1025 3253 1025 2328 
Q 1025 1406 1450 917 
Q 1875 428 2675 428 
Q 3081 428 3442 575 
Q 3803 722 4122 1019 
L 4122 359 
Q 3791 134 3420 21 
Q 3050 -91 2638 -91 
Q 1578 -91 968 557 
Q 359 1206 359 2328 
Q 359 3453 968 4101 
Q 1578 4750 2638 4750 
Q 3056 4750 3426 4639 
Q 3797 4528 4122 4306 
z
" id="DejaVuSans-43" transform="scale(0.015625)"/>
      <path d="M 1259 2228 
L 1259 519 
L 2272 519 
Q 2781 519 3026 730 
Q 3272 941 3272 1375 
Q 3272 1813 3026 2020 
Q 2781 2228 2272 2228 
L 1259 2228 
z
M 1259 4147 
L 1259 2741 
L 2194 2741 
Q 2656 2741 2882 2914 
Q 3109 3088 3109 3444 
Q 3109 3797 2882 3972 
Q 2656 4147 2194 4147 
L 1259 4147 
z
M 628 4666 
L 2241 4666 
Q 2963 4666 3353 4366 
Q 3744 4066 3744 3513 
Q 3744 3084 3544 2831 
Q 3344 2578 2956 2516 
Q 3422 2416 3680 2098 
Q 3938 1781 3938 1306 
Q 3938 681 3513 340 
Q 3088 0 2303 0 
L 628 0 
L 628 4666 
z
" id="DejaVuSans-42" transform="scale(0.015625)"/>
      <path id="DejaVuSans-20" transform="scale(0.015625)"/>
      <path d="M 2188 4044 
L 1331 1722 
L 3047 1722 
L 2188 4044 
z
M 1831 4666 
L 2547 4666 
L 4325 0 
L 3669 0 
L 3244 1197 
L 1141 1197 
L 716 0 
L 50 0 
L 1831 4666 
z
" id="DejaVuSans-41" transform="scale(0.015625)"/>
      <path d="M 2906 1791 
Q 2906 2416 2648 2759 
Q 2391 3103 1925 3103 
Q 1463 3103 1205 2759 
Q 947 2416 947 1791 
Q 947 1169 1205 825 
Q 1463 481 1925 481 
Q 2391 481 2648 825 
Q 2906 1169 2906 1791 
z
M 3481 434 
Q 3481 -459 3084 -895 
Q 2688 -1331 1869 -1331 
Q 1566 -1331 1297 -1286 
Q 1028 -1241 775 -1147 
L 775 -588 
Q 1028 -725 1275 -790 
Q 1522 -856 1778 -856 
Q 2344 -856 2625 -561 
Q 2906 -266 2906 331 
L 2906 616 
Q 2728 306 2450 153 
Q 2172 0 1784 0 
Q 1141 0 747 490 
Q 353 981 353 1791 
Q 353 2603 747 3093 
Q 1141 3584 1784 3584 
Q 2172 3584 2450 3431 
Q 2728 3278 2906 2969 
L 2906 3500 
L 3481 3500 
L 3481 434 
z
" id="DejaVuSans-67" transform="scale(0.015625)"/>
      <path d="M 3513 2113 
L 3513 0 
L 2938 0 
L 2938 2094 
Q 2938 2591 2744 2837 
Q 2550 3084 2163 3084 
Q 1697 3084 1428 2787 
Q 1159 2491 1159 1978 
L 1159 0 
L 581 0 
L 581 3500 
L 1159 3500 
L 1159 2956 
Q 1366 3272 1645 3428 
Q 1925 3584 2291 3584 
Q 2894 3584 3203 3211 
Q 3513 2838 3513 2113 
z
" id="DejaVuSans-6e" transform="scale(0.015625)"/>
      <path d="M 1172 4494 
L 1172 3500 
L 2356 3500 
L 2356 3053 
L 1172 3053 
L 1172 1153 
Q 1172 725 1289 603 
Q 1406 481 1766 481 
L 2356 481 
L 2356 0 
L 1766 0 
Q 1100 0 847 248 
Q 594 497 594 1153 
L 594 3053 
L 172 3053 
L 172 3500 
L 594 3500 
L 594 4494 
L 1172 4494 
z
" id="DejaVuSans-74" transform="scale(0.015625)"/>
      <path d="M 2375 4863 
L 2375 4384 
L 1825 4384 
Q 1516 4384 1395 4259 
Q 1275 4134 1275 3809 
L 1275 3500 
L 2222 3500 
L 2222 3053 
L 1275 3053 
L 1275 0 
L 697 0 
L 697 3053 
L 147 3053 
L 147 3500 
L 697 3500 
L 697 3744 
Q 697 4328 969 4595 
Q 1241 4863 1831 4863 
L 2375 4863 
z
" id="DejaVuSans-66" transform="scale(0.015625)"/>
      <path d="M -19 4666 
L 3928 4666 
L 3928 4134 
L 2272 4134 
L 2272 0 
L 1638 0 
L 1638 4134 
L -19 4134 
L -19 4666 
z
" id="DejaVuSans-54" transform="scale(0.015625)"/>
      <path d="M 3328 2828 
Q 3544 3216 3844 3400 
Q 4144 3584 4550 3584 
Q 5097 3584 5394 3201 
Q 5691 2819 5691 2113 
L 5691 0 
L 5113 0 
L 5113 2094 
Q 5113 2597 4934 2840 
Q 4756 3084 4391 3084 
Q 3944 3084 3684 2787 
Q 3425 2491 3425 1978 
L 3425 0 
L 2847 0 
L 2847 2094 
Q 2847 2600 2669 2842 
Q 2491 3084 2119 3084 
Q 1678 3084 1418 2786 
Q 1159 2488 1159 1978 
L 1159 0 
L 581 0 
L 581 3500 
L 1159 3500 
L 1159 2956 
Q 1356 3278 1631 3431 
Q 1906 3584 2284 3584 
Q 2666 3584 2933 3390 
Q 3200 3197 3328 2828 
z
" id="DejaVuSans-6d" transform="scale(0.015625)"/>
     </defs>
     <use xlink:href="#DejaVuSans-55"/>
     <use x="73.193359" xlink:href="#DejaVuSans-43"/>
     <use x="143.017578" xlink:href="#DejaVuSans-42"/>
     <use x="211.621094" xlink:href="#DejaVuSans-20"/>
     <use x="243.408203" xlink:href="#DejaVuSans-41"/>
     <use x="311.816406" xlink:href="#DejaVuSans-67"/>
     <use x="375.292969" xlink:href="#DejaVuSans-65"/>
     <use x="436.816406" xlink:href="#DejaVuSans-6e"/>
     <use x="500.195312" xlink:href="#DejaVuSans-74"/>
     <use x="539.404297" xlink:href="#DejaVuSans-20"/>
     <use x="571.191406" xlink:href="#DejaVuSans-66"/>
     <use x="606.396484" xlink:href="#DejaVuSans-6f"/>
     <use x="667.578125" xlink:href="#DejaVuSans-72"/>
     <use x="708.691406" xlink:href="#DejaVuSans-20"/>
     <use x="740.478516" xlink:href="#DejaVuSans-54"/>
     <use x="785.0625" xlink:href="#DejaVuSans-77"/>
     <use x="866.849609" xlink:href="#DejaVuSans-6f"/>
     <use x="928.03125" xlink:href="#DejaVuSans-20"/>
     <use x="959.818359" xlink:href="#DejaVuSans-41"/>
     <use x="1028.226562" xlink:href="#DejaVuSans-72"/>
     <use x="1067.589844" xlink:href="#DejaVuSans-6d"/>
     <use x="1165.001953" xlink:href="#DejaVuSans-65"/>
     <use x="1226.525391" xlink:href="#DejaVuSans-64"/>
     <use x="1290.001953" xlink:href="#DejaVuSans-20"/>
     <use x="1321.789062" xlink:href="#DejaVuSans-42"/>
     <use x="1390.392578" xlink:href="#DejaVuSans-61"/>
     <use x="1451.671875" xlink:href="#DejaVuSans-6e"/>
     <use x="1515.050781" xlink:href="#DejaVuSans-64"/>
     <use x="1578.527344" xlink:href="#DejaVuSans-69"/>
     <use x="1606.310547" xlink:href="#DejaVuSans-74"/>
    </g>
   </g>
   <g id="legend_1">
    <g id="patch_7">
     <path d="M 672.4075 505.64 
L 767.8 505.64 
Q 770.6 505.64 770.6 502.84 
L 770.6 422.0425 
Q 770.6 419.2425 767.8 419.2425 
L 672.4075 419.2425 
Q 669.6075 419.2425 669.6075 422.0425 
L 669.6075 502.84 
Q 669.6075 505.64 672.4075 505.64 
z
" style="fill:#ffffff;opacity:0.8;stroke:#cccccc;stroke-linejoin:miter;"/>
    </g>
    <g id="line2d_16">
     <path d="M 675.2075 430.580313 
L 703.2075 430.580313 
" style="fill:none;stroke:#1f77b4;stroke-linecap:square;stroke-width:1.5;"/>
    </g>
    <g id="line2d_17"/>
    <g id="text_15">
     <!-- c = 0.1 -->
     <g transform="translate(714.4075 435.480313)scale(0.14 -0.14)">
      <defs>
       <path d="M 3122 3366 
L 3122 2828 
Q 2878 2963 2633 3030 
Q 2388 3097 2138 3097 
Q 1578 3097 1268 2742 
Q 959 2388 959 1747 
Q 959 1106 1268 751 
Q 1578 397 2138 397 
Q 2388 397 2633 464 
Q 2878 531 3122 666 
L 3122 134 
Q 2881 22 2623 -34 
Q 2366 -91 2075 -91 
Q 1284 -91 818 406 
Q 353 903 353 1747 
Q 353 2603 823 3093 
Q 1294 3584 2113 3584 
Q 2378 3584 2631 3529 
Q 2884 3475 3122 3366 
z
" id="DejaVuSans-63" transform="scale(0.015625)"/>
       <path d="M 678 2906 
L 4684 2906 
L 4684 2381 
L 678 2381 
L 678 2906 
z
M 678 1631 
L 4684 1631 
L 4684 1100 
L 678 1100 
L 678 1631 
z
" id="DejaVuSans-3d" transform="scale(0.015625)"/>
      </defs>
      <use xlink:href="#DejaVuSans-63"/>
      <use x="54.980469" xlink:href="#DejaVuSans-20"/>
      <use x="86.767578" xlink:href="#DejaVuSans-3d"/>
      <use x="170.556641" xlink:href="#DejaVuSans-20"/>
      <use x="202.34375" xlink:href="#DejaVuSans-30"/>
      <use x="265.966797" xlink:href="#DejaVuSans-2e"/>
      <use x="297.753906" xlink:href="#DejaVuSans-31"/>
     </g>
    </g>
    <g id="line2d_18">
     <path d="M 675.2075 451.129688 
L 703.2075 451.129688 
" style="fill:none;stroke:#ff7f0e;stroke-linecap:square;stroke-width:1.5;"/>
    </g>
    <g id="line2d_19"/>
    <g id="text_16">
     <!-- c = 1 -->
     <g transform="translate(714.4075 456.029688)scale(0.14 -0.14)">
      <use xlink:href="#DejaVuSans-63"/>
      <use x="54.980469" xlink:href="#DejaVuSans-20"/>
      <use x="86.767578" xlink:href="#DejaVuSans-3d"/>
      <use x="170.556641" xlink:href="#DejaVuSans-20"/>
      <use x="202.34375" xlink:href="#DejaVuSans-31"/>
     </g>
    </g>
    <g id="line2d_20">
     <path d="M 675.2075 471.679063 
L 703.2075 471.679063 
" style="fill:none;stroke:#2ca02c;stroke-linecap:square;stroke-width:1.5;"/>
    </g>
    <g id="line2d_21"/>
    <g id="text_17">
     <!-- c = 5 -->
     <g transform="translate(714.4075 476.579063)scale(0.14 -0.14)">
      <defs>
       <path d="M 691 4666 
L 3169 4666 
L 3169 4134 
L 1269 4134 
L 1269 2991 
Q 1406 3038 1543 3061 
Q 1681 3084 1819 3084 
Q 2600 3084 3056 2656 
Q 3513 2228 3513 1497 
Q 3513 744 3044 326 
Q 2575 -91 1722 -91 
Q 1428 -91 1123 -41 
Q 819 9 494 109 
L 494 744 
Q 775 591 1075 516 
Q 1375 441 1709 441 
Q 2250 441 2565 725 
Q 2881 1009 2881 1497 
Q 2881 1984 2565 2268 
Q 2250 2553 1709 2553 
Q 1456 2553 1204 2497 
Q 953 2441 691 2322 
L 691 4666 
z
" id="DejaVuSans-35" transform="scale(0.015625)"/>
      </defs>
      <use xlink:href="#DejaVuSans-63"/>
      <use x="54.980469" xlink:href="#DejaVuSans-20"/>
      <use x="86.767578" xlink:href="#DejaVuSans-3d"/>
      <use x="170.556641" xlink:href="#DejaVuSans-20"/>
      <use x="202.34375" xlink:href="#DejaVuSans-35"/>
     </g>
    </g>
    <g id="line2d_22">
     <path d="M 675.2075 492.228438 
L 703.2075 492.228438 
" style="fill:none;stroke:#d62728;stroke-linecap:square;stroke-width:1.5;"/>
    </g>
    <g id="line2d_23"/>
    <g id="text_18">
     <!-- c = 10 -->
     <g transform="translate(714.4075 497.128438)scale(0.14 -0.14)">
      <use xlink:href="#DejaVuSans-63"/>
      <use x="54.980469" xlink:href="#DejaVuSans-20"/>
      <use x="86.767578" xlink:href="#DejaVuSans-3d"/>
      <use x="170.556641" xlink:href="#DejaVuSans-20"/>
      <use x="202.34375" xlink:href="#DejaVuSans-31"/>
      <use x="265.966797" xlink:href="#DejaVuSans-30"/>
     </g>
    </g>
   </g>
  </g>
 </g>
 <defs>
  <clipPath id="p9b7da941fc">
   <rect height="443.52" width="669.6" x="108" y="69.12"/>
  </clipPath>
 </defs>
</svg>
