<?xml version="1.0" encoding="utf-8" standalone="no"?>
<!DOCTYPE svg PUBLIC "-//W3C//DTD SVG 1.1//EN"
  "http://www.w3.org/Graphics/SVG/1.1/DTD/svg11.dtd">
<svg height="576pt" version="1.1" viewBox="0 0 864 576" width="864pt" xmlns="http://www.w3.org/2000/svg" xmlns:xlink="http://www.w3.org/1999/xlink">
 <metadata>
  <rdf:RDF xmlns:cc="http://creativecommons.org/ns#" xmlns:dc="http://purl.org/dc/elements/1.1/" xmlns:rdf="http://www.w3.org/1999/02/22-rdf-syntax-ns#">
   <cc:Work>
    <dc:type rdf:resource="http://purl.org/dc/dcmitype/StillImage"/>
    <dc:date>2021-09-11T13:34:45.536400</dc:date>
    <dc:format>image/svg+xml</dc:format>
    <dc:creator>
     <cc:Agent>
      <dc:title>Matplotlib v3.4.3, https://matplotlib.org/</dc:title>
     </cc:Agent>
    </dc:creator>
   </cc:Work>
  </rdf:RDF>
 </metadata>
 <defs>
  <style type="text/css">*{stroke-linecap:butt;stroke-linejoin:round;}</style>
 </defs>
 <g id="figure_1">
  <g id="patch_1">
   <path d="M 0 576 
L 864 576 
L 864 0 
L 0 0 
z
" style="fill:#ffffff;"/>
  </g>
  <g id="axes_1">
   <g id="patch_2">
    <path d="M 108 512.64 
L 777.6 512.64 
L 777.6 69.12 
L 108 69.12 
z
" style="fill:#ffffff;"/>
   </g>
   <g id="matplotlib.axis_1">
    <g id="xtick_1">
     <g id="line2d_1">
      <defs>
       <path d="M 0 0 
L 0 3.5 
" id="mfe36b49054" style="stroke:#000000;stroke-width:0.8;"/>
      </defs>
      <g>
       <use style="stroke:#000000;stroke-width:0.8;" x="138.436364" xlink:href="#mfe36b49054" y="512.64"/>
      </g>
     </g>
     <g id="text_1">
      <!-- 0 -->
      <g transform="translate(133.982614 530.277812)scale(0.14 -0.14)">
       <defs>
        <path d="M 2034 4250 
Q 1547 4250 1301 3770 
Q 1056 3291 1056 2328 
Q 1056 1369 1301 889 
Q 1547 409 2034 409 
Q 2525 409 2770 889 
Q 3016 1369 3016 2328 
Q 3016 3291 2770 3770 
Q 2525 4250 2034 4250 
z
M 2034 4750 
Q 2819 4750 3233 4129 
Q 3647 3509 3647 2328 
Q 3647 1150 3233 529 
Q 2819 -91 2034 -91 
Q 1250 -91 836 529 
Q 422 1150 422 2328 
Q 422 3509 836 4129 
Q 1250 4750 2034 4750 
z
" id="DejaVuSans-30" transform="scale(0.015625)"/>
       </defs>
       <use xlink:href="#DejaVuSans-30"/>
      </g>
     </g>
    </g>
    <g id="xtick_2">
     <g id="line2d_2">
      <g>
       <use style="stroke:#000000;stroke-width:0.8;" x="260.303686" xlink:href="#mfe36b49054" y="512.64"/>
      </g>
     </g>
     <g id="text_2">
      <!-- 200 -->
      <g transform="translate(246.942436 530.277812)scale(0.14 -0.14)">
       <defs>
        <path d="M 1228 531 
L 3431 531 
L 3431 0 
L 469 0 
L 469 531 
Q 828 903 1448 1529 
Q 2069 2156 2228 2338 
Q 2531 2678 2651 2914 
Q 2772 3150 2772 3378 
Q 2772 3750 2511 3984 
Q 2250 4219 1831 4219 
Q 1534 4219 1204 4116 
Q 875 4013 500 3803 
L 500 4441 
Q 881 4594 1212 4672 
Q 1544 4750 1819 4750 
Q 2544 4750 2975 4387 
Q 3406 4025 3406 3419 
Q 3406 3131 3298 2873 
Q 3191 2616 2906 2266 
Q 2828 2175 2409 1742 
Q 1991 1309 1228 531 
z
" id="DejaVuSans-32" transform="scale(0.015625)"/>
       </defs>
       <use xlink:href="#DejaVuSans-32"/>
       <use x="63.623047" xlink:href="#DejaVuSans-30"/>
       <use x="127.246094" xlink:href="#DejaVuSans-30"/>
      </g>
     </g>
    </g>
    <g id="xtick_3">
     <g id="line2d_3">
      <g>
       <use style="stroke:#000000;stroke-width:0.8;" x="382.171007" xlink:href="#mfe36b49054" y="512.64"/>
      </g>
     </g>
     <g id="text_3">
      <!-- 400 -->
      <g transform="translate(368.809757 530.277812)scale(0.14 -0.14)">
       <defs>
        <path d="M 2419 4116 
L 825 1625 
L 2419 1625 
L 2419 4116 
z
M 2253 4666 
L 3047 4666 
L 3047 1625 
L 3713 1625 
L 3713 1100 
L 3047 1100 
L 3047 0 
L 2419 0 
L 2419 1100 
L 313 1100 
L 313 1709 
L 2253 4666 
z
" id="DejaVuSans-34" transform="scale(0.015625)"/>
       </defs>
       <use xlink:href="#DejaVuSans-34"/>
       <use x="63.623047" xlink:href="#DejaVuSans-30"/>
       <use x="127.246094" xlink:href="#DejaVuSans-30"/>
      </g>
     </g>
    </g>
    <g id="xtick_4">
     <g id="line2d_4">
      <g>
       <use style="stroke:#000000;stroke-width:0.8;" x="504.038329" xlink:href="#mfe36b49054" y="512.64"/>
      </g>
     </g>
     <g id="text_4">
      <!-- 600 -->
      <g transform="translate(490.677079 530.277812)scale(0.14 -0.14)">
       <defs>
        <path d="M 2113 2584 
Q 1688 2584 1439 2293 
Q 1191 2003 1191 1497 
Q 1191 994 1439 701 
Q 1688 409 2113 409 
Q 2538 409 2786 701 
Q 3034 994 3034 1497 
Q 3034 2003 2786 2293 
Q 2538 2584 2113 2584 
z
M 3366 4563 
L 3366 3988 
Q 3128 4100 2886 4159 
Q 2644 4219 2406 4219 
Q 1781 4219 1451 3797 
Q 1122 3375 1075 2522 
Q 1259 2794 1537 2939 
Q 1816 3084 2150 3084 
Q 2853 3084 3261 2657 
Q 3669 2231 3669 1497 
Q 3669 778 3244 343 
Q 2819 -91 2113 -91 
Q 1303 -91 875 529 
Q 447 1150 447 2328 
Q 447 3434 972 4092 
Q 1497 4750 2381 4750 
Q 2619 4750 2861 4703 
Q 3103 4656 3366 4563 
z
" id="DejaVuSans-36" transform="scale(0.015625)"/>
       </defs>
       <use xlink:href="#DejaVuSans-36"/>
       <use x="63.623047" xlink:href="#DejaVuSans-30"/>
       <use x="127.246094" xlink:href="#DejaVuSans-30"/>
      </g>
     </g>
    </g>
    <g id="xtick_5">
     <g id="line2d_5">
      <g>
       <use style="stroke:#000000;stroke-width:0.8;" x="625.905651" xlink:href="#mfe36b49054" y="512.64"/>
      </g>
     </g>
     <g id="text_5">
      <!-- 800 -->
      <g transform="translate(612.544401 530.277812)scale(0.14 -0.14)">
       <defs>
        <path d="M 2034 2216 
Q 1584 2216 1326 1975 
Q 1069 1734 1069 1313 
Q 1069 891 1326 650 
Q 1584 409 2034 409 
Q 2484 409 2743 651 
Q 3003 894 3003 1313 
Q 3003 1734 2745 1975 
Q 2488 2216 2034 2216 
z
M 1403 2484 
Q 997 2584 770 2862 
Q 544 3141 544 3541 
Q 544 4100 942 4425 
Q 1341 4750 2034 4750 
Q 2731 4750 3128 4425 
Q 3525 4100 3525 3541 
Q 3525 3141 3298 2862 
Q 3072 2584 2669 2484 
Q 3125 2378 3379 2068 
Q 3634 1759 3634 1313 
Q 3634 634 3220 271 
Q 2806 -91 2034 -91 
Q 1263 -91 848 271 
Q 434 634 434 1313 
Q 434 1759 690 2068 
Q 947 2378 1403 2484 
z
M 1172 3481 
Q 1172 3119 1398 2916 
Q 1625 2713 2034 2713 
Q 2441 2713 2670 2916 
Q 2900 3119 2900 3481 
Q 2900 3844 2670 4047 
Q 2441 4250 2034 4250 
Q 1625 4250 1398 4047 
Q 1172 3844 1172 3481 
z
" id="DejaVuSans-38" transform="scale(0.015625)"/>
       </defs>
       <use xlink:href="#DejaVuSans-38"/>
       <use x="63.623047" xlink:href="#DejaVuSans-30"/>
       <use x="127.246094" xlink:href="#DejaVuSans-30"/>
      </g>
     </g>
    </g>
    <g id="xtick_6">
     <g id="line2d_6">
      <g>
       <use style="stroke:#000000;stroke-width:0.8;" x="747.772973" xlink:href="#mfe36b49054" y="512.64"/>
      </g>
     </g>
     <g id="text_6">
      <!-- 1000 -->
      <g transform="translate(729.957973 530.277812)scale(0.14 -0.14)">
       <defs>
        <path d="M 794 531 
L 1825 531 
L 1825 4091 
L 703 3866 
L 703 4441 
L 1819 4666 
L 2450 4666 
L 2450 531 
L 3481 531 
L 3481 0 
L 794 0 
L 794 531 
z
" id="DejaVuSans-31" transform="scale(0.015625)"/>
       </defs>
       <use xlink:href="#DejaVuSans-31"/>
       <use x="63.623047" xlink:href="#DejaVuSans-30"/>
       <use x="127.246094" xlink:href="#DejaVuSans-30"/>
       <use x="190.869141" xlink:href="#DejaVuSans-30"/>
      </g>
     </g>
    </g>
    <g id="text_7">
     <!-- Time Steps -->
     <g transform="translate(403.8625 547.827188)scale(0.14 -0.14)">
      <defs>
       <path d="M -19 4666 
L 3928 4666 
L 3928 4134 
L 2272 4134 
L 2272 0 
L 1638 0 
L 1638 4134 
L -19 4134 
L -19 4666 
z
" id="DejaVuSans-54" transform="scale(0.015625)"/>
       <path d="M 603 3500 
L 1178 3500 
L 1178 0 
L 603 0 
L 603 3500 
z
M 603 4863 
L 1178 4863 
L 1178 4134 
L 603 4134 
L 603 4863 
z
" id="DejaVuSans-69" transform="scale(0.015625)"/>
       <path d="M 3328 2828 
Q 3544 3216 3844 3400 
Q 4144 3584 4550 3584 
Q 5097 3584 5394 3201 
Q 5691 2819 5691 2113 
L 5691 0 
L 5113 0 
L 5113 2094 
Q 5113 2597 4934 2840 
Q 4756 3084 4391 3084 
Q 3944 3084 3684 2787 
Q 3425 2491 3425 1978 
L 3425 0 
L 2847 0 
L 2847 2094 
Q 2847 2600 2669 2842 
Q 2491 3084 2119 3084 
Q 1678 3084 1418 2786 
Q 1159 2488 1159 1978 
L 1159 0 
L 581 0 
L 581 3500 
L 1159 3500 
L 1159 2956 
Q 1356 3278 1631 3431 
Q 1906 3584 2284 3584 
Q 2666 3584 2933 3390 
Q 3200 3197 3328 2828 
z
" id="DejaVuSans-6d" transform="scale(0.015625)"/>
       <path d="M 3597 1894 
L 3597 1613 
L 953 1613 
Q 991 1019 1311 708 
Q 1631 397 2203 397 
Q 2534 397 2845 478 
Q 3156 559 3463 722 
L 3463 178 
Q 3153 47 2828 -22 
Q 2503 -91 2169 -91 
Q 1331 -91 842 396 
Q 353 884 353 1716 
Q 353 2575 817 3079 
Q 1281 3584 2069 3584 
Q 2775 3584 3186 3129 
Q 3597 2675 3597 1894 
z
M 3022 2063 
Q 3016 2534 2758 2815 
Q 2500 3097 2075 3097 
Q 1594 3097 1305 2825 
Q 1016 2553 972 2059 
L 3022 2063 
z
" id="DejaVuSans-65" transform="scale(0.015625)"/>
       <path id="DejaVuSans-20" transform="scale(0.015625)"/>
       <path d="M 3425 4513 
L 3425 3897 
Q 3066 4069 2747 4153 
Q 2428 4238 2131 4238 
Q 1616 4238 1336 4038 
Q 1056 3838 1056 3469 
Q 1056 3159 1242 3001 
Q 1428 2844 1947 2747 
L 2328 2669 
Q 3034 2534 3370 2195 
Q 3706 1856 3706 1288 
Q 3706 609 3251 259 
Q 2797 -91 1919 -91 
Q 1588 -91 1214 -16 
Q 841 59 441 206 
L 441 856 
Q 825 641 1194 531 
Q 1563 422 1919 422 
Q 2459 422 2753 634 
Q 3047 847 3047 1241 
Q 3047 1584 2836 1778 
Q 2625 1972 2144 2069 
L 1759 2144 
Q 1053 2284 737 2584 
Q 422 2884 422 3419 
Q 422 4038 858 4394 
Q 1294 4750 2059 4750 
Q 2388 4750 2728 4690 
Q 3069 4631 3425 4513 
z
" id="DejaVuSans-53" transform="scale(0.015625)"/>
       <path d="M 1172 4494 
L 1172 3500 
L 2356 3500 
L 2356 3053 
L 1172 3053 
L 1172 1153 
Q 1172 725 1289 603 
Q 1406 481 1766 481 
L 2356 481 
L 2356 0 
L 1766 0 
Q 1100 0 847 248 
Q 594 497 594 1153 
L 594 3053 
L 172 3053 
L 172 3500 
L 594 3500 
L 594 4494 
L 1172 4494 
z
" id="DejaVuSans-74" transform="scale(0.015625)"/>
       <path d="M 1159 525 
L 1159 -1331 
L 581 -1331 
L 581 3500 
L 1159 3500 
L 1159 2969 
Q 1341 3281 1617 3432 
Q 1894 3584 2278 3584 
Q 2916 3584 3314 3078 
Q 3713 2572 3713 1747 
Q 3713 922 3314 415 
Q 2916 -91 2278 -91 
Q 1894 -91 1617 61 
Q 1341 213 1159 525 
z
M 3116 1747 
Q 3116 2381 2855 2742 
Q 2594 3103 2138 3103 
Q 1681 3103 1420 2742 
Q 1159 2381 1159 1747 
Q 1159 1113 1420 752 
Q 1681 391 2138 391 
Q 2594 391 2855 752 
Q 3116 1113 3116 1747 
z
" id="DejaVuSans-70" transform="scale(0.015625)"/>
       <path d="M 2834 3397 
L 2834 2853 
Q 2591 2978 2328 3040 
Q 2066 3103 1784 3103 
Q 1356 3103 1142 2972 
Q 928 2841 928 2578 
Q 928 2378 1081 2264 
Q 1234 2150 1697 2047 
L 1894 2003 
Q 2506 1872 2764 1633 
Q 3022 1394 3022 966 
Q 3022 478 2636 193 
Q 2250 -91 1575 -91 
Q 1294 -91 989 -36 
Q 684 19 347 128 
L 347 722 
Q 666 556 975 473 
Q 1284 391 1588 391 
Q 1994 391 2212 530 
Q 2431 669 2431 922 
Q 2431 1156 2273 1281 
Q 2116 1406 1581 1522 
L 1381 1569 
Q 847 1681 609 1914 
Q 372 2147 372 2553 
Q 372 3047 722 3315 
Q 1072 3584 1716 3584 
Q 2034 3584 2315 3537 
Q 2597 3491 2834 3397 
z
" id="DejaVuSans-73" transform="scale(0.015625)"/>
      </defs>
      <use xlink:href="#DejaVuSans-54"/>
      <use x="57.958984" xlink:href="#DejaVuSans-69"/>
      <use x="85.742188" xlink:href="#DejaVuSans-6d"/>
      <use x="183.154297" xlink:href="#DejaVuSans-65"/>
      <use x="244.677734" xlink:href="#DejaVuSans-20"/>
      <use x="276.464844" xlink:href="#DejaVuSans-53"/>
      <use x="339.941406" xlink:href="#DejaVuSans-74"/>
      <use x="379.150391" xlink:href="#DejaVuSans-65"/>
      <use x="440.673828" xlink:href="#DejaVuSans-70"/>
      <use x="504.150391" xlink:href="#DejaVuSans-73"/>
     </g>
    </g>
   </g>
   <g id="matplotlib.axis_2">
    <g id="ytick_1">
     <g id="line2d_7">
      <defs>
       <path d="M 0 0 
L -3.5 0 
" id="m7307c63d05" style="stroke:#000000;stroke-width:0.8;"/>
      </defs>
      <g>
       <use style="stroke:#000000;stroke-width:0.8;" x="108" xlink:href="#m7307c63d05" y="492.77551"/>
      </g>
     </g>
     <g id="text_8">
      <!-- 0 -->
      <g transform="translate(92.0925 498.094417)scale(0.14 -0.14)">
       <use xlink:href="#DejaVuSans-30"/>
      </g>
     </g>
    </g>
    <g id="ytick_2">
     <g id="line2d_8">
      <g>
       <use style="stroke:#000000;stroke-width:0.8;" x="108" xlink:href="#m7307c63d05" y="432.981226"/>
      </g>
     </g>
     <g id="text_9">
      <!-- 25 -->
      <g transform="translate(83.185 438.300132)scale(0.14 -0.14)">
       <defs>
        <path d="M 691 4666 
L 3169 4666 
L 3169 4134 
L 1269 4134 
L 1269 2991 
Q 1406 3038 1543 3061 
Q 1681 3084 1819 3084 
Q 2600 3084 3056 2656 
Q 3513 2228 3513 1497 
Q 3513 744 3044 326 
Q 2575 -91 1722 -91 
Q 1428 -91 1123 -41 
Q 819 9 494 109 
L 494 744 
Q 775 591 1075 516 
Q 1375 441 1709 441 
Q 2250 441 2565 725 
Q 2881 1009 2881 1497 
Q 2881 1984 2565 2268 
Q 2250 2553 1709 2553 
Q 1456 2553 1204 2497 
Q 953 2441 691 2322 
L 691 4666 
z
" id="DejaVuSans-35" transform="scale(0.015625)"/>
       </defs>
       <use xlink:href="#DejaVuSans-32"/>
       <use x="63.623047" xlink:href="#DejaVuSans-35"/>
      </g>
     </g>
    </g>
    <g id="ytick_3">
     <g id="line2d_9">
      <g>
       <use style="stroke:#000000;stroke-width:0.8;" x="108" xlink:href="#m7307c63d05" y="373.186941"/>
      </g>
     </g>
     <g id="text_10">
      <!-- 50 -->
      <g transform="translate(83.185 378.505847)scale(0.14 -0.14)">
       <use xlink:href="#DejaVuSans-35"/>
       <use x="63.623047" xlink:href="#DejaVuSans-30"/>
      </g>
     </g>
    </g>
    <g id="ytick_4">
     <g id="line2d_10">
      <g>
       <use style="stroke:#000000;stroke-width:0.8;" x="108" xlink:href="#m7307c63d05" y="313.392656"/>
      </g>
     </g>
     <g id="text_11">
      <!-- 75 -->
      <g transform="translate(83.185 318.711562)scale(0.14 -0.14)">
       <defs>
        <path d="M 525 4666 
L 3525 4666 
L 3525 4397 
L 1831 0 
L 1172 0 
L 2766 4134 
L 525 4134 
L 525 4666 
z
" id="DejaVuSans-37" transform="scale(0.015625)"/>
       </defs>
       <use xlink:href="#DejaVuSans-37"/>
       <use x="63.623047" xlink:href="#DejaVuSans-35"/>
      </g>
     </g>
    </g>
    <g id="ytick_5">
     <g id="line2d_11">
      <g>
       <use style="stroke:#000000;stroke-width:0.8;" x="108" xlink:href="#m7307c63d05" y="253.598371"/>
      </g>
     </g>
     <g id="text_12">
      <!-- 100 -->
      <g transform="translate(74.2775 258.917277)scale(0.14 -0.14)">
       <use xlink:href="#DejaVuSans-31"/>
       <use x="63.623047" xlink:href="#DejaVuSans-30"/>
       <use x="127.246094" xlink:href="#DejaVuSans-30"/>
      </g>
     </g>
    </g>
    <g id="ytick_6">
     <g id="line2d_12">
      <g>
       <use style="stroke:#000000;stroke-width:0.8;" x="108" xlink:href="#m7307c63d05" y="193.804086"/>
      </g>
     </g>
     <g id="text_13">
      <!-- 125 -->
      <g transform="translate(74.2775 199.122992)scale(0.14 -0.14)">
       <use xlink:href="#DejaVuSans-31"/>
       <use x="63.623047" xlink:href="#DejaVuSans-32"/>
       <use x="127.246094" xlink:href="#DejaVuSans-35"/>
      </g>
     </g>
    </g>
    <g id="ytick_7">
     <g id="line2d_13">
      <g>
       <use style="stroke:#000000;stroke-width:0.8;" x="108" xlink:href="#m7307c63d05" y="134.009801"/>
      </g>
     </g>
     <g id="text_14">
      <!-- 150 -->
      <g transform="translate(74.2775 139.328708)scale(0.14 -0.14)">
       <use xlink:href="#DejaVuSans-31"/>
       <use x="63.623047" xlink:href="#DejaVuSans-35"/>
       <use x="127.246094" xlink:href="#DejaVuSans-30"/>
      </g>
     </g>
    </g>
    <g id="ytick_8">
     <g id="line2d_14">
      <g>
       <use style="stroke:#000000;stroke-width:0.8;" x="108" xlink:href="#m7307c63d05" y="74.215516"/>
      </g>
     </g>
     <g id="text_15">
      <!-- 175 -->
      <g transform="translate(74.2775 79.534423)scale(0.14 -0.14)">
       <use xlink:href="#DejaVuSans-31"/>
       <use x="63.623047" xlink:href="#DejaVuSans-37"/>
       <use x="127.246094" xlink:href="#DejaVuSans-35"/>
      </g>
     </g>
    </g>
    <g id="text_16">
     <!-- Average regret -->
     <g transform="translate(67.365938 343.093437)rotate(-90)scale(0.14 -0.14)">
      <defs>
       <path d="M 2188 4044 
L 1331 1722 
L 3047 1722 
L 2188 4044 
z
M 1831 4666 
L 2547 4666 
L 4325 0 
L 3669 0 
L 3244 1197 
L 1141 1197 
L 716 0 
L 50 0 
L 1831 4666 
z
" id="DejaVuSans-41" transform="scale(0.015625)"/>
       <path d="M 191 3500 
L 800 3500 
L 1894 563 
L 2988 3500 
L 3597 3500 
L 2284 0 
L 1503 0 
L 191 3500 
z
" id="DejaVuSans-76" transform="scale(0.015625)"/>
       <path d="M 2631 2963 
Q 2534 3019 2420 3045 
Q 2306 3072 2169 3072 
Q 1681 3072 1420 2755 
Q 1159 2438 1159 1844 
L 1159 0 
L 581 0 
L 581 3500 
L 1159 3500 
L 1159 2956 
Q 1341 3275 1631 3429 
Q 1922 3584 2338 3584 
Q 2397 3584 2469 3576 
Q 2541 3569 2628 3553 
L 2631 2963 
z
" id="DejaVuSans-72" transform="scale(0.015625)"/>
       <path d="M 2194 1759 
Q 1497 1759 1228 1600 
Q 959 1441 959 1056 
Q 959 750 1161 570 
Q 1363 391 1709 391 
Q 2188 391 2477 730 
Q 2766 1069 2766 1631 
L 2766 1759 
L 2194 1759 
z
M 3341 1997 
L 3341 0 
L 2766 0 
L 2766 531 
Q 2569 213 2275 61 
Q 1981 -91 1556 -91 
Q 1019 -91 701 211 
Q 384 513 384 1019 
Q 384 1609 779 1909 
Q 1175 2209 1959 2209 
L 2766 2209 
L 2766 2266 
Q 2766 2663 2505 2880 
Q 2244 3097 1772 3097 
Q 1472 3097 1187 3025 
Q 903 2953 641 2809 
L 641 3341 
Q 956 3463 1253 3523 
Q 1550 3584 1831 3584 
Q 2591 3584 2966 3190 
Q 3341 2797 3341 1997 
z
" id="DejaVuSans-61" transform="scale(0.015625)"/>
       <path d="M 2906 1791 
Q 2906 2416 2648 2759 
Q 2391 3103 1925 3103 
Q 1463 3103 1205 2759 
Q 947 2416 947 1791 
Q 947 1169 1205 825 
Q 1463 481 1925 481 
Q 2391 481 2648 825 
Q 2906 1169 2906 1791 
z
M 3481 434 
Q 3481 -459 3084 -895 
Q 2688 -1331 1869 -1331 
Q 1566 -1331 1297 -1286 
Q 1028 -1241 775 -1147 
L 775 -588 
Q 1028 -725 1275 -790 
Q 1522 -856 1778 -856 
Q 2344 -856 2625 -561 
Q 2906 -266 2906 331 
L 2906 616 
Q 2728 306 2450 153 
Q 2172 0 1784 0 
Q 1141 0 747 490 
Q 353 981 353 1791 
Q 353 2603 747 3093 
Q 1141 3584 1784 3584 
Q 2172 3584 2450 3431 
Q 2728 3278 2906 2969 
L 2906 3500 
L 3481 3500 
L 3481 434 
z
" id="DejaVuSans-67" transform="scale(0.015625)"/>
      </defs>
      <use xlink:href="#DejaVuSans-41"/>
      <use x="62.533203" xlink:href="#DejaVuSans-76"/>
      <use x="121.712891" xlink:href="#DejaVuSans-65"/>
      <use x="183.236328" xlink:href="#DejaVuSans-72"/>
      <use x="224.349609" xlink:href="#DejaVuSans-61"/>
      <use x="285.628906" xlink:href="#DejaVuSans-67"/>
      <use x="349.105469" xlink:href="#DejaVuSans-65"/>
      <use x="410.628906" xlink:href="#DejaVuSans-20"/>
      <use x="442.416016" xlink:href="#DejaVuSans-72"/>
      <use x="481.279297" xlink:href="#DejaVuSans-65"/>
      <use x="542.802734" xlink:href="#DejaVuSans-67"/>
      <use x="606.279297" xlink:href="#DejaVuSans-72"/>
      <use x="645.142578" xlink:href="#DejaVuSans-65"/>
      <use x="706.666016" xlink:href="#DejaVuSans-74"/>
     </g>
    </g>
   </g>
   <g id="line2d_15">
    <path clip-path="url(#pb774c96acf)" d="M 138.436364 492.372015 
L 747.163636 89.28 
L 747.163636 89.28 
" style="fill:none;stroke:#1f77b4;stroke-linecap:square;stroke-width:2;"/>
   </g>
   <g id="line2d_16">
    <path clip-path="url(#pb774c96acf)" d="M 138.436364 492.439137 
L 140.87371 491.113362 
L 142.70172 490.08713 
L 145.748403 487.876354 
L 156.107125 481.57545 
L 157.325799 480.932387 
L 157.935135 480.492714 
L 160.372482 479.304521 
L 162.809828 477.881021 
L 164.028501 477.214091 
L 165.856511 476.000616 
L 170.121867 473.407198 
L 171.340541 472.84492 
L 171.949877 472.346054 
L 176.215233 469.938673 
L 179.871253 467.471899 
L 181.089926 466.800234 
L 182.3086 466.052229 
L 182.917936 465.614344 
L 183.527273 465.370289 
L 187.183292 462.894411 
L 188.401966 462.173517 
L 192.057985 459.85364 
L 195.714005 457.817537 
L 197.542015 456.671341 
L 198.760688 455.961978 
L 199.370025 455.484222 
L 202.416708 453.787974 
L 203.635381 452.964874 
L 204.244717 452.6897 
L 206.682064 451.004947 
L 207.2914 450.746593 
L 210.338084 448.655615 
L 211.556757 447.851425 
L 214.60344 446.121038 
L 220.696806 442.299407 
L 223.134152 440.689322 
L 224.962162 439.735193 
L 226.790172 438.514038 
L 232.274201 435.262517 
L 235.320885 433.353849 
L 235.930221 433.054011 
L 238.367568 431.3599 
L 240.195577 430.249963 
L 242.632924 428.86478 
L 243.851597 428.376952 
L 246.89828 426.429002 
L 259.694349 418.231514 
L 260.913022 417.628793 
L 261.522359 417.141129 
L 262.741032 416.464837 
L 263.959705 415.530152 
L 265.787715 414.562938 
L 267.615725 413.251146 
L 268.834398 412.61341 
L 270.053071 411.820713 
L 271.881081 410.767511 
L 273.709091 409.785372 
L 276.146437 408.291552 
L 281.630467 404.879002 
L 282.84914 404.259882 
L 284.67715 402.961085 
L 285.895823 402.135688 
L 288.33317 400.736019 
L 290.161179 399.79484 
L 291.989189 398.491906 
L 302.347912 391.996549 
L 304.175921 390.840022 
L 304.785258 390.504687 
L 306.613268 389.202053 
L 308.441278 388.241091 
L 309.659951 387.489759 
L 313.315971 385.165554 
L 314.534644 384.463491 
L 317.581327 382.743947 
L 318.8 381.816974 
L 321.846683 379.9321 
L 324.284029 378.378244 
L 326.112039 377.398424 
L 327.330713 376.718367 
L 331.596069 373.993693 
L 333.424079 372.767231 
L 336.470762 371.049999 
L 337.689435 370.367809 
L 339.517445 369.446598 
L 342.564128 367.443999 
L 343.173464 366.925081 
L 345.610811 365.608448 
L 346.829484 364.896735 
L 349.876167 362.794375 
L 351.09484 362.159105 
L 352.92285 361.12405 
L 354.75086 360.025295 
L 360.844226 356.887857 
L 377.905651 346.642576 
L 383.389681 343.354926 
L 385.21769 342.351176 
L 396.185749 335.657747 
L 396.795086 335.407551 
L 398.623096 334.294405 
L 399.232432 334.068036 
L 401.060442 332.850482 
L 401.669779 332.562799 
L 405.325799 330.116808 
L 406.544472 329.515573 
L 407.153808 329.087793 
L 408.372482 328.526954 
L 410.809828 327.039002 
L 412.028501 326.488646 
L 413.247174 325.635905 
L 416.903194 323.648615 
L 418.731204 322.542489 
L 420.559214 321.329101 
L 422.387224 320.154826 
L 423.605897 319.292982 
L 424.215233 318.805664 
L 425.433907 318.195338 
L 427.261916 316.8108 
L 432.136609 313.560135 
L 435.792629 311.702739 
L 437.011302 310.992434 
L 437.620639 310.673689 
L 438.839312 309.86284 
L 439.448649 309.535422 
L 440.057985 308.99922 
L 441.276658 308.343831 
L 443.714005 306.636007 
L 446.151351 305.110693 
L 448.588698 303.670061 
L 451.635381 301.767297 
L 454.072727 300.665658 
L 455.2914 299.855936 
L 456.510074 299.203523 
L 458.338084 297.954457 
L 459.556757 297.298379 
L 461.384767 296.007227 
L 463.212776 294.658925 
L 465.040786 293.467391 
L 466.868796 292.537677 
L 469.915479 290.556366 
L 470.524816 290.023518 
L 478.446192 285.187948 
L 479.664865 284.300221 
L 482.711548 282.658959 
L 487.586241 279.460673 
L 494.288943 275.711268 
L 500.991646 271.349262 
L 501.600983 271.082784 
L 505.257002 268.778165 
L 505.866339 268.514723 
L 509.522359 266.218378 
L 511.959705 265.000232 
L 512.569042 264.480051 
L 517.443735 261.631081 
L 520.490418 259.563355 
L 523.537101 257.892447 
L 524.755774 257.11267 
L 527.802457 255.265293 
L 528.411794 255.005004 
L 529.630467 254.071295 
L 530.239803 253.655936 
L 530.84914 253.411255 
L 543.645209 245.628595 
L 544.863882 244.78788 
L 550.957248 241.128731 
L 552.785258 239.868727 
L 554.003931 239.207481 
L 555.831941 238.09598 
L 571.065356 228.896332 
L 572.893366 227.793877 
L 575.330713 226.215615 
L 578.986732 224.109965 
L 582.642752 221.642309 
L 588.736118 217.894996 
L 592.392138 215.8264 
L 593.001474 215.38443 
L 594.220147 214.789159 
L 595.438821 214.025598 
L 598.485504 211.936829 
L 599.704177 211.283385 
L 601.532187 210.175592 
L 604.57887 208.457466 
L 606.40688 207.539502 
L 610.672236 204.751111 
L 611.281572 204.524686 
L 613.718919 202.993869 
L 614.937592 202.377649 
L 616.765602 201.49227 
L 620.421622 199.153595 
L 623.468305 197.428768 
L 625.905651 196.21577 
L 626.514988 195.766227 
L 627.733661 195.139229 
L 628.952334 194.403915 
L 630.171007 193.789389 
L 635.655037 190.334676 
L 643.576413 185.401095 
L 645.404423 184.517542 
L 649.060442 182.332866 
L 649.669779 181.946044 
L 650.279115 181.379045 
L 650.888452 181.097784 
L 652.107125 180.200458 
L 655.153808 178.446684 
L 656.372482 177.480189 
L 657.591155 176.671414 
L 658.809828 175.865979 
L 660.637838 174.792646 
L 674.65258 166.35336 
L 676.48059 165.100722 
L 678.3086 164.067738 
L 679.527273 163.211762 
L 683.183292 160.997842 
L 685.011302 159.685398 
L 686.229975 159.049759 
L 687.448649 158.186212 
L 689.276658 157.170167 
L 692.932678 155.124194 
L 693.542015 154.872294 
L 695.370025 153.67287 
L 695.979361 153.430985 
L 697.807371 152.316465 
L 698.416708 152.133339 
L 700.244717 151.027264 
L 705.11941 147.866699 
L 707.556757 146.383531 
L 708.166093 145.853978 
L 711.212776 144.118727 
L 715.478133 141.401178 
L 718.524816 139.490495 
L 722.180835 137.464809 
L 722.790172 137.207529 
L 724.618182 136.091574 
L 728.274201 134.094703 
L 728.883538 133.805878 
L 730.102211 132.98444 
L 731.930221 131.790658 
L 732.539558 131.505699 
L 734.367568 130.37369 
L 736.804914 128.70475 
L 738.632924 127.44864 
L 741.07027 125.892178 
L 741.679607 125.577434 
L 743.507617 124.173338 
L 744.72629 123.351845 
L 745.335627 123.055031 
L 747.163636 121.812652 
L 747.163636 121.812652 
" style="fill:none;stroke:#ff7f0e;stroke-linecap:square;stroke-width:2;"/>
   </g>
   <g id="line2d_17">
    <path clip-path="url(#pb774c96acf)" d="M 138.436364 492.320491 
L 140.87371 490.609462 
L 142.092383 489.829091 
L 145.748403 487.80825 
L 149.404423 486.285087 
L 154.888452 484.525362 
L 158.544472 483.539453 
L 164.028501 482.592997 
L 173.16855 481.371015 
L 177.433907 480.991513 
L 178.65258 480.817744 
L 182.3086 480.61952 
L 184.745946 480.408151 
L 185.964619 480.247344 
L 188.401966 480.069537 
L 192.057985 479.736723 
L 193.885995 479.594211 
L 196.323342 479.392293 
L 208.510074 478.552304 
L 212.166093 478.408857 
L 220.696806 477.684419 
L 222.524816 477.51641 
L 224.352826 477.298379 
L 229.836855 476.926277 
L 240.195577 475.952507 
L 242.023587 475.794743 
L 243.24226 475.626287 
L 248.72629 475.16244 
L 249.944963 475.046506 
L 261.522359 474.3458 
L 263.959705 474.172925 
L 273.099754 473.811041 
L 276.755774 473.602603 
L 277.974447 473.479481 
L 281.630467 473.320925 
L 282.84914 473.191864 
L 293.207862 472.534567 
L 295.035872 472.374914 
L 296.863882 472.271573 
L 301.129238 471.957928 
L 302.347912 471.891947 
L 303.566585 471.810832 
L 306.003931 471.67568 
L 309.050614 471.53167 
L 313.925307 470.984676 
L 316.362654 470.76046 
L 337.689435 469.27236 
L 338.908108 469.200024 
L 353.532187 468.157699 
L 358.40688 467.870875 
L 362.062899 467.539402 
L 386.436364 466.15965 
L 388.264373 465.972061 
L 390.092383 465.808087 
L 392.52973 465.622057 
L 394.967076 465.447896 
L 409.591155 464.457606 
L 413.247174 464.114451 
L 419.949877 463.529067 
L 421.777887 463.427812 
L 423.605897 463.247437 
L 427.871253 463.035768 
L 430.3086 462.751566 
L 432.745946 462.653287 
L 436.401966 462.300586 
L 437.011302 462.281844 
L 437.620639 462.133056 
L 439.448649 462.008865 
L 441.276658 461.864898 
L 444.932678 461.679215 
L 456.510074 461.106041 
L 463.212776 460.807876 
L 465.650123 460.61152 
L 470.524816 460.385634 
L 472.352826 460.175793 
L 472.962162 460.148592 
L 474.180835 459.944524 
L 476.618182 459.814161 
L 480.883538 459.481941 
L 486.976904 459.037517 
L 503.428993 457.889054 
L 506.475676 457.662356 
L 508.303686 457.387641 
L 509.522359 457.35287 
L 510.741032 457.168854 
L 513.178378 457.022932 
L 519.881081 456.637414 
L 522.318428 456.488664 
L 525.365111 456.342009 
L 527.19312 456.190606 
L 529.02113 456.064762 
L 532.067813 455.814816 
L 539.379853 455.470436 
L 543.645209 455.15726 
L 550.347912 454.799048 
L 552.785258 454.58476 
L 555.831941 454.416477 
L 557.659951 454.276578 
L 567.409337 453.483878 
L 568.62801 453.346235 
L 570.45602 453.236967 
L 574.112039 452.86264 
L 588.126781 451.803999 
L 591.782801 451.629717 
L 593.610811 451.505468 
L 614.328256 450.432921 
L 616.156265 450.329266 
L 633.827027 449.091543 
L 636.264373 448.91107 
L 639.311057 448.727766 
L 646.013759 448.250735 
L 647.232432 448.119353 
L 652.716462 447.697869 
L 654.544472 447.527375 
L 661.247174 447.228694 
L 664.903194 446.990244 
L 666.121867 446.860934 
L 667.949877 446.78116 
L 685.011302 445.451638 
L 686.839312 445.180342 
L 698.416708 444.386689 
L 699.635381 444.265957 
L 703.900737 443.907363 
L 705.728747 443.824922 
L 706.94742 443.649998 
L 711.212776 443.372091 
L 713.650123 443.287029 
L 714.868796 443.200848 
L 717.306143 443.104818 
L 718.524816 443.000923 
L 722.180835 442.846781 
L 725.227518 442.689201 
L 727.055528 442.658158 
L 728.274201 442.482102 
L 741.679607 441.576462 
L 742.89828 441.445104 
L 746.5543 441.354275 
L 747.163636 441.316413 
L 747.163636 441.316413 
" style="fill:none;stroke:#2ca02c;stroke-linecap:square;stroke-width:2;"/>
   </g>
   <g id="line2d_18">
    <path clip-path="url(#pb774c96acf)" d="M 138.436364 492.349016 
L 139.655037 491.612167 
L 141.483047 490.310487 
L 145.139066 488.445654 
L 147.576413 487.378856 
L 149.404423 486.651643 
L 151.841769 485.827108 
L 154.279115 484.966279 
L 155.497789 484.678471 
L 156.716462 484.433575 
L 159.153808 483.699247 
L 160.981818 483.282208 
L 162.809828 482.716643 
L 173.16855 480.875401 
L 179.261916 480.387904 
L 187.183292 479.675619 
L 189.620639 479.546254 
L 190.839312 479.363694 
L 194.495332 479.196602 
L 195.714005 479.109038 
L 196.932678 479.060009 
L 197.542015 478.926967 
L 203.635381 478.837261 
L 206.072727 478.772577 
L 213.994103 478.662393 
L 228.008845 478.467197 
L 246.288943 478.339347 
L 252.38231 478.296681 
L 747.163636 477.621164 
L 747.163636 477.621164 
" style="fill:none;stroke:#d62728;stroke-linecap:square;stroke-width:2;"/>
   </g>
   <g id="line2d_19">
    <path clip-path="url(#pb774c96acf)" d="M 138.436364 492.48 
L 139.0457 492.192959 
L 139.655037 491.771797 
L 141.483047 490.864391 
L 145.139066 488.654273 
L 145.748403 488.1625 
L 147.576413 487.084805 
L 150.013759 485.53032 
L 151.232432 484.800696 
L 152.451106 483.931034 
L 154.279115 482.883201 
L 156.107125 481.707212 
L 157.325799 480.780201 
L 163.419165 477.045546 
L 164.637838 476.307354 
L 170.121867 472.899823 
L 173.777887 470.668557 
L 174.99656 469.959822 
L 192.667322 459.071537 
L 193.885995 458.192342 
L 194.495332 457.769701 
L 195.714005 457.252702 
L 196.323342 456.826912 
L 196.932678 456.552372 
L 198.151351 455.781042 
L 199.370025 455.175684 
L 202.416708 453.295564 
L 203.026044 452.843101 
L 203.635381 452.61771 
L 205.463391 451.505233 
L 206.682064 450.745758 
L 207.900737 449.928284 
L 210.94742 448.131282 
L 213.384767 446.593554 
L 223.134152 440.384049 
L 224.352826 439.682848 
L 226.180835 438.479155 
L 227.399509 437.798259 
L 228.618182 436.970482 
L 229.227518 436.69754 
L 231.055528 435.484684 
L 235.930221 432.482333 
L 237.148894 431.747499 
L 238.367568 431.095378 
L 238.976904 430.814158 
L 240.804914 429.572683 
L 244.460934 427.610769 
L 245.679607 426.69707 
L 247.507617 425.545195 
L 250.5543 423.382826 
L 252.991646 421.939215 
L 254.210319 421.294722 
L 255.428993 420.618313 
L 260.303686 417.476348 
L 260.913022 416.975533 
L 261.522359 416.680746 
L 263.350369 415.514922 
L 270.053071 411.796631 
L 270.662408 411.548885 
L 271.271744 411.109215 
L 272.490418 410.49885 
L 276.755774 407.947799 
L 278.583784 406.666435 
L 279.802457 405.985665 
L 281.02113 404.898695 
L 281.630467 404.565339 
L 282.84914 403.73676 
L 285.286486 402.176677 
L 286.50516 401.297287 
L 289.551843 399.601215 
L 290.770516 398.851238 
L 291.989189 398.317992 
L 293.207862 397.547599 
L 295.035872 396.358302 
L 295.645209 396.135758 
L 298.082555 394.393942 
L 299.910565 393.284853 
L 301.738575 392.246332 
L 305.394595 389.899597 
L 306.613268 389.175677 
L 311.487961 386.334641 
L 312.706634 385.735996 
L 316.97199 383.027754 
L 324.893366 378.624723 
L 327.330713 376.978018 
L 328.549386 376.534944 
L 330.377396 375.327546 
L 331.596069 374.756698 
L 335.252088 372.62587 
L 336.470762 371.838943 
L 337.080098 371.641241 
L 338.908108 370.505945 
L 340.126781 369.911959 
L 340.736118 369.597665 
L 341.345455 369.121534 
L 344.392138 367.564579 
L 350.485504 364.916661 
L 354.75086 363.084381 
L 355.969533 362.487214 
L 359.016216 361.306137 
L 362.672236 359.782067 
L 366.328256 358.545209 
L 366.937592 358.27585 
L 368.156265 357.933555 
L 369.984275 357.424882 
L 373.030958 356.97795 
L 374.249631 356.740228 
L 377.296314 356.316621 
L 379.733661 356.030924 
L 382.780344 355.47338 
L 387.0457 355.167655 
L 399.841769 354.671471 
L 466.868796 354.464204 
L 747.163636 354.133882 
L 747.163636 354.133882 
" style="fill:none;stroke:#9467bd;stroke-linecap:square;stroke-width:2;"/>
   </g>
   <g id="line2d_20">
    <path clip-path="url(#pb774c96acf)" d="M 138.436364 492.372015 
L 139.655037 491.803897 
L 142.092383 491.306419 
L 151.232432 490.337777 
L 159.763145 489.592985 
L 747.163636 441.201453 
L 747.163636 441.201453 
" style="fill:none;stroke:#8c564b;stroke-linecap:square;stroke-width:2;"/>
   </g>
   <g id="patch_3">
    <path d="M 108 512.64 
L 108 69.12 
" style="fill:none;stroke:#000000;stroke-linecap:square;stroke-linejoin:miter;stroke-width:0.8;"/>
   </g>
   <g id="patch_4">
    <path d="M 777.6 512.64 
L 777.6 69.12 
" style="fill:none;stroke:#000000;stroke-linecap:square;stroke-linejoin:miter;stroke-width:0.8;"/>
   </g>
   <g id="patch_5">
    <path d="M 108 512.64 
L 777.6 512.64 
" style="fill:none;stroke:#000000;stroke-linecap:square;stroke-linejoin:miter;stroke-width:0.8;"/>
   </g>
   <g id="patch_6">
    <path d="M 108 69.12 
L 777.6 69.12 
" style="fill:none;stroke:#000000;stroke-linecap:square;stroke-linejoin:miter;stroke-width:0.8;"/>
   </g>
   <g id="text_17">
    <!-- Average Regret for 50 Two Arm Bandit Environments -->
    <g transform="translate(221.503312 63.12)scale(0.168 -0.168)">
     <defs>
      <path d="M 2841 2188 
Q 3044 2119 3236 1894 
Q 3428 1669 3622 1275 
L 4263 0 
L 3584 0 
L 2988 1197 
Q 2756 1666 2539 1819 
Q 2322 1972 1947 1972 
L 1259 1972 
L 1259 0 
L 628 0 
L 628 4666 
L 2053 4666 
Q 2853 4666 3247 4331 
Q 3641 3997 3641 3322 
Q 3641 2881 3436 2590 
Q 3231 2300 2841 2188 
z
M 1259 4147 
L 1259 2491 
L 2053 2491 
Q 2509 2491 2742 2702 
Q 2975 2913 2975 3322 
Q 2975 3731 2742 3939 
Q 2509 4147 2053 4147 
L 1259 4147 
z
" id="DejaVuSans-52" transform="scale(0.015625)"/>
      <path d="M 2375 4863 
L 2375 4384 
L 1825 4384 
Q 1516 4384 1395 4259 
Q 1275 4134 1275 3809 
L 1275 3500 
L 2222 3500 
L 2222 3053 
L 1275 3053 
L 1275 0 
L 697 0 
L 697 3053 
L 147 3053 
L 147 3500 
L 697 3500 
L 697 3744 
Q 697 4328 969 4595 
Q 1241 4863 1831 4863 
L 2375 4863 
z
" id="DejaVuSans-66" transform="scale(0.015625)"/>
      <path d="M 1959 3097 
Q 1497 3097 1228 2736 
Q 959 2375 959 1747 
Q 959 1119 1226 758 
Q 1494 397 1959 397 
Q 2419 397 2687 759 
Q 2956 1122 2956 1747 
Q 2956 2369 2687 2733 
Q 2419 3097 1959 3097 
z
M 1959 3584 
Q 2709 3584 3137 3096 
Q 3566 2609 3566 1747 
Q 3566 888 3137 398 
Q 2709 -91 1959 -91 
Q 1206 -91 779 398 
Q 353 888 353 1747 
Q 353 2609 779 3096 
Q 1206 3584 1959 3584 
z
" id="DejaVuSans-6f" transform="scale(0.015625)"/>
      <path d="M 269 3500 
L 844 3500 
L 1563 769 
L 2278 3500 
L 2956 3500 
L 3675 769 
L 4391 3500 
L 4966 3500 
L 4050 0 
L 3372 0 
L 2619 2869 
L 1863 0 
L 1184 0 
L 269 3500 
z
" id="DejaVuSans-77" transform="scale(0.015625)"/>
      <path d="M 1259 2228 
L 1259 519 
L 2272 519 
Q 2781 519 3026 730 
Q 3272 941 3272 1375 
Q 3272 1813 3026 2020 
Q 2781 2228 2272 2228 
L 1259 2228 
z
M 1259 4147 
L 1259 2741 
L 2194 2741 
Q 2656 2741 2882 2914 
Q 3109 3088 3109 3444 
Q 3109 3797 2882 3972 
Q 2656 4147 2194 4147 
L 1259 4147 
z
M 628 4666 
L 2241 4666 
Q 2963 4666 3353 4366 
Q 3744 4066 3744 3513 
Q 3744 3084 3544 2831 
Q 3344 2578 2956 2516 
Q 3422 2416 3680 2098 
Q 3938 1781 3938 1306 
Q 3938 681 3513 340 
Q 3088 0 2303 0 
L 628 0 
L 628 4666 
z
" id="DejaVuSans-42" transform="scale(0.015625)"/>
      <path d="M 3513 2113 
L 3513 0 
L 2938 0 
L 2938 2094 
Q 2938 2591 2744 2837 
Q 2550 3084 2163 3084 
Q 1697 3084 1428 2787 
Q 1159 2491 1159 1978 
L 1159 0 
L 581 0 
L 581 3500 
L 1159 3500 
L 1159 2956 
Q 1366 3272 1645 3428 
Q 1925 3584 2291 3584 
Q 2894 3584 3203 3211 
Q 3513 2838 3513 2113 
z
" id="DejaVuSans-6e" transform="scale(0.015625)"/>
      <path d="M 2906 2969 
L 2906 4863 
L 3481 4863 
L 3481 0 
L 2906 0 
L 2906 525 
Q 2725 213 2448 61 
Q 2172 -91 1784 -91 
Q 1150 -91 751 415 
Q 353 922 353 1747 
Q 353 2572 751 3078 
Q 1150 3584 1784 3584 
Q 2172 3584 2448 3432 
Q 2725 3281 2906 2969 
z
M 947 1747 
Q 947 1113 1208 752 
Q 1469 391 1925 391 
Q 2381 391 2643 752 
Q 2906 1113 2906 1747 
Q 2906 2381 2643 2742 
Q 2381 3103 1925 3103 
Q 1469 3103 1208 2742 
Q 947 2381 947 1747 
z
" id="DejaVuSans-64" transform="scale(0.015625)"/>
      <path d="M 628 4666 
L 3578 4666 
L 3578 4134 
L 1259 4134 
L 1259 2753 
L 3481 2753 
L 3481 2222 
L 1259 2222 
L 1259 531 
L 3634 531 
L 3634 0 
L 628 0 
L 628 4666 
z
" id="DejaVuSans-45" transform="scale(0.015625)"/>
     </defs>
     <use xlink:href="#DejaVuSans-41"/>
     <use x="62.533203" xlink:href="#DejaVuSans-76"/>
     <use x="121.712891" xlink:href="#DejaVuSans-65"/>
     <use x="183.236328" xlink:href="#DejaVuSans-72"/>
     <use x="224.349609" xlink:href="#DejaVuSans-61"/>
     <use x="285.628906" xlink:href="#DejaVuSans-67"/>
     <use x="349.105469" xlink:href="#DejaVuSans-65"/>
     <use x="410.628906" xlink:href="#DejaVuSans-20"/>
     <use x="442.416016" xlink:href="#DejaVuSans-52"/>
     <use x="507.398438" xlink:href="#DejaVuSans-65"/>
     <use x="568.921875" xlink:href="#DejaVuSans-67"/>
     <use x="632.398438" xlink:href="#DejaVuSans-72"/>
     <use x="671.261719" xlink:href="#DejaVuSans-65"/>
     <use x="732.785156" xlink:href="#DejaVuSans-74"/>
     <use x="771.994141" xlink:href="#DejaVuSans-20"/>
     <use x="803.78125" xlink:href="#DejaVuSans-66"/>
     <use x="838.986328" xlink:href="#DejaVuSans-6f"/>
     <use x="900.167969" xlink:href="#DejaVuSans-72"/>
     <use x="941.28125" xlink:href="#DejaVuSans-20"/>
     <use x="973.068359" xlink:href="#DejaVuSans-35"/>
     <use x="1036.691406" xlink:href="#DejaVuSans-30"/>
     <use x="1100.314453" xlink:href="#DejaVuSans-20"/>
     <use x="1132.101562" xlink:href="#DejaVuSans-54"/>
     <use x="1176.685547" xlink:href="#DejaVuSans-77"/>
     <use x="1258.472656" xlink:href="#DejaVuSans-6f"/>
     <use x="1319.654297" xlink:href="#DejaVuSans-20"/>
     <use x="1351.441406" xlink:href="#DejaVuSans-41"/>
     <use x="1419.849609" xlink:href="#DejaVuSans-72"/>
     <use x="1459.212891" xlink:href="#DejaVuSans-6d"/>
     <use x="1556.625" xlink:href="#DejaVuSans-20"/>
     <use x="1588.412109" xlink:href="#DejaVuSans-42"/>
     <use x="1657.015625" xlink:href="#DejaVuSans-61"/>
     <use x="1718.294922" xlink:href="#DejaVuSans-6e"/>
     <use x="1781.673828" xlink:href="#DejaVuSans-64"/>
     <use x="1845.150391" xlink:href="#DejaVuSans-69"/>
     <use x="1872.933594" xlink:href="#DejaVuSans-74"/>
     <use x="1912.142578" xlink:href="#DejaVuSans-20"/>
     <use x="1943.929688" xlink:href="#DejaVuSans-45"/>
     <use x="2007.113281" xlink:href="#DejaVuSans-6e"/>
     <use x="2070.492188" xlink:href="#DejaVuSans-76"/>
     <use x="2129.671875" xlink:href="#DejaVuSans-69"/>
     <use x="2157.455078" xlink:href="#DejaVuSans-72"/>
     <use x="2196.318359" xlink:href="#DejaVuSans-6f"/>
     <use x="2257.5" xlink:href="#DejaVuSans-6e"/>
     <use x="2320.878906" xlink:href="#DejaVuSans-6d"/>
     <use x="2418.291016" xlink:href="#DejaVuSans-65"/>
     <use x="2479.814453" xlink:href="#DejaVuSans-6e"/>
     <use x="2543.193359" xlink:href="#DejaVuSans-74"/>
     <use x="2582.402344" xlink:href="#DejaVuSans-73"/>
    </g>
   </g>
   <g id="legend_1">
    <g id="patch_7">
     <path d="M 117.8 203.61625 
L 282.901563 203.61625 
Q 285.701563 203.61625 285.701563 200.81625 
L 285.701563 78.92 
Q 285.701563 76.12 282.901563 76.12 
L 117.8 76.12 
Q 115 76.12 115 78.92 
L 115 200.81625 
Q 115 203.61625 117.8 203.61625 
z
" style="fill:#ffffff;opacity:0.8;stroke:#cccccc;stroke-linejoin:miter;"/>
    </g>
    <g id="line2d_21">
     <path d="M 120.6 87.457813 
L 148.6 87.457813 
" style="fill:none;stroke:#1f77b4;stroke-linecap:square;stroke-width:2;"/>
    </g>
    <g id="line2d_22"/>
    <g id="text_18">
     <!-- Pure Exploitation -->
     <g transform="translate(159.8 92.357813)scale(0.14 -0.14)">
      <defs>
       <path d="M 1259 4147 
L 1259 2394 
L 2053 2394 
Q 2494 2394 2734 2622 
Q 2975 2850 2975 3272 
Q 2975 3691 2734 3919 
Q 2494 4147 2053 4147 
L 1259 4147 
z
M 628 4666 
L 2053 4666 
Q 2838 4666 3239 4311 
Q 3641 3956 3641 3272 
Q 3641 2581 3239 2228 
Q 2838 1875 2053 1875 
L 1259 1875 
L 1259 0 
L 628 0 
L 628 4666 
z
" id="DejaVuSans-50" transform="scale(0.015625)"/>
       <path d="M 544 1381 
L 544 3500 
L 1119 3500 
L 1119 1403 
Q 1119 906 1312 657 
Q 1506 409 1894 409 
Q 2359 409 2629 706 
Q 2900 1003 2900 1516 
L 2900 3500 
L 3475 3500 
L 3475 0 
L 2900 0 
L 2900 538 
Q 2691 219 2414 64 
Q 2138 -91 1772 -91 
Q 1169 -91 856 284 
Q 544 659 544 1381 
z
M 1991 3584 
L 1991 3584 
z
" id="DejaVuSans-75" transform="scale(0.015625)"/>
       <path d="M 3513 3500 
L 2247 1797 
L 3578 0 
L 2900 0 
L 1881 1375 
L 863 0 
L 184 0 
L 1544 1831 
L 300 3500 
L 978 3500 
L 1906 2253 
L 2834 3500 
L 3513 3500 
z
" id="DejaVuSans-78" transform="scale(0.015625)"/>
       <path d="M 603 4863 
L 1178 4863 
L 1178 0 
L 603 0 
L 603 4863 
z
" id="DejaVuSans-6c" transform="scale(0.015625)"/>
      </defs>
      <use xlink:href="#DejaVuSans-50"/>
      <use x="58.552734" xlink:href="#DejaVuSans-75"/>
      <use x="121.931641" xlink:href="#DejaVuSans-72"/>
      <use x="160.794922" xlink:href="#DejaVuSans-65"/>
      <use x="222.318359" xlink:href="#DejaVuSans-20"/>
      <use x="254.105469" xlink:href="#DejaVuSans-45"/>
      <use x="317.289062" xlink:href="#DejaVuSans-78"/>
      <use x="376.46875" xlink:href="#DejaVuSans-70"/>
      <use x="439.945312" xlink:href="#DejaVuSans-6c"/>
      <use x="467.728516" xlink:href="#DejaVuSans-6f"/>
      <use x="528.910156" xlink:href="#DejaVuSans-69"/>
      <use x="556.693359" xlink:href="#DejaVuSans-74"/>
      <use x="595.902344" xlink:href="#DejaVuSans-61"/>
      <use x="657.181641" xlink:href="#DejaVuSans-74"/>
      <use x="696.390625" xlink:href="#DejaVuSans-69"/>
      <use x="724.173828" xlink:href="#DejaVuSans-6f"/>
      <use x="785.355469" xlink:href="#DejaVuSans-6e"/>
     </g>
    </g>
    <g id="line2d_23">
     <path d="M 120.6 108.007188 
L 148.6 108.007188 
" style="fill:none;stroke:#ff7f0e;stroke-linecap:square;stroke-width:2;"/>
    </g>
    <g id="line2d_24"/>
    <g id="text_19">
     <!-- Pure Exploration -->
     <g transform="translate(159.8 112.907188)scale(0.14 -0.14)">
      <use xlink:href="#DejaVuSans-50"/>
      <use x="58.552734" xlink:href="#DejaVuSans-75"/>
      <use x="121.931641" xlink:href="#DejaVuSans-72"/>
      <use x="160.794922" xlink:href="#DejaVuSans-65"/>
      <use x="222.318359" xlink:href="#DejaVuSans-20"/>
      <use x="254.105469" xlink:href="#DejaVuSans-45"/>
      <use x="317.289062" xlink:href="#DejaVuSans-78"/>
      <use x="376.46875" xlink:href="#DejaVuSans-70"/>
      <use x="439.945312" xlink:href="#DejaVuSans-6c"/>
      <use x="467.728516" xlink:href="#DejaVuSans-6f"/>
      <use x="528.910156" xlink:href="#DejaVuSans-72"/>
      <use x="570.023438" xlink:href="#DejaVuSans-61"/>
      <use x="631.302734" xlink:href="#DejaVuSans-74"/>
      <use x="670.511719" xlink:href="#DejaVuSans-69"/>
      <use x="698.294922" xlink:href="#DejaVuSans-6f"/>
      <use x="759.476562" xlink:href="#DejaVuSans-6e"/>
     </g>
    </g>
    <g id="line2d_25">
     <path d="M 120.6 128.556563 
L 148.6 128.556563 
" style="fill:none;stroke:#2ca02c;stroke-linecap:square;stroke-width:2;"/>
    </g>
    <g id="line2d_26"/>
    <g id="text_20">
     <!-- Epsilon Greedy -->
     <g transform="translate(159.8 133.456563)scale(0.14 -0.14)">
      <defs>
       <path d="M 3809 666 
L 3809 1919 
L 2778 1919 
L 2778 2438 
L 4434 2438 
L 4434 434 
Q 4069 175 3628 42 
Q 3188 -91 2688 -91 
Q 1594 -91 976 548 
Q 359 1188 359 2328 
Q 359 3472 976 4111 
Q 1594 4750 2688 4750 
Q 3144 4750 3555 4637 
Q 3966 4525 4313 4306 
L 4313 3634 
Q 3963 3931 3569 4081 
Q 3175 4231 2741 4231 
Q 1884 4231 1454 3753 
Q 1025 3275 1025 2328 
Q 1025 1384 1454 906 
Q 1884 428 2741 428 
Q 3075 428 3337 486 
Q 3600 544 3809 666 
z
" id="DejaVuSans-47" transform="scale(0.015625)"/>
       <path d="M 2059 -325 
Q 1816 -950 1584 -1140 
Q 1353 -1331 966 -1331 
L 506 -1331 
L 506 -850 
L 844 -850 
Q 1081 -850 1212 -737 
Q 1344 -625 1503 -206 
L 1606 56 
L 191 3500 
L 800 3500 
L 1894 763 
L 2988 3500 
L 3597 3500 
L 2059 -325 
z
" id="DejaVuSans-79" transform="scale(0.015625)"/>
      </defs>
      <use xlink:href="#DejaVuSans-45"/>
      <use x="63.183594" xlink:href="#DejaVuSans-70"/>
      <use x="126.660156" xlink:href="#DejaVuSans-73"/>
      <use x="178.759766" xlink:href="#DejaVuSans-69"/>
      <use x="206.542969" xlink:href="#DejaVuSans-6c"/>
      <use x="234.326172" xlink:href="#DejaVuSans-6f"/>
      <use x="295.507812" xlink:href="#DejaVuSans-6e"/>
      <use x="358.886719" xlink:href="#DejaVuSans-20"/>
      <use x="390.673828" xlink:href="#DejaVuSans-47"/>
      <use x="468.164062" xlink:href="#DejaVuSans-72"/>
      <use x="507.027344" xlink:href="#DejaVuSans-65"/>
      <use x="568.550781" xlink:href="#DejaVuSans-65"/>
      <use x="630.074219" xlink:href="#DejaVuSans-64"/>
      <use x="693.550781" xlink:href="#DejaVuSans-79"/>
     </g>
    </g>
    <g id="line2d_27">
     <path d="M 120.6 149.105938 
L 148.6 149.105938 
" style="fill:none;stroke:#d62728;stroke-linecap:square;stroke-width:2;"/>
    </g>
    <g id="line2d_28"/>
    <g id="text_21">
     <!-- Deacying Epsilon -->
     <g transform="translate(159.8 154.005938)scale(0.14 -0.14)">
      <defs>
       <path d="M 1259 4147 
L 1259 519 
L 2022 519 
Q 2988 519 3436 956 
Q 3884 1394 3884 2338 
Q 3884 3275 3436 3711 
Q 2988 4147 2022 4147 
L 1259 4147 
z
M 628 4666 
L 1925 4666 
Q 3281 4666 3915 4102 
Q 4550 3538 4550 2338 
Q 4550 1131 3912 565 
Q 3275 0 1925 0 
L 628 0 
L 628 4666 
z
" id="DejaVuSans-44" transform="scale(0.015625)"/>
       <path d="M 3122 3366 
L 3122 2828 
Q 2878 2963 2633 3030 
Q 2388 3097 2138 3097 
Q 1578 3097 1268 2742 
Q 959 2388 959 1747 
Q 959 1106 1268 751 
Q 1578 397 2138 397 
Q 2388 397 2633 464 
Q 2878 531 3122 666 
L 3122 134 
Q 2881 22 2623 -34 
Q 2366 -91 2075 -91 
Q 1284 -91 818 406 
Q 353 903 353 1747 
Q 353 2603 823 3093 
Q 1294 3584 2113 3584 
Q 2378 3584 2631 3529 
Q 2884 3475 3122 3366 
z
" id="DejaVuSans-63" transform="scale(0.015625)"/>
      </defs>
      <use xlink:href="#DejaVuSans-44"/>
      <use x="77.001953" xlink:href="#DejaVuSans-65"/>
      <use x="138.525391" xlink:href="#DejaVuSans-61"/>
      <use x="199.804688" xlink:href="#DejaVuSans-63"/>
      <use x="254.785156" xlink:href="#DejaVuSans-79"/>
      <use x="313.964844" xlink:href="#DejaVuSans-69"/>
      <use x="341.748047" xlink:href="#DejaVuSans-6e"/>
      <use x="405.126953" xlink:href="#DejaVuSans-67"/>
      <use x="468.603516" xlink:href="#DejaVuSans-20"/>
      <use x="500.390625" xlink:href="#DejaVuSans-45"/>
      <use x="563.574219" xlink:href="#DejaVuSans-70"/>
      <use x="627.050781" xlink:href="#DejaVuSans-73"/>
      <use x="679.150391" xlink:href="#DejaVuSans-69"/>
      <use x="706.933594" xlink:href="#DejaVuSans-6c"/>
      <use x="734.716797" xlink:href="#DejaVuSans-6f"/>
      <use x="795.898438" xlink:href="#DejaVuSans-6e"/>
     </g>
    </g>
    <g id="line2d_29">
     <path d="M 120.6 169.655313 
L 148.6 169.655313 
" style="fill:none;stroke:#9467bd;stroke-linecap:square;stroke-width:2;"/>
    </g>
    <g id="line2d_30"/>
    <g id="text_22">
     <!-- Softmax -->
     <g transform="translate(159.8 174.555313)scale(0.14 -0.14)">
      <use xlink:href="#DejaVuSans-53"/>
      <use x="63.476562" xlink:href="#DejaVuSans-6f"/>
      <use x="124.658203" xlink:href="#DejaVuSans-66"/>
      <use x="158.113281" xlink:href="#DejaVuSans-74"/>
      <use x="197.322266" xlink:href="#DejaVuSans-6d"/>
      <use x="294.734375" xlink:href="#DejaVuSans-61"/>
      <use x="356.013672" xlink:href="#DejaVuSans-78"/>
     </g>
    </g>
    <g id="line2d_31">
     <path d="M 120.6 190.204688 
L 148.6 190.204688 
" style="fill:none;stroke:#8c564b;stroke-linecap:square;stroke-width:2;"/>
    </g>
    <g id="line2d_32"/>
    <g id="text_23">
     <!-- UCB -->
     <g transform="translate(159.8 195.104688)scale(0.14 -0.14)">
      <defs>
       <path d="M 556 4666 
L 1191 4666 
L 1191 1831 
Q 1191 1081 1462 751 
Q 1734 422 2344 422 
Q 2950 422 3222 751 
Q 3494 1081 3494 1831 
L 3494 4666 
L 4128 4666 
L 4128 1753 
Q 4128 841 3676 375 
Q 3225 -91 2344 -91 
Q 1459 -91 1007 375 
Q 556 841 556 1753 
L 556 4666 
z
" id="DejaVuSans-55" transform="scale(0.015625)"/>
       <path d="M 4122 4306 
L 4122 3641 
Q 3803 3938 3442 4084 
Q 3081 4231 2675 4231 
Q 1875 4231 1450 3742 
Q 1025 3253 1025 2328 
Q 1025 1406 1450 917 
Q 1875 428 2675 428 
Q 3081 428 3442 575 
Q 3803 722 4122 1019 
L 4122 359 
Q 3791 134 3420 21 
Q 3050 -91 2638 -91 
Q 1578 -91 968 557 
Q 359 1206 359 2328 
Q 359 3453 968 4101 
Q 1578 4750 2638 4750 
Q 3056 4750 3426 4639 
Q 3797 4528 4122 4306 
z
" id="DejaVuSans-43" transform="scale(0.015625)"/>
      </defs>
      <use xlink:href="#DejaVuSans-55"/>
      <use x="73.193359" xlink:href="#DejaVuSans-43"/>
      <use x="143.017578" xlink:href="#DejaVuSans-42"/>
     </g>
    </g>
   </g>
  </g>
 </g>
 <defs>
  <clipPath id="pb774c96acf">
   <rect height="443.52" width="669.6" x="108" y="69.12"/>
  </clipPath>
 </defs>
</svg>
