<?xml version="1.0" encoding="utf-8" standalone="no"?>
<!DOCTYPE svg PUBLIC "-//W3C//DTD SVG 1.1//EN"
  "http://www.w3.org/Graphics/SVG/1.1/DTD/svg11.dtd">
<!-- Created with matplotlib (https://matplotlib.org/) -->
<svg height="576pt" version="1.1" viewBox="0 0 864 576" width="864pt" xmlns="http://www.w3.org/2000/svg" xmlns:xlink="http://www.w3.org/1999/xlink">
 <metadata>
  <rdf:RDF xmlns:cc="http://creativecommons.org/ns#" xmlns:dc="http://purl.org/dc/elements/1.1/" xmlns:rdf="http://www.w3.org/1999/02/22-rdf-syntax-ns#">
   <cc:Work>
    <dc:type rdf:resource="http://purl.org/dc/dcmitype/StillImage"/>
    <dc:date>2021-09-09T07:01:55.814941</dc:date>
    <dc:format>image/svg+xml</dc:format>
    <dc:creator>
     <cc:Agent>
      <dc:title>Matplotlib v3.3.4, https://matplotlib.org/</dc:title>
     </cc:Agent>
    </dc:creator>
   </cc:Work>
  </rdf:RDF>
 </metadata>
 <defs>
  <style type="text/css">*{stroke-linecap:butt;stroke-linejoin:round;}</style>
 </defs>
 <g id="figure_1">
  <g id="patch_1">
   <path d="M 0 576 
L 864 576 
L 864 0 
L 0 0 
z
" style="fill:#ffffff;"/>
  </g>
  <g id="axes_1">
   <g id="patch_2">
    <path d="M 108 512.64 
L 777.6 512.64 
L 777.6 69.12 
L 108 69.12 
z
" style="fill:#ffffff;"/>
   </g>
   <g id="matplotlib.axis_1">
    <g id="xtick_1">
     <g id="line2d_1">
      <defs>
       <path d="M 0 0 
L 0 3.5 
" id="m6a538421a2" style="stroke:#000000;stroke-width:0.8;"/>
      </defs>
      <g>
       <use style="stroke:#000000;stroke-width:0.8;" x="138.436364" xlink:href="#m6a538421a2" y="512.64"/>
      </g>
     </g>
     <g id="text_1">
      <!-- 0 -->
      <g transform="translate(135.255114 527.238438)scale(0.1 -0.1)">
       <defs>
        <path d="M 31.78125 66.40625 
Q 24.171875 66.40625 20.328125 58.90625 
Q 16.5 51.421875 16.5 36.375 
Q 16.5 21.390625 20.328125 13.890625 
Q 24.171875 6.390625 31.78125 6.390625 
Q 39.453125 6.390625 43.28125 13.890625 
Q 47.125 21.390625 47.125 36.375 
Q 47.125 51.421875 43.28125 58.90625 
Q 39.453125 66.40625 31.78125 66.40625 
z
M 31.78125 74.21875 
Q 44.046875 74.21875 50.515625 64.515625 
Q 56.984375 54.828125 56.984375 36.375 
Q 56.984375 17.96875 50.515625 8.265625 
Q 44.046875 -1.421875 31.78125 -1.421875 
Q 19.53125 -1.421875 13.0625 8.265625 
Q 6.59375 17.96875 6.59375 36.375 
Q 6.59375 54.828125 13.0625 64.515625 
Q 19.53125 74.21875 31.78125 74.21875 
z
" id="DejaVuSans-48"/>
       </defs>
       <use xlink:href="#DejaVuSans-48"/>
      </g>
     </g>
    </g>
    <g id="xtick_2">
     <g id="line2d_2">
      <g>
       <use style="stroke:#000000;stroke-width:0.8;" x="260.303686" xlink:href="#m6a538421a2" y="512.64"/>
      </g>
     </g>
     <g id="text_2">
      <!-- 200 -->
      <g transform="translate(250.759936 527.238438)scale(0.1 -0.1)">
       <defs>
        <path d="M 19.1875 8.296875 
L 53.609375 8.296875 
L 53.609375 0 
L 7.328125 0 
L 7.328125 8.296875 
Q 12.9375 14.109375 22.625 23.890625 
Q 32.328125 33.6875 34.8125 36.53125 
Q 39.546875 41.84375 41.421875 45.53125 
Q 43.3125 49.21875 43.3125 52.78125 
Q 43.3125 58.59375 39.234375 62.25 
Q 35.15625 65.921875 28.609375 65.921875 
Q 23.96875 65.921875 18.8125 64.3125 
Q 13.671875 62.703125 7.8125 59.421875 
L 7.8125 69.390625 
Q 13.765625 71.78125 18.9375 73 
Q 24.125 74.21875 28.421875 74.21875 
Q 39.75 74.21875 46.484375 68.546875 
Q 53.21875 62.890625 53.21875 53.421875 
Q 53.21875 48.921875 51.53125 44.890625 
Q 49.859375 40.875 45.40625 35.40625 
Q 44.1875 33.984375 37.640625 27.21875 
Q 31.109375 20.453125 19.1875 8.296875 
z
" id="DejaVuSans-50"/>
       </defs>
       <use xlink:href="#DejaVuSans-50"/>
       <use x="63.623047" xlink:href="#DejaVuSans-48"/>
       <use x="127.246094" xlink:href="#DejaVuSans-48"/>
      </g>
     </g>
    </g>
    <g id="xtick_3">
     <g id="line2d_3">
      <g>
       <use style="stroke:#000000;stroke-width:0.8;" x="382.171007" xlink:href="#m6a538421a2" y="512.64"/>
      </g>
     </g>
     <g id="text_3">
      <!-- 400 -->
      <g transform="translate(372.627257 527.238438)scale(0.1 -0.1)">
       <defs>
        <path d="M 37.796875 64.3125 
L 12.890625 25.390625 
L 37.796875 25.390625 
z
M 35.203125 72.90625 
L 47.609375 72.90625 
L 47.609375 25.390625 
L 58.015625 25.390625 
L 58.015625 17.1875 
L 47.609375 17.1875 
L 47.609375 0 
L 37.796875 0 
L 37.796875 17.1875 
L 4.890625 17.1875 
L 4.890625 26.703125 
z
" id="DejaVuSans-52"/>
       </defs>
       <use xlink:href="#DejaVuSans-52"/>
       <use x="63.623047" xlink:href="#DejaVuSans-48"/>
       <use x="127.246094" xlink:href="#DejaVuSans-48"/>
      </g>
     </g>
    </g>
    <g id="xtick_4">
     <g id="line2d_4">
      <g>
       <use style="stroke:#000000;stroke-width:0.8;" x="504.038329" xlink:href="#m6a538421a2" y="512.64"/>
      </g>
     </g>
     <g id="text_4">
      <!-- 600 -->
      <g transform="translate(494.494579 527.238438)scale(0.1 -0.1)">
       <defs>
        <path d="M 33.015625 40.375 
Q 26.375 40.375 22.484375 35.828125 
Q 18.609375 31.296875 18.609375 23.390625 
Q 18.609375 15.53125 22.484375 10.953125 
Q 26.375 6.390625 33.015625 6.390625 
Q 39.65625 6.390625 43.53125 10.953125 
Q 47.40625 15.53125 47.40625 23.390625 
Q 47.40625 31.296875 43.53125 35.828125 
Q 39.65625 40.375 33.015625 40.375 
z
M 52.59375 71.296875 
L 52.59375 62.3125 
Q 48.875 64.0625 45.09375 64.984375 
Q 41.3125 65.921875 37.59375 65.921875 
Q 27.828125 65.921875 22.671875 59.328125 
Q 17.53125 52.734375 16.796875 39.40625 
Q 19.671875 43.65625 24.015625 45.921875 
Q 28.375 48.1875 33.59375 48.1875 
Q 44.578125 48.1875 50.953125 41.515625 
Q 57.328125 34.859375 57.328125 23.390625 
Q 57.328125 12.15625 50.6875 5.359375 
Q 44.046875 -1.421875 33.015625 -1.421875 
Q 20.359375 -1.421875 13.671875 8.265625 
Q 6.984375 17.96875 6.984375 36.375 
Q 6.984375 53.65625 15.1875 63.9375 
Q 23.390625 74.21875 37.203125 74.21875 
Q 40.921875 74.21875 44.703125 73.484375 
Q 48.484375 72.75 52.59375 71.296875 
z
" id="DejaVuSans-54"/>
       </defs>
       <use xlink:href="#DejaVuSans-54"/>
       <use x="63.623047" xlink:href="#DejaVuSans-48"/>
       <use x="127.246094" xlink:href="#DejaVuSans-48"/>
      </g>
     </g>
    </g>
    <g id="xtick_5">
     <g id="line2d_5">
      <g>
       <use style="stroke:#000000;stroke-width:0.8;" x="625.905651" xlink:href="#m6a538421a2" y="512.64"/>
      </g>
     </g>
     <g id="text_5">
      <!-- 800 -->
      <g transform="translate(616.361901 527.238438)scale(0.1 -0.1)">
       <defs>
        <path d="M 31.78125 34.625 
Q 24.75 34.625 20.71875 30.859375 
Q 16.703125 27.09375 16.703125 20.515625 
Q 16.703125 13.921875 20.71875 10.15625 
Q 24.75 6.390625 31.78125 6.390625 
Q 38.8125 6.390625 42.859375 10.171875 
Q 46.921875 13.96875 46.921875 20.515625 
Q 46.921875 27.09375 42.890625 30.859375 
Q 38.875 34.625 31.78125 34.625 
z
M 21.921875 38.8125 
Q 15.578125 40.375 12.03125 44.71875 
Q 8.5 49.078125 8.5 55.328125 
Q 8.5 64.0625 14.71875 69.140625 
Q 20.953125 74.21875 31.78125 74.21875 
Q 42.671875 74.21875 48.875 69.140625 
Q 55.078125 64.0625 55.078125 55.328125 
Q 55.078125 49.078125 51.53125 44.71875 
Q 48 40.375 41.703125 38.8125 
Q 48.828125 37.15625 52.796875 32.3125 
Q 56.78125 27.484375 56.78125 20.515625 
Q 56.78125 9.90625 50.3125 4.234375 
Q 43.84375 -1.421875 31.78125 -1.421875 
Q 19.734375 -1.421875 13.25 4.234375 
Q 6.78125 9.90625 6.78125 20.515625 
Q 6.78125 27.484375 10.78125 32.3125 
Q 14.796875 37.15625 21.921875 38.8125 
z
M 18.3125 54.390625 
Q 18.3125 48.734375 21.84375 45.5625 
Q 25.390625 42.390625 31.78125 42.390625 
Q 38.140625 42.390625 41.71875 45.5625 
Q 45.3125 48.734375 45.3125 54.390625 
Q 45.3125 60.0625 41.71875 63.234375 
Q 38.140625 66.40625 31.78125 66.40625 
Q 25.390625 66.40625 21.84375 63.234375 
Q 18.3125 60.0625 18.3125 54.390625 
z
" id="DejaVuSans-56"/>
       </defs>
       <use xlink:href="#DejaVuSans-56"/>
       <use x="63.623047" xlink:href="#DejaVuSans-48"/>
       <use x="127.246094" xlink:href="#DejaVuSans-48"/>
      </g>
     </g>
    </g>
    <g id="xtick_6">
     <g id="line2d_6">
      <g>
       <use style="stroke:#000000;stroke-width:0.8;" x="747.772973" xlink:href="#m6a538421a2" y="512.64"/>
      </g>
     </g>
     <g id="text_6">
      <!-- 1000 -->
      <g transform="translate(735.047973 527.238438)scale(0.1 -0.1)">
       <defs>
        <path d="M 12.40625 8.296875 
L 28.515625 8.296875 
L 28.515625 63.921875 
L 10.984375 60.40625 
L 10.984375 69.390625 
L 28.421875 72.90625 
L 38.28125 72.90625 
L 38.28125 8.296875 
L 54.390625 8.296875 
L 54.390625 0 
L 12.40625 0 
z
" id="DejaVuSans-49"/>
       </defs>
       <use xlink:href="#DejaVuSans-49"/>
       <use x="63.623047" xlink:href="#DejaVuSans-48"/>
       <use x="127.246094" xlink:href="#DejaVuSans-48"/>
       <use x="190.869141" xlink:href="#DejaVuSans-48"/>
      </g>
     </g>
    </g>
    <g id="text_7">
     <!-- Time Steps -->
     <g transform="translate(414.9875 540.916563)scale(0.1 -0.1)">
      <defs>
       <path d="M -0.296875 72.90625 
L 61.375 72.90625 
L 61.375 64.59375 
L 35.5 64.59375 
L 35.5 0 
L 25.59375 0 
L 25.59375 64.59375 
L -0.296875 64.59375 
z
" id="DejaVuSans-84"/>
       <path d="M 9.421875 54.6875 
L 18.40625 54.6875 
L 18.40625 0 
L 9.421875 0 
z
M 9.421875 75.984375 
L 18.40625 75.984375 
L 18.40625 64.59375 
L 9.421875 64.59375 
z
" id="DejaVuSans-105"/>
       <path d="M 52 44.1875 
Q 55.375 50.25 60.0625 53.125 
Q 64.75 56 71.09375 56 
Q 79.640625 56 84.28125 50.015625 
Q 88.921875 44.046875 88.921875 33.015625 
L 88.921875 0 
L 79.890625 0 
L 79.890625 32.71875 
Q 79.890625 40.578125 77.09375 44.375 
Q 74.3125 48.1875 68.609375 48.1875 
Q 61.625 48.1875 57.5625 43.546875 
Q 53.515625 38.921875 53.515625 30.90625 
L 53.515625 0 
L 44.484375 0 
L 44.484375 32.71875 
Q 44.484375 40.625 41.703125 44.40625 
Q 38.921875 48.1875 33.109375 48.1875 
Q 26.21875 48.1875 22.15625 43.53125 
Q 18.109375 38.875 18.109375 30.90625 
L 18.109375 0 
L 9.078125 0 
L 9.078125 54.6875 
L 18.109375 54.6875 
L 18.109375 46.1875 
Q 21.1875 51.21875 25.484375 53.609375 
Q 29.78125 56 35.6875 56 
Q 41.65625 56 45.828125 52.96875 
Q 50 49.953125 52 44.1875 
z
" id="DejaVuSans-109"/>
       <path d="M 56.203125 29.59375 
L 56.203125 25.203125 
L 14.890625 25.203125 
Q 15.484375 15.921875 20.484375 11.0625 
Q 25.484375 6.203125 34.421875 6.203125 
Q 39.59375 6.203125 44.453125 7.46875 
Q 49.3125 8.734375 54.109375 11.28125 
L 54.109375 2.78125 
Q 49.265625 0.734375 44.1875 -0.34375 
Q 39.109375 -1.421875 33.890625 -1.421875 
Q 20.796875 -1.421875 13.15625 6.1875 
Q 5.515625 13.8125 5.515625 26.8125 
Q 5.515625 40.234375 12.765625 48.109375 
Q 20.015625 56 32.328125 56 
Q 43.359375 56 49.78125 48.890625 
Q 56.203125 41.796875 56.203125 29.59375 
z
M 47.21875 32.234375 
Q 47.125 39.59375 43.09375 43.984375 
Q 39.0625 48.390625 32.421875 48.390625 
Q 24.90625 48.390625 20.390625 44.140625 
Q 15.875 39.890625 15.1875 32.171875 
z
" id="DejaVuSans-101"/>
       <path id="DejaVuSans-32"/>
       <path d="M 53.515625 70.515625 
L 53.515625 60.890625 
Q 47.90625 63.578125 42.921875 64.890625 
Q 37.9375 66.21875 33.296875 66.21875 
Q 25.25 66.21875 20.875 63.09375 
Q 16.5 59.96875 16.5 54.203125 
Q 16.5 49.359375 19.40625 46.890625 
Q 22.3125 44.4375 30.421875 42.921875 
L 36.375 41.703125 
Q 47.40625 39.59375 52.65625 34.296875 
Q 57.90625 29 57.90625 20.125 
Q 57.90625 9.515625 50.796875 4.046875 
Q 43.703125 -1.421875 29.984375 -1.421875 
Q 24.8125 -1.421875 18.96875 -0.25 
Q 13.140625 0.921875 6.890625 3.21875 
L 6.890625 13.375 
Q 12.890625 10.015625 18.65625 8.296875 
Q 24.421875 6.59375 29.984375 6.59375 
Q 38.421875 6.59375 43.015625 9.90625 
Q 47.609375 13.234375 47.609375 19.390625 
Q 47.609375 24.75 44.3125 27.78125 
Q 41.015625 30.8125 33.5 32.328125 
L 27.484375 33.5 
Q 16.453125 35.6875 11.515625 40.375 
Q 6.59375 45.0625 6.59375 53.421875 
Q 6.59375 63.09375 13.40625 68.65625 
Q 20.21875 74.21875 32.171875 74.21875 
Q 37.3125 74.21875 42.625 73.28125 
Q 47.953125 72.359375 53.515625 70.515625 
z
" id="DejaVuSans-83"/>
       <path d="M 18.3125 70.21875 
L 18.3125 54.6875 
L 36.8125 54.6875 
L 36.8125 47.703125 
L 18.3125 47.703125 
L 18.3125 18.015625 
Q 18.3125 11.328125 20.140625 9.421875 
Q 21.96875 7.515625 27.59375 7.515625 
L 36.8125 7.515625 
L 36.8125 0 
L 27.59375 0 
Q 17.1875 0 13.234375 3.875 
Q 9.28125 7.765625 9.28125 18.015625 
L 9.28125 47.703125 
L 2.6875 47.703125 
L 2.6875 54.6875 
L 9.28125 54.6875 
L 9.28125 70.21875 
z
" id="DejaVuSans-116"/>
       <path d="M 18.109375 8.203125 
L 18.109375 -20.796875 
L 9.078125 -20.796875 
L 9.078125 54.6875 
L 18.109375 54.6875 
L 18.109375 46.390625 
Q 20.953125 51.265625 25.265625 53.625 
Q 29.59375 56 35.59375 56 
Q 45.5625 56 51.78125 48.09375 
Q 58.015625 40.1875 58.015625 27.296875 
Q 58.015625 14.40625 51.78125 6.484375 
Q 45.5625 -1.421875 35.59375 -1.421875 
Q 29.59375 -1.421875 25.265625 0.953125 
Q 20.953125 3.328125 18.109375 8.203125 
z
M 48.6875 27.296875 
Q 48.6875 37.203125 44.609375 42.84375 
Q 40.53125 48.484375 33.40625 48.484375 
Q 26.265625 48.484375 22.1875 42.84375 
Q 18.109375 37.203125 18.109375 27.296875 
Q 18.109375 17.390625 22.1875 11.75 
Q 26.265625 6.109375 33.40625 6.109375 
Q 40.53125 6.109375 44.609375 11.75 
Q 48.6875 17.390625 48.6875 27.296875 
z
" id="DejaVuSans-112"/>
       <path d="M 44.28125 53.078125 
L 44.28125 44.578125 
Q 40.484375 46.53125 36.375 47.5 
Q 32.28125 48.484375 27.875 48.484375 
Q 21.1875 48.484375 17.84375 46.4375 
Q 14.5 44.390625 14.5 40.28125 
Q 14.5 37.15625 16.890625 35.375 
Q 19.28125 33.59375 26.515625 31.984375 
L 29.59375 31.296875 
Q 39.15625 29.25 43.1875 25.515625 
Q 47.21875 21.78125 47.21875 15.09375 
Q 47.21875 7.46875 41.1875 3.015625 
Q 35.15625 -1.421875 24.609375 -1.421875 
Q 20.21875 -1.421875 15.453125 -0.5625 
Q 10.6875 0.296875 5.421875 2 
L 5.421875 11.28125 
Q 10.40625 8.6875 15.234375 7.390625 
Q 20.0625 6.109375 24.8125 6.109375 
Q 31.15625 6.109375 34.5625 8.28125 
Q 37.984375 10.453125 37.984375 14.40625 
Q 37.984375 18.0625 35.515625 20.015625 
Q 33.0625 21.96875 24.703125 23.78125 
L 21.578125 24.515625 
Q 13.234375 26.265625 9.515625 29.90625 
Q 5.8125 33.546875 5.8125 39.890625 
Q 5.8125 47.609375 11.28125 51.796875 
Q 16.75 56 26.8125 56 
Q 31.78125 56 36.171875 55.265625 
Q 40.578125 54.546875 44.28125 53.078125 
z
" id="DejaVuSans-115"/>
      </defs>
      <use xlink:href="#DejaVuSans-84"/>
      <use x="57.958984" xlink:href="#DejaVuSans-105"/>
      <use x="85.742188" xlink:href="#DejaVuSans-109"/>
      <use x="183.154297" xlink:href="#DejaVuSans-101"/>
      <use x="244.677734" xlink:href="#DejaVuSans-32"/>
      <use x="276.464844" xlink:href="#DejaVuSans-83"/>
      <use x="339.941406" xlink:href="#DejaVuSans-116"/>
      <use x="379.150391" xlink:href="#DejaVuSans-101"/>
      <use x="440.673828" xlink:href="#DejaVuSans-112"/>
      <use x="504.150391" xlink:href="#DejaVuSans-115"/>
     </g>
    </g>
   </g>
   <g id="matplotlib.axis_2">
    <g id="ytick_1">
     <g id="line2d_7">
      <defs>
       <path d="M 0 0 
L -3.5 0 
" id="m13473298f0" style="stroke:#000000;stroke-width:0.8;"/>
      </defs>
      <g>
       <use style="stroke:#000000;stroke-width:0.8;" x="108" xlink:href="#m13473298f0" y="492.77432"/>
      </g>
     </g>
     <g id="text_8">
      <!-- 0 -->
      <g transform="translate(94.6375 496.573539)scale(0.1 -0.1)">
       <use xlink:href="#DejaVuSans-48"/>
      </g>
     </g>
    </g>
    <g id="ytick_2">
     <g id="line2d_8">
      <g>
       <use style="stroke:#000000;stroke-width:0.8;" x="108" xlink:href="#m13473298f0" y="432.980212"/>
      </g>
     </g>
     <g id="text_9">
      <!-- 25 -->
      <g transform="translate(88.275 436.779431)scale(0.1 -0.1)">
       <defs>
        <path d="M 10.796875 72.90625 
L 49.515625 72.90625 
L 49.515625 64.59375 
L 19.828125 64.59375 
L 19.828125 46.734375 
Q 21.96875 47.46875 24.109375 47.828125 
Q 26.265625 48.1875 28.421875 48.1875 
Q 40.625 48.1875 47.75 41.5 
Q 54.890625 34.8125 54.890625 23.390625 
Q 54.890625 11.625 47.5625 5.09375 
Q 40.234375 -1.421875 26.90625 -1.421875 
Q 22.3125 -1.421875 17.546875 -0.640625 
Q 12.796875 0.140625 7.71875 1.703125 
L 7.71875 11.625 
Q 12.109375 9.234375 16.796875 8.0625 
Q 21.484375 6.890625 26.703125 6.890625 
Q 35.15625 6.890625 40.078125 11.328125 
Q 45.015625 15.765625 45.015625 23.390625 
Q 45.015625 31 40.078125 35.4375 
Q 35.15625 39.890625 26.703125 39.890625 
Q 22.75 39.890625 18.8125 39.015625 
Q 14.890625 38.140625 10.796875 36.28125 
z
" id="DejaVuSans-53"/>
       </defs>
       <use xlink:href="#DejaVuSans-50"/>
       <use x="63.623047" xlink:href="#DejaVuSans-53"/>
      </g>
     </g>
    </g>
    <g id="ytick_3">
     <g id="line2d_9">
      <g>
       <use style="stroke:#000000;stroke-width:0.8;" x="108" xlink:href="#m13473298f0" y="373.186103"/>
      </g>
     </g>
     <g id="text_10">
      <!-- 50 -->
      <g transform="translate(88.275 376.985322)scale(0.1 -0.1)">
       <use xlink:href="#DejaVuSans-53"/>
       <use x="63.623047" xlink:href="#DejaVuSans-48"/>
      </g>
     </g>
    </g>
    <g id="ytick_4">
     <g id="line2d_10">
      <g>
       <use style="stroke:#000000;stroke-width:0.8;" x="108" xlink:href="#m13473298f0" y="313.391995"/>
      </g>
     </g>
     <g id="text_11">
      <!-- 75 -->
      <g transform="translate(88.275 317.191214)scale(0.1 -0.1)">
       <defs>
        <path d="M 8.203125 72.90625 
L 55.078125 72.90625 
L 55.078125 68.703125 
L 28.609375 0 
L 18.3125 0 
L 43.21875 64.59375 
L 8.203125 64.59375 
z
" id="DejaVuSans-55"/>
       </defs>
       <use xlink:href="#DejaVuSans-55"/>
       <use x="63.623047" xlink:href="#DejaVuSans-53"/>
      </g>
     </g>
    </g>
    <g id="ytick_5">
     <g id="line2d_11">
      <g>
       <use style="stroke:#000000;stroke-width:0.8;" x="108" xlink:href="#m13473298f0" y="253.597886"/>
      </g>
     </g>
     <g id="text_12">
      <!-- 100 -->
      <g transform="translate(81.9125 257.397105)scale(0.1 -0.1)">
       <use xlink:href="#DejaVuSans-49"/>
       <use x="63.623047" xlink:href="#DejaVuSans-48"/>
       <use x="127.246094" xlink:href="#DejaVuSans-48"/>
      </g>
     </g>
    </g>
    <g id="ytick_6">
     <g id="line2d_12">
      <g>
       <use style="stroke:#000000;stroke-width:0.8;" x="108" xlink:href="#m13473298f0" y="193.803778"/>
      </g>
     </g>
     <g id="text_13">
      <!-- 125 -->
      <g transform="translate(81.9125 197.602997)scale(0.1 -0.1)">
       <use xlink:href="#DejaVuSans-49"/>
       <use x="63.623047" xlink:href="#DejaVuSans-50"/>
       <use x="127.246094" xlink:href="#DejaVuSans-53"/>
      </g>
     </g>
    </g>
    <g id="ytick_7">
     <g id="line2d_13">
      <g>
       <use style="stroke:#000000;stroke-width:0.8;" x="108" xlink:href="#m13473298f0" y="134.009669"/>
      </g>
     </g>
     <g id="text_14">
      <!-- 150 -->
      <g transform="translate(81.9125 137.808888)scale(0.1 -0.1)">
       <use xlink:href="#DejaVuSans-49"/>
       <use x="63.623047" xlink:href="#DejaVuSans-53"/>
       <use x="127.246094" xlink:href="#DejaVuSans-48"/>
      </g>
     </g>
    </g>
    <g id="ytick_8">
     <g id="line2d_14">
      <g>
       <use style="stroke:#000000;stroke-width:0.8;" x="108" xlink:href="#m13473298f0" y="74.215561"/>
      </g>
     </g>
     <g id="text_15">
      <!-- 175 -->
      <g transform="translate(81.9125 78.01478)scale(0.1 -0.1)">
       <use xlink:href="#DejaVuSans-49"/>
       <use x="63.623047" xlink:href="#DejaVuSans-55"/>
       <use x="127.246094" xlink:href="#DejaVuSans-53"/>
      </g>
     </g>
    </g>
    <g id="text_16">
     <!-- Average regret -->
     <g transform="translate(75.832812 328.175313)rotate(-90)scale(0.1 -0.1)">
      <defs>
       <path d="M 34.1875 63.1875 
L 20.796875 26.90625 
L 47.609375 26.90625 
z
M 28.609375 72.90625 
L 39.796875 72.90625 
L 67.578125 0 
L 57.328125 0 
L 50.6875 18.703125 
L 17.828125 18.703125 
L 11.1875 0 
L 0.78125 0 
z
" id="DejaVuSans-65"/>
       <path d="M 2.984375 54.6875 
L 12.5 54.6875 
L 29.59375 8.796875 
L 46.6875 54.6875 
L 56.203125 54.6875 
L 35.6875 0 
L 23.484375 0 
z
" id="DejaVuSans-118"/>
       <path d="M 41.109375 46.296875 
Q 39.59375 47.171875 37.8125 47.578125 
Q 36.03125 48 33.890625 48 
Q 26.265625 48 22.1875 43.046875 
Q 18.109375 38.09375 18.109375 28.8125 
L 18.109375 0 
L 9.078125 0 
L 9.078125 54.6875 
L 18.109375 54.6875 
L 18.109375 46.1875 
Q 20.953125 51.171875 25.484375 53.578125 
Q 30.03125 56 36.53125 56 
Q 37.453125 56 38.578125 55.875 
Q 39.703125 55.765625 41.0625 55.515625 
z
" id="DejaVuSans-114"/>
       <path d="M 34.28125 27.484375 
Q 23.390625 27.484375 19.1875 25 
Q 14.984375 22.515625 14.984375 16.5 
Q 14.984375 11.71875 18.140625 8.90625 
Q 21.296875 6.109375 26.703125 6.109375 
Q 34.1875 6.109375 38.703125 11.40625 
Q 43.21875 16.703125 43.21875 25.484375 
L 43.21875 27.484375 
z
M 52.203125 31.203125 
L 52.203125 0 
L 43.21875 0 
L 43.21875 8.296875 
Q 40.140625 3.328125 35.546875 0.953125 
Q 30.953125 -1.421875 24.3125 -1.421875 
Q 15.921875 -1.421875 10.953125 3.296875 
Q 6 8.015625 6 15.921875 
Q 6 25.140625 12.171875 29.828125 
Q 18.359375 34.515625 30.609375 34.515625 
L 43.21875 34.515625 
L 43.21875 35.40625 
Q 43.21875 41.609375 39.140625 45 
Q 35.0625 48.390625 27.6875 48.390625 
Q 23 48.390625 18.546875 47.265625 
Q 14.109375 46.140625 10.015625 43.890625 
L 10.015625 52.203125 
Q 14.9375 54.109375 19.578125 55.046875 
Q 24.21875 56 28.609375 56 
Q 40.484375 56 46.34375 49.84375 
Q 52.203125 43.703125 52.203125 31.203125 
z
" id="DejaVuSans-97"/>
       <path d="M 45.40625 27.984375 
Q 45.40625 37.75 41.375 43.109375 
Q 37.359375 48.484375 30.078125 48.484375 
Q 22.859375 48.484375 18.828125 43.109375 
Q 14.796875 37.75 14.796875 27.984375 
Q 14.796875 18.265625 18.828125 12.890625 
Q 22.859375 7.515625 30.078125 7.515625 
Q 37.359375 7.515625 41.375 12.890625 
Q 45.40625 18.265625 45.40625 27.984375 
z
M 54.390625 6.78125 
Q 54.390625 -7.171875 48.1875 -13.984375 
Q 42 -20.796875 29.203125 -20.796875 
Q 24.46875 -20.796875 20.265625 -20.09375 
Q 16.0625 -19.390625 12.109375 -17.921875 
L 12.109375 -9.1875 
Q 16.0625 -11.328125 19.921875 -12.34375 
Q 23.78125 -13.375 27.78125 -13.375 
Q 36.625 -13.375 41.015625 -8.765625 
Q 45.40625 -4.15625 45.40625 5.171875 
L 45.40625 9.625 
Q 42.625 4.78125 38.28125 2.390625 
Q 33.9375 0 27.875 0 
Q 17.828125 0 11.671875 7.65625 
Q 5.515625 15.328125 5.515625 27.984375 
Q 5.515625 40.671875 11.671875 48.328125 
Q 17.828125 56 27.875 56 
Q 33.9375 56 38.28125 53.609375 
Q 42.625 51.21875 45.40625 46.390625 
L 45.40625 54.6875 
L 54.390625 54.6875 
z
" id="DejaVuSans-103"/>
      </defs>
      <use xlink:href="#DejaVuSans-65"/>
      <use x="62.533203" xlink:href="#DejaVuSans-118"/>
      <use x="121.712891" xlink:href="#DejaVuSans-101"/>
      <use x="183.236328" xlink:href="#DejaVuSans-114"/>
      <use x="224.349609" xlink:href="#DejaVuSans-97"/>
      <use x="285.628906" xlink:href="#DejaVuSans-103"/>
      <use x="349.105469" xlink:href="#DejaVuSans-101"/>
      <use x="410.628906" xlink:href="#DejaVuSans-32"/>
      <use x="442.416016" xlink:href="#DejaVuSans-114"/>
      <use x="481.279297" xlink:href="#DejaVuSans-101"/>
      <use x="542.802734" xlink:href="#DejaVuSans-103"/>
      <use x="606.279297" xlink:href="#DejaVuSans-114"/>
      <use x="645.142578" xlink:href="#DejaVuSans-101"/>
      <use x="706.666016" xlink:href="#DejaVuSans-116"/>
     </g>
    </g>
   </g>
   <g id="line2d_15">
    <path clip-path="url(#p26fd7122fd)" d="M 138.436364 492.370826 
L 747.163636 89.28 
L 747.163636 89.28 
" style="fill:none;stroke:#1f77b4;stroke-linecap:square;stroke-width:1.5;"/>
   </g>
   <g id="line2d_16">
    <path clip-path="url(#p26fd7122fd)" d="M 138.436364 492.437948 
L 140.87371 491.112177 
L 142.70172 490.085948 
L 145.748403 487.875178 
L 156.107125 481.574293 
L 157.325799 480.931232 
L 157.935135 480.49156 
L 160.372482 479.303371 
L 162.809828 477.879875 
L 164.028501 477.212947 
L 165.856511 475.999476 
L 170.121867 473.406066 
L 171.340541 472.843788 
L 171.949877 472.344924 
L 176.215233 469.93755 
L 179.871253 467.470784 
L 181.089926 466.799121 
L 182.3086 466.051118 
L 182.917936 465.613234 
L 183.527273 465.36918 
L 187.183292 462.893309 
L 188.401966 462.172418 
L 192.057985 459.852547 
L 195.714005 457.81645 
L 197.542015 456.670258 
L 198.760688 455.960896 
L 199.370025 455.483142 
L 202.416708 453.786899 
L 203.635381 452.963801 
L 204.244717 452.688628 
L 206.682064 451.00388 
L 207.2914 450.745527 
L 210.338084 448.654555 
L 211.556757 447.850367 
L 214.60344 446.119986 
L 220.696806 442.298366 
L 223.134152 440.688286 
L 224.962162 439.734159 
L 226.790172 438.513008 
L 232.274201 435.261496 
L 235.320885 433.352835 
L 235.930221 433.052998 
L 238.367568 431.358891 
L 240.195577 430.248957 
L 242.632924 428.863778 
L 243.851597 428.375952 
L 246.89828 426.428007 
L 259.694349 418.230544 
L 260.913022 417.627825 
L 261.522359 417.140162 
L 262.741032 416.463872 
L 263.959705 415.52919 
L 265.787715 414.561978 
L 267.615725 413.25019 
L 268.834398 412.612456 
L 270.053071 411.819762 
L 271.881081 410.766563 
L 273.709091 409.784427 
L 276.146437 408.290612 
L 281.630467 404.878071 
L 282.84914 404.258953 
L 284.67715 402.960159 
L 285.895823 402.134765 
L 288.33317 400.7351 
L 290.161179 399.793924 
L 291.989189 398.490994 
L 302.347912 391.995656 
L 304.175921 390.839132 
L 304.785258 390.503798 
L 306.613268 389.201168 
L 308.441278 388.240209 
L 309.659951 387.488879 
L 313.315971 385.164681 
L 314.534644 384.462621 
L 317.581327 382.743082 
L 318.8 381.816111 
L 321.846683 379.931243 
L 324.284029 378.377392 
L 326.112039 377.397574 
L 327.330713 376.717519 
L 331.596069 373.992854 
L 333.424079 372.766395 
L 336.470762 371.049168 
L 337.689435 370.36698 
L 339.517445 369.445772 
L 342.564128 367.443179 
L 343.173464 366.924262 
L 345.610811 365.607634 
L 346.829484 364.895922 
L 349.876167 362.793569 
L 351.09484 362.1583 
L 352.92285 361.123249 
L 354.75086 360.024496 
L 360.844226 356.887067 
L 377.905651 346.641817 
L 383.389681 343.354177 
L 385.21769 342.35043 
L 396.185749 335.65702 
L 396.795086 335.406825 
L 398.623096 334.293682 
L 399.232432 334.067314 
L 401.060442 332.849764 
L 401.669779 332.562081 
L 405.325799 330.116098 
L 406.544472 329.514865 
L 407.153808 329.087086 
L 408.372482 328.526249 
L 410.809828 327.038301 
L 412.028501 326.487947 
L 413.247174 325.635208 
L 416.903194 323.647924 
L 418.731204 322.541801 
L 420.559214 321.328417 
L 422.387224 320.154145 
L 423.605897 319.292304 
L 424.215233 318.804987 
L 425.433907 318.194663 
L 427.261916 316.810129 
L 432.136609 313.559474 
L 435.792629 311.702083 
L 437.011302 310.991781 
L 437.620639 310.673036 
L 438.839312 309.862189 
L 439.448649 309.534772 
L 440.057985 308.998572 
L 441.276658 308.343185 
L 443.714005 306.635366 
L 446.151351 305.110056 
L 448.588698 303.669429 
L 451.635381 301.766671 
L 454.072727 300.665035 
L 455.2914 299.855315 
L 456.510074 299.202904 
L 458.338084 297.953841 
L 459.556757 297.297766 
L 461.384767 296.006617 
L 463.212776 294.658319 
L 465.040786 293.466789 
L 466.868796 292.537078 
L 469.915479 290.555772 
L 470.524816 290.022926 
L 478.446192 285.18737 
L 479.664865 284.299646 
L 482.711548 282.658389 
L 487.586241 279.460112 
L 494.288943 275.710719 
L 500.991646 271.348725 
L 501.600983 271.082248 
L 505.257002 268.777635 
L 505.866339 268.514194 
L 509.522359 266.217857 
L 511.959705 264.999714 
L 512.569042 264.479534 
L 517.443735 261.630573 
L 520.490418 259.562853 
L 523.537101 257.89195 
L 524.755774 257.112175 
L 527.802457 255.264804 
L 528.411794 255.004516 
L 529.630467 254.070809 
L 530.239803 253.655451 
L 530.84914 253.410771 
L 543.645209 245.628134 
L 544.863882 244.787422 
L 550.957248 241.128284 
L 552.785258 239.868283 
L 554.003931 239.207039 
L 555.831941 238.095541 
L 571.065356 228.89592 
L 572.893366 227.793469 
L 575.330713 226.215211 
L 578.986732 224.109567 
L 582.642752 221.641918 
L 588.736118 217.894617 
L 592.392138 215.826026 
L 593.001474 215.384058 
L 594.220147 214.788789 
L 595.438821 214.02523 
L 598.485504 211.936467 
L 599.704177 211.283025 
L 601.532187 210.175236 
L 604.57887 208.457114 
L 606.40688 207.539153 
L 610.672236 204.75077 
L 611.281572 204.524346 
L 613.718919 202.993533 
L 614.937592 202.377315 
L 616.765602 201.491939 
L 620.421622 199.153271 
L 623.468305 197.42845 
L 625.905651 196.215454 
L 626.514988 195.765913 
L 627.733661 195.138917 
L 628.952334 194.403605 
L 630.171007 193.789081 
L 635.655037 190.334378 
L 643.576413 185.400811 
L 645.404423 184.517261 
L 649.060442 182.332591 
L 649.669779 181.945771 
L 650.279115 181.378774 
L 650.888452 181.097513 
L 652.107125 180.20019 
L 655.153808 178.446421 
L 656.372482 177.479929 
L 657.591155 176.671157 
L 658.809828 175.865724 
L 660.637838 174.792394 
L 674.65258 166.353132 
L 676.48059 165.100499 
L 678.3086 164.067517 
L 679.527273 163.211544 
L 683.183292 160.997631 
L 685.011302 159.68519 
L 686.229975 159.049554 
L 687.448649 158.186008 
L 689.276658 157.169967 
L 692.932678 155.124 
L 693.542015 154.872101 
L 695.370025 153.67268 
L 695.979361 153.430795 
L 697.807371 152.316279 
L 698.416708 152.133154 
L 700.244717 151.027082 
L 705.11941 147.866526 
L 707.556757 146.383362 
L 708.166093 145.853811 
L 711.212776 144.118565 
L 715.478133 141.401024 
L 718.524816 139.490347 
L 722.180835 137.464667 
L 722.790172 137.207388 
L 724.618182 136.091436 
L 728.274201 134.094571 
L 728.883538 133.805747 
L 730.102211 132.984311 
L 731.930221 131.790532 
L 732.539558 131.505574 
L 734.367568 130.373569 
L 736.804914 128.704634 
L 738.632924 127.448528 
L 741.07027 125.89207 
L 741.679607 125.577327 
L 743.507617 124.173235 
L 744.72629 123.351744 
L 745.335627 123.054932 
L 747.163636 121.812556 
L 747.163636 121.812556 
" style="fill:none;stroke:#ff7f0e;stroke-linecap:square;stroke-width:1.5;"/>
   </g>
   <g id="line2d_17">
    <path clip-path="url(#p26fd7122fd)" d="M 138.436364 492.322064 
L 142.092383 489.775991 
L 143.920393 488.808308 
L 146.967076 487.559453 
L 156.107125 485.010324 
L 157.325799 484.720546 
L 159.153808 484.277068 
L 160.981818 483.845145 
L 164.637838 483.001841 
L 169.512531 481.934767 
L 170.731204 481.489441 
L 172.559214 481.186375 
L 174.387224 480.81124 
L 177.433907 480.113009 
L 179.871253 479.725602 
L 183.527273 479.051897 
L 184.745946 478.880444 
L 186.573956 478.457153 
L 187.792629 478.372294 
L 189.620639 477.980302 
L 192.057985 477.539998 
L 193.276658 477.263803 
L 196.932678 476.896959 
L 198.760688 476.468349 
L 206.682064 475.329579 
L 210.338084 475.025159 
L 217.040786 474.143332 
L 219.478133 473.82712 
L 223.134152 473.248173 
L 238.976904 471.030152 
L 240.804914 470.891916 
L 242.023587 470.670427 
L 243.24226 470.566945 
L 244.460934 470.376785 
L 248.72629 469.876691 
L 251.163636 469.560303 
L 256.038329 469.025731 
L 262.131695 468.085744 
L 265.787715 467.619095 
L 267.006388 467.486758 
L 267.615725 467.46767 
L 270.053071 466.954946 
L 276.755774 466.131924 
L 278.583784 465.891055 
L 280.411794 465.647543 
L 285.895823 465.033016 
L 287.723833 464.774567 
L 290.161179 464.503693 
L 292.598526 464.234321 
L 293.817199 463.985751 
L 295.035872 463.796607 
L 306.003931 462.228756 
L 312.097297 461.426229 
L 324.284029 459.575396 
L 329.768059 458.984456 
L 331.596069 458.748464 
L 332.814742 458.623971 
L 336.470762 458.182716 
L 337.689435 457.960144 
L 342.564128 457.456063 
L 344.392138 457.12741 
L 348.048157 456.634396 
L 355.360197 455.586689 
L 357.188206 455.433829 
L 359.016216 455.096047 
L 364.500246 454.477018 
L 366.937592 454.192941 
L 368.765602 454.017664 
L 369.374939 453.989945 
L 371.202948 453.617438 
L 374.249631 453.176457 
L 375.468305 453.093665 
L 377.296314 452.8238 
L 380.342998 452.539794 
L 381.561671 452.33452 
L 384.608354 451.970345 
L 385.827027 451.70419 
L 447.370025 444.643913 
L 455.2914 443.745789 
L 457.728747 443.415519 
L 458.94742 443.347957 
L 460.77543 443.108755 
L 467.478133 442.279198 
L 468.696806 442.131212 
L 469.915479 441.897227 
L 472.352826 441.48659 
L 473.571499 441.360997 
L 477.227518 440.6598 
L 478.446192 440.437016 
L 480.883538 440.075946 
L 482.102211 439.961044 
L 483.930221 439.670694 
L 485.758231 439.339682 
L 488.195577 439.132484 
L 489.414251 438.963959 
L 497.944963 437.84529 
L 499.772973 437.456251 
L 502.210319 437.242149 
L 504.647666 437.009831 
L 505.866339 436.809889 
L 508.303686 436.601981 
L 510.741032 436.370188 
L 513.787715 436.170598 
L 515.615725 435.824569 
L 519.881081 435.399604 
L 532.67715 433.863453 
L 534.50516 433.631765 
L 546.082555 432.370481 
L 547.301229 432.187283 
L 549.129238 432.02629 
L 550.347912 431.834847 
L 551.566585 431.761422 
L 554.003931 431.401187 
L 555.222604 431.275722 
L 562.534644 430.162202 
L 564.362654 429.973288 
L 567.409337 429.398963 
L 568.62801 429.283348 
L 574.721376 428.554886 
L 577.158722 428.233882 
L 593.610811 426.360724 
L 594.829484 426.109466 
L 596.048157 426.003495 
L 600.313514 425.515521 
L 601.532187 425.410612 
L 603.360197 425.14325 
L 605.188206 424.840063 
L 607.016216 424.594389 
L 609.453563 424.005257 
L 612.500246 423.695791 
L 617.374939 422.995564 
L 627.733661 421.591995 
L 628.952334 421.412883 
L 633.21769 420.905623 
L 636.87371 420.357596 
L 638.092383 420.144247 
L 641.139066 419.623906 
L 644.795086 419.248443 
L 648.451106 418.808197 
L 649.669779 418.720896 
L 652.107125 418.306107 
L 660.637838 417.269494 
L 661.856511 417.086059 
L 664.903194 416.878698 
L 670.387224 416.199407 
L 671.605897 416.008503 
L 674.043243 415.622259 
L 675.871253 415.267007 
L 700.244717 411.984509 
L 700.854054 411.971151 
L 702.072727 411.742768 
L 706.94742 411.267056 
L 708.77543 410.931756 
L 714.259459 410.496357 
L 732.539558 408.198518 
L 733.758231 408.138136 
L 736.195577 407.728711 
L 747.163636 405.912501 
L 747.163636 405.912501 
" style="fill:none;stroke:#2ca02c;stroke-linecap:square;stroke-width:1.5;"/>
   </g>
   <g id="line2d_18">
    <path clip-path="url(#p26fd7122fd)" d="M 138.436364 492.48 
L 140.87371 491.115626 
L 142.092383 490.445467 
L 142.70172 490.15685 
L 143.920393 489.377562 
L 145.139066 488.849764 
L 147.576413 487.63846 
L 150.013759 486.702586 
L 152.451106 486.111266 
L 154.279115 485.473337 
L 156.107125 484.861118 
L 157.325799 484.596182 
L 158.544472 484.312571 
L 159.153808 484.223254 
L 160.372482 483.850557 
L 174.387224 481.289696 
L 190.229975 479.449927 
L 192.667322 479.269023 
L 199.370025 478.924245 
L 201.198034 478.744112 
L 204.854054 478.532898 
L 213.994103 478.194029 
L 222.524816 477.907336 
L 226.180835 477.796468 
L 246.89828 477.273558 
L 249.335627 477.18683 
L 731.930221 467.059458 
L 747.163636 466.847211 
L 747.163636 466.847211 
" style="fill:none;stroke:#d62728;stroke-linecap:square;stroke-width:1.5;"/>
   </g>
   <g id="line2d_19">
    <path clip-path="url(#p26fd7122fd)" d="M 138.436364 492.415381 
L 139.655037 491.769104 
L 140.264373 491.286606 
L 144.52973 488.893299 
L 145.748403 488.109702 
L 146.967076 487.386723 
L 149.404423 485.81378 
L 150.623096 484.913802 
L 151.232432 484.656613 
L 152.451106 483.90689 
L 155.497789 482.316709 
L 157.935135 480.724815 
L 159.763145 479.779015 
L 160.372482 479.391959 
L 161.591155 478.798813 
L 162.809828 478.034157 
L 171.340541 472.95471 
L 172.559214 472.147101 
L 181.089926 466.922242 
L 183.527273 465.511258 
L 187.792629 462.994801 
L 189.620639 461.88539 
L 190.839312 461.061199 
L 193.885995 459.107868 
L 195.714005 457.766736 
L 196.323342 457.554462 
L 196.932678 457.213844 
L 198.151351 456.229181 
L 199.979361 454.937334 
L 201.807371 453.936057 
L 206.682064 450.860179 
L 207.900737 449.941978 
L 212.166093 447.497658 
L 213.384767 446.770118 
L 213.994103 446.491427 
L 217.650123 444.054115 
L 221.915479 441.473923 
L 222.524816 441.188682 
L 223.134152 440.709106 
L 223.743489 440.42306 
L 224.962162 439.556146 
L 226.790172 438.347684 
L 227.399509 438.051199 
L 228.008845 437.61809 
L 230.446192 436.362629 
L 231.055528 435.873168 
L 233.492875 434.437158 
L 235.320885 433.182791 
L 237.148894 432.12428 
L 240.195577 430.271077 
L 240.804914 430.031067 
L 241.414251 429.611617 
L 242.632924 429.042149 
L 251.772973 423.232082 
L 254.819656 421.510805 
L 256.038329 420.790523 
L 260.913022 418.060109 
L 262.131695 417.132095 
L 268.225061 413.663083 
L 269.443735 412.819301 
L 270.053071 412.549814 
L 271.271744 411.765675 
L 277.974447 407.501942 
L 279.19312 407.012022 
L 281.02113 405.806099 
L 282.239803 405.041416 
L 284.67715 403.504106 
L 287.114496 402.206332 
L 289.551843 400.438637 
L 290.161179 400.108479 
L 291.379853 399.31714 
L 292.598526 398.549603 
L 293.817199 397.763599 
L 294.426536 397.222217 
L 295.035872 396.930274 
L 296.863882 395.743474 
L 298.691892 394.595206 
L 299.301229 394.0546 
L 301.738575 392.730103 
L 302.347912 392.430288 
L 303.566585 391.66313 
L 307.831941 389.142914 
L 308.441278 388.70274 
L 309.050614 388.465723 
L 310.878624 387.215875 
L 316.362654 383.530691 
L 317.581327 382.842229 
L 320.018673 381.30445 
L 321.237346 380.324647 
L 323.065356 379.306833 
L 324.284029 378.513653 
L 326.112039 377.398166 
L 332.814742 373.380583 
L 334.033415 372.721508 
L 336.470762 371.050263 
L 337.689435 370.445257 
L 340.126781 369.103012 
L 340.736118 368.801668 
L 342.564128 367.5771 
L 344.392138 366.494076 
L 347.438821 364.150101 
L 349.26683 362.985755 
L 350.485504 362.175521 
L 354.141523 360.012705 
L 355.360197 359.39164 
L 356.57887 358.70637 
L 357.797543 357.912491 
L 358.40688 357.701306 
L 362.062899 355.434276 
L 365.718919 352.850174 
L 367.546929 351.76946 
L 368.156265 351.224361 
L 371.812285 349.044932 
L 372.421622 348.57181 
L 373.640295 347.891336 
L 376.077641 346.44905 
L 380.952334 343.70569 
L 381.561671 343.196524 
L 382.780344 342.566996 
L 383.999017 341.874649 
L 392.52973 336.768592 
L 397.404423 334.007538 
L 398.623096 333.197611 
L 400.451106 332.426469 
L 402.888452 331.016624 
L 405.325799 329.631888 
L 406.544472 328.822597 
L 408.981818 327.365383 
L 412.028501 325.539967 
L 413.247174 324.814161 
L 413.856511 324.571169 
L 414.465848 324.112549 
L 415.684521 323.509346 
L 422.387224 319.209382 
L 425.433907 317.304332 
L 426.65258 316.424436 
L 427.871253 315.737087 
L 430.917936 313.999479 
L 431.527273 313.76246 
L 432.745946 312.98592 
L 433.355283 312.69965 
L 435.183292 311.501611 
L 436.401966 310.747979 
L 437.620639 309.752745 
L 438.839312 309.089604 
L 445.542015 304.695134 
L 446.760688 304.045347 
L 449.198034 302.750946 
L 450.416708 302.177126 
L 451.635381 301.385561 
L 452.854054 300.74616 
L 457.11941 298.122347 
L 458.338084 297.503181 
L 462.60344 295.015869 
L 466.259459 292.713338 
L 468.696806 291.216754 
L 469.915479 290.336647 
L 471.134152 289.486068 
L 472.352826 288.751442 
L 474.790172 287.166706 
L 475.399509 286.896477 
L 477.836855 285.214688 
L 481.492875 283.089031 
L 482.102211 282.634048 
L 482.711548 282.421367 
L 483.320885 281.954327 
L 485.758231 280.648828 
L 486.976904 279.814392 
L 487.586241 279.58255 
L 491.24226 277.251171 
L 491.851597 276.967196 
L 493.07027 276.154879 
L 493.679607 275.86131 
L 494.89828 275.105001 
L 495.507617 274.84929 
L 500.38231 271.705154 
L 502.819656 270.257823 
L 506.475676 268.292693 
L 507.694349 267.326302 
L 509.522359 266.37069 
L 513.178378 264.125763 
L 513.787715 263.870729 
L 515.615725 262.524681 
L 516.225061 262.238287 
L 516.834398 261.794224 
L 517.443735 261.506502 
L 518.662408 260.727049 
L 521.099754 259.368064 
L 521.709091 258.904178 
L 523.537101 257.897758 
L 525.365111 256.598838 
L 526.583784 255.74558 
L 531.458477 252.920221 
L 532.067813 252.516877 
L 533.286486 251.930037 
L 535.114496 250.782489 
L 536.33317 250.059204 
L 537.551843 249.48002 
L 539.379853 248.422586 
L 539.989189 247.935968 
L 542.426536 246.436324 
L 543.035872 245.979948 
L 543.645209 245.710336 
L 546.691892 243.716408 
L 547.910565 243.128858 
L 549.129238 242.338738 
L 551.566585 241.047062 
L 552.785258 240.24864 
L 554.613268 239.150611 
L 561.925307 234.892228 
L 564.97199 232.886115 
L 566.8 231.847442 
L 567.409337 231.60491 
L 571.065356 229.31052 
L 572.893366 228.368009 
L 573.502703 227.884963 
L 581.424079 223.504034 
L 583.252088 222.458421 
L 583.861425 222.173721 
L 585.080098 221.318247 
L 589.345455 218.844548 
L 590.564128 218.060299 
L 592.392138 217.04866 
L 594.220147 216.158205 
L 596.048157 214.951662 
L 601.532187 211.808871 
L 602.141523 211.32324 
L 603.360197 210.747964 
L 607.625553 208.078293 
L 608.844226 207.181517 
L 610.062899 206.380213 
L 611.281572 205.573136 
L 617.374939 202.009539 
L 619.812285 200.305728 
L 621.030958 199.545862 
L 622.249631 198.807284 
L 623.468305 198.029672 
L 624.686978 197.327709 
L 628.952334 194.583799 
L 631.389681 193.228892 
L 634.436364 191.362165 
L 636.264373 190.071423 
L 637.483047 189.390063 
L 638.092383 189.136126 
L 639.311057 188.460835 
L 639.920393 188.218086 
L 641.139066 187.395648 
L 642.35774 186.589319 
L 642.967076 186.393692 
L 645.404423 184.911372 
L 652.716462 180.286843 
L 653.935135 179.519833 
L 656.372482 178.228444 
L 658.200491 177.041281 
L 658.809828 176.77971 
L 660.028501 176.038018 
L 661.247174 175.34897 
L 666.731204 171.888499 
L 667.949877 171.168662 
L 669.16855 170.536024 
L 671.605897 169.245154 
L 673.433907 168.017883 
L 674.65258 167.271701 
L 675.261916 166.765722 
L 684.401966 161.547074 
L 685.620639 160.924485 
L 688.667322 158.998914 
L 690.495332 157.991102 
L 691.714005 157.263966 
L 692.323342 157.001608 
L 697.198034 153.726536 
L 697.807371 153.500029 
L 698.416708 153.083638 
L 699.635381 152.478846 
L 701.463391 151.390853 
L 702.682064 150.685416 
L 709.384767 146.946933 
L 709.994103 146.524017 
L 711.212776 145.854251 
L 716.087469 143.178362 
L 717.915479 141.956497 
L 722.180835 139.047233 
L 728.274201 135.914736 
L 728.883538 135.687051 
L 731.320885 134.248176 
L 732.539558 133.610385 
L 734.367568 132.22056 
L 735.586241 131.524823 
L 738.632924 129.748728 
L 740.460934 128.649467 
L 743.507617 127.089271 
L 747.163636 124.685438 
L 747.163636 124.685438 
" style="fill:none;stroke:#9467bd;stroke-linecap:square;stroke-width:1.5;"/>
   </g>
   <g id="line2d_20">
    <path clip-path="url(#p26fd7122fd)" d="M 138.436364 492.370826 
L 139.0457 492.030687 
L 143.920393 490.878336 
L 148.795086 490.158588 
L 151.232432 489.718989 
L 158.544472 488.494855 
L 162.200491 487.977705 
L 163.419165 487.748 
L 165.856511 487.409207 
L 168.903194 487.002349 
L 173.16855 486.59439 
L 178.65258 486.032613 
L 181.089926 485.722972 
L 185.355283 485.310348 
L 189.620639 484.880911 
L 192.667322 484.651593 
L 216.43145 483.159691 
L 223.134152 482.670238 
L 235.320885 482.116474 
L 237.758231 481.985161 
L 260.913022 481.265083 
L 282.239803 480.665973 
L 287.114496 480.526853 
L 303.566585 480.384084 
L 315.14398 480.164907 
L 338.908108 479.955611 
L 345.610811 479.85128 
L 349.26683 479.808328 
L 369.374939 479.593832 
L 403.497789 479.272312 
L 432.136609 479.07779 
L 438.839312 479.052479 
L 444.932678 478.947763 
L 449.198034 478.85678 
L 455.900737 478.727301 
L 471.134152 478.537721 
L 480.883538 478.400351 
L 488.804914 478.282439 
L 521.709091 478.036231 
L 655.153808 477.253035 
L 683.183292 477.087716 
L 691.714005 476.93908 
L 694.151351 476.866663 
L 723.399509 476.560113 
L 747.163636 476.498069 
L 747.163636 476.498069 
" style="fill:none;stroke:#8c564b;stroke-linecap:square;stroke-width:1.5;"/>
   </g>
   <g id="patch_3">
    <path d="M 108 512.64 
L 108 69.12 
" style="fill:none;stroke:#000000;stroke-linecap:square;stroke-linejoin:miter;stroke-width:0.8;"/>
   </g>
   <g id="patch_4">
    <path d="M 777.6 512.64 
L 777.6 69.12 
" style="fill:none;stroke:#000000;stroke-linecap:square;stroke-linejoin:miter;stroke-width:0.8;"/>
   </g>
   <g id="patch_5">
    <path d="M 108 512.64 
L 777.6 512.64 
" style="fill:none;stroke:#000000;stroke-linecap:square;stroke-linejoin:miter;stroke-width:0.8;"/>
   </g>
   <g id="patch_6">
    <path d="M 108 69.12 
L 777.6 69.12 
" style="fill:none;stroke:#000000;stroke-linecap:square;stroke-linejoin:miter;stroke-width:0.8;"/>
   </g>
   <g id="text_17">
    <!-- Average Regret for 50 Two Arm Bandit Environments -->
    <g transform="translate(284.730937 63.12)scale(0.12 -0.12)">
     <defs>
      <path d="M 44.390625 34.1875 
Q 47.5625 33.109375 50.5625 29.59375 
Q 53.5625 26.078125 56.59375 19.921875 
L 66.609375 0 
L 56 0 
L 46.6875 18.703125 
Q 43.0625 26.03125 39.671875 28.421875 
Q 36.28125 30.8125 30.421875 30.8125 
L 19.671875 30.8125 
L 19.671875 0 
L 9.8125 0 
L 9.8125 72.90625 
L 32.078125 72.90625 
Q 44.578125 72.90625 50.734375 67.671875 
Q 56.890625 62.453125 56.890625 51.90625 
Q 56.890625 45.015625 53.6875 40.46875 
Q 50.484375 35.9375 44.390625 34.1875 
z
M 19.671875 64.796875 
L 19.671875 38.921875 
L 32.078125 38.921875 
Q 39.203125 38.921875 42.84375 42.21875 
Q 46.484375 45.515625 46.484375 51.90625 
Q 46.484375 58.296875 42.84375 61.546875 
Q 39.203125 64.796875 32.078125 64.796875 
z
" id="DejaVuSans-82"/>
      <path d="M 37.109375 75.984375 
L 37.109375 68.5 
L 28.515625 68.5 
Q 23.6875 68.5 21.796875 66.546875 
Q 19.921875 64.59375 19.921875 59.515625 
L 19.921875 54.6875 
L 34.71875 54.6875 
L 34.71875 47.703125 
L 19.921875 47.703125 
L 19.921875 0 
L 10.890625 0 
L 10.890625 47.703125 
L 2.296875 47.703125 
L 2.296875 54.6875 
L 10.890625 54.6875 
L 10.890625 58.5 
Q 10.890625 67.625 15.140625 71.796875 
Q 19.390625 75.984375 28.609375 75.984375 
z
" id="DejaVuSans-102"/>
      <path d="M 30.609375 48.390625 
Q 23.390625 48.390625 19.1875 42.75 
Q 14.984375 37.109375 14.984375 27.296875 
Q 14.984375 17.484375 19.15625 11.84375 
Q 23.34375 6.203125 30.609375 6.203125 
Q 37.796875 6.203125 41.984375 11.859375 
Q 46.1875 17.53125 46.1875 27.296875 
Q 46.1875 37.015625 41.984375 42.703125 
Q 37.796875 48.390625 30.609375 48.390625 
z
M 30.609375 56 
Q 42.328125 56 49.015625 48.375 
Q 55.71875 40.765625 55.71875 27.296875 
Q 55.71875 13.875 49.015625 6.21875 
Q 42.328125 -1.421875 30.609375 -1.421875 
Q 18.84375 -1.421875 12.171875 6.21875 
Q 5.515625 13.875 5.515625 27.296875 
Q 5.515625 40.765625 12.171875 48.375 
Q 18.84375 56 30.609375 56 
z
" id="DejaVuSans-111"/>
      <path d="M 4.203125 54.6875 
L 13.1875 54.6875 
L 24.421875 12.015625 
L 35.59375 54.6875 
L 46.1875 54.6875 
L 57.421875 12.015625 
L 68.609375 54.6875 
L 77.59375 54.6875 
L 63.28125 0 
L 52.6875 0 
L 40.921875 44.828125 
L 29.109375 0 
L 18.5 0 
z
" id="DejaVuSans-119"/>
      <path d="M 19.671875 34.8125 
L 19.671875 8.109375 
L 35.5 8.109375 
Q 43.453125 8.109375 47.28125 11.40625 
Q 51.125 14.703125 51.125 21.484375 
Q 51.125 28.328125 47.28125 31.5625 
Q 43.453125 34.8125 35.5 34.8125 
z
M 19.671875 64.796875 
L 19.671875 42.828125 
L 34.28125 42.828125 
Q 41.5 42.828125 45.03125 45.53125 
Q 48.578125 48.25 48.578125 53.8125 
Q 48.578125 59.328125 45.03125 62.0625 
Q 41.5 64.796875 34.28125 64.796875 
z
M 9.8125 72.90625 
L 35.015625 72.90625 
Q 46.296875 72.90625 52.390625 68.21875 
Q 58.5 63.53125 58.5 54.890625 
Q 58.5 48.1875 55.375 44.234375 
Q 52.25 40.28125 46.1875 39.3125 
Q 53.46875 37.75 57.5 32.78125 
Q 61.53125 27.828125 61.53125 20.40625 
Q 61.53125 10.640625 54.890625 5.3125 
Q 48.25 0 35.984375 0 
L 9.8125 0 
z
" id="DejaVuSans-66"/>
      <path d="M 54.890625 33.015625 
L 54.890625 0 
L 45.90625 0 
L 45.90625 32.71875 
Q 45.90625 40.484375 42.875 44.328125 
Q 39.84375 48.1875 33.796875 48.1875 
Q 26.515625 48.1875 22.3125 43.546875 
Q 18.109375 38.921875 18.109375 30.90625 
L 18.109375 0 
L 9.078125 0 
L 9.078125 54.6875 
L 18.109375 54.6875 
L 18.109375 46.1875 
Q 21.34375 51.125 25.703125 53.5625 
Q 30.078125 56 35.796875 56 
Q 45.21875 56 50.046875 50.171875 
Q 54.890625 44.34375 54.890625 33.015625 
z
" id="DejaVuSans-110"/>
      <path d="M 45.40625 46.390625 
L 45.40625 75.984375 
L 54.390625 75.984375 
L 54.390625 0 
L 45.40625 0 
L 45.40625 8.203125 
Q 42.578125 3.328125 38.25 0.953125 
Q 33.9375 -1.421875 27.875 -1.421875 
Q 17.96875 -1.421875 11.734375 6.484375 
Q 5.515625 14.40625 5.515625 27.296875 
Q 5.515625 40.1875 11.734375 48.09375 
Q 17.96875 56 27.875 56 
Q 33.9375 56 38.25 53.625 
Q 42.578125 51.265625 45.40625 46.390625 
z
M 14.796875 27.296875 
Q 14.796875 17.390625 18.875 11.75 
Q 22.953125 6.109375 30.078125 6.109375 
Q 37.203125 6.109375 41.296875 11.75 
Q 45.40625 17.390625 45.40625 27.296875 
Q 45.40625 37.203125 41.296875 42.84375 
Q 37.203125 48.484375 30.078125 48.484375 
Q 22.953125 48.484375 18.875 42.84375 
Q 14.796875 37.203125 14.796875 27.296875 
z
" id="DejaVuSans-100"/>
      <path d="M 9.8125 72.90625 
L 55.90625 72.90625 
L 55.90625 64.59375 
L 19.671875 64.59375 
L 19.671875 43.015625 
L 54.390625 43.015625 
L 54.390625 34.71875 
L 19.671875 34.71875 
L 19.671875 8.296875 
L 56.78125 8.296875 
L 56.78125 0 
L 9.8125 0 
z
" id="DejaVuSans-69"/>
     </defs>
     <use xlink:href="#DejaVuSans-65"/>
     <use x="62.533203" xlink:href="#DejaVuSans-118"/>
     <use x="121.712891" xlink:href="#DejaVuSans-101"/>
     <use x="183.236328" xlink:href="#DejaVuSans-114"/>
     <use x="224.349609" xlink:href="#DejaVuSans-97"/>
     <use x="285.628906" xlink:href="#DejaVuSans-103"/>
     <use x="349.105469" xlink:href="#DejaVuSans-101"/>
     <use x="410.628906" xlink:href="#DejaVuSans-32"/>
     <use x="442.416016" xlink:href="#DejaVuSans-82"/>
     <use x="507.398438" xlink:href="#DejaVuSans-101"/>
     <use x="568.921875" xlink:href="#DejaVuSans-103"/>
     <use x="632.398438" xlink:href="#DejaVuSans-114"/>
     <use x="671.261719" xlink:href="#DejaVuSans-101"/>
     <use x="732.785156" xlink:href="#DejaVuSans-116"/>
     <use x="771.994141" xlink:href="#DejaVuSans-32"/>
     <use x="803.78125" xlink:href="#DejaVuSans-102"/>
     <use x="838.986328" xlink:href="#DejaVuSans-111"/>
     <use x="900.167969" xlink:href="#DejaVuSans-114"/>
     <use x="941.28125" xlink:href="#DejaVuSans-32"/>
     <use x="973.068359" xlink:href="#DejaVuSans-53"/>
     <use x="1036.691406" xlink:href="#DejaVuSans-48"/>
     <use x="1100.314453" xlink:href="#DejaVuSans-32"/>
     <use x="1132.101562" xlink:href="#DejaVuSans-84"/>
     <use x="1176.685547" xlink:href="#DejaVuSans-119"/>
     <use x="1258.472656" xlink:href="#DejaVuSans-111"/>
     <use x="1319.654297" xlink:href="#DejaVuSans-32"/>
     <use x="1351.441406" xlink:href="#DejaVuSans-65"/>
     <use x="1419.849609" xlink:href="#DejaVuSans-114"/>
     <use x="1459.212891" xlink:href="#DejaVuSans-109"/>
     <use x="1556.625" xlink:href="#DejaVuSans-32"/>
     <use x="1588.412109" xlink:href="#DejaVuSans-66"/>
     <use x="1657.015625" xlink:href="#DejaVuSans-97"/>
     <use x="1718.294922" xlink:href="#DejaVuSans-110"/>
     <use x="1781.673828" xlink:href="#DejaVuSans-100"/>
     <use x="1845.150391" xlink:href="#DejaVuSans-105"/>
     <use x="1872.933594" xlink:href="#DejaVuSans-116"/>
     <use x="1912.142578" xlink:href="#DejaVuSans-32"/>
     <use x="1943.929688" xlink:href="#DejaVuSans-69"/>
     <use x="2007.113281" xlink:href="#DejaVuSans-110"/>
     <use x="2070.492188" xlink:href="#DejaVuSans-118"/>
     <use x="2129.671875" xlink:href="#DejaVuSans-105"/>
     <use x="2157.455078" xlink:href="#DejaVuSans-114"/>
     <use x="2196.318359" xlink:href="#DejaVuSans-111"/>
     <use x="2257.5" xlink:href="#DejaVuSans-110"/>
     <use x="2320.878906" xlink:href="#DejaVuSans-109"/>
     <use x="2418.291016" xlink:href="#DejaVuSans-101"/>
     <use x="2479.814453" xlink:href="#DejaVuSans-110"/>
     <use x="2543.193359" xlink:href="#DejaVuSans-116"/>
     <use x="2582.402344" xlink:href="#DejaVuSans-115"/>
    </g>
   </g>
   <g id="legend_1">
    <g id="patch_7">
     <path d="M 115 165.18875 
L 232.929688 165.18875 
Q 234.929688 165.18875 234.929688 163.18875 
L 234.929688 76.12 
Q 234.929688 74.12 232.929688 74.12 
L 115 74.12 
Q 113 74.12 113 76.12 
L 113 163.18875 
Q 113 165.18875 115 165.18875 
z
" style="fill:#ffffff;opacity:0.8;stroke:#cccccc;stroke-linejoin:miter;"/>
    </g>
    <g id="line2d_21">
     <path d="M 117 82.218438 
L 137 82.218438 
" style="fill:none;stroke:#1f77b4;stroke-linecap:square;stroke-width:1.5;"/>
    </g>
    <g id="line2d_22"/>
    <g id="text_18">
     <!-- Pure Exploitation -->
     <g transform="translate(145 85.718438)scale(0.1 -0.1)">
      <defs>
       <path d="M 19.671875 64.796875 
L 19.671875 37.40625 
L 32.078125 37.40625 
Q 38.96875 37.40625 42.71875 40.96875 
Q 46.484375 44.53125 46.484375 51.125 
Q 46.484375 57.671875 42.71875 61.234375 
Q 38.96875 64.796875 32.078125 64.796875 
z
M 9.8125 72.90625 
L 32.078125 72.90625 
Q 44.34375 72.90625 50.609375 67.359375 
Q 56.890625 61.8125 56.890625 51.125 
Q 56.890625 40.328125 50.609375 34.8125 
Q 44.34375 29.296875 32.078125 29.296875 
L 19.671875 29.296875 
L 19.671875 0 
L 9.8125 0 
z
" id="DejaVuSans-80"/>
       <path d="M 8.5 21.578125 
L 8.5 54.6875 
L 17.484375 54.6875 
L 17.484375 21.921875 
Q 17.484375 14.15625 20.5 10.265625 
Q 23.53125 6.390625 29.59375 6.390625 
Q 36.859375 6.390625 41.078125 11.03125 
Q 45.3125 15.671875 45.3125 23.6875 
L 45.3125 54.6875 
L 54.296875 54.6875 
L 54.296875 0 
L 45.3125 0 
L 45.3125 8.40625 
Q 42.046875 3.421875 37.71875 1 
Q 33.40625 -1.421875 27.6875 -1.421875 
Q 18.265625 -1.421875 13.375 4.4375 
Q 8.5 10.296875 8.5 21.578125 
z
M 31.109375 56 
z
" id="DejaVuSans-117"/>
       <path d="M 54.890625 54.6875 
L 35.109375 28.078125 
L 55.90625 0 
L 45.3125 0 
L 29.390625 21.484375 
L 13.484375 0 
L 2.875 0 
L 24.125 28.609375 
L 4.6875 54.6875 
L 15.28125 54.6875 
L 29.78125 35.203125 
L 44.28125 54.6875 
z
" id="DejaVuSans-120"/>
       <path d="M 9.421875 75.984375 
L 18.40625 75.984375 
L 18.40625 0 
L 9.421875 0 
z
" id="DejaVuSans-108"/>
      </defs>
      <use xlink:href="#DejaVuSans-80"/>
      <use x="58.552734" xlink:href="#DejaVuSans-117"/>
      <use x="121.931641" xlink:href="#DejaVuSans-114"/>
      <use x="160.794922" xlink:href="#DejaVuSans-101"/>
      <use x="222.318359" xlink:href="#DejaVuSans-32"/>
      <use x="254.105469" xlink:href="#DejaVuSans-69"/>
      <use x="317.289062" xlink:href="#DejaVuSans-120"/>
      <use x="376.46875" xlink:href="#DejaVuSans-112"/>
      <use x="439.945312" xlink:href="#DejaVuSans-108"/>
      <use x="467.728516" xlink:href="#DejaVuSans-111"/>
      <use x="528.910156" xlink:href="#DejaVuSans-105"/>
      <use x="556.693359" xlink:href="#DejaVuSans-116"/>
      <use x="595.902344" xlink:href="#DejaVuSans-97"/>
      <use x="657.181641" xlink:href="#DejaVuSans-116"/>
      <use x="696.390625" xlink:href="#DejaVuSans-105"/>
      <use x="724.173828" xlink:href="#DejaVuSans-111"/>
      <use x="785.355469" xlink:href="#DejaVuSans-110"/>
     </g>
    </g>
    <g id="line2d_23">
     <path d="M 117 96.896563 
L 137 96.896563 
" style="fill:none;stroke:#ff7f0e;stroke-linecap:square;stroke-width:1.5;"/>
    </g>
    <g id="line2d_24"/>
    <g id="text_19">
     <!-- Pure Exploration -->
     <g transform="translate(145 100.396563)scale(0.1 -0.1)">
      <use xlink:href="#DejaVuSans-80"/>
      <use x="58.552734" xlink:href="#DejaVuSans-117"/>
      <use x="121.931641" xlink:href="#DejaVuSans-114"/>
      <use x="160.794922" xlink:href="#DejaVuSans-101"/>
      <use x="222.318359" xlink:href="#DejaVuSans-32"/>
      <use x="254.105469" xlink:href="#DejaVuSans-69"/>
      <use x="317.289062" xlink:href="#DejaVuSans-120"/>
      <use x="376.46875" xlink:href="#DejaVuSans-112"/>
      <use x="439.945312" xlink:href="#DejaVuSans-108"/>
      <use x="467.728516" xlink:href="#DejaVuSans-111"/>
      <use x="528.910156" xlink:href="#DejaVuSans-114"/>
      <use x="570.023438" xlink:href="#DejaVuSans-97"/>
      <use x="631.302734" xlink:href="#DejaVuSans-116"/>
      <use x="670.511719" xlink:href="#DejaVuSans-105"/>
      <use x="698.294922" xlink:href="#DejaVuSans-111"/>
      <use x="759.476562" xlink:href="#DejaVuSans-110"/>
     </g>
    </g>
    <g id="line2d_25">
     <path d="M 117 111.574688 
L 137 111.574688 
" style="fill:none;stroke:#2ca02c;stroke-linecap:square;stroke-width:1.5;"/>
    </g>
    <g id="line2d_26"/>
    <g id="text_20">
     <!-- Epsilon Greedy -->
     <g transform="translate(145 115.074688)scale(0.1 -0.1)">
      <defs>
       <path d="M 59.515625 10.40625 
L 59.515625 29.984375 
L 43.40625 29.984375 
L 43.40625 38.09375 
L 69.28125 38.09375 
L 69.28125 6.78125 
Q 63.578125 2.734375 56.6875 0.65625 
Q 49.8125 -1.421875 42 -1.421875 
Q 24.90625 -1.421875 15.25 8.5625 
Q 5.609375 18.5625 5.609375 36.375 
Q 5.609375 54.25 15.25 64.234375 
Q 24.90625 74.21875 42 74.21875 
Q 49.125 74.21875 55.546875 72.453125 
Q 61.96875 70.703125 67.390625 67.28125 
L 67.390625 56.78125 
Q 61.921875 61.421875 55.765625 63.765625 
Q 49.609375 66.109375 42.828125 66.109375 
Q 29.4375 66.109375 22.71875 58.640625 
Q 16.015625 51.171875 16.015625 36.375 
Q 16.015625 21.625 22.71875 14.15625 
Q 29.4375 6.6875 42.828125 6.6875 
Q 48.046875 6.6875 52.140625 7.59375 
Q 56.25 8.5 59.515625 10.40625 
z
" id="DejaVuSans-71"/>
       <path d="M 32.171875 -5.078125 
Q 28.375 -14.84375 24.75 -17.8125 
Q 21.140625 -20.796875 15.09375 -20.796875 
L 7.90625 -20.796875 
L 7.90625 -13.28125 
L 13.1875 -13.28125 
Q 16.890625 -13.28125 18.9375 -11.515625 
Q 21 -9.765625 23.484375 -3.21875 
L 25.09375 0.875 
L 2.984375 54.6875 
L 12.5 54.6875 
L 29.59375 11.921875 
L 46.6875 54.6875 
L 56.203125 54.6875 
z
" id="DejaVuSans-121"/>
      </defs>
      <use xlink:href="#DejaVuSans-69"/>
      <use x="63.183594" xlink:href="#DejaVuSans-112"/>
      <use x="126.660156" xlink:href="#DejaVuSans-115"/>
      <use x="178.759766" xlink:href="#DejaVuSans-105"/>
      <use x="206.542969" xlink:href="#DejaVuSans-108"/>
      <use x="234.326172" xlink:href="#DejaVuSans-111"/>
      <use x="295.507812" xlink:href="#DejaVuSans-110"/>
      <use x="358.886719" xlink:href="#DejaVuSans-32"/>
      <use x="390.673828" xlink:href="#DejaVuSans-71"/>
      <use x="468.164062" xlink:href="#DejaVuSans-114"/>
      <use x="507.027344" xlink:href="#DejaVuSans-101"/>
      <use x="568.550781" xlink:href="#DejaVuSans-101"/>
      <use x="630.074219" xlink:href="#DejaVuSans-100"/>
      <use x="693.550781" xlink:href="#DejaVuSans-121"/>
     </g>
    </g>
    <g id="line2d_27">
     <path d="M 117 126.252813 
L 137 126.252813 
" style="fill:none;stroke:#d62728;stroke-linecap:square;stroke-width:1.5;"/>
    </g>
    <g id="line2d_28"/>
    <g id="text_21">
     <!-- Deacying Epsilon -->
     <g transform="translate(145 129.752813)scale(0.1 -0.1)">
      <defs>
       <path d="M 19.671875 64.796875 
L 19.671875 8.109375 
L 31.59375 8.109375 
Q 46.6875 8.109375 53.6875 14.9375 
Q 60.6875 21.78125 60.6875 36.53125 
Q 60.6875 51.171875 53.6875 57.984375 
Q 46.6875 64.796875 31.59375 64.796875 
z
M 9.8125 72.90625 
L 30.078125 72.90625 
Q 51.265625 72.90625 61.171875 64.09375 
Q 71.09375 55.28125 71.09375 36.53125 
Q 71.09375 17.671875 61.125 8.828125 
Q 51.171875 0 30.078125 0 
L 9.8125 0 
z
" id="DejaVuSans-68"/>
       <path d="M 48.78125 52.59375 
L 48.78125 44.1875 
Q 44.96875 46.296875 41.140625 47.34375 
Q 37.3125 48.390625 33.40625 48.390625 
Q 24.65625 48.390625 19.8125 42.84375 
Q 14.984375 37.3125 14.984375 27.296875 
Q 14.984375 17.28125 19.8125 11.734375 
Q 24.65625 6.203125 33.40625 6.203125 
Q 37.3125 6.203125 41.140625 7.25 
Q 44.96875 8.296875 48.78125 10.40625 
L 48.78125 2.09375 
Q 45.015625 0.34375 40.984375 -0.53125 
Q 36.96875 -1.421875 32.421875 -1.421875 
Q 20.0625 -1.421875 12.78125 6.34375 
Q 5.515625 14.109375 5.515625 27.296875 
Q 5.515625 40.671875 12.859375 48.328125 
Q 20.21875 56 33.015625 56 
Q 37.15625 56 41.109375 55.140625 
Q 45.0625 54.296875 48.78125 52.59375 
z
" id="DejaVuSans-99"/>
      </defs>
      <use xlink:href="#DejaVuSans-68"/>
      <use x="77.001953" xlink:href="#DejaVuSans-101"/>
      <use x="138.525391" xlink:href="#DejaVuSans-97"/>
      <use x="199.804688" xlink:href="#DejaVuSans-99"/>
      <use x="254.785156" xlink:href="#DejaVuSans-121"/>
      <use x="313.964844" xlink:href="#DejaVuSans-105"/>
      <use x="341.748047" xlink:href="#DejaVuSans-110"/>
      <use x="405.126953" xlink:href="#DejaVuSans-103"/>
      <use x="468.603516" xlink:href="#DejaVuSans-32"/>
      <use x="500.390625" xlink:href="#DejaVuSans-69"/>
      <use x="563.574219" xlink:href="#DejaVuSans-112"/>
      <use x="627.050781" xlink:href="#DejaVuSans-115"/>
      <use x="679.150391" xlink:href="#DejaVuSans-105"/>
      <use x="706.933594" xlink:href="#DejaVuSans-108"/>
      <use x="734.716797" xlink:href="#DejaVuSans-111"/>
      <use x="795.898438" xlink:href="#DejaVuSans-110"/>
     </g>
    </g>
    <g id="line2d_29">
     <path d="M 117 140.930938 
L 137 140.930938 
" style="fill:none;stroke:#9467bd;stroke-linecap:square;stroke-width:1.5;"/>
    </g>
    <g id="line2d_30"/>
    <g id="text_22">
     <!-- Softmax -->
     <g transform="translate(145 144.430938)scale(0.1 -0.1)">
      <use xlink:href="#DejaVuSans-83"/>
      <use x="63.476562" xlink:href="#DejaVuSans-111"/>
      <use x="124.658203" xlink:href="#DejaVuSans-102"/>
      <use x="158.113281" xlink:href="#DejaVuSans-116"/>
      <use x="197.322266" xlink:href="#DejaVuSans-109"/>
      <use x="294.734375" xlink:href="#DejaVuSans-97"/>
      <use x="356.013672" xlink:href="#DejaVuSans-120"/>
     </g>
    </g>
    <g id="line2d_31">
     <path d="M 117 155.609063 
L 137 155.609063 
" style="fill:none;stroke:#8c564b;stroke-linecap:square;stroke-width:1.5;"/>
    </g>
    <g id="line2d_32"/>
    <g id="text_23">
     <!-- UCB -->
     <g transform="translate(145 159.109063)scale(0.1 -0.1)">
      <defs>
       <path d="M 8.6875 72.90625 
L 18.609375 72.90625 
L 18.609375 28.609375 
Q 18.609375 16.890625 22.84375 11.734375 
Q 27.09375 6.59375 36.625 6.59375 
Q 46.09375 6.59375 50.34375 11.734375 
Q 54.59375 16.890625 54.59375 28.609375 
L 54.59375 72.90625 
L 64.5 72.90625 
L 64.5 27.390625 
Q 64.5 13.140625 57.4375 5.859375 
Q 50.390625 -1.421875 36.625 -1.421875 
Q 22.796875 -1.421875 15.734375 5.859375 
Q 8.6875 13.140625 8.6875 27.390625 
z
" id="DejaVuSans-85"/>
       <path d="M 64.40625 67.28125 
L 64.40625 56.890625 
Q 59.421875 61.53125 53.78125 63.8125 
Q 48.140625 66.109375 41.796875 66.109375 
Q 29.296875 66.109375 22.65625 58.46875 
Q 16.015625 50.828125 16.015625 36.375 
Q 16.015625 21.96875 22.65625 14.328125 
Q 29.296875 6.6875 41.796875 6.6875 
Q 48.140625 6.6875 53.78125 8.984375 
Q 59.421875 11.28125 64.40625 15.921875 
L 64.40625 5.609375 
Q 59.234375 2.09375 53.4375 0.328125 
Q 47.65625 -1.421875 41.21875 -1.421875 
Q 24.65625 -1.421875 15.125 8.703125 
Q 5.609375 18.84375 5.609375 36.375 
Q 5.609375 53.953125 15.125 64.078125 
Q 24.65625 74.21875 41.21875 74.21875 
Q 47.75 74.21875 53.53125 72.484375 
Q 59.328125 70.75 64.40625 67.28125 
z
" id="DejaVuSans-67"/>
      </defs>
      <use xlink:href="#DejaVuSans-85"/>
      <use x="73.193359" xlink:href="#DejaVuSans-67"/>
      <use x="143.017578" xlink:href="#DejaVuSans-66"/>
     </g>
    </g>
   </g>
  </g>
 </g>
 <defs>
  <clipPath id="p26fd7122fd">
   <rect height="443.52" width="669.6" x="108" y="69.12"/>
  </clipPath>
 </defs>
</svg>
